<?xml version="1.0" encoding="UTF-8"?><svg id="a" xmlns="http://www.w3.org/2000/svg" width="2in" height="2in" viewBox="0 0 144 144"><defs><style>.b,.c{fill:#fff;}.d{fill:#4d4d4d;}.c{stroke:#000;stroke-miterlimit:10;stroke-width:4px;}</style></defs><rect class="b" x="1.0054154778" y="1.0033208769" width="141.9912636517" height="141.9912636454"/><circle class="d" cx="71.9799915954" cy="37.0787650046" r="27.024297681"/><path class="d" d="m0,0v144h144V0H0Zm142.001111578,142.001111578l-5.7763924769-19.5292014657-3.9781927825-15.2515058775c-2.6185389527-12.8128211037-3.098374656-21.3681221109-14.1521641882-29.5236210332-17.0105599913-12.532947444-62.4252463772-12.8927327197-83.1538315553-4.4374737356-20.7483495777,8.4552589841-21.1481516626,30.9827705405-21.1481516626,30.9827705405l-6.708870421,21.0275829148-5.0846200696,16.7314486567V1.998888422h140.0022231561v140.0022231561Z"/><polygon class="d" points="3.8156504643 40.1051719146 3.8156504643 3.5861542279 44.1078507902 3.5861542279 3.8156504643 40.1051719146"/><path class="c" d="m12.7612304688,109.59375l14.12890625-11.5732421875c6.1767578125-5.041015625,8.5908203125-7.8095703125,8.5908203125-11.927734375,0-4.1884765625-2.7690429688-6.4609375-6.673828125-6.4609375-3.1240234375,0-5.3251953125,1.3486328125-8.0942382812,4.3310546875-.7099609375.78125-1.9877929688,1.5615234375-3.6918945312,1.5615234375-2.7690429688,0-4.9697265625-2.2001953125-4.9697265625-4.9697265625,0-1.20703125.4970703125-2.484375,1.2778320312-3.408203125,3.9760742188-4.6147460938,8.662109375-7.3125,16.1879882812-7.3125,10.294921875,0,17.1103515625,6.03515625,17.1103515625,15.3359375v.1416015625c0,8.306640625-4.259765625,12.4248046875-13.0634765625,19.2412109375l-8.0942382812,6.2470703125h17.32421875c2.626953125,0,4.7568359375,2.130859375,4.7568359375,4.7578125s-2.1298828125,4.685546875-4.7568359375,4.685546875H15.8139648438c-3.4077148438,0-5.8930664062-1.9169921875-5.8930664062-5.1826171875,0-2.1298828125.994140625-3.9765625,2.8403320312-5.466796875Z"/><path class="c" d="m55.4311523438,112.43359375l9.7265625-11.501953125-8.8745117188-10.2236328125c-1.20703125-1.4208984375-1.7749023438-2.6982421875-1.7749023438-4.1181640625,0-3.052734375,2.271484375-4.9697265625,4.9697265625-4.9697265625,2.1298828125,0,3.62109375.994140625,5.041015625,2.7685546875l7.0288085938,9.3720703125,7.171875-9.3720703125c1.27734375-1.5615234375,2.7685546875-2.7685546875,4.685546875-2.7685546875,2.83984375,0,5.041015625,1.9873046875,5.041015625,4.685546875,0,1.4912109375-.638671875,2.626953125-1.4912109375,3.69140625l-9.2294921875,10.7919921875,9.513671875,10.9345703125c1.20703125,1.419921875,1.7744140625,2.697265625,1.7744140625,4.1171875,0,3.0537109375-2.271484375,4.970703125-4.9697265625,4.970703125-2.1298828125,0-3.62109375-.994140625-5.041015625-2.76953125l-7.66796875-10.08203125-7.66796875,10.08203125c-1.2778320312,1.5625-2.7690429688,2.76953125-4.6860351562,2.76953125-2.83984375,0-5.041015625-1.98828125-5.041015625-4.6865234375,0-1.4912109375.568359375-2.626953125,1.4912109375-3.69140625Z"/><path class="c" d="m97.74609375,109.59375l14.12890625-11.5732421875c6.1767578125-5.041015625,8.5908203125-7.8095703125,8.5908203125-11.927734375,0-4.1884765625-2.7685546875-6.4609375-6.673828125-6.4609375-3.1240234375,0-5.32421875,1.3486328125-8.09375,4.3310546875-.7099609375.78125-1.98828125,1.5615234375-3.69140625,1.5615234375-2.76953125,0-4.970703125-2.2001953125-4.970703125-4.9697265625,0-1.20703125.4970703125-2.484375,1.2783203125-3.408203125,3.9755859375-4.6147460938,8.662109375-7.3125,16.1875-7.3125,10.294921875,0,17.111328125,6.03515625,17.111328125,15.3359375v.1416015625c0,8.306640625-4.259765625,12.4248046875-13.064453125,19.2412109375l-8.09375,6.2470703125h17.32421875c2.626953125,0,4.7568359375,2.130859375,4.7568359375,4.7578125s-2.1298828125,4.685546875-4.7568359375,4.685546875h-26.9794921875c-3.408203125,0-5.8935546875-1.9169921875-5.8935546875-5.1826171875,0-2.1298828125.994140625-3.9765625,2.83984375-5.466796875Z"/></svg>