<svg xmlns="http://www.w3.org/2000/svg" width="192" height="192" viewBox="0 0 144 144" xmlns:v="https://vecta.io/nano"><defs><filter id="A" filterUnits="userSpaceOnUse"><feOffset dx="9" dy="9"/><feGaussianBlur result="A" stdDeviation="9"/><feFlood flood-color="#000" flood-opacity=".54"/><feComposite in2="A" operator="in"/><feComposite in="SourceGraphic"/></filter></defs><path d="M61.167 113.486c-2.959 1.708-6.658-.427-6.658-3.844V30.575c0-3.417 3.699-5.553 6.658-3.844l38.754 22.375V32.006c-9.871-9.351-23.194-15.095-37.866-15.095C31.631 16.912 6.967 41.576 6.967 72s24.664 55.088 55.088 55.088c14.675 0 27.997-5.747 37.866-15.103V91.112l-38.754 22.375z" fill="#ea2121" filter="url(#A)"/><path d="M129.64 73.95l-13.36 7.72-55.11 31.82c-2.96 1.7-6.66-.43-6.66-3.85V30.57c0-3.41 3.7-5.55 6.66-3.84l54.18 31.28 14.29 8.25c2.96 1.71 2.96 5.98 0 7.69z" fill="#fff" filter="url(#A)"/></svg>