<svg xmlns="http://www.w3.org/2000/svg" viewBox="0 0 144 144"><defs><radialGradient id="a" cx="123.067" cy="79.999" r="93.074" fx="123.067" fy="79.999" gradientTransform="matrix(1 0 0 -1 0 146)" gradientUnits="userSpaceOnUse"><stop offset=".007" stop-color="#021192"/><stop offset=".03" stop-color="#021096"/><stop offset=".057" stop-color="#010cb4"/><stop offset=".084" stop-color="#0008ce"/><stop offset=".111" stop-color="#0006d7"/><stop offset=".138" stop-color="#0004e1"/><stop offset=".165" stop-color="#0001fa"/><stop offset=".191" stop-color="#0000fe"/><stop offset=".216" stop-color="#0f1eff"/><stop offset="1" stop-color="#0ff" stop-opacity="0"/></radialGradient></defs><path d="M97.754 76.507c-1.763.404-6.404.637-6.404.637l-.588 1.837s2.315-.196 4.004-.025c0 0 .551-.061.612.625.025.636-.048 1.322-.048 1.322s-.037.416-.625.514c-.637.11-4.996.27-4.996.27L89 84.074s-.257.551.33.392c.552-.147 5.119-1.004 5.719-.881.637.159 1.347 1.004 1.139 1.787-.245.955-4.8 3.87-7.58 3.662 0 0-1.457.098-2.694-1.874-1.15-1.873.441-5.436.441-5.436s-.722-1.666-.196-2.217c0 0 .319-.281 1.225-.355l1.114-2.314s-1.273.086-2.033-.845c-.71-.894-.759-1.298-.22-1.543.575-.281 5.877-1.249 9.526-1.126 0 0 1.274-.123 2.364 2.081-.013 0 .526.894-.38 1.102Zm-13.726 8.89c-.466 1.102-1.702 2.277-3.233 1.543-1.518-.735-3.93-5.67-3.93-5.67s-.919-1.836-1.09-1.8c0 0-.196-.355-.319 1.654s.025 5.914-.77 6.526c-.76.612-1.678.367-2.156-.355-.429-.71-.612-2.4-.38-5.363.282-2.964.968-6.123 1.85-7.114.881-.98 1.591-.27 1.86-.013 0 0 1.176 1.066 3.123 4.2l.343.576s1.763 2.963 1.947 2.95c0 0 .147.135.27.037.183-.049.11-1.004.11-1.004s-.368-3.22-1.972-8.681c0 0-.245-.686-.074-1.323.16-.649.809-.342.809-.342s2.497 1.249 3.697 5.314c1.188 4.102.38 7.763-.085 8.865Zm-12.27-10.445c-.208.417-.33 1.017-1.383 1.176 0 0-10.077.685-10.555 1.396 0 0-.355.416.196.538.551.11 2.828.417 3.93.478 1.176.012 5.143.049 6.564 1.824 0 0 .845.845.808 2.755-.037 1.96-.38 2.645-1.139 3.355-.796.662-7.628 3.723-12.036-.98 0 0-2.033-2.264.697-3.979 0 0 1.972-1.187 6.98.209 0 0 1.518.55 1.445 1.102-.086.587-1.25 1.212-2.939 1.175-1.64-.049-2.84-.833-2.608-.71.22.086-1.763-.955-2.375-.245-.613.649-.466 1.053.134 1.457 1.53.87 7.445.563 9.208-1.396 0 0 .698-.796-.367-1.445-1.065-.612-4.114-.98-5.302-1.04-1.139-.062-5.375.012-5.988-1.115 0 0-.612-.759.062-2.914.71-2.253 5.644-3.122 7.775-3.318 0 0 5.865-.208 6.943.992-.013 0 .134.281-.05.685ZM55.107 88.164c-.71.527-2.216.294-2.645-.294-.429-.526-.575-2.62-.49-5.902.086-3.318.16-7.432.87-8.081.759-.661 1.224-.086 1.518.367.318.441.698.93.784 1.972.073 1.04.318 6.502.318 6.502s.318 4.922-.355 5.436Zm1.53-17.608c-2.069.686-3.49.453-4.69-.06-.526.918-.832 1.2-1.236 1.26-.588.062-1.114-.881-1.212-1.187-.098-.233-.38-.625-.037-1.555-1.175-1.053-1.261-2.474-1.065-3.429.294-1.102 2.277-5.29 8.314-5.78 0 0 2.95-.22 3.453 1.36h.086s2.865.012 2.804 2.559c-.037 2.559-3.184 5.743-6.417 6.832Zm-5.632-5.669c-.612.98-.637 1.567-.355 1.972.698-1.066 1.971-2.743 3.845-4.017-1.445.123-2.657.747-3.49 2.045Zm8.339-1.64c-1.898.281-4.837 2.828-6.233 4.91 2.143.391 5.926.244 7.604-3.172-.012 0 .796-2.118-1.371-1.739Zm51.525 19.725c-1.139 1.984-4.335 6.123-8.596 5.155-1.408 3.417-2.583 6.857-3.257 12.025 0 0-.147 1.004-.98.649-.82-.294-2.191-1.666-2.46-3.564-.294-2.497.82-6.722 3.085-11.558-.661-1.078-1.114-2.62-.722-4.813 0 0 .575-4.065 4.653-7.738 0 0 .49-.429.771-.294.318.135.171 1.457-.086 2.094-.257.636-2.081 3.796-2.081 3.796s-1.14 2.13-.82 3.808c2.142-3.294 7.015-9.943 10.04-7.85 1.016.723 1.482 2.303 1.482 4.005-.013 1.506-.368 3.098-1.029 4.285Zm-.882-5.216s-.171-1.31-1.445.135c-1.102 1.212-3.085 3.502-4.69 6.6 1.678-.184 3.295-1.102 3.784-1.568.796-.71 2.645-2.62 2.351-5.167ZM50.54 79.422c-.233 2.963-1.372 7.946-9.441 10.407-5.326 1.605-10.359.833-13.102.135-.061 1.09-.183 1.555-.355 1.739-.233.233-1.971 1.237-2.926-.184-.429-.673-.65-1.898-.772-2.987-6.171-2.841-9.012-6.93-9.122-7.115-.135-.134-1.543-1.604-.135-3.404 1.323-1.628 5.645-3.257 9.539-3.918.135-3.33.526-5.84.992-6.992.563-1.334 1.273-.134 1.885.772.515.673.82 3.575.845 5.89 2.547-.123 4.053.06 6.894.575 3.698.673 6.171 2.56 5.95 4.702-.158 2.106-2.093 2.975-2.828 3.037-.771.06-1.971-.49-1.971-.49-.82-.392-.061-.735.93-1.163 1.078-.527.833-1.066.833-1.066-.404-1.175-5.204-1.996-9.98-1.996-.024 2.633.111 7.004.172 9.551 3.343.637 5.841.515 5.841.515s12.196-.343 12.563-8.13c.38-7.8-12.159-15.282-21.428-17.658-9.257-2.424-14.498-.734-14.95-.502-.49.245-.038.319-.038.319s.502.073 1.372.367c.918.294.208.771.208.771-1.58.502-3.355.184-3.698-.538-.343-.723.233-1.372.894-2.302.661-.98 1.384-.943 1.384-.943 11.448-3.967 25.395 3.208 25.395 3.208 13.065 6.624 15.294 14.387 15.049 17.4Zm-34.555-.405c-1.298.637-.404 1.556-.404 1.556 2.437 2.62 5.437 4.26 8.29 5.277.33-4.518.281-6.11.318-8.388-4.457.306-7.028 1.017-8.204 1.555Zm119.127-.93v1.616a.632.632 0 0 1-.636.637h-7.702c0 .404.012.759.012 1.09a58.94 58.94 0 0 1-.33 6.526.635.635 0 0 1-.625.576h-1.665a.593.593 0 0 1-.588-.662 57.62 57.62 0 0 0 .343-6.44c0-.343 0-.698-.012-1.09h-7.617a.632.632 0 0 1-.636-.637v-1.616c0-.355.281-.637.636-.637h7.506a56.43 56.43 0 0 0-.992-7.738c-.024-.16.013-.319.11-.441s.246-.196.405-.196h1.8c.281 0 .514.196.575.477a62.27 62.27 0 0 1 .98 7.898h7.8c.342 0 .636.294.636.637Z" fill="#01147c"/><path d="M32.172 56.744h-.013m-.085.013c-.037 0-.074-.013-.11-.013a.339.339 0 0 0 .11.013h.036-.036Zm0 0c-.037 0-.074-.013-.11-.013a.339.339 0 0 0 .11.013h.036-.036Z" fill="none"/><path d="M124.63 65.267c-3.979-9.784-10.7-18.122-19.444-24.122-8.95-6.135-19.444-9.38-30.342-9.38-18.024 0-34.75 8.951-44.73 23.95a.627.627 0 0 0-.073.552c.061.196.208.33.392.392l1.396.477a.915.915 0 0 0 .245.037.807.807 0 0 0 .649-.343 51.267 51.267 0 0 1 17.926-16.2 51.012 51.012 0 0 1 24.183-6.11c10.2 0 20.032 3.013 28.457 8.694A50.978 50.978 0 0 1 121.74 65.61c.11.269.38.453.674.453h1.665a.56.56 0 0 0 .477-.258.536.536 0 0 0 .074-.538Zm-92.556-8.51h.024-.024Zm89.998 9.085c.037.025.073.05.11.061-.037-.024-.073-.036-.11-.06Z" fill="url(#a)"/></svg>