<svg xmlns="http://www.w3.org/2000/svg" viewBox="0 0 144 144"><path d="m50.906 130.669 37.798-22.529-11.616-5.376-38.565 21.698 12.383 6.207z" fill="#ff0"/><path d="m90.442 94.028-11.777-5.763.181 12.758 11.196 5.54.4.184V94.028z" fill="#f0f"/><path d="M49.467 78.17v25.25l27.3-15.17.293 12.354-38.713 22.349V35.18l11.71 5.87-.64 24.18 27.35-15.36v13.04l-27.3 15.26z" fill="#00f"/><path d="M50.906 39.659 88.703 17.13l-11.615-5.376-38.564 21.698 12.382 6.207z" fill="#ff0"/><path d="m51.384 62.145 11.651-6.194v-8.08l26.807-14.764V18.758l-37.91 22.596-.548 20.791zm27.462.747 11.596 5.737V55.897l-11.777-5.764.181 12.759z" fill="#f0f"/><path d="m53.066 77.638 12.315 6.174 24.3-13.631-11.58-5.361-25.035 12.818z" fill="#ff0"/><path d="M51.674 79.841v20.67l13.238-7.355.145-6.94-13.383-6.375z" fill="#f0f"/><path d="M92.443 70.831v-16.18l-14.83-7.26-12.58 7.07v-5.39l26.81-14.76v-17.93l-14.84-6.87-40.78 22.94v93.1l14.77 7.4 41.45-24.71v-15.47l-14.58-7.13-12.27 6.82.14-6.65 26.71-14.98Zm-2-14.93v12.73l-11.6-5.74-.18-12.76 11.78 5.77Zm-.6-22.77-26.81 14.76v7.69l-11.65 6.54.55-20.75 37.91-22.59v14.35Zm-12.76-21.38 11.62 5.38-37.8 22.53-12.38-6.21 38.56-21.7Zm13.36 82.27v12.73l-.4-.19-11.2-5.54-.18-12.76 11.78 5.76Zm-13.36 8.74 11.62 5.38-37.8 22.53-12.12-6.08 38.3-21.83Zm-.44-14.15v11.88l-38.42 22.1v-87.05l11.71 5.87-.64 24.13 27.35-15.31v12.34l-27.4 15.34.01 25.89 27.39-15.19Zm-24.96 11.56-.01.01v-.01l.25-20.33 11.81 5.78-.17 7.95-11.88 6.6Zm13.78-16.5-11.96-5.85 24.16-12.86 11.58 5.37-23.78 13.34Z"/></svg>