<svg xmlns="http://www.w3.org/2000/svg" width="192" height="192" viewBox="0 0 144 144" xmlns:v="https://vecta.io/nano"><path d="M60.83 56.426a1.37 1.37 0 0 0-.431.055c-2.167.521-4.314 1.133-6.41 1.891-1.566.56-3.094 1.25-4.478 2.179-.562.379-1.108.782-1.62 1.227-.121.106-.254.218-.288.386.164 1.01 1.126 1.555 1.957 1.977 1.366.628 2.905.989 4.41.819-.448-.381-1.071-.441-1.545-.778-.193-.145-.197-.404-.249-.616-.463.092-.902.269-1.36.375.422-.26.882-.451 1.321-.68 2.348-1.007 4.886-1.441 7.404-1.786 1.754-.192 3.546-.252 5.243-.782-.138-.381-.207-.94-.699-.999-1.058-.552-1.564-1.69-2.173-2.652-.223-.388-.647-.604-1.082-.617zm21.722.001c-.336-.005-.671.094-.912.339-.339.354-.537.811-.797 1.22-.372.648-.852 1.248-1.489 1.651-.164.108-.412.087-.51.283a2.31 2.31 0 0 0-.289.785c1.699.506 3.481.56 5.229.778 2.774.35 5.579.858 8.106 2.107l.646.353-1.369-.401c-.075.229-.083.516-.307.66-.467.315-1.078.373-1.501.755.719.096 1.448.029 2.159-.104 1.382-.269 2.792-.783 3.801-1.802l.012.004c.222-.299.343-.652.388-1.021-1.618-1.498-3.573-2.597-5.625-3.382-2.309-.891-4.693-1.573-7.094-2.159-.144-.041-.297-.065-.449-.067h0zM71.665 48.78c-.097-.004-.194.057-.212.191-.399 1.314-.754 2.673-1.507 3.84a3.06 3.06 0 0 1-1.104 1.019c-1.066.609-2.256.947-3.421 1.312-.184.048-.333.168-.465.298.134.112.274.226.448.278 1.252.4 2.55.75 3.671 1.463.664.41 1.053 1.116 1.378 1.801h.01c.416.957.699 1.96 1.004 2.955.086.287.43.12.436-.117.255-.954.578-1.888.933-2.807l-.025-.066.077-.022c.211-.361.376-.749.641-1.078.324-.447.803-.738 1.28-.995l.525-.248c.835-.346 1.698-.613 2.561-.878.17-.075.454-.127.405-.374-.157-.131-.352-.201-.542-.26-1.134-.346-2.284-.689-3.315-1.286-.442-.251-.823-.605-1.09-1.037-.73-1.158-1.088-2.495-1.475-3.793-.019-.125-.117-.193-.214-.197h0zm-50.793 8.638a11.84 11.84 0 0 0-2.379.225c-2.719.547-5.17 2.163-6.86 4.347a13.16 13.16 0 0 0-2.121 4.044c-.481 1.515-.698 3.113-.634 4.701a13.69 13.69 0 0 0 .33 2.507 13.75 13.75 0 0 0 .549 1.816l.012.006c.32.881.762 1.714 1.268 2.5.075.074.112.248.235.244l-.056.013c.692 1.006 1.537 1.905 2.487 2.673l.032.001c.886.736 1.907 1.306 2.979 1.725 1.517.603 3.165.83 4.79.747 2.64-.099 5.349-.617 7.631-2.004.699-.361 1.329-.874 1.875-1.442l.009-1.686-.008-2.647c.034-.577-.057-1.177.176-1.725l-.02.027c.236-.442.607-.814 1.06-1.033.411-.226.931-.23 1.297-.535l-.015-.246c-.305-.043-.612-.026-.917-.027-3.733.002-7.465-.001-11.198.002-.222-.057-.5.15-.328.38.264.255.662.291.999.401 1.008.209 1.988.679 2.626 1.51.201.383.402.785.402 1.229l.009 3.941c-.048.674-.052 1.374-.342 2-.529.579-1.393.333-2.083.369a6.21 6.21 0 0 1-3.206-1.512c-.833-.738-1.506-1.646-2.029-2.626-.466-.889-.821-1.833-1.081-2.802a24.61 24.61 0 0 1-.343-1.707c-.119-1.022-.179-2.05-.133-3.077.075-1.291.286-2.572.646-3.813l.016-.001a12.18 12.18 0 0 1 1.875-3.776c.544-.665 1.147-1.294 1.872-1.764 1.193-.81 2.718-1.151 4.13-.806 1.525.351 2.789 1.394 3.729 2.608.611.819 1.1 1.722 1.482 2.667a14.1 14.1 0 0 1 .45 1.343c.085.279.122.597.349.806.375-.701.297-1.53.383-2.298a43.09 43.09 0 0 0 .063-2.313c-.028-.776.014-1.578-.236-2.324-1.394.036-2.717-.47-3.921-1.13-1.779-.995-3.817-1.522-5.855-1.534h0zm11.708 8.036a3.63 3.63 0 0 0-.192.002c.495.492 1.165.828 1.502 1.466.477.91.48 1.97.462 2.972l.004 2.547v2.737a13.07 13.07 0 0 1 1.518-1.281 15.61 15.61 0 0 1 2.366-1.391l-.001-2.503.016-1.432c.056-.448.5-.779.946-.742l2.793.008c.776.024 1.504.372 2.087.87.71.665 1.2 1.533 1.508 2.449l.121-.146c.111-.779-.024-1.574-.143-2.346-.157-.736-.365-1.461-.618-2.169-2.705.002-5.42.03-8.113-.271-1.238-.168-2.461-.434-3.681-.703a2.64 2.64 0 0 0-.573-.069h0z"/><path d="M43.051 71.986c-.277.001-.557.034-.823.056a14.88 14.88 0 0 0-7.4 3.193 12.55 12.55 0 0 0-1.904 2.078c-.458.658-.876 1.347-1.195 2.083.779-.516 1.592-.978 2.424-1.404l.205-.09-.001.408c.054.688-.092 1.363-.321 2.005l.031.075-.093.028c-.479.958-1.341 1.624-2.121 2.323.596.018 1.167-.172 1.746-.283 1.548-.332 3.134-.443 4.715-.443l7.311.003a15.93 15.93 0 0 0 .717-2.439c.112-.644.177-1.297.172-1.95-.016-.167.007-.41-.192-.472-.302.877-.79 1.691-1.445 2.349-.682.659-1.596 1.086-2.55 1.106l-3.242.001c-.268.013-.481-.161-.677-.317-.087-.206-.185-.417-.17-.645l-.002-1.745.002-1.484.519-.131 1.135-.235c1.954-.346 3.939-.501 5.921-.511a1.84 1.84 0 0 0 .338-.056c-.121-.334-.333-.632-.634-.826-.36-.212-.783-.297-1.13-.528-.546-.466-.452-1.272-.326-1.901-.306-.198-.655-.25-1.011-.249h0zm17.498-5.493l-3.439.014c-.173.338.308.422.514.548.823.358 1.035 1.356.96 2.168l.003 1.533-.002 4.137-.001 1.23-.514-.653-2.019-2.591-1.241-1.586-1.145-1.467-2.6-3.328c-1.386.006-2.773-.017-4.158.01l-.004.255c.341.272.83.348 1.082.738.544.677.363 1.583.399 2.382l-.001 2.135-.003 1.917.002 1.87-.006 2.729c-.012.671.078 1.359-.119 2.012-.131.253-.268.516-.494.699-.235.203-.547.278-.803.448-.128.065-.071.221-.066.33l6.881-.011c.076-.363-.337-.432-.573-.567-.444-.187-.709-.62-.866-1.054-.14-.758-.04-1.533-.077-2.298l.001-2.319.004-1.489-.003-1.256.002-1.704-.013-.228.056-.029c.226.334.485.644.73.963l.849 1.082 1.568 2.007 1.329 1.705 2.01 2.558 1.721 2.226a10.03 10.03 0 0 0 1.061 1.153c.595.503 1.329.883 2.115.935-.108-.378-.379-.676-.548-1.024l-.076-.032.038-.045c-.139-.487-.343-.957-.439-1.456a12.8 12.8 0 0 1-.165-1.324l-.034-2.665-.002-2.955-.003-5.254c-.028-.715.229-1.534.919-1.862.241-.143.654-.202.609-.571l-3.439-.015h0zm10.544-3.33c-.319.002-.638.025-.957.077-1.567.222-3.066 1.05-3.986 2.354a5.21 5.21 0 0 0-.738 1.617l.006.012c-.278 1.11-.131 2.291.246 3.36l.012.002c.262.727.688 1.388 1.213 1.954l.017-.001c.668.661 1.466 1.179 2.244 1.695l4.827 3.385c.434.401.739.93.829 1.517.012.509-.048 1.018-.235 1.493a2.62 2.62 0 0 1-1.28 1.283c-.651.327-1.398.298-2.102.215-.335-.055-.666-.128-.992-.216a7.03 7.03 0 0 1-1.802-.877l-.57-.454-.264-.233-.51-.531a11.57 11.57 0 0 1-.963-1.285c-.468-.68-.76-1.472-1.265-2.126-.193.688-.187 1.41-.198 2.118l.026.65a11.38 11.38 0 0 0 .26 1.895c.196.788.495 1.577 1.063 2.174.83-.503 1.886-.435 2.772-.121 1.454.466 3.008.571 4.522.419.704-.068 1.392-.243 2.055-.491.897-.376 1.697-.986 2.255-1.788.502-.746.813-1.616.922-2.507l.015.009c.064-.49.084-.984.082-1.477-.032-1.049-.296-2.098-.849-2.997-.343-.54-.773-1.015-1.228-1.461-1.126-.941-2.371-1.725-3.571-2.565l-3.272-2.255c-.637-.515-1.092-1.312-.943-2.154.11-.464.338-.92.746-1.19.709-.484 1.62-.497 2.443-.411 1.052.111 2.044.643 2.714 1.463l.011-.001c.434.527.682 1.174 1.08 1.721.773.561 1.59 1.131 2.517 1.397.015-.468-.176-.902-.332-1.332l-.781-1.885c-.35-.724-.758-1.418-1.199-2.089-.631.304-1.34.172-1.992.024-.933-.204-1.89-.392-2.847-.386h0zm14.98 3.328c-2.297.025-4.593-.021-6.888.022-.021.42.482.445.744.637.681.42.839 1.294.78 2.034l.01 1.846.017.071a4.51 4.51 0 0 0-.022.738l-.002 2.841c-.002.384-.025.77.038 1.153l-.009-.074.045.196-.059.084-.017 2.316-.004 1.69c-.024.572-.215 1.111-.419 1.64l.022.074-.068.011c-.413.742-1.017 1.34-1.628 1.918 1.901.047 3.522-1.122 5.345-1.476.702-.114 1.409-.207 2.124-.196.125-.353-.306-.444-.537-.567-.604-.263-.916-.931-.952-1.561l-.005-1.669-.006-1.633c.011-.474.397-.922.891-.905l4.724.011a1.69 1.69 0 0 0 .392.168c.218.25.281.57.348.885l-.068.072.054.19c-.075.257-.034.529-.036.793l.003 2.042c-.031.636-.328 1.32-.935 1.596-.24.138-.658.202-.586.57l6.882-.003c.146-.338-.288-.418-.5-.54-.605-.248-.927-.897-.985-1.519l-.009-1.617-.001-2.461v-2.794l.01-3.784c.001-.511-.029-1.052.226-1.517.176-.375.512-.646.895-.794.178-.085.519-.212.355-.473a394.23 394.23 0 0 0-6.878.001c-.05.37.372.428.612.572.585.271.855.923.918 1.53l-.012 3.51c.013.29-.162.529-.347.734-.185.076-.372.166-.576.156l-4.381.001c-.38.039-.714-.187-.92-.488-.125-.655-.039-1.326-.065-1.987l-.004-.689.006-.557c-.068-.801.084-1.79.877-2.192.235-.153.746-.217.603-.607h0zm12.966 5.499a4.13 4.13 0 0 0-.578.034c-.197.017-.369.116-.534.213.099.537.192 1.142-.1 1.637-.114.216-.354.314-.509.49-.528.05-1.111.372-1.372.869-.08.095-.136.325.06.305 1.59.016 3.18.103 4.759.309v-.639-1.099-1.907c-.569-.101-1.148-.209-1.726-.213zm6.717 2.229l-.005 2.92.034-.061a25.11 25.11 0 0 1 4.478 2.314c-.486-1.117-1.175-2.139-1.976-3.053-.732-.83-1.596-1.535-2.531-2.122h0zm-4.755-7.729l-2.305.04.015.217c.603.32 1.363.316 1.885.805.504.383.667 1.037.594 1.642l.002 5.034.006 2.867-.006 1.167-.018 1.806c-.224.831-1.045 1.301-1.84 1.458-.252.093-.696.095-.675.46.278.034.56.037.841.017l.301-.004 7.624.019c.165-.01.501.05.429-.223-.31-.246-.734-.255-1.093-.392-.528-.158-.988-.506-1.273-.976l-.087-.018.027-.085c-.124-.482-.087-.98-.086-1.472l-.001-2.453-.003-3.2.001-3.589c.029-.535-.099-1.124.21-1.602.345-.586 1.005-.881 1.644-1.023.254-.094.672-.094.69-.449-1.009-.089-2.025-.016-3.037-.039-1.281.014-2.564-.007-3.846-.006h0zm33.422-7.673c-.965.105-1.9.407-2.853.587l-7.789 1.734c-.15-.001-.412.207-.205.337.607.225 1.318.282 1.782.792.627.578.702 1.472.663 2.272l.001 2.253v3.581l-.01 2.2-3.406-2.854-3.524-2.961-4.278-3.595-4.569.671c-.239.076-.736-.031-.691.351.384.344.978.25 1.42.5.779.339 1.184 1.211 1.105 2.033l-.003 3.456v2.928l-.002 2.692-.003 2.367c.034.627-.006 1.271-.291 1.844-.314.578-.8 1.062-1.399 1.34-.263.148-.58.222-.793.444-.104.272.259.238.423.244l2.046-.02h.064l5.389.018 2.939-.032c.183-.209-.12-.348-.272-.421-.58-.253-1.156-.56-1.555-1.068-.471-.596-.689-1.36-.622-2.116v-1.827l-.001-3.235v-2.718l.001-1.766 1.456 1.218 2.313 1.944 4.258 3.588-.002.309c.035.87.124 1.751.388 2.584a7.58 7.58 0 0 0 .594 1.527c.287.57.639 1.11 1.062 1.59a8.41 8.41 0 0 0 3.205 2.329c.207.083.542.17.636-.113.091-1.117.028-2.243.032-3.363l.009-3.745-.022-4.06.014-4.744.011-5.402c.044-1.289.907-2.417 1.973-3.079.19-.175.591-.291.506-.613h0zM38.419 87.049c-1.536.011-3.072-.009-4.607.01.02.283.363.261.56.361.472.132.885.56.873 1.07l.001 3.929c.019.515-.393.955-.872 1.088-.204.096-.525.081-.574.357l4.62.018c.187-.027.441.065.565-.131-.235-.13-.493-.205-.743-.297-.418-.162-.746-.577-.729-1.036l-.005-3.7c-.018-.339.044-.702.298-.949.307-.352.809-.36 1.182-.604-.143-.17-.381-.096-.57-.116h0zm9.558-.014c-1.172.047-2.346-.008-3.518.028l.031.179c.479.185 1.021.464 1.076 1.043l.016 4.137c.019.5-.373.932-.834 1.072-.221.095-.518.1-.631.347.785.082 1.578.014 2.368.039.226-.021.5.063.684-.111-.251-.204-.593-.32-.747-.623-.169-.287-.176-.63-.174-.951l.007-3.641c.257.484.411 1.023.703 1.486l-.032.101.138.184 1.578 3.584c.327-.16.509-.491.653-.809l1.974-4.414.002 3.62c.009.381-.065.799-.35 1.073-.176.17-.5.207-.534.49l4.051.013c.187-.03.451.073.568-.134-.343-.201-.767-.231-1.074-.494-.245-.202-.404-.511-.394-.83l-.001-3.931c-.01-.448.256-.901.682-1.062.179-.096.447-.123.481-.368-1.14-.025-2.282.001-3.422-.014l-1.646 3.675-1.655-3.689h0zm12.916.015c-.157-.001-.314.005-.45.092.183.145.4.23.609.328.383.179.607.61.598 1.025v3.921c.021.511-.383.948-.855 1.084-.205.103-.55.08-.583.371l5.142.001c-.018-.261-.301-.26-.486-.34-.454-.114-.88-.468-.94-.952-.03-.46-.003-.922-.013-1.383.757 0 1.546.037 2.259-.261.627-.243 1.242-.673 1.48-1.329.208-.557.009-1.196-.401-1.606-.646-.661-1.598-.938-2.504-.949-1.233-.006-2.468.003-3.701-.003h-.156 0zm3.026.478c.653.037 1.234.51 1.414 1.136.187.591-.031 1.265-.493 1.67a3.08 3.08 0 0 0-.392.242 2.96 2.96 0 0 1-.528.125l-.001-3.174h0zm12.676-.639l.297.687-.77 1.726-.149.325-1.426 3.193c-.141.317-.402.588-.742.683-.208.096-.529.084-.589.36l2.506.019c.188-.027.444.066.567-.131-.324-.233-.926-.183-1.011-.659.022-.527.343-.98.539-1.456l2.895.009c.166.409.387.798.512 1.222a.48.48 0 0 1-.314.609c-.225.12-.593.089-.655.395l4.572-.01c-.066-.274-.388-.264-.597-.362-.376-.102-.635-.425-.774-.774l-2.598-5.836a853.53 853.53 0 0 0-2.263 0h0zm.662 1.492l1.154 2.593h-2.308l1.154-2.593zm15.04-1.33c-.77-.004-1.54.179-2.208.571-.889.506-1.58 1.407-1.705 2.438-.088.571.043 1.145.243 1.678l.106.148c.606 1.191 1.927 1.898 3.233 1.981 1.136.074 2.392-.195 3.178-1.076.274-.333.569-.72.55-1.174-.276.271-.444.636-.758.869-.939.789-2.453.681-3.318-.168-1.159-1.108-1-3.268.302-4.196a2.2 2.2 0 0 1 2.744.256c.33.297.505.714.765 1.066.102-.661.058-1.341-.072-1.994-.267.022-.528.094-.795.101-.311-.062-.598-.207-.9-.297a4.88 4.88 0 0 0-1.366-.203zm9.471.001l-.003 2.059c.134.013.269.001.301-.159.147-.318.269-.675.584-.87.533-.39 1.228-.235 1.843-.263l-.001 4.603c.019.521-.403.962-.886 1.091-.199.091-.508.085-.564.347l5.187-.019c-.235-.367-.78-.273-1.074-.586-.655-.539-.297-1.465-.41-2.187l-.006-.201.02-3.049c.663.02 1.445-.137 1.972.38.337.249.294.786.679.977.131-.697.026-1.417.058-2.123-2.566-.001-5.133.001-7.699 0z"/></svg>