<svg xmlns="http://www.w3.org/2000/svg" xmlns:xlink="http://www.w3.org/1999/xlink" viewBox="0 0 144 50" xmlns:v="https://vecta.io/nano"><g fill="#302e7c"><path d="M136.7 18.4c0-.6 0-1.2-.1-1.7l-.1-.1v-.3l-.1-.1v-.3l-.1-.1v-.3l-.2-.5-.9-1.7c-.1-.2-.3-.4-.4-.6-.5-.6-1-1.1-1.6-1.5-.4-.3-.9-.6-1.4-.8l-1-.3h-.3l-.1-.1-2-.2-.1.1c-.5 0-.9 0-1.4.1l-.1.1c-.2 0-.4 0-.6.1l-.7.3-.9.4-.8.5c-.4.3-.7.6-1 .9-.2.3-.5.6-.7.9-.1.3-.3.6-.5.9-.1.3-.3.6-.4 1-.1.2-.1.5-.2.7l-.1.1c0 .2-.1.5-.1.7l-.1.1v.3l-.1.1-.1 2.7.1.1.1 1 .1.1.1.6.3.8c.2.6.5 1.1.9 1.6.2.3.4.5.6.8L124 26l.8.5c.3.2.6.3.9.4.1.1.6.1.7.3h.3c.2.1.5.2.7.2l.1.1h0c.8.2 2 .1 2.9.1.3 0 .6-.1 1-.2l.9-.3c.5-.2 1-.4 1.5-.7a4.44 4.44 0 0 0 1.1-.8c.2-.2.4-.4.7-.6v-.1h-.1l-2.1-2.1-1.2.9-1.1.5c-.2 0-.3.1-.5.1l-.1.1c-.4.1-.9.1-1.3.1l-.1-.1h-.5l-.1-.1h-.3c-.2 0-.4-.1-.5-.2l-1.1-.6-1.1-1.1-.6-1-.2-.7-.1-.1c0-.2-.1-.4-.1-.6h12.4v-1.2l.2-.2-.4-.2h0 0zm-3.6-1.6h-8.9 0c.2-.4.3-.8.4-1.2.1-.3.3-.5.4-.8.3-.3.7-.9 1.2-1.2l.6-.3.8-.3c.6-.1 1.2-.1 1.7-.1l.1.1c.2 0 .5 0 .7.1.1.1.7.3.8.3.2.2.3.2.5.3.3.2.5.5.7.7l.4.6c.1.2.2.3.3.5.1.3.1.5.3.8.1.3.1.4 0 .5h0zM76.4 4h3.5v23.1h-3.5V4zm41.9 12.8h0c-.1-.3-.1-.6-.2-.8l-.3-1c-.1-.2-.3-.5-.3-.8-.2-.3-.4-.6-.5-.9-.1-.1-.5-.6-.5-.7l-.9-.9c-.4-.4-.9-.7-1.4-1l-1-.4c-.1 0-.3-.1-.4-.1l-.1-.1-.6-.1-.1-.1h-.4l-.1-.1h-1l-.1-.1c-.5.1-.9.1-1.4.1l-.1.1h-.4l-.1.1-.6.1-.8.3c-.3.1-.5.3-.8.3l-.2.2c-.2.1-.5.2-.6.4V4h-3.5v15.7l.1.1v.6l.1.1.1.9.1.1v.3l.3.8c0 .1.1.2.2.3v.2c.2.3.3.6.4.9l.6.9a5.73 5.73 0 0 0 1.1 1.1l.9.6.9.4c.1 0 .3.1.4.1s.2.1.3.2l.6.1.1.1h.3l.1.1h0c.9.2 2.1.1 3 .1.3 0 .6-.1 1-.2.1 0 .2-.1.3-.2h.3c.4-.1.8-.3 1.2-.5l1-.6c.5-.4.9-.8 1.3-1.3.4-.4.7-.9 1-1.4.2-.4.4-.9.6-1.4l.3-1v-.3l.1-.1V20l.1-.1v-2.5l-.1-.1-.3-.5h0 0zm-3.3 2.4h0c-.1.4-.1.8-.2 1.1l-.3 1c-.2.4-.4.7-.6 1l-1 1c-.2.1-.3.3-.5.3-.3.1-.7.3-1 .3l-.1.1h-.4l-.1.1h-1.2l-.1-.1c-.2 0-.5 0-.7-.1l-.1-.1h-.2l-1.1-.6-.9-.9-.3-.5-.5-1.2-.2-.7v-.5l-.1-.1.1-2.3.1-.1.2-.9c.1 0 .3-.8.4-1 .2-.2.2-.3.3-.5l.9-.9c.3-.2.6-.4.9-.5l.8-.3h.3l.1-.1h1.4l.1.1c.2 0 .5 0 .7.1.3.1.6.3 1 .4a3.04 3.04 0 0 1 .7.5l.7.7.6 1 .3 1c.1.3.1.7.1 1l.1.1-.2 1.6zm-15.9-2.4h0c0-.3-.1-.6-.1-.8l-.3-1c-.1-.3-.3-.6-.4-1-.3-.5-.6-1-1-1.4-.4-.5-.9-.9-1.3-1.3l-1.5-.9c-.3-.1-.6-.3-1-.3-.2 0-.4-.1-.6-.1h-.1c-.5-.1-1-.1-1.5-.1l-.1-.1c-.5.1-1 .1-1.5.1v.1h-.4l-.1.1c-.2 0-.4 0-.6.1l-.8.3c-.4.1-.7.3-1 .5l-.9.6c-1 .8-1.9 1.9-2.4 3.1-.2.4-.3.8-.4 1.2 0 .2-.1.4-.1.6l-.1.1c-.1.4-.1.7-.1 1.1l-.1.1.1 2.5.1.1v.4l.1.1.1.6.3.8c.1.4.3.8.5 1.1.2.4.4.7.7 1 .4.5.9.9 1.3 1.3l.9.6c.3.2.6.3.9.4a12.59 12.59 0 0 0 1 .3c.2 0 .4.1.6.1l.1.1h.4l.1.1h2.4l.1-.1h.4l1-.3c.4-.1.8-.3 1.2-.5.5-.3 1-.6 1.4-1 .5-.4.9-.9 1.3-1.3l.9-1.5c.1-.1.2-.8.3-.9v-.3c.1-.2.2-.4.2-.6l.1-.1c.1-.3.1-.6.1-1l.1-.1v-2.5l-.1-.1-.2-.2h0 0zm-3.2 2.5h0l-.1.6-.1.1c0 .2 0 .5-.1.7s-.2.5-.3.7c-.2.4-.4.7-.6 1l-.4.6c-.3.3-.7.5-1 .8-.5.3-1 .4-1.6.4l-.1.1h-1.1l-.1-.1c-.3 0-.5 0-.8-.1l-1.1-.5c-.1-.1-.3-.2-.3-.3l-.7-.7c-.2-.2-.3-.4-.4-.6-.2-.4-.4-.8-.5-1.2l-.2-.7v-.5l-.1-.1.1-2.3.1-.1.2-.9c.1 0 .3-.8.4-1 .2-.2.2-.3.3-.5l.9-.9c.3-.2.6-.4.9-.5l.8-.3h.3l.1-.1h1.5l.1.1c.2 0 .4 0 .6.1.3.1.6.3 1 .4.2.2.5.3.7.5l.7.7.6 1 .3 1c.1.3.1.7.1 1l.1.1-.2 1.5h0 0zm-39.3-5h0l.2-1 .1-.1v-.3l.3-1c.1-.4.3-.7.5-1.1l.3-.5c.4-.5.9-1 1.3-1.4.3-.2.5-.4.8-.5a4.67 4.67 0 0 1 1-.5c.2-.1.5-.1.7-.2l.2-.1.8-.1.1-.1h.5l.1-.1h1.6l.1.1h.5l.1.1c.2 0 .5 0 .7.1l.8.3c.1.1.3.1.4.2h.2c.2.2.5.3.8.4l1.5 1.3c.9-.7 1.6-1.6 2.5-2.3L70.9 6l-.7-.4-1.5-.7-.1-.1c-.4-.1-.9-.2-1.3-.4-.2 0-.5-.1-.7-.1l-.1-.1h-.4l-.1-.1c-.8-.2-2-.1-2.9-.1l-.1.1h-.7l-.1.1H62l-.1.1h-.3l-.7.2-1.2.4-1.2.6-1.6 1.1L55.5 8l-.8 1.1-.6 1.3-.1.1-.4 1.2v.3c-.1.2-.2.5-.2.7l-.1.1v.4l-.1.1v.5l-.1.1-.1 2.9.1.1v.8l.1.1c0 .3 0 .6.1 1l.1.1.1.6.1.1v.3c.2.4.3.8.4 1.2l.6 1.2.4.7 1.5 1.8c.5.5 1.1.9 1.7 1.3l1.1.6c.1.1.8.2.9.3l.4.1.1.1h.3l.1.1h.3l.1.1h.3l.1.1h.3l.1.1c.5.1 1.1.1 1.6.1l.1.1h0 1l.1-.1h1.1l.1-.1 1.2-.1.1-.1h.3l.1-.1h.3c.3-.1.5-.1.7-.2l1.6-.5.9-.3c.3-.2.6-.3.9-.4V14.8H65v3.1h4v5.5l-.8.2-.1.1-.6.1-.1.1h-.3l.2.1H67l-.1.1h-.5l-.1.1c-.6-.1-1.4.1-2.1.1l-.1-.1c-.4 0-.8 0-1.2-.1l-.1-.1-.6-.1a12.59 12.59 0 0 0-1-.3c-.5-.3-1-.5-1.5-.9-.6-.5-1.1-1-1.5-1.5-.2-.2-.4-.5-.5-.8a4.67 4.67 0 0 1-.5-1c-.1-.3-.3-.7-.3-1v-.3l-.2-.1v-.3l-.1-.1c-.1-.7-.2-1.4-.2-2.2l.1-.1.1-1h0 0z"/><path d="M49.2 24v-.8l-.1-.1L49 22h0v-.3c-.1-.4-.3-.9-.3-1.3l-.1-.1-.1-.5-.1-.1v-.2l-.4-1.6c0-.1-.1-.2-.1-.2-.1-.2-.2-.5-.3-.7v-.1l-.2-.3v-.1c-.4-.6-.6-1.3-1-1.9l-.1-.1c-.1-.2-.2-.4-.3-.5 0-.1 0-.1-.1-.2l-.6-.9-1.2-1.6-2-2c-.5-.5-1.3-1-1.8-1.5-.3-.3-1.2-.7-1.5-.9-.6-.4-1.3-.6-1.9-1h-.1c-.1-.1-.2-.1-.3-.2s-.9-.3-1-.4c-.6-.1-1.1-.3-1.7-.5h-.2c-.2-.1-.5-.2-.8-.2l-.1-.1h-.3l-.1-.1H32v-.1l-.7-.1-.1-.1c-.3 0-.7-.1-1-.1h-.1-.9 0-2.4-.1-.7l-.1.1h-.5c-.3.1-.6.1-.9.1l-.1.1h-.3l-.1.1h-.3l-.1.1h-.3l-.1.1h-.3c-.2.1-.3.1-.5.1 0 0-.2.1-.3.1-.2 0-.5.1-.7.2h-.2l-1.1.4-.8.3c-.2.1-.3.2-.5.3h-.1l-1.5.8-.1.1c-.1.1-.4.2-.5.3l-1 .7c-.7.5-1.4 1-2 1.6L12.2 11l-1.4 1.7c-.3.3-.7 1.1-.9 1.4 0 .1 0 .1-.1.2l-.1.1-1.1 2v.1c-.1.1-.1.2-.2.3s-.3.9-.4 1c-.1.5-.3 1-.5 1.5v.2c-.1.3-.3.7-.3 1.1l-.1.1v.3h.1l-.1.7-.1.1v.9l-.1.1v.6l-.1.1-.1 2.3.1.1V27h.1c0 .4 0 .8.1 1.2v.1.3l.1.1v.3c.1.3.2.7.2 1h0l.1.5.1.1v.2l.6 1.8.2.5c0 .1.1.2.2.3v.1c.1.2.2.3.3.5v.1l.5 1.1.1.1c0 .2.1.3.3.5 0 .1.1.2.1.3l1.1 1.6c.3.5.7.9 1.1 1.3l1.6 1.6 1.7 1.4s.2.1.3.1a3.04 3.04 0 0 0 .7.5l.9.6 2 1.1h.1c.1.1.3.2.5.3.1.1.9.3 1 .4.6.2 1.2.3 1.8.6h.2a.9.9 0 0 0 .5.1l.1.1h.3l.1.1h.3l.1.1h.3l.1.1c.3 0 .5.1.8.1l.1.1h.5l.1.1h.6l.1.1 2.1.1.1-.1 2-.1.1-.1H31l.1-.1h.3l.1-.1h.3c.3-.1.7-.2 1-.2l.1-.1.5-.1.1-.1h.2l.1-.1h.2l1.3-.4 1.2-.5c.1 0 .2-.1.3-.2h.1l2-1.1a22.63 22.63 0 0 0 2-1.3l1.5-1.2 1.6-1.5a11.51 11.51 0 0 0 1.4-1.7l.7-1.1s0-.2.1-.2c.2-.2.3-.4.4-.7l.1-.1c.2-.4.4-.8.7-1.2v-.1l.3-.5.1-.1c0-.1.6-1.7.7-1.7v-.2c.1-.2.2-.4.2-.6l.1-.1v-.2c.1-.3.3-.7.3-1.1l.1-.1.1-.6.1-.1v-.3l.1-.1v-.3l.1-.1v-.4l.1-.1c.1-.5.1-1 .1-1.5l.1-.1-.7-2h0zm-9.9-12.5c0-.1 0-.2.1-.3l.2-.2c.3-.1.6-.1.9-.1.3.1.5.2.8.4l.5.4c.4.3.7.7 1 1 .2.2.4.4.5.7l.5.7s.2.5.3.5l.1.4v.3l.1.1v.3l-.1.1c0 .1 0 .2-.1.3l-.3.3c-.1 0-.1.1-.2.1h-.4l-.1-.1c-.1 0-.3 0-.4-.1-.3-.1-.5-.3-.8-.5-.5-.4-1-.9-1.4-1.3-.2-.2-.3-.4-.5-.6l-.3-.5c-.1-.2-.2-.5-.3-.7-.1-.1 0-.2-.1-.4v-.8h0zm-3.6 4.8c.1-.1.2-.2.3-.2a.9.9 0 0 1 .5.1l.4.4c0 .1 0 .5-.1.5-.1.1-.2.2-.4.2h-.1 0l-.3-.1-.3-.3v-.1l-.1-.1c0-.2 0-.3.1-.4zM21.1 6.7h0l.1-.4h.2l1-.3h0c.3 0 1-.3 1.3-.3l.6-.1.1-.1.8-.1.1-.1h.4l.1-.1h.7l.1-.1h3.1l.1.1c.4 0 .8 0 1.1.1l.1.1.7.1.1.1h.3-.1.3l.1.1h.2l.1.1.5.1.1.1c.2 0 .5.1.7.2h0c.3.1.6.3 1 .3V7h-2.2-.1-.6l-.1.1c-.3 0-.6 0-.9.1l-.1.1h-.3l-.1.1h-.3l-.1.1h-.3l-.1.1c-.2 0-.3 0-.5.1l-1 .3-.3.1h0c-.1-.1-.2-.1-.2-.2h-.1l-.1-.1h-.1l-.1-.1c-.3-.1-.7-.3-1-.3l-1.1-.3-.6-.1-.1-.1-.9.1h0-.6l-.1-.1h-1.4l-.1-.1-.4-.1c-.1.1 0 .1 0 0zm-.3 3.7h0l.1-.7.1-.1V9v-.1c0-.4 0-.7.1-1.1l2.2.1.1.1h.6 0c.3 0 .5 0 .8.1l.1.1c.2 0 .4 0 .6.1l1 .3 1 .3c.1 0 .4.2.5.3h.3c0-.1.1-.1.2-.1h.1c0-.1.1-.1.2-.1.3-.1.7-.3.9-.3l.8-.2h.3l.1-.1h.1l.1-.1c.3 0 .6-.1.9-.1V8h.5l.1-.1h.9l.1-.1h1.5l.3 3.2h-.1l-1.1-.3-.1-.1c-.4 0-.9-.2-1.3-.3h-.3l-.1-.1h-.3l-.1.1c-.3 0-.6-.1-.9-.1h-.5l-.1-.1h-.7V10h-1 0-1.7 0-1l-.1.1c-.4 0-.8 0-1.2.1l-.1.1h-.4l-.1.1H24l-.1.1h-.3l-.1.1h-.3l-.1.1h-.3l-.1.1c-.2 0-.4 0-.6.1l-1.4.3-.1.1v-.9zM9.4 28.9h0l-1.1-.1c-.1-.2-.1-.4-.1-.6l-.1-.1v-.5l-.1-.1V27v.1-.8l-.1-.1v-1.9l.1-.1v-.8l.1-.1v-.5l.1-.1c0-.3 0-.6.1-.9l.1-.1v-.3l.1-.1V21l.1-.1c0-.2 0-.4.1-.5s.1-.2.2-.2c.5-.1.9-.1 1.4-.1l.1-.1h.6l.1-.1h1.6l.1-.1h2.4v.1c-.1.1-.1.2-.1.4l-.1.1c0 .4-.1.7-.1 1.1v.5l-.1.1v.7l-.1.1-.1 2.7.1.1v1.2l.1.1c0 .4 0 .8.1 1.2l.1.1v.7l.1.1v.4l.1.1v.4l.1.1.1.7.1.1v.3l.1.1v.1c-.6-.5-1.2-.9-1.6-1.4l-1-1.1c-1.1.1-2.4 0-3.6 0zm4.4 9.9c-.1.1-.1.1-.3.1-.1 0-.2 0-.3-.1-.3-.3-.6-.6-.9-1-.2-.2-.3-.5-.4-.8 0-.1-.1-.3-.1-.5 0-.1 0-.1.1-.2.1 0 0-.1.1-.1l.1.1h.1l.3.2.6.7.3.4.3.6c.1.2.1.4.1.6zm2.2 1.3l-.1-.1-1-.3V39l-.1-.1c0-.2 0-.3-.1-.5s-.1-.3-.2-.5-.3-.5-.4-.7c-.2-.3-.3-.5-.5-.7-.2-.3-.5-.5-.8-.8-.2-.2-.4-.3-.7-.5l-.9-.3c-.1-.2-.1-.3-.1-.5l-.1-.1V34v-.1l.1-.1c.2 0 .4 0 .6.1l.1.1c.1 0 .2 0 .3.1.2.1.4.2.7.3.4.2.7.5 1 .8.4.3.7.7 1 1.1.2.2.3.5.5.7.1.2.2.4.3.7v.1c.1 0 .1.1.1.2v.1l.1.1c0 .2.1.4.1.5v.3h.1v1.1zm2.2.4c0 .1 0 .1-.1.2l-1-.3c0-.3.1-.6.1-.9v-.1l-.1-.1v-.5H17v-.3l-.1-.1c0-.2 0-.3-.1-.5l-.3-.7-.1-.1-.4-.8-.5-.8-1-1.2-1-.8-1-.5-.5-.2h-.2l-.1-.1-.8-.1c0-.4 0-.8-.1-1.1h.6l.1.1c.2 0 .4 0 .7.1l.8.3h0l.9.4 1.2.9 1 1 .5.7.6.9.5 1.1.3.7.2.8c.1.4.1.7.1 1.1l.1.1c-.2.2-.2.5-.2.8zm1.6-24h0l-1.6-.9H18c-.5-.2-1.3-.5-1.7-.8-.3.4-.7.8-1.1 1.2-.3.2-.6.5-.9.7l-.8.5-1 .3h-.7v-.1c-.1 0-.2 0-.3-.1l-.4-.4c0-.1-.1-.2-.1-.3h0v-.3l-.1-.1c0-.2.1-.5.1-.7l.1-.1.1-.5c.1-.1.2-.4.2-.5l.5-1c.2-.4.5-.8.9-1.2L14 11c.3-.3.6-.5 1-.7l.8-.4h.2.2l.1-.1h.7l.1.1c.1 0 .2 0 .3.1.2.1.3.3.4.4a2.27 2.27 0 0 0 .1.4v.9l-.1.1v.3l-.3.8c-.1.3-.3.6-.5.9.1.1.2.1.2.2.2.1.5.2.7.3h.1c.1.1.3.2.5.3h.1l.1.1 1.8.9c-.1.2-.3.4-.4.7 0 .1-.3.4-.3.5h0zm15.1 21.9h0c-.1 1-.2 1.9-.1 2.7l-.1.1v.8h-.1v.7l-.1.1v.5l-.1.1c0 .3 0 .6-.1.9-.3 0-.8.3-1.1.3l-1.1.3h-.3.2l-.6.1-.1.1c-.3 0-.6.1-.9.1h-.6l-.1.1h-1l-.1.1h-1.3l-.1-.1h-1l-.1-.1c-.4 0-.7 0-1.1-.1l-.1-.1h-.3.1-.3l-.1-.1-.6-.1-.1-.1c-.3 0-.5-.1-.8-.2h-.2c-.4-.2-.7-.3-1.1-.3 0-.4 0-.8-.1-1.3v-.7l-.1-.1c0-.6-.1-1.1-.1-1.7l-.1-.1v-1.2L21 39v-1h.2l.1.1c.5 0 1.2.2 1.6.3.1 0 .6.1.7.1.3-.2.7-1.1.9-1.4.5.1 1 .1 1.5.1l.1.1h1.7l.1.1c.6-.1 1.4-.1 2.1-.1l.1-.1c.4 0 .9 0 1.3-.1l.9 1.4c.3 0 .6-.1.9-.2h.3l.1-.1h.2l.1-.1h.1l.1-.1h.2l.1-.1.5-.1.1-.1v.7zm1.9-18.2h0c-.1.4-.1.8-.2 1.1v.5l-.1.1-.1.9-.1.1v.5l-.1.1v.5l-.1.1c0 .4-.1.8-.1 1.2v.7l-.1.1v.5l.1-.2v.5h0l-.1.7-.1.1c0 .2 0 .4-.1.6l-.3 1-.3.9c-.1.1-.1.2-.2.3v.1c-.1.2-.3.5-.4.7-.2.3-.3.5-.5.7-.3.3-.6.6-1 .9-.1.1-.3.2-.4.3-.2.1-.5.2-.7.3-.2 0-.4.1-.6.2-.3.1-.7.1-1 .2h-1.8l.1.1c-.2 0-.4 0-.7-.1l-.1-.1h-.2c-.3-.1-.5-.2-.8-.2l-1.1-.6c-.3-.2-.6-.5-.9-.7l-1.1-1.2c-.4-.5-.8-1.1-1.3-1.6l-.8-1.2c0-.1-.2-.1-.2-.2-.1-.2-.2-.4-.4-.6-.1-.2-.2-.3-.3-.5s0-.5-.1-.7l.1-.1v-.3c0-.1.1-.2.1-.3l.1-.1c.2.1.4.3.6.4 1 .9 1.8 1.9 2.8 2.8.1-.3.1-.5.1-.8l-.3-.6c-.9-.8-2.1-2.1-3-3l-.9-1.1c-.1-.2-.2-.3-.2-.5V22l.1-.1v-.2c0-.1.1-.2.1-.3.1-.1.2-.1.2-.2a3.04 3.04 0 0 1 .7.5l1.1 1 3.6 3.4.1-.1v-.6a.76.76 0 0 0-.2-.4l-2-1.9-2.4-2.4c-.1-.1-.1-.2-.2-.3 0-.1-.1-.2-.1-.3h0c0-.2 0-.4-.1-.6l.1-.1c0-.2 0-.4.1-.6.1-.1.1-.2.3-.3.1 0 .2.1.2.2l1.6 1.2c1 1 2.3 2 3.4 3 .2.2.3.4.5.5.1.1.2.1.3.2l.1-.1V23h-.1v-.2c-.1-.2-.2-.4-.3-.5l-.7-.9c-.1-.2-.3-.3-.5-.5l-1.4-1.6c-.2-.3-.4-.6-.7-.9-.1-.1-.2-.2-.2-.4 0-.4 0-.8.1-1.1l.1-.1c0-.1 0-.2.1-.3l.2-.2c.1 0 .1 0 .2.1.4.3.7.5 1 .9l4.2 4 .9.9 1.4 1.2a1.38 1.38 0 0 0 .4.3c.2 0 .3 0 .5-.1.3-.2.5-.4.8-.6.1-.2.3-.3.4-.5.2-.3.3-.7.5-.9s.3-.5.5-.7c.1-.2.3-.3.5-.5l.2-.1c.1 0 .3-.1.5-.1l.1-.1c.2 0 .4.1.6.1 0-.1.1-.1 0 0zm.3-4.6h0c-.1-.1-.1-.6-.1-.7a.78.78 0 0 1 .4-.4c.1 0 .2-.1.3-.1l.1-.1.1.1a.9.9 0 0 1 .5.1c.3.2.5.4.7.6.1.2.2.3.2.5v.5c-.1.2-.3.4-.4.5 0 0-.1.1-.2.1h-.3l-.1-.1H38l-.3-.1-.6-.6v-.3zm8.1 19.2c-.1.2-.2.5-.3.7-.1.1-.1.2-.2.3-.1.2-.3.4-.6.5-.1 0-.2.1-.3.1l-1 1.3-1.4 1.3c0 .2 0 .5-.1.7s-.2.4-.3.7c-.1.1-.1.2-.2.3l-.9.9c-.3.2-.6.4-.9.5l-.7.2c-.2 0-.3 0-.5-.1l-.3-.3c-.1-.2-.1-.4-.1-.7l.3-.8c.1-.2.2-.3.3-.5.2-.2.4-.5.7-.7.2-.1.5-.3.6-.4v-.6l.1-.1c0-.6.1-1.3.1-1.9-.2 0-.4-.1-.6-.1-.1-.1-.3-.2-.4-.4 0-.1-.1-.2-.1-.3l-.1-.1c0-.3 0-.6.1-.9.1-.2.2-.5.3-.7l.6-.6c.2-.1.4-.2.7-.3.2-.1.5-.1.7 0 .1 0 .2.1.3.2l.3.6v.6h.2l.1.1c.4 0 .7.1 1.1.1h.5l.1.1h.7c.1-.2.2-.3.4-.5.1-.1.2-.1.3-.2h.3l.2.2v.8zm2.8-8.4h0v.5l-.1.1c0 .2 0 .4-.1.7l-.1.1v.2l-.3.9c-.2.4-.3.8-.5 1.1-.2.4-.6.8-1 1.2-.1.1-.3.2-.4.3l-.5.2h-.7l-.6-.3c-.1-.2-.9-.8-1.1-1.1s-.4-.6-.5-1l-.3-.9-.2-.8c0-.3 0-.5-.1-.8l-.1-.1V26l-.1-.1v-1.3l.1-.1c0-.4 0-.8.1-1.1l.1-.1V23l.1-.1c0-.2.1-.4.1-.5v-.2l.3-.9c.1-.3.2-.5.4-.8.1-.2.1-.2.3-.4.2-.3.5-.5.8-.8l.6-.3h.2l.1-.1h.7c.2 0 .4.1.5.2s.3.2.4.3c.3.2.5.5.8.8l.6 1.1.3.9c.1.2 0 .3.1.5v.3l.1.1v.3l.1.1v.5l.1.1v2.3z"/><path d="M35.3 11h0z"/></g><path d="M44.2 15l-.1-.4c0-.1-.2-.5-.3-.5l-.5-.7c-.2-.2-.3-.4-.5-.7-.3-.4-.7-.7-1-1l-.5-.4c-.2-.2-.5-.3-.8-.4s-.6 0-.9.1l-.2.2c0 .1-.1.2-.1.3h0l-.1.1c0 .2.1.4.1.7.1.2.1.3.1.4.1.2.2.5.3.7l.3.5c.1.2.3.4.5.6.4.5.9.9 1.4 1.4l.8.5c.1 0 .3.1.4.1l.1.1h.4c.1 0 .1 0 .2-.1l.3-.3c0-.1.1-.2.1-.3l.1-.1v-.3l-.1-.1V15z" fill="#fff"/><path d="M41.2 35.3l-.6.6c-.1.3-.1.7-.1 1.1h0v.6l-.1.1c0 .3 0 .5-.1.8h0c.3 0 .6 0 .8.1 0 0 .1 0 .1-.1l.7-.7 1.2-1.4.3-.5v-.4l-2.2-.2zM16.4 10.8c-.2-.1-.4-.1-.6-.1l-.1.1h-.2c-.1 0-.2.1-.2.1h-.1c-.2.1-.3.2-.5.3-.4.3-.7.6-1 .9s-.6.6-.8.9c-.2.2-.3.4-.5.7l-.3.5c-.2.4-.4.9-.3 1.4l.1.1c0 .1 0 .2.1.3l.2.2c.3.1.6.1.9.1l.7-.3.8-.6.8-.8.9-1.1.4-.7.1-.3.1-.1c0-.2.1-.4.1-.6l.1-.1c0-.2 0-.3-.1-.5-.3-.1-.5-.2-.6-.4zm29.5 12.8l-1.4-1.4h-.1v.8l.1.1c0 1.6.1 3.4-.1 5v.2l1.6-1.6c.4-.4.7-1 1.1-1.4 0-.1-.2-.3-.2-.4-.3-.4-.6-1-1-1.3zM31.4 42.1h0c-.1 0-.1 0 0 0-.1 0-.1 0 0 0-.1-.1-.1-.2-.1-.3-.1-.2-.2-.4-.3-.5-.2-.2-.3-.4-.6-.6s-.6-.4-.9-.5c-.2-.1-.3-.1-.5-.1V40c-.3-.1-.6-.1-.9-.1l-.1-.1-.1.1c-.3 0-.6 0-.9.1-.1 0-.3.1-.4.1-.2.1-.5.2-.7.3-.3.2-.6.5-.9.8-.1.1-.2.3-.3.5 0 .1-.1.2-.1.3l-.1.1v.8c.1.2.1.4.3.5.1.2.3.4.5.5l.4.3c.1.1.6.2.6.3.1 0 .3 0 .4.1l.1.1 1.3.1.1-.1h.7l.1-.1c.3 0 .6-.1.9-.2s.5-.2.7-.4c.2-.1.3-.3.5-.5.1-.1.2-.3.3-.5v-.9zm-1.3.4v.3h0c0 .1-.1.2-.1.3l-.6.6c-.1.1-.2.2-.4.2-.1 0-.3.1-.4.1l-.1.1h-1.1V44c-.1 0-.2 0-.3-.1-.2-.1-.3-.2-.5-.3L26 43c-.1-.1 0-.1-.1-.3l-.1-.1v-.4c.1-.1.1-.1.1-.2v-.1c.1-.2.3-.4.5-.6l.4-.3c.2 0 .4-.1.5-.2h.4l.1-.1c.3 0 .6.1.9.1.3.1.5.2.7.4s.3.4.5.6c.1.2.2.6.2.7h0z" fill="#302e7c"/><g fill="#0059ff"><path d="M58.8 31.4h5.4c.9 0 1.6.2 2.1.7.5.4.7 1 .7 1.7 0 .5-.2 1-.5 1.4-.2.3-.6.5-1 .6.7.2 1.2.4 1.5.8s.5.9.5 1.5c0 .5-.1.9-.3 1.3a1.96 1.96 0 0 1-.9.9c-.2.1-.6.2-1.1.3-.6.1-1.1.1-1.3.1h-5c-.1 0-.1-9.3-.1-9.3zm2.9 3.6H63c.4 0 .8-.1.9-.2.2-.2.3-.4.3-.7s-.1-.5-.3-.6c-.2-.2-.5-.2-.9-.2h-1.3V35zm0 3.7h1.5c.5 0 .8-.1 1-.3s.3-.4.3-.7-.1-.5-.3-.7-.6-.3-1.1-.3h-1.5v2zm12.9-7.3h2.9v5.5a4.53 4.53 0 0 1-.3 1.6c-.2.5-.4.9-.8 1.3s-.8.6-1.2.8c-.6.2-1.2.3-2 .3-.5 0-.9 0-1.5-.1s-1-.2-1.3-.4c-.4-.2-.7-.5-1-.8s-.5-.7-.6-1.1c-.2-.6-.3-1.1-.3-1.6v-5.5h2.9v5.7c0 .5.1.9.4 1.2s.7.4 1.2.4.9-.1 1.2-.4.4-.7.4-1.2v-5.7z"/><use xlink:href="#B"/><path d="M88.9 31.4h2.9v9.3h-2.9v-9.3zm4.9 0h2.7l3.5 5.1v-5.1h2.7v9.3H100l-3.5-5.1v5.1h-2.7v-9.3zm10.8 0h7.7v2h-4.8v1.5h4.5v1.9h-4.5v1.8h5v2.1h-7.8c-.1 0-.1-9.3-.1-9.3z"/><use xlink:href="#B" x="34.6"/><use xlink:href="#B" x="44"/></g><defs ><path id="B" d="M78.9 37.6l2.7-.2c.1.4.2.8.4 1 .3.4.7.6 1.3.6.4 0 .7-.1.9-.3s.3-.4.3-.7c0-.2-.1-.5-.3-.6-.2-.2-.7-.4-1.5-.5-1.3-.3-2.2-.7-2.7-1.1-.5-.5-.8-1.1-.8-1.8 0-.5.1-.9.4-1.4.3-.4.7-.8 1.2-1s1.3-.4 2.3-.4c1.2 0 2.1.2 2.7.7s1 1.1 1.1 2.1l-2.7.2c-.1-.4-.2-.7-.5-.9-.2-.2-.5-.3-1-.3-.3 0-.6.1-.8.2a.55.55 0 0 0-.3.5.76.76 0 0 0 .2.4c.1.1.5.2 1 .3 1.3.3 2.2.5 2.7.8s.9.6 1.2 1c.2.4.4.9.4 1.4 0 .6-.2 1.1-.5 1.7-.3.5-.8.9-1.4 1.1-.6.3-1.3.4-2.2.4-1.6 0-2.7-.3-3.3-.9s-.7-1.3-.8-2.3z"/></defs></svg>