<svg xmlns="http://www.w3.org/2000/svg" width="256.032" height="256.032" viewBox="0 0 192 192" fill="#302e7c" xmlns:v="https://vecta.io/nano"><path d="M182.668 165.164a21.79 21.79 0 0 0-.177-3.578l-.177-.177v-.714l-.184-.183v-.537l-.177-.177a2.41 2.41 0 0 0 0-.537l-.36-1.068-1.789-3.578a10.56 10.56 0 0 0-.891-1.252 23.76 23.76 0 0 0-3.309-3.132 21.47 21.47 0 0 0-2.864-1.612l-2.143-.714a2.41 2.41 0 0 0-.537 0l-.177-.177-4.115-.36-.177.183a13.1 13.1 0 0 0-2.864.177l-.177.177a10.02 10.02 0 0 0-1.258.177l-1.429.537-1.789.898c-.649.354-1.003.708-1.612 1.075a11.33 11.33 0 0 0-2.051 1.874 22.85 22.85 0 0 0-1.435 1.789 12.67 12.67 0 0 1-1.068 1.789 11.33 11.33 0 0 1-.898 1.966 9.72 9.72 0 0 0-.36 1.435l-.177.177a10.5 10.5 0 0 0-.177 1.429l-.177.183v.714l-.184.177-.177 5.544.177.184.184 2.143.177.177.177 1.252.537 1.612a18.48 18.48 0 0 0 1.789 3.401 15.53 15.53 0 0 0 1.252 1.605 16.92 16.92 0 0 0 2.621 2.418l1.605 1.075c.577.328 1.18.629 1.789.891.308.144 1.245.256 1.435.537a2.46 2.46 0 0 1 .537 0c.452.197.937.315 1.429.36l.177.177h0c1.743.334 4.181.19 6.081.177a14.38 14.38 0 0 0 1.966-.354l1.789-.544a15.85 15.85 0 0 0 3.041-1.429 21.88 21.88 0 0 0 2.326-1.605 14.16 14.16 0 0 1 1.343-1.166c0-.085.092-.269 0-.269h-.269l-4.377-4.377c-.754.688-1.56 1.317-2.418 1.874l-2.326 1.075a6.03 6.03 0 0 1-1.075.177l-.177.177c-.885.131-1.782.197-2.68.184l-.184-.184h-1.068l-.183-.177a3.28 3.28 0 0 1-.714 0 10.16 10.16 0 0 1-1.075-.354c-.802-.367-1.58-.788-2.326-1.258l-2.235-2.235a13.98 13.98 0 0 1-1.252-2.143l-.354-1.429-.184-.184c-.039-.391-.105-.778-.197-1.16h25.57v-2.418l.36-.354-.36-.36zm-7.313-3.29h-18.348v-.02a17.73 17.73 0 0 0 .819-2.392c.242-.564.708-1.042.898-1.612.708-.531 1.402-1.763 2.411-2.418l1.252-.714 1.612-.531a19.82 19.82 0 0 1 3.578-.184l.177.184a10.5 10.5 0 0 1 1.429.177c.111.164 1.396.55 1.612.714.419.315.655.393 1.075.714a11.11 11.11 0 0 1 1.52 1.52l.891 1.252c.236.328.419.688.537 1.075a9.31 9.31 0 0 0 .537 1.612c.039.206.039.417 0 .623zM58.384 135.388h7.156v47.752h-7.156zm86.414 26.375l-.183-.177c-.02-.48-.079-.958-.177-1.429-.197-.727-.439-1.448-.714-2.149a8.57 8.57 0 0 1-.714-1.605 9 9 0 0 1-1.075-1.789c-.131-.21-.957-1.304-1.075-1.435l-1.874-1.874a19.8 19.8 0 0 0-2.864-1.966l-1.966-.898a3.49 3.49 0 0 0-.898-.177l-.177-.183-1.252-.177-.177-.177h-.911l-.177-.177h-2.149l-.177-.183a13.97 13.97 0 0 1-2.864.183l-.177.177h-.891l-.184.177-1.252.177-1.605.537c-.596.197-1.003.577-1.612.721l-.36.354a2.82 2.82 0 0 0-1.311.806v-15.111h-7.156v32.464l.177.177v1.252l.177.177.183 1.789.177.177a1.86 1.86 0 0 0 0 .537 9.31 9.31 0 0 1 .537 1.612.84.84 0 0 0 .354.537v.354a15.2 15.2 0 0 1 .898 1.789 19.77 19.77 0 0 0 1.252 1.789c.668.819 1.415 1.566 2.235 2.235a16.89 16.89 0 0 0 1.789 1.258l1.789.891a5.34 5.34 0 0 0 .898.177.89.89 0 0 1 .531.36l1.219.177.184.184h.714l.177.177h0c1.789.341 4.312.197 6.284.177.714-.026 1.18-.288 1.966-.354a4.86 4.86 0 0 0 .714-.36 3.7 3.7 0 0 1 .537 0 21.44 21.44 0 0 0 2.503-1.042l1.966-1.252c1.008-.781 1.936-1.659 2.772-2.621.74-.891 1.396-1.848 1.966-2.857a23.67 23.67 0 0 0 1.252-2.864l.537-1.966c.039-.236.039-.478 0-.714l.183-.184v-1.081l.177-.177v-5.183l-.177-.184v-1.075zm-6.815 5.013l-.183.177a9.05 9.05 0 0 1-.177 2.143l-.714 2.149a14.04 14.04 0 0 1-1.252 2.149l-2.058 2.051a6.55 6.55 0 0 1-1.075.721 15.59 15.59 0 0 1-2.149.714l-.177.177h-.891l-.183.177h-2.503 0l-.17-.184a10.41 10.41 0 0 1-1.429-.177l-.183-.177h-.354l-2.326-1.258-1.881-1.874-.714-1.075-1.075-2.503-.354-1.429v-1.075l-.177-.184.177-4.646.177-.177.36-1.789c.151-.098.701-1.71.891-1.966.328-.413.393-.662.714-1.068.564-.688 1.193-1.317 1.881-1.881a7.65 7.65 0 0 1 1.789-1.075l1.605-.531a3.34 3.34 0 0 1 .721 0l.177-.183h2.864l.177.183a10.5 10.5 0 0 1 1.429.177 19.62 19.62 0 0 1 1.966.891 8.76 8.76 0 0 1 1.429 1.075l1.343 1.52c.478.675.898 1.396 1.252 2.143l.714 2.149a10.74 10.74 0 0 1 .177 2.149l.183.177v2.326zm-32.732-4.98l-.184-.177c-.02-.48-.079-.958-.177-1.429l-.714-2.149c-.263-.671-.563-1.328-.898-1.966a19.8 19.8 0 0 0-1.966-2.864 17.49 17.49 0 0 0-2.772-2.621 27.78 27.78 0 0 0-3.041-1.789 12.39 12.39 0 0 0-1.966-.721 6.78 6.78 0 0 0-1.252-.177l-.184-.177a13.95 13.95 0 0 0-3.041-.177l-.177-.184c-1.003.157-2.025.216-3.041.184l-.177.177h-.898l-.177.177c-.465.066-.793.072-1.252.177l-1.612.537a11.5 11.5 0 0 0-2.143 1.075l-1.789 1.252a16.58 16.58 0 0 0-4.921 6.35c-.354.813-.649 1.651-.891 2.503a6.78 6.78 0 0 0-.177 1.252l-.183.183c-.125.767-.184 1.54-.177 2.32l-.177.184.177 5.183.177.177v.898l.183.177.177 1.252c.197.642.374.957.537 1.612a12.03 12.03 0 0 0 1.068 2.326 20.35 20.35 0 0 0 1.435 2.143 24.07 24.07 0 0 0 2.772 2.772 16.25 16.25 0 0 0 1.789 1.258 15.17 15.17 0 0 0 1.789.891c.642.275 1.298.511 1.966.714a7.39 7.39 0 0 0 1.252.184l.177.177h.898l.177.177 4.98.026.184-.177a5.1 5.1 0 0 0 .891 0l2.149-.537a15.04 15.04 0 0 0 2.503-1.075 17.86 17.86 0 0 0 2.857-1.966c.97-.826 1.848-1.756 2.621-2.772l1.789-3.041c.157-.288.485-1.638.714-1.789a1.86 1.86 0 0 1 0-.537 3 3 0 0 0 .36-1.252l.177-.177a11.61 11.61 0 0 0 .184-1.966l.177-.177v-5.183l-.177-.183v-1.075zm-6.802 5.157l-.177.177v1.075l-.177.177a9.55 9.55 0 0 1-.184 1.435 13.84 13.84 0 0 0-.531 1.429c-.354.747-.773 1.468-1.252 2.149l-.983 1.16a20.65 20.65 0 0 1-2.149 1.612 6.55 6.55 0 0 1-3.224.891l-.177.177h-2.326 0l-.177-.183a7.35 7.35 0 0 1-1.605-.177L83.16 175.8a2.33 2.33 0 0 1-.721-.537l-1.52-1.52c-.331-.392-.629-.81-.891-1.252-.438-.798-.798-1.636-1.075-2.503-.144-.524-.157-.852-.354-1.429a4.91 4.91 0 0 1 0-1.075l-.183-.184.183-4.646.177-.177.354-1.789c.157-.098.708-1.71.898-1.966.321-.413.393-.662.714-1.068.56-.691 1.19-1.321 1.881-1.881a7.65 7.65 0 0 1 1.789-1.075l1.605-.531a3.34 3.34 0 0 1 .721 0l.177-.183h3.041l.177.183a5.82 5.82 0 0 1 1.252.177 11.3 11.3 0 0 1 1.966.891 15.15 15.15 0 0 1 1.435 1.075 10.57 10.57 0 0 1 1.343 1.52c.478.675.898 1.396 1.252 2.143l.714 2.149a10.74 10.74 0 0 1 .177 2.149l.177.177v2.503zM17.427 156.6l.177-.177.177-1.789.184-.184a2.41 2.41 0 0 1 0-.537l.714-2.143a17.59 17.59 0 0 1 1.068-2.169l.714-1.068a24.14 24.14 0 0 1 2.772-2.955c.518-.387 1.055-.747 1.612-1.075a14.52 14.52 0 0 1 2.143-1.068 10.95 10.95 0 0 1 1.435-.36l.177-.177 1.612-.177.177-.183h1.068l.183-.177h3.394l.184.177h1.068l.183.183c.48.02.958.079 1.429.177l1.612.537a3.44 3.44 0 0 1 .891.537h.36a9.42 9.42 0 0 0 1.612.891 23.08 23.08 0 0 1 3.119 2.582c1.841-1.448 3.342-3.362 5.203-4.784l-3.676-3.165-1.429-.891-3.041-1.429-.177-.183a14.85 14.85 0 0 1-2.687-.891 9.53 9.53 0 0 0-1.429-.183l-.183-.177h-.891l-.177-.177c-1.664-.315-4.089-.177-5.898-.177l-.177.177h-1.435l-.177.177h-.714l-.177.177h-.721l-1.429.36-2.503.898-2.503 1.245-3.224 2.326-2.772 2.955-1.605 2.326-1.252 2.68-.183.177-.891 2.503v.537a4.75 4.75 0 0 0-.36 1.435l-.177.177v.754l-.177.177v1.075l-.184.177-.177 5.898.177.177v1.612l.184.177a10.97 10.97 0 0 0 .177 1.966l.177.177.183 1.252.177.177a1.86 1.86 0 0 0 0 .537c.341.826.55 1.737.891 2.503.367.858.786 1.691 1.252 2.503l.898 1.435a32.03 32.03 0 0 0 3.126 3.663c1.114.99 2.313 1.894 3.578 2.687.733.491 1.512.91 2.326 1.252.295.131 1.638.478 1.789.714l.898.177.177.177h.537l.177.184h.537l.177.177h.537l.184.183h.714l.177.177a18.47 18.47 0 0 0 3.401.177l.177.177h0l2.156-.026.183-.177h2.326l.177-.177 2.503-.177.177-.184h.714l.183-.177a2.61 2.61 0 0 0 .714 0c.577-.229.97-.197 1.429-.36l3.401-1.068 1.789-.721a13.06 13.06 0 0 1 1.874-.917V157.74H35.324v6.442h8.198v11.402l-1.704.419-.177.184-1.252.177-.177.177h-.537l-.177.184h-.714l-.183.177h-1.049l-.183.177c-1.265-.105-2.87.177-4.292.177l-.177-.177a14.54 14.54 0 0 1-2.503-.177l-.177-.177-1.258-.184a17.62 17.62 0 0 1-1.966-.714 24.81 24.81 0 0 1-3.041-1.789 20.82 20.82 0 0 1-3.132-3.132 15.42 15.42 0 0 1-1.068-1.605c-.426-.681-.785-1.4-1.075-2.149-.275-.701-.518-1.415-.714-2.143a2.46 2.46 0 0 1 0-.537l-.183-.177v-.721l-.177-.177a31.93 31.93 0 0 1-.354-4.469l.177-.183V156.6z"/><path d="M157.199 61.424l-.193-.193-.186-3.001-.186-.186a7.18 7.18 0 0 0 0-.943c-.172-1.081-.75-2.678-.75-3.759l-.193-.186-.186-1.315-.186-.193c.028-.185.028-.373 0-.558l-1.508-4.702a1.12 1.12 0 0 0-.372-.564c-.145-.661-.406-1.301-.757-1.879v-.372l-.558-.943v-.372c-1.06-1.687-1.769-3.779-2.822-5.452l-.372-.372c-.234-.551-.551-1.06-.943-1.508-.048-.193-.11-.386-.186-.564l-1.693-2.444c-1.108-1.563-2.299-3.07-3.566-4.502l-5.734-5.734c-1.48-1.501-3.58-2.754-5.259-4.13-.95-.764-3.346-1.845-4.13-2.63-1.673-1.046-3.759-1.755-5.445-2.816h-.379c-.33-.2-.523-.379-.936-.564s-2.637-.854-2.822-1.129a31.85 31.85 0 0 1-4.695-1.501 3.86 3.86 0 0 0-.564 0 10.08 10.08 0 0 0-2.251-.564l-.193-.186h-.75l-.186-.193h-.75l-.193-.186-2.065-.186-.186-.186c-.929-.138-1.872-.207-2.816-.193l-.193-.186h-2.444l-.186-.186h-6.767l-.186.186H91.16l-.193.186c-.496 0-1.005-.048-1.501 0-.864.202-1.744.329-2.63.379l-.193.186h-.75l-.186.186h-.764l-.193.193h-.75l-.186.186c-.248-.028-.503-.028-.75 0-.484.185-.987.312-1.501.379-.151.014-.654.372-.757.372-.647.103-1.28.289-1.879.564h-.558l-3.201 1.129-2.251.936a7.54 7.54 0 0 0-1.315.75h-.379l-4.323 2.258c-.089.055-.303.33-.372.379-.372.227-1.157.53-1.508.75l-2.816 1.879a44.96 44.96 0 0 0-5.638 4.509l-4.599 4.599-3.951 4.888c-.75.95-1.852 3.139-2.63 3.945-.075.183-.137.372-.186.564-.034.069-.379.337-.379.379l-3.001 5.824v.344c-.2.324-.379.523-.564.936s-.854 2.637-1.129 2.816c-.337 1.404-.778 2.788-1.315 4.13a3.86 3.86 0 0 0 0 .564c-.186.854-.75 2.1-.75 3.008l-.193.186v.75l-.186.186-.186 1.879-.186.186a16.93 16.93 0 0 0-.193 2.637l-.186.186v1.693l-.186.186-.186 6.574.186.193v3.194l.186.186a19.84 19.84 0 0 0 .186 3.38l.193.193v.936l.186.186c-.021.314-.021.629 0 .943.275.916.468 1.859.564 2.816l.186.186.186 1.315.193.193c-.034.187-.034.378 0 .564l1.687 5.259.564 1.501c.151.337.337.654.564.943v.372a10.79 10.79 0 0 0 .75 1.315v.379l1.508 3.008c.103.138.234.268.372.372a3.01 3.01 0 0 0 .75 1.329 9.29 9.29 0 0 0 .379.943l3.008 4.509c.929 1.308 1.928 2.568 3.001 3.759l4.42 4.599 4.888 4.13c.062.055.702.344.75.379.606.434 1.274 1.101 1.872 1.501l2.637 1.693 5.638 3.001h.372c.399.172.909.564 1.315.757s2.637.847 2.822 1.122a33.68 33.68 0 0 1 5.259 1.693h.564a4.9 4.9 0 0 0 1.501.372l.193.193h.75l.186.186h.75l.186.186h.757l.186.193c.745.117 1.497.179 2.251.186l.193.186h1.315l.186.186h1.693l.186.193h0l6.017.207.193-.186 5.638-.193.186-.186h1.315l.186-.186h.943l.186-.186a5.31 5.31 0 0 0 .936 0c.924-.264 1.868-.453 2.822-.564l.186-.193 1.315-.186.193-.186h.558l.193-.186c.185.028.373.028.558 0l3.573-1.129 3.38-1.315c.33-.151.647-.344.943-.564h.379l5.824-3.008c1.947-1.145 3.827-2.4 5.631-3.759l4.323-3.566 4.42-4.42a62.34 62.34 0 0 0 3.945-4.881l2.065-3.008c.083-.117.117-.447.193-.564.434-.585.812-1.218 1.122-1.879l.379-.379a34.5 34.5 0 0 1 1.879-3.566v-.379l.75-1.501.186-.186c.083-.42 1.755-4.805 1.879-4.888a2.58 2.58 0 0 1 0-.564c.25-.542.439-1.11.564-1.693l.186-.186a3.86 3.86 0 0 1 0-.564c.186-.854.757-2.1.757-3.008l.186-.186.186-1.687.186-.193v-.936l.193-.193v-.936l.186-.186v-1.129l.186-.186c.172-1.37.241-2.754.193-4.13l.186-.186v-6.574l-.186-.193v-2.251zm-31.384-35.212c.15-.456.338-.898.564-1.322.248-.317.53-.599.847-.84.219-.18.476-.309.75-.379h.564l.193-.186h1.315l.186.186h.75l.186.193a4.4 4.4 0 0 1 .943.186c.772.33 1.523.704 2.251 1.122 1.267.77 2.463 1.653 3.573 2.637l2.162 2.162c.489.537 1.205 1.377 1.687 2.065.544.723 1.046 1.473 1.508 2.251.578.964 1.081 1.969 1.501 3.008l.564 1.693c.021.186.021.372 0 .558l.186.193v1.315l.193.186-.193 1.508c-.145.454-.33.895-.564 1.315-.048.062-.654.688-.688.688-.358.227-.737.42-1.129.564-1.068.048-2.139-.014-3.194-.186l-.151-.207h-.379l-.186-.186-2.444-1.122-2.816-2.065-3.105-3.098-1.501-1.879-2.258-3.759v-.406c-.23-.284-.418-.599-.558-.936-.186-.695-.358-1.005-.564-1.693-.028-.248-.028-.503 0-.75l-.193-.186v-2.63zm-6.974 15.62c.235-.282.522-.516.847-.688a4.1 4.1 0 0 1 1.322.193c.402.352.747.763 1.026 1.218 0 .351.034 1.287-.186 1.508-.258.338-.621.58-1.033.688h-.172v.014c-.021 0-.785-.33-.957-.392a8.19 8.19 0 0 1-.847-.847v-.379l-.186-.186c.028-.381.09-.759.186-1.129zM77.296 14.606l.193-.186v-.847c.255 0 .489.089.688 0 .922-.372 1.866-.682 2.822-.936l.186-.193c.964 0 2.802-.723 3.759-.936l1.687-.186.193-.186 2.251-.193.193-.186h1.122l.193-.193h1.879l.186-.186h8.839l.186.186c1.068-.022 2.136.043 3.194.193l.186.186 2.065.193.186.186h.75l.186.186h.757l.186.186h.709l.186.193 1.315.186.193.186a8.05 8.05 0 0 1 1.872.564h.571a15.04 15.04 0 0 0 2.754.971v1.287l-6.106.186-.186.186h-1.714l-.186.186c-.881 0-1.762.062-2.63.193l-.193.186h-.75l-.186.186h-.75l-.186.193h-.75l-.193.186a5.27 5.27 0 0 0-1.315.186l-2.816.943-1.79.888-.089-.138h.028a1.16 1.16 0 0 0-.633-.379h-.379l-.186-.186h-.379l-.186-.186c-.964-.165-1.879-.764-2.816-.943l-3.008-.75-1.693-.186-.186-.193-2.63-.186-.193-.186h-1.687l-.193-.186h-3.945l-.186-.193h-1.377c-.089 0 0-.186 0-.282zm-.888 10.505l.186-.193v-1.872l.193-.193v-1.879l.186-.186a14.57 14.57 0 0 1 .207-3.098c2.203-.069 4.075.255 6.278.186l.186.186h1.68l.193.193a13.67 13.67 0 0 1 2.251.186l.186.186c.564.028 1.136.096 1.693.193.812.172 1.969.503 2.822.75l2.816.936c.399.145 1.101.551 1.501.75h.757a1.1 1.1 0 0 1 .558-.372h.365a.97.97 0 0 1 .564-.379c.764-.186 1.879-.75 2.63-.936l2.258-.564c.248-.028.503-.028.75 0l.186-.186h.75l.186-.193a14.5 14.5 0 0 1 2.444-.186l.193-.186h1.48l.186-.193h2.444l.186-.186h4.406l.971 9.121-.303-.103.027.021a24.24 24.24 0 0 0-3.194-.771l-.186-.186c-1.129 0-2.685-.544-3.759-.757a7.09 7.09 0 0 0-.936 0l-.193-.186h-.936l-.186-.186c-.888-.047-1.771-.174-2.637-.379-.441-.028-.874-.028-1.315 0l-.186-.186h-1.879l-.186-.186h-2.802l-.193-.186H94.54l-.186.186h-2.822l-.186.186c-1.132-.021-2.264.041-3.387.186l-.186.193h-1.143l-.186.186h-.936l-.193.186h-.936l-.186.186h-.737l-.193.193h-.75l-.186.186c-.571 0-1.136.062-1.693.186-1.293.4-2.611.715-3.945.943l-.282.282v-1.879zM44.17 77.691l-.186-.193h-3.05c-.179-.51-.261-1.05-.241-1.59l-.186-.193v-1.315l-.193-.186v-1.508l-.186-.186V70.27l-.186-.193v-5.445l.186-.193v-2.251l.186-.186v-1.508l.193-.186a14.5 14.5 0 0 1 .186-2.444l.186-.186v-.75l.186-.193v-.75l.193-.186a11.04 11.04 0 0 1 .186-1.501c.133-.244.29-.475.468-.688a25.25 25.25 0 0 1 3.951-.186l.186-.193h2.63l.186-.186h4.674l.186-.186h6.884c.096 0 0 .186 0 .282-.303.317-.186.675-.186 1.129l-.186.186c-.055 1.005-.186 2.01-.379 3.001-.041.503 0 1.005 0 1.508l-.186.186v2.065l-.193.193c.131 2.561-.186 5.074-.186 7.703l.186.186v3.559l.193.186c-.034 1.194.028 2.389.186 3.573l.186.186v1.322l.193.186v1.129l.186.186v1.129l.186.186.186 2.065.193.186v.75l.282.282c-.151-.062-.096.034-.096.096-.021.096-.055.193-.096.282-1.095-1.212-2.65-2.396-3.848-3.669l-2.733-3.057c-3.318.124-6.884-.186-10.326-.186zm12.309 28.046c-.413.399-.227.337-.847.282-.276-.033-.537-.146-.75-.324-.943-.824-1.794-1.747-2.54-2.754a11.93 11.93 0 0 1-1.129-2.258 10.61 10.61 0 0 1-.186-1.315c.041-.179.138-.344.275-.468.296.151.131-.186.386-.186l.186.186h.372l.943.544 1.783 1.976.75 1.122.757 1.693a13.65 13.65 0 0 1 0 1.501zm6.388 3.945c0 .138-.193-.186-.282-.282-.998-.234-1.976-.564-2.905-.991v-1.921l-.193-.193a7.12 7.12 0 0 0-.186-1.315 13.14 13.14 0 0 0-.564-1.501c-.31-.688-.757-1.425-1.129-2.065-.448-.725-.949-1.415-1.501-2.065-.64-.812-1.37-1.549-2.168-2.203-.571-.447-1.26-.826-1.879-1.315-.799-.386-1.638-.709-2.492-.95a4.69 4.69 0 0 1-.227-1.377l-.193-.186v-.943l-.372-.372.282-.282c.564.014 1.129.076 1.687.186l.193.193c.317.021.633.083.936.186a17.06 17.06 0 0 1 1.879.936 19.62 19.62 0 0 1 3.008 2.258 29.78 29.78 0 0 1 2.719 3.098c.454.571.874 1.411 1.315 2.065a17.12 17.12 0 0 0 .943 1.879v.379a1.13 1.13 0 0 1 .379.564v.372l.186.193a5.64 5.64 0 0 0 .372 1.501 3.42 3.42 0 0 1 0 .75l.193.193v3.208zm6.203 1.136a.82.82 0 0 1-.275.475l-2.939-.792h0c.151-.957.227-1.921.207-2.884l-.193-.186v-1.508l-.186-.186v-.75l-.186-.186c-.028-.442-.09-.882-.186-1.315l-.757-2.065-.186-.193-1.129-2.437-1.501-2.251-2.912-3.291-2.822-2.251-2.816-1.508-1.693-.564h-.558l-.193-.186-2.347-.165a13.29 13.29 0 0 0-.213-3.222h1.659l.186.186a14.25 14.25 0 0 1 1.879.186c.792.268 1.404.523 2.251.757l.193.186 2.444 1.129 3.318 2.444 2.754 2.719 1.501 1.879 1.693 2.637 1.501 3.008.75 2.065.564 2.258c.165.991.227 1.996.193 3.001l.186.193c-.138.932-.2 1.874-.186 2.816zM73.64 42.3l-.186-.186-4.509-2.251h-.379c-1.425-.716-3.614-1.377-4.819-2.148a23.38 23.38 0 0 1-3.07 3.27c-.847.688-1.707 1.432-2.63 2.065a16.13 16.13 0 0 1-2.258 1.322c-.895.289-1.886.702-2.816.936a6.61 6.61 0 0 1-1.879 0h0l-.124-.151a2.05 2.05 0 0 1-.757-.193c-.441-.372-.847-.778-1.218-1.218-.131-.227-.2-.489-.193-.75l-.186-.186v-.757l-.186-.186a11.52 11.52 0 0 0 .186-2.065l.186-.193.193-1.308c.296-.2.406-1.191.564-1.508l1.501-2.816c.716-1.198 1.528-2.334 2.444-3.387 1.041-1.149 2.139-2.245 3.291-3.284a24.16 24.16 0 0 1 2.781-2.079l2.258-1.122 1.122-.379c.186-.021.379-.021.564 0l.193-.186h2.065l.186.186c.261.012.516.077.75.193.413.399.847.785 1.225 1.218.103.138.207.785.372 1.129v2.437l-.186.193a3.42 3.42 0 0 1 0 .75l-.75 2.251c-.386.847-.819 1.659-1.315 2.444a6.33 6.33 0 0 0 .654.475 16.96 16.96 0 0 1 1.879.75h.379c.42.282.861.53 1.315.75h.386l.186.186 5.163 2.54c-.386.64-.764 1.191-1.122 1.879-.103.145-.799 1.246-.895 1.377h-.365zm42.963 62.479l-.186.186c0 2.526-.31 5.115-.193 7.517l-.186.186v2.279l-.186.186v1.879l-.186.186v1.508l-.193.186c.007.844-.062 1.688-.207 2.52-.826.158-2.299.785-3.077.957-1.095.241-1.962.53-3.008.75-.25.021-.501.021-.75 0l-.193.186-1.687.193-.193.186c-.885.055-1.764.179-2.63.372-.558.055-1.129 0-1.687 0l-.193.193h-2.816l-.186.186h-3.759l-.179-.186h-2.816l-.186-.193c-1.006.021-2.012-.042-3.008-.186l-.186-.186h-.943l-.2-.207h-.943l-.186-.193-1.693-.186-.186-.186c-.771-.103-1.521-.289-2.251-.564a3.86 3.86 0 0 1-.564 0 14.96 14.96 0 0 0-3.105-.991c-.034-1.212-.158-2.423-.372-3.614-.055-.626 0-1.253 0-1.879l-.186-.186c.069-1.735-.255-3.132-.193-4.888l-.186-.186v-3.346l-.186-.193v-2.719h.688l.193.186c1.322 0 3.394.695 4.695.936.227.034 1.687.131 1.879.193.812-.654 1.983-3.16 2.602-4.13 1.37.179 2.754.248 4.13.193l.193.193h4.867l.193.186c1.583-.351 4.068-.186 5.824-.186l.186-.193a21.17 21.17 0 0 0 3.793-.193c.826 1.418 1.735 2.719 2.568 4.13a15.87 15.87 0 0 0 2.471-.564c.25-.021.501-.021.75 0l.193-.2h.564l.186-.193h.571l.186-.186h.564l.186-.186 1.315-.193.282-.282v.922zm5.445-51.844l-.186.186c-.055 1.012-.179 2.017-.372 3.008-.041.434 0 .874 0 1.308l-.193.193-.186 2.63-.186.186v1.315l-.193.193v1.315l-.186.186c-.048 1.136-.172 2.265-.372 3.38-.055.626 0 1.253 0 1.879l-.193.193v1.501l-.186.186v1.315l-.186.193-.193 2.065-.186.186c-.028.564-.096 1.136-.186 1.693-.179.812-.578 1.976-.75 2.816-.262.895-.578 1.776-.943 2.63-.165.324-.358.64-.564.943v.372c-.344.523-.833 1.542-1.122 2.065a15.86 15.86 0 0 1-1.508 2.065 20.4 20.4 0 0 1-2.754 2.533 10.33 10.33 0 0 1-1.122.757 13.66 13.66 0 0 0-1.879.936 11.37 11.37 0 0 0-1.693.564c-.929.241-1.866.427-2.816.564-1.707.062-3.387 0-5.074 0h0l-.158-.172c-.63-.026-1.257-.091-1.879-.193l-.186-.186a1.94 1.94 0 0 1-.564 0 18.86 18.86 0 0 1-2.279-.688c-1.115-.468-2.182-1.033-3.194-1.693-.895-.626-1.804-1.377-2.637-2.065a28 28 0 0 1-3.098-3.291c-1.239-1.473-2.354-3.187-3.566-4.695-.73-.902-1.57-2.416-2.258-3.38-.11-.158-.461-.386-.564-.571-.365-.647-.709-1.039-1.129-1.687a9.26 9.26 0 0 1-.75-1.501c-.207-.688-.124-1.322-.406-2.065.069-.076.151-.151.22-.22a4.26 4.26 0 0 1 0-.936 1.75 1.75 0 0 1 .379-.757c.108-.13.233-.246.372-.344a15.77 15.77 0 0 1 1.597 1.191c2.712 2.609 5.129 5.445 7.82 7.999a4.68 4.68 0 0 0 .165-2.265c-.268-.585-.578-1.157-.936-1.693-2.637-2.258-5.92-5.851-8.461-8.454l-2.437-3.194c-.303-.379-.496-.833-.564-1.315v-2.065l.186-.193a7.71 7.71 0 0 1 0-.564 1.56 1.56 0 0 1 .379-.75 2.76 2.76 0 0 1 .654-.468 13.72 13.72 0 0 1 1.879 1.315c1.067 1.026 2.134 1.879 3.194 2.816 3.49 3.063 6.746 6.56 10.243 9.638.131.117.248-.248.372-.372.083-.559.083-1.127 0-1.687-.076-.406-.248-.785-.496-1.115l-5.728-5.356c-2.361-2.162-4.633-4.64-6.884-6.884a4.28 4.28 0 0 1-.564-.75 1.6 1.6 0 0 1-.193-.75l-.186-.193c.034-.571-.028-1.136-.186-1.687l.186-.193a4.8 4.8 0 0 1 .186-1.687c.18-.35.431-.66.737-.909.241.131.468.275.688.434 1.576 1.095 3.084 2.286 4.509 3.573 3.001 2.946 6.643 5.7 9.768 8.454.475.53.978 1.033 1.508 1.508a3.92 3.92 0 0 1 .847.654c.062.062.124-.124.186-.186V61.19l-.186-.186a1.94 1.94 0 0 0 0-.564 9.26 9.26 0 0 0-.75-1.501l-1.879-2.444c-.379-.475-.922-.854-1.322-1.315l-3.945-4.695c-.606-.757-1.28-1.817-1.879-2.63-.268-.33-.461-.716-.558-1.129-.062-1.068 0-2.14.186-3.194l.186-.186c.014-.262.076-.516.186-.757a4.07 4.07 0 0 1 .688-.688c.186.021.365.096.503.227a31.68 31.68 0 0 1 2.816 2.444l12.026 11.276c.916.819 1.693 1.824 2.63 2.63a37.26 37.26 0 0 1 3.945 3.566c.334.309.715.562 1.129.75.445.007.889-.055 1.315-.186.776-.523 1.5-1.12 2.162-1.783.406-.475.785-.978 1.129-1.508.468-.737.854-1.941 1.315-2.63s.812-1.418 1.315-2.065a17.06 17.06 0 0 1 1.411-1.411c.062-.062.406-.248.558-.372a4.75 4.75 0 0 1 1.322-.186l.186-.193c.558.117 1.122.179 1.693.193.275-.034.489.069.275.282zm.73-13.162l-.193-.193c-.041-.11 0-1.453 0-1.687.282-.454.626-.867 1.033-1.218.296-.138.62-.207.943-.193.089 0 .124-.124.186-.186s.131.124.193.186a4.47 4.47 0 0 1 1.315.193 11.53 11.53 0 0 1 1.969 1.783 7.64 7.64 0 0 1 .564 1.315c.034.5.034 1.001 0 1.501a5.32 5.32 0 0 1-1.218 1.411c-.165.124-.358.186-.564.186-.25.014-.5.014-.75 0l-.193-.186h-.564l-.75-.379-1.783-1.783c-.11-.234-.172-.489-.186-.75zm23.137 54.707a18.63 18.63 0 0 1-.943 2.065c-.165.268-.351.516-.558.75a6.38 6.38 0 0 1-1.597 1.411c-.31.089-.626.151-.943.186-.929 1.212-1.879 2.52-2.912 3.662l-3.759 3.759c.069.695 0 1.397-.186 2.065-.31.647-.647 1.184-.943 1.872a2.48 2.48 0 0 1-.558.75c-.847.854-1.645 1.749-2.54 2.54-.764.578-1.583 1.081-2.444 1.501l-1.879.564a2.86 2.86 0 0 1-1.315-.186h0l-.922-.867c-.219-.601-.283-1.247-.186-1.879.007-.069.84-2.1.943-2.251a12.63 12.63 0 0 1 .936-1.315c.599-.716 1.26-1.377 1.976-1.976.406-.296 1.384-.874 1.783-1.225v-1.687l.186-.186c0-1.817.317-3.655.179-5.356-.551.007-1.095-.124-1.583-.379-.392-.296-.743-.64-1.039-1.033-.124-.227-.186-.489-.186-.75l-.186-.186c-.048-.819.014-1.641.186-2.444.226-.667.544-1.299.943-1.879.544-.64 1.143-1.239 1.783-1.783a9.06 9.06 0 0 1 1.879-.943c.612-.193 1.268-.193 1.879 0 .358.096.682.296.936.564.357.489.642 1.027.847 1.597.028.532.028 1.065 0 1.597h.688l.186.186c1.012.055 2.017.179 3.008.379.496.041.998 0 1.501 0l.186.186h1.377a4.67 4.67 0 0 1 1.088-1.315 5.26 5.26 0 0 1 .943-.564h.558l.688.688c.096.62.096 1.26 0 1.879zm8.109-23.881l-.193.193v1.315l-.186.186a14.36 14.36 0 0 1-.186 1.879l-.193.186c0 .186.076.392 0 .564-.33.847-.406 1.59-.75 2.444-.434 1.094-.935 2.161-1.501 3.194-.694 1.264-1.629 2.38-2.754 3.284-.165.165-.785.434-1.129.757l-1.501.564a14.27 14.27 0 0 1-1.879 0h0l-1.852-.757c-.344-.482-2.485-2.23-3.098-3.098a16.25 16.25 0 0 1-1.501-2.816l-.943-2.63-.564-2.258c-.103-.75-.165-1.501-.186-2.258l-.186-.186v-1.879l-.193-.186v-3.573l.193-.186c-.041-1.067.021-2.141.186-3.194l.186-.186v-.943l.186-.186c.047-.519.175-1.028.379-1.508v-.558l.943-2.63a13.8 13.8 0 0 1 1.122-2.258c.31-.441.406-.695.75-1.129.646-.791 1.371-1.515 2.162-2.162a8.83 8.83 0 0 1 1.693-.936c.186-.028.379-.028.564 0l.186-.186c.621-.117 1.258-.117 1.879 0a6.45 6.45 0 0 1 1.501.558c.387.236.764.488 1.129.757.833.675 1.556 1.466 2.162 2.347a21.47 21.47 0 0 1 1.693 3.194l.936 2.63c.165.509.138.895.379 1.501a2.74 2.74 0 0 1 0 .75l.186.193v.936l.186.186v1.322l.193.186v6.574z"/><path d="M117.795 26.894h0 0 0zm8.212 2.134a3.36 3.36 0 0 0 0 .75l.564 1.693a3.79 3.79 0 0 0 .558.936v.406l2.258 3.759 1.501 1.879 3.105 3.098 2.816 2.065 2.444 1.122.186.186h.379l.151.207a15.53 15.53 0 0 0 3.194.186c.392-.145.771-.337 1.129-.564.034 0 .64-.626.688-.688a7.12 7.12 0 0 0 .564-1.315c.089-.496.151-1.005.193-1.508l-.193-.186v-1.315l-.186-.193a2.48 2.48 0 0 0 0-.558l-.564-1.693a21.41 21.41 0 0 0-1.501-3.008c-.461-.778-.964-1.528-1.508-2.251-.482-.688-1.198-1.528-1.687-2.065l-2.162-2.162c-1.11-.984-2.305-1.866-3.573-2.637a21.45 21.45 0 0 0-2.251-1.122 4.4 4.4 0 0 0-.943-.186l-.186-.193h-.75l-.186-.186h-1.315l-.193.186c-.188-.007-.376-.007-.564 0a1.93 1.93 0 0 0-.75.379c-.317.241-.599.523-.847.84-.226.423-.415.866-.564 1.322-.069.874 0 1.749 0 2.63l.193.186zm3.187-.888a2.12 2.12 0 0 1 .186-.943 6.5 6.5 0 0 1 .688-.688 4.46 4.46 0 0 1 2.437-.193 11.94 11.94 0 0 1 2.258 1.129l1.501 1.129a36.32 36.32 0 0 1 2.912 2.912 26.54 26.54 0 0 1 1.508 1.879l1.315 2.065c.062.083.647 1.287.75 1.501l.379 1.129a4.47 4.47 0 0 1 0 .75l.186.193v.936l-.186.193c-.021.262-.083.516-.193.75a3.8 3.8 0 0 1-.847.847 1.22 1.22 0 0 1-.558.186c-.372.034-.84.069-1.157.034l-.193-.186a6.83 6.83 0 0 1-1.122-.193 18.92 18.92 0 0 1-2.258-1.315c-1.454-1.166-2.806-2.453-4.041-3.848a13.7 13.7 0 0 1-1.315-1.693l-.936-1.501c-.337-.53-.558-1.26-.943-1.879-.172-.317-.151-.688-.372-1.129a13.17 13.17 0 0 0-.193-1.879l.193-.186zm5.356 67.732a14.61 14.61 0 0 1-1.597 1.79 14.14 14.14 0 0 0-.193 3.001l-.186.193v1.687l-.186.193a7.38 7.38 0 0 1-.22 2.162h0c.785-.048 1.576.014 2.347.186.138-.034.262-.096.372-.186l1.976-1.976 3.38-3.945.943-1.315a6.38 6.38 0 0 0 0-1.026l-6.636-.764zM63.934 26.35a3.23 3.23 0 0 0-1.693-.186l-.186.186h-.564a.92.92 0 0 0-.564.379h-.399a10.57 10.57 0 0 1-1.508.936 28.39 28.39 0 0 0-2.912 2.54c-.812.819-1.57 1.687-2.265 2.609a18.08 18.08 0 0 0-1.342 1.9l-.75 1.315a7.13 7.13 0 0 0-.936 3.945l.186.193a2.34 2.34 0 0 0 .186.75l.688.654a11.18 11.18 0 0 0 2.444.172l2.065-.943 2.258-1.693 2.155-2.162 2.444-3.174 1.129-2.065.22-.75.193-.186a9.96 9.96 0 0 0 .186-1.693l.186-.186c0-.447-.062-.888-.186-1.315a3.48 3.48 0 0 0-1.033-1.225zm84.047 36.176l-3.848-3.848c-.096 0-.282-.096-.282 0v2.347l.186.186c0 4.647.227 9.693-.186 14.284-.014.138.034.523.138.427 1.514-1.521 3.112-2.988 4.557-4.564 1.095-1.191 2.038-2.871 3.07-4.013-.089-.165-.544-.95-.626-1.06-.943-1.205-2.038-2.678-3.008-3.759zm-41.518 52.621a2.58 2.58 0 0 0 0-.564c-.207-.523-.461-1.019-.75-1.501-.461-.661-.991-1.26-1.597-1.79a23.95 23.95 0 0 0-2.444-1.501 7.49 7.49 0 0 0-1.501-.379l-.193-.186a12.94 12.94 0 0 0-2.63-.186l-.372-.372-.379.372c-.881-.048-1.762.014-2.63.186a5.62 5.62 0 0 0-1.101.365c-.633.386-1.294.599-1.879.936a11.73 11.73 0 0 0-2.533 2.347 6.96 6.96 0 0 0-.75 1.322c-.11.303-.179.613-.193.936l-.186.186v2.258c.151.544.406 1.053.75 1.501a6.69 6.69 0 0 0 1.377 1.411l1.129.75c.227.165 1.576.578 1.687.75.379.041.756.103 1.129.186l.186.193h0l3.8.365.193-.193h1.879l.186-.186a7.21 7.21 0 0 0 2.63-.564 17.61 17.61 0 0 0 2.065-1.129 8.68 8.68 0 0 0 1.377-1.377 6.12 6.12 0 0 0 .75-1.322 7.52 7.52 0 0 0 .186-2.63l-.186-.186zm-3.58 2.051a1.36 1.36 0 0 1-.372.75l-1.597 1.597c-.322.281-.711.476-1.129.564-.372.096-.75.158-1.129.193l-.186.186h-3.008 0l-.117-.186a3.97 3.97 0 0 1-.936-.193 6.96 6.96 0 0 1-1.322-.75c-.589-.472-1.125-1.008-1.597-1.597-.186-.303-.131-.392-.186-.75l-.186-.186c-.021-.379-.021-.75 0-1.129a1.12 1.12 0 0 0 .372-.564v-.379c.399-.578.861-1.115 1.377-1.597l1.129-.75c.519-.131 1.022-.318 1.501-.558h1.129l.186-.193c.823.064 1.64.191 2.444.379a12.49 12.49 0 0 1 2.065 1.122 7.61 7.61 0 0 1 1.377 1.597c.124.227.179 1.274.386 1.494l-.2.2a3.42 3.42 0 0 1 0 .75z"/></svg>