<svg xmlns="http://www.w3.org/2000/svg" viewBox="0 0 183.73 104.64" xmlns:v="https://vecta.io/nano"><path d="M91.92 25.46h19.92c5.44.02 7.88 2.47 7.89 7.94v32.93c-.01 5.23-2.3 7.58-7.49 7.66-4.12.06-8.26.14-12.37-.03-2.33-.1-3.02.74-2.84 2.94.16 1.9-.05 3.83.05 5.74.08 1.61-.59 2.1-2.13 2.02-2.21-.1-4.44-.15-6.64.01-1.98.15-2.33-.73-2.32-2.47.02-2.6 1.13-6-.45-7.6-1.72-1.75-5.16-.46-7.85-.58-2.51-.12-5.04.05-7.54-.13-3.53-.26-6-2.79-6.02-6.32V31.92c.03-3.91 2.94-6.41 7.24-6.45l20.53-.02h.02zm.03 10.91c-4.92 0-9.85.06-14.77-.03-1.71-.03-2.25.53-2.23 2.24v22.33c-.01 1.5.34 2.15 1.99 2.14h29.85c1.56 0 2.08-.47 2.07-2.06l.01-22.33c.03-1.95-.69-2.36-2.45-2.32-4.82.1-9.65.03-14.47.04h0zM0 50.12C.67 31.23 7 14.84 21.38 2.04c3.96-3.53 8.9-2.29 9.82 2.43.48 2.46-.78 4.22-2.5 5.78-12.66 11.47-18.17 25.98-17.62 42.81.36 10.93 4.09 20.79 10.71 29.55 2.06 2.72 4.12 5.39 6.6 7.75 2.45 2.34 2.58 5.56.57 7.82s-5.48 2.35-8.1.05C11.68 90.15 6.12 79.81 2.57 68.3.76 62.42-.07 56.34 0 50.12zm183.73-4.51c.1 16.58-3.1 27.47-8.91 37.77-3.06 5.42-6.79 10.17-11.28 14.38-2.91 2.73-6.31 2.88-8.54.5-2.3-2.45-1.91-5.59.99-8.47 18.37-18.24 21.61-44.08 10.46-65.06-2.98-5.61-6.69-10.45-11.38-14.62-2.83-2.52-3.29-5.78-1.21-8.24 2.13-2.52 5.6-2.5 8.52.1 14.47 12.88 20.88 29.32 21.34 43.65h0zm-18.92 3.74c-.16 14.16-4.99 25.55-15.28 34.44-1.09.94-1.68 2.43-3.42 2.72-2.81.46-4.63-.74-5.87-3.06-1.25-2.36-1.2-4.71.8-6.65 2.45-2.38 5.02-4.63 7-7.47 9.63-13.85 7.1-33.35-5.79-44.21-.92-.78-1.68-1.58-2.19-2.76-1.19-2.73-1.02-5.12 1.25-7.1 2.18-1.9 4.75-1.77 7.4.4 7.23 5.92 11.66 13.67 14.41 22.47 1.2 3.86 1.49 7.89 1.69 11.24v-.02zM19.14 50.91c-.01-9.64 2.49-17.83 7.41-25.39 2.38-3.66 5-7.02 8.41-9.74 3.12-2.48 6.17-2.41 8.3.1 2.07 2.44 1.63 6.48-1.22 8.85-5.02 4.17-8.8 9.23-10.47 15.51-3.65 13.67-.82 25.67 9.95 35.35 3.62 3.25 3.83 6.08.8 9.58-1.36 1.58-4.75 1.94-6.26.56-7.47-6.81-13.42-14.58-15.77-24.69-.83-3.56-.95-7.17-1.16-10.13h.01zm125.69-1.35c-.17 9.05-3.46 16.01-10.96 20.65-3.13 1.94-6.3 1.49-8.03-1.02-1.82-2.64-1-5.95 1.99-8.07 8.08-5.72 8.16-15.7.16-21.39-3.08-2.19-3.88-5.35-2.05-8.04 1.72-2.52 5.02-3.06 8.04-1.13 7.08 4.51 10.49 11.12 10.85 19zM53.89 29.41c1.84.01 3.64 1.03 4.5 3.2.82 2.08.67 4.18-1.01 5.88-.7.7-1.59 1.22-2.38 1.82-6.86 5.17-6.69 15.49.42 20.35 2.02 1.38 3.65 2.91 3.61 5.51-.07 4.32-4.68 6.71-8.62 4.32-7.92-4.81-11.59-12.02-11.25-21.23.29-8 3.89-14.2 10.57-18.6 1.12-.74 2.3-1.22 4.16-1.24h0zm59.07 73.34c-3.11 0-6.22-.05-9.32.02-1.42.03-2.06-.49-1.93-1.91v-.3c-.29-5.83 2.48-8.74 8.32-8.74l12.33-.03c1.73-.04 2.31.54 2.18 2.23-.21 2.78 1.1 6.31-.5 8.15-1.53 1.76-5.1.4-7.76.57-1.1.07-2.2.01-3.31 0h-.01zm-43.19 0c-3.11 0-6.23-.06-9.34.03-1.55.05-2.19-.47-2.13-2.05v-6.94c-.03-1.36.38-2 1.88-1.99h18.98c1.42-.01 2.07.45 1.89 1.9-.02.2 0 .4 0 .6-.13 2.69 1.1 6.16-.48 7.87-1.61 1.75-5.12.4-7.8.57-1 .07-2.01.01-3.01 0h.01zm29.59-5.99c0 5.21-2.61 7.82-7.84 7.82-1.71 0-3.42-.13-5.11.03-2.19.21-2.77-.76-2.72-2.77.1-3.51.09-7.03 0-10.54-.04-1.89.62-2.74 2.6-2.69 3.51.09 7.02.1 10.53 0 2.03-.06 2.64.86 2.54 2.73-.1 1.8-.02 3.61-.02 5.42h.02z"/></svg>