<svg xmlns="http://www.w3.org/2000/svg" viewBox="0 0 144 144"><defs><radialGradient id="a" cx="102.776" cy="-664.848" r=".144" fx="102.776" fy="-664.848" gradientTransform="matrix(800 0 0 800 -82185 532001)" gradientUnits="userSpaceOnUse"><stop offset="0" stop-color="#09f"/><stop offset=".6" stop-color="#a033ff"/><stop offset=".9" stop-color="#ff5280"/><stop offset="1" stop-color="#ff7061"/></radialGradient></defs><path d="M70.605 17.899c-29.585 0-52.526 21.68-52.526 50.95 0 15.312 6.277 28.548 16.493 37.688a4.151 4.151 0 0 1 1.406 2.994l.288 9.35a4.202 4.202 0 0 0 5.896 3.716L52.59 118a4.221 4.221 0 0 1 2.81-.21 57.457 57.457 0 0 0 15.206 2.023c29.586 0 52.527-21.68 52.527-50.95S100.19 17.898 70.605 17.898Z" fill="url(#a)"/><path d="m39.063 83.753 15.43-24.477a7.879 7.879 0 0 1 11.398-2.1L78.17 66.38a3.152 3.152 0 0 0 3.795-.013l16.572-12.58c2.206-1.68 5.095.972 3.624 3.323L86.718 81.574a7.879 7.879 0 0 1-11.398 2.1L63.042 74.47a3.152 3.152 0 0 0-3.795.014l-16.572 12.58c-2.207 1.68-5.095-.959-3.612-3.31Z" fill="#fff"/></svg>