<?xml version="1.0" encoding="UTF-8"?><svg id="a" xmlns="http://www.w3.org/2000/svg" width="3.4999999474cm" height="4.4999999324cm" viewBox="0 0 99.2125984252 127.5590551181"><defs><style>.b,.c{fill:#fff;}.d{fill:#4d4d4d;}.c{stroke:#000;stroke-miterlimit:10;}</style></defs><rect class="b" x=".7289611051" y=".8887684933" width="97.7926273141" height="125.779662678"/><circle class="d" cx="49.6252747621" cy="35.5262349637" r="21.6304819943"/><path class="d" d="m.036508495,0v127.5590551181h99.1760899302V0H.036508495Zm97.7994098059,95.4269662921c-1.8034476018-11.3499399541-8.8521271419-19.3767163792-16.4651245358-26.6010756608-11.7155613018-11.1020203737-42.9936933932-11.4207278029-57.2699435859-3.9308330335-14.2898623863,7.4898947694-22.68766156,25.6105603797-22.68766156,25.6105603797V1.7706688777h96.4227296816v93.6562974144Z"/><polygon class="d" points="2.664434145 35.5262349637 2.664434145 3.1767114223 30.4145930547 3.1767114223 2.664434145 35.5262349637"/><path class="c" d="m4.0922851562,102.4990234375c0-1.1328125.7138671875-2.05078125,1.595703125-2.05078125s1.595703125.91796875,1.595703125,2.05078125v.189453125c.7768554688-1.349609375,1.84765625-2.3486328125,3.5063476562-2.3486328125,2.6245117188,0,5.123046875,2.6455078125,5.123046875,7.4775390625v.0537109375c0,4.83203125-2.4565429688,7.4765625-5.123046875,7.4765625-1.7006835938,0-2.7504882812-.998046875-3.5063476562-2.1591796875v4.3193359375c0,1.1337890625-.7138671875,2.05078125-1.595703125,2.05078125s-1.595703125-.9169921875-1.595703125-2.05078125v-15.0087890625Zm8.6293945312,5.3720703125v-.0537109375c0-2.40234375-1.259765625-3.9951171875-2.7504882812-3.9951171875s-2.7294921875,1.5927734375-2.7294921875,3.9951171875v.0537109375c0,2.40234375,1.2387695312,3.9951171875,2.7294921875,3.9951171875s2.7504882812-1.5654296875,2.7504882812-3.9951171875Z"/><path class="c" d="m17.58984375,110.9208984375v-.0537109375c0-3.158203125,1.8686523438-4.615234375,4.53515625-4.615234375,1.1337890625,0,1.9526367188.2421875,2.7504882812.59375v-.2431640625c0-1.701171875-.8188476562-2.6455078125-2.4145507812-2.6455078125-.8818359375,0-1.595703125.162109375-2.2045898438.4052734375-.1889648438.0810546875-.3149414062.107421875-.4619140625.107421875-.7348632812,0-1.3227539062-.728515625-1.3227539062-1.6728515625,0-.7294921875.3569335938-1.3505859375.8608398438-1.5927734375,1.0078125-.486328125,2.099609375-.755859375,3.5903320312-.755859375,1.7426757812,0,3.0024414062.59375,3.8002929688,1.619140625.83984375,1.080078125,1.2177734375,2.6728515625,1.2177734375,4.6162109375v6.5859375c0,1.1064453125-.6928710938,1.970703125-1.5537109375,1.970703125-.923828125,0-1.5327148438-.8369140625-1.5327148438-1.701171875v-.0263671875c-.7768554688,1.1064453125-1.84765625,1.8349609375-3.4013671875,1.8349609375-2.1206054688,0-3.86328125-1.5654296875-3.86328125-4.4267578125Zm7.3276367188-.9443359375v-.728515625c-.5458984375-.32421875-1.259765625-.5400390625-2.0366210938-.5400390625-1.3647460938,0-2.2045898438.701171875-2.2045898438,1.9970703125v.0546875c0,1.1064453125.7138671875,1.75390625,1.7426757812,1.75390625,1.4907226562,0,2.4985351562-1.052734375,2.4985351562-2.537109375Z"/><path class="c" d="m30.3950195312,113.701171875c-.3359375-.26953125-.6088867188-.755859375-.6088867188-1.4033203125,0-.91796875.5458984375-1.619140625,1.259765625-1.619140625.2309570312,0,.4619140625.0810546875.6298828125.2158203125,1.0708007812.86328125,2.1416015625,1.294921875,3.0444335938,1.294921875.923828125,0,1.34375-.431640625,1.34375-1.0791015625v-.0537109375c0-.8916015625-1.091796875-1.1884765625-2.3305664062-1.673828125-1.5747070312-.59375-3.359375-1.5390625-3.359375-4.345703125v-.0546875c0-2.94140625,1.84765625-4.587890625,4.115234375-4.587890625,1.17578125,0,2.3935546875.404296875,3.4853515625,1.1064453125.4619140625.296875.755859375.8369140625.755859375,1.5380859375,0,.91796875-.5668945312,1.6201171875-1.2807617188,1.6201171875-.2309570312,0-.3779296875-.0546875-.587890625-.189453125-.9028320312-.56640625-1.763671875-.91796875-2.435546875-.91796875-.7768554688,0-1.17578125.4326171875-1.17578125.9990234375v.0537109375c0,.810546875,1.0708007812,1.1884765625,2.2885742188,1.7275390625,1.5747070312.6748046875,3.4013671875,1.6474609375,3.4013671875,4.2919921875v.0546875c0,3.2119140625-1.8686523438,4.6689453125-4.3041992188,4.6689453125-1.3857421875,0-2.8764648438-.5126953125-4.2412109375-1.646484375Z"/><path class="c" d="m40.7236328125,113.701171875c-.3359375-.26953125-.6088867188-.755859375-.6088867188-1.4033203125,0-.91796875.5458984375-1.619140625,1.259765625-1.619140625.2309570312,0,.4619140625.0810546875.6298828125.2158203125,1.0708007812.86328125,2.1416015625,1.294921875,3.0444335938,1.294921875.923828125,0,1.34375-.431640625,1.34375-1.0791015625v-.0537109375c0-.8916015625-1.091796875-1.1884765625-2.3305664062-1.673828125-1.5747070312-.59375-3.359375-1.5390625-3.359375-4.345703125v-.0546875c0-2.94140625,1.84765625-4.587890625,4.115234375-4.587890625,1.17578125,0,2.3935546875.404296875,3.4853515625,1.1064453125.4619140625.296875.755859375.8369140625.755859375,1.5380859375,0,.91796875-.5668945312,1.6201171875-1.2807617188,1.6201171875-.2309570312,0-.3779296875-.0546875-.587890625-.189453125-.9028320312-.56640625-1.763671875-.91796875-2.435546875-.91796875-.7768554688,0-1.17578125.4326171875-1.17578125.9990234375v.0537109375c0,.810546875,1.0708007812,1.1884765625,2.2885742188,1.7275390625,1.5747070312.6748046875,3.4013671875,1.6474609375,3.4013671875,4.2919921875v.0546875c0,3.2119140625-1.8686523438,4.6689453125-4.3041992188,4.6689453125-1.3857421875,0-2.8764648438-.5126953125-4.2412109375-1.646484375Z"/><path class="c" d="m51.5556640625,102.4990234375c0-1.1328125.7138671875-2.05078125,1.595703125-2.05078125s1.595703125.91796875,1.595703125,2.05078125v.189453125c.77734375-1.349609375,1.84765625-2.3486328125,3.505859375-2.3486328125,2.625,0,5.123046875,2.6455078125,5.123046875,7.4775390625v.0537109375c0,4.83203125-2.4560546875,7.4765625-5.123046875,7.4765625-1.7001953125,0-2.75-.998046875-3.505859375-2.1591796875v4.3193359375c0,1.1337890625-.7138671875,2.05078125-1.595703125,2.05078125s-1.595703125-.9169921875-1.595703125-2.05078125v-15.0087890625Zm8.62890625,5.3720703125v-.0537109375c0-2.40234375-1.259765625-3.9951171875-2.75-3.9951171875s-2.7294921875,1.5927734375-2.7294921875,3.9951171875v.0537109375c0,2.40234375,1.2392578125,3.9951171875,2.7294921875,3.9951171875s2.75-1.5654296875,2.75-3.9951171875Z"/><path class="c" d="m65.1787109375,107.9248046875v-.0537109375c0-4.1572265625,2.603515625-7.53125,6.109375-7.53125,3.486328125,0,6.068359375,3.3203125,6.068359375,7.4775390625v.0537109375c0,4.1572265625-2.603515625,7.53125-6.109375,7.53125-3.486328125,0-6.068359375-3.3203125-6.068359375-7.4775390625Zm9.0283203125,0v-.0537109375c0-2.1328125-1.1962890625-3.9951171875-2.9599609375-3.9951171875-1.8271484375,0-2.9189453125,1.80859375-2.9189453125,3.94140625v.0537109375c0,2.1328125,1.1962890625,3.9951171875,2.9599609375,3.9951171875,1.8271484375,0,2.9189453125-1.80859375,2.9189453125-3.94140625Z"/><path class="c" d="m79.6640625,102.4990234375c0-1.1328125.7138671875-2.05078125,1.595703125-2.05078125s1.595703125.91796875,1.595703125,2.05078125v.6484375c.4619140625-1.4033203125,1.2177734375-2.69921875,2.1630859375-2.69921875.986328125,0,1.552734375.8369140625,1.552734375,1.9970703125,0,1.080078125-.544921875,1.7275390625-1.1962890625,1.9169921875-1.6162109375.4853515625-2.51953125,2.078125-2.51953125,4.9931640625v3.8330078125c0,1.1337890625-.7138671875,2.0517578125-1.595703125,2.0517578125s-1.595703125-.91796875-1.595703125-2.0517578125v-10.689453125Z"/><path class="c" d="m88.9638671875,110.9755859375v-6.8564453125h-.10546875c-.755859375,0-1.365234375-.783203125-1.365234375-1.7548828125s.609375-1.75390625,1.365234375-1.75390625h.10546875v-1.80859375c0-1.1337890625.712890625-2.0517578125,1.595703125-2.0517578125.880859375,0,1.595703125.91796875,1.595703125,2.0517578125v1.80859375h1.40625c.755859375,0,1.365234375.7822265625,1.365234375,1.75390625s-.609375,1.7548828125-1.365234375,1.7548828125h-1.40625v6.181640625c0,.9443359375.314453125,1.4033203125,1.0283203125,1.4033203125.1044921875,0,.3154296875-.02734375.3779296875-.02734375.7138671875,0,1.322265625.755859375,1.322265625,1.701171875,0,.728515625-.376953125,1.322265625-.818359375,1.5380859375-.587890625.296875-1.1337890625.4052734375-1.826171875.4052734375-1.953125,0-3.275390625-.9990234375-3.275390625-4.345703125Z"/></svg>