<svg xmlns="http://www.w3.org/2000/svg" viewBox="0 0 144 144"><path d="M11.834 101.582v.006c.073 2.673.095 5.362.546 8.019.478 2.81 1.16 5.551 2.464 8.102a25.919 25.919 0 0 0 7.235 8.751c2.193 1.71 4.589 3.068 7.24 3.925 3.867 1.247 7.856 1.725 11.903 1.748 2.525.016 5.049.08 7.575.069 18.345-.077 36.69.132 55.035-.113 2.434-.033 4.828-.33 7.218-.767 4.579-.838 8.626-2.792 12.088-5.881 4.036-3.6 6.758-8.004 7.987-13.32.805-3.476 1.006-7.001 1.04-10.539v-.706c0-.274-.104-60.113-.113-60.904-.027-2.173-.187-4.329-.595-6.467-.495-2.605-1.195-5.143-2.443-7.5-1.317-2.49-2.967-4.73-5.007-6.686-3.126-2.997-6.734-5.117-10.933-6.238-3.794-1.013-7.663-1.237-11.561-1.234-.007 0-.021-.04-.022-.06h-59l-.004.06c-2.212.04-4.428.024-6.629.297-2.41.3-4.799.751-7.081 1.594-3.595 1.33-6.718 3.4-9.386 6.165-3.023 3.133-5.153 6.755-6.284 10.974-1.008 3.763-1.228 7.602-1.233 11.468" fill="#fffc00"/><path d="M72.546 113.392c-.25 0-.489-.01-.67-.018a5.166 5.166 0 0 1-.441.018c-5.25 0-8.761-2.482-11.859-4.674-2.22-1.568-4.315-3.05-6.768-3.457a21.85 21.85 0 0 0-3.561-.301c-2.087 0-3.736.323-4.94.559-.74.144-1.38.268-1.873.268-.517 0-1.146-.114-1.408-1.009-.207-.705-.356-1.388-.5-2.046-.36-1.644-.62-2.648-1.235-2.743-6.585-1.016-10.476-2.513-11.251-4.326a1.682 1.682 0 0 1-.137-.571c-.03-.54.351-1.014.884-1.103 5.23-.86 9.88-3.625 13.821-8.218 3.054-3.555 4.553-6.953 4.714-7.328a.666.666 0 0 1 .024-.05c.76-1.542.91-2.874.45-3.959-.848-2-3.658-2.892-5.517-3.482a19.92 19.92 0 0 1-1.249-.423c-1.648-.651-4.358-2.027-3.997-3.925.263-1.385 2.094-2.349 3.574-2.349.41 0 .775.072 1.081.216 1.673.784 3.177 1.18 4.47 1.18 1.61 0 2.387-.612 2.575-.786a273.874 273.874 0 0 0-.16-2.635c-.377-6.008-.848-13.485 1.065-17.773C55.362 31.623 67.5 30.625 71.084 30.625l1.562-.014c.066-.002.138-.003.212-.003 3.593 0 15.758 1 21.486 13.842 1.912 4.29 1.44 11.773 1.062 17.788l-.018.287c-.052.817-.1 1.59-.14 2.34.176.162.888.724 2.334.78 1.234-.047 2.651-.442 4.212-1.173.482-.226 1.017-.273 1.38-.273.548 0 1.106.106 1.57.3l.025.01c1.325.47 2.192 1.41 2.21 2.397.018.92-.666 2.295-4.03 3.623-.344.137-.783.276-1.247.423-1.861.59-4.669 1.482-5.518 3.482-.46 1.084-.309 2.416.451 3.957.009.017.016.034.024.052.234.548 5.898 13.463 18.535 15.545.532.089.915.563.884 1.102a1.697 1.697 0 0 1-.14.577c-.77 1.803-4.66 3.297-11.247 4.315-.618.095-.879 1.094-1.235 2.73a28.812 28.812 0 0 1-.502 2.034c-.191.654-.618.974-1.303.974h-.103c-.446 0-1.077-.08-1.874-.237-1.392-.27-2.953-.523-4.94-.523-1.157 0-2.355.102-3.562.301-2.45.408-4.544 1.887-6.76 3.454-3.105 2.194-6.616 4.677-11.866 4.677" fill="#fff"/><path d="M72.858 31.666c3.383 0 15.03.909 20.52 13.214 1.807 4.053 1.343 11.393.972 17.29-.058.935-.116 1.842-.163 2.708l-.02.373.25.277c.1.111 1.04 1.093 3.129 1.174l.034.002h.035c1.381-.053 2.937-.483 4.627-1.274.25-.117.58-.174.931-.174.4 0 .824.076 1.174.223l.053.021c.886.31 1.513.896 1.522 1.426.005.3-.219 1.378-3.36 2.62-.307.12-.71.25-1.18.397-2.044.65-5.132 1.629-6.171 4.078-.586 1.38-.425 3.008.476 4.839.37.865 6.205 14.008 19.335 16.172a.582.582 0 0 1-.053.21c-.223.525-1.637 2.335-10.44 3.694-1.377.21-1.714 1.755-2.106 3.55a28.335 28.335 0 0 1-.482 1.96c-.06.203-.072.214-.289.214h-.103c-.39 0-.983-.08-1.67-.215-1.25-.244-2.96-.543-5.143-.543-1.22 0-2.476.106-3.736.317-2.693.448-4.884 1.997-7.204 3.637-3.115 2.201-6.335 4.48-11.248 4.48-.215 0-.424-.008-.634-.019l-.055-.002-.056.004c-.12.01-.242.016-.366.016-4.912 0-8.134-2.277-11.248-4.48-2.32-1.64-4.512-3.188-7.205-3.636a22.82 22.82 0 0 0-3.734-.317c-2.184 0-3.895.334-5.143.579-.687.134-1.282.249-1.67.249-.32 0-.326-.019-.393-.249-.198-.67-.342-1.335-.483-1.976-.392-1.797-.73-3.35-2.106-3.56-8.802-1.36-10.216-3.174-10.44-3.697a.64.64 0 0 1-.054-.214c13.13-2.162 18.964-15.306 19.336-16.174.902-1.83 1.062-3.458.475-4.839-1.039-2.448-4.127-3.429-6.17-4.077a19.73 19.73 0 0 1-1.181-.399c-2.653-1.048-3.469-2.104-3.347-2.743.14-.738 1.42-1.488 2.535-1.488.251 0 .471.04.634.116 1.813.85 3.468 1.28 4.92 1.28 2.28 0 3.296-1.061 3.405-1.182l.248-.277-.02-.37a252.98 252.98 0 0 0-.163-2.707c-.37-5.898-.834-13.233.973-17.286 5.469-12.26 17.06-13.206 20.481-13.206l1.572-.015.2-.001m0-2.115h-.225c-.557.007-1.47.015-1.553.016-2.004 0-6.015.283-10.323 2.185a22.998 22.998 0 0 0-6.585 4.366c-2.272 2.158-4.124 4.819-5.501 7.909-2.018 4.524-1.54 12.146-1.155 18.27l.002.01c.041.656.084 1.34.124 2.008-.296.136-.776.28-1.483.28-1.139 0-2.492-.364-4.022-1.081a3.597 3.597 0 0 0-1.531-.316c-.911 0-1.872.268-2.705.758-1.048.615-1.725 1.485-1.909 2.45-.121.637-.115 1.898 1.285 3.177.77.704 1.902 1.353 3.363 1.93.383.15.838.295 1.32.448 1.672.531 4.202 1.334 4.862 2.887.335.788.19 1.824-.426 3.076a1.36 1.36 0 0 0-.047.103c-.155.36-1.593 3.619-4.544 7.055-1.677 1.955-3.524 3.588-5.487 4.856-2.396 1.549-4.988 2.561-7.704 3.009a2.115 2.115 0 0 0-1.769 2.205c.018.311.091.621.218.922l.003.005c.431 1.009 1.431 1.866 3.057 2.621 1.986.923 4.957 1.7 8.83 2.307.195.372.398 1.307.539 1.947.147.68.3 1.38.519 2.123.236.805.849 1.768 2.422 1.768.596 0 1.282-.135 2.076-.289 1.162-.228 2.752-.539 4.737-.539 1.1 0 2.24.097 3.388.288 2.213.368 4.12 1.715 6.327 3.276 3.23 2.283 6.886 4.868 12.473 4.868.152 0 .305-.005.456-.016.184.009.413.016.655.016 5.588 0 9.243-2.586 12.47-4.867l.005-.005c2.207-1.559 4.113-2.904 6.324-3.272a20.768 20.768 0 0 1 3.388-.288c1.896 0 3.397.242 4.738.503.874.172 1.554.255 2.076.255l.05.001h.054c1.15 0 1.996-.631 2.318-1.737.215-.727.368-1.41.519-2.102.131-.6.341-1.562.537-1.938 3.875-.609 6.844-1.383 8.831-2.306 1.622-.752 2.62-1.608 3.055-2.612.13-.302.206-.614.223-.932a2.114 2.114 0 0 0-1.77-2.205c-12.07-1.99-17.508-14.392-17.733-14.92a1.51 1.51 0 0 0-.048-.102c-.617-1.253-.76-2.288-.425-3.076.658-1.552 3.187-2.355 4.86-2.886.485-.153.941-.298 1.322-.448 1.647-.65 2.824-1.356 3.6-2.158.928-.955 1.109-1.87 1.098-2.47-.029-1.449-1.137-2.737-2.9-3.368a5.184 5.184 0 0 0-1.965-.376c-.47 0-1.167.065-1.827.373-1.412.66-2.677 1.022-3.763 1.073-.577-.029-.982-.154-1.245-.274.033-.565.07-1.146.107-1.751l.016-.26c.387-6.128.868-13.755-1.151-18.283-1.384-3.101-3.242-5.768-5.524-7.93a23.058 23.058 0 0 0-6.608-4.368c-4.302-1.887-8.313-2.169-10.32-2.169" fill="#020202"/><path d="M11.834 11.824h120.331v120.331H11.834z" fill="none"/></svg>