<svg xmlns="http://www.w3.org/2000/svg" xmlns:xlink="http://www.w3.org/1999/xlink" width="1216" height="486" xmlns:v="https://vecta.io/nano"><style><![CDATA[.B{fill-rule:evenodd}.C{fill:#222019}.D{fill:#fbb190}.E{fill:#f3a497}.F{fill:#806150}.G{fill:#ffc8a8}.H{fill:#2b281d}.I{fill:#fbb291}.J{fill:#2a3eb2}.K{fill:#3a0438}.L{fill:#2a2921}.M{fill:#fa4114}.N{fill:#f47d01}.O{fill:#f48d6e}.P{fill:#fa9e0a}.Q{fill:#9d00b4}.R{fill:#662d91}.S{fill:#242238}.T{fill:#dd2a0e}.U{fill:#fd4619}.V{fill:#365bc9}]]></style><defs><linearGradient id="A" x1="750.22" y1="647.49" x2="750.22" y2="549.71" xlink:href="#i"><stop offset="0" stop-color="#f3a497"/><stop offset="1" stop-color="#ed7054"/></linearGradient><linearGradient id="B" x1="751.07" y1="502.22" x2="751.07" y2="448.73" xlink:href="#i"><stop offset="0" stop-color="#3a0438"/><stop offset="1" stop-color="#2f0232"/></linearGradient><linearGradient id="C" x1="1212.94" y1="339" x2="1211.14" y2="407.43" xlink:href="#i"><stop offset="0" stop-color="#ea5d70"/><stop offset="1" stop-color="#e73763"/></linearGradient><linearGradient id="D" x1="1170.56" y1="660.59" x2="1170.56" y2="498.25" xlink:href="#A"/><linearGradient id="E" x1="1171.61" y1="468.13" x2="1171.61" y2="437.99" xlink:href="#B"/><linearGradient id="F" x1="1061.61" y1="702.38" x2="1061.61" y2="549.04" xlink:href="#A"/><linearGradient id="G" x1="1061.61" y1="459.69" x2="1061.61" y2="544.25" xlink:href="#i"><stop offset="0" stop-color="#9e4f40"/><stop offset="1" stop-color="#b94e49"/></linearGradient><linearGradient id="H" x1="946.19" y1="601.1" x2="946.19" y2="492.66" xlink:href="#B"/><linearGradient id="I" x1="833.79" y1="215.49" x2="833.79" y2="183.32" xlink:href="#B"/><linearGradient id="J" x1="837.68" y1="498.69" x2="837.68" y2="655.64" xlink:href="#G"/><linearGradient id="K" x1="945.92" y1="371.03" x2="945.92" y2="503.27" xlink:href="#i"><stop offset="0" stop-color="#f28e3f"/><stop offset="1" stop-color="#e73763"/></linearGradient><linearGradient id="L" x1="750.22" y1="363.85" x2="750.22" y2="543" xlink:href="#i"><stop offset="0" stop-color="#fcc235"/><stop offset="1" stop-color="#ed7054"/></linearGradient><linearGradient id="M" x1="784.05" y1="272.59" x2="784.05" y2="250.42" xlink:href="#B"/><linearGradient id="N" x1="742.68" y1="293.35" x2="742.68" y2="228.38" xlink:href="#B"/><linearGradient id="O" x1="752.68" y1="309.63" x2="751.66" y2="387.14" xlink:href="#C"/><linearGradient id="P" x1="835.6" y1="329.83" x2="832.98" y2="459" xlink:href="#C"/><linearGradient id="Q" x1="1061.61" y1="356.5" x2="1061.62" y2="494.86" xlink:href="#L"/><linearGradient id="R" x1="1060.52" y1="377.1" x2="1062.44" y2="410.49" xlink:href="#L"/><linearGradient id="S" x1="1060.7" y1="215.92" x2="1060.7" y2="191.46" xlink:href="#B"/><linearGradient id="T" x1="927.78" y1="311.68" x2="926.92" y2="385.76" xlink:href="#C"/><linearGradient id="U" x1="1168.87" y1="366.21" x2="1168.87" y2="472.98" xlink:href="#K"/><linearGradient id="V" x1="1168.58" y1="374.14" x2="1162.49" y2="405.43" xlink:href="#K"/><linearGradient id="W" x1="1171.47" y1="258.05" x2="1171.47" y2="223.78" xlink:href="#B"/><linearGradient id="X" x1="1179.06" y1="244.64" x2="1179.06" y2="221.27" xlink:href="#B"/><linearGradient id="Y" x1="1062.07" y1="322.04" x2="1062.07" y2="279.56" xlink:href="#i"><stop offset="0" stop-color="#f49a43"/><stop offset="1" stop-color="#fcc235"/></linearGradient><linearGradient id="Z" x1="863.08" y1="309.58" x2="863.09" y2="381.64" xlink:href="#K"/><linearGradient id="a" x1="1042.26" y1="315.6" x2="1042.26" y2="376" xlink:href="#K"/><linearGradient id="b" x1="943.3" y1="294.79" x2="943.3" y2="222.53" xlink:href="#B"/><linearGradient id="c" x1="844.71" y1="206.7" x2="844.71" y2="184.63" xlink:href="#B"/><linearGradient id="d" x1="966.03" y1="299.34" x2="966.03" y2="348.38" xlink:href="#L"/><linearGradient id="e" x1="1083.76" y1="335.45" x2="1083.28" y2="396.34" xlink:href="#C"/><linearGradient id="f" x1="1154.13" y1="335.39" x2="1154.13" y2="446.17" xlink:href="#L"/><linearGradient id="g" x1="704.32" y1="289.49" x2="704.32" y2="247.48" xlink:href="#B"/><path id="h" d="m1037.11,249.59c4.26,0,7.74-3.48,7.74-7.74s-3.48-7.74-7.74-7.74-7.74,3.47-7.74,7.74,3.48,7.74,7.74,7.74Z"/><linearGradient id="i" gradientUnits="userSpaceOnUse"/></defs><g class="B"><path d="m741.14,502.21c-.79,17.22-2.96,149.12-5.3,182.51.29,2.78.81,8.1.81,10.07,0,2.71-10.19,23.81-18.76,21.91l.63-2.54s2.47-1.04,4.37-11.23c1.16-6.21,1.79-9.98,1.93-12.93-2.15-23.82-16.57-186.57-15.34-241.29h81.47c1.23,54.93-13.31,218.71-15.37,241.55.17,2.91.8,6.63,1.92,12.66,1.91,10.19,4.37,11.23,4.37,11.23l.63,2.54c-8.57,1.9-18.76-19.19-18.76-21.91,0-2.02.56-7.57.84-10.28-2.33-33.73-4.5-165.11-5.28-182.29-1.16-25.3-17-25.3-18.16,0Z" fill="url(#A)"/><path d="M714.69 435.08l-8.36 11.24.4 98.41c1.26 13.42 14.89 13 35.85 14.26s42.98-2.31 46.75-4.19c3.77-1.89 10.01-24.07 4.8-108.47l-79.43-11.24z" fill="url(#B)"/><path d="m1204.1,307.86c12.16,5.72,28.35,33.76,30.65,56.28,1.93,18.89-7.55,31.31-21.49,48.56-22.96,28.4-34.86-89.28-9.17-104.84Z" fill="url(#C)"/><path d="M1096.68 275.44s2.63-2.41 6.38-1.98 10.18 4.77 7.29 14.21c-2.89 9.43-13.67-12.22-13.67-12.22zm-288.52-6.27s-1.07-3.65-6.54-2.9-11.04 8.04-7.83 13.62c3.21 5.57 15.54-1.39 14.36-10.72z" class="E"/><path d="m715,328.13c-15.88,23.62-54.4,79.18-8.72,112.75,16.77,12.33,66.11-22.42,64.4-30.14-1.72-7.72-55.68-82.61-55.68-82.61Z" fill="#a04f40"/></g><path d="M739.57 231.55h28.23a13.22 13.22 0 0 1 13.21 13.21v31.09a13.22 13.22 0 0 1-13.21 13.21h-28.23a13.22 13.22 0 0 1-13.21-13.21v-31.09a13.22 13.22 0 0 1 13.21-13.21z" fill="#ef8267"/><g class="B"><path d="m1161.51,503.11c-.96,20.9-3.44,172.63-5.68,210.78l-7.21,4.66-1.68-7.52c-3.67-41.5-18.09-211.29-16.97-261.19h81.14c1.12,49.9-8.92,219.38-12.58,260.88l-5.42,7.47-5.83-6.72c-2.24-38.15-6.94-191.75-7.7-208.34-1.15-25.2-17.13-20.9-18.08,0Z" fill="url(#D)"/><path d="M1144.26 430.3l-16.03 16.99s-.78 47.99 1.2 51.08c1.98 3.1 32.52 1.67 33.41.78s1.67-10.23 6.37-11.48 7.26 5.22 8.14 10.6c0 0 .42 1.41 2.4 1.41s30.38-.89 32.47-3.39c2.09-2.51 4.8-45.94 1.04-55.12-3.76-9.19-69.01-10.86-69.01-10.86z" fill="url(#E)"/></g><path d="M1156.73 277.94h27.64v32.58h-27.64z" fill="#ef8267"/><g class="B"><path d="M1051.19 516.14l-7.82 196.56-14.12-2.28c-3.16-32.81-15.76-203.58-14.39-260.32h93.51c1.37 56.74-11.68 229.4-14.83 262.21l-14.01-.38c-1.43-76.51-5.21-149.26-7.49-195.78-1.2-24.42-19.64-24.42-20.84 0z" fill="url(#F)"/><path d="M1039.22 438.89l-27.51 19.88s1.27 77.96 3.94 114.65c0 0-.11 2.17 2.56 2.45s27.29.56 30.63 0c0 0 1.67-.22 2.11-4s2.45-53.81 4.23-58.7c1.77-4.89 10.23-3.56 11.56 12.45l4.12 46.25c.45 1.78 1 4.78 4.78 5.22 3.78.45 24.9.78 28.13-1.55s3.23-22.35 4.34-31.69 5.06-63.42 2.64-85.07c-2.42-21.66-71.52-19.88-71.52-19.88z" fill="url(#G)"/><path d="m937.03,523.07c-.78,15.91-2.22,90.41-3.96,135.87-.25,6.44-1.95,22.74-1.35,28.15.33,2.98-4.21,2.34-7.48,2.54-3.44.21-4.03-1.81-4.03-1.81-3.07-31.98-16.32-173.72-15.13-222.83h82.23c1.24,51.58-13.44,205.36-15.51,226.8.17,2.73.8,6.23,1.94,11.89,1.92,9.57,4.42,10.54,4.42,10.54l.63,2.38c-8.65,1.79-18.94-18.02-18.94-20.57,0-1.9.56-7.11.85-9.66-2.35-31.67-4.54-147.18-5.33-163.31-1.17-23.76-17.35-19.96-18.33,0Z" fill="url(#H)"/></g><g fill="#9e4f40"><path d="m837.68,197.21h0c15.42,0,27.95,12.52,27.95,27.95v13.75c0,15.42-12.52,27.95-27.95,27.95h0c-15.42,0-27.94-12.52-27.94-27.94v-13.76c0-15.42,12.52-27.94,27.94-27.94Z"/><path d="M822.21 246.47h30.94v29.55h-30.94z"/><path d="M811.01 243.38c4.64 0 8.42-3.78 8.42-8.42s-3.79-8.42-8.42-8.42-8.42 3.78-8.42 8.42 3.78 8.42 8.42 8.42zm53.35 0c4.64 0 8.42-3.78 8.42-8.42s-3.78-8.42-8.42-8.42-8.42 3.78-8.42 8.42 3.79 8.42 8.42 8.42z" class="B"/></g><path d="M712 373.83c-13.56-2.72-12.17 14.71-8.04 15.31 0 0 .11-1.48 1.33-1.89s5.51-.35 7.18-1.32c1.52-.89 6.5-9.02 3.05-11.33-.33-.22-3.05-.67-3.52-.78z" class="B E"/><rect x="803.02" y="186.56" width="61.54" height="75.82" rx="30.77" fill="url(#I)"/><g class="B"><path d="m827.63,523.69c-2.2,44.85-.81,128.72-6.47,193.49l-17.15-.81c-3.04-31.64-12.73-201.65-11.41-256.36h90.16c1.32,54.71-8.36,224.72-11.41,256.36l-17.15.81c-5.67-64.77-4.27-148.63-6.47-193.49-.54-11-5.29-17.52-10.05-17.98-4.75.46-9.51,6.98-10.05,17.98Z" fill="url(#J)"/><path d="m990.23,464.14s4.34-11.85,2.17-34.84c-2.17-22.98-6.5-110.06-5.54-129.17-12.41-9.63-69.47-9.63-81.88,0,.96,19.1-3.37,106.18-5.54,129.17-2.17,22.98,2.17,34.84,2.17,34.84,7.41,22.43,81.19,22.43,88.61,0Z" fill="url(#K)"/><path d="M990.47 402.01l-.57-9.94-39.99-8.4-46.55-19.9-.87 17.87c23.44 14.02 67.59 21.64 87.79 20.38h.19z" fill="#ea5a57"/><path d="m945.74,216.53h0c13.86,0,25.21,11.35,25.21,25.21v16.81c0,13.86-11.34,25.21-25.21,25.21h0c-13.86,0-25.2-11.34-25.2-25.21v-16.81c0-13.86,11.34-25.21,25.2-25.21Z" class="E"/><path d="M794.12 446.32s4.3-10.35 2.15-30.4-6.44-96.03-5.49-112.7c-12.29-8.4-68.83-8.4-81.12 0 .95 16.67-3.34 92.65-5.49 112.7s2.15 30.4 2.15 30.4c7.35 19.57 80.45 19.57 87.79 0z" fill="url(#L)"/><path d="M706.5 385.67l-.85 12.64c29.41 13.75 70.48-17.13 81.88-25.64 3.62-2.7 2.29-21.33 2.29-21.33s-16.06 15.37-48.4 24.31l-34.92 10.02z" fill="#f28e3f"/><path d="M777.14 245.45a.72.72 0 1 1 1.45.09c0 .12-2.64 41.39 12.16 49.32.35.19.49.63.3.98s-.63.49-.98.3c-15.64-8.37-12.94-50.56-12.93-50.68z" fill="url(#M)"/><path d="m750.22,216.29h0c14.76,0,26.84,12.08,26.84,26.84v17.89c0,14.76-12.08,26.84-26.84,26.84h0c-14.76,0-26.84-12.08-26.84-26.84v-17.89c0-14.76,12.08-26.84,26.84-26.84Z" class="E"/><path d="m712.68,247.84c2.13,42.83-6.09,45.75-15.64,66.63-27.72,60.62,99.62,65.51,95.11,5.97-2.04-26.92-15.15-22.63-12.79-51.5,1.23-15.11,3.21-28.2-.35-38.13-10.44-29.11-68.46-25.8-66.33,17.03Z" fill="url(#N)"/><path d="M798.34 275.23c-18.46 4.71-38.23 32-46.37 59.62s-34.69 45.96-44.99 41.87c0 0-3.26 1.52-4.76 7.09s.01 11.71 8.8 13.64 57.5-5.98 76.88-47.16c19.38-41.17 14.24-56.61 14.24-56.61l-3.8-18.45z" fill="url(#O)"/><path d="M798.18 457.57l-7.37 4.96s-1.45 4.67-.87 7.57 13.82 16.12 47.74 16.12 47.16-13.22 47.74-16.12-.87-7.57-.87-7.57l-7.37-4.96-39.51 8-39.5-8z" fill="#fff"/><path d="M886.26 459.08s3.82-10.43 2.9-30.7h0v-.04a143.7 143.7 0 0 0-.38-5.84c-1.57-25.66-15.2-126.07 1.87-133.54-9.01-16.43-44.25-17.58-67.02-17.62-21.46-.03-33.23 2.94-40.2 25.52-10.18 32.94 4.48 103.74 3.15 125.62-.17 2.05-.3 4.01-.38 5.89v.02h0c-.91 20.28 2.9 30.71 2.9 30.71 8.13 24.59 89.02 24.59 97.15 0z" fill="url(#P)"/><path d="M983.77 385.42c4.37-.88 10.01.03 8.59 4.95 0 0 1.55 1.3.18 3.33 0 0 1.01 2.01-.55 3.47 0 0 .47 2.75-1.44 3.56 0 0-.11-1.48-1.33-1.89s-5.51-.35-7.18-1.32c-1.52-.89-6.51-9.02-3.05-11.33.33-.22 4.31-.67 4.78-.78z" class="E"/></g><g fill="#ed7054"><path d="m1061.61,197.91h0c14.17,0,25.67,11.5,25.67,25.67v21.9c0,14.17-11.5,25.67-25.67,25.67h0c-14.17,0-25.67-11.5-25.67-25.67v-21.9c0-14.17,11.5-25.67,25.67-25.67Z"/><path d="M1046.89 247.65h29.44v34.7h-29.44z"/><g class="B"><use xlink:href="#h"/><use xlink:href="#h" x="49.01"/></g></g><path d="m1065.15,197.4h0c-15.13,0-27.51,12.38-27.51,27.51v12.76c0,15.13,12.38,27.51,27.51,27.51h0c15.13,0,27.5-12.38,27.5-27.51v-12.76c0-15.13-12.38-27.51-27.5-27.51Z" class="B K"/><path d="M1113.36 454.63c1.04-4.78 2.21-13.02 1.65-24.61h0v-.04c-.09-1.79-.22-3.67-.4-5.62-1.62-24.66-6.87-121.97 10.84-129.15 0 0-9.29-15.7-61.84-16.09h-1.75-.24-2.05c-52.49.4-61.78 16.09-61.78 16.09 17.7 7.18 12.46 104.44 10.84 129.13-.18 1.97-.31 3.86-.4 5.66v.02h0c-.65 13.53 1.05 22.5 2.16 26.71 0 0 4.06 11.61 43.19 12.05 39.13.45 56.64-8.09 59.79-14.16z" fill="url(#Q)" class="B"/><path d="M1113.07 392.96l-.43-21.09-1.01-1.97-101.48 23.45-.45 11.47c4.98 1.95 17.61 5.54 50.55.17 28.2-4.59 44.8-8.86 52.82-12.04z" fill="url(#R)" class="B"/><path d="M1092.31 241.98s3.45-21.01.78-29.69c-2.67-8.67-7.45-8.34-7.45-8.34s-3.67-16.35-23.24-15.46-26.02 2.89-31.58-2.89c0 0-2.22-1.56-2.89 1.56-.67 3.11-4.23 34.69 16.68 37.58 20.9 2.89 47.7 17.23 47.7 17.23z" fill="url(#S)" class="B"/><path d="M875.8 277.63s-13.74 49.82 7.24 77.1c20.99 27.28 64.42 43.02 97.01 42.16 0 0 2.47.21 2.79-2.15s.86-7.5-.21-9-46.75-23.78-67.76-63.23-36.55-43.84-39.06-44.88z" fill="url(#T)" class="B"/><path d="m1215.63,442.93c1.03-4.74,3.56-13.26.78-24.66-2.44-9.99-5.16-23.16-6.77-34.5-1.23-8.66.2-20.79,2.01-32.8,4.77-31.66.35-44.37-18.88-46.65-22.53-2.67-54.11-.75-62.61,4.97,3.54,12.71-10.6,24.35-10.08,34.44.84,16.25,8.79,29.34,10.02,41.35,1.56,15.27-6.92,34.98-4.63,57.84.79,2.82,2.44,4.66,4.56,5.91,5.43,3.19,33.9,6.14,40.53,6.14s35.1-2.95,40.53-6.14c2.12-1.24,3.76-3.08,4.56-5.9Z" fill="url(#U)" class="B"/><path d="m1211.61,395.74c-.75-4.07-1.42-8.13-1.97-11.97-.03-.24-.06-.47-.1-.71-2.12-.78-4.88-1.38-8.46-1.67-15.82-1.3-60.94-14.39-77.39-19.27,1.95,6.31,4.2,12.15,5.5,17.71,14.24,13.71,32.96,22.06,55.84,20.6,14.42-.92,22.4-3.03,26.59-4.68Z" fill="url(#V)" class="B"/><path d="M1170.55 228.59h0c14.7 0 26.73 12.03 26.73 26.73v17.82c0 14.7-12.03 26.73-26.73 26.73h0c-14.71 0-26.73-12.03-26.73-26.73v-17.82c0-14.7 12.03-26.73 26.73-26.73zm33.1 148.94c4.84-1.26 11.08-.62 9.51 4.92 0 0 1.71 1.34.2 3.68 0 0 1.11 2.16-.61 3.87 0 0 .52 3.01-1.6 4.04 0 0-.12-1.63-1.48-2s-6.1-.02-7.95-.99c-1.69-.89-7.2-9.56-3.38-12.34.37-.27 4.78-1.02 5.3-1.17z" class="E B"/><path d="m1143.98,254.7c.55,4.96.86,9.21.98,12.92-.12,3.71-.43,7.96-.98,12.92-3.61,32.65,43.09,35.17,52.8,12.98,3.01-6.87,2.45-15.72,2.07-25.9.38-10.18.93-19.03-2.07-25.9-9.71-22.19-56.41-19.67-52.8,12.98Z" fill="url(#W)" class="B"/><path d="M911.35 223.53a.73.73 0 0 1 1.02-.13.73.73 0 0 1 .12 1.02c-.02.03-8.4 10.28-6.28 35.51l.58 6.64c1.92 21.17 2.96 32.72-9.76 57.58a.73.73 0 0 1-.98.32.73.73 0 0 1-.32-.98c12.54-24.49 11.51-35.89 9.61-56.79l-.59-6.65c-2.17-25.8 6.56-36.49 6.59-36.53z" class="B K"/><path d="m1179.06,259.88c11.36,0,20.62-9.26,20.62-20.62s-9.26-20.62-20.62-20.62-20.62,9.26-20.62,20.62,9.26,20.62,20.62,20.62Z" fill="url(#X)" class="B"/><path d="M1017.93 386.48c-4.85-1.26-11.08-.62-9.51 4.92 0 0-1.71 1.34-.2 3.67 0 0-1.12 2.16.61 3.87 0 0-.52 3.01 1.6 4.04 0 0 .12-1.63 1.47-2s6.1-.02 7.95-.99c1.69-.89 7.2-9.56 3.38-12.34-.37-.26-4.78-1.02-5.29-1.17z" class="B E"/><path d="M1032.56 281.02s-14.45 9.33-.89 19.33c13.56 10.01 14.9 38.91 44.03 28.68s24.88-38.61 15.88-47.88c-8.99-9.27-53.68-11.49-59.02-.14z" fill="url(#Y)" class="B"/><path d="M917.05 340.59l10.62-44.77S852.01 306.55 808.54 267c0 0-7.45-.42-10.05 9.35 11.18 20.3 79.78 61.22 118.56 64.24z" fill="url(#Z)" class="B"/><path d="m986.4,345.63l-8.17-16.26s24.96-29.45,48.42-30.91c24.72-1.54,47.07-4.29,69.8-24.11,0,0,7.46-.26,9.85,9.56-11.61,20.05-81.07,59.52-119.89,61.71Z" fill="url(#a)" class="B"/><path d="M984.53 284.73c-.21-.34-.12-.79.22-1.01s.79-.12 1 .22c.04.06 12.99 19.92 11.69 42.67-.08 1.33-.22 2.67-.43 4.03-1.61 10.28-7.11 20.94-15.83 28.82-8.72 7.89-20.67 13-35.17 12.17-1.82-.1-3.68-.3-5.58-.6-.4-.06-.67-.43-.61-.83a.73.73 0 0 1 .83-.61c1.84.29 3.66.48 5.43.58 14.07.8 25.66-4.15 34.12-11.79 8.47-7.65 13.8-18 15.37-27.97.2-1.3.34-2.6.42-3.88 1.27-22.27-11.43-41.75-11.46-41.8z" class="B K"/><path d="M959.94 219.72s-6.17-16.03-23.43-15.62c-17.27.41-34.12 16.86-29.6 47.69 4.52 30.84 5.76 43.58-6.99 63.31s-15.21 56.73 39.05 56.73 62.49-53.03 50.57-80.17c-11.92-27.13 13.16-76.47-29.6-71.95z" fill="url(#b)" class="B"/><path d="m841.45,179h6.53c14.09,0,25.61,11.52,25.61,25.61h0c0,14.09-11.52,25.61-25.61,25.61h-6.53c-14.09,0-25.61-11.52-25.61-25.61h0c0-14.09,11.52-25.61,25.61-25.61Z" fill="url(#c)" class="B"/><path d="m901.62,302.98l-1.39-.43s-5.87-5.28-7.16-5.7l-1.32-.07s-.8-2.22.38-3.77c2.52-3.32,7.95-2.2,10.45-1.26,4,1.51,4.58,4.73,4.61,4.74,1.6.6-5.57,6.49-5.57,6.49Z" class="B E"/><path d="m1032.56,281.02c-26.41.22-90.64,19.13-126,14.79,0,0-5.25,1.07-7.07,6.86,17.95,28.64,70.59,28.75,94.33,11.65,7.46-5.38,22.98-16,32.25-21.31-1.55-6.8,6.5-11.99,6.5-11.99Z" fill="url(#d)" class="B"/><path d="m1131.82,308.35c-4.12,33.48-81.97,74.74-113.64,77.66,0,0-2.78,8.58,1.29,16.29,4.07,7.72,97.07-3.06,129.23-41.65,0,0,7.25-43.61-16.87-52.31Z" fill="url(#e)" class="B"/><path d="m1125.45,295.22c18.01,15.01,32.72,80.37,79.03,82.09,0,0,4.63,6.21,2.06,15.64-57.52,13.23-84.46-28.32-103.05-60.59-8.8-15.27,6.86-44.7,21.96-37.14Z" fill="url(#f)" class="B"/><path d="m715.15,236.96c.29-.27.75-.25,1.03.04.27.29.25.75-.04,1.03-2.82,2.61-3.12,9.33-3.51,17.95-.41,9.23-.93,20.59-4.79,31.7-1.84,5.3-4.26,10.42-6.57,15.34-5.45,11.58-10.35,21.99-5.58,30.16.2.35.09.79-.26,1-.35.2-.8.09-1-.26-5.16-8.83-.11-19.56,5.52-31.52,2.3-4.89,4.7-9.98,6.51-15.2,3.79-10.91,4.3-22.15,4.71-31.29.4-8.95.72-15.93,3.98-18.95Z" fill="url(#g)" class="B"/><g class="K B"><path d="M860.11 226.47c-.4.07-.77-.2-.84-.59-.07-.4.2-.77.59-.84.04 0 16.52-2.68 15.48-26.05-.02-.4.29-.74.69-.76s.74.29.76.7c1.1 24.66-16.63 27.54-16.68 27.55zm182.2-3.62c.4.06.67.43.62.82-.06.4-.43.68-.82.62l-.43-.04c-2.71-.19-12.78-.93-16.37-18.55-.08-.39.18-.78.57-.86a.73.73 0 0 1 .86.57c3.37 16.55 12.58 17.21 15.05 17.39h.01c.21.02.38.03.52.05zm154.26 46.09c-.08-.39.16-.78.56-.87.39-.08.78.16.86.56.01.04 3.4 15.5 1.19 26.03-.31 1.47-.98 2.91-1.94 4.29-2.5 3.57-6.98 6.71-12.14 8.68-5.15 1.96-11.01 2.77-16.25 1.66-2.48-.52-4.83-1.47-6.92-2.93-.33-.23-.41-.68-.18-1.01s.68-.41 1.01-.18c1.91 1.33 4.08 2.21 6.38 2.69 4.96 1.04 10.52.27 15.44-1.6 4.9-1.87 9.14-4.82 11.47-8.15.85-1.22 1.44-2.48 1.71-3.75 2.15-10.22-1.18-25.38-1.19-25.43z"/><path d="M1191.14 224.72c-.35-.2-.48-.64-.28-.99s.64-.48.99-.28c6.98 3.92 10.12 10.03 10.36 16.16.12 3.04-.48 6.08-1.69 8.85-1.2 2.77-3.01 5.28-5.31 7.24-4.55 3.9-10.99 5.68-18.42 3.27-.38-.12-.59-.53-.47-.92a.74.74 0 0 1 .92-.47c6.88 2.24 12.83.6 17.02-2.99 2.13-1.82 3.8-4.14 4.92-6.72 1.12-2.57 1.68-5.4 1.57-8.22-.22-5.65-3.13-11.3-9.62-14.94z"/></g><path d="M686.77 514.39s3.11-9.66 3.18-26.43c.1-22.71-7.87-34.93-7.87-34.93s-41.87 13.54-96.15 1.73c0 0-4.66 38.87-3.25 59.63l-.27 42.84h41.11s4.99-29.25 8.47-37.2c0 0 6.32.69 10.74 0l-.69 37.2h40.04l4.7-42.84z" class="S"/><g fill="#ffc400"><path d="M682.07 453.03c-43.16 20.51-96.15 1.73-96.15 1.73.22-3.77.67-7.61 1.28-11.63 2.16-14.28 6.28-30.96 8.69-55.76l.14-1.46.14-1.55c.24-2.72.19-5.56-.09-8.46-.09-.92-.21-1.84-.34-2.77-4.81-32.62-36.84-73.44-25.44-79.63 5.34-2.9 14.02-7.18 22.31-11.18 15.4-7.42 33.23-9.33 50.04-5.3 16.15 3.87 33.79 9.79 36.06 17.52 4.31 14.65-9.38 64.16-4.88 86.71l.61 3.25.54 3.19c.6 3.64 1.17 7.66 1.72 11.85l.18 1.37c1.82 14.16 3.33 30.13 4.24 40.61l.95 11.51z"/><path d="M682.07 453.03c-44.34 21.17-96.15 1.73-96.15 1.73.22-3.77.67-7.61 1.28-11.63 11.78 4.58 58.56 14.77 93.92-1.62l.95 11.51zm-5.37-53.5c-6.29-.53-11.54-2.98-11.54-2.98-23.45 1.66-50.1-4.68-69.13-10.64l.14-1.55c.24-2.72.19-5.56-.09-8.46-.09-.92-.21-1.84-.34-2.77 27.32 10.34 60.22 11.62 78.7 11.37l.54 3.19c.6 3.64 1.17 7.66 1.72 11.85z" style="mix-blend-mode:multiply" opacity=".5"/><path d="M679.78 441.97l-1.05-20.6-.39-7.57 15.01-32.45c-1.94-16.95-13.99-35.08-19.36-42.43-1.58-2.16-2.58-3.39-2.58-3.39l-5.59-51.22s10.06 3.3 16.25 9.27c0 0 31.75 45.48 33.87 87.34.79 15.56-36.16 61.06-36.16 61.06z"/><path d="M705.3 379.17c-.1.08-3.36 2.68-8.03 3.27l-18.54 38.92-.39-7.57 15.01-32.45c-1.94-16.95-13.99-35.08-19.36-42.43.58-.69 1.21-1.26 1.89-1.71 0 0 21.86 26.89 21.15 41.97 0 0 4.72 1.31 8.27 0z" style="mix-blend-mode:multiply" opacity=".5"/></g><path d="m596.36,223.76s-37.65-6.95-30.24-19.22c11.34-18.78,50.75-14.64,59.54-4.38l-29.3,23.6Z" fill="#18b6bb"/><g class="G"><path d="M624.96 264.44z"/><path d="m636.37,280.59c-8.57,3.52-17.13,3.52-25.7,0v-24.67h25.7v24.67Z"/><path d="M660.15 225.66c0 2.04-.2 4.04-.57 5.98v.03c-.23 1.29-7.75 42.49-35.87 42.49s-35.63-41.2-35.86-42.49v-.03a31.09 31.09 0 0 1-.57-5.98c0-18.61 16.32-33.69 36.44-33.69s36.44 15.09 36.44 33.69z"/><path d="M656.49 229.88s5.13-7.55 9.77-4.3c4.65 3.26-.96 17.92-5.61 21.48s-8.17 1.78-8.17 1.78l4.01-18.96z"/></g><path d="M663.06 323.16c-14.65 6.57 0 25.89-14.8 36.48-5.09 3.64-19.77 2.45-21.82-8.83-2.52-13.87-15.79-12.15-20.32-17.92-6.84-8.73-3.54-13.5.24-30.36 4.25-19-26.26-13.98-12.32-38.92 15.83-28.31-12.83-30.09-8.59-52.83a41.01 41.01 0 0 1 .36-1.74c5.81-25.34 30.47-24.8 30.47-24.8 18.56-2.23 30.21 2.37 37.32 9.46 6.46 6.46 9.15 14.98 9.84 22.32l.19 1.99c1.32 14.12 1.87 21.84-3.46 32.71-5.28 10.76-3.52 24.77 1.03 33.25.58 1.08 1.21 2.08 1.87 2.96 5.86 7.8 14.65 29.66 0 36.23z" class="S"/><path d="M663.06 323.16c-14.65 6.57 0 25.89-14.8 36.48-5.09 3.64-19.77 2.45-21.82-8.83-2.52-13.87-15.79-12.15-20.32-17.92-6.84-8.73-3.54-13.5.24-30.36 4.25-19-26.26-13.98-12.32-38.92 15.83-28.31-12.83-30.09-8.59-52.83a41.01 41.01 0 0 1 .36-1.74c14.8-4.37 46.9-13.33 67.79-15.34 6.46 6.46 9.15 14.98 9.84 22.32l.19 1.99c-5.07 3.18-18.51 13.35-35.57 11.63-21.93-2.21-17.37 6.66-16.19 14.92 1.87 13.02-8.04 26.42.9 34.68 8.95 8.26 4.6 11.56 10.76 28.38 6.17 16.82 14.12 20.07 19.88 9.96 6.8-11.93 18.06-1.83 19.66-15.05.88-7.3-1.35-14.09-1.87-18.55.58 1.08 1.21 2.08 1.87 2.96 5.86 7.8 14.65 29.66 0 36.23z" fill="#10101e"/><path d="m595.99,229.88s-5.13-7.55-9.77-4.3,1.26,15.68,5.36,19.77c3.4,3.4,7.22,2.28,7.22,2.28l-2.8-17.76Z" class="G"/><path d="M621.5 176.58c-43.68 2.77-36.49 42.17-36.49 42.17 15.24 5.42 28.3 7.12 39.14 6.84h.17.13.21.2l1.62-.07c.11 0 .23-.01.34-.02 10.68-.62 19.04-3.16 25.02-5.79 7.43-3.25 11.19-6.64 11.19-6.64s1.75-39.22-41.55-36.47zm2.66 41.1s1.39-11.71 10.35-13.78c1.19-.28 2.3-.39 3.35-.36a9.25 9.25 0 0 1 1.19.09c6.04.77 9.44 6.28 10.79 10.55 0 .02.01.03.02.05 0 0-10.6 4.97-25.69 3.45z" fill="#0fd8d5"/><g fill="#18b6bb"><path d="M651.86 219.69c-5.98 2.63-14.34 5.17-25.02 5.79a3.66 3.66 0 0 0-.34.02l-1.62.07h-.2-.21-.13-.17v-7.91c15.08 1.52 25.69-3.45 25.69-3.45 0-.02-.01-.03-.02-.05 1.93 1.37 2.92 3.55 2.04 5.51zm-35.41-40.61c-.15-.27-.51-.37-.8-.23l-2.62 1.39c-.28.16-.36.5-.19.75a.61.61 0 0 0 .5.26.65.65 0 0 0 .31-.08l2.54-1.35c.29-.14.4-.47.25-.74zm-4.71 2.6a.62.62 0 0 0-.82-.12l-2.37 1.75c-.25.2-.27.54-.06.77.12.12.28.19.45.19.14 0 .28-.04.39-.14l2.28-1.69c.26-.18.32-.52.13-.76zm-4.22 3.25c-.23-.21-.6-.21-.83 0l-2.03 2.08a.52.52 0 0 0 .08.77c.11.08.24.12.38.12a.63.63 0 0 0 .46-.2l1.96-2.01c.23-.21.23-.56 0-.77zm-3.6 3.84a.62.62 0 0 0-.82.13l-1.65 2.35c-.17.26-.07.59.21.75a.64.64 0 0 0 .3.08c.2 0 .4-.1.51-.27l1.59-2.27c.19-.24.13-.59-.14-.76zm-2.9 4.31c-.29-.14-.65-.03-.79.24l-1.25 2.54a.53.53 0 0 0 .32.71.57.57 0 0 0 .22.04.61.61 0 0 0 .55-.34l1.22-2.47a.52.52 0 0 0-.26-.73zm-2.2 4.66c-.31-.1-.65.05-.75.34l-.89 2.67c-.09.29.1.59.42.67.05.01.1.02.16.02.26 0 .5-.16.57-.4l.86-2.6c.11-.28-.06-.59-.37-.69zm-1.54 4.88c-.32-.07-.63.12-.7.42l-.56 2.74c-.05.3.17.58.49.62h.09c.29 0 .54-.19.58-.46l.55-2.68c.07-.29-.13-.59-.45-.65zm-.95 5.01c-.32-.03-.62.18-.65.48l-.27 2.77c-.02.3.23.56.55.58h.04c.31 0 .57-.22.59-.51l.26-2.72c.04-.3-.19-.57-.52-.61zm.15 5.63c0-.3-.25-.55-.58-.56-.33-.02-.6.23-.6.53l-.02 1.51.01 1.27c0 .3.27.54.59.54h.01c.33 0 .59-.26.58-.56l-.01-1.25.02-1.48zm.33 7.76l-.24-2.72c-.02-.3-.3-.53-.62-.51-.33.02-.57.28-.56.58l.24 2.77c.03.28.29.49.59.49h.06c.32-.03.56-.3.53-.6zm21.4-42.16c-.23 0-.44-.12-.54-.33-.13-.28 0-.6.3-.72l1.44-.56c.3-.11.65.03.77.3.12.28-.03.6-.33.71l-1.4.54c-.08.03-.16.05-.24.05zm9.48.97c-1.39-1.26-2.34-1.9-2.38-1.92a.62.62 0 0 0-.82.12.52.52 0 0 0 .13.76s.93.63 2.26 1.82a.61.61 0 0 0 .41.15c.15 0 .31-.05.42-.16.23-.22.22-.56-.01-.77zm3.8 4.01l-1.97-2.23c-.22-.23-.59-.25-.83-.05s-.27.54-.05.77l1.91 2.17a.62.62 0 0 0 .47.22.56.56 0 0 0 .35-.11.52.52 0 0 0 .12-.76zm3.11 4.48l-1.59-2.48c-.18-.25-.54-.32-.82-.16-.27.16-.35.5-.17.75l1.54 2.41c.11.18.31.29.52.29a.58.58 0 0 0 .28-.07c.29-.14.39-.47.24-.74zm2.33 4.86l-1.16-2.68c-.13-.28-.48-.4-.78-.27s-.43.45-.3.72l1.13 2.59a.58.58 0 0 0 .56.36c.06 0 .13-.01.2-.03.31-.1.47-.41.36-.7zm1.49 5.14l-.7-2.81c-.09-.29-.41-.46-.73-.38-.31.08-.5.38-.41.67a31.79 31.79 0 0 1 .68 2.72c.05.26.3.45.58.45h.11c.32-.06.53-.34.47-.64zm.39 2.41c-.04-.3-.33-.52-.65-.48-.32.03-.56.3-.52.6l.21 2.68a9.25 9.25 0 0 1 1.19.09v-.02l-.22-2.87z"/><ellipse cx="623.35" cy="177.15" rx="3.95" ry="1.2"/></g><g class="D"><path d="M350.76 201.32s-.05.05-.06.07c0 .01-.02.03-.02.04 0 .11.04.21.06.32h0l.05-.46h0l-.02.02z"/><path d="M350.67 201.44s.01-.03.02-.04c-.01.01-.03.03-.03.04 0 .11.04.22.07.32-.02-.11-.06-.21-.06-.32zm.11-.14h0l-.02.02s.02-.01.02-.02zm.06-.69h0v-.01.01z"/></g><path d="M434.54 511.46v-.08c.05-.32.01-.68.01-1.01l.03-13.08-.06-5.96c-.05-2.5-.55-4.99-.85-7.48l-.12-1.04-.13-1.05-.29-1.91-.12-.68-1.49-6.85a17.9 17.9 0 0 0-.31-1.21l-.34-.99a3.96 3.96 0 0 1-.24-.91 3.05 3.05 0 0 1 .46-2.09c-1-3.82-2.31-7.53-4-11.14l-4.22-9-3.41-5.98c-4.54 3.13-9.3 5.88-14.59 7.79l-4.19 1.6c-2.93 1.1-5.99 1.74-9.09 2.23l-2.98.29-.79.15h-5.64c-.1-.03-.19-.07-.29-.11h-.24 0c-1.19.6-2.44.61-3.67.48-.61-.06-1.22-.15-1.81-.21-1.1-.12-2.2-.3-3.3-.5l-3.76-.7-1.95-.34-5.91-.86-5.18-.72c-.49-.07-.98-.16-1.47-.24-.56-.1-1.11-.19-1.67-.26l-3.56-.41c-.42-.04-.84-.09-1.26-.14l-1.16-.12-2.57-.26c-.98-.1-1.96-.23-2.94-.28-.2-.01-.39-.02-.59-.02-.76 0-1.53-.02-2.3-.02-3.13-.03-6.27-.05-9.4.04-1.76.05-3.52.28-5.28.45l-1.99.15c-.49.02-.99.08-1.49.13-.36.03-.72.05-1.08.05-.64-.01-1.28-.12-1.89-.46-.07-.01-.13-.02-.19-.04l-.65.11-.34.06c-.22.46-.37.97-.68 1.38-.2.26-.38.51-.55.78-.39.65-.65 1.34-.69 2.11 0 .17 0 .34.01.52.02.29.02.59.02.88-.04 1.4-.43 2.76-.81 4.12-.03.11-.06.22-.08.33-.14.57-.24 1.16-.23 1.74 0 .38-.02.76-.03 1.14-.06 1.96-.31 3.9-.69 5.82l-.28 1.36c-.12.51-.15 1.05-.13 1.57.03 1.17 0 2.33-.08 3.49-.07 1.17-.2 2.33-.39 3.49-.07.46-.14.92-.24 1.38-.21 1.03-.29 2.08-.36 3.14l-.07 1.03c-.02.33-.12.57-.29.73s-.42.23-.76.25l-.11 1.02v2.06h-.1v34.69h124.12v-6.17c0-1.25-.12-2.51.49-3.71.04-.08.08-.16.13-.25a1.02 1.02 0 0 0 .11-.29zm-58.16-247.63h0 0 0 0z" class="L"/><path d="M321.94 311.6c.64-1.81 1.91-3 3.86-3.55l4.85-1.41 11.28-3.93c2.2-.82 4.3-1.89 6.47-2.8.49-.21 1.08-.22 1.62-.33 1.07-.76 2.01-1.61 2.14-2.97-.47.29-.91.65-1.43.85l-8.47 3.23-18.54 5.7c-1.2.36-2 1.01-2.59 2.11l-4.16 7.18-.75 1.37.9 2.38c2.46-2.17 3.8-4.93 4.83-7.85z" class="M"/><g class="T"><path d="M470.15 405.92c-.19-1.01-.28-2.05-.6-3.02l-4.32-12.56-6.76-18.47-2.66-6.5-3.98-10.71-5.22-13.69-1.42-3.4-2.7-7.54-1.84-4.52-5.34-12.18-.35-.16v2.2 1.26l-.02 2-.05 2.38-.09 3.55-.28 4.08-.25 2.11c-.52 4.45-1.04 8.91-1.83 13.34-1.11 6.24-2.94 12.31-4.47 18.45l-.98 4.12c-.55 2.51-1 5.03-1.17 7.6l2.95 5.81 3.01 6.39 8.07 16.89c.51 1.06 1 2.13 1.59 3.14.38.65.34 1.17 0 1.81-1.41 2.67-2.83 5.33-4.12 8.05-1.37 2.87-2.56 5.81-3.91 8.69-1.02 2.17-2.22 4.26-3.24 6.42l-4.55 9.95c-.87 1.87-1.83 3.7-2.74 5.55l4.22 9c1.69 3.6 3 7.32 4 11.14l.4.69 2.76-3.03 4.14-4.87c1.22-1.45 2.37-2.95 3.65-4.35 4.89-5.34 9.07-11.16 13.3-16.95 1.4-1.92 2.43-4.09 3.92-5.94 2.57-3.2 4.48-6.74 6.36-10.3 1.18-2.22 2.54-4.38 3.03-6.91.31-1.61.95-3.16 1.47-4.74.06-.2.24-.36.36-.54v-.71l-.34-3.56z"/><path d="M427.1 455.98c1.69 3.6 3.01 7.32 4 11.14-1-3.82-2.32-7.54-4-11.14l-4.22-9 4.22 9z"/></g><g class="C"><path d="M430.65 469.21a3.54 3.54 0 0 0 .25.91c.13.32.24.65.33.99l.31 1.21 1.49 6.86.12.68.3 1.91.13 1.05.12 1.04.85 7.48.06 5.96-.02 13.08c0 .33.04.69-.01 1v.07a.89.89 0 0 1-.11.3c-.05.08-.08.16-.13.25-.61 1.19-.48 2.45-.49 3.71v6.17h1.13l.08-1.23c.87-8.65 1.23-17.32.74-26.01-.07-1.2-.19-2.39-.29-3.59-.04-.11 0-.19.1-.23l-.62-5.17c-.35-2.51-.68-5.03-1.15-7.52-.38-2.01-1-3.98-1.45-5.98-.33-1.44-.57-2.9-.85-4.35l-.4-.69a3.05 3.05 0 0 0-.46 2.09z"/><path d="M433.02 479.17l.12.68-.12-.68-1.49-6.86-.31-1.21.31 1.21 1.49 6.85zm-2.37-9.96c-.1-.72.05-1.41.46-2.09h0a3.05 3.05 0 0 0-.46 2.09zm3.88 22.11l.06 5.96-.06-5.96c-.05-2.5-.56-4.99-.85-7.48l-.12-1.04.12 1.04.85 7.48z"/><path d="M431.11 467.12l.4.69-.4-.69z"/><path d="M431.11 467.11v.01h0v-.01h0z"/></g><path d="M332.01 201.36c.19 2.32.86 4.6 1.21 6.91.43 2.88 1.55 5.56 2.72 8.2l4.13 8.26c.63 1.2 1.42 2.34 2.19 3.48l3.97 5.73c.75 1.01 1.65 1.92 2.53 2.83l5.09 5.17 1.82 2.01c3.48 3.31 7.25 6.31 11.2 9.12 2.84 2.03 5.59 4.17 8.49 6.1 4.1 2.73 8.63 4.75 13.11 6.87 3.66 1.74 7.51 2.93 11.46 3.88 3.98.97 8.07 1.34 12.13.93 5.53-.56 10.56-2.39 14.63-6.14.41-.38 1.04-.55 1.56-.81l-.06.02c.11-.15.22-.29.32-.44l.33-.68c.13-.44.29-.87.38-1.32.42-2.14 1.15-4.26.57-6.48-.04-.08-.09-.16-.11-.24-.01-.04.03-.08.05-.13l-.07.02c-.45-.38-.81-.63-1.59-.56-2.59.23-5.12.65-7.82.33-2.91-.34-5.85-.5-8.7-1.19-5.29-1.28-10.32-3.15-15.09-5.69-3.48-1.86-6.77-3.97-9.94-6.24-.41-.3-.9-.59-1.18-1.01a1.43 1.43 0 0 1-.24-.58c-.02-.11-.02-.23-.02-.35l-2.25-1.44-2.24-1.45c-6.76-4.49-11.95-10.29-16.13-16.95-2.65-4.21-4.7-8.67-6.47-13.25-.38-.99-.29-1.82.39-2.63 1.39-1.66 3.07-2.92 5.3-3.42.99-.22 1.87-.97 2.98-.58.78 3.09 1.97 5.98 3.27 8.84 1.77 3.89 4 7.53 6.78 10.84 1.81 2.15 3.97 4.03 5.97 6.03.09-.02.18-.03.27-.05l.62-.11.4-.07c-1.02-1.18-1.84-2.25-2.8-3.22-2.72-2.72-4.87-5.83-6.73-9.08-1.62-2.84-2.97-5.81-3.81-8.96-.47-1.76-1.09-3.48-1.57-5.24-.42-1.54-.38-1.55 1.3-2.67-.28-.51-.46-1.15-.88-1.59-1.09-1.13-2.25-2.17-3.77-2.87-3.61-1.67-7.23-3.3-11.11-4.36-.42-.11-.83-.28-1.21-.48-2.22-1.16-4.57-1.08-6.97-.73-1.36.2-2.73.32-4.08.52-1.3.2-2.58.37-3.15 1.81-.22.54-.88.97-1.42 1.35-1.3.92-2.64 1.79-4.05 2.73l-1.6-.61c-.1.22-.28.43-.28.65.03 2.99-.07 6 .17 8.97z" fill="#fe9d01"/><path d="M388.65 211.58a78.63 78.63 0 0 0 13.71 12c3.75 2.58 7.81 4.77 12.42 5.69 1.8.36 3.73.14 5.6.19.47.01.95.09 1.42.14l2.66-2.22c1.06-.95 1.49-2.19 1.44-3.51-.04-1.04-.28-2.09-.59-3.09-1.16-3.79-3.59-6.93-6.14-9.98-5.64-6.74-12.3-12.5-19.71-17.5-3.65-2.46-7.35-4.78-12.1-5.27-3.9-.4-7.23.14-9.89 2.98-.06 3.38 1.14 6.45 2.79 9.37 2.28 4.06 5.22 7.69 8.39 11.18z" class="N"/><path d="M337.77 189.61c.54-.38 1.2-.81 1.42-1.35.57-1.44 1.85-1.62 3.15-1.81l4.08-.52c2.4-.35 4.75-.44 6.97.73.38.2.79.37 1.21.48 3.88 1.06 7.5 2.69 11.11 4.36 1.52.71 2.68 1.74 3.77 2.87.42.44.61 1.07.88 1.59-1.68 1.12-1.72 1.13-1.3 2.67.48 1.76 1.1 3.48 1.57 5.24.84 3.15 2.19 6.13 3.81 8.96 1.86 3.26 4.01 6.36 6.73 9.08.96.96 1.79 2.04 2.8 3.22-.15.03-.28.05-.4.07l-.62.11c-.09.02-.18.03-.27.05l1.86 1.75.1.02.02.09.33.24.04.02.29.23.51.4h0l1.11.75h0l1.08.74h.01l.01.02 1.15.67c3.5 1.96 7.17 3.59 10.95 4.99l5.39 1.27c2.3.58 4.62.93 7.01.85.52-.3 1.11-.53 1.55-.9.98-.83 1.85-1.77 2.84-2.59.44-.36 1.06-.53 1.59-.79.23-.39.39-.84.7-1.15.81-.81 1.69-1.56 2.54-2.33-.47-.05-.95-.13-1.42-.14-1.87-.06-3.8.16-5.6-.19-4.62-.92-8.67-3.1-12.42-5.69a78.63 78.63 0 0 1-13.71-12c-3.17-3.5-6.1-7.13-8.39-11.18-1.64-2.92-2.85-5.99-2.79-9.37l-4.1 2.92c-4.23-2.77-8.63-4.88-13.15-6.8-3.65-1.55-7.52-2.48-11.44-3.11-2.9-.47-5.83-.44-8.76.25-3.24.76-5.91 2.2-7.9 4.72v2.74l1.6.61 4.05-2.73z" fill="#fd9c02"/><path d="M341.98 277.94c.41-1.3.63-2.63.68-3.97l.01-.87c0-.55-.04-1.1-.11-1.65a20.37 20.37 0 0 0-.45-2.51c-.84-3.4-1.11-6.77.52-9.99 1.09-2.16 2.44-4.21 3.82-6.22 1.86-2.7 4.05-5.18 6.54-7.42-.12-.2-.21-.43-.37-.6l-11.19-11.61c-.22-.08-.49-.14-.73-.21s-.46-.16-.59-.31c-2.59-2.93-5.08-5.91-6.53-9.56-1.17-2.94-2.6-5.79-3.98-8.66-.2-.42-.7-.86-1.16-.99-.72-.22-1.13.33-1.39.91-1.09 2.37-2.11 4.73-2.16 7.39-.03 1.51-.53 3-.55 4.51-.02 1.61.25 3.23.46 4.84.03.25.46.44.9.85.16-.6.28-.95.35-1.32.4-2.18.75-4.38 1.23-6.55.07-.32.7-.52 1.07-.78l3.12 1.61c1.14 6.04 2.85 11.75 8.73 15.61-.57.91-1.19 1.78-1.68 2.7-1.5 2.82-3.06 5.61-4.38 8.5-.14.31-.26.64-.35.97s-.16.68-.22 1.02l-.09.52-.16.97-.03.18c-.03.14-.05.28-.08.41l-.22 2.53c-.24 2.83.84 5.42 1.67 8.05.92 2.91 1.68 5.85 2.04 8.87.49 1.31.47 2.62 0 3.92l-.86 2.8-1.7 3.7c2.62-.51 4.54-1.8 6.03-3.74.64-1.01 1.15-2.04 1.54-3.09.04-.11.07-.21.11-.32.05-.16.11-.31.16-.47z" class="H"/><g class="N"><path d="M329.84 211.61c.26.62.48 1.24.59 1.88.3 1.71 1.13 3.22 1.82 4.74 2.32 5.14 5.16 10.03 8.93 14.4.11.13.17.31.26.46l11.19 11.61c.16.17.25.4.37.6.4.26.85.47 1.2.78l5.14 4.56c.08.08.16.16.23.25.21.27.37.58.57.86l.59.3 2.61 2.16c.3.24.59.49.9.72l6.93 5.11 4.82 3.53c.01 0 .02.02.04.03a6.78 6.78 0 0 0 .34.23h0c2.14 1.21 4.21 2.53 6.43 3.6 3.1 1.51 6.26 2.94 9.48 4.22 5.48 2.18 11.24 3.17 17.21 2.8 1.72-.11 3.41-.57 5.11-.85.48-.08.98-.09 1.47-.14.57-.35 1.11-.73 1.71-1.03 1.59-.81 3.31-1.44 4.78-2.4 2.4-1.58 4.65-3.37 5.7-6.1-.53.27-1.16.43-1.56.81-4.06 3.75-9.1 5.58-14.63 6.14-4.06.41-8.15.04-12.13-.93-3.95-.96-7.79-2.15-11.46-3.88-4.48-2.12-9.01-4.14-13.11-6.87-2.91-1.93-5.66-4.07-8.49-6.1-3.94-2.82-7.71-5.82-11.2-9.12-.66-.62-1.19-1.36-1.82-2.01l-5.09-5.17c-.88-.91-1.79-1.82-2.53-2.83-1.38-1.87-2.67-3.8-3.97-5.73-.77-1.14-1.55-2.28-2.19-3.48-1.44-2.73-2.89-5.46-4.13-8.26-1.17-2.64-2.28-5.32-2.72-8.2-.35-2.31-1.02-4.59-1.21-6.91-.24-2.98-.14-5.98-.17-8.97 0-.22.18-.43.28-.65v-2.74c-2.14 2.41-3.12 5.25-3.47 8.31-.04.13-.09.26-.13.39l-.04 6.47.2 1.03.38 4.56h0c.24.62.53 1.23.78 1.85z"/><path d="M376.38 263.82h0v.01h0v-.01z"/></g><g class="D"><path d="M336.71 275.14c-.36-3.02-1.12-5.96-2.04-8.87-.83-2.63-1.92-5.22-1.67-8.05l.22-2.53.08-.41.03-.18.16-.97.09-.52.22-1.02c.09-.33.2-.66.35-.97l4.38-8.5c.49-.92 1.11-1.79 1.68-2.7-5.88-3.85-7.59-9.56-8.73-15.61l-3.12-1.61-.89 4.19c-.23 1.16-.55 2.32-.61 3.49-.2 3.5-.28 7-.43 10.5-.01.28-.16.56-.24.84.09.64.26 1.27.24 1.91-.05 1.52-.2 3.03-.31 4.55.11.55.31 1.11.32 1.66l.01 9.98c.24 3.21.58 6.42.7 9.63.11 2.92 1.22 5.49 2.84 7.89 1.37 2.03 3.14 3.66 5.86 4.02l.86-2.8v-3.92z"/><path d="M333.8 252.59c-.09.33-.16.68-.22 1.02l.22-1.02zm-.81 5.63l.22-2.53.08-.41-.08.41-.22 2.53zm.5-4.09l-.16.97.16-.97z"/></g><g class="N"><path d="M414.12 236.46c-.44.38-1.03.61-1.55.9.32 1.44-.7 2.47-1.38 3.53-.66 1.04-1.64 1.91-2.54 2.8-1.57 1.54-3.58 1.18-5.46.89l-8.77-1.63c-1.62-.37-3.15-1.09-4.7-1.7l-4.62-1.89c0 .12 0 .24.02.35a1.43 1.43 0 0 0 .24.58c.29.42.77.72 1.18 1.01 3.17 2.27 6.46 4.38 9.94 6.24 4.76 2.54 9.8 4.41 15.09 5.69 2.85.69 5.79.85 8.7 1.19 2.69.32 5.23-.1 7.82-.33.78-.07 1.14.18 1.59.56-.3-1.46-.46-2.96-.93-4.37-2.14-6.37-5.73-12.02-10.17-17.21-.54.26-1.16.43-1.59.79-.99.82-1.86 1.76-2.84 2.59z"/><path d="m385.09,239.36c0,.12,0,.24.02.35-.02-.11-.02-.23-.02-.35h0Z"/><path d="m385.35,240.29c-.12-.17-.2-.36-.24-.58.04.22.12.41.24.58Z"/></g><g class="D"><path d="M346.05 270.49l.15-.97h1.04 4.15l1.4-.36c1.91-.45 3.36-1.51 4.41-3.01 1.08-1.53 1.73-3.2 2.2-4.93.3-1.1.53-2.23.73-3.37l.24-4.31c0-.1-.01-.19-.02-.29a3.02 3.02 0 0 0-.02-.3l-.21-1.2-.57-.87c-.07-.09-.15-.17-.23-.25l-5.14-4.56c-.35-.31-.8-.52-1.2-.78-2.49 2.24-4.68 4.71-6.54 7.42-1.39 2.01-2.73 4.07-3.82 6.22-1.63 3.22-1.36 6.58-.52 9.99a18.65 18.65 0 0 1 .45 2.51c.06.55.1 1.11.11 1.65l-.01.87c-.05 1.35-.27 2.67-.68 3.97-.05.16-.11.31-.16.47-.04.11-.07.21-.11.32-.39 1.05-.9 2.08-1.54 3.09l6.6-1.02c-.39-1.08-.64-2.16-.81-3.24-.36-2.33-.26-4.68.09-7.06z"/><path d="M342.66 273.97c-.05 1.35-.27 2.67-.68 3.97.41-1.3.63-2.63.68-3.97zm-.09-2.53l.11 1.65c0-.55-.04-1.1-.11-1.65zm-.85 7.29l.11-.32-.11.32z"/></g><g class="C"><path d="M392.29 271.63c-3.22-1.28-6.38-2.71-9.48-4.22-2.21-1.07-4.29-2.39-6.43-3.6v.01c.02.06.03.12.05.19.03.15.07.31.12.44a.48.48 0 0 0 .12.16l1.64 1.32c.84.68 1.69 1.34 2.59 1.94.3.2.59.4.9.58.66.39 1.34.76 2.02 1.12l.74.38c1.77.9 3.6 1.7 5.49 2.41.45.17.9.35 1.35.5 3.96 1.36 7.96 2.41 12.15 2.62.89.05 1.78.07 2.69.03.64-.02 1.28-.03 1.92-.02 1.25 0 2.5.03 3.75-.08 1.82-.15 2.21.05 2.27 1.77.02.64 0 1.29-.01 1.94 0 .57.01 1.14.09 1.7a.17.17 0 0 0 .01.07c.08.23 1.8 5.13 3.38 7.91-.85-1.53-1.37-3.2-1.46-4.87-.19-3.49-.09-7-.11-10.5-.49.04-.98.06-1.47.14-1.71.28-3.39.74-5.11.85-5.96.38-11.72-.62-17.21-2.8z"/><path d="M376.38 263.83h0 0 0 0z"/><path d="M376.39 263.83l-.01-.01h0v.01h.01z"/><path d="M376.38 263.83v-.01.01h0zm-49.52-32.94c.07-1.17.38-2.33.61-3.49l.89-4.19c-.37.26-1 .47-1.07.78l-1.23 6.55c-.07.37-.19.72-.35 1.32-.44-.4-.87-.6-.9-.85-.22-1.61-.49-3.23-.46-4.84.02-1.51.52-3 .55-4.51.05-2.66 1.08-5.02 2.16-7.39.27-.58.67-1.13 1.39-.91.46.14.96.57 1.16.99l3.98 8.66c1.45 3.64 3.94 6.62 6.53 9.56.13.15.35.24.59.31s.5.13.73.21c-.08-.16-.14-.33-.26-.46-3.77-4.37-6.61-9.26-8.93-14.4-.69-1.53-1.52-3.03-1.82-4.74-.11-.64-.34-1.26-.59-1.88-.26-.62-.55-1.23-.78-1.85h0c-4.07 2.96-5.63 7.04-5.96 11.67l.04.72c-.13 2.96.03 5.9.2 8.86.11 1.89.73 3.63 1.01 5.45.3 1.96 1.2 3.84 1.84 5.76.08-.28.23-.55.24-.84l.43-10.5z"/><path d="M329.84 211.61l-.78-1.85h0l.78 1.85zm20.17 87.98l-.35.52.88-.13-2.41 3.53c-2.38 3.28-3.69 6.87-3.89 10.85-.28 5.25 1.02 10.23 2.68 15.16a135.36 135.36 0 0 0 1.55 4.25l.73.23c-.32-1.36-.88-2.67-1.19-4.03-.53-2.34-1.34-4.62-1.97-6.95l-.19-.7c-1.01-4.04-1.46-8.1.17-12.11l.71-1.73a34.51 34.51 0 0 0 .75-2.01c0-.02.01-.04.02-.06.28-.86.63-1.67 1.04-2.45.84-1.59 1.94-3.03 3.3-4.36l.06-.06c.07-.06.13-.13.2-.19 1.12-1.1 2.18-2.32 2.35-4.02.13-1.3.01-2.54-.29-3.74-.33-1.27-.87-2.48-1.59-3.67-.23-.38-.47-.71-.76-.97-.48-.42-1.07-.63-1.91-.48 1.62 2.13 3.23 4.26 3.21 7.05l-.14 1.45-.82 1.66c-.13 1.36-1.07 2.2-2.14 2.97z"/></g><path d="M326.43 250.34c0-.55-.21-1.11-.32-1.66l-1.95 10.81 2.28.83-.01-9.98zM429.8 255s.09-.09.07-.12c-.03-.09-.09-.16-.14-.24-.02.04-.06.09-.05.13.02.08.07.16.11.24z" class="O"/><g class="U"><path d="M419.67 440.28v-.74l.23-7.73.09-2.86.15-4.49.2-3.3.07-1.36.09-.77.09-.66.12-1.45.56-6.25.21-2.94-.03-1.05c-.05-.08-.1-.16-.13-.25 0-.03.08-.07.13-.11l-.02-.71c-.35.18-.92.3-1 .55-.84 2.8-2.29 5.35-4.02 7.7-1.53 2.07-3.57 3.74-6.08 4.87-2.02.9-4.14 1.38-6.3 1.64-1.02.13-2.1-.16-3.16-.26-3.55-.31-6.86-1.35-9.92-3.01-1.11-.6-2.15-1.27-3.14-1.99-2.59-1.78-4.87-3.9-7.08-6.13-.81-.81-1.65-1.56-2.55-2.24-2.16-1.49-4.63-2.48-7.6-2.59-2.92-.12-5.7.21-8.43 1.11l-10.1 3.31c-5.32 1.64-10.58 1.02-15.61-.94-1.33-.52-2.55-1.21-3.67-2.04-1.72-1.17-3.19-2.64-4.39-4.31-1.46-2.04-2.4-4.35-2.32-6.94.06-2.23-.18-4.49 1.14-6.51.32-.48.74-.9 1.12-1.35-.02.35.02.72-.08 1.05 0 .02 0 .04-.01.05 0-.02 0-.03.01-.05.1-.33.06-.7.08-1.05 2.51-4.95 6.15-9.17 9.92-13.3.35-.38.68-.77.99-1.17 0-.02.03-.04.05-.07.14-.19.32-.41.53-.67.07-.09.14-.18.22-.27.12-.16.24-.33.38-.49.06-.07.13-.16.19-.25 3.13-4.3 11.44-18.53 10.76-28.32-.12-.5-.2-1.02-.38-1.5-.46-1.26-.97-2.51-1.46-3.77-.08-.05-.09-.12-.06-.2.07-.85-.04-1.67-.23-2.47h0c.19.8.3 1.62.23 2.47-.32-.56-.73-1.1-.96-1.69a131.86 131.86 0 0 1-2.08-5.64c-1.67-4.93-2.96-9.91-2.69-15.16.21-3.98 1.52-7.57 3.89-10.85.71-.99 1.39-2 2.07-3.01-.26.04-.5.09-.73.19-2.17.91-4.27 1.98-6.47 2.8-3.73 1.39-7.5 2.66-11.28 3.93-1.59.54-3.23.95-4.85 1.41-1.95.55-3.21 1.74-3.86 3.55-1.03 2.92-2.37 5.68-4.83 7.85-.1.09-.2.19-.29.3 4.13 11.68-8.53 32.93-8.53 32.93l.55 18.74c2.27-1.42 4.51-2.9 6.62-4.51 1.55-1.18 3-1.63 4.98-.66.04.07.07.14.1.21.14.06.28.1.43.18.96 1.59.73 3.54.43 5.33-.61 3.76-1.04 7.53-1.45 11.31-.39 3.51-.64 7-.77 10.51-.13 3.68-.75 7.33-1.06 11-.45 5.08-1.35 10.12-1.17 15.24.08 2.37-.19 4.76-.35 7.14-.22 3.26-.31 6.56-.81 9.8-.49 3.18-.19 6.34-.29 9.5-.02.65.03 1.05.21 1.32.29.1.67.17 1.2.22l9.76-1.17 2.23.06 11.71.03 5.74.34 1.47.22 10.56 1.52 13.3 2.11c1.79.28 3.59.47 5.38.7l3.67.33.38.14v.23a.86.86 0 0 1 .16.01l.09.03c.72.01 1.44.04 2.15 0 1.09-.06 2.17-.18 3.25-.27l.79-.15 2.98-.29c3.1-.49 6.16-1.13 9.09-2.23l4.19-1.6c5.38-1.94 10.21-4.75 14.82-7.94l.31.54c.08-.05.15-.1.23-.15 0-.19-.02-.38-.02-.57zm1.24-34.33c0 .12 0 .24.01.36-.05-.08-.11-.16-.14-.25 0-.02.08-.07.12-.11zm.04 1.4l-.22 2.94.22-2.94zm-.77 9.18l-.12 1.46.12-1.46zm-1.05 23.36v-.75.75zm.84-21.25l-.1.77.1-.77zm-.6 12.77l.08-2.86-.08 2.86zm.44-10.64l-.2 3.3.2-3.3z"/><path d="M404.34 448.4l-4.19 1.6c-2.93 1.1-5.99 1.74-9.09 2.23l-2.98.29-.79.15-3.25.27c-.71.04-1.43.01-2.15 0l.29.11h5.64l.79-.15 2.98-.29c3.1-.49 6.16-1.13 9.09-2.23l4.19-1.6c5.29-1.91 10.05-4.66 14.59-7.79l-.31-.54c-4.61 3.19-9.44 6-14.82 7.94zm-53.6-110.65l-.06-.14c-.24-.55-.51-.92-1.18-.94l1.46 3.77c.18.48.26 1 .38 1.5-.1-1.52-.32-2.91-.6-4.18z"/><path d="M343.7 313.96c-.27 5.24 1.02 10.23 2.69 15.16.64 1.9 1.35 3.77 2.08 5.64.23.59.64 1.13.96 1.69.07-.85-.04-1.67-.23-2.47l-.73-.23a135.36 135.36 0 0 1-1.55-4.25c-1.66-4.93-2.95-9.92-2.68-15.16.2-3.97 1.51-7.57 3.89-10.85.84-1.16 1.61-2.35 2.41-3.53-.29.06-.59.09-.88.13l-2.07 3.01c-2.37 3.28-3.69 6.87-3.89 10.85z"/></g><g class="M"><path d="M316.24 448.84l.34-.06.65-.11c-.51-.09-.81-.23-.99-.5-.63-.22-.77-.64-.74-1.71.1-3.17-.2-6.33.29-9.51.5-3.24.59-6.53.81-9.8l.35-7.13c-.17-5.13.73-10.16 1.17-15.24.32-3.67.93-7.33 1.07-11 .13-3.52.38-7.01.77-10.52.41-3.78.84-7.55 1.45-11.31.28-1.73.5-3.58-.32-5.13-1.76-.7-3.12-.25-4.55.84-2.27 1.73-4.68 3.32-7.13 4.84l.02.82 7.28-4.68c.94-.61 1.81-1.3 2.86-2.06l-.46 7.59-.9 10.86c.02.1.06.2.06.3 0 .04-.08.08-.13.12l-.44 7.23-1.15 13.87-1.49 17.35-.91 14.1-.11 1.19-.08 10.17 2.27-.53z"/><path d="M316.01 367.28c-2.12 1.61-4.35 3.09-6.62 4.51l.02.71 7.13-4.84c1.44-1.09 2.79-1.54 4.55-.84-.04-.07-.06-.14-.1-.21-1.98-.97-3.43-.52-4.98.66z"/></g><g class="C"><path d="M378.13 452.59l-5.39-.71-13.29-2.11-10.56-1.53-1.47-.22-5.74-.34-2.4-.24-9.14-.05-2.4.21-9.76 1.16-.54-.07c.61.33 1.24.44 1.88.45a9.76 9.76 0 0 0 1.08-.05l1.49-.13 1.98-.14 5.28-.45 9.4-.04 2.3.02a5.83 5.83 0 0 1 .59.03l2.95.28 2.56.27 1.16.12 1.26.14 3.56.41 1.67.26 1.47.24 5.18.72 5.91.85a66.29 66.29 0 0 1 1.95.34l3.76.7 3.29.5 1.82.21c1.23.12 2.48.12 3.67-.48v-.04l-3.51-.31zm-23.53-2.72l1.47.24 5.18.72-5.18-.72-1.47-.24zm-7.66-.92l1.16.12 1.26.14-1.26-.14-1.16-.12z"/><path d="M372.87 452.72l-3.76-.7 3.76.7zm-52.47-3.61l1.49-.13 1.99-.15-1.98.14-1.49.13zm18.15-.76l2.3.02.59.02-.59-.03c-.77 0-1.53-.01-2.3-.02zm39.43 5.08c1.23.12 2.48.12 3.67-.48h0c-1.19.6-2.44.6-3.67.48z"/><path d="M317.44 448.7l.54.07 9.76-1.16 2.4-.21 9.14.05c.8.01 1.6.15 2.4.24l5.74.34 1.47.22 10.56 1.53 13.29 2.11 5.39.71 3.51.31v-.23l-.38-.14-3.67-.33-5.38-.7-13.3-2.11-10.56-1.52-1.47-.22-5.74-.34c-3.9 0-7.81-.02-11.71-.03l-2.23-.06-9.76 1.17c-.05.08-.09.17-.12.26.04.02.08.03.12.06z"/></g><g fill="#f9461a"><path d="M430.35 321.56c.26.92.53 1.85.61 2.78.4 4.73.53 9.41-.67 14.15-1.05 4.18-3.18 7.68-5.64 11.16-1.41 2-2.62 4.13-3.76 6.28-1.84 3.46-1.81 7.18-1.25 10.87.51 3.34 1.3 6.65 1.91 9.98.26 1.44.38 2.91.56 4.37l.58 4.67.12 1.27.08.81c.07.57.16 1.13.24 1.69.04-.76 0-1.52.13-2.26l1.81-9.33.74-3.75c.17-2.57.62-5.1 1.17-7.6.3-1.38.64-2.75.98-4.12 1.53-6.14 3.36-12.21 4.47-18.46.79-4.43 1.31-8.88 1.83-13.34l.25-2.11c.16-1.35.23-2.72.28-4.08l.09-3.55.05-2.38c.02-.67.02-1.34.02-2.01v-1.26-2.2h0l-.65-.21c-.21-.32-.52-.69-.95-1.15-1.64-1.79-5.87-5.18-8.68-7.37 2.84 7.14 5.53 14.65 5.66 17.11h0zm4.62-6.19v-2.2 2.2z"/><path d="M434.27 330.76l.25-2.11.28-4.08-.28 4.08-.25 2.11zm-8.45 43.52c.17-2.57.62-5.09 1.17-7.6-.56 2.51-1.01 5.03-1.17 7.6zm9.07-53.26l.05-2.38.02-2-.02 2.01-.05 2.38z"/></g><path d="M351.4 269.52h-4.15a7.07 7.07 0 0 0 1.53.36h.03.13c.82.07 1.64-.04 2.46-.37zm8.74-17.76l.21 1.2.25-.6.13-.3-.59-.3z" class="F"/><g class="C"><path d="M385.09 239.36l4.62 1.89c1.55.6 3.08 1.32 4.7 1.7l8.77 1.63c1.89.28 3.9.65 5.46-.89.9-.89 1.88-1.76 2.54-2.8.68-1.06 1.7-2.09 1.38-3.53-2.39.09-4.71-.27-7.01-.85l-5.39-1.27c.23.32.4.84.71.92l7.94 1.87c1.59.33 2.09 1.08 1.11 2.33-.84 1.08-1.89 2.02-2.92 2.95-.76.68-1.72.57-2.76.61-2.7.11-5.03-1.21-7.65-1.38-1.63-.11-3.21-.87-4.8-1.35l-1.95-.65c-.8-.31-1.65-.57-2.34-1.03l-6.04-4.17c-2.98-1.9-5.7-4.03-7.86-6.75-1.94-2.44-4.02-4.79-5.87-7.3-2.82-3.82-5.17-7.88-6.72-12.32-.18-.5-.3-1.02-.52-1.51-.91-2.04-.02-3.52 1.68-4.74.5-.36 1.01-.7 1.55-1 1.14-.63 1.67-.52 2.34.49.3.45.61.93.73 1.43.73 3.15 2.52 5.84 4.05 8.66 1.39 2.57 2.79 5.12 4.62 7.44.4.51.92.93 1.4 1.38l2.9 2.76c.91.89 1.72 1.89 2.74 2.66.51.39 1.37.37 2.08.54h0l-1.86-1.75h0 0c-2-2-4.17-3.89-5.97-6.03-2.78-3.31-5.01-6.95-6.78-10.84-1.3-2.86-2.49-5.74-3.27-8.84-1.11-.39-1.99.36-2.98.58-2.24.5-3.91 1.76-5.3 3.42-.69.82-.77 1.65-.39 2.63 1.77 4.58 3.83 9.04 6.47 13.25 4.18 6.65 9.37 12.45 16.13 16.95l2.24 1.45 2.25 1.44h0z"/><path d="M385.09 239.36l-2.25-1.44 2.25 1.44h0zm-.53-12.27h0l-1.86-1.75h0l1.86 1.75z"/></g><g class="H"><path d="M382.48 226.55c-1.01-.77-1.82-1.77-2.74-2.66l-2.9-2.76c-.47-.45-1-.87-1.4-1.38-1.82-2.32-3.23-4.87-4.62-7.44-1.52-2.82-3.31-5.52-4.05-8.66-.12-.5-.43-.98-.73-1.43-.68-1.02-1.21-1.12-2.34-.49-.54.3-1.06.64-1.55 1-1.69 1.22-2.59 2.7-1.68 4.74.22.49.34 1.01.52 1.51 1.55 4.44 3.9 8.5 6.72 12.32 1.85 2.5 3.93 4.85 5.87 7.3 2.17 2.72 4.88 4.85 7.86 6.75 2.07 1.31 3.99 2.82 6.04 4.17.69.46 1.55.72 2.34 1.03.64.25 1.29.45 1.95.65 1.6.48 3.18 1.24 4.8 1.35 2.62.17 4.95 1.49 7.65 1.38 1.04-.04 2 .07 2.76-.61 1.04-.93 2.09-1.87 2.92-2.95.97-1.26.48-2.01-1.11-2.33-2.66-.55-5.31-1.19-7.94-1.87-.3-.08-.47-.6-.71-.92-3.79-1.4-7.46-3.03-10.95-4.99-.54.01-1.09.04-1.15-.67l-.02-.01c-.55-.01-1.1-.02-1.08-.75-.44.02-.87.04-1.04-.29-.05-.11-.08-.25-.07-.44-.51.06-.78-.15-.81-.64h0l-.04-.02-.33-.24h0l-.02-.09-.1-.02c-.7-.17-1.57-.15-2.08-.54zm2.53.88l-.33-.24h0l.33.24zm3.06 2.15h0zm-2.21-1.5h0 0 0 0z"/><path d="M385.01 227.43l.04.02-.04-.02z"/></g><g class="C"><path d="M388.07 229.58c.05.71.61.68 1.15.67l-1.15-.67h0z"/><path d="M388.07 229.58l1.15.67-1.15-.67h0z"/><path d="M386.97 228.83c-.02.73.53.73 1.08.73l-1.08-.74h0z"/><path d="M386.97 228.82h0v.01-.01z"/><path d="M386.97 228.83h0 0 0z"/><path d="M386.97 228.82v.01h0v-.01z"/><path d="M385.88 228.09h0 0c-.03.19-.01.34.05.44.17.33.61.31 1.04.29l-1.1-.75z"/><path d="M385.88 228.09h0 0 0z"/><path d="M385.86 228.08h0 0l.02.01-.02-.01z"/><path d="M385.88 228.09h0 0 0z"/><path d="M385.88 228.09l-.02-.01s.01 0 .02.01zm1.09.74h0 0 0z"/><path d="M385.86 228.09l-.51-.41-.29-.23c.03.48.3.69.81.64z"/><path d="M385.86 228.08l-.51-.4.51.4h0z"/><path d="M385.86 228.08h0v.01z"/><path d="M385.88 228.09s-.01 0-.02-.01c0 .01.01.01.02.01z"/><path d="M385.88 228.09h0 0 0z"/><path d="m385.88,228.09h0s-.01,0-.02-.01h0s.01,0,.02.01h0Z"/></g><path d="M336.71 275.14v3.92c.47-1.31.49-2.62 0-3.92z" class="F"/><path d="M340.02 371l.38-.49-.38.49z" fill="#2a2920"/><g class="T"><path d="M328.22 387.58a4.85 4.85 0 0 0-.49.63c-1.32 2.02-1.08 4.28-1.14 6.51-.07 2.58.87 4.9 2.32 6.93 1.07 1.49 2.36 2.83 3.85 3.93a15.94 15.94 0 0 0 3.14 1.66c5.03 1.95 10.29 2.57 15.6.94 3.39-1.04 6.74-2.2 10.11-3.31 2.73-.9 5.51-1.22 8.43-1.11 3.23.13 5.86 1.28 8.14 2.98 1.1.76 2.13 1.65 3.09 2.62 2.06 2.07 4.17 4.04 6.54 5.74a30.88 30.88 0 0 0 2.61 1.61c3.06 1.67 6.38 2.71 9.93 3.02 1.05.09 2.13.38 3.16.26 2.17-.26 4.28-.74 6.3-1.64a15.15 15.15 0 0 0 6.09-4.87c1.74-2.35 3.18-4.9 4.02-7.7.07-.25.65-.37 1-.55.16-.6.4-1.2.48-1.81l.85-6.97.24-1.8c.01-.12.03-.25.04-.37l.35-2.43.27-2.22-.24-1.71-.08-.81-.13-1.25-.4 5.95c-.21 3.17-.74 6.24-1.75 9.16-1 2.92-2.47 5.69-4.54 8.26-2.98 3.7-6.84 6.2-11.86 6.83-.43.05-.86.03-1.3 0-.14-.01-.28-.02-.43-.04-.41-.05-.83-.1-1.24-.13l-.1.04-.09-.09h-.27c-.07 0-.14 0-.21-.01-.09 0-.19 0-.27-.03-.85-.19-1.68-.43-2.49-.71-2.38-.79-4.57-1.91-6.63-3.28-.62-.41-1.24-.84-1.83-1.3-1.99-1.53-3.8-3.26-5.8-4.78-5.05-3.85-10.79-5.99-17.38-5.69-.44.02-.88.06-1.32.1-1.56.15-3.12.4-4.64.71l-1.72.37-11.29 2.49c-1.58.36-3.11.53-4.59.5h-.13c-3.22-.1-6.21-1.16-8.89-3.3-2.59-2.06-4.56-4.38-5.39-7.1-.57-1.86-.6-3.9.09-6.19z"/><path d="M328.91 401.66c-1.46-2.03-2.4-4.35-2.32-6.93.06-2.23-.17-4.49 1.14-6.51.14-.22.32-.43.49-.63 0-.02 0-.04.01-.05.1-.33.05-.7.08-1.05-.38.45-.8.87-1.12 1.35-1.32 2.02-1.08 4.28-1.14 6.51-.07 2.58.87 4.9 2.32 6.94 1.2 1.67 2.67 3.14 4.39 4.31-1.49-1.1-2.79-2.43-3.85-3.93zm49.27 5.09c.9.67 1.75 1.42 2.55 2.24 2.21 2.23 4.49 4.35 7.08 6.13-2.37-1.7-4.48-3.67-6.54-5.74-.96-.97-1.99-1.86-3.09-2.62zm44.96-17.13l-.24-1.69-.08-.81.08.81.24 1.7zm-2.22 16.32s-.13.08-.12.11c.03.09.09.17.14.25l-.01-.36z"/></g><path d="M401.06 415.92l.1-.04a1.33 1.33 0 0 1-.19-.05l.09.09z" class="H"/><g fill="#2a2920"><path d="M339.27 371.94l.53-.67-.53.67zm78.35-82.67c-1.4 1.69-1.66 3.71-1.99 5.72-.12.75-.38 1.48-.63 2.21-.47 1.38-1.45 1.81-2.98 1.41l-2.38-.52c-.77-.4-1.53-.5-2.3 0-2.14 1.01-2.29 1.44-1.27 3.46l.71 1.61c.46 1.15 1.31 1.96 2.43 2.55l2.23 1.2c1.22.7 2.57.99 3.97 1.16l-2.55 3.19-4.77 5.54-4 4.83c-6.05 6.55-12.35 12.85-19.6 18.29-5.57 4.18-11.38 8.02-17.59 11.31l-3.43 28.23-25.02-5.53c-3.66 4.02-7.16 8.13-9.61 12.95-.2.24-.42.48-.63.72-.69 2.29-.66 4.33-.09 6.19.83 2.72 2.8 5.04 5.39 7.1 2.68 2.13 5.67 3.2 8.89 3.3h.13c1.49.03 3.02-.14 4.59-.5l11.29-2.49 1.72-.36c1.53-.31 3.08-.57 4.64-.71.44-.04.88-.08 1.32-.1 6.6-.3 12.33 1.84 17.38 5.69 1.99 1.52 3.81 3.26 5.79 4.78.6.46 1.21.89 1.83 1.3 2.05 1.37 4.25 2.49 6.63 3.28.81.27 1.64.51 2.49.7a1.24 1.24 0 0 0 .27.03c.07 0 .14.01.21.01h.27a1.33 1.33 0 0 0 .19.05c.41.03.82.08 1.24.13.14.02.28.03.43.04.44.04.87.06 1.3 0 5.02-.63 8.88-3.13 11.87-6.83 2.07-2.57 3.54-5.34 4.54-8.26s1.54-5.99 1.75-9.16l.4-5.97v.02l-.58-4.69c-.18-1.46-.3-2.92-.56-4.37-.61-3.33-1.39-6.63-1.91-9.98-.56-3.7-.58-7.41 1.25-10.87 1.13-2.15 2.35-4.29 3.76-6.28 2.46-3.48 4.59-6.98 5.64-11.16 1.2-4.74 1.07-9.42.67-14.15-.08-.94-.35-1.85-.61-2.77h0s-.02-.07-.02-.1l-7.45-1.33-.88-17.78 2.69 2.07c-2.77-6.95-5.69-13.55-6.54-14.79-.17-.25-.34-.54-.52-.84l.06.12c-.02.12 0 .26-.08.34zm-65.06-1.35c.71 1.19 1.26 2.41 1.59 3.67a10.55 10.55 0 0 1 .3 3.74c-.17 1.69-1.23 2.92-2.35 4.01l-.19.19-.06.06c-1.37 1.33-2.47 2.77-3.3 4.36a14.74 14.74 0 0 0-1.03 2.45c0 .02-.01.04-.02.06l-.75 2.01-.71 1.72c-1.63 4.02-1.18 8.08-.17 12.12l.19.7c.63 2.32 1.44 4.61 1.97 6.95.31 1.36.86 2.67 1.19 4.03l19.04 6.11-1.12 9.2c.19-.09.38-.19.6-.3 5.68-3.03 10.83-6.76 15.97-10.51 4.32-3.15 8.38-6.57 12.08-10.33 3.39-3.44 6.8-6.86 9.95-10.52 2.02-2.35 3.29-5.13 5.42-7.39.68-.73.43-1.46-.5-2.08-.77-.5-1.56-.98-2.34-1.46-3.05-1.87-3.8-4.67-3.58-7.83.08-1.13 1.36-2.09 2.82-2.16 1.32-.06 2.65 0 3.97-.02 1.54-.02 2.19-.45 2.58-1.8.33-1.13.57-2.28.86-3.41.09-.34.14-.74.36-1 1.27-1.5.39-3.01.08-4.52l-.48-2.39c-.05-.29.07-.64-.06-.87-.34-.59-.51-1.2-.61-1.82v-.07c-.08-.56-.1-1.13-.09-1.7 0-.65.03-1.3.01-1.94-.06-1.72-.45-1.92-2.26-1.77-1.24.1-2.49.08-3.75.07l-1.92.02c-.91.04-1.8.01-2.69-.03-4.18-.21-8.18-1.26-12.14-2.62-.46-.16-.91-.34-1.36-.51a55.99 55.99 0 0 1-5.49-2.41l-.74-.38c-.68-.36-1.36-.73-2.02-1.12-.31-.18-.6-.38-.9-.58-.9-.6-1.75-1.26-2.59-1.94l-1.64-1.31c-.05-.04-.09-.1-.12-.17-.06-.13-.09-.28-.12-.44a1.21 1.21 0 0 0-.05-.18h0l-.34-.24c-.01 0-.03-.02-.04-.03l-4.82-3.53-6.94-5.11c-.31-.23-.6-.48-.9-.72l-2.61-2.16c-.04.1-.08.2-.13.3l-.25.6c0 .1.01.19.02.29 0 .1.01.19.02.29l-.24 4.31c-.21 1.13-.44 2.26-.74 3.36-.47 1.73-1.12 3.4-2.2 4.93-1.06 1.5-2.51 2.57-4.41 3.01-.47.11-.94.24-1.41.36-.82.33-1.65.43-2.47.37h-.13-.03a6.85 6.85 0 0 1-1.52-.36h-1.04c-.06.32-.1.65-.15.97-.35 2.39-.45 4.74-.09 7.06.17 1.08.42 2.16.81 3.24.66 2.08 1.79 3.93 3.12 5.67.84-.15 1.44.06 1.91.48.29.25.53.59.76.97z"/><path d="M360.73 252.05l2.61 2.16-2.61-2.16zm10.45 7.99l4.82 3.53c.01 0 .03.02.04.03-.01 0-.02-.02-.04-.03l-4.82-3.53zm-10.82-7.08a3.02 3.02 0 0 0 .02.3c0-.1-.01-.19-.02-.29zm-7.55 16.2l-1.4.36h0l1.41-.36c1.91-.45 3.35-1.51 4.41-3.01 1.08-1.53 1.73-3.2 2.2-4.93-.47 1.73-1.12 3.39-2.2 4.93-1.06 1.5-2.51 2.56-4.41 3.01zm-6.76 1.33c-.35 2.39-.45 4.74-.09 7.06-.36-2.33-.26-4.68.09-7.06zm44 1.87a55.99 55.99 0 0 1-5.49-2.41c1.77.9 3.6 1.7 5.49 2.41z"/><path d="M376.38 263.83c.02.06.04.12.05.18a1.21 1.21 0 0 0-.05-.18h0zm37.86 17c-.08-.56-.1-1.13-.09-1.7 0 .57.01 1.14.09 1.7zm-37.69-16.38c.03.07.07.12.12.17l1.64 1.31-1.64-1.32a.48.48 0 0 1-.12-.16zm4.35 3.42l.9.58 2.02 1.12-2.02-1.12-.9-.58zm33.96 14.86c.13.23 0 .58.06.87l.48 2.39c.31 1.51 1.19 3.02-.08 4.52-.22.26-.27.65-.36 1l-.86 3.41c-.39 1.35-1.04 1.78-2.58 1.8-1.32.02-2.65-.04-3.97.02-1.46.07-2.74 1.03-2.82 2.16-.22 3.16.53 5.96 3.58 7.83l2.34 1.46c.94.62 1.19 1.35.5 2.08-2.12 2.26-3.4 5.04-5.42 7.39-3.15 3.66-6.56 7.08-9.95 10.52-3.7 3.76-7.76 7.18-12.08 10.33-5.14 3.75-10.29 7.48-15.97 10.51-.22.12-.41.21-.6.3l-.23 1.91c6.21-3.29 12.02-7.12 17.59-11.31 7.24-5.44 13.55-11.74 19.6-18.29 1.42-1.54 2.65-3.24 4-4.83l4.77-5.54c.88-1.04 1.7-2.12 2.55-3.19-1.39-.18-2.74-.46-3.97-1.16-.73-.42-1.49-.8-2.23-1.2-1.12-.59-1.97-1.41-2.43-2.55-.22-.54-.44-1.08-.71-1.61-1.02-2.01-.87-2.45 1.27-3.46.77-.5 1.54-.4 2.3 0 .79.17 1.6.32 2.38.52 1.53.4 2.51-.03 2.98-1.41.25-.73.51-1.46.63-2.21.33-2.01.59-4.04 1.99-5.72.07-.08.05-.23.08-.34l-.06-.12c-1.58-2.78-3.3-7.68-3.38-7.91.1.62.27 1.23.61 1.82zm-8.63-7.21c-.91.04-1.8.01-2.69-.03l2.69.03 1.92-.02-1.92.02zm-57.69 28.44c-.41.78-.76 1.59-1.04 2.45 0 .02-.01.04-.02.06 0-.02.01-.04.02-.06a16.65 16.65 0 0 1 1.03-2.45zm5.61-12.37c-.33-1.27-.87-2.48-1.59-3.67-.23-.38-.47-.71-.76-.97.29.26.53.59.76.97.71 1.19 1.26 2.41 1.59 3.67zm-8.12 18.61l.71-1.72-.71 1.73c-1.63 4.02-1.18 8.08-.17 12.11l.19.7-.19-.7c-1.01-4.04-1.46-8.1.17-12.12zm6.07-10.86c-.07.06-.13.13-.2.19l-.06.06.06-.06c.07-.06.13-.13.19-.19zm11.4 52.29l-7.89-6.02-4.27-3.67c.68 9.78-7.63 24.02-10.76 28.32-.06.09-.13.18-.19.25-.13.19-.27.35-.38.49l-.22.27-.53.67c-.02.02-.04.04-.05.07-.32.4-.65.8-.99 1.17-3.77 4.13-7.41 8.35-9.92 13.3-.02.35.02.72-.08 1.05 0 .02 0 .03-.01.05l.63-.72c2.44-4.81 5.94-8.92 9.61-12.95l25.02 5.53 3.43-28.23-1.24.66c-.91.47-1.44.31-2.15-.24z"/><path d="M349.44 336.46c-.03.08-.02.15.06.2.66.02.93.39 1.18.94 1.13 2.52 3.28 4.3 5.44 5.99l7.34 5.19c1.54 1.08 2.21 1.21 3.67.52l1.12-9.2-19.04-6.11c.19.8.3 1.62.23 2.47z"/><path d="M363.46 348.78l-7.34-5.19c-2.16-1.69-4.31-3.46-5.44-5.99-.25-.55-.52-.92-1.18-.94.67.02.94.39 1.18.94.02.04.04.1.06.14.28 1.27.5 2.67.6 4.18l4.27 3.67 7.89 6.02c.71.55 1.25.71 2.15.24l1.24-.66.23-1.91c-1.46.69-2.13.56-3.67-.52zm59.42-28.63l7.45 1.33s.02.06.02.08h0c-.13-2.47-2.82-9.98-5.66-17.12l-2.69-2.07.88 17.78zm-74.08-50.27h-.03.03zm.14.01c.82.07 1.64-.04 2.47-.37h0a5.42 5.42 0 0 1-2.46.37zm11.42-16.93l.25-.6-.25.6zm-26.85 147.91c2.68 2.13 5.67 3.2 8.89 3.3-3.22-.1-6.21-1.17-8.89-3.3-2.59-2.06-4.56-4.38-5.39-7.1.83 2.72 2.8 5.04 5.39 7.1zm9.03 3.31zm22.24-4.06c-1.56.14-3.12.4-4.64.71l-1.72.36 1.72-.37 4.64-.71zm35.72 15.69l.21.01c-.07 0-.14 0-.21-.01zm-9.39-4.02c2.05 1.37 4.25 2.49 6.63 3.28-2.38-.79-4.57-1.91-6.63-3.28zm31.57-25.94v-.02l-.4 5.97c-.21 3.17-.74 6.24-1.75 9.16 1-2.92 1.54-5.99 1.75-9.16l.4-5.95zm-20.28 30.16l.43.04-.43-.04z"/></g><g class="P"><path d="M422.51 312.7l-6.19-1.59-3.72-.95-2.53 3.32-4.73 5.77-3.96 5.04c-6 6.82-12.25 13.4-19.43 19.06-5.89 4.64-12.04 8.89-18.66 12.46-.91.48-1.43.33-2.14-.25l-7.82-6.27c-1.47-1.21-2.83-2.55-4.23-3.83l-1.89-1.17c-.02 0-.02-.02-.04-.02-5.73-5.75-30.05-26.62-35.43-28.6l-4.87-3.78c-.04 0-.07.02-.11.03-1.44-1.64-2.67-3.41-5.18-6.02-4.19-4.35-11.37-4.27-19.36-4.11-6.06.12-10.3-.93-11.99-1.44-.05-.15-.12-.29-.17-.44-2.71-2-4.55-4.7-6.32-7.46h0l-1.21.11-2.85.28c-3.38.42-6.78.54-10.17.81-1.7.13-3.39.2-5.09.24-3.25.07-6.49.02-9.74 0-1.52 0-3.03-.01-4.55.01-2.16 2.47-4.58 4.64-7.71 5.86l-12.83 4.77c-3.97 1.36-8.02 2.46-11.99 3.79l9.49 30.23-12.38 14.97-.62 11.66-.36.17-.41 2.1-1.27 6.61-1.83 37.54c-.12.32-.23.64-.34.95l-.37 3.61-.63 8.96-.87 11.45c-.15 2.2-.2 4.4-.3 6.59l-.4 8.06-.04 4.74v.76c.09.11.19.21.28.31l12.45-1.84 2.64-.23 9.98.02 2.63.21 4.42.45 2.3.2c.65.06 1.3.12 1.94.22l4.1.68 6.44 1.08 10.71 1.71 2.72.44 3.1.47 3.66.29h0 0v.03l.02.07 3.08-.05 2.2-.04 3.6-.32 2.19-.5 3.36-.78c.78-.19 1.56-.39 2.34-.62 2.18-.64 4.3-1.5 6.41-2.35 1.57-.63 3.1-1.34 4.58-2.12 3.17-1.65 6.16-3.61 8.96-5.86l.23-5.07.21-8.82a10.82 10.82 0 0 1 .09-.82l.16-2.14c-.02-.07-.05-.14-.07-.22 0-.02-.02-.04-.02-.06 0-.03.07-.08.11-.12l.14-2.54v-.09l.03-.35.2-2.18c-.02-.05-.04-.1-.05-.16-.01-.03-.03-.06-.03-.09 0-.02.07-.06.1-.09l.26-4.44c-.03-.07-.06-.15-.08-.22 0-.01-.01-.02-.01-.04 0-.03.07-.07.11-.1h0c.02-.25.02-.51.04-.77 0-.07 0-.14.01-.21l.03-.46-.03.46.03-.46.56-4.78.11-1.05-.12 1.04.12-1.04.09-.83.22-2.54c-.02-.11-.06-.22-.07-.33 0-.02.02-.04.04-.06.02-.03.05-.05.08-.08-.02-3.2.83-6.31 1.1-9.48-.02-.11-.06-.22-.07-.32 0-.01.01-.03.03-.04.02-.02.04-.05.06-.07 0 0 .02-.01.02-.02l.06-.69c-.02-.08-.05-.15-.06-.22v-.04c0-.02.03-.04.06-.06.02-.01.03-.02.05-.03l.84-5.87c0-.39.02-.78.02-1.17h0c.55-1.68 1.3-4.66 2.18-9.92 1.89-11.22 2.26-24.37 2.31-26.98.02-1 .48-1.62 1.1-2l23.55 13.69h0c.21.19.39.35.6.48l9.96 5.7c1.04.61 1.99 1.36 2.98 2.05l8.51 4.01 13.56 6.37h2.87c7.72-2.12 14.53-5.93 20.86-10.66 8.13-6.07 15.2-13.22 21.52-21.06 3.85-4.79 7.56-9.72 11.08-14.75 3.25-4.66 6.16-9.55 9.22-14.33.23-.36.5-.7.75-1.05.18-.37.34-.74.54-1.11l3.6-6.7-2.88-.97a34.09 34.09 0 0 0-.95-.28l-4.93-1.28zm-216.66 19.23h.02l.03.03-.05-.04zm1.16 1.16l-.05-.03s.03 0 .05.02v.02zm84.89 101.18l.08-.82-.08.82z"/><path d="M197.62 308.3l-.15.05c-1.25.42-2.44 1.14-3.5 1.93l.9 40.63-.14 2.58 12.38-14.97-9.49-30.23z"/></g><path d="M301.97 474.13l-1.23-4.03-1.05-2.6-1.5-3.44c-.96-2.4-2.42-4.5-3.88-6.59l-1.98-2.94c-.26-.41-.59-.79-.94-1.18l-.84-.93-.83.53c-.75.46-1.4.86-1.96 1.35-1.19 1.05-2.55 1.71-4.01 2.23l-.55.19-3.55 1.17-2.26.78-2.07.72-3.97 1.19-5.62 1.19c-1.89.29-3.84.47-5.78.53h-2.32l-2.69-.16-9.07-1-2.7-.58-2.2-.49-7.46-1.13-10.79-1.8c-.18-.03-.37-.03-.55-.04h-.19l-9.84-.36c-.14 0-.28 0-.41-.02l-5.76-.32c-1.72.05-3.44.26-5.16.42l-2.8.19c-2.01.06-3.97.36-5.94.7l-.7.12c-.13.02-.25.06-.37.09-1.35.32-2.11.91-2.43 2.01-.12.4-.18.86-.2 1.39-.02.66-.1 1.35-.3 1.98-.68 2.11-.74 4.32-1.03 6.49l-.16 1.08a36.7 36.7 0 0 1-.2 1.02l-.19.94c-.13.72-.34 1.44-.34 2.16-.03 3.79-.47 7.54-1.15 11.26-.11.59-.41.92-.96 1.01-.05 0-.09.03-.14.03h0c-.05.27-.11.54-.17.81.03.21.06.44.1.65v1.29l1.72 42.92h122.13v-36.13h-.09l-.15-2.33-.33-1.33c-.8-.07-.95-.61-1.08-1.27l-1.83-8.94c-.32-1.5-.69-2.98-1.07-4.46l-.35-1.37-.8-2.99zm4.51-272.22c.07-1.9-.47-3.65-1.11-5.32-1.49-3.93-3.82-7.42-7.04-10.21-2.95-2.56-6.24-4.83-10.09-5.66-2.47-.53-5.12-1-7.75-.41-.96.21-2.04-.01-2.95.29-4.13 1.33-8.23 2.71-11.32 6.03-1.42 1.52-3.12 2.78-4.68 4.18-.25.23-.44.58-.55.91-.61 1.73-1.27 3.44-1.74 5.21-.39 1.46-.46 3.01-.81 4.48-.97 4.05.61 7.82 1.25 11.69.12.71.13 1.44.2 2.16l1.6 3.14-.32.18-2.77-4.13c-4.05-6.41-5-13.25-3-20.51.18-.65.3-1.31.46-1.96-.09-.45-.19-.81-.32-1.08-.02-.05-.06-.09-.08-.13-.04-.08-.09-.16-.14-.22 0 0-.02-.01-.02-.02-.16-.19-.35-.31-.6-.4-.39-.13-.9-.14-1.61-.12-3.58.12-7.03.95-10.39 1.96-4.76 1.43-9.39 3.22-13.23 6.51-1.22 1.04-2.66 1.86-3.73 3.02-1.58 1.71-3 3.58-4.33 5.49-2.36 3.4-3.22 7.36-4.11 11.29-.19.82-.01 1.71-.07 2.57-.06.91-.22 1.81-.29 2.72-.05.61-.16 1.26 0 1.82.56 1.85.25 3.62-.2 5.42-.17.68-.19 1.4-.31 2.41.75-.16 1.22-.18 1.62-.37.44-.21.79-.59 1.2-.86 2.19-1.43 5.15-1.03 6.87.89 2.01 2.25 2.89 4.93 3.11 7.87.09 1.27.41 2.55.33 3.82-.14 2.49-.35 4.99-.78 7.44-.21 1.21-.85 2.4-1.5 3.48-1.21 2.01-1.53 4.07-.4 6.11 1.69 3.05 3.66 5.95 5.36 8.99 1.28 2.28 3.12 3.75 5.41 5.02 2.81 1.56 5.54 3.24 8.71 3.97 3.53.82 7.09.72 10.72.51 3.28-.2 5.36-1.93 7.58-3.81 1.22-1.03 2.56-1.95 3.93-2.77 2.5-1.49 5.21-2.67 7.56-4.36 2.79-2.01 5.63-4.02 7.69-6.88.89-1.24 2.13-2.23 3.05-3.46 1.28-1.72 2.5-3.5 3.58-5.34 1.73-2.96 3.28-6.05 4.16-9.35 1.4-5.24 2.92-10.49 2.47-16.03-.07-.81-.31-1.77.71-2.29h.14c-.07-.13-.15-.26-.22-.39a7.58 7.58 0 0 0-.25-.35c-.3-1.13.74-1.37 1.33-1.92 3.87-3.4 6.85-7.36 8.02-12.44-.56-.49-.19-.63.29-.73l.16-1.08c-.15-.26-.4-.5-.42-.77-.16-2.07-.43-4.14-.36-6.2z" class="L"/><g class="D"><path d="M236.05 282.14h5.17c-1.03 1.17-2.08 1.75-3.06 2.44-.77.53-1.92.59-2.24 1.7 7.11-.66 14.23-.9 21.36-.79 1.29.02 2.57.16 3.86.25l.25-4.71-1.79.05-2.29.28-.44.09c-.62.08-1.24.21-1.85.27-.21.02-.41.03-.62.03-1.5-.02-2.99-.17-4.49-.26-5.63-.39-10.52-2.54-14.93-5.94-3.2-2.48-5.65-5.5-7.42-9.09-1.31-2.65-2.69-5.26-4.04-7.87 2.72-2.53 3.89-5.61 4.2-9.09.07-.78.25-1.55.38-2.32v-4.07c-.45-2.3-.47-4.7-1.54-6.87-.71-1.44-1.44-2.83-3.12-3.46-2.56-.96-4.51.02-5.17 2.32-.55 1.91-.8 3.8-.92 5.73-.17 2.6-.54 5.15-1.1 7.72-.46 2.1-1.25 4.13-1.38 6.34-.08 1.39-.17 2.75 0 4.11.03.28.08.56.14.83.04.17.07.35.12.52l.47 1.11c-.08.05-.16.1-.24.16l-.72-.87c-.52-.79-.93-1.61-1.23-2.46-.49-1.41-.68-2.91-.59-4.47l.23-1.54 1.47-11.83.52-4.31c0-.14.01-.29.02-.43l.72-8.08v-2.92l-.09-.37-.38-.83-.56 1.73c-1.71 4.88-2.68 9.97-3 15.06-.4 6.45-.63 12.96.6 19.41.63 3.31 1.15 6.6 2.61 9.69 1.55 3.29 3.74 6.04 6.63 8.25 3.77 2.88 8.21 3.96 12.83 4.49h0 1.62zm205.71 24.45c-.37-1.65-.9-3.3-1.59-4.85-1.39-3.1-3.62-5.48-6.68-7.15-3.91-2.14-8.22-3.09-12.43-4.36-1.98-.59-4-.84-6-.02-.05.02-.12 0-.19.01-.02.12 0 .27-.08.36-1.39 1.76-1.64 3.86-1.97 5.96-.12.78-.38 1.55-.62 2.3-.47 1.44-1.44 1.89-2.96 1.47-.78-.21-1.57-.37-2.36-.55h-2.28c-2.12 1.05-2.27 1.51-1.26 3.6.26.54.48 1.11.7 1.67.45 1.19 1.29 2.04 2.4 2.66.74.41 1.49.81 2.21 1.25 1.21.73 2.55 1.03 3.93 1.21l3.72.95 6.19 1.59 4.93 1.28.95.28c.97.3 1.92.66 2.88.97l.72.25c.12.05.23.11.35.16.76-.14 1.52-.42 2.27-.41 4.05.07 8.1-4.36 7.14-8.65z"/><path d="M422.51 312.7l4.93 1.28.95.28-.95-.28-4.93-1.28zm-9.91-2.54l3.72.95-3.72-.95z"/></g><g class="C"><path d="M215.7 224.33l.09.37a3 3 0 0 1 0 2.92l-.72 8.08c.03.1.08.2.09.3 0 .04-.07.08-.11.13l-.52 4.31-1.47 11.83-.23 1.54c-.09 1.56.09 3.05.59 4.47.3.85.7 1.67 1.23 2.46l.49-.4c-.05-.17-.08-.35-.12-.52l-.14-.83c-.17-1.36-.08-2.72 0-4.11.13-2.21.92-4.24 1.38-6.34.56-2.57.93-5.11 1.1-7.72.13-1.93.37-3.83.92-5.73.66-2.3 2.61-3.28 5.17-2.32 1.68.63 2.41 2.02 3.12 3.46 1.07 2.17 1.09 4.56 1.54 6.87.26.68.39 1.36.39 2.03a5.86 5.86 0 0 1-.09 1.02c-.03.17-.07.34-.12.51s-.1.34-.16.51h0l-.38 2.32c-.3 3.48-1.48 6.56-4.2 9.09l4.04 7.87c1.77 3.59 4.22 6.61 7.42 9.09 4.4 3.41 9.29 5.56 14.93 5.94l6.95-.03.44-.09 2.29-.28 1.79-.05c1.17-.94 2.5-1.75 3.48-2.85 1.95-2.2 4.5-3.46 6.98-4.87 2.38-1.36 4.79-2.72 6.95-4.38 2.19-1.68 4.2-3.63 6.1-5.63 1.8-1.89 3.5-3.9 5.02-6.01 2.54-3.53 4.32-7.48 5.82-11.53 1.57-4.22 2.08-8.68 2.43-13.12.18-2.26-.24-4.57-.39-6.85-1.02.53-.77 1.49-.71 2.29.46 5.54-1.07 10.79-2.47 16.03-.88 3.3-2.43 6.39-4.16 9.35-1.08 1.85-2.29 3.62-3.58 5.34-.91 1.23-2.16 2.22-3.05 3.46-2.06 2.86-4.9 4.87-7.69 6.88-2.34 1.69-5.06 2.87-7.56 4.36-1.37.82-2.71 1.74-3.93 2.77-2.22 1.88-4.3 3.61-7.58 3.81-3.63.22-7.19.32-10.72-.51-3.16-.74-5.9-2.41-8.71-3.97-2.28-1.27-4.13-2.74-5.41-5.02-1.7-3.04-3.67-5.94-5.36-8.99-1.13-2.04-.8-4.1.4-6.11.65-1.08 1.29-2.27 1.5-3.48.43-2.45.64-4.95.78-7.44.07-1.26-.24-2.54-.33-3.82-.22-2.94-1.1-5.61-3.11-7.87-1.71-1.92-4.68-2.32-6.87-.89-.41.27-.76.65-1.2.86-.4.19-.87.21-1.62.37.12-1.01.14-1.73.31-2.41.45-1.8.76-3.57.2-5.42-.17-.56-.05-1.22 0-1.82.07-.91.23-1.81.29-2.72.06-.86-.12-1.75.07-2.57.89-3.93 1.75-7.89 4.11-11.29 1.33-1.91 2.75-3.78 4.33-5.49 1.07-1.16 2.51-1.98 3.73-3.02 3.84-3.29 8.48-5.08 13.23-6.51 3.37-1.01 6.81-1.84 10.39-1.96.71-.02 1.22 0 1.61.12a1.25 1.25 0 0 1 .6.4s.02.01.02.02c.05.06.09.14.14.22.03.05.06.08.08.13.13.27.23.63.32 1.08l1.11-2.28c-.07-.44-.28-.63-.55-.7s-.59-.03-.89-.03l-6.11-.02c-2.13-.23-4.18.42-6.17.91-3.82.94-7.57 2.19-10.95 4.27-1.54.95-3.08 1.92-4.49 3.04-1.36 1.08-2.46 2.48-3.82 3.55-1.97 1.55-3.21 3.64-4.46 5.68-1.14 1.86-1.93 3.97-2.61 6.05-.67 2.06-1.02 4.22-1.51 6.34.09.33.26.66.27.99.03 1.52 0 3.04 0 4.56z"/><path d="M255.3 190.51s.02.01.02.02c0 0-.02-.01-.02-.02zm.16.24a.79.79 0 0 0 .08.13c-.02-.05-.06-.09-.08-.13zm1.42 90.69l.44-.09-.44.09h0zm-44.05-27.63l.23-1.54-.23 1.54c-.09 1.56.09 3.05.59 4.47-.49-1.41-.68-2.91-.59-4.47zm2.04 5.17c.03.28.08.56.14.83l-.14-.83zm.83-34.65l.09.37-.09-.37h0z"/></g><g class="N"><path d="M244.43 293.87l5.09-.25c3.39-.27 6.79-.38 10.17-.81.95-.12 1.9-.2 2.85-.28l1.21-.11h0c-.02-.36.02-.74-.05-1.09-.45-2.04-.6-4.22-2.55-5.61-1.29-.09-2.57-.23-3.86-.25-7.13-.11-14.26.13-21.36.79l-1.88.25c-1.83 2.18-3.26 4.56-3.9 7.35l4.55-.01h9.74z"/><path d="M262.54 292.54l1.21-.11h0l-1.21.11zm-18.11 1.33h-9.74 9.74z"/></g><g class="C"><path d="M256.92 205.38c.05 2.65.99 5.09 1.61 7.61.03.12.07.24.12.36.15.36.37.69.54 1.05l.7.85-.2-2.16c-.63-3.87-2.21-7.64-1.25-11.69.35-1.48.42-3.02.81-4.48.47-1.76 1.14-3.48 1.74-5.21.12-.33.3-.68.55-.91 1.55-1.4 3.26-2.66 4.68-4.18 3.08-3.31 7.19-4.69 11.32-6.03.92-.3 1.99-.07 2.95-.29 2.63-.59 5.28-.12 7.75.41 3.86.83 7.14 3.1 10.09 5.66 3.22 2.79 5.55 6.27 7.04 10.21.63 1.67 1.18 3.42 1.11 5.32-.08 2.06.2 4.13.36 6.2.02.26.27.51.42.77.09-.15.27-.29.27-.44.11-2.66.59-5.27.1-7.99-.52-2.87-1.16-5.65-2.56-8.23-1.89-3.5-4.45-6.4-7.73-8.74-2.08-1.49-4.26-2.6-6.7-3.43-2.33-.8-4.77-.85-7.1-1.49l-2.59.02-4.67.81c-3.25.59-6.15 2-8.81 3.87-2.27 1.6-4.2 3.58-5.9 5.77l-2.57 5.04c-1.86 3.57-2.18 7.4-2.1 11.33z"/><path d="M259.69 213.08c.12.71.13 1.44.2 2.16l-.2-2.16z"/></g><g fill="#f9461a"><path d="M256.97 189.69l-1.11 2.28h0l-.46 1.96c-2 7.26-1.05 14.1 3 20.51l.78-.04c-.17-.35-.39-.69-.54-1.05-.05-.12-.09-.24-.12-.36-.62-2.52-1.56-4.96-1.61-7.61-.07-3.93.24-7.76 2.1-11.33l2.57-5.04-4.21-.41-.41 1.08h0z"/><path d="M256.97 189.69h0l-1.11 2.28 1.11-2.28zm1.68 23.66c.15.36.37.69.54 1.05h0l-.54-1.05z"/></g><g class="O"><path d="M238.16 284.57c.98-.68 2.03-1.27 3.06-2.44h-6.79l-.39 4.39 1.88-.25c.32-1.11 1.47-1.17 2.24-1.7z"/><path d="M234.43 282.14h0 1.62-1.62z"/></g><g class="H"><path d="M256.42 188.99c.27.07.48.25.55.7l.41-1.08-.44-.11-5.59.02-1.92.43 6.11.02c.3 0 .62-.04.89.03z"/><path d="M256.42 188.99c.27.07.48.25.55.7-.07-.44-.28-.63-.55-.7z"/></g><g class="I"><path d="M297.46 225.04l.25.35.22.39h0c.85-.71.79-1.7.86-2.66-.58.54-1.62.78-1.33 1.92z"/><path d="M297.71 225.39l-.25-.35.25.35.22.39h0l-.22-.39z"/></g><g class="F"><path d="M215.7 224.33v-4.56c0-.33-.18-.66-.27-.99l-.11 4.72.38.83h0z"/><path d="M215.7 224.33h0l-.38-.83.38.83h0z"/></g><path d="M251.35 188.51l5.59-.02c-1.86-.44-3.73-.47-5.59.02zm29.61-9.95l2.59-.02c-.87-.4-1.73-.43-2.59.02z" fill="#fffefe"/><path d="M306.8 210.68l.29-.73c-.48.1-.85.24-.29.73zm-35.3 247.81l-2.34.62-3.36.78-2.19.5h-.06l-3.21.44c-1.88.46-3.75.5-5.62-.03h0l-.02-.07v-.03l-3.67-.29-3.1-.48-2.72-.44-10.71-1.71-6.44-1.08-4.1-.67-1.94-.23-2.3-.2-4.43-.44-2.5.04c-3.41 0-6.82 0-10.24-.01-.84 0-1.67-.02-2.51-.03L187.59 457c-.08.08-.18.13-.3.15l-1.08 5.79c-.21 1.23-.26 2.49-.47 3.72-.19 1.1-.61 2.17-.72 3.27-.32 2.99-.45 6-.8 8.99-.32 2.77-.41 5.54-.32 8.33.05 0 .09-.02.14-.03.55-.09.85-.41.96-1 .68-3.73 1.12-7.47 1.15-11.26 0-.72.21-1.44.34-2.16l.19-.94.2-1.02c.06-.36.12-.72.16-1.08.28-2.17.35-4.38 1.02-6.5.2-.63.28-1.31.3-1.98.02-.54.08-1 .2-1.39.32-1.1 1.07-1.69 2.43-2.01l.37-.09.7-.12c1.96-.35 3.92-.65 5.94-.71.93-.02 1.87-.1 2.8-.19 1.72-.16 3.44-.37 5.16-.43 1.91-.06 3.84.24 5.76.32.14 0 .28.01.41.02l9.84.36h.19c.19 0 .37 0 .55.04l10.79 1.79c2.48.41 5 .66 7.46 1.13a31.87 31.87 0 0 1 2.2.49c.89.24 1.79.43 2.69.59 3.01.53 6.06.7 9.07 1 .89.09 1.78.14 2.69.17.77.02 1.54.01 2.32 0a48.47 48.47 0 0 0 5.79-.53c1.89-.29 3.76-.7 5.62-1.19a60.4 60.4 0 0 0 3.97-1.19l2.07-.72c.75-.27 1.5-.52 2.26-.77l3.55-1.17c.18-.06.37-.12.55-.19 1.45-.52 2.82-1.18 4.01-2.23.56-.49 1.22-.89 1.96-1.35l.84-.53c.29.34.57.64.84.94.36.39.68.77.94 1.18.63 1 1.3 1.97 1.98 2.94 1.46 2.09 2.92 4.19 3.88 6.59.46 1.16.99 2.3 1.5 3.45.38.86.75 1.72 1.05 2.6.46 1.33.85 2.68 1.23 4.03l.8 2.99.35 1.37c.38 1.48.75 2.97 1.07 4.46l1.83 8.94c.13.66.28 1.2 1.07 1.27a11.85 11.85 0 0 1 .07-.59c-.24-.96-.54-1.91-.71-2.88l-1.55-9.18c-.23-1.21-.71-2.37-1.05-3.56-.66-2.32-1.21-4.67-1.98-6.95-.79-2.33-1.78-4.59-2.73-6.86-.74-1.77-1.51-3.53-2.37-5.24l-4.99-9.65h0a.72.72 0 0 1-.32-.08c-2.8 2.26-5.79 4.21-8.96 5.86-1.49.77-3.01 1.49-4.58 2.12-2.11.84-4.23 1.71-6.41 2.35z" class="C"/><g class="T"><path d="M261.49 218.39l-1.6-3.14-.7-.85-.78.04 2.77 4.13.32-.18z"/><path d="M259.89 215.25l1.6 3.14-1.6-3.14z"/><path d="M259.89 215.25h0l-.7-.85h0l.7.85z"/><path d="M259.89 215.25h0 0 0z"/></g><g class="O"><path d="M256.88 281.44l-6.95.03 4.49.26.62-.03 1.85-.27z"/><path d="M256.88 281.44l-1.85.27 1.85-.27h0z"/></g><g class="F"><path d="M228.29 246.65c.05-.17.09-.34.12-.51a5.86 5.86 0 0 0 .09-1.02c0-.68-.13-1.36-.39-2.03v4.07l.16-.51z"/><path d="M228.13 247.16l.16-.51-.16.51h0zm.37-2.04a5.86 5.86 0 0 1-.09 1.02 5.86 5.86 0 0 0 .09-1.02z"/></g><path d="M215.79 224.69v2.92c.51-.97.51-1.95 0-2.92z" class="H"/><path d="M214.65 260.74l.72.87.24-.16-.47-1.11-.49.4zm.51-24.74c-.01-.1-.06-.2-.09-.3l-.02.43c.04-.04.12-.09.11-.13z" class="F"/><g class="D"><path d="M295.09 398.63v.03c.01.07.04.14.06.21a.3.3 0 0 0 .04-.34c-.01 0-.03.02-.05.03-.03.02-.06.04-.06.06z"/><path d="M295.09 398.63v.04-.03c0-.02.03-.04.06-.06-.03.02-.07.04-.06.06z"/></g><path d="M84.14 245.35l.97-.1-.51 3.59a.55.55 0 0 1-.46-.16v-3.33z" class="V"/><path d="M84.14 248.68a.51.51 0 0 0 .46.16l.35 1.72-.8.02v-1.9z" class="I"/><path d="M173.51 495.75l-.48.07-.26-.99v-.64c-.29-1.02-.68-2.03-.84-3.07-.25-1.61-.33-3.24-.49-4.87l-.28-.6-.53-.09c-6.41 2.15-12.95 3.97-19.62 5.35-5.92 1.22-11.91 2.23-17.9 3.16-7.29 1.14-14.64 1.85-22.07 1.92-4.71.04-9.43.31-14.14.24-5.19-.08-10.4-.28-15.57-.71-7.15-.59-14.26-1.5-21.26-2.99l-12.28-2.64c-.98 3.1-1.47 6.26-1.83 9.47-.27 2.39.17 4.91-1.06 7.2-.03.05-.05.12-.05.18.36 2.9-.75 5.67-.9 8.53-.06 1.09-.29 2.17-.42 3.26l-.39 3.81c-.02.24.07.52-.02.73-.93 2.02-.63 4.21-1.11 6.28-.04.18-.12.37-.1.54.42 3.03-.79 5.88-1.27 8.81H175.4" class="L"/><g class="V"><path d="M300.71 319.1l-2.62 4.62-2.94 4.85-.3.42-.04.08c-.84.35-.96 1.1-1.2 1.77l-.04.08-.76 1.04c-.1.09-.14.2-.13.32l-.31.4-.05.09-.15.07.02.13-.3.53-2.09 2.85h0l-.28.38c-.13.07-.19.16-.17.29-.24.18-.56.31-.73.55l-4.62 6.4-4.66 5.62c-3.92 4.86-8.08 9.54-12.68 13.92l-4.27 4.02-.13.12c-.44.38-1.92 1.64-4.03 3.36-6.57 5.38-19.29 15.3-25.87 17.09-9.14 2.49-13-1.24-16.33-2.38-.91-.31-2.07-.97-3.35-1.82l-5.58-2.98c-3.32-1.75-6.72-3.4-9.97-5.25-2.88-1.64-5.59-3.51-8.41-5.24-1.31-.81-2.71-1.51-4.06-2.27-1.74-1.23-3.27-2.72-5.47-3.35-.39-.48-.69-1.06-1.19-1.43l-2.68-1.94-20.42 10.81s-26.34 12.43-27.92 11.81-43.91-25.15-43.91-25.15l-28.99-35.43c.36 0 9.06-4.26 14.68-7.03l4.66-2.31c.03-.02.05-.02.05-.02 2.69-1.2 4.63-3 5.37-5.68.46-1.67.13-2.31-1.79-3.13-.2-.21-.4-.41-.6-.61l4.65-2.2 6.82.35 10.14.36 16.45.05c4.3.06 8.57-.14 12.79-.81 2.56-.4 5.05-1.21 6.15-3.56.49-1.04 1.14-1.28 2.2-1.19l.04.02c.19.11.39.22.59.33 1.25.48 2.53.91 3.76 1.43l10.45 4.49 10.37 4.46c2.72 1.17 5.53 2.2 8.13 3.55 1.69.88 3.16 2.17 4.6 3.38 1.85 1.57 3.58 3.25 5.37 4.88.82.82 1.6 1.67 2.47 2.46l10.06 8.92.91.88c0 .12.08.18.22.16l1.02.98c.04.12.14.2.29.22h-.06c.15.13.3.25.43.37l.59.54c.04.12.14.19.29.22l-.03.06.08-.02c0 .12.07.2.21.24l1.4 1.22 1.26 1.14-.06-.04 1.29 1.16-.05-.03 1.81 1.77.41.39 1.66 1.44 1.29 1.08h0c.13.13.27.25.4.38l1.25 1.11c5.84 5.42 11.87 10.67 18.34 15.68l11.18-6.28c8.04-4.72 15.4-10.17 22.12-16.28 8.21-7.44 15.66-15.45 22.66-23.78l6.95 1.5 8.33 1.94c1.71.42 3.39.96 5.08 1.44z"/><path d="M73.41 314.13l-4.66 2.31-.35-.41 5.01-1.9z"/></g><path d="M68.6 202.01l2.05-1.25.41-.37c.25.09.52.16.75.28 1.26.66 2.02.46 2.55-.71.77-1.7 1.9-2.21 3.96-1.92a3.83 3.83 0 0 0 1.78-.18l8.35-3.27 8.94-2.94c3.69-.98 7.52-1.55 11.21-2.52a265.53 265.53 0 0 0 14.51-4.27c2.78-.9 5.42-2.14 8.08-3.29 3.24-1.4 6.47-2.81 10.02-3.46 1.11-.2 2.57-.39 3.43.06 1.99 1.05 4.03 2.19 5.43 3.92 3.3 4.06 5.63 8.47 6.53 13.48.59 3.29-.23 6.25-1.83 9.16-1.47 2.67-3.85 4.64-6.27 6.55-1.68 1.32-3.61 2.5-6.14 2.02a32.33 32.33 0 0 0-1.42-.24c-1.59-.22-2.94.42-3.61 1.71-.19.06-.5.07-.57.19-1.02 1.8-.54 3.52.47 5.19.06.11.38.09.58.14l.12 1.5c-1.54 1.17-1.97 2.7-1.84 4.41 0 .42.02.63.68.47 2.76-.67 5.55-1.25 8.32-1.87l2.18-.49-.25-2.15 8.57-.45 2.19 8.04c.33 1.21.72 2.41 1.05 3.62.14.53.17 1.08.24 1.62-.03.05-.09.11-.07.15.04.1.1.19.16.29.58 3.45.32 3.93-3.06 5.68l-2.7 1.41-1.46.64-.61-3.18-1.51-7.24c-.33-1.45-.79-2.87-1.21-4.35l-14.2 4.54-.63.29c-.08.12-.16.25-.25.37-1.51 0-1.64.97-1.58 1.9.14 2.19.36 4.37.61 6.55.09.84-.2 1.46-1.05 1.78-.76.28-1.56-.11-1.84-1.06-.45-1.53-.94-3.09-1.02-4.65-.21-3.73-1.69-7.05-4.07-10.03-2.62-3.29-7.34-4.02-11-1.8-1.4.85-2.56 2.05-3.67 3.21-2.47 2.56-2.42 5.64-1.96 8.72.21 1.37.77 2.7 1.06 4.07.68 3.15 2.27 5.62 6.04 6.51 2.26.53 2.98 1.63 3.14 3.78a42.84 42.84 0 0 0 .27 2.54c.32 2.42.74 4.83.94 7.26.15 1.89 0 3.8.04 5.7.02 1.33-.42 2.53-1.24 3.63-2.71 3.64-7.12 4.75-11.46 5.64-2.85.58-5.91.46-8.87.43-2.84-.03-5.61-.49-7.97-2.13-1.41-.98-2.91-1.86-4.43-2.71-3.53-1.98-5.96-4.84-8.24-7.83-.57-.75-1.16-1.56-1.93-2.13-1.49-1.08-2.47-2.46-3.35-3.92-1.58-2.64-3.23-5.25-4.68-7.94-1.63-3.02-3.19-6.07-4.57-9.18-1.87-4.2-3.22-8.55-3.72-13.05-.36-3.25-1.15-6.47-.46-9.81.6-2.93 1.59-5.65 3.31-8.2 1.34-1.99 3.29-3.45 5.09-5.06l2.54-2.33-.84-1.45z" class="L"/><path d="M134.39 232.92l14.2-4.54 1.21 4.35 1.51 7.24.61 3.18.45 6.69c.02.26.3.51.46.77l-.13 3.48c.12 3.94-.25 7.84-1.24 11.67-1.33 5.17-4.97 8.6-10.56 10.46a46.53 46.53 0 0 1-15.45 2.38c-.74-.01-1.49.19-2.23.29-2.95-.69-5.92-.27-9.38-.37 1.72 1.63 3.45 2.5 5.09 3.42 1.3.73 2.81 1.17 4.23 1.74l.1 1.49.3.27c.18.11.36.23.53.34-.37.22-.77.42-1.12.66-.96.68-1.81 1.53-2.88 2.02-2.07.94-4.35 1.35-6.67 1.51h-12.61c-1.16-.06-2.33-.07-3.48-.19-1.56-.16-3.11-.4-4.67-.61l-1.13-10.92c.77.21 1.54.58 2.32.59 3.09.06 6.19.01 9.28 0l4.59-.33c1.59-.35 3.22-.59 4.76-1.08 2.94-.94 5.67-2.24 7.32-4.73 1.44-2.17 1.79-4.56 1.43-7.04.04-.05.11-.11.1-.16-.03-.11-.1-.21-.16-.32l-.52-3.77-1.3-12.09c-.05-.47-.25-.93-.39-1.39-.97-.41-2.1-.47-4.12-.23-.41-.31-.85-.59-1.21-.93-.74-.72-1.7-1.38-2.09-2.24-.83-1.8-1.52-3.67-1.97-5.57-1.05-4.43.18-8.28 4.34-11.13.93-.63 2.17-1.06 3.33-1.24 2.67-.41 4.51.89 5.84 2.76 2.7 3.76 4.03 7.95 4.69 12.33.23 1.55.52 3.1.82 4.87l4.98-.8.27.12c0-.14.02-.29.03-.43-.09-.78-.24-1.57-.26-2.35l-.11-9.53c.08-.12.16-.25.25-.37l.63-.29zm145.96 81.3l-5.99-2.37c-1.88-.79-3.1-2.15-3.88-3.83l-1.1-2.5c.5-1.47 1.69-2.04 3.33-1.9l3.68.49c2.04.38 2.82.12 3.46-1.65.6-1.68.93-3.44 1.46-5.15 1.08-3.52 3.31-4.19 6.26-3.59 6.13 1.25 12.27 2.58 17.59 5.79 2.87 1.73 4.95 4.08 6.22 6.96.33.74.58 1.51.88 2.26 1.13 2.78.42 5.29-1.36 7.66-.25.34-.4.74-.6 1.11-.45.12-.99.15-1.33.39-1.61 1.11-3.45 1.32-5.4 1.25l-2.86-.05c-1.69-.49-3.37-1.02-5.08-1.45l-8.33-1.93-6.95-1.5z" class="I"/><path d="M113.42 289.99c2.33-.15 4.6-.56 6.67-1.51 1.07-.49 1.92-1.35 2.88-2.02.35-.25.74-.44 1.12-.66l2.27.79c4.97 1.26 8.22 5.26 8.04 9.22-.05.97.47 1.44 1.24 1.89-1.06-.08-1.72.16-2.2 1.19-1.1 2.34-3.59 3.16-6.14 3.56-4.22.66-8.49.86-12.79.8-5.48-.08-10.96.02-16.45-.04-3.38-.04-6.77-.23-10.15-.37l-6.82-.35c1.28-5.44 4.6-9.6 9.97-12.48.53-.29 1.08-.55 1.61-.83l4.67.61c1.15.12 2.32.13 3.48.19.39.08.78.22 1.17.22l9.86.03c.53 0 1.05-.16 1.58-.25z" fill="#2e43bc"/><path d="M137.32 214.78c.67-1.28 2.02-1.93 3.61-1.71l1.42.24c2.53.48 4.47-.7 6.14-2.02 2.42-1.9 4.81-3.88 6.27-6.55 1.6-2.91 2.42-5.87 1.83-9.16-.89-5.01-3.22-9.42-6.53-13.48-1.41-1.73-3.44-2.87-5.43-3.92-.86-.45-2.31-.26-3.43-.06-3.55.64-6.79 2.05-10.02 3.46-2.66 1.16-5.31 2.39-8.08 3.29a265.53 265.53 0 0 1-14.51 4.27c-3.69.98-7.52 1.55-11.21 2.52-3.04.8-6 1.87-8.94 2.94-2.81 1.02-5.55 2.21-8.35 3.27a3.83 3.83 0 0 1-1.78.18c-2.06-.29-3.18.22-3.96 1.92-.53 1.16-1.28 1.37-2.55.71-.23-.12-.5-.19-.75-.28 2.66-1.65 5.48-3.05 8.39-4.34 5.69-2.52 11.64-4.41 17.69-6.05 2.53-.68 5.13-1.16 7.68-1.77l6.78-1.72c6.47-1.49 12.54-3.85 18.54-6.4 1.95-.83 3.88-1.72 5.88-2.46 1.36-.5 2.81-.8 4.22-1.19h3.78c6 1.5 8.96 5.54 11.34 10.24 1.03 2.04 1.55 4.16 2.14 6.27.37 1.33.5 2.71.74 4.06l.17.82c0 2.43-.48 4.72-1.63 6.99-2.28 4.48-6.22 7.41-10.82 9.82-.63.33-1.28.61-1.92.92-.31-.12-.68-.17-.9-.36-1.25-1.03-2.64-1.06-4.15-.59-.37.11-.78.13-1.18.19-.15 0-.29-.01-.44-.02l-.03-.02z" class="C"/><path d="M137.78 214.83c.39-.06.8-.07 1.18-.19 1.51-.47 2.9-.44 4.15.59.23.19.6.24.9.36l2.99 6.58.25 2.15-2.18.49-8.32 1.87c-.66.16-.68-.05-.68-.47.94-.28 1.45-.92 1.6-1.72.17-.88.17-1.79.24-2.69l-.12-1.5-.14-3.27.13-2.2z" class="D"/><path d="M123.15 283.69c-1.42-.57-2.93-1-4.23-1.74-1.64-.92-3.36-1.79-5.09-3.42 3.46.1 6.43-.32 9.38.37l-.07 4.78zm29.68-33.06c-.16-.26-.44-.51-.46-.77l-.45-6.69 1.46-.64 1.37 3.64.31.87c.73 2.31.4 2.83-2.23 3.59z" class="O"/><path d="M123.55 285.46l-.3-.27.3.27z" fill="#fffefe"/><path d="M136.26 298.04l-.59-.33.59.33z" fill="#2e43bc"/><path d="M47.81 489.89l-2.07-.25c-1.3-.44-1.53-1.27-1.36-2.42.2-1.3.17-2.63.25-3.94l.02-.09.13-1.96c.84-.58.01-1.24.08-1.87l.8-9.3.4-6.22c.17-3.73.48-7.46.36-11.19-.06-1.9.57-3.66.71-5.51.1-1.37.26-2.66-.29-3.95.02-.07.04-.13.07-.2.17-.21.41-.39.5-.63.16-.44.23-.9.34-1.35.19-.57.37-1.14.58-1.69 1.26-3.29 1.38-6.71 1.51-10.12.07-1.78-.26-3.61.11-5.33.84-3.93.85-7.89 1.14-11.84l.44-6.77c.01-.18.06-.36.12-.54.62-1.84.76-3.72.7-5.63-.05-1.78-.06-3.56 0-5.34.05-1.23-.32-2.29-1.23-3.21l-.12-.06v-.12c.31-3.21.69-6.42.89-9.64.23-3.59.29-7.19.45-10.79l.43-8.77v-.18c.55-3.32.87-6.65.82-10.01 0-.43.02-.86.06-1.28l.76-7.81.59-4.96c.48.48.68.63.8.82 1.43 2.37 2.74 4.81 4.29 7.11 2.88 4.3 5.8 8.57 8.88 12.76 4.71 6.4 9.96 12.45 16.01 17.92 2.95 2.67 5.92 5.33 9.07 7.8 3.56 2.8 7.28 5.44 11.42 7.56l2.87 1.42 6.58 3.05a66.97 66.97 0 0 0 10.99 3.7c.88.21 1.99.3 2.79.02 2.61-.93 5.21-1.92 7.66-3.13a415.24 415.24 0 0 0 14.82-7.7c4.11-2.24 8.18-4.57 12.11-7.05 2.34-1.48 4.37-3.34 6.54-5.03l.75-.07.08 9.59-.9 1.54c-.57 1.09-.55 2.18-.02 3.28l.93 4.75c0 .11 0 .22.05.32l.11 1.64-.08.13.09.12.21.38-.17.85c-.08.29-.21.58-.22.87v12.01c0 .34.18.69.27 1.03l.03 18.85c-.48 1.1-.51 2.19.03 3.28l.03 14.76c-.12.7-.35 1.41-.35 2.11l-.03 33.92c-6.41 2.15-12.95 3.97-19.62 5.35-5.92 1.22-11.91 2.23-17.9 3.16-7.29 1.14-14.64 1.85-22.07 1.92-4.71.04-9.43.31-14.14.24-5.19-.08-10.4-.28-15.57-.71-7.15-.59-14.26-1.5-21.26-2.99l-12.28-2.64z" fill="#365bcb"/><path d="M169.83 376.2l-6.55 5.03c-3.93 2.49-7.99 4.82-12.11 7.06-4.87 2.66-9.82 5.22-14.81 7.7-2.45 1.21-5.05 2.2-7.67 3.13-.8.28-1.91.19-2.79-.02-3.79-.91-7.46-2.16-10.99-3.69-2.22-.97-4.39-2.03-6.58-3.06-.96-.45-1.92-.93-2.87-1.42-4.15-2.12-7.87-4.76-11.43-7.56-3.14-2.48-6.11-5.14-9.07-7.8-6.05-5.47-11.31-11.52-16.01-17.92-3.08-4.19-6-8.46-8.88-12.76-1.55-2.31-2.86-4.75-4.29-7.11-.11-.19-.32-.34-.8-.82l-.58 4.96-.76 7.8c-.04.43-.07.86-.06 1.28.05 3.36-.26 6.69-.82 10.01v.18l-.43 8.76-.45 10.79c-.2 3.22-.58 6.42-.89 9.63l-.61.58-.57 1.04v.02c-1.08.08-1.51.8-1.88 1.53l-3.54 7.21-5.44 10.85c-1.19 2.32-2.45 4.61-3.69 6.91-.61 1.12-.52 2.2-.04 3.36.56 1.36 1.55 2.5 2 3.94.56 1.78 1.75 3.43 2.79 5.07.48.75 1.23 1.37 1.87 2.04.09.08.11.18.07.29.08.78-.05 1.62.26 2.31.79 1.72 1.76 3.38 2.7 5.05.12.2.5.29.78.43-.05.91.24 1.67 1.15 2.19.56 1.29.39 2.58.3 3.95-.14 1.85-.76 3.61-.7 5.51.11 3.73-.2 7.46-.36 11.19-.1 2.07-.23 4.14-.4 6.21-.23 3.1-.44 6.21-.8 9.3-.07.63.76 1.29-.08 1.87l-7.25-8.18-8.15-9.45c-.27-.65-.64-1.28-.78-1.94-.19-.93-.81-1.14-1.71-1.08l-.34-.39-.03-.07c.02-.85-.43-1.43-1.31-1.74-.38-.95-.63-1.97-1.18-2.85-1.29-2.07-2.73-4.06-4.1-6.09-2.31-3.41-4.74-6.76-6.88-10.25-1.71-2.77-3.13-5.7-4.55-8.6-.75-1.5-1.12-3.14-1.88-4.62-.65-1.27-.93-2.53-.96-3.89-.07-2.58.3-5.08 1.22-7.56 1.16-3.1 2.04-6.29 3.13-9.42.66-1.9 1.5-3.76 2.23-5.64l3.46-9.01 4.54-11.75a88.18 88.18 0 0 1 1.55-3.78c.68-1.53 1.42-3.04 2.11-4.57.45-1.01.86-2.05 1.28-3.08l3.13-7.65c.66-1.54 1.5-3.03 2.17-4.56l4.98-11.8c.65-1.65.95-3.4 1.41-5.12l1.3-2.86c1.39-2.9 2.71-5.84 4.21-8.69.77-1.47 1.73-2.87 2.64-4.29.66-1.3 1.62-3.06 2.41-3.76 1.32-1.14 27.31-13.17 27.31-13.17l5.47-.69s9.48 8.47-2.22 12.61c-8.96 3.17-19.5 10.35-23.95 13.73h0c1.71 2.45 3.15 5.05 5.3 7.25h0c1.02 2.05 2.64 3.76 4.06 5.58.96 1.24 2.02 2.42 3.03 3.63l6.67 8.1c.55.93 1.06 1.87 2.14 2.43a10.11 10.11 0 0 1 .39.48c.13.14.27.28.4.41l-.03-.02 2.1 2.21c.1.22.17.46.35.64l8.39 8.39c1.29 1.24 2.75 2.35 4.13 3.53 2.84 2.93 6.15 5.39 9.63 7.7l.76.49-.04-.02c1.78 1.23 3.46 2.6 5.37 3.66 3.19 1.78 6.51 3.37 9.79 5.04l.05.02c.12.08.24.15.36.22v.17c.16.89.91 1 1.73 1.04h0c.12.25.2.61.43.71 1.09.51 2.24.94 3.37 1.41 4.39 1.81 8.64 1.91 12.71-.73.66-.43 1.42-.75 2.12-1.13l14.86-7.98c3.11-1.7 6.18-3.44 9.19-5.28 2.2-1.34 4.66-2.41 6.19-4.5.43-.6 1.1-.68 1.62-.29l.69 2z" fill="#2540d8"/><path d="M118.65 391.98h0 .02z" fill="#3146b6"/><path d="M133.59 245.77l-4.98.8-.82-4.87c-.66-4.38-2-8.56-4.69-12.33-1.34-1.86-3.17-3.17-5.84-2.76-1.16.18-2.41.6-3.33 1.24-4.16 2.84-5.38 6.7-4.34 11.13.45 1.9 1.14 3.78 1.97 5.57.4.86 1.35 1.52 2.09 2.24.36.35.8.62 1.21.93l4.12.23c.13.46.34.92.39 1.39l1.3 12.09c.14 1.26.34 2.51.52 3.77-.03.05-.08.11-.07.16.03.11.09.21.13.32.36 2.48.01 4.87-1.43 7.04-1.65 2.49-4.39 3.79-7.32 4.73-1.53.49-3.17.73-4.76 1.08l-4.59.33h-9.28c-.78-.02-1.55-.39-2.32-.59-2.16-.59-3.99-1.75-5.82-2.84-3.39-2.02-6.07-4.72-8.64-7.47a88.55 88.55 0 0 1-6.56-7.85c-1.53-2.06-2.73-4.31-3.98-6.52-1.35-2.39-2.69-4.8-3.84-7.28-1.09-2.34-1.78-4.82-2.9-7.14-.95-1.97-1.22-4.05-1.86-6.07-1.32-4.12-1.72-8.33-1.45-12.58.35-5.47 2.65-10.21 6.91-14.22 1.63-1.54 3.22-3.09 5.21-4.29l.84 1.45-2.54 2.33c-1.8 1.61-3.75 3.07-5.09 5.06-1.72 2.55-2.71 5.27-3.31 8.2-.69 3.34.1 6.56.46 9.81.5 4.5 1.85 8.85 3.72 13.05 1.38 3.11 2.94 6.17 4.57 9.18 1.45 2.69 3.1 5.31 4.68 7.94.88 1.46 1.86 2.83 3.35 3.92.78.57 1.36 1.37 1.93 2.13 2.28 3 4.71 5.86 8.24 7.83 1.52.85 3.02 1.73 4.43 2.71 2.36 1.64 5.13 2.1 7.97 2.13 2.96.03 6.03.16 8.87-.43 4.34-.89 8.75-2 11.46-5.64.82-1.1 1.26-2.29 1.24-3.63-.03-1.9.12-3.81-.04-5.7-.2-2.43-.62-4.84-.94-7.26a43.75 43.75 0 0 1-.27-2.54c-.16-2.15-.89-3.25-3.14-3.78-3.77-.89-5.36-3.35-6.04-6.51-.29-1.37-.85-2.7-1.06-4.07-.46-3.08-.51-6.16 1.96-8.72 1.12-1.16 2.27-2.37 3.67-3.21 3.66-2.22 8.38-1.49 11 1.8 2.38 2.98 3.85 6.3 4.07 10.03.09 1.56.57 3.12 1.02 4.65.28.95 1.09 1.35 1.84 1.06.86-.32 1.15-.94 1.05-1.78-.25-2.18-.47-4.37-.61-6.55-.06-.94.07-1.91 1.58-1.9l.11 9.53c.02.79.17 1.57.26 2.35-.1.1-.2.21-.3.31z" class="C"/><path d="M36.88 338.15c-.46 1.71-.76 3.46-1.41 5.11-1.57 3.96-3.28 7.88-4.98 11.8-.67 1.54-1.51 3.02-2.17 4.56-1.09 2.53-2.09 5.1-3.13 7.65l-1.28 3.08-2.11 4.57c-.55 1.25-1.06 2.51-1.55 3.77l-4.54 11.76-3.47 9.01c-.73 1.88-1.57 3.74-2.24 5.64-1.09 3.13-1.97 6.32-3.13 9.43-.93 2.48-1.29 4.97-1.23 7.56.03 1.36.31 2.62.97 3.88.77 1.48 1.14 3.13 1.88 4.62 1.43 2.9 2.85 5.83 4.55 8.61 2.14 3.49 4.57 6.84 6.88 10.25 1.37 2.03 2.81 4.02 4.1 6.09.55.88.8 1.9 1.18 2.86-1.73-2.12-3.59-4.17-5.15-6.39-3.35-4.77-6.64-9.58-9.76-14.48-1.72-2.7-3.32-5.52-4.45-8.45-.76-1.95-1.75-3.94-1.65-6.11l-.27-1.33.4-2.78c.54-2.01 1-4.04 1.65-6.02a380.48 380.48 0 0 1 3.87-11.21c.85-2.34 1.9-4.62 2.81-6.94l4.69-11.96c1.07-2.66 2.23-5.3 3.35-7.95l4.87-11.61 2.86-6.61 3.12-7.63c.96-2.18 2.03-4.33 3.09-6.47.71-1.45 1.48-2.87 2.23-4.31z" class="J"/><path d="M77.03 305.3l-2.27.09 1.67-.69.6.61z" class="F"/><path d="M71.06 200.39l-.41.37.41-.37z" class="C"/><g class="J"><path d="M26.88 460.6c.91-.06 1.52.15 1.71 1.07.14.67.51 1.3.78 1.95l-2.49-3.02zm-1.68-2.22c.89.32 1.34.89 1.33 1.75l-1.33-1.75z"/><path d="M26.55 460.2l.35.4-.35-.4z"/></g><path d="M44.64 483.2l-.02.09-.06-.06.08-.03z" class="I"/><path d="M48.54 320.49v.02-.02zm17.89 27h.01 0-.01zm6.67 8.1h.01v.01l-.01-.01zm2.94 3.32h-.03.02zm2.07 2.2h.01v.01l-.01-.01zm12.88 12.56h.02zm10.4 8.19l-.05-.02c.02 0 .05.02.05.02z" fill="#fd9c02"/><path d="M137.66 217.02l.14 3.27c-.2-.04-.52-.03-.58-.14-1-1.67-1.48-3.39-.47-5.19.07-.12.37-.13.57-.19l.03.02.31 2.22zm.26 4.77l-.24 2.69c-.15.8-.66 1.45-1.6 1.72-.13-1.71.3-3.24 1.84-4.41z" class="C"/><path d="M134.39 232.92l-.63.29.63-.29z" class="D"/><path d="M113.42 289.99c-.53.09-1.05.24-1.58.25a810.18 810.18 0 0 1-9.86-.03c-.39 0-.78-.14-1.17-.22h12.61zm5.55-42.03l-4.12-.23c2.02-.25 3.15-.18 4.12.23zm-15.83 30.91l4.59-.33-4.59.33z" class="F"/><path d="M133.59 245.77l.3-.31c0 .14-.02.29-.03.43l-.27-.12z" class="D"/><path d="M121.24 265.68c-.05-.11-.11-.21-.13-.32-.01-.05.04-.11.07-.16.06.11.13.21.16.32.01.04-.06.1-.1.16zm16.42-48.66l-.31-2.22.44.02-.13 2.2z" class="F"/><path d="M170.82 370.99l-.01 2.7-.22 2.44-.75.07-.69-2.01c-.52-.38-1.19-.31-1.63.29-1.52 2.09-3.99 3.16-6.19 4.5-3 1.84-6.08 3.58-9.19 5.28l-14.86 7.98c-.71.38-1.46.71-2.12 1.14-4.07 2.64-8.32 2.54-12.71.73-1.13-.47-2.27-.9-3.37-1.41-.23-.11-.3-.48-.44-.73.54.04 1.12-.02 1.62.13 2.29.69 4.61 1.34 6.81 2.23.88.36 1.44.16 2.07-.15l14.5-7.34c5.81-3.12 11.53-6.37 17.22-9.65 2.82-1.63 5.49-3.46 8.24-5.19.56-.35 1.16-.66 1.73-.99z" class="J"/><path d="M48.56 428.49l.59-9.71.66-9.34 1.11-14.66.19-4.22c.92.92 1.28 1.98 1.23 3.21v5.34c.06 1.91-.08 3.79-.7 5.63a2.01 2.01 0 0 0-.12.54l-.44 6.77c-.29 3.95-.31 7.92-1.14 11.84-.37 1.72-.05 3.55-.11 5.33-.13 3.42-.25 6.84-1.51 10.12-.21.56-.39 1.13-.58 1.69l.52-7.76.31-4.79z" class="V"/><g class="J"><path d="M45.68 441.01l1.21 2c-.02.07-.04.13-.07.2-.9-.52-1.2-1.29-1.14-2.2zm4.13-48.98l-1.77 3.88-4.72 8.78c-2.21 4.38-4.18 8.87-6.53 13.19-.93 1.71-1.06 2.98-.04 4.71 1.85 3.12 3.31 6.43 4.93 9.66.11.21.12.47.18.7-.63-.68-1.39-1.29-1.86-2.04-1.04-1.64-2.23-3.29-2.79-5.07-.45-1.45-1.43-2.59-2-3.94-.48-1.16-.56-2.24.04-3.36l3.69-6.91 5.44-10.85 3.54-7.21c.37-.73.8-1.45 1.88-1.53z"/><path d="M41.94 433.24l3.7 7.07c.11.21.04.48.05.73-.27-.14-.67-.23-.79-.44l-2.7-5.05c-.31-.69-.19-1.53-.26-2.31zm8.44-42.28l-.57 1.04.57-1.04z"/></g><g class="P"><path d="M91.01 373.67v.01l-.01-.01h.01z"/><path d="M91.01 373.67v.01l-.01-.01h.01zm-24.57-26.18h0 0z"/></g><path d="M116.9 390.95l1.75 1.04c-.81-.04-1.58-.15-1.75-1.04zm-69.96-70.22l.51.5-1.48.02.96-.52z" class="J"/><path d="M100.63 381.37l.77.49-.77-.49zm15.92 9.18l.37.22-.37-.22zm-40.9-32.04l.4.41-.4-.41zm-26.67-38.26l-.44.27.44-.27z" class="P"/><path d="M48.56 428.49l-.31 4.79.31-4.79z" fill="#365bcb"/><path d="M200.54 342.01c-1.77.78-13.75 14.45-15.62 18.09s-3.32 5.79-3.99 5.45-2.04-2.02-2.04-2.02 5.17-9.57 8.41-13.83 10.76-11.11 11.99-10.96 3.21 1.4 3.21 1.4l1.13 1.78s-1.19-.74-3.08.09z" fill="#1131ef"/><path d="m237.4,289.4s-.09.03-.14.03h0c.05,0,.09-.02.14-.03Z" class="C"/><g class="P"><path d="M52.3 324.93s-.08.05-.13.07l-.29.19v-.03h-.02l-1.51.22.38.36 1.11-.18h.02c.1-.03.19-.1.29-.17.04-.02.08-.05.12-.08l15.53-3.74-15.49 3.35z"/><path d="M204.77 341.35l-1.66.95s-2.18-4.04-4.68-2.17c-2.49 1.87-10.7 12.31-13.1 16.43-.55.94-1.17 1.81-1.85 2.61v.42s-1.93 4.23-5.3 7.04a9.92 9.92 0 0 1-1.08.79c0 .02.02.02.03.04l-5.51 3.97c-.85.62-1.66 1.29-2.49 1.94-.55.31-1.13.6-1.66.94-2.64 1.65-5.2 3.4-7.91 4.95l-16.51 9.22c-4.57 2.44-9.25 4.7-13.9 7.01-.6.3-1.14.49-1.98.15-2.11-.84-4.34-1.46-6.54-2.13-.47-.14-1.03-.08-1.55-.12l.02.02-1.67-.99v-.16c-.11-.08-.23-.14-.35-.22l-.05-.02c-3.14-1.59-6.33-3.11-9.39-4.81-1.83-1.01-3.44-2.31-5.14-3.49-.21-.15-.45-.29-.68-.44-3.33-2.19-6.49-4.53-9.22-7.34h0c-1.35-1.12-2.76-2.17-3.98-3.36-2.74-2.63-5.38-5.32-8.05-8.01-.16-.17-.23-.41-.33-.61h0l-2.01-2.11h.02l-.37-.38c-.13-.15-.25-.31-.38-.46-1.04-.54-1.53-1.44-2.06-2.33l-6.39-7.73h0c-.96-1.16-1.97-2.28-2.9-3.46-1.37-1.74-2.92-3.37-3.89-5.33h0c-2.06-2.1-3.44-4.58-5.08-6.91-2.18-3.09-4.23-6.24-6.34-9.37l-.11-.11 1.11-.18h.02c.1-.03.19-.1.29-.17.04-.02.08-.05.12-.08l15.53-3.74 3.12-.67c7.91 9.15 16.17 18.05 25.61 26.01 1.77 1.5 3.68 2.88 5.58 4.26 2.74 2 5.44 4.06 8.32 5.88 3.08 1.92 6.35 3.6 9.56 5.36 1.05.58 2.16 1.09 3.25 1.6 1.06.5 1.98.29 2.9-.4l23.39-17.69c.35-.26.71-.51 1.1-.76h0c1.21-.96 18.9-14.55 26.31-20.24l2.53-1.94a6.86 6.86 0 0 1 .52-.39c.05-.04.11-.08.16-.13h.04c.08-.07.18-.14.27-.2 1.18-1.61 2.81-3.39 5.07-5.21 3.54-2.71 6.29-8.35 15-8.75s4.23 33.06 4.23 33.06z"/></g><path d="M80.4 312.97c-.69 2.8-2.52 4.69-5.06 5.94-1.54.76-3.18 1.34-4.77 2.01l-2.78.66-15.53 3.74c-.04.02-.08.05-.12.08-.09.07-.19.13-.29.19 0-.02-.02-.02-.02-.02l-1.11.18-.38.06-.91.54c-.08 0-.15-.02-.22-.03-.54-.12-1.1-.39-1.64-.36-1.37.08-2.55-.37-3.69-1.03-3.09-1.78-4.77-5.7-3.76-9.04 1.09-3.56 2.53-6.96 5.48-9.52 2.24-1.95 4.96-3.09 7.71-4.02 3.5-1.18 7.1-2.09 10.68-3.02 2.35-.61 4.35.38 5.14 2.65.69 1.98 1.12 4.06 1.58 6.1.49 2.2 1.15 2.66 3.38 2.2.83-.18 1.65-.32 2.48-.48l2.14-.08c1.81.85 2.13 1.51 1.69 3.25zm-25.48 13.97l.28-.19-.27.18c0-.02-.01-.02-.02-.02l.01.03z" class="I"/><path d="M314.93 449.1l.19.04-.11-.05c-.03 0-.06 0-.09.01zm-43.95-90.28a1.56 1.56 0 0 1-.37-.81l-.36.13c.17.33.42.56.73.68z" class="U"/><g class="M"><path d="M308.77 373.34c-2.94 1.8-6.02 3.39-8.98 5.16-1.06.64-2.21 1.34-2.29 2.67.34-.14.67-.33 1.01.1.8-1.52 2.47-2.06 3.83-2.93l7.11-4.58-.02-.82-.64.4zm5.5 75.87l.65-.11-.65.11z"/><path d="M299.78 378.51c2.96-1.78 6.04-3.37 8.98-5.16.22-.13.43-.27.64-.4l-.02-.71-1.16.72c-2.94 1.8-6.02 3.39-8.98 5.17-1.19.71-2.5 1.49-2.29 3.15.18.04.35-.02.53-.09.08-1.34 1.23-2.03 2.29-2.67zm15.23 70.57c.03-.09.07-.17.12-.26-.53-.06-.91-.12-1.2-.22.17.27.48.4.99.5.03 0 .06-.01.09-.02z"/><path d="M315.01 449.08c-.03 0-.06.01-.09.02.03 0 .06 0 .09-.01z"/></g><g class="C"><path d="M315.12 449.14c.61.33 1.25.44 1.89.46-.64-.01-1.27-.12-1.88-.45z"/><path d="M315.01 449.08l.11.05c-.04-.02-.08-.03-.12-.06z"/></g><path d="M205.05 397.92c.16-.35.29-.71.42-1.07l.38-1.08-1.52-11.7-.56-4.9-.3-2.25c-.22-2.72-.84-5.37-2.19-7.78-1.34-2.39-3.51-3.76-6.51-3.77h-.39c-1.07 1.5-1.29 3.16-1.01 4.89.39 2.41.25 2.63-2.31 3.24-.42.1-.86.26-1.28.24-2.47-.11-4.86.21-7.14 1.14l-.31.67-.82 1.48-.02 3.14.85 4.56c.04.07.09.14.12.21 0 .02-.04.07-.07.1l.1 1.57c.08.08.08.16 0 .24l.19.36c.26.64.61 1.26.76 1.92.98 4.1 2.87 7.67 6.64 10.19.6.4 1.11.9 1.67 1.36.93.32 1.89.6 2.8.98 4.14 1.74 8.72.11 10.49-3.77z" class="D"/><g fill="#f87d01"><path d="M294.52 383.5c-1.95.94-3.87 2.03-5.95 2.6-3.53.97-7.16 1.62-10.77 2.34l-13.06 2.46c-1.11.21-2.2.49-3.31.65l-9.46 1.3-6.12.84-4.84.57-8.59.83c-2.38.18-4.77.18-7.14.41-4 .4-7.99.69-12.01.66-2.4-.01-4.79 0-7.18 0-.02-.13-.03-.26-.05-.38h-.49l-.38 1.08c-.13.36-.26.72-.42 1.07-1.77 3.88-6.35 5.51-10.49 3.77-.91-.38-1.86-.66-2.8-.98l-.17 1.38-.16 1.13-.1 1.73.12.71.52-.8 4.17.85c3.59.79 6.8-.05 9.73-2.01.96-.64 1.84-1.41 2.85-1.98.95-.54 1.97-1.13 3.03-1.28 2.1-.29 4.24-.28 6.36-.42l8.59-.66c.19-.01.38-.03.56-.04l8.07-.38c2.55-.19 5.09-.52 7.64-.79l2.23-.25 8.39-.84a309.28 309.28 0 0 0 9.63-1.3c2.9-.44 5.8-.89 8.67-1.47 2.75-.56 5.47-1.24 8.17-1.96 4.77-1.27 9.43-2.8 13.76-5.12 1.39-.74 2.88-1.32 4.33-1.97a.5.5 0 0 1 .24-.03l.41-3.92c-.33-.43-.67-.24-1.01-.1 0 .15-.01.31 0 .48-.99.62-1.93 1.33-2.98 1.84z"/><path d="M296.96 381.28c-.99.62-1.93 1.33-2.98 1.84-1.94.95-3.87 2.03-5.94 2.6-3.53.97-7.17 1.63-10.78 2.34l-13.06 2.46c-1.1.21-2.2.49-3.31.65l-9.46 1.3-6.13.84-4.84.57-8.59.82c-2.37.19-4.77.18-7.13.41-4 .4-7.99.69-12.01.66-2.23-.02-4.46 0-6.69 0 .02.13.03.26.05.38h7.18c4.02.03 8.01-.27 12.01-.66 2.37-.24 4.76-.23 7.14-.41 2.87-.23 5.73-.53 8.59-.83l4.84-.57 6.12-.84 9.46-1.3c1.11-.16 2.2-.44 3.31-.65l13.06-2.46c3.61-.71 7.24-1.37 10.77-2.34 2.08-.57 4-1.66 5.95-2.6 1.05-.52 1.99-1.22 2.98-1.84-.02-.17-.02-.33 0-.48-.18.08-.35.14-.53.09z"/></g><g class="M"><path d="M273.29 358.82c.37.42.93.58 1.53.46 1.46-.27 2.85-.81 4.26-1.25.35-.11.66-.34 1.01-.43 3.11-.89 5.88-2.4 8.45-4.14l-7.8.88-.33.15c-.06.1-.42.26-1 .46l-.41.19c-.55.36-1.07.8-1.67 1.08l-4.67 2.05a1.44 1.44 0 0 0 .64.56z"/><path d="M280.42 354.48l-1.01.46c.58-.2.94-.36 1-.46z"/></g><g class="U"><path d="M307.44 356.04c-1.17-2.03-2.17-3.76-3.98-3.6-1.05.09-8.45.5-14.59.98-2.77 1.9-5.75 3.57-9.13 4.53-.36.1-.68.33-1.04.44-1.45.45-2.88.99-4.37 1.27a1.84 1.84 0 0 1-1.02-.08c-.19-.21-.32-.48-.38-.82-.12.04-.25.09-.37.13a1.87 1.87 0 0 1-.18-.52l.27-.12c-.03-.05-.07-.08-.09-.13l-7.84 2.77c-.51.17-1.1.18-1.64.26-.16.1-.32.21-.46.32-.16.1-.3.2-.45.29l-10.35 3.44-11.32 3.48-12.64 4-6.39 1.96-8.86 2.63-6.97 1.92c-.54.14-1.09.23-1.63.34l.56 4.89 1.47 11.32h6.69c4.02.03 8.02-.26 12.01-.66 2.37-.24 4.76-.23 7.13-.41 2.87-.23 5.73-.53 8.59-.82l4.84-.57 6.13-.84 9.46-1.3c1.11-.16 2.2-.44 3.31-.65l13.06-2.46c3.61-.71 7.24-1.37 10.78-2.34 2.08-.57 4-1.66 5.94-2.6 1.05-.51 1.99-1.22 2.98-1.84.18.04.35-.02.53-.09h0c-.18.08-.35.14-.53.09-.2-1.66 1.1-2.44 2.29-3.15 2.96-1.78 6.04-3.37 8.98-5.17l1.16-.72-.46-15.39c-.41.21-.94.16-1.49-.8z"/><path d="M272.57 358.9l.37-.13a1.69 1.69 0 0 0 .38.82 1.84 1.84 0 0 0 1.02.08c1.49-.28 2.92-.82 4.37-1.27.36-.11.68-.34 1.04-.44 3.38-.96 6.36-2.62 9.13-4.53-.11 0-.22.02-.33.03-2.57 1.74-5.34 3.25-8.45 4.14-.35.1-.66.32-1.01.43-1.41.44-2.81.98-4.26 1.25-.59.11-1.16-.04-1.53-.46a1.38 1.38 0 0 1-.64-.56l-.27.12c.03.2.1.36.18.52z"/></g><path d="M553.5 526.15c2.85-19.64-.37-57.66-.37-57.66l-106.56-1.27c-4.07 21.77-5.78 47.43-5.3 61.19l2.49 42.43h43.08l4.82-36.7s6.14-.45 11.52-.45l3.06 37.15h45.26l2-44.69z" class="S"/><g class="G"><path d="M510.81 282.24c-8.91 3.67-17.82 3.67-26.73 0V256.5h26.73v25.74z"/><path d="M535.56 224.93a32.2 32.2 0 0 1-.6 6.24v.03c-.24 1.34-8.07 44.33-37.32 44.33s-37.08-42.99-37.31-44.33v-.03c-.39-2.03-.6-4.11-.6-6.24 0-19.41 16.98-35.15 37.92-35.15s37.92 15.74 37.92 35.15z"/><path d="M463 229.33s-5.33-7.88-10.17-4.48c-4.83 3.4 1 18.7 5.83 22.41s8.5 1.85 8.5 1.85l-4.17-19.78zm68.75 0s5.33-7.88 10.17-4.48-1 18.7-5.83 22.41-8.5 1.85-8.5 1.85l4.17-19.78z"/></g><g fill="#f4a500"><path d="M538.15 200.71c.15.49 5.22 17.81-2.58 24.22 0 0-.62 20.83-5.55 24.65 0 0-3.27 8.5-10.22 11.92 0 0-3.74 9.64-14.66 9.25 0 0-8.27 4.47-15.22-.66 0 0-10.21-.92-14.04-9.07 0 0-9.35-3.36-9.85-11.56 0 0-6.97-9.33-6.29-24.53 0 0-6.98-12.17-4.99-19.27 1.49-5.34 6.51-11.12 14.09-14.78h0c2.5-1.21 5.29-2.19 8.31-2.84 12.2-2.63 24.78-9.54 37.64-6.24 15.98 4.1 23.36-5.33 23.36-5.33s5.59 18.72 0 24.23z"/><path d="M535.56 224.93s-.62 20.83-5.55 24.65c0 0-3.27 8.5-10.22 11.92 0 0-3.74 9.64-14.66 9.25 0 0-8.27 4.47-15.22-.66 0 0-10.21-.92-14.04-9.07 0 0-9.35-3.36-9.85-11.56 0 0-6.97-9.33-6.29-24.53 0 0-6.98-12.17-4.99-19.27 1.49-5.34 6.51-11.12 14.09-14.78-.34.35-13.82 14.06-7.69 24.53 6.2 10.6 13.58 4.59 18.66 7.9s30.32 6.08 39.33 1.58 15.4-8.75 17.21-12.71c1.8-3.95 1.8-11.49 1.8-11.49.15.5 5.22 17.82-2.58 24.23z"/></g><path d="M561.49 345.31l-.6 12.89c-1.74 31.15-5.57 67.59-7.19 97.43l-.57 12.86c-30.34 8.06-76.8 7.73-106.33 3.9l-.55-12.14-3.5-57.86-.67-4.37-2.46-16.72c-5.39-38.55-9.86-85.8 2.17-90.95 2.52-1.08 5.45-2.08 8.62-2.99.06-.02.11-.03.17-.05 2.35-.68 4.83-1.31 7.37-1.9 25.91-6.01 53.06-6.01 78.97 0l3.6.87 2.29.61 2.44.65c2.93.77 5.68 1.54 7.84 2.81.94.55 1.78 1.34 2.55 2.36 5.69 7.57 6.75 27.55 5.85 52.6z" class="Q"/><path d="M555.64 292.72c-1.33.39-3.11.56-5.46.18l-7.37 6.27c-.89 9.18-7.04 16.85-13.03 23.02-8.85 9.12-10.08 26.89-35.4 24.84s-32.45-17.78-34.65-30.54c-1.73-10.03-6.98-23.76-9.14-29.17 2.35-.68 4.83-1.31 7.37-1.9 25.91-6.01 53.06-6.01 78.97 0l3.6.87c.64 1.42 1.14 2.82 1.51 4.18l3.21-2.93c2.93.77 5.68 1.54 7.84 2.81.94.55 1.78 1.34 2.55 2.36z" fill="#66123f"/><path d="M561.49 345.31l-.83 16.83c-5.91 5.64-16.35 13.61-28.91 16.15-22.25 4.51-76.45 13.39-76.45 13.39s-1.84 6.98-13.21 6.34l-2.46-16.72 98.76-21.07 23.11-14.92z" class="R"/><path d="m678.43,382.22v18.23s-47.48,2.57-91.61-19.82c0,0-8.25-5.63-18.2-14.68-3.98-3.61-8.22-7.77-12.32-12.34-7.17-7.98-13.88-17.19-17.91-26.87l18.95-30.97s5.83,23.24,25.04,42.49c2.07,2.08,4.3,4.11,6.69,6.06,5.17,4.21,11.11,8.05,17.92,11.17,42.06,19.25,71.44,26.73,71.44,26.73Z" class="Q"/><path d="m591,345.85c-3.69,7.78-16.15,17.96-22.38,20.1-3.98-3.61-8.22-7.77-12.32-12.34l24.64-16.83c2.07,2.08,7.67,7.11,10.06,9.06Z" class="R"/><path d="m668.35,386.48s-1.49-9.31,2.54-12.51c4.02-3.21,5.43-1.58,5.53,3.74.09,5.32,12.66-3.57,12.3,7.1-.28,8.42.98,15.97-9.39,21.24-4.88,2.48-10.86-.83-10.89-5.99-.03-5.51-.27-9.22-.09-13.57Z" class="G"/><path d="M459.17 326.74l-.42.98c-1.13 2.6-2.46 5.17-3.93 7.69-14.73 25.18-44.08 45.22-44.08 45.22-44.13 22.39-88.12 19.04-88.12 19.04l3.02-19.04s22.87-5.89 64.93-25.14c12.77-5.85 22.18-14.23 29.05-22.87 1.77-2.22 3.37-4.46 4.82-6.68 10.2-15.61 12.82-30.16 12.82-30.16l21.91 30.97z" class="Q"/><path d="m468.49,327.8c2.39,2.58,3.87,6.47,2.39,8.98-14.57-.53-45.8-3.54-51.26-4.17,1.77-2.22,3.37-4.46,4.82-6.68,11.5,1.44,35.13,1.84,44.04,1.87Z" class="R"/><path d="M325.49 384.32s.53-9.39-3.8-12.23-5.57-1.1-5.12 4.2-12.96-2.44-11.52 8.15c1.14 8.35.65 15.98 11.5 20.33 5.12 2.05 10.73-1.78 10.23-6.92-.53-5.49-.67-9.2-1.3-13.52z" class="G"/><path d="m532.33,312.05c-11.64,7.19-11.82,30.3-33.43,30.99-20.53.65-33.73-16.94-35.31-31.18-.09-.75-.14-1.48-.15-2.21-.38-14.55-15.13-24.48-8.39-29.28,6.75-4.79,27.44-6.51,27.44-6.51,23.7.89,38.74,1.68,46.81,3.92,2.82.78,4.79,1.73,5.98,2.93,4.62,4.62,8.68,24.14-2.95,31.33Z" class="Q"/><path d="M532.33 312.05c-11.64 7.19-11.82 30.3-33.43 30.99-20.53.65-33.73-16.94-35.31-31.18 5.27 17.49 25.39 20.35 35.87 20.51 10.49.15 7.7-11.7 12.13-18.38s-4.1-5.93-14.99-7.75c-10.9-1.82-14.18-3.19-4.51-5.32s16.55 4.41 29.99-.91 7.22-22.21 7.22-22.21h0c2.82.78 4.79 1.73 5.98 2.93 4.62 4.62 8.68 24.14-2.95 31.33zm21.37 143.58l-.57 12.86c-30.34 8.06-76.8 7.73-106.33 3.9l-.55-12.14c17.4 1.43 64.55 4.07 107.44-4.62z" class="R"/><path d="m565.5,297.96s-15.81,37.67-52.14,50.2c-40.93,14.12-69.62,21.69-69.62,21.69l3.69,16.31s35.48-4.05,84.1-16.02c0,0,36.6-15.2,55.86-40.76l-21.9-31.42Z" fill="#ffc400"/><path d="M447.32 371.17s-.81-9.38-5.51-11.66-5.68-.41-4.48 4.79-13.2-.83-10.26 9.49c2.32 8.14 2.92 15.76 14.3 18.74 5.36 1.4 10.38-3.08 9.15-8.11-1.31-5.38-1.97-9.04-3.21-13.24z" class="G"/></svg>