<svg xmlns="http://www.w3.org/2000/svg" xmlns:xlink="http://www.w3.org/1999/xlink" width="192" height="192" viewBox="0 0 144 144" xmlns:v="https://vecta.io/nano"><g fill="#eada23"><use xlink:href="#B"/><use xlink:href="#B" x="-40.792" y="42.999"/><use xlink:href="#B" x="41.829" y="42.999"/></g><path d="M128.406 70.774c-4.546-4.514-10.144-6.892-16.195-6.892a22.5 22.5 0 0 0-2.087.097l-1.003.097c-.113.016-.226.032-.34.065-7.75 1.116-11.875 6.051-14.367 10.274-5.08-6.601-11.002-10.176-17.166-10.419-.227-.016-.453-.049-.663-.049-1.084 0-2.216.049-3.446.178-.954.032-1.844.081-2.686.162-1.068.113-1.99.404-2.799.679-.663.21-1.246.388-1.666.388a1.3 1.3 0 0 1-.599-.146c-1.537-.76-3.171-.841-4.255-.841a29.69 29.69 0 0 0-1.683.048c-.469.016-.922.049-1.375.049h-.421c-3.478 0-5.743 2.314-5.76 5.889l-.016 1.828c-.518-.922-1.165-1.78-1.941-2.556a11.83 11.83 0 0 0-8.445-3.511h-.793v-4.077c0-6.585-5.355-11.924-11.924-11.924h-6.666c-3.608 0-6.552 2.928-6.552 6.536v9.513h-1.003c-6.504 0-11.843 5.274-11.924 11.778-.049 3.203 1.181 6.229 3.43 8.526a11.88 11.88 0 0 0 8.494 3.543h1.019c.097 6.827 1.747 12.474 4.902 16.794 2.572 3.511 6.002 6.294 10.225 8.316 4.158 2.006 8.656 3.009 13.347 3.009.469 0 1.213-.016 2.2-.048l17.344-.016a11.8 11.8 0 0 0 8.073-3.171c4.611-3.09 4.611-9.319 4.611-11.406V89.315c0-.89.097-1.505.194-1.925.243-.065.663-.146 1.213-.146.534 0 .955.065 1.165.146.21.065.437.146.437 1.052l.032 10.727-.016 2.945c0 2.621.259 5.485 2.152 8.51 2.022 3.236 5.436 5.371 9.173 5.711a13.55 13.55 0 0 0 2.556.243c7.491 0 13.59-6.099 13.59-13.606V88.797c0-1.213.404-1.941.793-2.2.048-.032.178-.129.275-.129.243.016.809.21 1.197.404.065.307.146.906.146 1.941v14.221c0 6.682 3.025 11.552 8.089 13.04 1.1.323 2.249.502 3.43.502a13.62 13.62 0 0 0 13.606-13.606V87.196c0-7.054-1.99-12.571-5.905-16.421zm2.669 32.196c0 5.727-4.643 10.371-10.371 10.371-.922 0-1.747-.146-2.524-.356-3.948-1.165-5.76-5.145-5.76-9.95V88.814c0-1.893-.243-3.203-.712-3.931-.485-.728-2.605-1.65-3.867-1.65-.76 0-1.488.259-2.119.712-1.294.89-2.184 2.589-2.184 4.854v14.173a10.37 10.37 0 0 1-10.354 10.371c-.728 0-1.424-.081-2.103-.227-2.75-.194-5.323-1.699-6.892-4.207-1.391-2.249-1.65-4.401-1.65-6.795l-.016-13.703c-.016-1.877-.728-3.462-2.653-4.093-.599-.194-1.375-.307-2.184-.307-1.391 0-2.896.34-3.737 1.197-.081.097-.146.21-.227.307-.453.971-.679 2.265-.679 3.802v14.173c0 4.061-.857 7.313-3.381 8.85-1.569 1.537-3.705 2.491-6.083 2.491l-17.392.016-2.136.048c-4.223 0-8.219-.89-11.956-2.686s-6.747-4.239-9.012-7.313c-2.847-3.915-4.287-9.125-4.287-15.596v-2.524h-4.239c-4.838 0-8.753-3.964-8.688-8.801.048-4.757 3.931-8.575 8.688-8.575h4.239V56.65c0-1.828 1.488-3.3 3.317-3.3h6.666a8.69 8.69 0 0 1 8.688 8.688v7.313h4.028a8.7 8.7 0 0 1 8.688 8.72v.032a8.7 8.7 0 0 1-8.688 8.672h-3.689c0 3.608.275 6.714 1.521 8.089s3.543 2.055 6.86 2.055l8.931.049-.113-2.572.129-24.025c0-1.796.793-2.67 2.524-2.67h.421c1.003 0 2.055-.097 3.058-.097 1.019 0 1.99.097 2.815.502.728.356 1.408.485 2.039.485 1.699 0 3.155-.922 4.789-1.084a35.2 35.2 0 0 1 2.589-.146c1.035-.113 2.103-.178 3.22-.178.841 0 1.683.081 2.475.227 4.789.857 8.688 4.093 11.584 7.507.647.744 1.246 1.488 1.78 2.233.097.129.21.243.307.372.663.744 1.359 1.133 2.006 1.133.663 0 1.262-.404 1.699-1.23.534-1.003 1.116-1.941 1.715-2.831 2.491-3.64 5.63-6.116 10.047-7.038.372-.065.728-.178 1.132-.226.065-.016.129-.032.194-.032a19.19 19.19 0 0 1 2.686-.178c5.63 0 10.306 2.378 13.93 5.97 3.284 3.22 4.934 7.928 4.934 14.108v15.774zm-79.26-18.929l-.016 3.818-.032 5.857-5.565-.032c-3.317 0-4.271-.76-4.482-1.003-.097-.146-.388-.728-.566-2.67h.34c4.401 0 8.267-2.411 10.322-5.97z" fill="#fff"/><path d="M126.137 73.082c-4.174-4.142-9.756-6.673-16.605-5.794-.072.009-.134.03-.205.04-6.166.863-9.931 4.525-12.894 10.103-.859 1.617-2.371 1.599-3.696.082-.105-.12-.211-.229-.313-.368-3.428-4.671-8.786-9.969-15.847-9.969a31.08 31.08 0 0 0-3.217.178 37.22 37.22 0 0 0-2.588.16c-2.238.223-4.181 1.886-6.817.592-1.715-.842-4.095-.365-6.178-.411-1.815-.04-2.642.846-2.651 2.681l-.123 24.019c.02.024.063 1.148.109 2.57l8.502.045c4.74.025 8.586 3.844 8.644 8.584l.005.442c.03 2.471-.977 4.707-2.611 6.309 2.533-1.548 3.384-4.795 3.384-8.855V89.313c0-1.53.23-2.821.681-3.797.076-.103.143-.214.231-.305 1.319-1.359 4.285-1.431 5.915-.898 1.925.631 2.643 2.219 2.665 4.089l.017 13.71c-.004 2.399.253 4.554 1.65 6.794 1.564 2.507 4.13 4.012 6.878 4.213.679.14 1.382.214 2.103.214a10.36 10.36 0 0 0 10.359-10.359V88.799c0-2.264.898-3.968 2.183-4.861.634-.441 1.356-.699 2.125-.699 1.255 0 3.381.915 3.861 1.646s.72 2.041.72 3.929v14.221c0 4.796 1.81 8.777 5.763 9.942.762.225 1.595.356 2.52.356a10.36 10.36 0 0 0 10.359-10.359V87.2c0-6.183-1.643-10.889-4.93-14.117z" fill="#0946b9"/><path d="M55.287 102.974l-.175-6.01-8.921-.047c-3.326 0-5.614-.685-6.86-2.054s-1.522-4.473-1.522-8.095l3.68.002c4.793.002 8.683-3.876 8.695-8.669v-.034c.012-4.806-3.88-8.71-8.687-8.712l-4.037-.002v-7.318c0-4.8-3.891-8.691-8.691-8.691h-6.66a3.31 3.31 0 0 0-3.311 3.311v12.738h-4.245c-4.757 0-8.63 3.824-8.69 8.581-.061 4.842 3.847 8.8 8.69 8.8h4.245v2.521c0 6.48 1.429 11.682 4.291 15.607 2.262 3.074 5.265 5.507 9.006 7.302s7.726 2.692 11.951 2.692c.466 0 1.18-.016 2.145-.046l17.393-.02c2.366-.003 4.505-.955 6.069-2.488-1.036.633-2.347.99-4.008.99a10.36 10.36 0 0 1-10.359-10.359z" fill="#e12519"/><path d="M72.264 106.034l-.005-.442c-.058-4.74-3.904-8.559-8.644-8.584l-8.502-.045.175 6.01a10.36 10.36 0 0 0 10.359 10.359c1.661 0 2.971-.357 4.008-.99 1.634-1.602 2.641-3.838 2.611-6.309z" fill="#242476"/><path d="M124.371 51.605l-13.655.453c-.356-1.682-.954-3.284-1.763-4.74l9.157-11.924-1.65-5.808-5.76.599-6.698 11.422c-1.893-1.424-4.109-2.475-6.504-3.042l.76-13.024-4.611-3.883-4.433 3.721.857 13.04c-2.249.437-4.352 1.294-6.213 2.492l-8.672-9.756-6.002.534-.518 5.76 9.934 8.72a17.46 17.46 0 0 0-2.362 5.517l-12.943-.437-3.576 4.546 4.012 4.498 12.361-1.116c.209 1.06.517 2.083.906 3.066 6.17.245 12.088 3.82 17.167 10.422 2.485-4.216 6.623-9.151 14.366-10.272.11-.023.222-.044.34-.059.334-.043.667-.068 1.001-.097a17.56 17.56 0 0 0 .843-2.786l13.218 1.197 4.012-4.498-3.576-4.546z" fill="#eada23"/><defs ><path id="B" d="M96.402 17.107l-2.83-1.391-2.824 1.402.448-3.121-2.206-2.252 3.107-.538 1.46-2.794 1.472 2.788 3.109.525-2.197 2.261.461 3.119z"/></defs></svg>