<svg xmlns="http://www.w3.org/2000/svg" width="256.032" height="256.032" viewBox="0 0 192 192" xmlns:v="https://vecta.io/nano"><defs><radialGradient id="A" cx="89.918" cy="97.153" fx="89.918" fy="97.153" r="65.756" gradientTransform="translate(0 192) scale(1 -1)" gradientUnits="userSpaceOnUse"><stop offset=".832" stop-color="#f88a20"/><stop offset=".857" stop-color="#f78222"/><stop offset=".945" stop-color="#f36b28"/><stop offset="1" stop-color="#f1622a"/></radialGradient></defs><path d="M129.712 161.535H50.125c-13.82 0-25.017-11.197-25.017-25.017V53.176c0-13.82 11.197-25.017 25.017-25.017h79.586c13.82 0 25.017 11.197 25.017 25.017v83.271c0 13.89-11.197 25.088-25.017 25.088h0z" fill="url(#A)"/><path d="M180.738 38.648c.142 6.662-1.701 12.19-6.237 17.009-4.607 4.819-10.276 6.378-16.654 6.733v72.712c0 1.984-.425 3.898-.709 5.882-.354 2.622-1.205 5.103-2.41 7.441-1.984 3.898-4.961 6.945-8.363 9.638-1.488 1.134-3.189 2.197-4.961 2.906-2.268.921-4.677 1.559-7.229 1.913-3.969.496-7.937.213-11.906.283l-72.499.071c-3.756 0-7.3-.85-10.772-2.268-2.693-1.134-5.032-2.764-7.016-4.819-1.488-1.488-2.906-3.047-4.323-4.607-.071-.071-.213-.213-.213-.283-.709-2.126-2.41-1.63-3.969-1.417-1.417.213-2.906.213-4.252.638-2.126.638-4.465.354-6.52 1.559-.425.213-.921.283-1.417.354-.142 0-.496-.425-.496-.567.142-.638.425-1.276.638-1.913l2.551-8.292c.496-1.63 1.063-3.189 1.559-4.819l1.63-5.953 3.118-9.709c.709-2.268 1.417-4.607 1.984-6.945.283-1.276.567-2.622.567-3.898V80.815l-4.11.354-5.882.85-1.772.213c-.85.071-.992-.354-.78-1.063l2.055-8.575c.921-3.685 1.913-7.3 2.622-10.985.283-1.488 1.205-1.701 2.339-1.913 1.488-.213 2.906-.425 4.394-.567.78-.071 1.134-.425 1.134-1.205 0-2.126.071-4.323.142-6.449.142-2.622.78-5.103 1.843-7.441.921-2.055 2.055-3.969 3.189-5.882.283-.496.709-.85 1.063-1.276 1.984-2.197 4.11-4.11 6.52-5.811 2.197-1.559 4.607-2.339 7.016-3.26 2.055-.78 4.252-.992 6.449-.992l83.626.071c2.339 0 4.819.496 7.016 1.559 2.126 1.063 4.323 1.984 6.378 3.189 1.417.85 2.622 2.126 3.756 3.331 1.205 1.276 2.268 2.693 3.331 4.04.496.709.921 1.417 1.347 2.197.354.638.78.921 1.559.709 1.417-.283 2.906-.354 4.394-.496 1.772-.213 3.473-.567 5.173-.78l5.032-.567c1.772-.213 3.543-.567 5.386-.78 1.559-.283 3.047-.425 4.677-.638h0zM52.677 125.392l3.685-13.182c.425-1.417 1.063-2.835 1.417-4.252l1.63-6.378 2.906-9.922 3.473-12.048 1.276-4.748c-1.063.071-1.984.142-2.906.283-.213.071-.496.425-.567.638-.567 1.772-1.063 3.473-1.559 5.244l-2.197 7.441-2.126 6.803c-.567 1.913-.992 3.827-1.488 5.74l-3.898 12.969c-.213.709-.283 1.417-.425 2.197-.071.071-.071.142-.142.213l-.213.425c-.283.638-.567 1.276-.709 1.913-.354 1.276-.638 2.622-1.063 3.898l-3.331 10.843-2.764 9.638c-.354 1.205-.78 2.41-.992 3.685-.283 1.276-.638 1.701-1.984 1.772l-5.882.213c-1.488.071-2.977.213-4.536.354 0 .354 0 .567.071.709.496.638.992 1.276 1.559 1.913.921.992 1.772 2.055 2.835 2.764 1.772 1.276 3.614 2.41 5.528 3.473 2.764 1.559 5.882 2.197 9 2.197l79.161.071c4.04 0 7.937-.425 11.693-2.055 2.622-1.134 5.032-2.622 7.016-4.677 1.63-1.701 3.26-3.473 4.394-5.599 1.063-1.913 2.055-3.898 2.41-6.024.425-2.693.78-5.457.78-8.221V70.539c0-.283-.071-.567-.071-.921-.071 0-.142-.071-.213-.071-.142.213-.283.354-.354.567-.354 1.063-.638 2.197-.992 3.26l-2.693 8.717c-.638 2.055-1.063 4.11-1.63 6.166l-4.394 14.67-2.693 9.426-2.693 9.213c-.567 1.984-1.205 3.969-1.843 6.024s-1.205 4.11-1.772 6.166c-.283.992-.85 1.276-1.984 1.134-1.559-.142-3.118-.213-4.607-.283-.567-.071-1.063-.071-1.63-.142h-4.465c-.354 0-.709.071-1.063.071h-.283c-5.032.071-9.78 1.205-14.245 3.473-.142-.213-.213-.283-.213-.354l2.055-6.945 3.402-10.489 4.677-14.953 5.528-17.646 2.551-8.504c.709-2.693 2.197-5.244 2.551-8.079.142-1.205.78-2.41 1.134-3.614.071-.213.071-.496.071-.85-1.134.071-2.126.142-3.047.283-.283.071-.638.425-.78.709l-3.614 10.985-1.63 5.386-3.26 10.134-2.977 9.496-2.41 7.229-2.551 8.221-3.756 11.693-2.055 6.803c-.213.78-.638.992-1.417.992-1.63 0-3.26 0-4.819.071h-.425c-.354 0-.709-.071-1.063 0l-8.717.638c-1.63.142-3.26.567-4.819.85-.638.142-.992 0-1.063-.78l-.496-5.67-.921-10.56-.78-9.851c-.283.213-.496.425-.567.709-.354 1.276-.638 2.551-.992 3.827l-2.48 8.788c-.709 2.48-1.347 4.961-1.984 7.441l-1.417 5.67c-.213.85-.142 1.913-1.205 2.41-2.268-.142-4.465-.142-6.662.496-.142 0-.283 0-.354.071-.354 0-.709-.071-1.063 0-2.41.283-4.819.567-7.3.992-1.276.213-2.48.567-3.756.78l-3.331.638c-.071-.283-.071-.425-.071-.567.496-2.055.921-4.181 1.63-6.166.85-2.126 1.205-4.394 1.772-6.591.071-.142.142-.283.142-.425.921-2.126 1.488-3.969 2.055-5.882h0zm43.372-32.033c.213-.638.425-1.276.709-1.913l1.417-5.67c.071-.142.142-.213.213-.354h0c.142-.354.283-.638.354-.992l1.63-6.095 2.764-10.134c.213-.992.709-1.276 1.63-1.276h.85c1.205 0 1.417-.213 1.701-1.417.354-1.559.638-3.118.992-4.677l2.48-10.843c.142-.709.496-.992 1.205-1.134l5.457-.85c1.063-.142 2.126-.354 3.26-.496l4.748-.921h.142c.78-.142 1.559-.213 2.339-.354l10.347-1.417 11.552-1.843c.567-.071 1.063-.354 1.559-.567-.213-.425-.425-.85-.709-1.205-1.205-1.559-2.268-3.26-3.685-4.677-2.622-2.693-5.882-4.536-9.496-5.599-1.984-.638-4.181-.921-6.237-.921-26.505-.071-52.939-.071-79.445 0-1.559 0-3.189.142-4.748.213-.85.071-1.63.142-2.41.354-3.331.85-6.449 2.268-9.213 4.465-1.276.992-2.622 1.913-3.614 3.189-1.772 2.268-3.331 4.607-4.181 7.37-.496 1.488-1.205 2.906-1.347 4.465-.283 2.48-.213 4.961-.283 7.441-.071.921.283 1.063 1.134.921 2.126-.425 4.252-.78 6.378-1.134l9.567-1.772c1.488-.283 3.047-.354 4.536-.567 1.559-.213 3.118-.496 4.607-.78l4.465-.85 4.323-.425 11.977-1.347c2.339-.283 4.677-.354 7.016-.567.78-.071 1.559-.213 2.339-.283 1.772-.142 3.614-.213 5.528-.354l-.78 3.614c-.638 2.764-1.347 5.528-2.055 8.221l-1.701 6.591c-.142.638-.142 1.134.567.992 1.772-.213 3.473-.496 5.244-.85.78-.142 1.063 0 1.205.78l1.984 13.394.709 4.748.85 4.961.425 2.693v.213c.142.85.213 1.701.354 2.551h.354c.283-1.772.638-3.331.992-4.89h0zM84.568 52.963l-7.441.567-6.166.709c-1.63.213-3.26.354-4.89.496-2.764.283-5.528.638-8.292.992l-8.575 1.276-4.961.921c-1.63.283-3.26.425-4.89.709-1.772.283-3.543.709-5.315.992-2.622.496-5.244.85-7.866 1.347l-7.937 1.559c-.354.071-.78.425-.85.78-.496 1.701-.85 3.402-1.276 5.032l-1.488 6.024c-.283 1.134-.567 2.268-.78 3.402-.213.921.071 1.134.921.992.78-.142 1.63-.213 2.41-.283l7.441-.921 10.843-1.488c.709-.071 1.063.283.85.992l-2.339 7.796-2.268 7.512c-.354 1.134-.567 2.268-.921 3.331l-3.685 11.693-2.693 9.071-3.614 11.552-3.827 12.827-1.913 6.378c-.213.709 0 .992.709.85.213 0 .425-.071.638-.142l9.142-1.417c1.488-.213 2.906-.283 4.394-.425l9.142-.567c.78 0 1.063-.283 1.205-.992a207.43 207.43 0 0 1 1.843-6.237l1.843-6.378c.709-2.48 1.488-4.89 2.268-7.37l2.906-9.638c.354-1.134.496-2.339.85-3.473l2.48-7.937 2.906-10.205c.78-2.764 1.701-5.457 2.551-8.221l3.118-10.56q.638-2.055 2.835-2.268c.071 0 .213 0 .283-.071l8.292-1.276c2.41-.354 4.819-.78 7.3-1.205.213 0 .425-.354.496-.567l1.417-5.315 1.843-7.796 1.063-3.047zm9.567 58.68h-.354l-6.024-39.616c-.283 0-.567-.071-.78 0l-8.363 1.205-7.512 1.063c-.567.071-.78.283-.921.709l-2.906 9.78-3.26 11.693c-.78 2.906-1.63 5.74-2.48 8.646l-4.323 15.095-2.339 7.866-2.48 8.433c-.425 1.417-.709 2.835-1.063 4.323.425 0 .709.071.992 0 1.984-.283 3.969-.709 5.953-.921l9.071-.992c.354-.071.85-.425.921-.709.496-1.63.921-3.331 1.347-4.961l1.63-6.662c.709-2.693 1.559-5.315 2.339-7.937.638-2.197 1.134-4.465 1.701-6.662l3.473-12.686.638-2.48h.354l3.473 39.616c.354 0 .567.071.85.071 1.488-.142 2.977-.425 4.465-.567l10.489-.567c.283 0 .567.071.78 0 .283-.142.567-.283.709-.567l3.26-9.851 4.04-12.686 5.386-16.725 2.764-8.646 2.055-6.449 2.055-6.449 1.913-6.237h-.78l-14.032 1.913c-1.063.142-1.913.354-2.055 1.701-.142 1.134-.496 2.268-.78 3.402l-1.63 5.953c-.709 2.622-1.276 5.244-1.984 7.866-.567 1.984-1.276 3.969-1.843 5.953l-3.827 14.316a25.08 25.08 0 0 0-.921 2.764h0zm83.768-69.735l-4.607.567c-1.772.213-3.543.496-5.315.638-1.417.142-2.835.213-4.252.425l-10.63 1.63-8.859 1.205-9.993 1.63-11.268 1.701-8.93 1.347c-.709.071-.85.425-.992.992l-2.126 9.426c-.283 1.205-.638 2.339-.85 3.543-.142.567 0 1.063.709.921l4.323-.638 7.725-1.063 6.52-.921 3.969-.496-2.551 7.796c-.85 2.622-1.559 5.244-2.41 7.866l-4.89 15.166-2.906 9.355-3.402 10.56c-1.276 3.969-2.41 7.937-3.614 11.906-.567 1.984-1.205 3.898-1.843 5.882-.071.354-.071.85.071 1.134.142.142.709.071 1.063 0 3.118-.425 6.307-.992 9.426-1.205 2.977-.142 6.024.071 9 .142 1.772.071 1.772.142 2.268-1.559l2.126-7.3 2.055-7.37c.496-1.843 1.134-3.614 1.701-5.457l2.48-8.93 3.118-10.418 3.331-11.693c.85-3.047 1.843-6.024 2.693-9.071l2.622-9.213c.071-.283.425-.638.709-.709l6.662-.78c1.205-.142 2.48-.567 3.685-.709 1.347-.142 2.268-.992 3.402-1.559 3.118-1.63 5.457-4.11 7.3-7.016 1.417-2.055 2.48-4.677 2.48-7.725h0zM25.959 100.942h.213c.071-.071.142-.213.213-.283l1.913-5.953 1.134-3.473 1.063-3.969 2.197-7.158c.213-.638 0-.85-.709-.78-1.63.283-3.331.567-4.961.709-.921.071-1.063.425-1.063 1.276v19.631h0z" fill="#3c4a9e"/><path d="M84.568 52.963l-1.063 3.189-1.843 7.796-1.417 5.315c-.071.213-.283.496-.496.567l-7.3 1.205-8.292 1.276c-.071 0-.213 0-.283.071q-2.197.213-2.835 2.268l-3.118 10.56-2.551 8.221-2.906 10.205-2.48 7.937c-.354 1.134-.567 2.339-.85 3.473l-2.906 9.638-2.268 7.37-1.843 6.378-1.843 6.237c-.213.709-.496.992-1.205.992l-9.142.567-4.394.425-9.142 1.417c-.213 0-.425.071-.638.142-.709.071-.921-.213-.709-.85l1.913-6.378 3.827-12.827 3.614-11.552 2.693-9.071 3.685-11.693.921-3.331 2.268-7.512 2.339-7.796c.213-.709-.142-1.063-.85-.992l-10.843 1.488-7.441.921-2.41.283c-.921.142-1.134-.071-.921-.992l.78-3.402 1.488-6.024 1.276-5.032c.071-.283.496-.709.85-.78l7.937-1.559 7.866-1.347 5.315-.992 4.89-.709 4.961-.921 8.575-1.276L66 54.877l4.89-.496 6.166-.709 7.512-.709zm9.567 58.68l.921-3.047 3.827-14.316 1.843-5.953 1.984-7.866 1.63-5.953c.283-1.134.709-2.268.78-3.402.142-1.347.992-1.559 2.055-1.701l14.032-1.913h.78l-1.913 6.237-2.055 6.449-2.055 6.449-2.764 8.646-5.386 16.725-4.04 12.686-3.26 9.851c-.071.213-.425.425-.709.567-.213.071-.496 0-.78 0l-10.489.567c-1.488.071-2.977.354-4.465.567-.213 0-.496 0-.85-.071l-3.473-39.616h-.354l-.638 2.48-3.473 12.686-1.701 6.662-2.339 7.937-1.63 6.662-1.347 4.961c-.071.283-.567.638-.921.709l-9.071.992-5.953.921c-.283.071-.567 0-.992 0l1.063-4.323 2.48-8.433 2.339-7.866 4.323-15.095 2.48-8.646 3.26-11.693 2.906-9.78c.142-.496.354-.638.921-.709l7.512-1.063 8.363-1.205h.78l6.024 39.616c.071.283.213.283.354.283h0zm83.768-69.735c.071 3.047-1.063 5.67-2.48 8.008-1.772 2.906-4.11 5.386-7.3 7.016-1.134.567-2.055 1.417-3.402 1.559-1.205.142-2.48.496-3.685.709l-6.662.78c-.283.071-.638.425-.709.709-.921 3.047-1.701 6.166-2.622 9.213-.85 3.047-1.843 6.024-2.693 9.071l-3.331 11.693-3.118 10.418-2.48 8.93c-.496 1.843-1.134 3.614-1.701 5.457l-2.055 7.37-2.126 7.3c-.496 1.701-.496 1.63-2.268 1.559-2.977-.142-6.024-.354-9-.142-3.189.213-6.307.78-9.426 1.205-.354.071-.921.142-1.063 0-.213-.283-.213-.78-.071-1.134.567-1.984 1.205-3.898 1.843-5.882l3.614-11.906 3.402-10.56 2.906-9.355 4.89-15.166c.85-2.622 1.559-5.244 2.41-7.866.78-2.551 1.63-5.032 2.551-7.796-1.488.213-2.764.354-3.969.496l-6.52.921-7.725 1.063-4.323.638c-.78.071-.85-.354-.709-.921.283-1.205.638-2.339.85-3.543l2.126-9.426c.142-.567.283-.921.992-.992 2.977-.354 5.953-.85 8.93-1.347l11.268-1.701 9.993-1.63 8.859-1.205 10.63-1.63c1.417-.213 2.835-.283 4.252-.425l5.315-.638c1.488-.425 2.977-.638 4.607-.85z" fill="#f3ee54"/></svg>