<svg xmlns="http://www.w3.org/2000/svg" xmlns:xlink="http://www.w3.org/1999/xlink" width="128.916" height="81.85" xmlns:v="https://vecta.io/nano"><defs><radialGradient id="A" cx="77.658" cy="-15.532" fx="77.658" fy="-15.532" r="9.019" gradientTransform="translate(2.3311545864 74.5365061645) scale(1.3335000277)" gradientUnits="userSpaceOnUse"><stop offset=".832" stop-color="#f88a20"/><stop offset=".857" stop-color="#f78222"/><stop offset=".945" stop-color="#f36b28"/><stop offset="1" stop-color="#f1622a"/></radialGradient><path id="B" d="M61.858 26.871c.757.613 1.136 1.333 1.136 2.16.004.53-.155 1.048-.455 1.483-.304.446-.713.801-1.227 1.067a3.67 3.67 0 0 1-1.709.399 3.65 3.65 0 0 1-1.7-.399c-.514-.266-.924-.622-1.227-1.067-.301-.436-.46-.954-.455-1.483h1.7c0 .37.165.687.494.95s.725.395 1.188.395c.469 0 .868-.132 1.197-.395s.494-.58.494-.95c0-.255-.087-.481-.261-.681a1.85 1.85 0 0 0-.646-.473c-.252-.114-.525-.176-.802-.182-.601-.046-1.139-.246-1.614-.599-.59-.48-.885-1.05-.885-1.709 0-.636.258-1.181.772-1.635a2.71 2.71 0 0 1 1.857-.681c.728 0 1.35.227 1.865.681s.772.999.772 1.635h-1.709c0-.191-.091-.355-.273-.494s-.4-.208-.655-.208c-.249 0-.466.07-.651.208s-.278.304-.278.494c0 .139.052.261.156.364s.233.188.373.243.284.09.417.095a3.89 3.89 0 0 1 2.125.781v.001z"/></defs><path d="M29.85 48.783h4.608v17.19c0 2.872-.703 5.492-2.108 7.857s-3.292 4.256-5.657 5.669-4.985 2.12-7.857 2.12c-2.889 0-5.516-.707-7.881-2.12s-4.251-3.303-5.657-5.669-2.109-4.985-2.109-7.857v-17.19h4.608v17.19c0 2.027.496 3.875 1.486 5.542s2.324 2.999 3.998 3.998 3.526 1.497 5.554 1.497 3.875-.499 5.542-1.497a11.36 11.36 0 0 0 3.986-3.998c.991-1.667 1.486-3.515 1.486-5.542v-17.19h.001zm18.757 9.355c2.197 0 4.194.538 5.991 1.613a12.22 12.22 0 0 1 4.298 4.309c1.067 1.798 1.602 3.787 1.602 5.969v11.774h-4.609V70.029c0-1.997-.71-3.71-2.131-5.139s-3.138-2.144-5.15-2.144c-1.997 0-3.71.715-5.139 2.144s-2.143 3.142-2.143 5.139v11.774h-4.608V70.029c0-2.182.538-4.171 1.613-5.969s2.512-3.233 4.309-4.309 3.787-1.613 5.968-1.613h-.001zm13.274-9.425h4.608v21.2h-4.608z"/><path d="M66.489 69.913c0 2.013.71 3.729 2.132 5.149s3.137 2.132 5.15 2.132v4.608c-2.197 0-4.194-.533-5.991-1.602s-3.23-2.503-4.297-4.309-1.602-3.798-1.602-5.979h4.608v.001zm8.664-11.775h4.608V81.85h-4.608zm-2.888-16.769c12.746 0 23.08-9.261 23.08-20.685S85.011 0 72.265 0s-23.08 9.261-23.08 20.685c0 5.201 2.144 9.958 5.684 13.593-.28 3.002-1.203 6.294-2.225 8.765-.228.55.214 1.165.788 1.07 6.509-1.093 10.378-2.771 12.059-3.647a25.52 25.52 0 0 0 6.774.904v-.001zm33.57 33.016c12.746 0 23.08-9.261 23.08-20.685s-10.334-20.685-23.08-20.685-23.08 9.261-23.08 20.685c0 5.201 2.144 9.958 5.684 13.593-.28 3.002-1.203 6.294-2.225 8.765-.228.55.214 1.165.788 1.07 6.509-1.093 10.378-2.771 12.059-3.647a25.52 25.52 0 0 0 6.774.904v-.001zM23.08 44.993a25.52 25.52 0 0 0 6.774-.904c1.681.875 5.55 2.553 12.059 3.647.574.095 1.016-.52.788-1.07-1.022-2.47-1.945-5.763-2.225-8.765 3.54-3.635 5.684-8.392 5.684-13.593 0-11.424-10.334-20.685-23.08-20.685S0 12.883 0 24.307s10.334 20.685 23.08 20.685v.001z"/><g fill="#fff"><use xlink:href="#B"/><path d="M76.196 23.08c.792-.008 1.571.202 2.251.607a4.59 4.59 0 0 1 1.622 1.622c.402.677.603 1.426.603 2.247v4.433h-1.735v-4.433c.01-.728-.28-1.428-.802-1.934a2.63 2.63 0 0 0-1.939-.807c-.734 0-1.362.25-1.882.751s-.804 1.124-.85 1.869v.121h-.009v4.433h-1.735v-4.554a2.73 2.73 0 0 0-.85-1.869 2.62 2.62 0 0 0-1.882-.751 2.63 2.63 0 0 0-1.939.807c-.522.507-.813 1.207-.802 1.934v4.433H64.51v-4.433c0-.821.201-1.57.603-2.247a4.59 4.59 0 0 1 1.618-1.622c.677-.404 1.429-.607 2.256-.607.74 0 1.423.165 2.048.494a4.5 4.5 0 0 1 1.553 1.336 4.58 4.58 0 0 1 1.561-1.336c.625-.329 1.307-.494 2.048-.494z"/><use xlink:href="#B" x="25.968"/></g><path d="M23.926 6.657c.091-.044.186-.079.284-.105l.051.099c.219.46.523.872.779 1.312 1.51 2.59 2.357 5.591 2.272 8.596.018 1.142-.233 2.261-.352 3.39l-.058.005c-.722-1.603-1.651-3.117-2.759-4.483-1.407-1.832-3.176-3.363-5.104-4.625 1.408-1.628 3.049-3.063 4.887-4.188zm-1.796 9.591c.598-.252 1.171-.601 1.831-.659-1.002 1.356-1.962 2.77-2.612 4.332-.977 2.043-1.538 4.273-1.758 6.523-1.934-.383-3.794-1.075-5.549-1.965 1.575-3.608 4.552-6.537 8.087-8.232z" fill="#23aa4a"/><path d="M24.26 6.651c4.263 2.579 7.495 6.77 9.02 11.506-1.995.929-4.133 1.546-6.321 1.792.119-1.129.37-2.248.352-3.39.085-3.006-.762-6.006-2.272-8.596-.256-.44-.56-.852-.779-1.312h0z" fill="#60bb46"/><path d="M8.46 27.357c.833-.527 1.879-.601 2.828-.423.835.17 1.445.814 2.01 1.404l-1.301 1.305c-.362-.454-.804-.903-1.388-1.043-.388-.053-.844-.069-1.151.217-.22.19-.412.497-.286.794.111.21.319.344.501.487.953.643 2.036 1.126 2.825 1.984.383.401.633.948.598 1.51-.031.817-.524 1.567-1.198 2.006-.492.331-1.103.431-1.686.434-.678.014-1.376-.119-1.956-.482-.46-.266-.839-.638-1.226-.996.369-.442.801-.83 1.189-1.255l.05-.007c.597.406 1.211.858 1.946.96.41.067.855-.146 1.028-.53.072-.151.005-.319-.091-.441-.367-.501-.924-.804-1.434-1.137-.598-.399-1.27-.712-1.752-1.263-.529-.535-.776-1.349-.579-2.083.151-.598.564-1.109 1.075-1.442h0 0zm4.907 1.991l1.725.001.015.176c.948-.372 2.114-.167 2.842.559a2.6 2.6 0 0 1 2.014-.732c.925.019 1.774.605 2.232 1.391.245.415.325.9.343 1.376l.005 3.908-1.741.004-.002-3.99c.002-.39-.27-.749-.626-.893-.597-.274-1.394.229-1.354.896l.002 3.984-1.744.002.002-3.983c.018-.417-.3-.793-.684-.923-.594-.22-1.325.281-1.298.92l.002 3.986c-.581.002-1.162.005-1.743-.002l.01-6.68h0 0z" fill="#0b9445"/><path d="M35.965 26.907l1.74-.002-.002 2.473 2.187-.002c-.153.481-.399.959-.828 1.249-.394.282-.873.441-1.356.465v2.114c.001.317.079.674.369.851.439.257.971.256 1.465.252.033.57-.039 1.143.001 1.714-.826.027-1.705-.013-2.435-.442-.615-.367-.954-1.06-1.057-1.749-.139-.903-.066-1.819-.077-2.728-.289-.009-.578-.009-.866.002l-.009-1.73h.874l-.007-2.469h0 0z" fill="#0c9446"/><path d="M15.011 17.961c.86-2.605 2.243-5.033 4.027-7.116 1.929 1.262 3.698 2.793 5.104 4.625-.227.027-.452-.014-.678-.029l.071.152c-.764.153-1.481.471-2.196.776-2.544 1.108-4.837 2.812-6.561 4.993l-.675.874c.193-1.445.452-2.887.909-4.274h0z" fill="#8cc63f"/><path d="M32.525 30.671c.363-.873 1.347-1.427 2.284-1.298l.01 1.69c-.914-.09-1.874.494-2.144 1.386-.205.54-.151 1.124-.156 1.689l.005 1.889-1.827.002v-6.646l1.721-.007c-.004.507.03 1.017-.03 1.522.071-.057.101-.146.138-.227h0zm-9.662 1.443c.263-1.541 1.73-2.76 3.293-2.734.79-.008 1.563.297 2.169.797l.003-.794 1.797.004.002 6.638-1.802.003.009-.724c-.489.347-1.03.647-1.633.732-1.136.201-2.356-.25-3.095-1.133-.647-.756-.948-1.811-.744-2.789m2.943-1.023c-.444.098-.854.372-1.086.767-.336.526-.331 1.245.011 1.767a1.66 1.66 0 0 0 1.498.779 1.68 1.68 0 0 0 1.594-1.74c-.005-1-1.047-1.8-2.017-1.573h0z" fill="#0b9444"/><path d="M26.959 19.948c2.187-.246 4.326-.863 6.321-1.792a19.83 19.83 0 0 1 .901 5.933c-4.339.067-8.656-1.333-12.21-3.804-.16-.117-.299-.257-.44-.394 1.78.189 3.586.269 5.37.062l.058-.005h0 0z" fill="#66bce1"/><path d="M19.592 26.445c.219-2.25.781-4.481 1.758-6.523l.104-.106.077.076c.141.137.28.278.44.394 3.554 2.471 7.872 3.871 12.21 3.804-2.629 1.611-5.671 2.508-8.738 2.729-1.957.062-3.929.052-5.851-.374z" fill="#1595d0"/><path d="M113.166 66.021H98.61c-2.528 0-4.576-2.048-4.576-4.576V46.203c0-2.528 2.048-4.576 4.576-4.576h14.556c2.528 0 4.576 2.048 4.576 4.576v15.23a4.58 4.58 0 0 1-4.576 4.589h0z" fill="url(#A)"/><path d="M122.499 43.546c.026 1.218-.311 2.23-1.141 3.111-.843.881-1.879 1.167-3.046 1.231v13.299c0 .363-.078.713-.13 1.076-.065.48-.22.933-.441 1.361-.363.713-.907 1.27-1.53 1.763-.272.207-.583.402-.907.532a5.51 5.51 0 0 1-1.322.35c-.726.091-1.452.039-2.178.052l-13.26.013c-.687 0-1.335-.155-1.97-.415-.493-.207-.92-.506-1.283-.881l-.791-.843c-.013-.013-.039-.039-.039-.052-.13-.389-.441-.298-.726-.259-.259.039-.532.039-.778.117-.389.117-.817.065-1.192.285-.078.039-.168.052-.259.065-.026 0-.091-.078-.091-.104.026-.117.078-.233.117-.35l.467-1.517.285-.881.298-1.089.57-1.776.363-1.27c.052-.233.104-.48.104-.713v-5.392l-.752.065-1.076.155-.324.039c-.155.013-.181-.065-.143-.194l.376-1.568.48-2.009c.052-.272.22-.311.428-.35l.804-.104c.143-.013.207-.078.207-.22l.026-1.18c.026-.48.143-.933.337-1.361.168-.376.376-.726.583-1.076.052-.091.13-.155.194-.233.363-.402.752-.752 1.192-1.063.402-.285.843-.428 1.283-.596.376-.143.778-.181 1.18-.181l15.295.013c.428 0 .881.091 1.283.285l1.167.583c.259.155.48.389.687.609.22.233.415.493.609.739.091.13.168.259.246.402.065.117.143.168.285.13.259-.052.532-.065.804-.091l.946-.143.92-.104.985-.143.855-.117h0 0zM99.077 59.411L99.751 57l.259-.778.298-1.167.532-1.815.635-2.204.233-.868-.532.052c-.039.013-.091.078-.104.117l-.285.959-.402 1.361-.389 1.244-.272 1.05-.713 2.372c-.039.13-.052.259-.078.402-.013.013-.013.026-.026.039l-.039.078c-.052.117-.104.233-.13.35l-.194.713-.609 1.983-.506 1.763-.181.674c-.052.233-.117.311-.363.324l-1.076.039-.83.065c0 .065 0 .104.013.13l.285.35c.168.181.324.376.519.506.324.233.661.441 1.011.635.506.285 1.076.402 1.646.402l14.478.013c.739 0 1.452-.078 2.139-.376.48-.207.92-.48 1.283-.855.298-.311.596-.635.804-1.024.194-.35.376-.713.441-1.102.078-.493.143-.998.143-1.504V49.378c0-.052-.013-.104-.013-.168-.013 0-.026-.013-.039-.013-.026.039-.052.065-.065.104l-.181.596-.493 1.594-.298 1.128-.804 2.683-.493 1.724-.493 1.685-.337 1.102-.324 1.128c-.052.181-.155.233-.363.207l-.843-.052-.298-.026h-.817c-.065 0-.13.013-.194.013h-.052c-.92.013-1.789.22-2.605.635-.026-.039-.039-.052-.039-.065l.376-1.27.622-1.918.855-2.735 1.011-3.227.467-1.555c.13-.493.402-.959.467-1.478.026-.22.143-.441.207-.661.013-.039.013-.091.013-.155l-.557.052c-.052.013-.117.078-.143.13l-.661 2.009-.298.985-.596 1.853-.544 1.737-.441 1.322-.467 1.504-.687 2.139-.376 1.244c-.039.143-.117.181-.259.181l-.881.013h-.078c-.065 0-.13-.013-.194 0l-1.594.117c-.298.026-.596.104-.881.155-.117.026-.181 0-.194-.143l-.091-1.037-.168-1.931-.143-1.802c-.052.039-.091.078-.104.13l-.181.7-.454 1.607-.363 1.361-.259 1.037c-.039.155-.026.35-.22.441-.415-.026-.817-.026-1.218.091-.026 0-.052 0-.065.013-.065 0-.13-.013-.194 0l-1.335.181-.687.143-.609.117c-.013-.052-.013-.078-.013-.104l.298-1.128c.155-.389.22-.804.324-1.205.013-.026.026-.052.026-.078.168-.389.272-.726.376-1.076h0 0zm7.933-5.859l.13-.35.259-1.037c.013-.026.026-.039.039-.065h0c.026-.065.052-.117.065-.181l.298-1.115.506-1.853c.039-.181.13-.233.298-.233h.155c.22 0 .259-.039.311-.259l.181-.855.454-1.983c.026-.13.091-.181.22-.207l.998-.155.596-.091.868-.168h.026l.428-.065 1.892-.259 2.113-.337c.104-.013.194-.065.285-.104-.039-.078-.078-.155-.13-.22-.22-.285-.415-.596-.674-.855-.48-.493-1.076-.83-1.737-1.024a3.8 3.8 0 0 0-1.141-.168 2709.81 2709.81 0 0 0-14.53 0l-.868.039c-.155.013-.298.026-.441.065-.609.155-1.18.415-1.685.817-.233.181-.48.35-.661.583-.324.415-.609.843-.765 1.348-.091.272-.22.532-.246.817-.052.454-.039.907-.052 1.361-.013.168.052.194.207.168l1.167-.207 1.75-.324c.272-.052.557-.065.83-.104l.843-.143.817-.155.791-.078 2.191-.246 1.283-.104.428-.052 1.011-.065-.143.661a51.43 51.43 0 0 1-.376 1.504l-.311 1.205c-.026.117-.026.207.104.181l.959-.155c.143-.026.194 0 .22.143l.363 2.45.13.868.155.907.078.493v.039l.065.467h.065l.181-.894h0 0zm-2.1-7.388l-1.361.104-1.128.13-.894.091-1.517.181-1.568.233-.907.168-.894.13-.972.181-1.439.246-1.452.285c-.065.013-.143.078-.155.143l-.233.92-.272 1.102-.143.622c-.039.168.013.207.168.181.143-.026.298-.039.441-.052l1.361-.168 1.983-.272c.13-.013.194.052.155.181l-.428 1.426-.415 1.374-.168.609-.674 2.139-.493 1.659-.661 2.113-.7 2.346-.35 1.167c-.039.13 0 .181.13.155.039 0 .078-.013.117-.026l1.672-.259.804-.078 1.672-.104c.143 0 .194-.052.22-.181a37.94 37.94 0 0 1 .337-1.141l.337-1.167.415-1.348.532-1.763c.065-.207.091-.428.155-.635l.454-1.452.532-1.866.467-1.504.57-1.931c.078-.251.251-.389.519-.415.013 0 .039 0 .052-.013l1.517-.233 1.335-.22c.039 0 .078-.065.091-.104l.259-.972.337-1.426.194-.557h0zm1.75 10.732h-.065l-1.102-7.246c-.052 0-.104-.013-.143 0l-1.53.22-1.374.194c-.104.013-.143.052-.168.13l-.532 1.789-.596 2.139-.454 1.581-.791 2.761-.428 1.439-.454 1.542c-.078.259-.13.519-.194.791.078 0 .13.013.181 0l1.089-.168 1.659-.181c.065-.013.155-.078.168-.13l.246-.907.298-1.218.428-1.452.311-1.218.635-2.32.117-.454h.065l.635 7.246c.065 0 .104.013.155.013l.817-.104 1.918-.104c.052 0 .104.013.143 0 .052-.026.104-.052.13-.104l.596-1.802.739-2.32.985-3.059.506-1.581.376-1.18.376-1.18.35-1.141h-.143l-2.566.35c-.194.026-.35.065-.376.311-.026.207-.091.415-.143.622l-.298 1.089-.363 1.439-.337 1.089-.7 2.618c-.066.165-.122.334-.168.506h0 0zm15.321-12.754l-.843.104-.972.117-.778.078-1.944.298-1.62.22-1.828.298-2.061.311-1.633.246c-.13.013-.155.078-.181.181l-.389 1.724-.155.648c-.026.104 0 .194.13.168l.791-.117 1.413-.194 1.192-.168.726-.091-.467 1.426-.441 1.439-.894 2.774-.532 1.711-.622 1.931-.661 2.178-.337 1.076a.37.37 0 0 0 .013.207c.026.026.13.013.194 0l1.724-.22c.544-.026 1.102.013 1.646.026.324.013.324.026.415-.285l.389-1.335.376-1.348.311-.998.454-1.633.57-1.905.609-2.139.493-1.659.48-1.685c.013-.052.078-.117.13-.13l1.218-.143c.22-.026.454-.104.674-.13.246-.026.415-.181.622-.285.57-.298.998-.752 1.335-1.283a2.48 2.48 0 0 0 .454-1.413h0 0zM94.19 54.939h.039c.013-.013.026-.039.039-.052l.35-1.089.207-.635.194-.726.402-1.309c.039-.117 0-.155-.13-.143l-.907.13c-.168.013-.194.078-.194.233v3.59h0z" fill="#3c4a9e"/><path d="M104.91 46.164l-.194.583-.337 1.426-.259.972a.18.18 0 0 1-.091.104l-1.335.22-1.517.233c-.013 0-.039 0-.052.013-.268.026-.441.164-.519.415l-.57 1.931-.467 1.504-.532 1.866-.454 1.452c-.065.207-.104.428-.155.635l-.532 1.763-.415 1.348-.337 1.167-.337 1.141c-.039.13-.091.181-.22.181l-1.672.104-.804.078-1.672.259c-.039 0-.078.013-.117.026-.13.013-.168-.039-.13-.155l.35-1.167.7-2.346.661-2.113.493-1.659.674-2.139.168-.609.415-1.374.428-1.426c.039-.13-.026-.194-.155-.181l-1.983.272-1.361.168-.441.052c-.168.026-.207-.013-.168-.181l.143-.622.272-1.102.233-.92c.013-.052.091-.13.155-.143l1.452-.285 1.439-.246.972-.181.894-.13.907-.168 1.568-.233 1.504-.181.894-.091 1.128-.13 1.374-.13zm1.75 10.732l.168-.557.7-2.618.337-1.089.363-1.439.298-1.089c.052-.207.13-.415.143-.622.026-.246.181-.285.376-.311l2.566-.35h.143l-.35 1.141-.376 1.18-.376 1.18-.506 1.581-.985 3.059-.739 2.32-.596 1.802c-.013.039-.078.078-.13.104-.039.013-.091 0-.143 0l-1.918.104c-.272.013-.544.065-.817.104-.039 0-.091 0-.155-.013l-.635-7.246h-.065l-.117.454-.635 2.32-.311 1.218-.428 1.452-.298 1.218-.246.907c-.013.052-.104.117-.168.13l-1.659.181-1.089.168c-.052.013-.104 0-.181 0l.194-.791.454-1.542.428-1.439.791-2.761.454-1.581.596-2.139.532-1.789c.026-.091.065-.117.168-.13l1.374-.194 1.53-.22h.143l1.102 7.246c.013.052.039.052.065.052h0 0zm15.321-12.754c.013.557-.194 1.037-.454 1.465-.324.532-.752.985-1.335 1.283-.207.104-.376.259-.622.285-.22.026-.454.091-.674.13l-1.218.143c-.052.013-.117.078-.13.13l-.48 1.685-.493 1.659-.609 2.139-.57 1.905-.454 1.633-.311.998-.376 1.348-.389 1.335c-.091.311-.091.298-.415.285l-1.646-.026c-.583.039-1.154.143-1.724.22-.065.013-.168.026-.194 0-.039-.052-.039-.143-.013-.207l.337-1.076.661-2.178.622-1.931.532-1.711.894-2.774.441-1.439.467-1.426-.726.091-1.192.168-1.413.194-.791.117c-.143.013-.155-.065-.13-.168l.155-.648.389-1.724c.026-.104.052-.168.181-.181l1.633-.246 2.061-.311 1.828-.298 1.62-.22 1.944-.298.778-.078.972-.117c.272-.078.544-.117.843-.155h0z" fill="#f3ee54"/><g fill-rule="evenodd"><path d="M63.408 8.805l-.325.018.057 1.455.268-.016c.318.003.636.029.95.076l.201-1.445a8.35 8.35 0 0 0-1.151-.088h0zm-1.026.076a8.35 8.35 0 0 0-1.445.311l.434 1.398c.388-.122.787-.21 1.19-.262l-.179-1.447h0zm2.868.141l-.321 1.419c.397.092.785.219 1.159.379l.567-1.339a8.35 8.35 0 0 0-1.404-.459h0zm-4.971.415a8.35 8.35 0 0 0-1.313.675l.776 1.231c.344-.217.707-.403 1.083-.556l-.547-1.35h0zm7.012.341l-.68 1.292c.362.187.706.406 1.029.654l.899-1.153a8.35 8.35 0 0 0-1.248-.793h0zm-8.901.735a8.35 8.35 0 0 0-1.099.985l1.069.989c.277-.298.58-.571.905-.815l-.876-1.159h.001zm10.682.517l-.99 1.07c.298.278.571.581.815.907l1.157-.876a8.35 8.35 0 0 0-.984-1.102h.002zm-12.239 1.001a8.35 8.35 0 0 0-.803 1.24l1.288.678c.191-.359.414-.701.665-1.021l-1.151-.897h0zm-1.1 1.877a8.35 8.35 0 0 0-.461 1.404l1.417.321c.092-.397.219-.785.379-1.16l-1.335-.565h0zm-.588 2.095a8.35 8.35 0 0 0-.089 1.151l.016.325 1.455-.057-.014-.269c.003-.318.028-.636.074-.95l-1.442-.201h0zm1.429 1.998l-1.447.18a8.35 8.35 0 0 0 .304 1.448l1.398-.434c-.12-.39-.205-.789-.255-1.193h0zm.447 1.741l-1.349.547a8.35 8.35 0 0 0 .681 1.312l1.227-.774c-.218-.345-.405-.708-.559-1.086v.001z" fill="#fecb00"/><path d="M63.228 11.077a6.09 6.09 0 0 0-.871.096l.251 1.427a4.63 4.63 0 0 1 .664-.069l-.043-1.455h0zm.713.026l-.127 1.447a4.63 4.63 0 0 1 .658.108l.335-1.415a6.09 6.09 0 0 0-.865-.139h0zm-2.278.234a6.09 6.09 0 0 0-.816.318l.612 1.315a4.63 4.63 0 0 1 .621-.241l-.417-1.392h0zm3.826.113l-.498 1.366a4.63 4.63 0 0 1 .61.269l.689-1.28a6.09 6.09 0 0 0-.801-.354h0zm-5.269.542a6.09 6.09 0 0 0-.706.517l.93 1.109a4.63 4.63 0 0 1 .538-.393l-.761-1.233h0zm6.677.187l-.835 1.192a4.63 4.63 0 0 1 .518.42l1.002-1.063a6.09 6.09 0 0 0-.684-.549h0zm-7.902.817a6.09 6.09 0 0 0-.549.68l1.184.83a4.63 4.63 0 0 1 .42-.516l-1.055-.994h0zm-.926 1.284a6.09 6.09 0 0 0-.357.798l1.36.496a4.63 4.63 0 0 1 .27-.609l-1.273-.685v-.001zm-.567 1.479a6.09 6.09 0 0 0-.143.864l1.445.127a4.63 4.63 0 0 1 .11-.657l-1.411-.334h0zm1.284 1.534l-1.457.043a6.09 6.09 0 0 0 .095.872l1.433-.252a4.63 4.63 0 0 1-.072-.663h0zm.194 1.191l-1.392.418a6.09 6.09 0 0 0 .315.818l1.319-.614a4.63 4.63 0 0 1-.242-.621h0zm.499 1.098l-1.24.766a6.09 6.09 0 0 0 .504.718l1.121-.939a4.63 4.63 0 0 1-.385-.544h0z" fill="#ffa400"/><path d="M63.347 6.279a10.88 10.88 0 0 0-2.15.228l.349 1.68a9.17 9.17 0 0 1 1.811-.201l-.01-1.706h0zm.681.02l-.098 1.714a9.17 9.17 0 0 1 1.798.286l.432-1.648a10.88 10.88 0 0 0-2.132-.352h0zm-3.49.379a10.88 10.88 0 0 0-2.016.774l.763 1.516a9.17 9.17 0 0 1 1.701-.655l-.448-1.635h0zm6.277.157l-.536 1.625a9.17 9.17 0 0 1 1.665.737l.843-1.48a10.88 10.88 0 0 0-1.97-.883h-.002zm-8.885.953a10.88 10.88 0 0 0-1.747 1.267l1.136 1.274a9.17 9.17 0 0 1 1.466-1.078l-.855-1.463zm11.444.275l-.942 1.435a9.17 9.17 0 0 1 1.42 1.141l1.203-1.216a10.88 10.88 0 0 0-1.681-1.36h0zM55.698 9.531a10.88 10.88 0 0 0-1.362 1.673l1.423.933A9.17 9.17 0 0 1 56.9 10.72l-1.203-1.189zm15.822.391l-1.275 1.137a9.17 9.17 0 0 1 1.072 1.47l1.465-.857a10.88 10.88 0 0 0-1.262-1.751h0zM53.99 11.787a10.88 10.88 0 0 0-.889 1.966l1.617.534a9.17 9.17 0 0 1 .74-1.662l-1.468-.837h.001zm-1.075 2.62a10.88 10.88 0 0 0-.361 2.129l1.713.098a9.17 9.17 0 0 1 .289-1.796l-1.642-.43h0zm1.323 2.8l-1.706.01a10.88 10.88 0 0 0 .228 2.15l1.68-.349a9.17 9.17 0 0 1-.201-1.811h0zm.327 2.371l-1.635.448a10.88 10.88 0 0 0 .774 2.016l1.516-.763a9.17 9.17 0 0 1-.655-1.701h0z" fill="#fce500"/><path d="M80.372 22.01v-7.155h5.204s1.721.139 2.358.504c1.077.617.943 1.252.943 1.252v5.399h-2.992v-5.594s-.127-.667-1.236-.667-1.236.667-1.236.667v5.594h-3.041zm-17.566-7.155s-1.976.211-1.976 1.968c0 1.882 3.513 3.041 3.513 3.846 0 .252-.26.317-.26.317h-3.48v1.024h5.09s1.903-.212 1.903-1.675c0-2.179-3.773-3.308-3.773-4.204 0-.252.26-.317.26-.317h3.952v-.959h-5.228zm15.685 0v7.155h-5.204s-1.721-.139-2.358-.504c-1.077-.617-.943-1.252-.943-1.252v-5.399h2.992v5.594s.127.667 1.236.667 1.236-.667 1.236-.667v-5.594h3.041z" fill="red"/></g><path d="M77.929 48.426l1.195 2.421 2.625.645-1.971 1.891.281 2.729-2.38-1.263-2.524 1.067.478-2.703-1.762-2.074 2.626-.41 1.43-2.303z"/></svg>