<svg xmlns="http://www.w3.org/2000/svg" width="123.421" height="89.257" xmlns:v="https://vecta.io/nano"><defs><radialGradient id="A" cx="28.267" cy="-28.016" fx="28.267" fy="-28.016" r="6.115" gradientTransform="translate(3.3945711806 72.1768784094) scale(1.3335000277)" gradientUnits="userSpaceOnUse"><stop offset=".832" stop-color="#f88a20"/><stop offset=".857" stop-color="#f78222"/><stop offset=".945" stop-color="#f36b28"/><stop offset="1" stop-color="#f1622a"/></radialGradient></defs><ellipse cx="31.63" cy="27.303" rx="31.63" ry="27.303"/><path d="M26.661 55.858h4.608v17.19c0 2.872-.703 5.492-2.108 7.857s-3.292 4.256-5.657 5.669-4.985 2.12-7.857 2.12c-2.889 0-5.516-.707-7.881-2.12s-4.251-3.303-5.657-5.669S0 75.92 0 73.048v-17.19h4.608v17.19c0 2.027.496 3.875 1.486 5.542s2.324 2.999 3.998 3.998 3.526 1.497 5.554 1.497 3.875-.499 5.542-1.497a11.36 11.36 0 0 0 3.986-3.998c.991-1.667 1.486-3.515 1.486-5.542v-17.19h.001zm18.757 9.355c2.197 0 4.194.538 5.991 1.613a12.22 12.22 0 0 1 4.298 4.309c1.067 1.798 1.602 3.787 1.602 5.969v11.774H52.7V77.104c0-1.997-.71-3.71-2.131-5.139s-3.138-2.144-5.15-2.144c-1.997 0-3.71.715-5.139 2.144s-2.143 3.142-2.143 5.139v11.774h-4.608V77.104c0-2.182.538-4.171 1.613-5.969s2.512-3.233 4.309-4.309 3.787-1.613 5.968-1.613h-.001zm13.274-9.425H63.3v21.2h-4.608z"/><path d="M63.3 76.988c0 2.013.71 3.729 2.132 5.149s3.137 2.132 5.15 2.132v4.608c-2.197 0-4.194-.533-5.991-1.602s-3.23-2.503-4.297-4.309-1.602-3.798-1.602-5.979H63.3v.001zm8.664-11.775h4.608v23.712h-4.608z"/><path d="M24.899 23.21a1.08 1.08 0 0 1 .2.017l.003.074c.002.338.068.671.098 1.008.176 1.982-.163 4.023-1.063 5.804-.312.691-.778 1.292-1.169 1.936l-.036-.013a13.61 13.61 0 0 0-.391-3.471c-.327-1.498-.957-2.916-1.759-4.219 1.305-.58 2.696-.978 4.118-1.135zm-3.786 5.253c.43.017.873-.03 1.286.121-.985.531-1.96 1.11-2.792 1.864-1.163.951-2.13 2.132-2.897 3.421-1.053-.776-1.975-1.717-2.777-2.747 1.965-1.722 4.579-2.641 7.181-2.66z" fill="#23aa4a"/><path d="M25.102 23.301c1.832 2.752 2.59 6.182 2.168 9.457-1.46-.005-2.919-.239-4.302-.709.39-.644.857-1.246 1.169-1.936.9-1.781 1.239-3.822 1.063-5.804l-.098-1.008h0z" fill="#60bb46"/><path d="M9.766 31.274c.649-.081 1.298.17 1.818.544.454.338.638.897.81 1.411l-1.15.417c-.089-.375-.228-.769-.539-1.018-.218-.142-.487-.28-.753-.195-.186.052-.388.182-.396.396.008.157.094.296.163.434.391.655.905 1.251 1.136 1.989.117.349.112.748-.067 1.076-.249.482-.757.793-1.286.866-.389.06-.784-.053-1.135-.216-.411-.183-.793-.46-1.039-.842-.201-.289-.324-.62-.455-.944.346-.161.715-.272 1.069-.418l.032.01c.244.413.485.857.897 1.126.228.156.555.154.767-.028.086-.07.093-.19.07-.29-.079-.404-.328-.744-.54-1.088-.247-.408-.562-.786-.696-1.253-.166-.471-.085-1.029.24-1.414.26-.317.652-.506 1.053-.563h0 0zm2.385 2.581l1.036.488-.041.11c.675.044 1.317.496 1.549 1.138.462-.166.989-.112 1.416.129.55.273.895.864.948 1.466.03.318-.059.633-.182.923l-1.101 2.348-1.047-.489 1.126-2.397a.66.66 0 0 0-.124-.713c-.281-.333-.902-.256-1.066.156l-1.124 2.393-1.048-.491 1.126-2.391c.129-.246.043-.561-.15-.747-.295-.3-.875-.205-1.039.186l-1.125 2.394-1.046-.493 1.892-4.009h0 0z" fill="#0b9445"/><path d="M26.411 38.771l1.046.49-.7 1.484 1.314.617c-.228.245-.51.463-.85.516a1.7 1.7 0 0 1-.946-.104l-.597 1.27c-.089.19-.143.427-.018.615.191.278.511.428.808.565-.141.352-.346.675-.484 1.03-.504-.217-1.02-.489-1.337-.953-.266-.394-.274-.906-.141-1.349.172-.581.474-1.111.724-1.66l-.52-.243.483-1.042.525.247.693-1.485h0 0z" fill="#0c9446"/><path d="M16.353 27.482a14.07 14.07 0 0 1 4.428-3.137c.802 1.303 1.432 2.721 1.759 4.219-.144-.048-.268-.136-.399-.209v.111c-.502-.124-1.023-.135-1.538-.154-1.841-.053-3.699.323-5.35 1.146l-.652.334c.524-.813 1.087-1.606 1.752-2.31h0z" fill="#8cc63f"/><path d="M23.282 40.059a1.47 1.47 0 0 1 1.738-.135l-.471 1.018c-.524-.312-1.265-.232-1.679.227-.276.267-.408.632-.571.97l-.531 1.136-1.098-.515 1.876-3.991 1.036.482-.448.906c.059-.014.102-.059.147-.097h0zm-6.21-1.862c.593-.851 1.818-1.169 2.75-.712.476.218.855.62 1.078 1.091l.226-.476 1.078.51-1.873 3.987-1.083-.507.21-.432c-.392.07-.802.098-1.187-.022-.739-.2-1.344-.815-1.539-1.554-.175-.637-.058-1.355.341-1.885m2.056.216c-.295-.066-.618-.017-.869.154-.35.221-.551.654-.492 1.064a1.1 1.1 0 0 0 .68.891c.537.242 1.238-.042 1.449-.595.279-.602-.121-1.377-.767-1.514h0z" fill="#0b9444"/><path d="M22.968 32.048c1.383.47 2.842.703 4.302.709a13.16 13.16 0 0 1-1.134 3.817c-2.625-1.185-4.822-3.245-6.259-5.732-.063-.115-.107-.239-.153-.361 1.016.616 2.078 1.174 3.208 1.554l.036.013h0 0z" fill="#66bce1"/><path d="M16.709 33.87c.767-1.29 1.734-2.47 2.897-3.421l.092-.035.025.067c.046.122.09.246.153.361 1.437 2.488 3.634 4.547 6.259 5.732-2.034.225-4.113-.095-6.018-.828-1.192-.515-2.374-1.078-3.408-1.876z" fill="#1595d0"/><path d="M46.023 43.088h-9.87c-1.714 0-3.102-1.389-3.102-3.102V29.65c0-1.714 1.389-3.102 3.102-3.102h9.87c1.714 0 3.102 1.389 3.102 3.102v10.326c0 1.723-1.389 3.111-3.102 3.111h0z" fill="url(#A)"/><path d="M52.351 27.848c.018.826-.211 1.512-.773 2.109-.571.598-1.274.791-2.065.835v9.017c0 .246-.053.483-.088.729a2.84 2.84 0 0 1-.299.923c-.246.483-.615.861-1.037 1.195a2.69 2.69 0 0 1-.615.36c-.281.114-.58.193-.896.237-.492.062-.984.026-1.476.035l-8.991.009c-.466 0-.905-.105-1.336-.281-.334-.141-.624-.343-.87-.598l-.536-.571c-.009-.009-.026-.026-.026-.035-.088-.264-.299-.202-.492-.176-.176.026-.36.026-.527.079-.264.079-.554.044-.809.193-.053.026-.114.035-.176.044-.018 0-.062-.053-.062-.07.018-.079.053-.158.079-.237l.316-1.028.193-.598.202-.738.387-1.204.246-.861c.035-.158.07-.325.07-.483v-3.656l-.51.044-.729.105-.22.026c-.105.009-.123-.044-.097-.132l.255-1.063.325-1.362c.035-.185.149-.211.29-.237l.545-.07c.097-.009.141-.053.141-.149l.018-.8c.018-.325.097-.633.229-.923.114-.255.255-.492.395-.729.035-.062.088-.105.132-.158a4.84 4.84 0 0 1 .809-.721c.272-.193.571-.29.87-.404.255-.097.527-.123.8-.123l10.371.009c.29 0 .598.062.87.193l.791.395c.176.105.325.264.466.413.149.158.281.334.413.501a2.84 2.84 0 0 1 .167.272c.044.079.097.114.193.088.176-.035.36-.044.545-.062l.642-.097.624-.07.668-.097.58-.079h0 0zM36.47 38.606l.457-1.635.176-.527.202-.791.36-1.23.431-1.494.158-.589-.36.035c-.026.009-.062.053-.07.079l-.193.65-.272.923-.264.844-.185.712-.483 1.608c-.026.088-.035.176-.053.272-.009.009-.009.018-.018.026l-.026.053c-.035.079-.07.158-.088.237l-.132.483-.413 1.345-.343 1.195-.123.457c-.035.158-.079.211-.246.22l-.729.026-.563.044c0 .044 0 .07.009.088l.193.237c.114.123.22.255.352.343a6.89 6.89 0 0 0 .686.431c.343.193.729.272 1.116.272l9.817.009c.501 0 .984-.053 1.45-.255a2.65 2.65 0 0 0 .87-.58c.202-.211.404-.431.545-.694.132-.237.255-.483.299-.747.053-.334.097-.677.097-1.019v-7.83c0-.035-.009-.07-.009-.114-.009 0-.018-.009-.026-.009-.018.026-.035.044-.044.07l-.123.404-.334 1.081-.202.765-.545 1.819-.334 1.169-.334 1.143-.229.747-.22.765c-.035.123-.105.158-.246.141l-.571-.035-.202-.018h-.554c-.044 0-.088.009-.132.009h-.035a3.97 3.97 0 0 0-1.767.431c-.018-.026-.026-.035-.026-.044l.255-.861.422-1.301.58-1.854.686-2.188.316-1.055c.088-.334.272-.65.316-1.002.018-.149.097-.299.141-.448.009-.026.009-.062.009-.105l-.378.035c-.035.009-.079.053-.097.088l-.448 1.362-.202.668-.404 1.257-.369 1.178-.299.896-.316 1.019-.466 1.45-.255.844c-.026.097-.079.123-.176.123l-.598.009h-.053c-.044 0-.088-.009-.132 0l-1.081.079c-.202.018-.404.07-.598.105-.079.018-.123 0-.132-.097l-.062-.703-.114-1.31-.097-1.222c-.035.026-.062.053-.07.088l-.123.475-.308 1.09-.246.923-.176.703c-.026.105-.018.237-.149.299-.281-.018-.554-.018-.826.062-.018 0-.035 0-.044.009-.044 0-.088-.009-.132 0l-.905.123-.466.097-.413.079c-.009-.035-.009-.053-.009-.07l.202-.765c.105-.264.149-.545.22-.817.009-.018.018-.035.018-.053.114-.264.185-.492.255-.729h0 0zm5.379-3.972l.088-.237.176-.703c.009-.018.018-.026.026-.044h0c.018-.044.035-.079.044-.123l.202-.756.343-1.257c.026-.123.088-.158.202-.158h.105c.149 0 .176-.026.211-.176l.123-.58.308-1.345c.018-.088.062-.123.149-.141l.677-.105.404-.062.589-.114h.018l.29-.044 1.283-.176 1.433-.229c.07-.009.132-.044.193-.07-.026-.053-.053-.105-.088-.149-.149-.193-.281-.404-.457-.58-.325-.334-.729-.563-1.178-.694-.246-.079-.518-.114-.773-.114-3.287-.009-6.565-.009-9.852 0l-.589.026c-.105.009-.202.018-.299.044-.413.105-.8.281-1.143.554-.158.123-.325.237-.448.395-.22.281-.413.571-.518.914-.062.185-.149.36-.167.554-.035.308-.026.615-.035.923-.009.114.035.132.141.114l.791-.141 1.186-.22c.185-.035.378-.044.563-.07l.571-.097.554-.105.536-.053 1.485-.167.87-.07.29-.035.686-.044-.097.448-.255 1.019-.211.817c-.018.079-.018.141.07.123l.65-.105c.097-.018.132 0 .149.097l.246 1.661.088.589.105.615.053.334v.026l.044.316h.044l.123-.606h0 0zm-1.424-5.01l-.923.07-.765.088-.606.062-1.028.123-1.063.158-.615.114-.606.088-.659.123-.975.167-.984.193c-.044.009-.097.053-.105.097l-.158.624-.185.747-.097.422c-.026.114.009.141.114.123.097-.018.202-.026.299-.035l.923-.114 1.345-.185c.088-.009.132.035.105.123l-.29.967-.281.932-.114.413-.457 1.45-.334 1.125-.448 1.433-.475 1.591-.237.791c-.026.088 0 .123.088.105.026 0 .053-.009.079-.018l1.134-.176.545-.053 1.134-.07c.097 0 .132-.035.149-.123l.229-.773.229-.791.281-.914.36-1.195c.044-.141.062-.29.105-.431l.308-.984.36-1.266.316-1.019.387-1.31c.053-.17.17-.264.352-.281.009 0 .026 0 .035-.009l1.028-.158.905-.149c.026 0 .053-.044.062-.07l.176-.659.229-.967.132-.378h0zm1.186 7.277h-.044l-.747-4.913c-.035 0-.07-.009-.097 0l-1.037.149-.932.132c-.07.009-.097.035-.114.088l-.36 1.213-.404 1.45-.308 1.072-.536 1.872-.29.975-.308 1.046c-.053.176-.088.352-.132.536.053 0 .088.009.123 0l.738-.114 1.125-.123c.044-.009.105-.053.114-.088l.167-.615.202-.826.29-.984.211-.826.431-1.573.079-.308h.044l.431 4.913c.044 0 .07.009.105.009l.554-.07 1.301-.07c.035 0 .07.009.097 0 .035-.018.07-.035.088-.07l.404-1.222.501-1.573.668-2.074.343-1.072.255-.8.255-.8.237-.773h-.097l-1.74.237c-.132.018-.237.044-.255.211-.018.141-.062.281-.097.422l-.202.738-.246.975-.229.738-.475 1.775a3.11 3.11 0 0 0-.114.343h0 0zm10.388-8.648l-.571.07-.659.079-.527.053-1.318.202-1.099.149-1.239.202-1.397.211-1.107.167c-.088.009-.105.053-.123.123l-.264 1.169-.105.439c-.018.07 0 .132.088.114l.536-.079.958-.132.809-.114.492-.062-.316.967-.299.975-.606 1.881-.36 1.16-.422 1.31-.448 1.476-.229.729c-.009.044-.009.105.009.141.018.018.088.009.132 0l1.169-.149c.369-.018.747.009 1.116.018.22.009.22.018.281-.193l.264-.905.255-.914.211-.677.308-1.107.387-1.292.413-1.45.334-1.125.325-1.143c.009-.035.053-.079.088-.088l.826-.097c.149-.018.308-.07.457-.088.167-.018.281-.123.422-.193.387-.202.677-.51.905-.87a1.68 1.68 0 0 0 .308-.958h0 0zm-18.843 7.321h.026c.009-.009.018-.026.026-.035l.237-.738.141-.431.132-.492.272-.888c.026-.079 0-.105-.088-.097l-.615.088c-.114.009-.132.053-.132.158v2.434h0z" fill="#3c4a9e"/><path d="M40.425 29.624l-.132.395-.229.967-.176.659c-.009.026-.035.062-.062.07l-.905.149-1.028.158c-.009 0-.026 0-.035.009-.182.018-.299.111-.352.281l-.387 1.31-.316 1.019-.36 1.266-.308.984c-.044.141-.07.29-.105.431l-.36 1.195-.281.914-.229.791-.229.773c-.026.088-.062.123-.149.123l-1.134.07-.545.053-1.134.176c-.026 0-.053.009-.079.018-.088.009-.114-.026-.088-.105l.237-.791.475-1.591.448-1.433.334-1.125.457-1.45.114-.413.281-.932.29-.967c.026-.088-.018-.132-.105-.123l-1.345.185-.923.114-.299.035c-.114.018-.141-.009-.114-.123l.097-.422.185-.747.158-.624c.009-.035.062-.088.105-.097l.984-.193.975-.167.659-.123.606-.088.615-.114 1.063-.158 1.02-.123.606-.062.765-.088.932-.088zm1.186 7.277l.114-.378.475-1.775.229-.738.246-.975.202-.738c.035-.141.088-.281.097-.422.018-.167.123-.193.255-.211l1.74-.237h.097l-.237.773-.255.8-.255.8-.343 1.072-.668 2.074-.501 1.573-.404 1.222c-.009.026-.053.053-.088.07-.026.009-.062 0-.097 0l-1.301.07c-.185.009-.369.044-.554.07-.026 0-.062 0-.105-.009l-.431-4.913h-.044l-.079.308-.431 1.573-.211.826-.29.984-.202.826-.167.615c-.009.035-.07.079-.114.088l-1.125.123-.738.114c-.035.009-.07 0-.123 0l.132-.536.308-1.046.29-.975.536-1.872.308-1.072.404-1.45.36-1.213c.018-.062.044-.079.114-.088l.932-.132 1.037-.149h.097l.747 4.913c.009.035.026.035.044.035h0 0zm10.388-8.648c.009.378-.132.703-.308.993-.22.36-.51.668-.905.87-.141.07-.255.176-.422.193-.149.018-.308.062-.457.088l-.826.097c-.035.009-.079.053-.088.088l-.325 1.143-.334 1.125-.413 1.45-.387 1.292-.308 1.107-.211.677-.255.914-.264.905c-.062.211-.062.202-.281.193L45.1 39.37c-.395.026-.782.097-1.169.149-.044.009-.114.018-.132 0-.026-.035-.026-.097-.009-.141l.229-.729.448-1.476.422-1.31.36-1.16.606-1.881.299-.975.316-.967-.492.062-.809.114-.958.132-.536.079c-.097.009-.105-.044-.088-.114l.105-.439.264-1.169c.018-.07.035-.114.123-.123l1.107-.167 1.397-.211 1.239-.202 1.099-.149 1.318-.202.527-.053.659-.079a3.86 3.86 0 0 1 .571-.105h0z" fill="#f3ee54"/><g fill-rule="evenodd"><path d="M31.334 9.022l-.268-.034-.17 1.195.221.027c.259.05.514.118.764.203l.379-1.149c-.303-.102-.612-.184-.926-.243h0zm-.848-.09c-.409-.023-.818-.01-1.225.039l.146 1.205c.335-.042.673-.054 1.01-.037l.069-1.207h0zm2.319.542l-.473 1.11c.31.134.608.295.889.482l.661-1.008c-.341-.226-.702-.421-1.077-.584h0zm-4.117-.401c-.4.084-.792.202-1.172.355l.45 1.12c.313-.126.636-.224.967-.293l-.245-1.182h0zm5.67 1.322l-.747.952c.267.207.516.437.742.687l.905-.807c-.275-.304-.576-.582-.9-.833h0zm-7.37-.725c-.366.182-.715.397-1.043.64l.725.966c.27-.202.558-.379.859-.531l-.542-1.076h.001zm8.637 2.012l-.967.726c.202.271.379.559.53.861l1.074-.543c-.182-.367-.396-.716-.639-1.045l.002.001zM25.49 10.676c-.306.272-.587.571-.839.892l.95.745c.209-.265.442-.511.695-.734l-.805-.903h0zm-1.177 1.368c-.226.341-.422.701-.585 1.077l1.108.473c.134-.31.295-.608.482-.89l-1.005-.66h0zm-.792 1.622c-.103.303-.184.612-.244.926l-.035.268 1.195.17.028-.221c.05-.259.117-.514.202-.764l-1.146-.379h0zm.869 1.843l-1.207-.069c-.025.409-.014.819.033 1.226l1.205-.146c-.04-.336-.05-.674-.03-1.012h0zm.106 1.487l-1.182.245c.085.401.206.793.36 1.172l1.117-.449c-.127-.314-.225-.638-.294-.969v.001z" fill="#fecb00"/><path d="M30.848 10.848a5.05 5.05 0 0 0-.725-.051l-.008 1.201a3.84 3.84 0 0 1 .552.043l.181-1.193h0zm.578.128l-.319 1.161a3.84 3.84 0 0 1 .521.186l.484-1.105a5.05 5.05 0 0 0-.685-.242h0zm-1.893-.148a5.05 5.05 0 0 0-.713.138l.304 1.163a3.84 3.84 0 0 1 .543-.105l-.133-1.197v.001zm3.104.661l-.609 1.04a3.84 3.84 0 0 1 .457.31l.753-.942a5.05 5.05 0 0 0-.601-.408h0zm-4.379-.342a5.05 5.05 0 0 0-.653.316l.593 1.043a3.84 3.84 0 0 1 .497-.24l-.438-1.119h0zm5.419 1.146l-.859.848a3.84 3.84 0 0 1 .36.42l.975-.718a5.05 5.05 0 0 0-.477-.549h0zm-6.568-.51a5.05 5.05 0 0 0-.549.473l.842.853a3.84 3.84 0 0 1 .42-.359l-.713-.968h0zm-.947.91a5.05 5.05 0 0 0-.41.598l1.036.607a3.84 3.84 0 0 1 .311-.456l-.937-.748h0zm-.682 1.122a5.05 5.05 0 0 0-.246.684l1.16.319a3.84 3.84 0 0 1 .188-.52l-1.102-.482h0zm.82 1.442l-1.195-.182a5.05 5.05 0 0 0-.052.725l1.207.008a3.84 3.84 0 0 1 .04-.551h0zm-.019 1.001l-1.198.134a5.05 5.05 0 0 0 .135.714l1.167-.305a3.84 3.84 0 0 1-.105-.543h0zm.243.97l-1.126.44a5.05 5.05 0 0 0 .305.661l1.054-.6a3.84 3.84 0 0 1-.233-.501h0z" fill="#ffa400"/><path d="M31.659 6.953a9.02 9.02 0 0 0-1.788-.134l.035 1.423c.505-.015 1.01.02 1.507.105l.246-1.393h0zm.552.118l-.335 1.384c.49.119.967.287 1.424.501l.597-1.28a9.02 9.02 0 0 0-1.686-.605h0zm-2.904-.211a9.02 9.02 0 0 0-1.76.332l.397 1.35c.484-.143.982-.237 1.485-.281l-.122-1.4h0zm5.098 1.062l-.679 1.246c.443.241.861.526 1.248.849l.908-1.082a9.02 9.02 0 0 0-1.476-1.013h-.001zm-7.39-.545a9.02 9.02 0 0 0-1.614.774l.737 1.208c.429-.265.884-.486 1.357-.661l-.48-1.321zm9.295 1.928l-.982 1.031c.367.347.698.73.988 1.142l1.162-.813a9.02 9.02 0 0 0-1.169-1.36h0zm-11.375-.838a9.02 9.02 0 0 0-1.36 1.162l1.022.973c.347-.366.73-.696 1.143-.986l-.804-1.149zm12.849 2.674l-1.209.737c.263.43.483.885.656 1.359l1.322-.481a9.02 9.02 0 0 0-.769-1.616h0zm-14.578-1.087a9.02 9.02 0 0 0-1.018 1.471l1.239.676c.242-.443.527-.86.851-1.246l-1.073-.901h.001zM21.94 12.03a9.02 9.02 0 0 0-.611 1.683l1.383.335c.12-.49.289-.966.503-1.422l-1.275-.595h0zm.663 2.481l-1.393-.246a9.02 9.02 0 0 0-.134 1.788l1.423-.035c-.015-.505.02-1.01.105-1.507h0zm-.086 1.983l-1.4.122a9.02 9.02 0 0 0 .332 1.76l1.35-.397c-.143-.484-.237-.982-.282-1.485h0z" fill="#fce500"/><path d="M43.207 22.319l1.065-5.837 4.245.774s1.383.369 1.849.762c.787.664.583 1.162.583 1.162l-.803 4.404-2.441-.445.833-4.563s-.005-.563-.909-.728-1.107.36-1.107.36l-.833 4.563-2.481-.453zm-13.265-8.451s-1.643-.122-1.905 1.311c-.28 1.536 2.413 3.004 2.293 3.66-.038.206-.26.22-.26.22l-2.839-.518-.152.836 4.152.758s1.584.11 1.801-1.083c.324-1.778-2.585-3.26-2.452-3.991.038-.206.259-.22.259-.22l3.224.588.143-.783-4.265-.778zm12.795 2.334l-1.065 5.837-4.245-.774s-1.383-.369-1.849-.762c-.787-.664-.583-1.162-.583-1.162l.803-4.404 2.441.445-.833 4.563s.005.563.909.728 1.107-.36 1.107-.36l.833-4.563 2.481.453z" fill="red"/></g><path d="M74.74 55.501l1.195 2.421 2.625.645-1.971 1.891.281 2.729-2.38-1.263-2.524 1.067.478-2.703-1.762-2.074 2.626-.41 1.43-2.303z"/><path d="M93.998 79.473c-1.321 11.243 7.457 9.758 13.415 9.677 6.853.054 16.156-14.822 16.006-38.318.013-23.276-9.581-38.064-16.306-38.099-6.031.135-14.854-1.198-13.488 9.994 1.475 11.339 6.028 10.588 12.06 10.453 4.259-.076 5.212 9.026 5.288 17.865.06 8.509-.833 17.725-5.092 17.801-6.195-.086-10.689-.634-11.882 10.629h0z" fill-rule="evenodd"/><circle cx="85.733" cy="18.495" r="4.136"/><ellipse cx="71.964" cy="19.645" rx="6.322" ry="7.533"/></svg>