<?xml version="1.0" encoding="utf-8"?>
<!-- Generator: Adobe Illustrator 27.7.0, SVG Export Plug-In . SVG Version: 6.00 Build 0)  -->
<svg version="1.1" id="Layer_1" xmlns:v="https://vecta.io/nano"
	 xmlns="http://www.w3.org/2000/svg" xmlns:xlink="http://www.w3.org/1999/xlink" x="0px" y="0px" viewBox="0 0 114.7 81"
	 style="enable-background:new 0 0 114.7 81;" xml:space="preserve">
<style type="text/css">
	.st0{fill-rule:evenodd;clip-rule:evenodd;}
</style>
<g>
	<g>
		<path class="st0" d="M110.8,62.6c-8.4-9.1-12-5.7-17.4-1.6c-3.8,2.7-10.6-4.8-16.1-12.3c-5.7-7.8-10.8-16.4-7-19.1
			c5.4-3.8,9.9-6.1,3.8-17c-6.1-10.7-13-3.8-18.4,0c-5.9,4.4-4.7,23.6,10.5,44c15.2,20.7,33.1,27.7,39.1,23.2
			C110.6,76,119.3,71.6,110.8,62.6L110.8,62.6z"/>
		<path d="M101.5,3c3.7,6.1,5.2,13.2,4.8,20.1c-0.3,7.1-2.9,13.9-7.3,19.5c-0.3,0.5-0.3,1.1,0.1,1.5l0.2,0.2
			c0.5,0.3,1.4,0.3,1.7-0.2c4.5-6.1,7.3-13.3,7.6-20.9c0.4-7.4-1.4-15-5.3-21.5c-0.3-0.6-1-0.9-1.6-0.3C101.4,1.7,101.2,2.4,101.5,3
			z"/>
		<path d="M93.3,8.4c2.4,4.4,3.6,9.4,3.3,14.3s-2,9.7-5,13.8c-0.3,0.5-0.3,1.1,0.1,1.5l0.2,0.2c0.5,0.3,1.2,0.3,1.7-0.2
			c3.3-4.5,5-9.7,5.5-15.1c0.3-5.3-0.9-10.8-3.7-15.6c-0.3-0.6-1-0.9-1.6-0.3C93.2,7.2,93.1,7.8,93.3,8.4L93.3,8.4z"/>
		<path d="M84.5,13.9c1.3,2.6,1.9,5.4,1.7,8.1c-0.2,2.7-1.1,5.5-2.6,7.9c-0.3,0.5-0.3,1.1,0.1,1.5l0.3,0.3c0.5,0.3,1.2,0.2,1.7-0.4
			c1.8-3,2.8-6,3-9c0.2-3-0.6-6.2-2-9.3c-0.3-0.6-1-0.9-1.6-0.7C84.4,12.6,84.3,13.3,84.5,13.9L84.5,13.9z"/>
	</g>
	<path d="M20.9,55.1h3.6v13.5c0,2.3-0.6,4.3-1.7,6.2c-1.1,1.9-2.6,3.3-4.4,4.4c-1.9,1.1-3.9,1.7-6.2,1.7S7.9,80.3,6,79.2
		s-3.3-2.6-4.4-4.4S0,70.8,0,68.5V55.1h3.6v13.5c0,1.6,0.4,3,1.2,4.3s1.8,2.4,3.1,3.1s2.8,1.2,4.4,1.2s3-0.4,4.3-1.2
		c1.3-0.8,2.4-1.8,3.1-3.1c0.8-1.3,1.2-2.8,1.2-4.3L20.9,55.1L20.9,55.1z M35.6,62.4c1.7,0,3.3,0.4,4.7,1.3c1.4,0.8,2.5,2,3.4,3.4
		c0.8,1.4,1.3,3,1.3,4.7V81h-3.6v-9.3c0-1.6-0.6-2.9-1.7-4c-1.1-1.1-2.5-1.7-4-1.7c-1.6,0-2.9,0.6-4,1.7c-1.1,1.1-1.7,2.5-1.7,4v9.2
		h-3.6v-9.2c0-1.7,0.4-3.3,1.3-4.7c0.8-1.4,2-2.5,3.4-3.4C32.3,62.8,33.9,62.4,35.6,62.4L35.6,62.4z M49.6,55v16.6H46V55H49.6z
		 M49.6,71.6c0,1.6,0.6,2.9,1.7,4s2.5,1.7,4,1.7v3.6c-1.7,0-3.3-0.4-4.7-1.3c-1.4-0.8-2.5-2-3.4-3.4s-1.3-3-1.3-4.7L49.6,71.6
		L49.6,71.6z M56.4,81V62.4H60V81C60,81,56.4,81,56.4,81z"/>
	<polygon points="62.4,60 59.2,59.3 56.6,61.3 56.3,58 53.5,56.2 56.5,54.9 57.4,51.7 59.6,54.2 62.9,54.1 61.3,56.9 	"/>
</g>
</svg>
