<svg xmlns="http://www.w3.org/2000/svg" viewBox="0 0 144 144"><path d="M42.43 74.495v-.001a6.02 6.02 0 0 0-3.225-5.335l-15.512-7.04a.735.735 0 0 0-1.076.649v4.127c0 .55.326 1.026.794 1.242l12.617 5.24c.435.184.74.615.74 1.118v.001c0 .503-.305.933-.74 1.118l-12.617 5.24a1.369 1.369 0 0 0-.794 1.241v4.129a.736.736 0 0 0 1.076.649l15.512-7.04a6.021 6.021 0 0 0 3.226-5.336v-.002Z" fill="#f5b919"/><path d="M51.529 74.496c0 11.795-9.563 21.359-21.36 21.359-11.796 0-21.357-9.564-21.357-21.359 0-11.797 9.561-21.36 21.357-21.36 11.797 0 21.36 9.563 21.36 21.36M30.169 56.8c-9.865 0-17.866 7.922-17.866 17.696 0 9.77 8 17.694 17.866 17.694s17.866-7.924 17.866-17.694c0-9.774-8-17.696-17.866-17.696m66.089 30.143a.922.922 0 0 1-.921-.922V62.97c0-.51.413-.922.92-.922h5.253c.51 0 .922.413.922.922v23.05c0 .51-.412.922-.922.922h-5.252Zm-21.963 0h.002A7.566 7.566 0 0 0 81 82.89l8.848-19.491a.922.922 0 0 0-.815-1.351h-5.189c-.691 0-1.289.409-1.56.997L75.7 78.898c-.231.546-.772.93-1.404.93h-.002a1.524 1.524 0 0 1-1.404-.93l-6.584-15.853a1.719 1.719 0 0 0-1.56-.997h-5.189a.922.922 0 0 0-.816 1.351l8.847 19.49a7.568 7.568 0 0 0 6.705 4.054h.002ZM103.138 52.4a4.254 4.254 0 1 1-8.507-.002 4.254 4.254 0 0 1 8.507.002m18.846 34.543c7.532 0 13.204-4.74 13.204-10.585V62.97a.922.922 0 0 0-.922-.922h-5.255a.92.92 0 0 0-.92.922l-.006 12.14c0 2.615-2.732 4.735-6.1 4.735-3.37 0-6.102-2.12-6.102-4.734l-.005-12.141a.922.922 0 0 0-.922-.922H109.7a.922.922 0 0 0-.922.922v13.388c0 5.845 5.672 10.585 13.205 10.585" fill="#f5b919"/></svg>