<svg xmlns="http://www.w3.org/2000/svg" width="192" height="192" viewBox="0 0 144 144" xmlns:v="https://vecta.io/nano"><path d="M127.96 111.813c0 9.32-7.555 16.875-16.875 16.875H32.338c-9.32 0-16.875-7.555-16.875-16.875V33.066c0-9.32 7.555-16.875 16.875-16.875h78.748c9.32 0 16.875 7.555 16.875 16.875v78.748z" fill="#2dc100"/><path d="M90.762 58.145c-9.08.474-16.975 3.227-23.385 9.445-6.476 6.283-9.433 13.981-8.625 23.525-3.549-.439-6.781-.923-10.032-1.197-1.123-.095-2.455.04-3.406.576-3.157 1.781-6.183 3.792-9.77 6.034.658-2.977 1.084-5.583 1.838-8.09.555-1.843.298-2.868-1.4-4.068-10.899-7.695-15.494-19.211-12.056-31.068 3.181-10.968 10.993-17.62 21.607-21.088 14.488-4.732 30.769.095 39.579 11.597 3.182 4.155 5.133 8.818 5.648 14.334zM48.974 54.45c.084-2.169-1.795-4.122-4.027-4.188-2.285-.067-4.165 1.679-4.231 3.931-.067 2.282 1.678 4.111 3.98 4.17 2.282.058 4.195-1.691 4.279-3.913zm21.802-4.189c-2.24.041-4.133 1.949-4.093 4.126.041 2.257 1.898 4.022 4.201 3.994a4.01 4.01 0 0 0 4.039-4.116c-.019-2.262-1.868-4.046-4.147-4.005zm40.385 64.489c-2.875-1.28-5.512-3.201-8.32-3.494-2.797-.292-5.737 1.321-8.664 1.621-8.914.912-16.9-1.572-23.484-7.662-12.524-11.583-10.734-29.344 3.755-38.837 12.878-8.437 31.763-5.624 40.842 6.082 7.923 10.215 6.992 23.774-2.68 32.356-2.799 2.484-3.806 4.527-2.01 7.801.331.604.369 1.37.562 2.133zM78.434 83.063c1.83.002 3.337-1.431 3.407-3.238a3.41 3.41 0 0 0-3.383-3.527c-1.897-.009-3.487 1.619-3.421 3.505.062 1.801 1.58 3.259 3.397 3.261zm21.097-6.758c-1.776-.012-3.285 1.441-3.357 3.236-.077 1.919 1.414 3.495 3.313 3.499 1.837.006 3.288-1.383 3.355-3.211.071-1.923-1.421-3.511-3.311-3.525z" fill="#fff"/></svg>