<svg xmlns="http://www.w3.org/2000/svg" viewBox="0 0 144 144"><path d="M70.519 13.753c32.329.123 58.124 25.966 58.318 57.9.093 15.356-5.208 28.836-15.517 40.008-9.879 10.705-22.382 16.932-37.014 18.293-15.475 1.44-29.597-2.404-41.808-12.092-12.478-9.9-19.974-22.894-21.854-38.762-2.017-17.024 2.556-32.35 13.832-45.26 12.34-14.13 27.837-19.935 44.043-20.086ZM33.035 52.325l-.06.023-.005.063c-.686.5-.439 1.245-.441 1.886-.022 6.45-.018 12.899-.012 19.348.002 2.513.03 5.025.046 7.538l.01.684-.002.63c.094.592.098 1.218.301 1.77.45 1.226 1.124 2.311 1.886 3.406 1.94 2.788 4.561 4.116 7.818 4.461.373.202.781.141 1.176.141 13.17.004 26.34.003 39.51 0 .36 0 .731.046 1.066-.148l.275-.13c1.091-.47 1.216-1.415 1.215-2.437-.005-8.078 0-16.157-.009-24.235-.001-1.488.109-2.982-.199-4.457.197-.499-.32-.746-.417-1.172-.51-2.234-1.9-3.955-3.613-5.368-1.598-1.319-3.403-2.317-5.557-2.442-.516-.259-1.072-.165-1.61-.165-13.038-.01-26.076-.013-39.114-.01-.428 0-.88-.096-1.279.164-.346-.067-.613.098-.869.297-.117-.008-.164.036-.116.153Zm73.208 39.838c.441-.014.768-.052.896-.645.13-.6.247-1.172.147-1.778.014-.435.041-.87.041-1.306.003-8.657.005-17.313 0-25.97 0-2.509-.025-5.017-.039-7.526l-.005-1.513-.016-.46c.05-.18.029-.334-.159-.425l-.065-.217c-.724-.975-1.66-.822-2.577.422-1.49.747-2.646 1.956-4.007 2.885-1.909 1.302-3.733 2.727-5.64 4.03-1.721 1.175-3.402 2.4-4.99 3.745-.42.356-1.208.218-1.307.983-.283.14-.24.368-.162.604l.007.475c-.02 4.567-.04 9.134-.058 13.701-.001.185.032.36.212.466.22.278.47.512.758.732 1.974 1.508 3.955 3.03 5.992 4.424 3.118 2.135 6.033 4.532 9.147 6.657.503.343 1.05.917 1.825.716Z" fill="#2d8cfe"/></svg>