<?xml version="1.0" encoding="UTF-8"?><svg id="a" xmlns="http://www.w3.org/2000/svg" width="1in" height="1in" viewBox="0 0 72 72"><defs><style>.b,.c{fill:#fff;}.d{fill:#4d4d4d;}.c{stroke:#000;stroke-miterlimit:10;stroke-width:2px;}</style></defs><rect class="b" x=".4929775281" y=".471910114" width="71.0351123611" height="71.035112358"/><circle class="d" cx="36" cy="18.5196629206" r="13.5196629206"/><path class="d" d="m-.0100097656-.0300292969v72.0400390625h72.0400390625V-.0300292969H-.0100097656Zm71.0400390625,71.0400390625l-.1058719935-.3639423499-4.7741328893-17.0360820642c-1.3099975586-6.4099731445-1.5500488281-10.6900024414-7.0800170898-14.7700195312-8.5100097656-6.2699584961-31.2299804688-6.4499511719-41.6000366211-2.2199707031-10.3799438477,4.2299804688-10.5799560547,15.5-10.5799560547,15.5l-5.8169809406,18.7788812873-.0830434735.1111333611V.9699707031h70.0400390625v70.0400390625Z"/><polygon class="d" points="1.8988764045 20.0337078652 1.8988764045 1.7640449438 22.0561797753 1.7640449438 1.8988764045 20.0337078652"/><path class="c" d="m11.6806640625,37.0146484375l-2.3759765625.615234375c-.3525390625.0888671875-.8364257812.1767578125-1.1884765625.1767578125-1.583984375,0-2.9482421875-1.3203125-2.9482421875-2.904296875,0-1.3642578125.8798828125-2.5083007812,2.244140625-2.9047851562l4.3564453125-1.2758789062c1.2763671875-.3520507812,2.2446289062-.572265625,3.1689453125-.572265625h.087890625c1.8481445312,0,3.3442382812,1.4965820312,3.3442382812,3.3447265625v24.8193359375c0,1.84765625-1.49609375,3.3447265625-3.3442382812,3.3447265625-1.8486328125,0-3.3447265625-1.4970703125-3.3447265625-3.3447265625v-21.298828125Z"/><path class="c" d="m25.1000976562,56.552734375l6.0288085938-7.12890625-5.5009765625-6.3369140625c-.748046875-.8798828125-1.1000976562-1.671875-1.1000976562-2.5517578125,0-1.892578125,1.408203125-3.0810546875,3.0805664062-3.0810546875,1.3203125,0,2.244140625.6162109375,3.1245117188,1.716796875l4.3564453125,5.80859375,4.4448242188-5.80859375c.7919921875-.96875,1.7158203125-1.716796875,2.904296875-1.716796875,1.7607421875,0,3.125,1.232421875,3.125,2.904296875,0,.9248046875-.396484375,1.62890625-.9248046875,2.2890625l-5.720703125,6.6884765625,5.8974609375,6.77734375c.748046875.8798828125,1.099609375,1.671875,1.099609375,2.5517578125,0,1.892578125-1.408203125,3.0810546875-3.080078125,3.0810546875-1.3203125,0-2.244140625-.6162109375-3.125-1.716796875l-4.7524414062-6.2490234375-4.7529296875,6.2490234375c-.7919921875.96875-1.7163085938,1.716796875-2.904296875,1.716796875-1.7602539062,0-3.1245117188-1.232421875-3.1245117188-2.904296875,0-.9248046875.3520507812-1.62890625.9243164062-2.2890625Z"/><path class="c" d="m55.50390625,37.0146484375l-2.3759765625.615234375c-.3525390625.0888671875-.8359375.1767578125-1.1884765625.1767578125-1.583984375,0-2.9482421875-1.3203125-2.9482421875-2.904296875,0-1.3642578125.8798828125-2.5083007812,2.244140625-2.9047851562l4.3564453125-1.2758789062c1.2763671875-.3520507812,2.2451171875-.572265625,3.1689453125-.572265625h.087890625c1.8486328125,0,3.3447265625,1.4965820312,3.3447265625,3.3447265625v24.8193359375c0,1.84765625-1.49609375,3.3447265625-3.3447265625,3.3447265625s-3.3447265625-1.4970703125-3.3447265625-3.3447265625v-21.298828125Z"/></svg>