<svg xmlns="http://www.w3.org/2000/svg" width="32.731" height="27.326" viewBox="0 0 24.539 20.494" xmlns:v="https://vecta.io/nano"><path d="M22.446 9.961l.002 1.113v.033c-.068 1.246-.329 2.453-.771 3.619l-.462 1.063a1.12 1.12 0 0 1-.897.638c-.238.035-.454-.054-.637-.196-.23-.178-.422-.409-.433-.704-.008-.2.057-.42.147-.603.304-.618.533-1.263.718-1.922.302-1.073.353-2.175.296-3.279-.039-.755-.181-1.501-.447-2.216l-.603-1.539a1 1 0 0 1 .388-1.245.99.99 0 0 1 1.247.159c.096.111.188.234.247.367l.561 1.356c.269.816.524 1.639.579 2.506l.064.816.001.033v.001zm-3.243-.01l-.001.738c-.026.815-.139 1.615-.413 2.388l-.364 1.01c-.165.409-.665.763-1.29.557-.452-.149-.742-.655-.609-1.128.095-.336.249-.655.34-.992.115-.425.216-.857.278-1.292.049-.345.035-.699.041-1.049.01-.541-.101-1.064-.265-1.575l-.374-1.03c-.248-.621.373-1.292.903-1.278a1.06 1.06 0 0 1 1.072.806l.383 1.141c.169.554.248 1.124.3 1.703l-.001.001z" fill="#70b9f7"/><path d="M10.011 19.152l-1.104-.102a3.64 3.64 0 0 1-.658-.162l-1.258-.453c-.633-.272-1.24-.597-1.771-1.042l-1.088-.965c-.692-.744-1.254-1.577-1.656-2.519-.231-.541-.389-1.102-.536-1.664-.095-.362-.099-.748-.133-1.125l-.031-.723.096-1.208c.218-1.424.761-2.718 1.632-3.874.727-.965 1.608-1.761 2.653-2.371.555-.324 1.148-.576 1.764-.753.509-.147 1.024-.289 1.565-.3l1.34-.08c.324 0 .648.067.972.109l.634.103.852.224c.798.244 1.514.654 2.204 1.109.18.119.361.248.504.406.248.274.3.601.184.96-.149.458-.499.647-.939.698-.133.015-.288-.029-.411-.09-.193-.096-.37-.225-.549-.346-.644-.434-1.33-.778-2.093-.943-.415-.09-.841-.13-1.262-.193-.485-.072-.962-.011-1.442.057-.953.135-1.817.488-2.62 1.002A6.5 6.5 0 0 0 4.403 7.71a7.88 7.88 0 0 0-.472 1.333c-.093.362-.097.747-.135 1.122l-.03.505c-.006.409.084.804.161 1.204a6.08 6.08 0 0 0 .908 2.202c.674 1.027 1.553 1.839 2.676 2.384.53.257 1.087.416 1.648.569.257.07.533.075.802.102l.554.03c.84.008 1.639-.181 2.423-.471.634-.234 1.189-.602 1.746-.966.362-.237.722-.216 1.068-.015.312.181.481.476.485.847a.98.98 0 0 1-.47.871l-1.339.838c-.4.209-.832.371-1.267.497-.516.15-1.045.277-1.577.346-.494.064-1.001.038-1.502.051l-.071-.005v-.002z" fill="#017cfe"/><path d="M15.924 10.186c-.076-.131-.132-.279-.232-.388-.254-.277-.605-.296-.952-.311l-.042.006-.114.006-.042-.005-.081-.005-.043.007-.083.003-.042-.005-.081-.005-.043.005-.206-.006-.104.008-.145-.009-.043.006-.206-.006-.043.006-.206-.006-.043.006-.206-.006-.043.006-.206-.006-.043.006-.206-.006-.043.006-.206-.006-.104.009-.145-.008-.043.007-.083.003-.042-.005-.081-.005-.042.006-.208-.009-.132.017c-.339.037-.577.224-.755.501-.196.295-.185.602-.041.91a.96.96 0 0 0 .796.58l.038.003.146.014.135-.007.113.008.043-.007.051-.004.042.003.113.008.043-.007.051-.003.042.003.143.004.105-.004.143.004.105-.004.143.004.105-.004.113.008.043-.007.206.008.042-.008.331-.004.041-.001c.142.021.098.109.059.182l-.502.915-.029.039-.105.113c-.355.396-.755.737-1.253.938-.273.11-.566.173-.851.257l-.095.023-.06.006-.124.002h-.56l-.588-.099-.212-.071-.038-.014-.501-.222-.026-.019-.032-.015c-.491-.299-.926-.659-1.245-1.145-.008-.019-.014-.039-.025-.055a3.04 3.04 0 0 1-.526-1.47c-.039-.47-.02-.943.146-1.402.178-.492.421-.937.779-1.322a3.31 3.31 0 0 1 2.426-1.106c.107-.003.215.012.32.03.336.059.679.095 1.003.193.283.086.542.251.816.371.414.181.804.087 1.149-.243.286-.273.327-.748.184-1.103-.101-.251-.305-.407-.536-.515l-1.202-.506c-.246-.089-.513-.121-.77-.179l-.824-.062c-.163-.006-.328.016-.491.028l-.426.036-.188.036-.037.016-1.025.304c-.575.194-1.073.525-1.525.921a4.49 4.49 0 0 0-.931 1.102c-.274.388-.47.814-.628 1.261-.207.584-.296 1.186-.296 1.799 0 .277.064.553.087.831.046.542.228 1.046.477 1.519.208.395.435.791.719 1.133a5.31 5.31 0 0 0 2.715 1.765c.308.085.621.179.936.201.405.029.816.008 1.222-.025.486-.039.957-.163 1.412-.341a5.32 5.32 0 0 0 2.881-2.596 5.47 5.47 0 0 0 .396-1.002c.102-.356.166-.727.206-1.096.026-.238-.022-.484-.036-.727h.001z" fill="#012cb7"/></svg>