<svg xmlns="http://www.w3.org/2000/svg" width="74.657" height="17.346" xmlns:v="https://vecta.io/nano"><path d="M8.24 17.341l-1.104-.102a3.64 3.64 0 0 1-.658-.162l-1.258-.453c-.633-.272-1.24-.597-1.771-1.042l-1.088-.965c-.692-.744-1.254-1.577-1.656-2.519-.231-.541-.389-1.102-.536-1.664-.095-.362-.099-.748-.133-1.125l-.031-.723.096-1.208C.319 5.954.862 4.66 1.733 3.504c.727-.965 1.608-1.761 2.653-2.371C4.941.809 5.534.557 6.15.38 6.659.233 7.174.091 7.715.08L9.055 0c.324 0 .648.067.972.109l.634.103.852.224c.798.244 1.514.654 2.204 1.109.18.119.361.248.504.406.248.274.3.601.184.96-.149.458-.499.647-.939.698-.133.015-.288-.029-.411-.09-.193-.096-.37-.225-.549-.346-.644-.434-1.33-.778-2.093-.943-.415-.09-.841-.13-1.262-.193-.485-.072-.962-.011-1.442.057-.953.135-1.817.488-2.62 1.002a6.5 6.5 0 0 0-2.457 2.803 7.88 7.88 0 0 0-.472 1.333c-.093.362-.097.747-.135 1.122l-.03.505c-.006.409.084.804.161 1.204.153.798.468 1.532.908 2.202.674 1.027 1.553 1.839 2.676 2.384.53.257 1.087.416 1.648.569.257.07.533.075.802.102l.554.03c.84.008 1.639-.181 2.423-.471.634-.234 1.189-.602 1.746-.966.362-.237.722-.216 1.068-.015.312.181.481.476.485.847a.98.98 0 0 1-.47.871l-1.339.838c-.4.209-.832.371-1.267.497-.516.15-1.045.277-1.577.346-.494.064-1.001.038-1.502.051l-.071-.005z" fill="#017cfe"/><path d="M20.694 8.14l.002 1.113v.033c-.068 1.246-.329 2.453-.771 3.619l-.462 1.063a1.12 1.12 0 0 1-.897.638c-.238.035-.454-.054-.637-.196-.23-.178-.422-.409-.433-.704-.008-.2.057-.42.147-.603.304-.618.533-1.263.718-1.922.302-1.073.353-2.175.296-3.279-.039-.755-.181-1.501-.447-2.216l-.603-1.539a1 1 0 0 1 .388-1.245.99.99 0 0 1 1.247.159c.096.111.188.234.247.367l.561 1.356c.269.816.524 1.639.579 2.506l.064.816.001.033zm-3.243-.01l-.001.738c-.026.815-.139 1.615-.413 2.388l-.364 1.01c-.165.409-.665.763-1.29.557-.452-.149-.742-.655-.609-1.128.095-.336.249-.655.34-.992.115-.425.216-.857.278-1.292.049-.345.035-.699.041-1.049.01-.541-.101-1.064-.265-1.575l-.374-1.03c-.248-.621.373-1.292.903-1.278a1.06 1.06 0 0 1 1.072.806l.383 1.141c.169.554.248 1.124.3 1.703z" fill="#70b9f7"/><path d="M20.696 9.286v-.033l.008.023zm-.002-1.146l-.001-.033c.003.008.008.015.01.023z" fill="#dae4f6"/><path d="M65.141 10.771c-.1-.316-.311-.556-.551-.77-.373-.333-.812-.556-1.289-.701l-1.431-.423c-.427-.137-.877-.238-1.185-.609-.039-.108-.107-.214-.113-.323-.026-.455.396-.709.779-.761.245-.033.499-.016.748-.003a1.14 1.14 0 0 1 1.077.764l.088.197c.06.106.138.183.276.183l.787.022.105-.006.269.007h.038l.118-.016.035-.006c.188-.043.315-.178.326-.349.011-.16-.067-.326-.107-.489-.113-.328-.212-.661-.439-.94-.289-.354-.622-.647-1.063-.794l-.989-.302-1.269-.005c-.033 0-.066.021-.099.033l-.158.005-.061.021-.559.128-.497.212c-.503.252-.918.599-1.168 1.116a2 2 0 0 0-.261.976c-.007.329.071.643.214.944.23.483.568.854 1.062 1.072l.87.35 1.252.378.962.354c.274.133.478.356.424.703-.015.098-.063.192-.095.288-.197.206-.44.312-.72.361-.267.047-.526.161-.804.086-.091-.024-.178-.068-.267-.1-.374-.133-.705-.32-.881-.7a.52.52 0 0 0-.527-.444l-.032-.002h-.902l-.187.003c-.38.036-.543.257-.457.621a2.53 2.53 0 0 0 .676 1.218c.693.699 1.552 1.05 2.525 1.103.808.044 1.593-.057 2.33-.448.919-.489 1.397-1.368 1.3-2.382-.018-.194-.099-.382-.15-.572z" fill="#012cb7"/><path d="M7.089 11.732l-.026-.019.026.019zm.541.238l-.04-.016.04.016z" fill="#0722ae"/><path d="M47.021 11.19l-.827-.457c-.251-.136-.396-.112-.592.096-.046.049-.082.107-.13.153-.219.21-.42.447-.666.621-.697.492-1.481.68-2.334.597-.417-.041-.829-.107-1.193-.311-.348-.195-.693-.416-.988-.682-.229-.206-.378-.499-.563-.753-.217-.431-.376-.885-.402-1.365-.035-.647-.016-1.293.264-1.902.314-.684.765-1.244 1.422-1.628.883-.516 1.827-.55 2.795-.335.66.147 1.191.509 1.614 1.032l.259.307c.102.104.229.161.373.083l1.079-.605c.217-.138.26-.337.181-.534-.037-.061-.066-.128-.112-.181l-.525-.574-.605-.54-.157-.099-.028-.021-.029-.018-.19-.117v.094h0v-.094c-.124-.073-.241-.163-.373-.215l-1.036-.376c-.457-.174-.938-.145-1.412-.178-.172-.012-.347.013-.521.022l-.394.027-.713.163c-.046.018-.091.042-.138.054-.451.11-.867.301-1.258.548-.664.42-1.215.955-1.627 1.626-.014.014-.032.027-.043.043-.545.812-.79 1.723-.846 2.684-.022.385.006.78.066 1.162.063.404.144.818.297 1.194.485 1.19 1.31 2.1 2.422 2.75.402.235.834.398 1.285.503.291.068.588.132.885.147.472.023.955.062 1.417-.011.729-.117 1.438-.34 2.064-.758.572-.382 1.097-.814 1.479-1.395.08-.122.158-.245.118-.401-.034-.183-.175-.273-.318-.356z" fill="#0421b0"/><path d="M74.598 8.654c-.005-.412-.114-.796-.285-1.166-.163-.279-.299-.579-.494-.834-.458-.603-1.131-.86-1.839-1.02-.446-.101-.908-.099-1.364-.028-.667.129-1.279.383-1.822.81-.007-.107.014-.191.013-.275l-.026-3.039c-.002-.2-.094-.299-.297-.359l-.077-.016-.064-.002h-.03-.094-.03-.467-.03-.094-.03-.094l-.061-.001c-.437-.047-.633.133-.631.601l.005 8.172.003 2.12c.001.217.189.43.401.433l.994-.018.04-.003.202-.006c.253-.026.382-.163.387-.41l.028-1.698-.002-2.478c-.005-.388.026-.762.192-1.119.207-.447.516-.796.978-.987a1.9 1.9 0 0 1 1.112-.12c.408.082.768.25 1.041.581.36.436.492.956.5 1.496l.009 4.258c0 .302.088.412.368.48l.038.007.085.011.04-.002.893.001.039.003.118.001.098-.022a.33.33 0 0 0 .279-.304c.014-.101.03-.202.029-.303L74.6 8.654zm-60.407-.302c-.076-.131-.132-.279-.232-.388-.254-.277-.605-.296-.952-.311l-.042.006-.114.006-.042-.005-.081-.005-.043.007-.083.003-.042-.005-.081-.005-.043.005-.206-.006-.104.008-.145-.009-.043.006-.206-.006-.043.006-.206-.006-.043.006-.206-.006-.043.006-.206-.006-.043.006-.206-.006-.043.006-.206-.006-.104.009-.145-.008-.043.007-.083.003-.042-.005-.081-.005-.042.006-.208-.009-.132.017c-.339.037-.577.224-.755.501-.196.295-.185.602-.041.91a.96.96 0 0 0 .796.58l.038.003.146.014.135-.007.113.008.043-.007.051-.004.042.003.113.008.043-.007.051-.003.042.003.143.004.105-.004.143.004.105-.004.143.004.105-.004.113.008.043-.007.206.008.042-.008.331-.004.041-.001c.142.021.098.109.059.182l-.502.915-.029.039-.105.113c-.355.396-.755.737-1.253.938-.273.11-.566.173-.851.257l-.095.023-.06.006-.124.002h-.56l-.588-.099-.212-.071a.44.44 0 0 1-.038-.014l-.501-.222-.026-.019-.032-.015c-.491-.299-.926-.659-1.245-1.145-.008-.019-.014-.039-.025-.055a3.04 3.04 0 0 1-.526-1.47c-.039-.47-.02-.943.146-1.402.178-.492.421-.937.779-1.322a3.31 3.31 0 0 1 2.426-1.106c.107-.003.215.012.32.03.336.059.679.095 1.003.193.283.086.542.251.816.371.414.181.804.087 1.149-.243.286-.273.327-.748.184-1.103-.101-.251-.305-.407-.536-.515l-1.202-.506c-.246-.089-.513-.121-.77-.179l-.824-.062c-.163-.006-.328.016-.491.028l-.426.036-.188.036-.037.016-1.025.304c-.575.194-1.073.525-1.525.921a4.49 4.49 0 0 0-.931 1.102c-.274.388-.47.814-.628 1.261-.207.584-.296 1.186-.296 1.799 0 .277.064.553.087.831.046.542.228 1.046.477 1.519.208.395.435.791.719 1.133a5.31 5.31 0 0 0 2.715 1.765c.308.085.621.179.936.201.405.029.816.008 1.222-.025.486-.039.957-.163 1.412-.341a5.32 5.32 0 0 0 2.881-2.596 5.47 5.47 0 0 0 .396-1.002c.102-.356.166-.727.206-1.096.026-.238-.022-.484-.036-.727zm21.246-.555l-.933.002-3.235-.001c-.355 0-.564.21-.566.563v.681a.58.58 0 0 0 .524.596l.042.006 2.82-.007.094.024c-.022.112-.028.23-.069.334l-.304.697-.736.744c-.459.389-.996.641-1.584.772-.193.043-.396.044-.595.048-.274.006-.554.032-.821-.013-.474-.08-.902-.297-1.306-.552-.322-.203-.613-.437-.854-.742-.211-.267-.354-.564-.501-.863-.043-.119-.099-.234-.127-.356a4.49 4.49 0 0 1-.104-1.436c.033-.343.102-.676.239-.983.615-1.378 1.691-2.105 3.206-2.177.456-.022.899.083 1.327.209a2.67 2.67 0 0 1 1.154.694l.477.487c.137.136.313.183.482.1.296-.146.588-.305.864-.485.355-.231.383-.596.113-.927-.456-.559-.995-1.026-1.634-1.358-.394-.205-.801-.402-1.253-.464l-.334-.07a4.27 4.27 0 0 0-1.147-.116l-.068.002-.62.042-.126.026-.248.036-.029.004-.313.061-.063.022-.192.055c-.516.131-.982.369-1.424.658-.54.339-.968.795-1.351 1.297-.224.379-.484.742-.662 1.141-.24.538-.401 1.108-.389 1.71l-.009.409.003.116v.039c.02.27.013.546.066.81.069.345.163.689.289 1.016a6.58 6.58 0 0 0 .469.963c.288.489.693.887 1.095 1.281.395.387.893.625 1.386.857.334.158.698.232 1.069.285.476.067.945.15 1.431.114.391-.029.782-.059 1.149-.188.457-.16.915-.331 1.343-.552 1.411-.73 2.245-1.894 2.543-3.447.093-.484.117-.971.126-1.462a.74.74 0 0 0-.715-.705z" fill="#012cb7"/><path d="M57.09 13.59c.008-.017.004-.024 0-.031l-.005-.17V6.045c0-.309-.184-.492-.498-.498h-.067l-.898-.001-.25.023c-.227.093-.337.257-.314.506.009.097.001.196.001.294v.497c-.055-.019-.075-.045-.089-.073a2.12 2.12 0 0 0-.706-.845c-.367-.258-.775-.423-1.213-.5a4.82 4.82 0 0 0-.795-.06 2.99 2.99 0 0 0-.624.06c-.252.052-.496.137-.744.208l-.454.19c-.666.341-1.167.85-1.515 1.509l-.023.04c-.241.384-.385.811-.484 1.245-.121.53-.142 1.073-.075 1.617.055.446.146.881.315 1.299.362.892.925 1.612 1.775 2.098.816.466 1.68.64 2.605.451a3.57 3.57 0 0 0 1.886-1.051c.033-.034.073-.06.14-.114v.638c.002.207.121.377.309.45l.037.006.085.012.04-.001 1.038.004a.48.48 0 0 0 .519-.363c.009-.017.004-.024.001-.031l.001-.061zm-2.371-2.321l-.143.2c-.685.875-1.613 1.135-2.606.843-.594-.175-.989-.619-1.299-1.138-.145-.329-.272-.664-.315-1.023a2.92 2.92 0 0 1 .029-.915c.077-.394.198-.762.433-1.086.349-.481.815-.779 1.401-.915.352-.081.682-.044 1.023.034a2.2 2.2 0 0 1 1.525 1.197c.184.357.275.748.294 1.155a3.42 3.42 0 0 1-.343 1.649z" fill="#0624b0"/></svg>