<svg xmlns="http://www.w3.org/2000/svg" width="1920" height="1080" xmlns:v="https://vecta.io/nano"><path d="M531.224 1036h0 0 0z" fill="#34504d"/><path d="M370.806 1041.441l.027.065-.027-.065zM731.12 1036l-.006-.026.005.026h0z" fill="#ffdf3d"/><path d="M628.297 610.74c-.764-1.449-2.352-2.206-3.951-1.878l-14.469 2.888a3.76 3.76 0 0 0-1.738.871l-18.904 17.039a2.69 2.69 0 0 0-1.721-.266c-2.178.391-3.058 2.866-3.507 4.983l-5.484 4.942c-.358.321-.641.701-.845 1.118l-59.181 6.349L476.526 605l1.443.654-3.919-3.119-3.285-3.27c-1.703-1.635-3.672-2.972-5.846-3.993l-.041-.032-.132-.06-.836-.543c23.421-4.719 40.814-25.473 41.105-49.632l.049-.002-.055-2.248v-.026l-.008-.441-.031-.756-.017-.607h-.008l-1.402-34.417c8.452-2.076 15.18-4.436 18.546-5.704 9.877-3.72 9.952-4.925 10.019-6.089.087-1.478.251-4.519-21.256-9.363-1.426-19.399-7.305-32.956-17.977-41.377-9.19-7.253-21.82-10.493-38.629-9.906-17.134.604-32.437 7.267-41.984 18.281-8.744 10.087-12.504 23.432-10.873 38.591l.135 1.241c-.641 3.629-.914 7.319-.765 11.004l.424 10.434-4.944.204a3.57 3.57 0 0 0-2.489 1.146 3.56 3.56 0 0 0-.95 2.58l.806 19.711c.032.96.436 1.847 1.14 2.5a3.56 3.56 0 0 0 2.437.958c.05 0 .1-.001.15-.003l5.043-.205c1.198 9.943 8.356 33.794 25.996 46.74l.464 11.381-.004.002.002.05c-9.067 5.753-14.397 15.821-13.963 26.525l.209 190.416h4.023c-.671 22.408.772 55.474 4.643 106.576l-25.709 101.642-1.697 6.693h-.001l-.371 1.468-.662 2.613h.001l-1.362 5.385h63.035l-.003-2.422-.061-.237a11.45 11.45 0 0 0-.085-.482l-.043-.223c-.105-.499-.279-1.2-.528-2.02h.194l-1.02-2.322-.011-.026-.22-.517-.537-1.217h-.044c-2.785-5.567-8.476-12.059-20.064-13.959-.17-.028-.352-.051-.526-.077l30.013-97.73 1.484-6.402 5.01 10.586 10.365 102.259.003-.001.54 5.326h-.044l.224 1.781.001.011.033.261.933 7.413h58.577l-.007-2.949-.195-.182c-.232-.909-.771-2.738-1.778-4.994l-.06-.137-.128-.285-.02-.044-.393-.876h-.029c-3.036-6.091-9.33-14.273-21.671-16.304a48.41 48.41 0 0 0-2.707-.357l-3.326-95.673 7.002-102.577h6.929l.035-2.005c.01-.585.856-58.746-13.516-118.7l70.843-30.112 15.276-5.787c5.003-.979 13.648-3.708 16.931-11.106 3.212-7.239 3.45-18.065 3.355-23.226l9.893-9.614a3.63 3.63 0 0 0 .691-4.334zm-136.632 36.287l-40.683-43.043a21.09 21.09 0 0 0-5.561-4.067c-.526-.264-1.06-.497-1.6-.714l-.273-.11a20.66 20.66 0 0 0-1.564-.531l-.317-.09-.429-.122.684-.089.465-.054c.486-.047.974-.083 1.466-.103l3.741-.153 5.412-.219 1.767-.1.14-.008 1.766-.096c.199-.008.389-.002.586-.007a24.34 24.34 0 0 1 1.28-.008l.015.002c.185.03.37.071.555.108l.52.102c.173.039.34.089.51.134l.568.152c.194.058.387.126.58.192l.481.163c.2.074.399.158.598.239l.34.141c.099.087.204.172.281.263 10.981 12.721 20.602 28.841 28.672 48.017zm-51.697-52.612c-.119.02-.237.048-.356.069a30.26 30.26 0 0 0-1.83.388l-.619.159a30.26 30.26 0 0 0-1.73.517l-.41.132a30.08 30.08 0 0 0-2.088.815c-.033.014-.067.024-.099.039l-.266-6.524c.083.048.169.088.253.135.696.396 1.398.776 2.109 1.13a42.2 42.2 0 0 0 2.2 1.007l.367.157a41.48 41.48 0 0 0 2.205.845l.314.106a41.3 41.3 0 0 0 2.256.703c.021.006.042.014.064.02-.06.005-.119.017-.178.023a30.13 30.13 0 0 0-2.19.28zm67.361-104.655l.637-.216.025-.009.582-.205.081-.029.44-.161c6.874 1.534 14.531 3.735 17.74 5.252-3.93 1.946-14.013 5.75-25.784 8.518l-.08.019-.236.054-1.687.382-.681.148-1.266.266-.776.158-1.148.222-.821.156-1.14.201-1.332.223-1.302.205-.839.117-1.079.149-.726.087-1.175.138-.504.049c-2.161.219-4.196.341-6.092.362l-.378.006c-.354.002-.698-.005-1.043-.01l-.638-.012-.888-.037-.773-.045-.749-.058-.927-.096-.564-.066a29.03 29.03 0 0 1-1.455-.227l-1.557-.288c-6.73-1.243-13.963-2.581-21.749-4.666l-.272-.074-2.216-.614-.537-.155-2.001-.592-.664-.203-1.945-.615-.698-.226-2.027-.684-.625-.214-2.402-.865-.273-.099-.154-.059 1.217.094.766.059 1.67.124.225.017 1.771.125.062.004 1.753.116.024.002c5.691.366 10.395.552 14.065.552l.238-.001.164-.001.915-.007 1.038-.02c8.435-.228 15.863-.879 22.259-1.724 8.223-1.087 14.739-2.495 19.493-3.743l.043-.012.043-.012.06-.016 1.211-.328.348-.097 1.041-.296.123-.035 1.003-.299.28-.086.819-.256.086-.027.792-.258.193-.064zm-6.462 51.329l-23.507.959c-.52.021-1.038.022-1.557.026l-.671.01c-.153-.001-.305-.012-.457-.015-21.546-.441-39.621-16.502-42.722-37.645-.007-.051-.018-.102-.025-.153a44.41 44.41 0 0 1-.198-1.686l-.064-.56c-.039-.432-.06-.87-.087-1.306l-.06-.921-.044-1.068 1.419.545 1.348.518 1.63.591 1.128.407 1.659.566 1.054.356 1.668.536.998.316 1.692.511.916.272 1.726.49.838.233 1.754.469.755.197 1.803.454.64.157 1.873.446.505.116 1.978.445.289.063c4.658 1.018 9.106 1.843 13.352 2.626l1.505.278c.115.021.236.035.352.055a33.81 33.81 0 0 0 1.328.207c.2.026.405.045.607.068l1.167.12.639.045 1.201.069.628.021 1.276.023.298.005c.068 0 .138-.005.206-.005a62.79 62.79 0 0 0 2.643-.063l.114-.006a74.97 74.97 0 0 0 2.738-.181l.152-.012c.921-.079 1.843-.175 2.763-.283l.273-.033a108.71 108.71 0 0 0 5.455-.803l.257-.044 2.537-.469.343-.068 2.304-.475.163-.035.044-.009.201 4.924 1.17 28.72zm-85.52-86.066c8.807-10.16 23.038-16.312 39.043-16.876 33.712-1.191 49.917 13.479 52.405 47.481l-.062.022-.345.119-.177.06-.444.148-.132.044-.656.212-.146.046-.574.179-.276.084-.526.159-.315.093-.578.168-.336.096-.656.184-.319.088-1.042.28-.084.024c-8.166 2.139-21.844 4.789-40.699 5.3-6.025.161-16.411-.396-30.037-1.605l-6.245-.576-.218-.021-13.285-1.362-.095-.01-.985-.108-.316-.035-.735-.082-.255-.028-.792-.089-.312-.035-.491-.056-.141-.016-.225-.026c-1.082-13.33 2.379-25.01 10.051-33.862zm-13.229 81.413l-4.453.181-.766-18.736 4.45-.183v.002l8.102-.335.767 18.742-8.101.327v.002zm4.348 3.908l7.998-.325-1.101-26.901-8.101.334-.423-10.43a47.32 47.32 0 0 1 .659-10.005l4.89.539.346.037.918.098.505.054 1.048.111 1.121.117.267.028 1.117.115 6.69.666 2.659 1.229.75.331 1.511.667.119 2.955c.013.311.043.617.061.926l.1 1.507c.019.204.048.404.07.607l.217 1.845c.009.065.022.13.032.195 1.588 10.883 6.805 20.817 15.004 28.374 6.42 5.918 14.147 9.885 22.465 11.668l.149.032a47.74 47.74 0 0 0 2.011.38l.492.081a49.67 49.67 0 0 0 1.683.231l.783.091a47.2 47.2 0 0 0 1.413.122l1.018.071c.399.021.799.031 1.2.042l1.208.028c.058 0 .115.004.173.004.459 0 .92-.015 1.381-.028l.631-.01 23.412-.955c-.394 23.671-18.63 43.74-42.369 46.146-.264.028-.516.047-.773.07l-1.197.092-7.744-3.517 4.63 3.596c-6.622-.072-12.803-1.697-18.449-4.852-1.19-.665-2.358-1.391-3.498-2.192-16.755-11.748-23.848-34.793-25.076-44.173zm45.928 495.576h-53.207l.33-1.303h52.445a23.42 23.42 0 0 1 .432 1.303zm-2.451-5.385h-49.392l1.236-4.877.041-.021.649-.32.066-.031.724-.338.177-.081.859-.377.286-.122.966-.395.354-.139 1.094-.415.379-.136 1.115-.387.451-.148 1.186-.371.434-.131 1.427-.397.515-.135 1.525-.368.533-.118 1.656-.336.482-.085 1.713-.277.412-.058a54.32 54.32 0 0 1 1.82-.217l.439-.046a53.04 53.04 0 0 1 2.008-.148l.489-.026a51.41 51.41 0 0 1 2.094-.055h.46c.735.002 1.479.018 2.233.054l.327.019a48.72 48.72 0 0 1 2.452.19c.995.105 1.894.223 2.745.362 8.627 1.414 13.404 5.745 16.044 9.931zm-20.039-14.5c-.07-.005-.139-.006-.209-.011a55.2 55.2 0 0 0-1.698-.088l-.595-.017-1.432-.017c-.165 0-.33-.002-.494 0-.611.006-1.216.022-1.813.048l-.445.024-1.379.087-.585.047-1.355.133-.402.042-1.629.215-.556.086-1.1.18-.595.105-1.227.239-.596.126-1.126.254-.623.151-.821.208-.611.161-1.098.309-.702.211-.648.2-.642.207-.546.183-1.059.369-.472.169-.613.231-.397.152-.57.224-.345.14-.45.183 24.796-98.031-.025-.332c-3.885-51.239-5.332-84.295-4.654-106.599h60.569l-20.982 90.564v.001l-2.653 11.45-30.217 98.396zm56.126 18.582h49.888c.187.467.348.904.488 1.303h-50.212l-.164-1.303zm47.908-4.082h-48.391l-.752-7.424.04-.02.623-.298.292-.134.39-.176.801-.35.205-.087c2.085-.879 4.977-1.937 8.455-2.796l.222-.054a57.16 57.16 0 0 1 1.76-.397l.461-.095 1.176-.223 1.078-.183.867-.129 1.298-.169.806-.087 1.384-.123.52-.04c.62-.04 1.25-.067 1.886-.085l.442-.011c.679-.013 1.365-.014 2.06.002l.235.007a47.49 47.49 0 0 1 2.267.112c1.408.099 2.808.261 4.161.484 9.456 1.555 14.798 7.315 17.712 12.276zm-27.161-112.507l-.007.105 3.318 95.449c-.117-.004-.23-.001-.347-.004l-1.794-.019-.028.001a54.75 54.75 0 0 0-1.972.056l-.19.009a59.5 59.5 0 0 0-21.385 5.166l-9.849-96.99-.166-.334c-2.349-4.716-4.804-9.988-7.303-15.676l12.403-53.533 8.49-36.633h25.821l-6.991 102.403zm13.978-106.486H419.158l-.184-167.028a30.14 30.14 0 0 0 .923 1.516c.09.139.184.276.277.414a30.19 30.19 0 0 0 .815 1.158l.315.423c.379.494.768.981 1.18 1.455l.1.115 48.276 41.284c.57.487 1.156.946 1.749 1.392l.401.299a35.72 35.72 0 0 0 1.789 1.231c.083.053.167.102.25.154a35.55 35.55 0 0 0 1.688.997l.392.218a35.43 35.43 0 0 0 1.9.951c.127.059.255.113.383.17.582.261 1.169.506 1.762.734l.318.125a34.97 34.97 0 0 0 1.996.674l.461.136c.65.189 1.304.364 1.963.515.043.01.085.022.127.032.69.155 1.385.283 2.083.396l.491.076a34.86 34.86 0 0 0 2.092.25c.078.007.156.009.234.016a34.83 34.83 0 0 0 1.943.097l.471.01.344.008a34.92 34.92 0 0 0 1.824-.049c.097-.005.195-.016.292-.022.627-.038 1.254-.095 1.881-.167l.632-.079a35.17 35.17 0 0 0 1.737-.276l.45-.08a35.16 35.16 0 0 0 2.127-.492c.168-.044.334-.095.502-.142.563-.157 1.123-.328 1.681-.514l.584-.197a36.04 36.04 0 0 0 2.083-.798c12.61 52.955 13.274 104.349 13.266 115.001zm59.775-150.481l-70.199 29.835-.001-.003-2.183.931-.029.012-2.186.933a30.99 30.99 0 0 1-32.422-4.992l-48.043-41.086c-4.686-5.454-6.845-12.468-6.187-19.403a25.99 25.99 0 0 1 1.608-6.849l4.677-12.2a9.63 9.63 0 0 1 6.032-5.704l.37-.121a15.52 15.52 0 0 1 1.353-.329 15.62 15.62 0 0 1 2.97-.28c2.488.003 4.983.596 7.298 1.76a16.93 16.93 0 0 1 4.456 3.251l54.879 58.064-3.53-9.443-2.103-5.427-.621-1.537-1.673-4.022-.593-1.394-2.26-5.066-.383-.813-1.989-4.159-.724-1.459-1.928-3.761-.556-1.064-2.505-4.557-.607-1.049-2.042-3.463-.787-1.292-2.339-3.697-.291-.461L517 651.051l58.953-6.324-4.679 3.57 9.609 12.612-.352.149.001.002zm19.278-11.442a10.34 10.34 0 0 1-.439.874c-1.127 1.998-2.973 3.709-5.501 5.095l-.005.003c-.01.006-.022.011-.032.016-.914.498-1.915.946-2.98 1.349a29.81 29.81 0 0 1-2.679.874l-.016.007c-1.587.429-2.971.676-3.869.808l-7.296-9.576 8.949-6.823h-.003l1.465-1.118.03-.97c.001-.017.043-1.303.227-2.832a25.23 25.23 0 0 1 .226-1.522l.002-.01a15.08 15.08 0 0 1 .297-1.325l.048.086.248.459.055.106.267.539.009.02.209.452.032.072.144.333 1.011 2.461 11.524-8.79a.64.64 0 0 1 .642-.102c.085.032.366.16.429.466.011.06.025.121.027.187l-.078 2.749-.033.823c-.27 5.312-1.011 9.914-2.144 13.309-.237.709-.492 1.373-.764 1.98zm10.82-3.361c-1.55 3.492-4.943 5.678-8.175 7.023.117-.18.22-.368.328-.552.068-.116.141-.229.206-.346a14.34 14.34 0 0 0 .55-1.103c.323-.721.629-1.513.908-2.35.155-.463.302-.943.442-1.438.046-.164.088-.338.133-.505l.266-1.025c.05-.207.094-.425.142-.637l.215-.987.132-.707.181-1.006.118-.767.152-1.035.101-.816.125-1.074.083-.855.099-1.122.064-.89.052-.726 6.866-6.672c-.13 5.106-.741 12.526-2.987 17.588zm6.931-27.111v-.002l-10.787 10.484c-.019-.078-.047-.153-.07-.229-.026-.091-.05-.182-.082-.27-.035-.1-.079-.195-.121-.291-.036-.084-.07-.169-.111-.25-.048-.096-.104-.186-.159-.278-.045-.076-.087-.154-.137-.227-.061-.091-.13-.175-.197-.261-.053-.067-.102-.137-.158-.202-.074-.085-.157-.163-.237-.243-.058-.057-.112-.118-.173-.173-.09-.08-.187-.152-.284-.226-.06-.046-.116-.096-.178-.139-.112-.078-.232-.145-.352-.214-.053-.031-.103-.066-.158-.095a4.91 4.91 0 0 0-.553-.248 4.72 4.72 0 0 0-4.551.682l-6.05 4.614 17.58-15.846 12.952-2.586-6.175 6zM470.08 554.76a11.26 11.26 0 0 0 .794 2.471c1.827 4.071 5.945 6.843 10.52 6.843a10.28 10.28 0 0 0 .463-.01 11.34 11.34 0 0 0 3.056-.55c4.212-1.372 7.423-5.131 7.929-9.697a3.25 3.25 0 0 0-.004-.624c-.002-.024.002-.048 0-.072-.013-.114-.049-.224-.073-.336-.026-.118-.04-.238-.079-.352-.004-.012-.011-.022-.015-.033-.149-.426-.382-.823-.698-1.162-.228-.244-.495-.433-.776-.596-.523-.304-1.116-.473-1.744-.454-.014 0-.028-.003-.042-.003h-.001l-.192.008-16.019.652c-.677.028-1.315.272-1.847.671-.034.026-.074.043-.108.07-.113.092-.209.205-.31.312-.063.066-.135.121-.192.193-.107.135-.177.269-.254.4-.041.069-.093.133-.129.204-.098.2-.172.409-.228.623-.003.011-.009.021-.012.032a3.25 3.25 0 0 0-.044 1.338c.004.023.001.047.006.07zm18.538-.457c-.577 2.376-2.314 4.308-4.549 5.184a7.35 7.35 0 0 1-2.376.499 7.45 7.45 0 0 1-4.553-1.341c-1.297-.904-2.303-2.211-2.815-3.756l14.293-.586z"/><path d="M1837.97 1046.25c-3.72-2.49-8.87-4.04-14.55-4.04H1379.9l-5.42-551.48c23.3-.22 42.16-12.09 42.16-26.68v-17.99c0-.05 0-.09-.01-.14l12.22-4.08c5.4 3.21 11.52 4.9 17.75 4.9 19.23 0 34.87-15.64 34.87-34.87S1465.83 377 1446.6 377s-34.87 15.64-34.87 34.87a34.64 34.64 0 0 0 5.68 19.06l-4.81 14.42-.32.95-.4 1.2.4-.13v16.68c0 13.1-16.92 23.75-37.83 23.96l-1.26-128.34c65.15-2.95 117.29-35.63 121.52-76.35 9.98 9.11 23.28 14.68 37.87 14.68 31.03 0 56.18-25.15 56.18-56.18V165.1c10.45 11.4 25.24 20.55 44.94 20.55v-22.47c-13.52 0-23.65-6.87-31.29-16.72-7.81-10.06-12.26-20.19-13.88-28.22h-22.24v123.58c0 18.62-15.09 33.71-33.71 33.71-18.61 0-33.7-15.09-33.7-33.71 0-18.61 15.09-33.7 33.7-33.7v-22.47c-22.79 0-42.41 13.57-51.23 33.08-2.95 6.54-4.69 13.76-4.92 21.35v37.87c0 36.82-45.56 67.1-103.36 70.12l-1.98-202.35c21.32-1.5 37.96-12.81 37.96-26.51v-17.99c0-.76-.98-1.36-2.18-1.36-1.21 0-2.19.6-2.19 1.36v17.99c0 12.2-14.69 22.28-33.62 23.77l-.31-31.77c-.04-2.45-3.23-4.43-7.16-4.43s-7.12 1.98-7.16 4.43l-.74 74.77c-41.42-2.48-73.92-24.3-73.92-50.78V96.9c0-.4-.13-.77-.36-1.12.14-3.48.17-6.3.17-16.68l-.27-18.93c-.23-4.88-1.01-8.22-2.14-11.13-1.15-3.07-2.96-5.84-5.29-8.13-2.29-2.34-5.07-4.15-8.13-5.3-2.93-1.13-6.27-1.91-11.15-2.13-4.9-.22-6.45-.28-18.92-.28-12.45 0-14.02.06-18.91.28-4.89.23-8.23 1-11.15 2.13a22.42 22.42 0 0 0-8.13 5.3c-2.33 2.29-4.14 5.06-5.29 8.13-1.14 2.91-1.91 6.25-2.14 11.13-.22 4.9-.27 6.46-.27 18.94l.27 18.91c.23 4.89 1 8.22 2.14 11.14 1.17 3.02 2.74 5.58 5.29 8.13 2.55 2.56 5.11 4.13 8.13 5.3 2.92 1.14 6.25 1.91 11.14 2.13 4.9.22 6.46.28 18.93.28 12.46 0 14.02-.06 18.92-.28 4.88-.22 8.22-.99 11.14-2.13a22.15 22.15 0 0 0 6.74-4.01v16.62c0 29.66 36.64 54.05 83.15 56.57l-3.39 344.78c-21.08-.09-38.18-10.8-38.18-23.97v-17.99c0-.75-.97-1.36-2.18-1.36s-2.18.61-2.18 1.36v17.99c0 14.66 19.05 26.59 42.51 26.69l-4.94 502.94H1058.2l-6.1-363.28c28.02-.15 50.69-8.5 50.69-18.75v-12.66c0-.53-1.17-.95-2.62-.95s-2.62.42-2.62.95v12.66c0 9.2-20.34 16.69-45.48 16.84l-1.52-90.23c81.75-2.17 146.45-27.1 146.45-57.46v-34.14l-2.44-6.44-15.05-39.79-16.72 6.32-7.24-19.15 16.73-6.33-5.53-14.61c-6.29-16.61.08-29.5 15.12-35.19 7.22-2.73 15.24-4.29 15.24-4.29l6.17 16.3-8.31 3.15c-8.18 3.09-8.79 9.17-6.81 14.41l4.7 12.43 18.27-6.9 4.33 20.25-15.36 5.81 17.53 46.31c29.6-16.88 43.31-53.42 30.8-86.49-13.85-36.6-54.57-55.12-90.94-41.36-36.39 13.78-54.66 54.6-40.8 91.22a70.86 70.86 0 0 0 57.99 45.4v33.09c0 25.89-54.78 47.18-124.26 49.3l-2.39-142.26c25.64-1.06 45.63-9.01 45.63-18.64v-12.66c0-.52-1.17-.95-2.62-.95s-2.62.43-2.62.95v12.66c0 8.58-17.67 15.66-40.42 16.71l-.38-22.34c-.04-1.72-3.88-3.11-8.61-3.11-4.72 0-8.56 1.39-8.6 3.11l-.89 52.57c-49.8-1.75-88.87-17.09-88.87-35.7v-5.69c13.76-4.3 41.66-13.33 49.62-18.27a19.55 19.55 0 0 0 9.23-17.22c-.14-4.22-1.04-9.73-2.18-15.21l-.21-1-.22-1c-2-9.09-4.48-17.65-5.01-19.46l-.21-.7c-.54-1.75-3.01-9.72-6.19-18.07l-.36-.95-.94-2.36-.38-.95c-1.91-4.71-3.98-9.21-5.99-12.47a19.59 19.59 0 0 0-17.2-9.29c-11.33.33-50.3 11.74-57.99 14.02l-.83.25.01.01-1.81.54-26.52 8.49-1.58.55-.79.26-1.59.54-1.57.55c-10.22 3.58-19.87 7.29-24.05 9.87a19.56 19.56 0 0 0-9.22 17.23c.12 3.82.87 8.73 1.88 13.71l.19 1 .53 2.49.21.99.12.49.23.98a309.14 309.14 0 0 0 4.39 16.79l.34 1.14a308.18 308.18 0 0 0 6.48 18.78l.37.95.37.96c2.07 5.2 4.36 10.31 6.56 13.89 3.67 5.94 10.22 9.47 17.2 9.28 4.91-.14 15.01-2.37 25.51-5.02l1.61-.42 1.62-.41.82-.21 1.61-.42c10.16-2.68 19.87-5.48 24.78-6.93v2.29c0 20.85 44.05 38 99.96 39.77l-4.07 242.41c-25.34-.07-45.9-7.6-45.9-16.85v-4.75c8.54-6 13.96-15.78 13.96-27.37 0-19.38-15.18-33.73-34.77-33.73s-34.78 14.35-34.78 33.73c0 10.14 4.16 18.9 10.92 24.95.57.51.91 1.23.94 1.99l.19 6.18a2.86 2.86 0 0 0 .23 1.04c.62 1.41 2.26 2.04 3.67 1.42l6.9-3.05a2.83 2.83 0 0 1 1.86-.13 38.02 38.02 0 0 0 10.07 1.34c5.64 0 10.92-1.19 15.57-3.35v1.73c0 10.3 22.9 18.69 51.11 18.76l-5.53 329.15H177.37l-3.6-587.34c15.6-.23 28.23-12.98 28.23-28.64v-19.32a1.46 1.46 0 0 0-1.46-1.46 1.47 1.47 0 0 0-1.46 1.46v19.32c0 14.06-11.32 25.5-25.33 25.72l-.84-137.77c45.52-3.3 81.56-41.37 81.56-87.72v-57.71c41.16-4.74 63.52-40.75 63.52-72.22 0-1.09 0-2.19-.05-3.28 5.01-3.63 9.34-8.12 12.78-13.27-4.68 2.06-9.65 3.42-14.73 4.04a25.7 25.7 0 0 0 11.28-14.16 51.27 51.27 0 0 1-16.26 6.18 25.61 25.61 0 0 0-36.21-1.14c-6.65 6.25-9.48 15.58-7.41 24.47-20.57-1.03-39.74-10.74-52.74-26.72a25.64 25.64 0 0 0 7.93 34.15c-4.05-.14-8.02-1.23-11.58-3.18v.35a25.63 25.63 0 0 0 20.51 25.08 24.72 24.72 0 0 1-6.74.9 25.54 25.54 0 0 1-4.78-.45c3.35 10.42 12.96 17.56 23.9 17.75-9.07 7.12-20.27 10.99-31.8 10.97-2.03.01-4.06-.11-6.08-.35 10.82 6.89 23.26 10.8 36.03 11.34v57.25c0 39.52-30.51 72.03-69.21 75.27L171.5 84.52c14.28-1.61 25.42-13.75 25.42-28.46V36.75c0-.81-.65-1.46-1.46-1.46s-1.46.65-1.46 1.46v19.31c0 13.1-9.84 23.92-22.51 25.51l-.21-34.1c-.03-2.63-2.17-4.75-4.8-4.75a4.79 4.79 0 0 0-4.79 4.75l-.49 80.27c-27.74-2.67-49.49-26.09-49.49-54.51V32.11a3.11 3.11 0 0 0-6.22 0v41.12c0 31.83 24.53 58.01 55.67 60.72l-2.27 370.1c-14.11-.09-25.56-11.59-25.56-25.72v-19.32c0-.81-.65-1.46-1.46-1.46s-1.46.65-1.46 1.46v19.32c0 15.73 12.75 28.54 28.46 28.64l-3.28 535.24H94.63c-11.36 0-20.58 6.18-20.58 13.81 0 3.82 2.31 7.27 6.03 9.77 3.72 2.49 8.87 4.04 14.55 4.04h1728.79c11.37 0 20.58-6.18 20.58-13.81 0-3.82-2.3-7.27-6.03-9.77zm-417.64-615.72l-.37-.54c-3.65-5.36-5.58-11.63-5.58-18.12 0-17.77 14.45-32.23 32.22-32.23s32.22 14.46 32.22 32.23-14.45 32.22-32.22 32.22c-5.94 0-11.79-1.66-16.89-4.82l-.53-.32-13.12 4.37 4.27-12.79zM1273.15 95.42l-.1 2.21c-.09 2.06-.3 3.68-.56 4.99a20.92 20.92 0 0 1-1.02 3.53c-.74 2-1.91 3.8-3.44 5.28-1.6 1.6-3.13 2.59-5.28 3.43-1.6.63-4.03 1.37-8.52 1.58-4.83.22-6.28.27-18.54.27-12.25 0-13.71-.05-18.55-.27-4.47-.21-6.9-.95-8.52-1.58-1.99-.74-3.8-1.91-5.28-3.43a14.38 14.38 0 0 1-3.44-5.28c-.62-1.62-1.38-4.05-1.58-8.52-.21-4.84-.26-6.29-.26-18.55l.26-18.54c.21-4.47.96-6.91 1.59-8.52.83-2.14 1.83-3.68 3.43-5.28 1.61-1.61 3.14-2.6 5.28-3.43 1.62-.64 4.05-1.38 8.52-1.59 4.24-.19 5.88-.25 14.43-.26v.02h4.12l18.54.26c4.48.2 6.91.95 8.53 1.58 2.14.83 3.67 1.83 5.28 3.43 1.6 1.61 2.6 3.14 3.43 5.28.63 1.61 1.38 4.05 1.58 8.52.22 4.84.27 6.29.27 18.54l-.17 16.33zM908.91 400.19l-13.52-44.99 45.57 10.84-32.05 34.15zm60.42 270.42a4.22 4.22 0 0 1-.23.35 5.23 5.23 0 0 1-7.31 1.04l-8.12-6.09a2.07 2.07 0 0 0-2.51.01l-10.98 8.33c-1.47 1.1-3.37-.65-2.4-2.2L948 655.84c.08-.12.15-.24.24-.35a5.21 5.21 0 0 1 7.3-1.04l8.13 6.09c.74.56 1.77.56 2.51 0l10.97-8.33c1.47-1.11 3.38.64 2.4 2.2l-10.22 16.2zm228.7-181.34c-.01 0-.02 0-.03.01v-.09l.03.08z"/><path d="M1477.43 234.08v3.48l-.03-1.74.03-1.74zM1236.69 55.53c-13.02-.2-23.74 10.19-23.94 23.21-.2 13.01 10.19 23.73 23.21 23.94h.73c13.02-.21 23.41-10.93 23.21-23.94-.2-12.74-10.48-23.01-23.21-23.21zm.01 38.87h-.01c-8.45 0-15.3-6.85-15.3-15.3s6.85-15.3 15.3-15.3S1252 70.64 1252 79.09c0 8.46-6.85 15.31-15.3 15.31zm24.49-45.31c-3.04 0-5.51 2.47-5.51 5.51s2.47 5.51 5.51 5.51c1.52 0 2.9-.62 3.89-1.61 1-1 1.62-2.38 1.62-3.9 0-3.04-2.47-5.51-5.51-5.51zm0 0c-3.04 0-5.51 2.47-5.51 5.51s2.47 5.51 5.51 5.51c1.52 0 2.9-.62 3.89-1.61 1-1 1.62-2.38 1.62-3.9 0-3.04-2.47-5.51-5.51-5.51zm-24.5 6.44c-13.02-.2-23.74 10.19-23.94 23.21-.2 13.01 10.19 23.73 23.21 23.94h.73c13.02-.21 23.41-10.93 23.21-23.94-.2-12.74-10.48-23.01-23.21-23.21zm.01 38.87h-.01c-8.45 0-15.3-6.85-15.3-15.3s6.85-15.3 15.3-15.3S1252 70.64 1252 79.09c0 8.46-6.85 15.31-15.3 15.31zm24.49-45.31c-3.04 0-5.51 2.47-5.51 5.51s2.47 5.51 5.51 5.51c1.52 0 2.9-.62 3.89-1.61 1-1 1.62-2.38 1.62-3.9 0-3.04-2.47-5.51-5.51-5.51zm-24.5 6.44c-13.02-.2-23.74 10.19-23.94 23.21-.2 13.01 10.19 23.73 23.21 23.94h.73c13.02-.21 23.41-10.93 23.21-23.94-.2-12.74-10.48-23.01-23.21-23.21zm.01 38.87h-.01c-8.45 0-15.3-6.85-15.3-15.3s6.85-15.3 15.3-15.3S1252 70.64 1252 79.09c0 8.46-6.85 15.31-15.3 15.31z"/></svg>