<svg xmlns="http://www.w3.org/2000/svg" width="800" height="800"><g style="fill:none;isolation:isolate"><path d="M0 0h800v800H0z" style="fill:#b5e5e0"/><path d="M672.26 152.8s-22.24-17-22.24-38.25h-15c0 21.25-22.24 38.25-22.24 38.25" style="fill:none;stroke:#37474f;stroke-linecap:round;stroke-linejoin:round;stroke-width:3px"/><path d="M580.29 145.8h124.5v154.5h-124.5z" style="fill:#d3844f;stroke:#37474f;stroke-linecap:round;stroke-linejoin:round;stroke-width:3px"/><path d="M181.79 69.8c-.46.56-.9 1.13-1.34 1.69-33.93 43.4-14.22 82.98-14.22 82.98h31.12s20.23-40.61-15.56-84.67Z" style="fill:#b2e649"/><path d="M181.79 69.8c-.46.56-.9 1.13-1.34 1.69 29.37 42.12 6.16 82.98 6.16 82.98h10.75s20.23-40.61-15.56-84.67Z" style="fill:#ccc;mix-blend-mode:multiply"/><path d="M197.35 155.97h-31.12c-.57 0-1.09-.32-1.34-.83-.21-.43-5.21-10.62-5.8-26.43-.54-14.55 2.75-36.74 21.54-59.86.57-.7 1.76-.7 2.33 0 18.79 23.12 22.08 45.31 21.54 59.86-.59 15.8-5.58 26-5.8 26.43-.25.51-.77.83-1.34.83Zm-30.15-3h29.18c2.51-5.88 15.87-41.98-14.59-80.76-30.46 38.78-17.1 74.88-14.59 80.76Z" style="fill:#37474f"/><path d="M156.84 108.24c-.23.36-.43.72-.65 1.08-16.26 26.67 3.37 53.73 3.37 53.73l8.23-1.76.41-.09 8.64-1.85s7.02-33.64-19.99-51.11Z" style="fill:#b2e649"/><path d="M156.84 108.24c-.23.36-.43.72-.65 1.08 18.31 19.29 11.6 51.97 11.6 51.97l.41-.09 8.64-1.85s7.02-33.64-19.99-51.11Z" style="fill:#ccc;mix-blend-mode:multiply"/><path d="m177.14 160.82-17.28 3.7c-.58.12-1.18-.11-1.53-.59-.21-.29-20.59-28.95-2.76-56.51.45-.7 1.38-.89 2.07-.44 27.56 17.83 20.71 52.33 20.64 52.68a1.49 1.49 0 0 1-1.15 1.16Zm-16.91.56 15.29-3.28c.83-5.4 3.71-32.48-18.23-47.75-13.79 22.95-.03 46.45 2.94 51.03Z" style="fill:#37474f"/><path d="M191.47 107.9c-.36.23-.7.47-1.05.71-25.96 17.37-19.52 50.17-19.52 50.17l8.21 1.86.41.09 8.62 1.95s20.51-27.57 3.34-54.78Z" style="fill:#b2e649"/><path d="M191.47 107.9c-.36.23-.7.47-1.05.71 8.51 25.2-11.31 52.03-11.31 52.03l.41.09 8.62 1.95s20.51-27.57 3.34-54.78Z" style="fill:#ccc;mix-blend-mode:multiply"/><path d="m187.8 164.14-17.23-3.9a1.49 1.49 0 0 1-1.14-1.17c-.07-.35-6.52-34.93 21.24-52.44.7-.44 1.63-.23 2.07.47 17.52 27.76-3.19 56.19-3.4 56.48-.35.48-.96.7-1.54.57Zm-15.58-6.6 15.25 3.45c3.02-4.55 17.02-27.92 3.52-50.99-22.15 15.04-19.54 42.14-18.77 47.54Z" style="fill:#37474f"/><path d="M218.42 119.02c-.42.07-.83.17-1.24.25-30.64 6.08-37.28 38.84-37.28 38.84l6.87 4.86.34.24 7.21 5.11s29.52-17.59 24.1-49.31Z" style="fill:#b2e649"/><path d="M218.42 119.02c-.42.07-.83.17-1.24.25-1.81 26.54-30.41 43.71-30.41 43.71l.34.24 7.21 5.11s29.52-17.59 24.1-49.31Z" style="fill:#ccc;mix-blend-mode:multiply"/><path d="m193.46 169.55-14.42-10.21c-.48-.34-.72-.94-.6-1.52.07-.35 7.38-34.75 39.74-40.28.82-.14 1.59.41 1.73 1.23 5.52 32.35-24.51 50.67-24.81 50.85-.51.3-1.15.28-1.64-.06Zm-11.85-12.07 12.76 9.04c4.53-3.04 26.43-19.25 22.82-45.74-26.23 5.39-34.21 31.41-35.58 36.7Z" style="fill:#37474f"/><path d="M34.21 590.7h731.58v30.1H34.21zM110.55 212.86h411.83v15.05H110.55z" style="fill:#d3844f;stroke:#37474f;stroke-linecap:round;stroke-linejoin:round;stroke-width:3px"/><path d="M63.12 601.85h650.5v8.01H63.12z" style="fill:#ccc;mix-blend-mode:multiply"/><path d="M248.71 526.72c0 5.12 1.95 10.24 5.86 14.14 3.91 3.9 9.02 5.86 14.14 5.86h280c5.12 0 10.24-1.95 14.14-5.86 3.9-3.91 5.86-9.02 5.86-14.14v-20h-320v20Z" style="fill:#809eaa;stroke:#37474f;stroke-linecap:round;stroke-linejoin:round;stroke-width:3px"/><path d="M562.85 330.58a19.92 19.92 0 0 0-14.14-5.86h-280c-5.12 0-10.24 1.95-14.14 5.86s-5.86 9.02-5.86 14.14v162h320v-162c0-5.12-1.95-10.24-5.86-14.14Z" style="fill:#009688;stroke:#37474f;stroke-linecap:round;stroke-linejoin:round;stroke-width:3px"/><path d="M408.71 524.89c4.01 0 7.42 2.53 8.74 6.08.38-1.01.59-2.11.59-3.25 0-5.15-4.18-9.33-9.33-9.33s-9.33 4.18-9.33 9.33c0 1.14.22 2.24.59 3.25 1.32-3.55 4.73-6.08 8.74-6.08Z" style="fill:#607d8b"/><path d="M408.71 537.06c4.01 0 7.42-2.53 8.74-6.08-1.32-3.55-4.73-6.08-8.74-6.08s-7.42 2.53-8.74 6.08c1.32 3.55 4.73 6.08 8.74 6.08Z" style="fill:#607d8b"/><path d="M408.71 524.89c4.01 0 7.42 2.53 8.74 6.08.38-1.01.59-2.11.59-3.25 0-5.15-4.18-9.33-9.33-9.33s-9.33 4.18-9.33 9.33c0 1.14.22 2.24.59 3.25 1.32-3.55 4.73-6.08 8.74-6.08Z" style="fill:#ccc;mix-blend-mode:multiply"/><path d="M408.71 538.56c-5.97 0-10.83-4.86-10.83-10.83s4.86-10.83 10.83-10.83 10.83 4.86 10.83 10.83-4.86 10.83-10.83 10.83Zm0-18.67c-4.32 0-7.83 3.51-7.83 7.83s3.51 7.83 7.83 7.83 7.83-3.51 7.83-7.83-3.51-7.83-7.83-7.83Z" style="fill:#37474f"/><path d="M263.71 339.22h290v152.5h-290z" style="fill:#fff;stroke:#37474f;stroke-linecap:round;stroke-linejoin:round;stroke-width:3px"/><path d="M444.61 569.39c-2.24-13.39-.9-22.67-.9-22.67h-69.35s1.34 9.28-.9 22.67c-1.79 10.7-5.87 24.01-14.75 37.33h100.65c-8.88-13.32-12.96-26.64-14.75-37.33Z" style="fill:#809eaa"/><path d="M443.71 546.72h-69.35s1.34 9.28-.9 22.67h71.16c-2.24-13.39-.9-22.67-.9-22.67Z" style="fill:#ccc;mix-blend-mode:multiply"/><path d="M462.16 608.22H355.9l1.55-2.33c19.46-29.18 15.46-58.66 15.41-58.95l-.25-1.71h72.82l-.25 1.71c-.04.3-4.01 29.82 15.41 58.95l1.55 2.33Zm-100.7-3h95.14c-16.04-25.59-15.17-50.32-14.57-57h-66c.6 6.68 1.47 31.41-14.57 57Z" style="fill:#37474f"/><path d="M268.71 594.72h280v13.5h-280z" style="fill:#809eaa;stroke:#37474f;stroke-linecap:round;stroke-linejoin:round;stroke-width:3px"/><path d="M279.04 585.81h18.02v8.92h-18.02zM303.17 585.81h18.02v8.92h-18.02zM327.31 585.81h114.54v8.92H327.31zM447.96 585.81h18.02v8.92h-18.02zM472.09 585.81h18.02v8.92h-18.02zM496.23 585.81h18.02v8.92h-18.02zM520.36 585.81h18.02v8.92h-18.02z" style="fill:#607d8b;stroke:#37474f;stroke-linecap:round;stroke-linejoin:round;stroke-width:2.95px"/><path d="M609.24 574.52c0-3.71 1.74-6.72 3.89-6.72s3.89 3.01 3.89 6.72-1.74 6.72-3.89 6.72-3.89-3.01-3.89-6.72Z" style="fill:#009688;stroke:#37474f;stroke-miterlimit:10;stroke-width:3px"/><path d="M641.63 589.73c-3.41-9.19-16.63-15.21-28.5-15.21s-24.91 5.93-28.42 15.02c-.59 1.52-.92 3.12-.92 4.81 0 11.75 11.18 13.7 17.09 13.7h24.5c7.74 0 17.09-1.95 17.09-13.7 0-1.61-.3-3.15-.85-4.62Z" style="fill:#809eaa"/><path d="M625.38 598.01h-24.5c-4.89 0-13.39-1.34-16.17-8.47-.59 1.52-.92 3.12-.92 4.81 0 11.75 11.18 13.7 17.09 13.7h24.5c7.74 0 17.09-1.95 17.09-13.7 0-1.61-.3-3.15-.85-4.62-2.46 6.96-9.9 8.28-16.25 8.28Z" style="fill:#ccc;mix-blend-mode:multiply"/><path d="M625.38 609.54h-24.5c-8.99 0-18.59-3.99-18.59-15.2 0-12.57 16.25-21.33 30.84-21.33s30.84 8.76 30.84 21.33c0 10.08-6.25 15.2-18.59 15.2Zm-12.25-33.53c-13.17 0-27.84 7.53-27.84 18.33s10.9 12.2 15.59 12.2h24.5c10.64 0 15.59-3.88 15.59-12.2 0-10.8-14.67-18.33-27.84-18.33Z" style="fill:#37474f"/><path d="m729.5 471.71 11.34 1.71-.64-5.33-8.51-1.27-2.19 4.89z" style="fill:#fac077;stroke:#37474f;stroke-linecap:round;stroke-linejoin:round;stroke-width:3px"/><path d="m720.09 572.94 5.67.85 15.08-100.37-5.67-.85-5.67-.86-15.09 100.37 5.68.86z" style="fill:#009688"/><path d="M674.04 519.46h101.5v5.74h-101.5z" style="fill:#ccc;mix-blend-mode:multiply" transform="rotate(-81.44 724.84 522.32)"/><path d="m729.76 470.29 11.13 1.67c.9.13 1.52.97 1.38 1.87l-14.79 98.44c-.14.9-.97 1.52-1.87 1.38l-11.13-1.67c-.9-.13-1.52-.97-1.38-1.87l14.79-98.44c.14-.9.98-1.52 1.87-1.38Zm9.01 4.68-7.87-1.18-14.31 95.19 7.87 1.18 14.31-95.18Z" style="fill:#37474f"/><path d="m731.69 466.82 8.51 1.27-1.96-15.96-6.55 14.69z" style="fill:#009688;stroke:#37474f;stroke-linecap:round;stroke-linejoin:round;stroke-width:3px"/><path d="M712.63 583.31c-.12.76.06 1.56.55 2.23.49.67 1.21 1.07 1.97 1.18l5.41.81c.76.11 1.56-.06 2.23-.55.67-.49 1.07-1.21 1.18-1.97l1.78-11.87-11.35-1.71-1.78 11.87Z" style="fill:#fff;stroke:#263238;stroke-linecap:round;stroke-linejoin:round;stroke-width:3.36px"/><path d="m705.45 586.87 11.24-2.26-.38 5.35-8.44 1.69-2.42-4.78z" style="fill:#fac077;stroke:#37474f;stroke-linecap:round;stroke-linejoin:round;stroke-width:3px"/><path d="m691.01 486.24 5.63-1.13 20.05 99.5-5.62 1.13-5.62 1.13-20.06-99.49 5.62-1.14z" style="fill:#b2e649"/><path d="M695.36 485.81h5.74v101.5h-5.74z" style="fill:#ccc;mix-blend-mode:multiply" transform="rotate(-11.41 698.214 536.52)"/><path d="m703.84 587-19.67-97.58c-.18-.89.4-1.76 1.29-1.94l11.03-2.22c.89-.18 1.76.4 1.94 1.29l19.67 97.58c.18.89-.4 1.76-1.29 1.94l-11.03 2.22c-.89.18-1.76-.4-1.94-1.29Zm-8.31-98.19-7.8 1.57 19.02 94.36 7.8-1.57-19.02-94.35Z" style="fill:#37474f"/><path d="m707.87 591.65 8.44-1.69-1.16 16.04-7.28-14.35z" style="fill:#009688;stroke:#37474f;stroke-linecap:round;stroke-linejoin:round;stroke-width:3px"/><path d="M683.73 474.76c.46-.69 1.15-1.13 1.91-1.28l2.74-.55 2.62-.53c.75-.15 1.56-.02 2.25.44s1.13 1.15 1.28 1.9l2.37 11.76-5.67 1.14-5.58 1.12-2.37-11.76c-.15-.75-.02-1.56.44-2.25Z" style="fill:#fff"/><path d="M683.73 474.76c.46-.69 1.15-1.13 1.91-1.28l2.74-.55c0 .3.01.6.07.9l2.79 13.83-5.58 1.12-2.37-11.76c-.15-.75-.02-1.56.44-2.25Z" style="fill:#ccc;mix-blend-mode:multiply"/><path d="M684.82 490.03c-.33-.22-.56-.56-.64-.95l-2.37-11.76c-.24-1.18 0-2.38.66-3.38.67-1 1.68-1.69 2.86-1.92l5.37-1.08c1.17-.23 2.39 0 3.38.66 1 .67 1.68 1.68 1.92 2.86l2.37 11.76a1.503 1.503 0 0 1-1.17 1.77l-11.25 2.27-.22.03c-.32.02-.64-.07-.91-.25Zm8.24-14.98c-.08-.39-.31-.73-.64-.95-.33-.22-.75-.29-1.13-.22l-5.37 1.08c-.39.08-.73.31-.95.64-.22.33-.3.73-.22 1.12l2.08 10.29 8.31-1.67-2.08-10.29Z" style="fill:#37474f"/><path d="m693.4 585.24 11.38 1.47-2.08 4.95-8.54-1.11-.76-5.31z" style="fill:#fac077;stroke:#37474f;stroke-linecap:round;stroke-linejoin:round;stroke-width:3px"/><path d="m712.09 485.31 5.69.74-13 100.66-5.69-.73-5.69-.74 13-100.66 5.69.73z" style="fill:#f0965a"/><path d="M652 532.41h101.5v5.74H652z" style="fill:#ccc;mix-blend-mode:multiply" transform="rotate(-82.64 702.806 535.275)"/><path d="m691.84 584.84 12.75-98.73c.12-.9.94-1.54 1.84-1.42l11.16 1.44c.9.12 1.54.94 1.42 1.84l-12.75 98.73c-.12.9-.94 1.54-1.84 1.42l-11.16-1.44c-.9-.12-1.54-.94-1.42-1.84Zm23.7-95.65-7.89-1.02-12.33 95.46 7.89 1.02 12.33-95.46Z" style="fill:#37474f"/><path d="m694.16 590.55 8.54 1.11-6.26 14.82-2.28-15.93z" style="fill:#009688;stroke:#37474f;stroke-linecap:round;stroke-linejoin:round;stroke-width:3px"/><path d="M708.88 472.1c.66-.51 1.46-.7 2.22-.6l2.78.36 2.65.34c.76.1 1.49.49 1.99 1.14.5.66.7 1.46.6 2.22l-1.54 11.9-5.73-.74-5.64-.73 1.54-11.9c.1-.76.49-1.49 1.14-1.99Z" style="fill:#fff"/><path d="M708.88 472.1c.66-.51 1.46-.7 2.22-.6l2.78.36c-.1.28-.18.57-.22.87l-1.81 13.99-5.64-.73 1.54-11.9c.1-.76.49-1.49 1.14-1.99Z" style="fill:#ccc;mix-blend-mode:multiply"/><path d="M705.02 486.91a1.51 1.51 0 0 1-.3-1.11l1.54-11.9a4.48 4.48 0 0 1 1.71-2.99c.95-.74 2.13-1.05 3.32-.9l5.43.7c1.18.15 2.26.77 2.99 1.72.73.95 1.05 2.13.9 3.32l-1.54 11.9c-.05.39-.26.75-.57 1-.31.24-.71.35-1.11.3l-11.38-1.47c-.07 0-.15-.03-.22-.05-.31-.09-.58-.27-.78-.53Zm12.62-11.54c.05-.4-.05-.79-.3-1.11a1.51 1.51 0 0 0-1-.57l-5.43-.7c-.4-.05-.79.05-1.11.3-.32.24-.52.6-.57.99l-1.34 10.41 8.4 1.08 1.34-10.41Z" style="fill:#37474f"/><path d="m663.11 473.97 11.24-2.32-2.45-4.77-8.43 1.74-.36 5.35z" style="fill:#fac077;stroke:#37474f;stroke-linecap:round;stroke-linejoin:round;stroke-width:3px"/><path d="m689.29 572.21 5.62-1.17-20.56-99.39-5.62 1.16-5.62 1.16 20.56 99.4 5.62-1.16z" style="fill:#e84545"/><path d="M673.33 472.34h5.74v101.5h-5.74z" style="fill:#ccc;mix-blend-mode:multiply" transform="rotate(-11.68 675.993 522.943)"/><path d="m662.87 472.54 11.02-2.28c.89-.19 1.76.39 1.94 1.28L696 569.02c.18.89-.39 1.76-1.28 1.95l-11.02 2.28c-.89.18-1.76-.39-1.95-1.28l-20.17-97.48c-.18-.89.39-1.76 1.28-1.95Zm10.07 1.28-7.79 1.61 19.5 94.26 7.79-1.61-19.5-94.26Z" style="fill:#37474f"/><path d="m663.47 468.62 8.43-1.74-7.36-14.31-1.07 16.05z" style="fill:#e84545;stroke:#37474f;stroke-linecap:round;stroke-linejoin:round;stroke-width:3px"/><path d="M685.88 584.52c.15.75.6 1.44 1.29 1.9.69.46 1.5.59 2.25.43l5.36-1.11c.75-.16 1.45-.6 1.9-1.29.45-.69.58-1.5.43-2.25l-2.43-11.75-11.24 2.33 2.43 11.75Z" style="fill:#fff;stroke:#263238;stroke-linecap:round;stroke-linejoin:round;stroke-width:3.36px"/><path d="M725.53 530.62h-59.09l8 77.25h58l8-77.25h-14.91z" style="fill:#fac077"/><path d="m725.53 530.62-8 77.25h14.91l8-77.25h-14.91z" style="fill:#ccc;mix-blend-mode:multiply"/><path d="M732.44 609.37h-58c-.77 0-1.41-.58-1.49-1.35l-8-77.25c-.04-.42.09-.84.38-1.16.29-.32.69-.5 1.11-.5h74c.42 0 .83.18 1.11.5.28.32.42.74.38 1.16l-8 77.25c-.08.76-.72 1.35-1.49 1.35Zm-56.65-3h55.29l7.69-74.25H668.1l7.69 74.25Z" style="fill:#37474f"/><path d="M201.18 581.6c1.11-2.74 3.04-5.67 6.12-8.75H58.29l-3.02 8.75-1.98 5.75 5.5 14.5h148.5s-10.98-8.25-6.12-20.25Z" style="fill:#ffedc3"/><path d="M207.29 572.85h-149l-3.02 8.75h145.9c1.11-2.74 3.04-5.67 6.12-8.75Z" style="fill:#ccc;mix-blend-mode:multiply"/><path d="M207.29 603.35H58.79c-.62 0-1.18-.39-1.4-.97l-5.5-14.5c-.12-.33-.13-.69-.02-1.02l5-14.5c.21-.6.78-1.01 1.42-1.01h149c.61 0 1.15.37 1.39.93.23.56.1 1.21-.33 1.63-4.92 4.92-7.23 9.89-6.89 14.77.51 7.22 6.67 11.92 6.73 11.97.52.39.73 1.06.52 1.67s-.78 1.03-1.42 1.03Zm-147.46-3h143.74c-2.13-2.42-4.74-6.38-5.1-11.46-.35-4.91 1.47-9.79 5.42-14.55H59.36l-4.47 12.98 4.94 13.03Z" style="fill:#37474f"/><path d="M68.44 601.85s-10.65-.17-10.65-14.5 10.65-14.5 10.65-14.5h154.02v-6.37H63.12s-15.33.25-15.33 20.88 15.33 20.88 15.33 20.88h159.33v-6.37H68.44Z" style="fill:#e84545;stroke:#37474f;stroke-linecap:round;stroke-linejoin:round;stroke-width:3px"/><path d="M199.94 587.35h-64.82M121.54 587.35H92.79" style="fill:none;stroke:#37474f;stroke-linecap:round;stroke-linejoin:round;stroke-width:3px"/><path d="M55.49 539.85c-1.11-2.74-3.04-5.67-6.12-8.75h149l3.02 8.75 1.98 5.75-5.5 14.5H49.38s10.98-8.25 6.12-20.25Z" style="fill:#ffedc3"/><path d="M49.38 531.1h149l3.02 8.75H55.49c-1.11-2.74-3.04-5.67-6.12-8.75Z" style="fill:#ccc;mix-blend-mode:multiply"/><path d="M47.95 560.57c-.2-.61 0-1.29.52-1.67.06-.05 6.22-4.75 6.73-11.97.35-4.89-1.97-9.86-6.89-14.77a1.497 1.497 0 0 1 1.06-2.56h149c.64 0 1.21.41 1.42 1.01l5 14.5c.11.33.11.69-.02 1.02l-5.5 14.5c-.22.58-.78.97-1.4.97H49.38c-.65 0-1.22-.41-1.42-1.03Zm153.83-15-4.47-12.98H52.78c3.95 4.76 5.77 9.64 5.42 14.55-.36 5.08-2.97 9.03-5.1 11.46h143.74l4.94-13.03Z" style="fill:#37474f"/><path d="M188.22 560.1s10.65-.17 10.65-14.5-10.65-14.5-10.65-14.5H34.21v-6.37h159.33s15.33.25 15.33 20.88-15.33 20.88-15.33 20.88H34.21v-6.37h154.02Z" style="fill:#f0965a;stroke:#37474f;stroke-linecap:round;stroke-linejoin:round;stroke-width:3px"/><path d="M56.73 545.6h64.81M135.12 545.6h28.76" style="fill:none;stroke:#37474f;stroke-linecap:round;stroke-linejoin:round;stroke-width:3px"/><path d="m82.92 554.22-7.62-4.25-7.63 4.25V531.1h15.25v23.12z" style="fill:#009688;stroke:#37474f;stroke-linecap:round;stroke-linejoin:round;stroke-width:3px"/><path d="M59.79 459.3v65h123.33v-65H59.79z" style="fill:#78909c"/><path d="M59.79 459.3h123.33v32.5H59.79z" style="fill:#ccc;mix-blend-mode:multiply"/><path d="M183.12 525.84H59.79c-.85 0-1.54-.69-1.54-1.54v-65c0-.85.69-1.54 1.54-1.54h123.33c.85 0 1.54.69 1.54 1.54v65c0 .85-.69 1.54-1.54 1.54Zm-121.79-3.08h120.26v-61.92H61.33v61.92Z" style="fill:#37474f"/><circle cx="135.12" cy="496.56" r="24.67" style="fill:#ccc;mix-blend-mode:multiply"/><path d="M82.11 450.73a9.973 9.973 0 0 0-7.07-2.93h-5.25c-2.56 0-5.12.98-7.07 2.93a9.973 9.973 0 0 0-2.93 7.07v66.5h25.25v-66.5c0-2.56-.98-5.12-2.93-7.07Z" style="fill:#546e7a"/><path d="M82.11 450.73a9.973 9.973 0 0 0-7.07-2.93h-5.25c-2.56 0-5.12.98-7.07 2.93a9.973 9.973 0 0 0-2.93 7.07v34.17c0-2.56.98-5.12 2.93-7.07s4.51-2.93 7.07-2.93h5.25c2.56 0 5.12.98 7.07 2.93a9.973 9.973 0 0 1 2.93 7.07V457.8c0-2.56-.98-5.12-2.93-7.07Z" style="fill:#ccc;mix-blend-mode:multiply"/><path d="M85.04 525.87H59.79c-.87 0-1.57-.7-1.57-1.57v-66.5c0-3.09 1.2-5.99 3.39-8.18 2.19-2.18 5.09-3.39 8.18-3.39h5.25c3.09 0 5.99 1.2 8.18 3.39 2.19 2.19 3.39 5.09 3.39 8.18v66.5c0 .87-.7 1.57-1.57 1.57Zm-23.68-3.13h22.12v-64.93c0-2.25-.88-4.37-2.47-5.96s-3.71-2.47-5.96-2.47H69.8c-2.25 0-4.37.88-5.96 2.47a8.382 8.382 0 0 0-2.47 5.96v64.93Z" style="fill:#37474f"/><circle cx="135.12" cy="491.8" r="24.67" style="fill:#78909c;stroke:#37474f;stroke-linecap:round;stroke-linejoin:round;stroke-width:3px"/><circle cx="135.12" cy="491.8" r="12" style="fill:#455a64;stroke:#37474f;stroke-linecap:round;stroke-linejoin:round;stroke-width:3px"/><path d="M133.56 515c-1.07-.07-2.13-.22-3.17-.43l.61-2.94c.9.19 1.83.31 2.76.38l-.2 2.99Zm5.32-.25-.48-2.96c.92-.15 1.83-.36 2.71-.64l.89 2.87c-1.01.31-2.07.56-3.12.73Zm-13.56-1.86c-.97-.45-1.91-.97-2.81-1.55l1.63-2.52c.78.5 1.6.96 2.44 1.35l-1.27 2.72Zm21.56-1.03-1.52-2.59c.8-.47 1.58-1 2.3-1.58l1.86 2.35c-.83.66-1.72 1.27-2.64 1.81Zm-28.48-3.91a24.06 24.06 0 0 1-2.06-2.45l2.42-1.77c.55.75 1.15 1.46 1.8 2.13l-2.16 2.08Zm34.9-1.66-2.34-1.87c.58-.73 1.12-1.5 1.59-2.3l2.58 1.53c-.54.91-1.16 1.8-1.82 2.64Zm-39.59-5.43c-.42-.98-.77-2-1.04-3.03l2.9-.78c.24.9.55 1.78.91 2.64l-2.76 1.17Zm43.6-2.07-2.86-.9c.28-.88.5-1.8.65-2.71l2.96.5c-.18 1.05-.43 2.1-.75 3.12Zm-45.42-6.23c0-.25-.01-.51-.01-.76 0-1.07.07-2.15.22-3.19l2.97.41c-.13.91-.19 1.85-.19 2.78 0 .22 0 .44.01.66l-3 .1Zm43.45-2.02c-.06-.93-.18-1.86-.36-2.77l2.94-.59c.21 1.04.35 2.11.42 3.18l-2.99.19Zm-39.11-6.02-2.8-1.08c.38-.99.84-1.97 1.36-2.9l2.62 1.45c-.45.81-.85 1.66-1.18 2.53Zm37.31-1.16c-.39-.84-.84-1.67-1.34-2.45l2.53-1.62c.57.9 1.09 1.84 1.54 2.81l-2.73 1.25Zm-33.43-5.15-2.22-2.01c.71-.79 1.49-1.54 2.31-2.22l1.93 2.3c-.71.6-1.39 1.25-2.01 1.94Zm29.16-.9a20.37 20.37 0 0 0-2.13-1.81l1.78-2.41c.85.63 1.67 1.33 2.44 2.07l-2.09 2.15Zm-23.28-3.59-1.36-2.68c.95-.48 1.94-.9 2.95-1.25l.97 2.84c-.88.3-1.74.67-2.57 1.08Zm17.12-.53c-.85-.37-1.74-.68-2.63-.92l.79-2.89c1.03.28 2.04.64 3.03 1.06l-1.18 2.76Zm-10.01-1.54-.3-2.98c1.05-.11 2.14-.14 3.2-.1l-.12 3c-.93-.04-1.87 0-2.79.09Z" style="fill:#37474f"/><circle cx="132.92" cy="487.37" r="3.12" style="fill:#fff;mix-blend-mode:soft-light"/><circle cx="139.73" cy="490.49" r="2.31" style="fill:#fff;mix-blend-mode:soft-light"/><path d="M161.75 452.3h12.12v7h-12.12zM147.08 445.3h-23.95l-4.84 14h33.62l-4.83-14z" style="fill:#455a64;stroke:#37474f;stroke-linecap:round;stroke-linejoin:round;stroke-width:3px"/><path d="M126.62 450.47h16.92v8.83h-16.92z" style="fill:#fff;stroke:#37474f;stroke-linecap:round;stroke-linejoin:round;stroke-width:3px"/><circle cx="101.29" cy="471.14" r="4" style="fill:#b2e649;stroke:#37474f;stroke-linecap:round;stroke-linejoin:round;stroke-width:3px"/><path d="M292.14 376.14h65.98v82.16h-65.98z" style="fill:#e4edef"/><path d="M292.14 366.3h65.98v9.83h-65.98z" style="fill:#ffedc3"/><path d="M298.63 386.63h31v5h-31zM334.13 386.63h17.5v5h-17.5zM320.63 405.3h31v5h-31zM320.63 442.8h31v5h-31zM298.63 405.3h17.5v5h-17.5zM298.63 414.47h17.5v5h-17.5zM325.38 424.47h17.5v5h-17.5zM320.88 414.47h17.5v5h-17.5zM344.05 414.47h7.58v5h-7.58zM346.97 424.47h4.67v5h-4.67zM311.8 442.8h4.67v5h-4.67zM298.63 442.8h4.67v5h-4.67zM298.63 424.47h7.58v5h-7.58zM312.34 424.47h7.58v5h-7.58zM298.63 395.8h53v5h-53zM298.63 433.97h53v5h-53z" style="fill:#809eaa"/><path d="M369.79 360.3h152.66v38H369.79z" style="fill:#e4edef"/><path d="M369.79 410.47h80.26v57.37h-80.26zM461.46 416.22h60.99v21.01h-60.99zM461.46 443.71h60.99v21.01h-60.99z" style="fill:#ffedc3"/><path d="M376.46 415.55h66.33v5h-66.33z" style="fill:#809eaa"/><path d="M376.46 366.72h93.83v5h-93.83z" style="fill:#ffedc3"/><path d="M376.46 377.3h46.92v5h-46.92zM431.79 377.3h18.27v5h-18.27zM456.04 377.3h38.25v5h-38.25zM376.46 386.63h38.25v5h-38.25zM477.46 386.63h38.25v5h-38.25zM421.8 386.63h12.66v5H421.8zM439.79 386.63h21.67v5h-21.67zM467.79 386.63h4.67v5h-4.67zM376.46 424.47h31.08v5h-31.08z" style="fill:#809eaa"/><path d="M411.13 424.47h31.08v33.5h-31.08z" style="fill:#e4edef"/><path d="M376.46 433.97h31.08v5h-31.08zM376.46 443.47h31.08v5h-31.08zM376.46 452.97h31.08v5h-31.08z" style="fill:#809eaa"/><path d="M193.12 219.81v54.66h55.59v-17h19.2v-37.66h-74.79z" style="fill:#b2e649"/><path d="M193.12 219.81h74.78v12.5h-74.78z" style="fill:#ccc;mix-blend-mode:multiply"/><path d="M248.71 275.97h-55.58c-.83 0-1.5-.67-1.5-1.5V219.8c0-.83.67-1.5 1.5-1.5h74.78c.83 0 1.5.67 1.5 1.5v37.67c0 .83-.67 1.5-1.5 1.5h-17.7v15.5c0 .83-.67 1.5-1.5 1.5Zm-54.08-3h52.58v-15.5c0-.83.67-1.5 1.5-1.5h17.7V221.3h-71.78v51.67Z" style="fill:#37474f"/><path d="m248.71 274.47 19.2-17h-19.2v17z" style="fill:#d8f48e;stroke:#37474f;stroke-linecap:round;stroke-linejoin:round;stroke-width:3px"/><path d="M296.74 219.81v54.66h55.59v-17h19.2v-37.66h-74.79z" style="fill:#fc7ee4"/><path d="M296.74 219.81h74.78v12.5h-74.78z" style="fill:#ccc;mix-blend-mode:multiply"/><path d="M352.33 275.97h-55.58c-.83 0-1.5-.67-1.5-1.5V219.8c0-.83.67-1.5 1.5-1.5h74.78c.83 0 1.5.67 1.5 1.5v37.67c0 .83-.67 1.5-1.5 1.5h-17.7v15.5c0 .83-.67 1.5-1.5 1.5Zm-54.08-3h52.58v-15.5c0-.83.67-1.5 1.5-1.5h17.7V221.3h-71.78v51.67Z" style="fill:#37474f"/><path d="m352.33 274.47 19.2-17h-19.2v17z" style="fill:#ffc5fa;stroke:#37474f;stroke-linecap:round;stroke-linejoin:round;stroke-width:3px"/><path d="M202.25 154.47h-53.98l6.82 58.39H208.5l6.82-58.39h-13.07z" style="fill:#e84545"/><path d="m202.25 154.47-6.82 58.39h13.07l6.82-58.39h-13.07z" style="fill:#ccc;mix-blend-mode:multiply"/><path d="M208.5 214.36h-53.41c-.76 0-1.4-.57-1.49-1.33l-6.82-58.38c-.05-.42.08-.85.37-1.17.28-.32.69-.5 1.12-.5h67.05c.43 0 .84.18 1.12.5.29.32.42.75.37 1.17l-6.82 58.38c-.09.76-.73 1.33-1.49 1.33Zm-52.07-3h50.74l6.47-55.38h-63.68l6.47 55.38Z" style="fill:#37474f"/><path d="M203.05 154.47h-59.59v15.35h75.63v-15.35h-16.04z" style="fill:#e84545"/><path d="M203.05 154.47h16.04v15.35h-16.04z" style="fill:#ccc;mix-blend-mode:multiply"/><path d="M219.09 171.32h-75.63c-.83 0-1.5-.67-1.5-1.5v-15.35c0-.83.67-1.5 1.5-1.5h75.63c.83 0 1.5.67 1.5 1.5v15.35c0 .83-.67 1.5-1.5 1.5Zm-74.13-3h72.63v-12.35h-72.63v12.35Z" style="fill:#37474f"/><rect width="91.37" height="79.42" x="623.05" y="329.51" rx="15.66" ry="15.66" style="fill:#78909c;stroke:#37474f;stroke-miterlimit:10;stroke-width:3px"/><rect width="91.37" height="79.42" x="623.05" y="329.51" rx="15.66" ry="15.66" style="fill:none;stroke:#37474f;stroke-linecap:round;stroke-linejoin:round;stroke-width:2.35px"/><path d="M623.05 345.17h91.37v48.09h-91.37z" style="fill:#37474f;stroke:#37474f;stroke-linecap:round;stroke-linejoin:round;stroke-width:3px"/><text style="fill:#009688;font-family:ArialMT,Arial;font-size:30.89px" transform="translate(632.3 379.2)"><tspan x="0" y="0" style="letter-spacing:-.04em">13</tspan><tspan x="31.7" y="0" style="letter-spacing:-.07em">:</tspan><tspan x="38.12" y="0" style="letter-spacing:-.04em">0</tspan><tspan x="53.97" y="0">5</tspan></text><path d="M270.23 135.29c-3.43 0-3.31 53.85-3.31 53.85h6.62s.13-53.85-3.31-53.85Z" style="fill:#37474f;stroke:#37474f;stroke-linecap:round;stroke-linejoin:round;stroke-width:3px"/><path d="M336.46 203.77h-77.75c-2.56 0-5.12-.98-7.07-2.93a9.989 9.989 0 0 1-2.56-4.39c-.24.88-.37 1.78-.37 2.69v3.72c0 2.56.98 5.12 2.93 7.07a9.973 9.973 0 0 0 7.07 2.93h77.75c2.56 0 5.12-.98 7.07-2.93a9.973 9.973 0 0 0 2.93-7.07v-3.72c0-.9-.13-1.81-.37-2.69a9.949 9.949 0 0 1-2.56 4.39 9.973 9.973 0 0 1-7.07 2.93Z" style="fill:#ccc;mix-blend-mode:multiply"/><path d="M336.46 189.14h-77.75c-2.56 0-5.12.98-7.07 2.93a9.989 9.989 0 0 0-2.56 4.39 9.949 9.949 0 0 0 2.56 4.39 9.973 9.973 0 0 0 7.07 2.93h77.75c2.56 0 5.12-.98 7.07-2.93a9.989 9.989 0 0 0 2.56-4.39 9.949 9.949 0 0 0-2.56-4.39 9.973 9.973 0 0 0-7.07-2.93Z" style="fill:#f8f8f8"/><path d="M336.46 214.36h-77.75c-3.07 0-5.96-1.2-8.13-3.37a11.43 11.43 0 0 1-3.37-8.13v-3.72c0-3.07 1.2-5.96 3.37-8.13a11.43 11.43 0 0 1 8.13-3.37h77.75c3.07 0 5.96 1.2 8.13 3.37a11.43 11.43 0 0 1 3.37 8.13v3.72c0 3.07-1.2 5.96-3.37 8.13a11.43 11.43 0 0 1-8.13 3.37Zm-77.75-23.72c-2.27 0-4.41.88-6.01 2.49a8.433 8.433 0 0 0-2.49 6.01v3.72c0 2.27.88 4.41 2.49 6.01a8.433 8.433 0 0 0 6.01 2.49h77.75c2.27 0 4.41-.88 6.01-2.49a8.433 8.433 0 0 0 2.49-6.01v-3.72c0-2.27-.88-4.41-2.49-6.01a8.475 8.475 0 0 0-6.01-2.49h-77.75Z" style="fill:#37474f"/><path d="M264.54 189.14h7.42v7.31h-7.42zM277.58 189.14H285v7.31h-7.42zM290.63 189.14h7.42v7.31h-7.42zM303.67 189.14h7.42v7.31h-7.42zM323.17 189.14h7.42v7.31h-7.42z" style="fill:#b2e649;stroke:#37474f;stroke-linecap:round;stroke-linejoin:round;stroke-width:3px"/><path d="M265.96 180.2h8.67v4h-8.67zM265.96 172.58h8.67v4h-8.67z" style="fill:#f8f8f8;stroke:#37474f;stroke-linecap:round;stroke-linejoin:round;stroke-width:3px"/><path d="M323.1 135.29c-3.43 0-3.31 53.85-3.31 53.85h6.62s.13-53.85-3.31-53.85Z" style="fill:#37474f;stroke:#37474f;stroke-linecap:round;stroke-linejoin:round;stroke-width:3px"/><path d="M318.83 180.2h8.67v4h-8.67zM318.83 172.58h8.67v4h-8.67z" style="fill:#f8f8f8;stroke:#37474f;stroke-linecap:round;stroke-linejoin:round;stroke-width:3px"/><path d="M68.12 620.8v93.67H284.9V620.8H68.12z" style="fill:#f0965a"/><path d="M68.12 620.8h216.79v8.52H68.12z" style="fill:#ccc;mix-blend-mode:multiply"/><path d="M284.9 715.97H68.12c-.83 0-1.5-.67-1.5-1.5V620.8c0-.83.67-1.5 1.5-1.5h216.79c.83 0 1.5.67 1.5 1.5v93.67c0 .83-.67 1.5-1.5 1.5Zm-215.29-3H283.4V622.3H69.62v90.67Z" style="fill:#37474f"/><path d="M88.87 638.3h175.29v58.67H88.87z" style="fill:#ffda93;stroke:#37474f;stroke-linecap:round;stroke-linejoin:round;stroke-width:3px"/><path d="M204.99 662.25c-7.86-.9-17.74-1.44-28.48-1.44-25.62 0-46.39 3.05-46.39 6.83s20.77 6.83 46.39 6.83c10.74 0 20.61-.54 28.48-1.44 10.9-1.25 17.92-3.2 17.92-5.39s-7.02-4.14-17.92-5.39Z" style="fill:#f8f8f8"/><path d="M222.9 667.64c0-2.19-7.02-4.14-17.92-5.39.92 1.72 1.42 3.53 1.42 5.39s-.5 3.66-1.42 5.39c10.9-1.25 17.92-3.2 17.92-5.39Z" style="fill:#ccc;mix-blend-mode:multiply"/><path d="M176.51 675.97c-12.46 0-24.19-.72-33.02-2.02-13.18-1.94-14.87-4.39-14.87-6.31s1.69-4.37 14.87-6.31c8.83-1.3 20.56-2.01 33.02-2.01 10.47 0 20.37.5 28.65 1.45 19.25 2.21 19.25 5.48 19.25 6.88s0 4.67-19.25 6.88c-8.27.95-18.17 1.45-28.65 1.45Zm-44.81-8.33c1.95 2.24 18.5 5.33 44.81 5.33 10.36 0 20.15-.49 28.3-1.43 12.8-1.47 15.83-3.34 16.47-3.9-.64-.56-3.66-2.43-16.46-3.9-8.16-.93-17.95-1.43-28.31-1.43-26.31 0-42.87 3.09-44.81 5.33Z" style="fill:#37474f"/><path d="M515.1 620.8v93.67h216.78V620.8H515.1z" style="fill:#f0965a"/><path d="M515.1 620.8h216.79v8.52H515.1z" style="fill:#ccc;mix-blend-mode:multiply"/><path d="M731.88 715.97H515.09c-.83 0-1.5-.67-1.5-1.5V620.8c0-.83.67-1.5 1.5-1.5h216.79c.83 0 1.5.67 1.5 1.5v93.67c0 .83-.67 1.5-1.5 1.5Zm-215.29-3h213.79V622.3H516.59v90.67Z" style="fill:#37474f"/><path d="M535.85 638.3h175.29v58.67H535.85z" style="fill:#ffda93;stroke:#37474f;stroke-linecap:round;stroke-linejoin:round;stroke-width:3px"/><path d="M651.97 662.25c-7.86-.9-17.74-1.44-28.48-1.44-25.62 0-46.39 3.05-46.39 6.83s20.77 6.83 46.39 6.83c10.74 0 20.61-.54 28.48-1.44 10.9-1.25 17.92-3.2 17.92-5.39s-7.02-4.14-17.92-5.39Z" style="fill:#f8f8f8"/><path d="M669.88 667.64c0-2.19-7.02-4.14-17.92-5.39.92 1.72 1.42 3.53 1.42 5.39s-.5 3.66-1.42 5.39c10.9-1.25 17.92-3.2 17.92-5.39Z" style="fill:#ccc;mix-blend-mode:multiply"/><path d="M623.49 675.97c-12.46 0-24.19-.72-33.02-2.02-13.18-1.94-14.87-4.39-14.87-6.31s1.69-4.37 14.87-6.31c8.83-1.3 20.56-2.01 33.02-2.01 10.47 0 20.37.5 28.65 1.45 19.25 2.21 19.25 5.48 19.25 6.88s0 4.67-19.25 6.88c-8.27.95-18.17 1.45-28.65 1.45Zm-44.81-8.33c1.95 2.24 18.5 5.33 44.81 5.33 10.36 0 20.15-.49 28.3-1.43 12.8-1.47 15.83-3.34 16.47-3.9-.64-.56-3.66-2.43-16.46-3.9-8.16-.93-17.95-1.43-28.31-1.43-26.31 0-42.87 3.09-44.81 5.33Z" style="fill:#37474f"/><path d="M490.19 678.72c0 2.56-.98 5.12-2.93 7.07a9.973 9.973 0 0 1-7.07 2.93H333.4c-2.56 0-5.12-.98-7.07-2.93a9.973 9.973 0 0 1-2.93-7.07v-5.5c0-2.56.98-5.12 2.93-7.07a9.973 9.973 0 0 1 7.07-2.93h146.79c2.56 0 5.12.98 7.07 2.93a9.973 9.973 0 0 1 2.93 7.07v5.5Z" style="fill:#fff;stroke:#37474f;stroke-linecap:round;stroke-linejoin:round;stroke-width:3px"/><path d="M342.07 679.95c0-1.24 1.01-2.25 2.25-2.25s2.25 1.01 2.25 2.25-1.01 2.25-2.25 2.25-2.25-1.01-2.25-2.25ZM350.34 671.67c0-1.24 1.01-2.25 2.25-2.25s2.25 1.01 2.25 2.25-1.01 2.25-2.25 2.25-2.25-1.01-2.25-2.25Z" style="fill:#37474f"/><path d="m344.33 669.32-1.39-1.39c-.62.46-1.19.99-1.69 1.58l1.44 1.44 1.64-1.64ZM356.51 682.42l-1.44-1.44-1.64 1.64 1.39 1.39c.62-.46 1.19-.99 1.69-1.58Z" style="fill:#ffda93"/><path d="M346.97 668.67c5.5 0 9.96 4.46 9.96 9.96 0 1.56-.37 3.02-1 4.33a9.921 9.921 0 0 0 2.88-7c0-5.5-4.46-9.96-9.96-9.96-3.94 0-7.34 2.3-8.96 5.62a9.918 9.918 0 0 1 7.08-2.96Z" style="fill:#ccc;mix-blend-mode:multiply"/><path d="M375.41 679.95c0-1.24 1.01-2.25 2.25-2.25s2.25 1.01 2.25 2.25-1.01 2.25-2.25 2.25-2.25-1.01-2.25-2.25ZM383.68 671.67c0-1.24 1.01-2.25 2.25-2.25s2.25 1.01 2.25 2.25-1.01 2.25-2.25 2.25-2.25-1.01-2.25-2.25Z" style="fill:#37474f"/><path d="m377.66 669.32-1.39-1.39c-.62.46-1.19.99-1.69 1.58l1.44 1.44 1.64-1.64ZM389.85 682.42l-1.44-1.44-1.64 1.64 1.39 1.39c.62-.46 1.19-.99 1.69-1.58Z" style="fill:#ffda93"/><path d="M380.3 668.67c5.5 0 9.96 4.46 9.96 9.96 0 1.56-.37 3.02-1 4.33a9.921 9.921 0 0 0 2.88-7c0-5.5-4.46-9.96-9.96-9.96-3.94 0-7.34 2.3-8.96 5.62a9.918 9.918 0 0 1 7.08-2.96Z" style="fill:#ccc;mix-blend-mode:multiply"/><path d="M408.74 679.95c0-1.24 1.01-2.25 2.25-2.25s2.25 1.01 2.25 2.25-1.01 2.25-2.25 2.25-2.25-1.01-2.25-2.25ZM417.01 671.67c0-1.24 1.01-2.25 2.25-2.25s2.25 1.01 2.25 2.25-1.01 2.25-2.25 2.25-2.25-1.01-2.25-2.25Z" style="fill:#37474f"/><path d="m411 669.32-1.39-1.39c-.62.46-1.19.99-1.69 1.58l1.44 1.44 1.64-1.64ZM423.18 682.42l-1.44-1.44-1.64 1.64 1.39 1.39c.62-.46 1.19-.99 1.69-1.58Z" style="fill:#ffda93"/><path d="M413.63 668.67c5.5 0 9.96 4.46 9.96 9.96 0 1.56-.37 3.02-1 4.33a9.921 9.921 0 0 0 2.88-7c0-5.5-4.46-9.96-9.96-9.96-3.94 0-7.34 2.3-8.96 5.62a9.918 9.918 0 0 1 7.08-2.96Z" style="fill:#ccc;mix-blend-mode:multiply"/><path d="M442.07 679.95c0-1.24 1.01-2.25 2.25-2.25s2.25 1.01 2.25 2.25-1.01 2.25-2.25 2.25-2.25-1.01-2.25-2.25ZM450.34 671.67c0-1.24 1.01-2.25 2.25-2.25s2.25 1.01 2.25 2.25-1.01 2.25-2.25 2.25-2.25-1.01-2.25-2.25Z" style="fill:#37474f"/><path d="m444.33 669.32-1.39-1.39c-.62.46-1.19.99-1.69 1.58l1.44 1.44 1.64-1.64ZM456.51 682.42l-1.44-1.44-1.64 1.64 1.39 1.39c.62-.46 1.19-.99 1.69-1.58Z" style="fill:#ffda93"/><path d="M446.96 668.67c5.5 0 9.96 4.46 9.96 9.96 0 1.56-.37 3.02-1 4.33a9.921 9.921 0 0 0 2.88-7c0-5.5-4.46-9.96-9.96-9.96-3.94 0-7.34 2.3-8.96 5.62a9.918 9.918 0 0 1 7.08-2.96Z" style="fill:#ccc;mix-blend-mode:multiply"/><path d="M469.13 684.02h10l-1.32-7.29h-7.35l-1.33 7.29zM469.13 669.44l1.33 7.29h7.35l1.32-7.29h-10z" style="fill:#e84545"/><path d="M469.13 684.02h10l-1.32-7.29h-7.35l-1.33 7.29z" style="fill:#ccc;mix-blend-mode:multiply"/><path d="M479.13 685.52h-10c-.44 0-.87-.2-1.15-.54-.29-.34-.4-.79-.32-1.23l1.28-7.02-1.28-7.02c-.08-.44.04-.89.32-1.23.29-.34.71-.54 1.15-.54h10c.44 0 .87.2 1.15.54.29.34.4.79.32 1.23l-1.28 7.02 1.28 7.02c.08.44-.04.89-.32 1.23-.29.34-.71.54-1.15.54Zm-8.2-3h6.41l-1-5.52c-.03-.18-.03-.36 0-.54l1-5.52h-6.41l1 5.52c.03.18.03.36 0 .54l-1 5.52Z" style="fill:#37474f"/><path d="M586.83 152.77h111.4V288h-111.4z" style="fill:#fff"/><path d="M586.83 168.14h111.4M586.83 184.8h111.4M586.83 201.47h111.4M586.83 218.14h111.4M586.83 234.8h111.4M586.83 251.47h111.4M586.83 268.14h111.4" style="fill:none;stroke:#93e5db;stroke-linecap:round;stroke-linejoin:round;stroke-width:3px"/><path d="M698.23 289.5h-111.4c-.83 0-1.5-.67-1.5-1.5V152.77c0-.83.67-1.5 1.5-1.5h111.4c.83 0 1.5.67 1.5 1.5V288c0 .83-.67 1.5-1.5 1.5Zm-109.9-3h108.4V154.27h-108.4V286.5Z" style="fill:#37474f"/><path d="M655.13 233.15h-32.97l-5.81 13.39c-1.37 3.31-2.06 5.78-2.06 7.4 0 .69.11 1.31.33 1.87.22.56.69 1.08 1.41 1.55s1.72.88 3 1.22c1.28.34 2.98.58 5.1.7v2.34h-26.79v-2.34c2.12-.31 3.84-.78 5.15-1.41a9.924 9.924 0 0 0 3.37-2.58c.94-1.09 1.79-2.51 2.58-4.26.78-1.75 1.73-3.9 2.86-6.46l29.97-69.97h2.15l29.6 70.72c1.19 2.94 2.29 5.29 3.33 7.07 1.03 1.78 2.09 3.17 3.18 4.17 1.09 1 2.28 1.69 3.56 2.06 1.28.38 2.83.59 4.64.66v2.34H654.1v-2.34c3.37-.12 5.67-.67 6.89-1.64 1.22-.97 1.83-2.14 1.83-3.51-.06-1.81-.91-4.74-2.53-8.81l-5.15-12.18Zm-1.78-4.68-14.42-34.38-14.8 34.38h29.23Z" style="fill:#e84545"/><path d="M642.53 106.01c-4.14 0-7.5 3.36-7.5 7.5 0 1.02.21 1.99.58 2.88l9.81-9.81c-.89-.37-1.86-.58-2.88-.58ZM639.44 120.34c.94.43 1.99.67 3.09.67 4.14 0 7.5-3.36 7.5-7.5 0-1.1-.24-2.15-.67-3.09l-9.92 9.92Z" style="fill:#809eaa;stroke:#37474f;stroke-linecap:round;stroke-linejoin:round;stroke-width:3px"/><path d="m645.41 106.58-9.81 9.81a7.54 7.54 0 0 0 3.83 3.95l9.92-9.92a7.47 7.47 0 0 0-3.95-3.83Z" style="fill:#546e7a;stroke:#37474f;stroke-linecap:round;stroke-linejoin:round;stroke-width:3px"/><path d="M59.57 371.34h64.41v17.79H59.57z" style="fill:#fff;stroke:#37474f;stroke-linecap:round;stroke-linejoin:round;stroke-width:2.65px"/><path d="M59.57 324.72h64.41v46.62H59.57z" style="fill:#37474f;stroke:#37474f;stroke-linecap:round;stroke-linejoin:round;stroke-width:2.65px"/><path d="M131.68 376.9h17.8v64.41h-17.8z" style="fill:#fff;stroke:#37474f;stroke-linecap:round;stroke-linejoin:round;stroke-width:2.65px" transform="rotate(-74.6 140.555 409.088)"/><path d="M125.82 345.85h46.62v64.41h-46.62z" style="fill:#37474f;stroke:#37474f;stroke-linecap:round;stroke-linejoin:round;stroke-width:2.65px" transform="rotate(-74.6 149.103 378.041)"/><path d="M149.13 355.72c0-3.69 2.99-6.68 6.68-6.68s6.68 2.99 6.68 6.68-2.99 6.68-6.68 6.68-6.68-2.99-6.68-6.68ZM85.09 324.72c0-3.69 2.99-6.68 6.68-6.68s6.68 2.99 6.68 6.68-2.99 6.68-6.68 6.68-6.68-2.99-6.68-6.68ZM107.16 287.22c0-3.69 2.99-6.68 6.68-6.68s6.68 2.99 6.68 6.68-2.99 6.68-6.68 6.68-6.68-2.99-6.68-6.68ZM128.42 287.22c0-3.69 2.99-6.68 6.68-6.68s6.68 2.99 6.68 6.68-2.99 6.68-6.68 6.68-6.68-2.99-6.68-6.68ZM133.89 308.22c0-3.69 2.99-6.68 6.68-6.68s6.68 2.99 6.68 6.68-2.99 6.68-6.68 6.68-6.68-2.99-6.68-6.68Z" style="fill:#e84545;stroke:#37474f;stroke-linecap:round;stroke-linejoin:round;stroke-width:2.65px"/><path d="M421.48 173.87h61.73v7h-61.73z" style="fill:#809eaa;stroke:#37474f;stroke-linecap:round;stroke-linejoin:round;stroke-width:3px" transform="rotate(-60 452.35 177.368)"/><path d="M431.29 179.53h61.73v7h-61.73z" style="fill:#809eaa;stroke:#37474f;stroke-linecap:round;stroke-linejoin:round;stroke-width:3px" transform="rotate(-60 462.126 183.035)"/><path d="M458.65 91.01h7v61.73h-7z" style="fill:#809eaa;stroke:#37474f;stroke-linecap:round;stroke-linejoin:round;stroke-width:3px" transform="rotate(-30 462.121 121.885)"/><path d="M448.84 96.67h7v61.73h-7z" style="fill:#809eaa;stroke:#37474f;stroke-linecap:round;stroke-linejoin:round;stroke-width:3px" transform="rotate(-30 452.387 127.537)"/><path d="M483.13 211c0-2.56-.98-5.12-2.93-7.07a9.973 9.973 0 0 0-7.07-2.93h-54.42c-2.56 0-5.12.98-7.07 2.93a9.973 9.973 0 0 0-2.93 7.07v1.86h74.42V211Z" style="fill:#607d8b;stroke:#37474f;stroke-linecap:round;stroke-linejoin:round;stroke-width:3px"/><circle cx="470.81" cy="152.52" r="12.95" style="fill:#809eaa;stroke:#37474f;stroke-linecap:round;stroke-linejoin:round;stroke-width:3px" transform="rotate(-76.64 470.818 152.514)"/><circle cx="439.39" cy="94.4" r="12.95" style="fill:#809eaa;stroke:#37474f;stroke-linecap:round;stroke-linejoin:round;stroke-width:3px" transform="rotate(-45 439.388 94.39)"/><path d="M470.81 144.8c-4.26 0-7.72 3.45-7.72 7.72 0 .98.19 1.91.52 2.78 1.12 2.89 3.91 4.94 7.19 4.94s6.08-2.05 7.19-4.94a7.718 7.718 0 0 0-7.2-10.5Z" style="fill:#f8f8f8"/><path d="M470.81 150.36c3.28 0 6.08 2.05 7.19 4.94a7.718 7.718 0 0 0-7.2-10.5 7.712 7.712 0 0 0-7.2 10.5c1.12-2.89 3.91-4.94 7.19-4.94Z" style="fill:#ccc;mix-blend-mode:multiply"/><path d="M470.81 161.74c-5.08 0-9.22-4.13-9.22-9.22s4.13-9.22 9.22-9.22 9.22 4.13 9.22 9.22-4.13 9.22-9.22 9.22Zm0-15.43c-3.43 0-6.22 2.79-6.22 6.22s2.79 6.22 6.22 6.22 6.22-2.79 6.22-6.22-2.79-6.22-6.22-6.22Z" style="fill:#37474f"/><path d="M432.45 95.25c-4.05-7.02-13.02-9.42-20.04-5.37l-33.25 19.2 14.67 25.4 33.25-19.2c7.01-4.05 9.42-13.02 5.37-20.04Z" style="fill:#809eaa;stroke:#37474f;stroke-linecap:round;stroke-linejoin:round;stroke-width:3px"/><path d="M379.48 109.55c-.9-1.56-2.4-2.78-4.29-3.27a6.99 6.99 0 0 0-5.34.75l-2.69 1.59 21.23 36.77 2.83-1.67a6.952 6.952 0 0 0 3.2-4.25c.49-1.86.18-3.73-.71-5.27l-14.22-24.64Z" style="fill:#809eaa;stroke:#37474f;stroke-linecap:round;stroke-linejoin:round;stroke-width:3px"/></g></svg>