<svg xmlns="http://www.w3.org/2000/svg" xmlns:xlink="http://www.w3.org/1999/xlink" viewBox="0 0 144 144"><defs><radialGradient id="a" cx="1.66" cy="145.866" r=".067" fx="1.66" fy="145.866" gradientTransform="scale(1469.48994 -1469.48994) rotate(49.416 159.44 71.112)" gradientUnits="userSpaceOnUse"><stop offset="0" stop-color="#6420ff"/><stop offset="1" stop-color="#6420ff" stop-opacity="0"/></radialGradient><radialGradient id="b" cx=".743" cy="144.84" r=".067" fx=".743" fy="144.84" gradientTransform="scale(1657.11998 -1657.11998) rotate(-54.703 -139.631 73.107)" gradientUnits="userSpaceOnUse"><stop offset="0" stop-color="#00c4cc"/><stop offset="1" stop-color="#00c4cc" stop-opacity="0"/></radialGradient><radialGradient xlink:href="#a" id="c" cx="1.602" cy="147.007" r=".067" fx="1.602" fy="147.007" gradientTransform="matrix(1023.00018 -1030.0017 -473.7114 -470.4913 68033.152 70936.24)"/><radialGradient id="d" cx=".667" cy="144.774" r=".067" fx=".667" fy="144.774" gradientTransform="rotate(66.52 -276059.222 -182096.508) scale(1495.86 -2505.9)" gradientUnits="userSpaceOnUse"><stop offset="0" stop-color="#00c4cc" stop-opacity=".726"/><stop offset="0" stop-color="#00c4cc"/><stop offset="1" stop-color="#00c4cc" stop-opacity="0"/></radialGradient></defs><circle fill="#7d2ae7" cx="72" cy="71.245" r="63.335"/><circle fill="url(#a)" cx="72" cy="71.245" r="63.335"/><circle fill="url(#b)" cx="72" cy="71.245" r="63.335"/><circle fill="url(#c)" cx="72" cy="71.245" r="63.335"/><circle fill="url(#d)" cx="72" cy="71.245" r="63.335"/><path d="M99.343 84.238c-.522 0-.982.44-1.461 1.405-5.405 10.96-14.742 18.716-25.546 18.716-12.492 0-20.228-11.277-20.228-26.856 0-26.39 14.704-41.647 27.618-41.647 6.035 0 9.72 3.792 9.72 9.827 0 7.163-4.069 10.956-4.069 13.482 0 1.134.705 1.82 2.104 1.82 5.62 0 12.215-6.457 12.215-15.579 0-8.845-7.698-15.346-20.612-15.346-21.344 0-40.313 19.787-40.313 47.166 0 21.193 12.102 35.197 30.775 35.197 19.818 0 31.278-19.719 31.278-26.119 0-1.417-.725-2.066-1.48-2.066Z" fill="#fff"/></svg>