<svg xmlns="http://www.w3.org/2000/svg" width="192" height="192" viewBox="0 0 144 144" xmlns:v="https://vecta.io/nano"><path d="M132.576 72c0-33.455-27.121-60.576-60.576-60.576S11.424 38.545 11.424 72c0 30.235 22.152 55.296 51.111 59.84V89.51H47.154V72h15.381V58.654c0-15.182 9.044-23.568 22.88-23.568 6.628 0 13.56 1.183 13.56 1.183v14.907h-7.639c-7.525 0-9.872 4.669-9.872 9.46V72h16.8L95.58 89.51H81.465v42.33c28.959-4.544 51.111-29.605 51.111-59.84z" fill="#1677f0"/><path d="M95.58 89.51L98.265 72h-16.8V60.637c0-4.791 2.347-9.46 9.872-9.46h7.639V36.27s-6.932-1.183-13.56-1.183c-13.837 0-22.88 8.386-22.88 23.568V72H47.154v17.51h15.381v42.33a61.03 61.03 0 0 0 18.93 0V89.51H95.58z" fill="#fff"/></svg>