<svg xmlns="http://www.w3.org/2000/svg" xmlns:xlink="http://www.w3.org/1999/xlink" viewBox="0 0 480 640" xmlns:v="https://vecta.io/nano"><path d="M457.3 309c0-13.8-11.2-24.9-24.9-24.9h-119c-13.8 0-24.9 11.2-24.9 24.9v293.5c0 13.8 11.2 24.9 24.9 24.9h119c13.8 0 24.9-11.2 24.9-24.9V309h0zm-3.8 293.3c0 11.8-9.6 21.3-21.3 21.3h-119c-11.8 0-21.3-9.6-21.3-21.3V308.7c0-11.8 9.6-21.3 21.3-21.3h119c11.8 0 21.3 9.6 21.3 21.3v293.6z" fill="#58595b"/><path d="M288.5 329.4h-.2a1.58 1.58 0 0 0-1.6 1.6v9.8a1.58 1.58 0 0 0 1.6 1.6h.2m168.8 59.7h0a1.79 1.79 0 0 0 1.8-1.8V364a1.79 1.79 0 0 0-1.8-1.8h0m-168.8-7.8h0a1.79 1.79 0 0 0-1.8 1.8v20.6a1.79 1.79 0 0 0 1.8 1.8h0m0 7h0a1.79 1.79 0 0 0-1.8 1.8V408a1.79 1.79 0 0 0 1.8 1.8h0"/><path d="M453.5 308.7c0-11.8-9.6-21.3-21.3-21.3h-119c-11.8 0-21.3 9.6-21.3 21.3v293.5c0 11.8 9.6 21.3 21.3 21.3h119c11.8 0 21.3-9.6 21.3-21.3V308.7h0zm-60.9-12.9c0 1.2-.9 2.1-2.1 2.1s-2.1-.9-2.1-2.1.9-2.1 2.1-2.1 2.1.9 2.1 2.1zm-28.4-1.2h18.7c.8 0 1.4.5 1.4 1.2s-.6 1.2-1.4 1.2h-18.7c-.8 0-1.4-.5-1.4-1.2-.1-.7.6-1.2 1.4-1.2zm84 307.1c0 8.3-7 14.7-15.3 14.7H313.8c-8.4 0-14.8-6.4-14.8-14.7V308.4c0-8.4 6.4-15.3 14.8-15.3h13.8c2.9 0 4 0 4.2 3.7.2 3.8 2.8 5.9 6.4 7 1.2.4 2.6.3 3.8.3h62.9c1.3 0 2.6.2 3.8-.2 3.6-1.1 6.2-3.4 6.4-7.2.2-3.7 1.3-3.6 4.2-3.6h13.6c8.4 0 15.3 6.9 15.3 15.3v293.3h0z" fill="#231f20"/><path d="M388.4 295.8c0 1.2.9 2.1 2.1 2.1s2.1-.9 2.1-2.1-.9-2.1-2.1-2.1c-1.1 0-2.1.9-2.1 2.1zm-24.2 1.2h18.7c.8 0 1.4-.5 1.4-1.2s-.6-1.2-1.4-1.2h-18.7c-.8 0-1.4.5-1.4 1.2-.1.7.6 1.2 1.4 1.2z" fill="#fff"/><path d="M228.6 72.6c0-13.9-11.3-25.2-25.2-25.2H83.1c-13.9 0-25.2 11.3-25.2 25.2v296.8c0 13.9 11.3 25.2 25.2 25.2h120.3c13.9 0 25.2-11.3 25.2-25.2V72.6zm-3.9 296.5c0 11.9-9.7 21.6-21.6 21.6H82.8c-11.9 0-21.6-9.7-21.6-21.6V72.3c0-11.9 9.7-21.6 21.6-21.6h120.3c11.9 0 21.6 9.7 21.6 21.6v296.8z" fill="#58595b"/><path d="M57.9 93.2h-.2a1.58 1.58 0 0 0-1.6 1.6v9.9a1.58 1.58 0 0 0 1.6 1.6h.2m170.7 60.5h0c1 0 1.9-.8 1.9-1.9v-36.7c0-1-.8-1.9-1.9-1.9h0m-170.7-7.8h0c-1 0-1.9.8-1.9 1.9v20.9c0 1 .8 1.9 1.9 1.9h0m0 6.8h0c-1 0-1.9.8-1.9 1.9v20.9c0 1 .8 1.9 1.9 1.9h0"/><path d="M224.7 72.3c0-11.9-9.7-21.6-21.6-21.6H82.8c-11.9 0-21.6 9.7-21.6 21.6v296.8c0 11.9 9.7 21.6 21.6 21.6h120.3c11.9 0 21.6-9.7 21.6-21.6V72.3zm-61.5-13.1c0 1.2-.9 2.1-2.1 2.1s-2.1-.9-2.1-2.1.9-2.1 2.1-2.1c1.1 0 2.1 1 2.1 2.1zM134.4 58h18.9c.8 0 1.5.5 1.5 1.2s-.6 1.2-1.5 1.2h-18.9c-.8 0-1.5-.5-1.5-1.2s.7-1.2 1.5-1.2zm85 310.5c0 8.4-7.1 14.9-15.5 14.9H83.5c-8.4 0-14.9-6.5-14.9-14.9V72c0-8.4 6.5-15.4 14.9-15.4h13.9c2.9 0 4 0 4.2 3.8.2 3.9 2.8 6 6.4 7.1 1.2.4 2.6.3 3.9.3h63.6c1.3 0 2.7.2 3.9-.2 3.6-1.1 6.3-3.4 6.4-7.3.2-3.7 1.3-3.7 4.2-3.7h13.8c8.4 0 15.5 7 15.5 15.4l.1 296.5h0z" fill="#231f20"/><path d="M158.9 59.2c0 1.2.9 2.1 2.1 2.1s2.1-.9 2.1-2.1-.9-2.1-2.1-2.1c-1.1 0-2.1 1-2.1 2.1h0zm-24.5 1.2h18.9c.8 0 1.5-.5 1.5-1.2s-.6-1.2-1.5-1.2h-18.9c-.8 0-1.5.5-1.5 1.2s.7 1.2 1.5 1.2z" fill="#fff"/><path d="M307.6 337.8h132.1c2.2 0 3.9 1.8 3.9 3.9v26.4c0 2.2-1.8 3.9-3.9 3.9H307.6c-2.2 0-3.9-1.8-3.9-3.9v-26.4c0-2.1 1.7-3.9 3.9-3.9z" fill="#0067ef"/><g fill="#fff"><use xlink:href="#B"/><use xlink:href="#C"/><use xlink:href="#C" x="9.2"/><path d="M353.3 366.2c.6-.2 1-.6 1-1.3-.4-.1-.8-.4-.8-1v-.1c0-.5.4-.9 1-.9s1 .5 1 1.2v.2c0 1-.3 1.6-.7 2s-.9.6-1.3.6c-.3 0-.4-.2-.4-.4-.2-.1 0-.2.2-.3z"/><use xlink:href="#C" x="22"/><use xlink:href="#D"/><use xlink:href="#E"/><use xlink:href="#F"/><use xlink:href="#F" x="3.8"/><path d="M311.8 356c0-.5.4-.9.9-.9h3c2.3 0 3.7 1.3 3.7 3.3h0c0 2.2-1.8 3.3-3.9 3.3h-1.9v2.4c0 .5-.4.9-.9.9s-.9-.4-.9-.9V356zm3.7 4.3c1.3 0 2.1-.7 2.1-1.8h0c0-1.1-.8-1.8-2.1-1.8h-2v3.5h2z"/><path d="M311.4 357.7h8.4a.68.68 0 0 1 .7.7v.1a.68.68 0 0 1-.7.7h-8.4a.68.68 0 0 1-.7-.7v-.1c-.1-.4.2-.7.7-.7z"/></g><path d="M78 93.2h132.1c2.2 0 3.9 1.8 3.9 3.9v26.4c0 2.2-1.8 3.9-3.9 3.9H78c-2.2 0-3.9-1.8-3.9-3.9V97.1c0-2.1 1.8-3.9 3.9-3.9z" fill="#0067ef"/><g fill="#fff"><use xlink:href="#C" x="-238.7" y="-244.6"/><use xlink:href="#D" x="-260.7" y="-244.6"/><use xlink:href="#E" x="-260.7" y="-244.6"/><path d="M123.7 121.6c.6-.2 1-.6 1-1.3-.4-.1-.8-.4-.8-1v-.1c0-.5.4-.9 1-.9s1 .5 1 1.2v.2c0 1-.3 1.6-.7 2s-.9.6-1.3.6c-.3 0-.4-.2-.4-.4-.1-.1.1-.2.2-.3z"/><use xlink:href="#E" x="-247.9" y="-244.6"/><use xlink:href="#B" x="-189.2" y="-244.6"/><use xlink:href="#B" x="-180" y="-244.6"/><use xlink:href="#F" x="-229.5" y="-244.6"/><path d="M159.8 118.4a.94.94 0 0 1 1 1v.1c0 .5-.4 1-1 1a.94.94 0 0 1-1-1v-.1c0-.6.5-1 1-1zm-78-5.3h8.4a.68.68 0 0 1 .7.7v.1a.68.68 0 0 1-.7.7h-8.4a.68.68 0 0 1-.7-.7v-.1a.68.68 0 0 1 .7-.7zm288.8 232.5a3.8 3.8 0 1 1-7.6 0 3.8 3.8 0 1 1 7.6 0z"/></g><path d="M369 345.6c0 1.2-.9 2.1-2.1 2.1s-2.1-.9-2.1-2.1.9-2.1 2.1-2.1 2.1.9 2.1 2.1z" fill="#44abe0"/><circle cx="161" cy="213.5" r="3.8" fill="#fff"/><path d="M163.1 213.5c0 1.2-.9 2.1-2.1 2.1s-2.1-.9-2.1-2.1.9-2.1 2.1-2.1 2.1.9 2.1 2.1h0z" fill="#83d0f7"/><path d="M338.8 459.8l-4.3-5.8c-.2-.3-.4-.6-.4-1 0-.8.6-1.4 1.5-1.4.7 0 1.1.4 1.4.9l3.2 4.7 3.3-4.7c.4-.5.8-.9 1.4-.9.9 0 1.4.6 1.4 1.4a1.53 1.53 0 0 1-.4 1l-4.3 5.8v3.8a1.5 1.5 0 1 1-3 0v-3.8zm7.6.1h0c0-3 2.4-5.3 5.5-5.3 3.2 0 5.5 2.3 5.5 5.3h0c0 2.9-2.4 5.3-5.5 5.3-3.2-.1-5.5-2.4-5.5-5.3zm8.2 0h0c0-1.5-1.1-2.8-2.7-2.8-1.7 0-2.6 1.3-2.6 2.8h0c0 1.5 1.1 2.8 2.7 2.8 1.6-.1 2.6-1.3 2.6-2.8zm14.2 3.7c0 .8-.6 1.4-1.4 1.4s-1.4-.6-1.4-1.4v-.1c-.7.9-1.5 1.6-3 1.6-2.2 0-3.5-1.4-3.5-3.8V456c0-.8.6-1.4 1.4-1.4s1.4.6 1.4 1.4v4.4c0 1.4.6 2.1 1.7 2.1s1.8-.7 1.8-2.1V456c0-.8.6-1.4 1.4-1.4s1.4.6 1.4 1.4v7.6zm8.3-.1c-.3-.2-.6-.6-.6-1.1 0-.8.6-1.3 1.4-1.3.4 0 .6.1.8.3 1 .7 2.1 1.2 3.4 1.2 1.2 0 1.9-.5 1.9-1.3h0c0-.7-.5-1.1-2.7-1.7-2.7-.7-4.4-1.4-4.4-4.1h0c0-2.4 1.9-4 4.7-4 1.6 0 3 .4 4.2 1.2.3.2.6.6.6 1.2 0 .8-.6 1.3-1.4 1.3-.3 0-.5-.1-.7-.2-1-.6-1.9-.9-2.8-.9-1.1 0-1.7.5-1.7 1.2h0c0 .9.6 1.2 2.9 1.7 2.7.7 4.2 1.7 4.2 4h0c0 2.6-2 4.1-4.9 4.1a8.2 8.2 0 0 1-4.9-1.6zm16.9 1.6c-3.1 0-5.3-2.1-5.3-5.3h0c0-2.9 2.1-5.3 5-5.3 3.4 0 4.9 2.8 4.9 4.9 0 .8-.6 1.4-1.3 1.4h-5.7c.3 1.3 1.2 2 2.5 2 .8 0 1.5-.2 2.1-.7.2-.2.4-.2.7-.2a1.11 1.11 0 0 1 1.1 1.1c0 .4-.2.7-.4.9-.9.8-2.1 1.2-3.6 1.2zm1.9-6.1c-.2-1.3-.9-2.2-2.1-2.2s-2 .9-2.2 2.2h4.3zm4.9-2.9c0-.8.6-1.4 1.4-1.4s1.4.6 1.4 1.4v.1c.7-.9 1.5-1.6 3-1.6 2.2 0 3.5 1.4 3.5 3.8v5.3c0 .8-.6 1.4-1.4 1.4s-1.4-.6-1.4-1.4v-4.3c0-1.4-.6-2.1-1.7-2.1s-1.8.7-1.8 2.1v4.3c0 .8-.6 1.4-1.4 1.4s-1.4-.6-1.4-1.4v-7.6zm12.4 5.9v-4.8h-.1c-.7 0-1.2-.6-1.2-1.2 0-.7.6-1.2 1.2-1.2h.1v-1.3c0-.8.6-1.4 1.4-1.4s1.4.6 1.4 1.4v1.3h1.3c.7 0 1.2.6 1.2 1.2 0 .7-.6 1.2-1.2 1.2H416v4.4c0 .7.3 1 .9 1h.3c.6 0 1.2.5 1.2 1.2 0 .5-.3.9-.7 1.1-.5.2-1 .3-1.7.3-1.6-.1-2.8-.8-2.8-3.2z"/><use xlink:href="#G"/><use xlink:href="#H"/><use xlink:href="#I"/><path d="M370 481.1h0c0-3.9 2.4-6.9 5.9-6.9s5.9 3 5.9 6.8h0c0 3.9-2.4 6.9-5.9 6.9s-5.9-3-5.9-6.8zm8.8 0h0c0-2.5-1.2-4.3-2.9-4.3s-2.9 1.8-2.9 4.2h0c0 2.4 1.2 4.2 2.9 4.2 1.8.1 2.9-1.7 2.9-4.1z"/><use xlink:href="#H" x="32.4"/><use xlink:href="#H" x="46.3"/><path d="M84 241.3l-4.3-5.8c-.2-.3-.4-.6-.4-1 0-.8.6-1.4 1.5-1.4.7 0 1.1.4 1.4.9l3.2 4.7 3.3-4.7c.4-.5.8-.9 1.4-.9.9 0 1.4.6 1.4 1.4a1.53 1.53 0 0 1-.4 1l-4.3 5.8v3.8a1.47 1.47 0 0 1-1.5 1.5c-.9 0-1.3-.7-1.3-1.6v-3.7zm7.5.1h0c0-3 2.4-5.3 5.5-5.3 3.2 0 5.5 2.3 5.5 5.3h0c0 2.9-2.4 5.3-5.5 5.3-3.1-.1-5.5-2.4-5.5-5.3zm8.2 0h0c0-1.5-1.1-2.8-2.7-2.8-1.7 0-2.6 1.3-2.6 2.8h0c0 1.5 1.1 2.8 2.7 2.8 1.6-.1 2.6-1.3 2.6-2.8zm14.2 3.7c0 .8-.6 1.4-1.4 1.4s-1.4-.6-1.4-1.4v-.1c-.7.9-1.5 1.6-3 1.6-2.2 0-3.5-1.4-3.5-3.8v-5.3c0-.8.6-1.4 1.4-1.4s1.4.6 1.4 1.4v4.4c0 1.4.6 2.1 1.7 2.1s1.8-.7 1.8-2.1v-4.4c0-.8.6-1.4 1.4-1.4s1.4.6 1.4 1.4v7.6zm8.6-10.5a1.47 1.47 0 0 1 1.5-1.5h4.6c1.7 0 3 .5 3.9 1.3.7.7 1.1 1.8 1.1 3h0c0 2.1-1 3.4-2.7 4l2 2.5c.3.4.5.7.5 1.1 0 .8-.7 1.3-1.4 1.3s-1.1-.3-1.4-.8l-2.8-3.6h-2.3v2.9a1.47 1.47 0 0 1-1.5 1.5c-.9 0-1.5-.6-1.5-1.5v-10.2zm5.9 5c1.4 0 2.2-.8 2.2-1.9h0c0-1.3-.9-1.9-2.3-1.9h-2.9v3.8h3zm12.1 7c-3.1 0-5.3-2.1-5.3-5.3h0c0-2.9 2.1-5.3 5-5.3 3.4 0 4.9 2.8 4.9 4.9 0 .8-.6 1.4-1.3 1.4h-5.7c.3 1.3 1.2 2 2.5 2 .8 0 1.5-.2 2.1-.7.2-.2.4-.2.7-.2a1.11 1.11 0 0 1 1.1 1.1c0 .4-.2.7-.4.9-.9.7-2.1 1.2-3.6 1.2zm1.9-6.1c-.2-1.3-.9-2.2-2.1-2.2s-2 .9-2.2 2.2h4.3zm4.5.9h0c0-2.9 2.2-5.3 5.3-5.3 1.5 0 2.6.4 3.5 1.1.2.2.5.5.5 1 0 .7-.6 1.3-1.3 1.3-.4 0-.7-.2-.8-.3-.5-.4-1-.6-1.8-.6-1.4 0-2.5 1.3-2.5 2.8h0c0 1.6 1 2.8 2.6 2.8.8 0 1.3-.3 1.9-.7.2-.1.4-.3.8-.3.7 0 1.2.6 1.2 1.2 0 .4-.2.7-.4.9-.9.8-1.9 1.3-3.6 1.3-3.2 0-5.4-2.3-5.4-5.2z"/><use xlink:href="#J"/><path d="M169.5 233.8c0-.8.7-1.3 1.6-1.3s1.6.5 1.6 1.3h0c0 .8-.7 1.4-1.6 1.4s-1.6-.6-1.6-1.4h0zm.2 3.7c0-.8.6-1.4 1.4-1.4s1.4.6 1.4 1.4v7.5c0 .8-.6 1.4-1.4 1.4s-1.4-.6-1.4-1.4v-7.5zm10 9.1h-.2c-.8 0-1.3-.5-1.6-1.3l-3.1-7.2c-.1-.2-.2-.4-.2-.7 0-.7.6-1.3 1.4-1.3s1.2.4 1.4 1l2.2 5.9 2.2-5.9c.2-.5.6-1 1.3-1 .8 0 1.4.6 1.4 1.4 0 .2-.1.6-.2.7l-3.1 7.2c-.2.7-.7 1.2-1.5 1.2z"/><use xlink:href="#J" x="28.2"/><path d="M208 245.1c0 .8-.6 1.4-1.4 1.4s-1.4-.6-1.4-1.4v-.1c-.7 1-1.7 1.7-3.2 1.7-2.4 0-4.6-1.9-4.6-5.3h0c0-3.4 2.2-5.3 4.6-5.3 1.5 0 2.5.7 3.2 1.5v-3.7c0-.8.6-1.4 1.4-1.4s1.4.6 1.4 1.4v11.2zm-7.8-3.8h0c0 1.7 1.1 2.8 2.5 2.8 1.3 0 2.5-1.1 2.5-2.8h0c0-1.7-1.1-2.8-2.5-2.8-1.3 0-2.5 1.1-2.5 2.8z"/><use xlink:href="#G" x="-232.4" y="-218.5"/><use xlink:href="#H" x="-232.4" y="-218.5"/><use xlink:href="#I" x="-232.4" y="-218.5"/><use xlink:href="#H" x="-213.9" y="-218.5"/><use xlink:href="#H" x="-200" y="-218.5"/><path d="M165.3 262.6h0c0-3.9 2.4-6.9 5.9-6.9s5.9 3 5.9 6.8h0c0 3.9-2.4 6.9-5.9 6.9s-5.9-3-5.9-6.8zm8.9 0h0c0-2.5-1.2-4.3-2.9-4.3s-2.9 1.8-2.9 4.2h0c0 2.4 1.2 4.2 2.9 4.2 1.7.1 2.9-1.7 2.9-4.1z"/><path d="M82.4 111.4c0-.5.4-.9.9-.9h3c2.3 0 3.7 1.3 3.7 3.3h0c0 2.2-1.8 3.3-3.9 3.3h-1.9v2.4c0 .5-.4.9-.9.9s-.9-.4-.9-.9v-8.1zm3.7 4.3c1.3 0 2.1-.7 2.1-1.8h0c0-1.1-.8-1.8-2.1-1.8h-2v3.5h2z" fill="#fff"/><path d="M294.2 223.4c-.6 0-1.3-.2-1.8-.5l-3.2-1.8c-10.4-5.7-16.9-16.6-16.9-28.6v-10.1c0-1.5 1.2-2.8 2.7-2.9 9-.6 15.1-3 18-4.4.4-.2.8-.3 1.3-.3a3.08 3.08 0 0 1 1.3.3c2.8 1.4 9 3.8 18 4.4 1.5.1 2.7 1.4 2.7 2.9v10.1c0 12-6.5 22.9-16.9 28.6l-3.2 1.8c-.8.3-1.4.5-2 .5z" fill="#21a2db"/><path d="M294.2 176.8c.1 0 .3 0 .4.1 3.2 1.6 9.5 4 18.7 4.6.5 0 .9.4.9.9v10.1c0 11.2-6.1 21.5-15.8 26.8l-3.2 1.8c-.3.1-.6.2-.9.2s-.6-.1-.9-.2l-3.2-1.8c-9.8-5.3-15.8-15.6-15.8-26.8v-10.1c0-.5.4-.9.9-.9 9.2-.6 15.5-3.1 18.7-4.6-.1 0 0-.1.2-.1m0-4c-.7 0-1.5.2-2.2.5-2.7 1.3-8.5 3.6-17.2 4.2-2.6.2-4.6 2.3-4.6 4.9v10.1c0 12.7 6.9 24.3 17.9 30.4l3.2 1.8c.9.5 1.8.7 2.8.7s1.9-.2 2.8-.7l3.2-1.8c11.1-6 17.9-17.7 17.9-30.4v-10.1c0-2.6-2-4.7-4.6-4.9-8.7-.6-14.5-2.9-17.2-4.2-.5-.3-1.3-.5-2-.5h0z" fill="#1d1d1b"/><defs ><path id="B" d="M326.7 364.3c-.2-.2-.4-.4-.4-.7 0-.4.4-.8.8-.8.2 0 .3.1.5.1.6.4 1.1.6 1.8.6 1.4 0 2.3-1.3 2.4-3.1-.5.6-1.2 1-2.3 1-2.1 0-3.5-1.2-3.5-3.1h0c0-1.9 1.5-3.4 3.7-3.4a3.87 3.87 0 0 1 2.7 1c.7.7 1.2 1.8 1.2 3.7h0c0 3.2-1.6 5.3-4.2 5.3-1.2.2-2-.1-2.7-.6zm5-6h0c0-1.1-.8-1.8-2-1.8s-1.9.8-1.9 1.8h0c0 1 .8 1.8 2 1.8 1.1 0 1.9-.8 1.9-1.8z"/><path id="C" d="M335.8 364.3c-.2-.2-.4-.4-.4-.7 0-.4.4-.8.8-.8.2 0 .3.1.5.1.6.4 1.1.6 1.8.6 1.4 0 2.3-1.3 2.4-3.1-.5.6-1.2 1-2.3 1-2.1 0-3.5-1.2-3.5-3.1h0c0-1.9 1.5-3.4 3.7-3.4a3.87 3.87 0 0 1 2.7 1c.7.7 1.2 1.8 1.2 3.7h0c0 3.2-1.6 5.3-4.2 5.3-1.1.2-1.9-.1-2.7-.6zm5-6h0c0-1.1-.8-1.8-2-1.8s-1.9.8-1.9 1.8h0c0 1 .8 1.8 2 1.8s1.9-.8 1.9-1.8z"/><path id="D" d="M367 364.3c-.2-.2-.4-.4-.4-.7 0-.4.4-.8.8-.8.2 0 .3.1.5.1.6.4 1.1.6 1.8.6 1.4 0 2.3-1.3 2.4-3.1-.5.6-1.2 1-2.3 1-2.1 0-3.5-1.2-3.5-3.1h0c0-1.9 1.5-3.4 3.7-3.4a3.87 3.87 0 0 1 2.7 1c.7.7 1.2 1.8 1.2 3.7h0c0 3.2-1.6 5.3-4.2 5.3a3.44 3.44 0 0 1-2.7-.6zm5-6h0c0-1.1-.8-1.8-2-1.8s-1.9.8-1.9 1.8h0c0 1 .8 1.8 2 1.8s1.9-.8 1.9-1.8z"/><path id="E" d="M376.2 364.3c-.2-.2-.4-.4-.4-.7 0-.4.4-.8.8-.8.2 0 .3.1.5.1.6.4 1.1.6 1.8.6 1.4 0 2.3-1.3 2.4-3.1-.5.6-1.2 1-2.3 1-2.1 0-3.5-1.2-3.5-3.1h0c0-1.9 1.5-3.4 3.7-3.4a3.87 3.87 0 0 1 2.7 1c.7.7 1.2 1.8 1.2 3.7h0c0 3.2-1.6 5.3-4.2 5.3-1.2.2-2-.1-2.7-.6zm5-6h0c0-1.1-.8-1.8-2-1.8s-1.9.8-1.9 1.8h0c0 1 .8 1.8 2 1.8s1.9-.8 1.9-1.8z"/><path id="F" d="M385.6 363a.94.94 0 0 1 1 1v.1c0 .5-.4 1-1 1a.94.94 0 0 1-1-1v-.1a.94.94 0 0 1 1-1z"/><path id="G" d="M345.8 477.2l-1 .3c-.2 0-.4.1-.5.1-.7 0-1.3-.6-1.3-1.3 0-.6.4-1.1 1-1.3l1.9-.6c.6-.2 1-.2 1.4-.2h0c.8 0 1.4.6 1.4 1.4v10.7c0 .8-.6 1.4-1.4 1.4s-1.4-.6-1.4-1.4v-9.1z"/><path id="H" d="M351.5 481.1h0c0-3.9 2.4-6.9 5.9-6.9s5.9 3 5.9 6.8h0c0 3.9-2.4 6.9-5.9 6.9-3.6 0-5.9-3-5.9-6.8zm8.8 0h0c0-2.5-1.2-4.3-2.9-4.3s-2.9 1.8-2.9 4.2h0c0 2.4 1.2 4.2 2.9 4.2 1.8.1 2.9-1.7 2.9-4.1z"/><path id="I" d="M364.9 489.5c1-.2 1.5-.9 1.5-1.8-.7-.2-1.3-.7-1.3-1.6h0c0-.9.6-1.6 1.6-1.6 1.1 0 1.7.8 1.7 2.1v.1c0 1.4-.4 2.4-1.1 3.1-.6.6-1.4.9-2.1.9-.5 0-.7-.3-.7-.6s0-.5.4-.6z"/><path id="J" d="M162.8 246.6c-3.1 0-5.3-2.1-5.3-5.3h0c0-2.9 2.1-5.3 5-5.3 3.4 0 4.9 2.8 4.9 4.9 0 .8-.6 1.4-1.3 1.4h-5.7c.3 1.3 1.2 2 2.5 2 .8 0 1.5-.2 2.1-.7.2-.2.4-.2.7-.2a1.11 1.11 0 0 1 1.1 1.1c0 .4-.2.7-.4.9-1 .7-2.2 1.2-3.6 1.2zm1.8-6.1c-.2-1.3-.9-2.2-2.1-2.2s-2 .9-2.2 2.2h4.3z"/></defs></svg>