<svg xmlns="http://www.w3.org/2000/svg" width="127.144" height="23.332" xmlns:v="https://vecta.io/nano"><path d="M15.581 15.677c0 2.136-.765 3.946-2.293 5.43a7.61 7.61 0 0 1-5.497 2.226H3.262a2.94 2.94 0 0 1 .892-2.158c.595-.595 1.314-.892 2.158-.892H7.79a4.37 4.37 0 0 0 3.233-1.353c.889-.902 1.334-1.986 1.334-3.252v-.326H7.771c-2.124 0-3.95-.745-5.478-2.235S0 9.818 0 7.694.765 3.758 2.296 2.255A7.55 7.55 0 0 1 7.781 0c2.126 0 3.958.752 5.495 2.255s2.306 3.316 2.306 5.439v7.982zM12.3 12.3V7.694a4.56 4.56 0 0 0-1.318-3.271 4.29 4.29 0 0 0-3.221-1.372A4.29 4.29 0 0 0 4.54 4.423a4.56 4.56 0 0 0-1.317 3.271c0 1.266.439 2.35 1.317 3.253A4.32 4.32 0 0 0 7.761 12.3H12.3zm5.447 3.065V.502h2.889v14.863h-2.889zm19.779.312c0 2.136-.765 3.946-2.293 5.43a7.61 7.61 0 0 1-5.497 2.226h-4.528a2.94 2.94 0 0 1 .892-2.158c.595-.595 1.314-.892 2.158-.892h1.478a4.37 4.37 0 0 0 3.233-1.353c.889-.902 1.334-1.986 1.334-3.252v-.326h-4.586c-2.124 0-3.95-.745-5.478-2.235s-2.293-3.297-2.293-5.421.765-3.936 2.296-5.439A7.55 7.55 0 0 1 29.726 0c2.126 0 3.958.752 5.495 2.255s2.306 3.316 2.306 5.439v7.982zM34.245 12.3V7.694a4.56 4.56 0 0 0-1.318-3.271 4.29 4.29 0 0 0-3.221-1.372 4.29 4.29 0 0 0-3.221 1.372 4.56 4.56 0 0 0-1.317 3.271c0 1.266.439 2.35 1.317 3.253a4.32 4.32 0 0 0 3.221 1.353h4.538zM54.84 7.694v7.656h-7.79c-2.124 0-3.95-.745-5.479-2.235s-2.293-3.297-2.293-5.421.764-3.936 2.293-5.439S44.925 0 47.049 0a7.57 7.57 0 0 1 5.487 2.255c1.535 1.503 2.303 3.316 2.303 5.439zM51.578 12.3V7.694a4.56 4.56 0 0 0-1.318-3.271 4.29 4.29 0 0 0-3.221-1.372 4.29 4.29 0 0 0-3.221 1.372 4.56 4.56 0 0 0-1.317 3.271c0 1.266.439 2.35 1.317 3.253a4.32 4.32 0 0 0 3.221 1.353h4.538z" fill="#3df400"/><path d="M72.173 7.694v7.656h-7.79a7.57 7.57 0 0 1-5.479-2.235c-1.529-1.49-2.293-3.297-2.293-5.421s.764-3.936 2.293-5.439S62.259 0 64.382 0a7.57 7.57 0 0 1 5.488 2.255 7.33 7.33 0 0 1 2.302 5.439zM68.911 12.3V7.694c0-1.266-.44-2.357-1.318-3.271a4.29 4.29 0 0 0-3.22-1.372c-1.269 0-2.343.458-3.221 1.372a4.56 4.56 0 0 0-1.317 3.271 4.5 4.5 0 0 0 1.317 3.253 4.32 4.32 0 0 0 3.221 1.353h4.538zm4.648-4.345a7.15 7.15 0 0 1 1.011-3.741 7.71 7.71 0 0 1 2.701-2.701C78.397.839 79.645.502 81.012.502v2.889a4.39 4.39 0 0 0-3.221 1.343 4.39 4.39 0 0 0-1.344 3.221v7.381h-2.889V7.955zm20.825-4.592l.152-.176-1.039-.911C92.442 1.372 91.274.804 90.003.557a7.55 7.55 0 0 0-3.79.256c-1.247.408-2.318 1.127-3.222 2.151-.903 1.031-1.479 2.191-1.719 3.478a7.59 7.59 0 0 0 .248 3.806c.408 1.255 1.119 2.335 2.151 3.238 1.543 1.351 3.414 1.935 5.62 1.743 1.967-.24 3.598-1.047 4.877-2.406l-2.119-1.959c-.504.544-1.135.951-1.887 1.215-.759.272-1.543.352-2.366.256a3.78 3.78 0 0 1-1.407-.456L94.4 3.371l-.016-.008zm-9.962 6.396a4.51 4.51 0 0 1-.384-1.583c-.08-1.263.296-2.366 1.119-3.302.664-.76 1.463-1.231 2.398-1.439a4.62 4.62 0 0 1 2.75.216l-5.884 6.108zM102.82.502c1.377 0 2.629.337 3.755 1.011a7.66 7.66 0 0 1 2.694 2.701c.669 1.127 1.004 2.374 1.004 3.741v7.381h-2.889V7.955c0-1.252-.446-2.325-1.336-3.221a4.38 4.38 0 0 0-3.228-1.343 4.39 4.39 0 0 0-3.22 1.343 4.39 4.39 0 0 0-1.344 3.221v7.381h-2.889V7.955a7.15 7.15 0 0 1 1.011-3.741 7.71 7.71 0 0 1 2.701-2.701c1.126-.674 2.373-1.011 3.741-1.011zm24.324 7.192v7.656h-7.79a7.57 7.57 0 0 1-5.479-2.235c-1.529-1.49-2.292-3.297-2.292-5.421s.764-3.936 2.292-5.439S117.231 0 119.354 0a7.57 7.57 0 0 1 5.488 2.255 7.33 7.33 0 0 1 2.302 5.439zm-3.262 4.605V7.694c0-1.266-.44-2.357-1.318-3.271a4.29 4.29 0 0 0-3.22-1.372c-1.269 0-2.343.458-3.221 1.372a4.56 4.56 0 0 0-1.317 3.271 4.5 4.5 0 0 0 1.317 3.253 4.32 4.32 0 0 0 3.221 1.353h4.538z" fill="#08a"/></svg>