<svg xmlns="http://www.w3.org/2000/svg" width="192" height="192" viewBox="0 0 144 144" xmlns:v="https://vecta.io/nano"><rect width="144" height="144" rx="72" fill="#d20e56"/><path d="M115.062 90.648l-2.506-2.601a1.1 1.1 0 0 0-1.059-.305l-3.505.87c-.382.095-.685.386-.794.765l-.999 3.47c-.109.379-.008.787.265 1.071l2.506 2.601a1.1 1.1 0 0 0 1.06.305l3.505-.87c.382-.095.685-.386.794-.765l.999-3.47a1.1 1.1 0 0 0-.266-1.07zm-39.963 6.743h-7.598l-.037-28.236-6.008 20.484c-.558 1.783-1.928 3.024-3.795 3.102a2.7 2.7 0 0 1-2.689-1.893l-4.877-13.755.04 20.297h-5.9l-.061-32.748 6.801-2.269 6.45 19.125 7.216-23.685 10.41-3.474.049 43.051zM23.69 74.272l.015 4.737c0 .008-.005.014-.013.017l-3.666 1.005c-.011.003-.023-.005-.023-.016l-.007-2.343c-.001-.452-.145-.649-.542-.522l-4.148 1.419c-.31.11-.419.371-.418.785l.039 13.807c.001.413.112.629.422.608l4.155-.273c.397-.025.54-.277.538-.729l-.018-5.683c0-.011-.01-.019-.021-.017-1.466.239-2.805-.837-2.81-2.258l-.003-.861c0-.008.006-.015.014-.017l6.488-1.443c.011-.003.022.006.022.016l.038 12.237c.004 1.472-.943 2.65-2.289 2.65H13.52c-.975 0-2.489-.656-2.489-2.18l-.053-16.378c0-2.17 1.5-2.903 2.474-3.278l7.935-3.052c1.345-.517 2.298.259 2.303 1.769zM91.66 89.62h-1.995c-2.172 0-3.89-3.22-3.89-7.137l-.003-18.259c-.001-3.803 1.678-7.393 3.801-8.015l1.949-.571c2.282-.669 4.241 2.135 4.27 6.276l.138 19.911c.029 4.277-1.932 7.795-4.27 7.795zm1.135-42.64l-4.876 1.42c-5.186 1.51-9.197 7.207-9.197 12.742v26.185c0 5.535 4.011 10.064 9.197 10.064h4.876c5.858 0 10.954-5.241 10.954-11.648V55.436c0-6.406-5.096-10.163-10.954-8.457zM34.154 91.969h-1.121c-1.22 0-2.185-1.809-2.185-4.01l-.002-10.257c0-2.136.943-4.153 2.136-4.502l1.095-.321c1.282-.376 2.383 1.199 2.399 3.526l.077 11.185c.016 2.403-1.085 4.379-2.399 4.379zm.801-24.441l-2.888.841c-3.072.895-5.448 4.269-5.448 7.548v15.511c0 3.279 2.376 5.962 5.448 5.962h2.888c3.47 0 6.489-3.105 6.489-6.9V72.538c0-3.795-3.019-6.02-6.489-5.01zm89.58-17.376l-.129 3.962a1.1 1.1 0 0 1-.582.936l-3.496 1.869a1.1 1.1 0 0 1-1.102-.036l-3.366-2.093c-.335-.208-.532-.579-.52-.972l.13-3.962a1.1 1.1 0 0 1 .582-.936l3.496-1.869a1.1 1.1 0 0 1 1.102.036l3.366 2.093c.335.208.532.579.52.972zm6.157-3.077c-4.198-8.924-18.199-8.394-21.308-.313-.042.107-.079.332-.164.606-.697 2.251-.561 6.007-.517 7.744l.492 20.655c-.008 3.448 1.538 6.259 3.664 6.438l.429.038c3.328 0 4.564-2.124 8.1-8.178 1.39-2.379 5.405-9.807 7.602-14.219 1.222-2.453 2.347-5.151 2.557-7.955.14-1.878-.282-3.599-.855-4.817z" fill="#fff"/></svg>