<svg xmlns="http://www.w3.org/2000/svg" viewBox="0 0 144 144"><path d="M50.923 105.687c4.319 5.401 8.717 12.192 11.018 16.294 2.803 5.332 3.966 8.933 6.05 15.382 1.22 3.532 2.382 4.603 4.82 4.603 2.667 0 3.886-1.8 4.82-4.603 1.949-6.05 3.453-10.654 5.834-15.04 9.184-17.32 24.156-29.625 32.587-46.489 0 0 5.55-10.3 5.55-24.725 0-13.445-5.47-22.788-5.47-22.788L50.957 105.8l-.034-.114Z" fill="#34a853"/><path d="M28.819 74.011c5.252 11.964 15.268 22.447 22.104 31.676l36.234-42.956s-5.116 6.7-14.357 6.7c-10.3 0-18.686-8.204-18.686-18.573 0-7.132 4.25-12.078 4.25-12.078C31.7 42.746 33.182 49.206 28.739 73.99l.08.022Z" fill="#fbbc04"/><path d="M87.613 4.245c12.077 3.885 22.332 12.078 28.485 24.041L87.157 62.811s4.25-4.968 4.25-12.078c0-10.585-8.933-18.573-18.573-18.573-9.15 0-14.356 6.62-14.356 6.62 2.221-5.059 25.18-32.815 29.169-34.524l-.034-.011Z" fill="#4285f4"/><path d="M35.427 19.433C42.628 10.865 55.253 2 72.687 2c8.42 0 14.812 2.233 14.812 2.233L58.443 38.758c-1.96-1.063-21.079-15.952-23.016-19.37v.045Z" fill="#1a73e8"/><path d="M28.819 74.011s-4.752-9.434-4.752-23.016c0-12.875 5.036-24.156 11.394-31.448l23.017 19.37-29.625 35.094h-.034Z" fill="#ea4335"/></svg>