<svg xmlns="http://www.w3.org/2000/svg" viewBox="0 0 144 144"><path d="M118.553 78.794a6.634 6.634 0 0 1-6.63-6.632 6.631 6.631 0 0 1 6.63-6.63 6.627 6.627 0 0 1 6.628 6.63 6.63 6.63 0 0 1-6.628 6.632m-.049-19.912c-7.308 0-13.231 5.925-13.231 13.231 0 7.304 5.923 13.227 13.231 13.227 7.304 0 13.227-5.923 13.227-13.227 0-7.306-5.923-13.231-13.227-13.231"/><path d="M118.504 66.911a5.2 5.2 0 1 0 0 10.402 5.202 5.202 0 0 0 0-10.402" fill="#4279bb"/><path d="M91.515 75.701h7.444c-1.661 4.787-6.19 3.99-6.19 3.99-3.657-.067-5.374-3.058-5.374-3.058-3.06-5.322 0-9.24 0-9.24 1.395-2.46 5.051-2.727 5.051-2.727 4.453 0 5.982 3.325 5.982 3.325h6.912c-1.73-5.288-6.702-9.11-12.57-9.11-7.304 0-13.225 5.925-13.225 13.231 0 7.304 5.92 13.23 13.225 13.23 7.31 0 13.23-5.926 13.23-13.23 0-.495-.029-.982-.082-1.462H91.515v5.051Zm-28.157 1.313a5.177 5.177 0 0 0 5.177-5.182 5.178 5.178 0 0 0-5.177-5.183 5.182 5.182 0 0 0 0 10.365m-6.592-5.182a6.591 6.591 0 0 1 6.592-6.591 6.591 6.591 0 1 1 0 13.181 6.593 6.593 0 0 1-6.592-6.59m-9.176 0c.813-.106 2.172-1.035 2.651-1.633-.167.74-.18 2.876.016 3.612-.546-.84-1.84-1.876-2.667-1.979m-4.74-6.978c1.036 0 1.851 1.022 1.851 2.188 0 1.162-.815 2.188-1.85 2.188h-3.562v-4.376h3.562Zm-.013 9.72c1.038 0 1.852 1.023 1.852 2.19 0 1.165-.814 2.187-1.852 2.187h-3.56v-4.376h3.56Zm20.517 10.539c7.255-.002 13.158-6.032 13.156-13.285 0-7.41-5.901-13.165-13.156-13.17-7.249-.007-10.95 5.326-11.864 7.48.008-3.23-3.176-7.045-6.903-7.051H32.583V84.98l11.19.004c4.515 0 7.725-3.909 7.73-7.261 1.033 2.109 4.602 7.393 11.851 7.389m-32.237-.123h-7.036V74.944h-4.567V84.99h-7.222l-.023-25.9h7.245v9.637h4.567V59.09h7.036v25.9Z"/></svg>