<svg xmlns="http://www.w3.org/2000/svg" width="192" height="192" viewBox="0 0 144 144" xmlns:v="https://vecta.io/nano"><style><![CDATA[.A{isolation:isolate}.K{mix-blend-mode:multiply}.M{opacity:.41}.N{fill:#421925}.O{fill:#e3547d}.P{fill:#fd86ca}.Q{stroke-miterlimit:10}]]></style><g class="A" fill="none"><path d="M25.701 56.617c-1.031-2.122-3.711-.661-3.711-.661l-6.906 2.886c-2.495 1.043-1.34 4.639-1.34 4.639l.126.244 12.552-5.705-.72-1.402z" class="N"/><path d="M26.421 58.019l-12.552 5.705c.868 1.683 6.041 11.681 9.389 17.47l11.942-6.755-8.78-16.42z" fill="#6e4a54"/><path d="M35.201 74.439l-11.942 6.755c1.412 2.442 2.502 4.139 2.803 4.139 1.082 0 9.638-3.814 10.566-5.051s0-3.196 0-3.196l-1.427-2.648z" class="N"/><path d="M150.962 118.885L110.096 11.149S104.494-.519 94.715 3.393 84.046 28.91 82.178 32.733s-6.846 11.114-6.846 11.114l8.18-.533S78.8 57.627 84.668 59.85s11.291-.533 13.425-1.778 4.179-2.223 4.179-2.223l.561 40.322-18.482 49.368c-.164.821-17.25-15.772-19.714-17.004S32.617 86.642 32.617 86.642l-10.121 2.711 18.633 66.29 121.586-5.668-11.753-31.09z" class="P"/><path d="M128.657 56.617l-26.22 11.151s-.197 25.47-3.987 40.027-14.101 37.744-14.101 37.744L32.617 86.642l-10.121 3.692 18.633 65.309 121.586-5.668-34.058-93.357z" fill="#2a2670"/><g class="O"><path d="M83.233 28.726l.279 14.587s-4.025.993-6.102.763l-2.077-.23s6.805-12.452 7.901-15.121zm9.372 6.854s-4.165-.38-5.809.838.123 2.177 2.905 1.629 3.644-1.781 2.905-2.466z"/><circle cx="108.9" cy="35.524" r="5.06"/></g><path d="M90.228 32.175s-.16-1.598-1.758-1.358-1.518 2.956 0 2.796 1.758-1.438 1.758-1.438zm-5.592 18.694s1.76.559 4.875-.559 4.632-4.154 4.632-4.154-1.198 5.273-4.753 5.912-4.753-1.198-4.753-1.198z" class="N"/><path d="M102.272 55.849s3.455-2.983 4.014-5.779l1.118-5.273s2.237 4.154.879 8.229-5.432 9.027-5.432 9.027l-.579-6.204z" class="O"/><path d="M22.496 90.334s-8.011-14.196-6.649-15.71 8.781-7.116 9.387-6.964.454 2.725-.908 4.391-3.694 3.936-3.694 3.936 3.765 7.57 4.941 7.57 7.383-1.817 7.989-1.06-.944 4.146-.944 4.146l-10.121 3.692z" class="P"/><path d="M100.518 96.592L73.349 75.705l-5.155 6.823 25.452 40.075c-.013.035 7.357-14.221 6.872-26.011z" fill="#1d1a4d"/><path d="M84.338 22.143l-1.869 6.583 32.46-5.162s-.696-3.593-2.478-8.188l-28.112 6.768z" fill="#2a2670"/><path d="M109.204 7.525C104.742.088 94.143-1.247 90.228 4.334c-2.397 3.417-3.772 11.787-5.89 17.808l27.779-6.693c-.56-2.381-1.422-5.44-2.912-7.925zm19.453 49.092l5.862 17.271-32.92 12.181.839-18.301 26.22-11.151z" fill="#40bbcf"/><path d="M92.605 27.113s2.153 4.532 7.103 5.092 6.99-1.233 6.99-1.233 4.056-1.314 6.055 1.717-.548 6.658-.548 6.658 3.954 6.851 9.582 6.807 6.386-.477 6.386-.477-5.953.077-7.685-.881-1.732-1.392-1.732-1.392 8.226 3.896 12.122-.325 4.113-8.984-2.598-11.689-9.716-2.161-11.257-4.278-2.098-3.55-2.098-3.55l-22.323 3.55z" class="N"/><path d="M85.233 84.84l-8.286 11.452-8.753-13.766 5.155-6.823 11.884 9.136zM42.29 97.654l-15.868 7.613-3.925-14.933 10.121-3.692 9.673 11.012z" fill="#40bbcf"/><g class="P"><path d="M73.041 76.113S56.306 61.005 54.261 60.917s-9.069 2.578-8.98 3.201.711.8 1.956.711 6.224-.622 6.49-.711.445 8.18 2.401 9.246 5.69.622 5.69.622l7.009 7.702 4.213-5.576z"/><path d="M55.239 69.607s-3.379.244-4.179 0-1.6.521-.533 1.695 6.593 3.04 7.831 2.685-3.119-4.379-3.119-4.379z"/></g><g class="Q"><path d="M107.854 36.865v81.074s-1.396 27.6-21.691 29.079-50.962 0-50.962 0-9.667.986-15.252-21.686L6.725 69.607s-.92-19.466 13.225-12.99" stroke="#421925"/><path d="M92.232 3.378l-2.843 17.547m4.019-18.334v17.366m1.39-17.366l2.78 15.53m0-15.53l4.694 14.022m23.088 41.406c.182-.077 4.25 17.685 4.25 17.685l-8.661-15.809 3.528 17.709s-2.553 1.86-2.523 1.391-7.027-16.539-7.027-16.539l3.379 17.431-4.348 1.802-3.189-17.464m-38.63 13.082l11.791 9.335m-13.067-7.647l10.903 10.637m-12.938-7.944c.478-.633 9.99 10.815 10.594 10.581M99.528 1.051l6.778 15.799m-15.023 4.076v5.832m4.216-7.304l2.079 7.304m2.347-7.868l2.347 6.686m2.829-7.875l1.647 7.875M24.419 89.632l5.73 13.846" stroke="#534bde" stroke-width=".5"/></g><path class="K M O" d="M27.284 88.587l7.917 12.468"/><path d="M31.243 87.143c-.059.022 7.921 12.01 7.921 12.01" stroke="#534bde" stroke-width=".5" class="Q"/><circle cx="108.72" cy="35.524" r="2.05" class="N"/><g class="O"><path class="K M" d="M101.098 24.628s-3.084 22.051-6.3 28.065-5.409 8.222-5.409 8.222 7.316-.999 12.209-4.297 7.301-16.033 7.301-16.033 4.832-2.76 3.217-5.725-3.396-2.653-3.396-2.653l1.405-7.954-9.027.376z"/><path class="K M" d="M92.605 27.113s2.892 3.498 8.493 3.679 8.901-1.577 11.349 0 2.258 6.483 1.973 6.782-1.898-5.206-4.461-4.826-9.185 3.842-13.42 2.111-7.028-7.254-7.028-7.254l3.095-.492z"/><path class="K M" d="M90.228 32.175s1.701-3.574-1.026-3.449-2.608 2.413-1.9 3.624 2.926-.175 2.926-.175zm-6.716 11.138s.059-2.553-1.897-2.729-3.26 3.526-3.26 3.526 3.734-.086 5.157-.798z"/><path class="K M" d="M82.468 28.726s15.047.464 21.928-.913 10.532-4.25 10.532-4.25l-.749-1.925-31.711 7.087z"/><path class="K M" d="M95.499 1.097l4.426 25.66 15.822-3.195s-3.84-11.001-5.484-13.961S105.28-.27 95.499 1.097z"/><path class="K M" d="M107.854 34.859l12.337 53.728s-6.829 2.079-7.744 17.543 3.3 46.034 3.3 46.034l46.968-2.189-47.786-126.411s-9.468.873-7.075 11.296zM32.617 86.642l51.733 58.897s-8.451 6.523-17.447 2.126-41.548-59.078-41.548-59.078-7.949-12.266-7.506-13.242 7.707-7.027 7.707-7.027 1.163 2.503-.167 4.454-2.13 4.08-2.13 4.08l4.614 5.121 7.551-.78-1.862 1.301s.367.822-.288 2.484l-.655 1.662zm12.665-22.525s-.32.946 2.404.674l6.042-.674s.103 8.561 2.746 9.416 4.847.497 4.847.497l6.873 6.962v1.535l25.452 40.075 3.97-9.606c.122-.37-39.555-46.89-40.334-48.04s-1.671-2.375-3.901-2.903-8.1 2.064-8.1 2.064z"/></g><path d="M-31.757-8.311s1.013 8.034 10.035 8.034 10.792-11.05 11.551-14.442.759-12.389 5.69-15.002 6.069-4.911 5.69-6.442-2.929 0-2.929 0" stroke="#421925" stroke-width="1.236" class="Q"/></g></svg>