<svg xmlns="http://www.w3.org/2000/svg" viewBox="0 0 144 144"><path d="m80.383 72 12.446 14.226 16.736 10.696 2.918-24.834-2.918-24.28-17.057 9.397L80.383 72Z" fill="#00832d"/><path d="M8.156 94.616v21.157a8.752 8.752 0 0 0 8.755 8.755h21.157l4.378-15.992-4.378-13.92L23.55 90.24 8.156 94.616Z" fill="#0066da"/><path d="M38.068 19.472 8.156 49.384 23.55 53.76l14.518-4.377 4.305-13.73-4.305-16.182Z" fill="#e94235"/><path d="M38.068 49.384H8.156v45.232h29.912V49.384Z" fill="#2684fc"/><path d="m128.68 32.137-19.115 15.67v49.115l19.202 15.744c2.874 2.247 7.077.197 7.077-3.459V35.522c0-3.699-4.298-5.727-7.165-3.385ZM80.382 72v22.616H38.068v29.912h62.742a8.752 8.752 0 0 0 8.755-8.755V96.922L80.383 72Z" fill="#00ac47"/><path d="M100.81 19.472H38.068v29.912h42.315V72l29.182-24.178V28.227a8.752 8.752 0 0 0-8.755-8.755Z" fill="#ffba00"/></svg>