<svg xmlns="http://www.w3.org/2000/svg" xmlns:xlink="http://www.w3.org/1999/xlink" width="192" height="192" viewBox="0 0 144 144" xmlns:v="https://vecta.io/nano"><style>.D,.C{isolation:isolate}</style><defs><linearGradient id="A" x1="21.084" y1="37.469" x2="60.959" y2="106.531" gradientUnits="userSpaceOnUse"><stop offset="0" stop-color="#5a62c3"/><stop offset=".5" stop-color="#4d55bd"/><stop offset="1" stop-color="#3940ab"/></linearGradient><path id="B" d="M74.352 46.53v5.972c-.938-.062-1.867-.211-2.777-.444-5.624-1.332-10.271-5.276-12.499-10.61h10.193c2.803.011 5.072 2.28 5.083 5.083z"/></defs><g fill="#5059c9"><path d="M93.775 58.112h30.85a5.28 5.28 0 0 1 5.277 5.277h0v28.1a19.4 19.4 0 0 1-19.395 19.395h-.092a19.4 19.4 0 0 1-19.398-19.393V60.871a2.76 2.76 0 0 1 2.758-2.758h0z"/><circle cx="114.625" cy="40.059" r="12.499"/></g><g fill="#7b83eb"><circle cx="75.74" cy="34.504" r="18.054"/><path d="M99.813 58.112H48.89c-2.88.071-5.158 2.461-5.091 5.341v32.05c-.402 17.282 13.271 31.624 30.553 32.047 17.282-.423 30.955-14.765 30.553-32.047v-32.05c.067-2.88-2.211-5.27-5.091-5.341z"/></g><path class="C" d="M77.129 58.112v44.912c-.014 2.06-1.262 3.91-3.166 4.694a4.92 4.92 0 0 1-1.916.389H46.243l-.972-2.777a33.83 33.83 0 0 1-1.472-9.832V63.445c-.067-2.875 2.208-5.262 5.083-5.333h28.247z" opacity=".1"/><path class="D" d="M74.352 58.112v47.69a4.92 4.92 0 0 1-.389 1.916c-.784 1.904-2.634 3.153-4.694 3.166h-21.72l-1.305-2.777a27.55 27.55 0 0 1-.972-2.777c-.972-3.187-1.468-6.5-1.472-9.832V63.445c-.067-2.875 2.208-5.262 5.083-5.333h25.47z" opacity=".2"/><path class="D" d="M74.352 58.112v42.135c-.021 2.798-2.284 5.062-5.083 5.083H45.271c-.972-3.187-1.468-6.5-1.472-9.832V63.445c-.067-2.875 2.208-5.262 5.083-5.333h25.47z" opacity=".2"/><path class="D" d="M71.574 58.112v42.135c-.021 2.798-2.284 5.062-5.083 5.083h-21.22c-.972-3.187-1.468-6.5-1.472-9.832V63.445c-.067-2.875 2.208-5.262 5.083-5.333h22.692z" opacity=".2"/><path class="C" d="M77.129 43.753v8.749l-1.389.056c-.472 0-.917-.028-1.389-.056-.938-.062-1.867-.211-2.777-.444-5.624-1.332-10.271-5.276-12.499-10.61-.383-.896-.681-1.826-.889-2.777h13.86c2.803.011 5.072 2.28 5.083 5.083z" opacity=".1"/><use xlink:href="#B" class="D" opacity=".2"/><use xlink:href="#B" class="D" opacity=".2"/><path class="D" d="M71.574 46.53v5.527c-5.624-1.332-10.271-5.276-12.499-10.61h7.416c2.803.011 5.072 2.28 5.083 5.083z" opacity=".2"/><path d="M15.56 41.447h50.923a5.09 5.09 0 0 1 5.091 5.091v50.923a5.09 5.09 0 0 1-5.091 5.091H15.56a5.09 5.09 0 0 1-5.091-5.091V46.539a5.09 5.09 0 0 1 5.091-5.091z" fill="url(#A)"/><path d="M54.42 60.829h-10.18v27.72h-6.485v-27.72H27.623v-5.377H54.42v5.377z" fill="#fff"/></svg>