<svg xmlns="http://www.w3.org/2000/svg" width="192" height="192" viewBox="0 0 144 144" xmlns:v="https://vecta.io/nano"><path d="M121.614 9.394H22.386c-7.175 0-12.992 5.817-12.992 12.992v99.228c0 7.175 5.817 12.992 12.992 12.992h99.228c7.175 0 12.992-5.817 12.992-12.992V22.386c0-7.175-5.817-12.992-12.992-12.992z" fill="#fff"/><path d="M50.376 119.783c-1.57-1.395-.523-2.006-.61-2.616-1.046-4.36-4.534-6.976-2.703-8.371-.374-1.099-.811-2.177-1.308-3.226-5.406-3.052-9.94-8.109-10.725-8.807s-2.529-2.093-2.877-2.878-7.586-10.202-9.068-13.428l-2.529-.349c-1.134-4.796-5.057-8.807-5.144-13.515a27.03 27.03 0 0 1 1.134-6.452c.506-.782 1.123-1.487 1.831-2.093v-1.308c-5.58.174-4.011-.436-4.97-2.616s-.174-1.831.087-2.877c.785-3.052 3.226-7.848 4.272-10.028s1.395-3.749 1.395-3.749c4.185-8.458 5.755-7.848 10.725-8.371l.261-.349c4.97-.174 4.185-.61 4.883-5.406-.697.349-.959-1.482-.959-1.482-.436-2.703.785-2.18 1.308-2.267.087-4.447.61-5.929 3.837-7.15H22.386c-5.49 0-9.94 4.45-9.94 9.94v99.228c0 5.49 4.45 9.94 9.94 9.94h29.298c-3.401-1.831-1.395-5.232-1.308-11.771" fill="#00438c"/><path d="M121.614 12.446H42.179c1.207.324 2.239 1.106 2.877 2.18 1.221.087 2.703 2.877.436 6.888 1.046.698.262 1.657-.523 2.79s-.436 1.046-1.046.959c-.872 1.831-1.918 3.575-2.703 3.662-.346.39-.382.965-.087 1.395 1.165.475 2.252 1.122 3.226 1.918v.436c.872.523 1.308.959 2.267 1.482 2.354 1.482 5.319 4.185 4.97 13.428.698 2.006.959 5.929 1.57 7.237s2.093 4.098 2.442 6.365c0 0 .349 3.401.785 3.837h.262c2.006.436 1.657.698 1.831 1.046l.523.436c.523.262 1.395.523 1.395 1.482h0l.436.698a9.5 9.5 0 0 1 .698 1.308h0c.698 1.975.698 4.129 0 6.104v.262a8.72 8.72 0 0 1-4.011 4.447h-.174l-.261.174a9.07 9.07 0 0 1-3.749.872c-4.869-.647-8.293-5.118-7.646-9.987.425-3.2 2.55-5.919 5.554-7.103-1.046-2.529-3.139-6.627-3.749-7.935s-2.093-9.766-2.354-11.423-3.837 2.18-3.837 2.354-2.79 6.976-2.877 7.324c-.063.374-.093.754-.087 1.134 0 0 1.308.174 2.006 2.354s2.965 10.289 2.965 10.289l-.61.61c2.79 9.33 1.831 13.341 3.052 16.131s2.006 3.313 3.313 6.627 2.006 11.684 2.442 12.033c1.482 1.918 2.354 3.401 2.354 4.447s-1.308 4.273-.785 6.191.436 3.575.959 4.011.436.959.262 1.308a1.22 1.22 0 0 0-.174.523c.785 2.965 3.488 7.935-.785 10.551l-.262.174h68.71c5.422-.047 9.806-4.431 9.853-9.853V22.386a10.03 10.03 0 0 0-10.027-9.94z" fill="#da1a32"/><path d="M119.696 36.075h-9.94l-2.18 36.186-1.482 23.892-1.482-23.543-2.441-36.535H91.793l7.586 71.936h12.556l7.761-71.936zm-54.933 8.981h7.412v62.868h9.679V45.057h7.586v-9.068H64.763v9.068zm-36.884 80.307v-17.962h3.488c2.006 0 3.226 1.046 3.226 3.575v2.703c0 1.657-.523 2.441-1.221 2.877.833.602 1.294 1.591 1.221 2.616v2.616c0 2.442-1.308 3.575-3.226 3.575h-3.488 0zm2.442-7.848v5.58h.959c.785 0 1.046-.436 1.046-1.308v-3.052c0-.872-.262-1.221-1.046-1.221h-.959zm0-7.848v5.929h.872c.872 0 1.046-.262 1.046-1.308V110.8c0-.872-.262-1.221-1.046-1.221h-.872v.087zM40.349 121.7h-2.18l-.262 3.662h-2.441l2.18-17.962h3.401l2.093 17.962h-2.53l-.262-3.662zm-1.134-12.295h-.087l-.523 7.15-.262 3.139h1.831l-.262-3.139-.698-7.15m-18.398 15.957h-2.093V107.4h3.313l2.703 14.736c-.262-3.488-.523-7.761-.523-11.423V107.4h2.093v17.962h-3.052l-2.703-14.387c.174 3.313.262 6.017.262 8.72v5.668z" fill="#fff"/></svg>