<?xml version="1.0" encoding="UTF-8"?>
<svg id="Layer_2" data-name="Layer 2" xmlns="http://www.w3.org/2000/svg" viewBox="0 0 238.5 223.5">
  <defs>
    <style>
      .cls-1 {
        fill: #fff;
        stroke: #000;
        stroke-linecap: round;
        stroke-linejoin: round;
        stroke-width: .5px;
      }
    </style>
  </defs>
  <g id="Layer_1-2" data-name="Layer 1">
    <path class="cls-1" d="m233.75,199.25c-.11,0-.22,0-.33.01l-12.42-86.62c1.35-.77,2.25-2.22,2.25-3.89,0-2.33-1.76-4.24-4.02-4.48l-12.99-70.28c1.76-.61,3.01-2.27,3.01-4.24,0-2.49-2.01-4.5-4.5-4.5-1.81,0-3.36,1.06-4.07,2.59L9.06,3.44C8.5,1.59,6.78.25,4.75.25,2.26.25.25,2.26.25,4.75c0,2.25,1.64,4.11,3.8,4.44l25.49,115.64c-1.37.77-2.29,2.24-2.29,3.92,0,2.49,2.01,4.5,4.5,4.5.07,0,.14,0,.21-.01l32.65,81.55c-1.41.76-2.36,2.25-2.36,3.96,0,2.49,2.01,4.5,4.5,4.5,2.29,0,4.17-1.69,4.46-3.9l158.26-14.22c.58,1.81,2.27,3.12,4.28,3.12,2.49,0,4.5-2.01,4.5-4.5s-2.01-4.5-4.5-4.5Zm-16.49-94.74c-.73.25-1.38.69-1.87,1.26l-111.22-50.19c.05-.27.08-.55.08-.83s-.03-.57-.08-.85l96.46-22.33c.64,1.44,2,2.48,3.63,2.66l13,70.28Zm-2.88,5.3l-72.45,35.76c-.81-.82-1.94-1.32-3.18-1.32-.5,0-.97.08-1.42.23l-34.73-86.25c.3-.24.56-.51.77-.82l111.05,50.11c-.11.39-.17.8-.17,1.23,0,.36.04.72.13,1.06Zm-78.77,35.73c-.38.36-.69.79-.92,1.27l-98.45-18.23c-.03-.93-.35-1.8-.87-2.5l62.27-67.36c.63.34,1.35.53,2.11.53.36,0,.72-.04,1.06-.13l34.8,86.42ZM9.19,5.45l190.55,24.27v.02s-96.39,22.33-96.39,22.33c-.81-1.1-2.12-1.81-3.6-1.81-1.18,0-2.26.45-3.06,1.21L8.95,6.36c.11-.29.2-.59.24-.91Zm22.56,118.8c-.1,0-.21,0-.31.01L6.05,9.06c.67-.2,1.28-.56,1.77-1.03l87.73,45.11c-.2.5-.3,1.04-.3,1.61,0,.99.32,1.92.88,2.66l-62.27,67.37c-.63-.34-1.35-.53-2.11-.53Zm37.32,90.65c-.67-.42-1.47-.65-2.32-.65-.07,0-.14,0-.21.01l-32.65-81.55c.89-.48,1.6-1.25,2-2.19l98.36,18.21v.02c0,.66.14,1.28.39,1.84l-65.57,64.31Zm160.22-11.75l-158.26,14.22c-.12-.39-.3-.75-.52-1.09l65.34-64.09c.78.66,1.8,1.06,2.9,1.06,1.24,0,2.36-.5,3.17-1.31l87.96,49.52c-.31.5-.51,1.08-.59,1.69Zm2.03-3.18l-88.33-49.72c.17-.47.26-.97.26-1.5s-.09-1.02-.25-1.48l72.26-35.68c.82,1.02,2.08,1.66,3.49,1.66.11,0,.21,0,.32-.01l12.44,86.61c-.07.03-.13.07-.19.12Z"/>
  </g>
</svg>