<svg xmlns="http://www.w3.org/2000/svg" width="192" height="192" viewBox="0 0 144 144" xmlns:v="https://vecta.io/nano"><path d="M73.195 96.879v-.063c.063-.078.173-.126.267-.11h1.349c.094 0 .204.031.267.11v.063h-1.883z" fill="#d1effa"/><path d="M75.078 96.817a37.66 37.66 0 0 0-1.883 0l-2.589-.141c-2.291-.173-4.566-.518-6.794-1.036-7.704-1.789-14.467-5.382-20.367-10.607-.549-.486-1.067-.989-1.6-1.491-.126-.11-.235-.267-.298-.424a.58.58 0 0 1 .11-.628c.157-.173.408-.235.628-.141.141.063.282.126.408.204a61.05 61.05 0 0 0 18.233 7.532 66.64 66.64 0 0 0 6.543 1.177 60.21 60.21 0 0 0 9.509.424c1.71-.047 3.405-.204 5.1-.424 3.954-.502 7.861-1.396 11.643-2.652a54.91 54.91 0 0 0 5.837-2.291 1.31 1.31 0 0 1 .941-.126c.518.126.832.659.706 1.177a1.09 1.09 0 0 1-.078.204 1.72 1.72 0 0 1-.518.596 34.93 34.93 0 0 1-5.806 3.687c-3.876 1.961-8.018 3.358-12.286 4.158-2.463.439-4.943.706-7.437.8zM51.84 65.011l1.224-.706c1.098-.565 2.322-.847 3.562-.785.894.047 1.71.298 2.338.957.596.612.816 1.365.879 2.181.016.173.016.345.016.533v8.128c0 .706-.094.8-.8.8h-1.914c-.126 0-.251 0-.377-.016-.188-.016-.345-.173-.377-.361-.031-.173-.031-.345-.031-.518v-7.265c.016-.298-.016-.581-.094-.863-.126-.486-.565-.832-1.067-.863-.926-.063-1.852.126-2.699.518-.126.031-.204.157-.188.282v8.253c0 .157 0 .298-.031.455 0 .22-.173.377-.392.377h0l-.722.016h-1.663c-.581 0-.706-.141-.706-.722V67.99a3.64 3.64 0 0 0-.078-.816c-.11-.533-.565-.91-1.098-.941a5.53 5.53 0 0 0-2.746.533c-.126.031-.204.173-.173.298v8.363c0 .581-.126.706-.706.706h-2.103c-.549 0-.69-.157-.69-.69V64.556a1.57 1.57 0 0 1 .047-.377c.063-.188.251-.298.439-.298h1.961c.282 0 .455.173.549.439l.204.659c.157 0 .251-.11.361-.173.863-.533 1.773-.989 2.793-1.177a5.94 5.94 0 0 1 2.354 0 2.94 2.94 0 0 1 1.82 1.224c.031.047.063.078.094.11-.016.016 0 .016.016.047z" fill="#00a8e1"/><path d="M84.367 72.825l.282-.926 2.165-7.281.094-.282c.078-.282.345-.455.628-.455h2.385c.596 0 .722.173.518.737l-.941 2.495-3.154 8.206-.11.282c-.11.33-.439.549-.785.518-.69-.016-1.381-.016-2.071 0-.486.016-.769-.204-.941-.643l-1.192-3.122-2.84-7.406c-.094-.188-.157-.408-.204-.612-.047-.314.063-.471.377-.471h2.667c.377 0 .549.251.643.581l.533 1.804 1.914 6.559c-.016.016 0 .016.031.016z" fill="#232f3e"/><path d="M28.649 65.608c.11-.031.204-.094.267-.188a10.97 10.97 0 0 1 .894-.8c.816-.628 1.836-.941 2.856-.863.408.016.549.141.581.533l.016 1.616a2.95 2.95 0 0 1-.031.643c-.063.282-.173.392-.455.424-.22.016-.424 0-.643-.016-1.051-.094-2.071.11-3.06.439-.22.078-.22.235-.22.408v7.532l-.016.408c-.016.204-.173.361-.377.361-.11.016-.235.016-.345.016h-2.04c-.11 0-.235 0-.345-.016a.42.42 0 0 1-.377-.392c-.016-.126-.016-.251-.016-.377v-10.67c0-.722.078-.8.8-.8h1.506c.408 0 .596.141.706.533l.298 1.208zm73.401 15.91c1.036.031 2.055.094 3.06.361a5.08 5.08 0 0 1 .816.298c.361.141.596.486.643.863a6.44 6.44 0 0 1 .047 1.349 17.3 17.3 0 0 1-2.416 7.579c-.502.832-1.114 1.585-1.82 2.244a1.3 1.3 0 0 1-.502.314c-.298.078-.486-.078-.502-.377a1.71 1.71 0 0 1 .11-.471l1.506-4.456a15.5 15.5 0 0 0 .533-2.542 4.72 4.72 0 0 0 .016-.941c-.016-.533-.361-.989-.879-1.145-.486-.157-.989-.251-1.506-.282a24.77 24.77 0 0 0-4.315.188l-1.899.235c-.204.016-.392 0-.502-.188s-.063-.377.047-.565c.126-.173.282-.33.471-.439 1.161-.832 2.463-1.334 3.844-1.663 1.067-.22 2.15-.33 3.248-.361z" fill="#00a8e1"/><path d="M95.476 70.001v5.649c-.031.314-.173.455-.486.471h-2.526c-.314 0-.455-.157-.486-.455-.016-.094-.016-.204-.016-.298V64.509c.016-.486.141-.628.628-.628h2.259c.486 0 .628.141.628.628v5.492h0z" fill="#232f3e"/><path d="M34.768 69.97V64.4c.016-.377.157-.518.533-.533h2.448c.361 0 .471.11.502.471a3.48 3.48 0 0 1 .016.408v10.45c0 .173-.016.345-.031.518a.39.39 0 0 1-.377.361c-.094.016-.173.016-.267.016h-2.181c-.078 0-.141 0-.22-.016-.22-.016-.408-.188-.424-.408-.016-.126-.016-.251-.016-.377l.016-5.319zm1.82-11.721a1.96 1.96 0 0 1 .737.11c.847.282 1.287 1.02 1.208 1.977a1.75 1.75 0 0 1-1.491 1.6 2.96 2.96 0 0 1-1.051 0c-.894-.173-1.553-.832-1.491-1.961.094-1.114.832-1.726 2.087-1.726z" fill="#00a8e1"/><path d="M93.734 58.249c.314-.031.628.031.926.157a1.65 1.65 0 0 1 1.067 1.459c.126 1.428-.832 2.15-2.103 2.118-.173 0-.345-.031-.518-.063-.973-.235-1.475-.989-1.381-2.071.078-.863.753-1.506 1.679-1.585.11-.016.22-.031.33-.016z" fill="#232f3e"/><path d="M23.016 68.683c-.063-.816-.282-1.616-.612-2.354-.643-1.349-1.632-2.338-3.138-2.683-1.726-.377-3.279 0-4.692 1.051-.094.094-.204.173-.33.235-.031-.016-.063-.031-.063-.047l-.126-.471c-.126-.392-.282-.533-.706-.533h-1.428c-.361-.016-.69.031-.941.314l.016 16.475c.204.33.518.392.879.377h1.695q.989 0 .989-.973v-4.472c0-.11-.047-.235.063-.33a5.27 5.27 0 0 0 2.73 1.083c1.381.141 2.636-.204 3.687-1.145.769-.706 1.334-1.616 1.632-2.62.424-1.287.455-2.589.345-3.907zm-3.75 3.248c-.11.486-.361.926-.722 1.255-.408.345-.91.549-1.444.549-.8.047-1.585-.126-2.291-.502-.173-.078-.282-.251-.267-.439v-2.84-2.824c-.016-.22.11-.408.314-.486.863-.408 1.757-.596 2.699-.408.659.094 1.224.518 1.491 1.13.235.502.377 1.051.408 1.6.094 1.004.094 2.008-.188 2.966z" fill="#00a8e1"/><path d="M136.539 69.028v.063c-.063-.063-.094-.157-.063-.235v-.126s0-.016.016-.016h-.016v-.157h.031c0-.016-.016-.016-.016-.031a5.44 5.44 0 0 0-.173-.879c-.581-2.071-1.883-3.436-4.001-3.97a7.71 7.71 0 0 0-2.997-.11c-2.118.314-3.64 1.444-4.378 3.452-.722 1.914-.706 4.017.016 5.931.628 1.742 1.883 2.84 3.687 3.295.957.235 1.961.298 2.95.157 3.295-.392 4.66-2.887 4.88-5.052h-.016v-.22c-.016-.094-.031-.173.063-.235v.031c0-.016.016-.047.031-.063V69.06c0-.016-.016-.016-.016-.031zm-3.766 2.981a2.86 2.86 0 0 1-.439.91 2.03 2.03 0 0 1-1.491.847c-.298.031-.596.031-.894-.031a2.02 2.02 0 0 1-1.475-1.177 4.49 4.49 0 0 1-.424-1.553c-.078-.926-.094-1.852.126-2.762.078-.361.235-.722.424-1.036.345-.565.941-.926 1.6-.973.298-.031.596-.031.894.031a2.02 2.02 0 0 1 1.428 1.114 4.63 4.63 0 0 1 .455 1.773l.016.847a5.72 5.72 0 0 1-.22 2.008zm-23.74-13.651h-2.181c-.596 0-.706.11-.706.706v5.084c0 .11.047.22-.031.33-.141-.016-.22-.11-.33-.173-1.632-.957-3.342-1.13-5.068-.33-1.208.565-1.961 1.585-2.448 2.793-.471 1.161-.581 2.385-.549 3.625a7.47 7.47 0 0 0 .785 3.342c.596 1.145 1.459 2.024 2.715 2.401 1.71.533 3.311.267 4.77-.816.11-.063.173-.173.314-.204a2.29 2.29 0 0 1 .173.549c.063.251.282.424.549.424h.377 1.663c.439 0 .565-.141.581-.596V58.955c-.016-.486-.141-.596-.612-.596zm-2.871 11.548v2.856c.031.188-.078.361-.251.439-.753.424-1.616.596-2.463.471a2.15 2.15 0 0 1-1.679-1.161 4.35 4.35 0 0 1-.439-1.585 8.11 8.11 0 0 1 .188-2.95 3.6 3.6 0 0 1 .314-.769c.33-.612.957-1.004 1.648-1.051.832-.078 1.663.078 2.416.424.188.063.298.251.282.455l-.016 2.871h0z" fill="#232f3e"/><path d="M65.585 70.99c1.177.22 2.385.235 3.562.047.69-.094 1.349-.298 1.961-.628.706-.408 1.224-.973 1.444-1.757.549-1.977-.298-3.97-2.354-4.707a7.02 7.02 0 0 0-3.122-.298c-2.479.282-4.095 1.648-4.833 4.017-.518 1.616-.455 3.264-.031 4.896.549 2.087 1.93 3.326 4.017 3.766 1.192.267 2.401.22 3.593.031.628-.11 1.255-.267 1.852-.502.361-.141.549-.361.533-.769v-1.161c0-.471-.188-.612-.643-.502l-1.349.298c-.973.204-1.977.204-2.95.031-1.334-.267-2.197-1.412-2.118-2.824l.439.063zm-.392-2.401a4.26 4.26 0 0 1 .298-1.083c.471-1.145 1.459-1.538 2.463-1.475a2.56 2.56 0 0 1 .832.188c.408.173.675.549.722.989a1.8 1.8 0 0 1-.047.816c-.188.565-.643.8-1.192.91a3.17 3.17 0 0 1-1.02.078 12.26 12.26 0 0 1-1.852-.141q-.235-.031-.204-.282z" fill="#00a8e1"/><path d="M118.51 71.146c.91-.063 1.82-.235 2.636-.675.832-.408 1.412-1.177 1.585-2.087.11-.565.11-1.161-.016-1.726-.33-1.412-1.224-2.291-2.573-2.746-.753-.235-1.553-.33-2.338-.298-2.636.063-4.644 1.396-5.46 4.033-.549 1.742-.471 3.515.063 5.256.549 1.789 1.804 2.871 3.593 3.358.769.188 1.569.267 2.354.235 1.145-.016 2.291-.235 3.374-.643.455-.173.565-.33.565-.816v-1.13c-.016-.455-.204-.612-.659-.502l-1.02.251c-1.051.251-2.15.298-3.217.11-1.067-.204-1.789-.816-2.071-1.883a6.43 6.43 0 0 1-.173-.957c.078 0 .157 0 .22.031 1.036.188 2.087.267 3.138.188zm-3.279-2.511c.11-.612.251-1.208.628-1.71.581-.769 1.381-.989 2.291-.894.078 0 .141.031.22.031 1.098.173 1.365 1.051 1.161 1.899-.157.628-.675.863-1.255.973a4.01 4.01 0 0 1-.973.078c-.643-.016-1.271-.063-1.899-.157-.141-.016-.204-.078-.173-.22h0z" fill="#232f3e"/></svg>