<svg xmlns="http://www.w3.org/2000/svg" height="1000" width="990.833" xmlns:v="https://vecta.io/nano"><defs><linearGradient id="A" x1="8.393" y1="1.106" x2="11.125" y2="18.354" gradientUnits="userSpaceOnUse"><stop offset=".012" stop-color="#00b7f0"/><stop offset=".339" stop-color="#009de5"/><stop offset=".755" stop-color="#0082d9"/><stop offset="1" stop-color="#0078d4"/></linearGradient><linearGradient id="B" x1="14.379" y1="26.645" x2="29.546" y2="17.889" gradientUnits="userSpaceOnUse"><stop offset="0" stop-color="#0078d4"/><stop offset=".37" stop-color="#007ad5"/><stop offset=".573" stop-color="#0082d9"/><stop offset=".735" stop-color="#0090df"/><stop offset=".875" stop-color="#00a3e7"/><stop offset="1" stop-color="#00bcf2"/></linearGradient><linearGradient id="C" x1="10.45" y1="6.689" x2="24.291" y2="30.662" gradientUnits="userSpaceOnUse"><stop offset="0" stop-color="#00b7f0"/><stop offset="1" stop-color="#007cc1"/></linearGradient></defs><g transform="translate(-381.726 -337.143)"><g transform="matrix(33.333333 0 0 33.333333 348.392867 303.809524)"><path d="M18.518 9.73c0 4.821-3.922 8.73-8.759 8.73S1 14.551 1 9.73 4.922 1 9.759 1s8.759 3.909 8.759 8.73" fill="url(#A)"/><path d="M30.725 22.267a8.72 8.72 0 0 1-2.566 6.175C26.515 30.08 24.287 31 21.963 31c-4.839 0-8.762-3.91-8.762-8.733s3.923-8.733 8.762-8.733c2.324 0 4.552.92 6.196 2.558a8.72 8.72 0 0 1 2.566 6.175" fill="url(#B)"/></g><g fill-rule="evenodd"><path d="M382.793 653.043c12.612 152.903 141.426 269.954 294.834 267.91S956.686 798.468 965.22 645.284 862.258 358.447 710.026 339.376c-150.504 50.346-270.564 165.428-327.233 313.667z" opacity=".05"/><path d="M1371.793 1025.143c-10.615-154.911-140.597-274.428-295.852-272.035S794.45 878.97 788.616 1034.134s110.773 287.763 265.411 301.809c146.317-52.099 262.453-165.701 317.767-310.833z" opacity=".05"/><path d="M396.46 719.576c42.285 129.355 168.365 212.311 303.893 199.951s244.522-116.754 262.711-251.624-59.258-264.407-186.671-312.227c-185.791 38.707-333.257 179.95-379.933 363.9z" opacity=".1"/><path d="M1358.526 956.743c-41.689-130.965-169.083-215.115-305.902-202.063s-246.005 119.769-262.182 256.255 65.039 265.769 195.017 310.442c183.342-41.146 327.74-182.28 373.067-364.633z" opacity=".1"/><path d="M407.193 747.176c52.204 117.629 175.31 187.162 303.002 171.143s229.807-113.808 251.336-240.686S918.919 424.754 803.66 367.51c-198.681 30.926-356.973 182.51-396.467 379.667z" opacity=".1"/><path d="M1347.76 928.576c-51.964-119.055-176.356-189.438-305.17-172.671s-231.044 116.649-250.799 245.039 47.72 254.384 165.536 309.099c196.879-33.453 352.416-185.418 390.433-381.467z" opacity=".1"/></g><path d="M29.737 16.065c0 3.667-1.462 7.184-4.063 9.777s-6.13 4.05-9.81 4.05-7.208-1.457-9.81-4.05-4.063-6.11-4.063-9.777 1.462-7.184 4.063-9.777 6.13-4.05 9.81-4.05 7.208 1.457 9.81 4.05 4.063 6.11 4.063 9.777" transform="matrix(33.333333 0 0 33.333333 348.392867 303.809524)" fill="url(#C)"/><path d="M747.16 823.31c-18.688-12.3-34.282-28.749-45.567-48.067-10.895-20.409-16.272-43.308-15.6-66.433a119.4 119.4 0 0 1 28.133-80.4c19.687-22.524 44.99-39.431 73.333-49 30.827-10.89 63.307-16.36 96-16.167a372.8 372.8 0 0 1 63.867 4.9 230.6 230.6 0 0 1 44.3 11.433c13.178 4.46 25.075 12.056 34.667 22.133a44.8 44.8 0 0 1 10.7 29.767c.509 11.429-3.544 22.592-11.267 31.033-7.318 7.79-17.615 12.083-28.3 11.8-7.268-.06-14.44-1.674-21.033-4.733-16.251-7.274-32.992-13.4-50.1-18.333-15.748-4.152-31.982-6.171-48.267-6-21.225-.781-42.223 4.59-60.467 15.467a50.3 50.3 0 0 0-24.133 45.167c-.112 11.816 4.384 23.211 12.533 31.767a114.2 114.2 0 0 0 33.767 24.167q21.233 10.533 63.333 27.933c3.108.984 6.139 2.199 9.067 3.633a449.9 449.9 0 0 1 78.4 40.3c19.548 12.746 36.031 29.662 48.267 49.533 12.047 20.886 18.081 44.697 17.433 68.8 1.011 29.511-7.446 58.572-24.133 82.933-16.993 23.065-40.502 40.514-67.5 50.1-32.538 11.626-66.921 17.228-101.467 16.533-47.472 1.661-94.717-7.277-138.3-26.167-11.142-4.962-20.911-12.558-28.467-22.133-6.273-8.775-9.525-19.35-9.267-30.133-.63-11.511 3.817-22.719 12.167-30.667 8.65-7.574 19.879-11.536 31.367-11.067 12.8.174 25.372 3.409 36.667 9.433q21.067 10.533 33.233 15.8c9.263 3.878 18.858 6.913 28.667 9.067a164 164 0 0 0 36.833 3.8c21.897 1.564 43.687-4.245 61.9-16.5a54.5 54.5 0 0 0 20.867-45.2 48 48 0 0 0-13.067-33 138.9 138.9 0 0 0-38.467-28q-25.433-13.4-71.533-32.667c-27.487-10.953-53.807-24.633-78.567-40.833" fill="#fff" fill-rule="evenodd"/></g></svg>