<?xml version="1.0" encoding="UTF-8"?><svg id="a" xmlns="http://www.w3.org/2000/svg" width="2.6666666667in" height="2.6666666667in" viewBox="0 0 192 192"><defs><style>.b{fill:#0b9444;}.c{fill:#8cc63f;}.d{fill:#60bb46;}.e{fill:#0b9445;}.f{fill:#23aa4a;}.g{fill:#0c9446;}.h{fill:#1595d0;}.i{fill:#66bce1;}</style></defs><path class="f" d="m98.5614565917,7.2395837657c.501036788-.2435591327,1.022949224-.4314476171,1.558776989-.5775830842l.278354361.5427889135c1.2038803551,2.526056104,2.873995903,4.78767666,4.2796830371,7.2023917165,8.2949270421,14.2238532973,12.9434273512,30.7023688226,12.4771868492,47.2087150057.09742323,6.2699095511-1.2804226279,12.4145599053-1.93455458,18.6148768843l-.320105657.027835967c-3.96653239-8.8029241492-9.0673578721-17.1187268392-15.1493812823-24.6203527125-7.7243029911-10.0624711291-17.4388324962-18.4687420393-28.0301763804-25.3997385524,7.7312633101-8.9420920386,16.7429519028-16.8194908574,26.8402166634-22.9989341379Zm-9.8606643501,52.6714007175c3.2845697801-1.384806177,6.429959725-3.298485109,10.0555108101-3.618590766-5.504433731,7.44594863-10.7722723607,15.2120082262-14.3421541662,23.7922446392-5.3652592051,11.2176398692-8.4480222061,23.4651839724-9.6518999066,35.8240666344-10.6191785239-2.1015703821-20.8347448171-5.90108697-30.4727280675-10.793145354,8.6498289851-19.8117969203,24.9961249943-35.9006142165,44.4112713302-45.2045751537Z"/><path class="d" d="m100.3985879417,7.204789595c23.4095120383,14.1612248602,41.1614951816,37.181041324,49.5329698057,63.1862002134-10.9532061463,5.1008254821-22.6997081522,8.4897735021-34.7106598086,9.8397887021.6541319521-6.2003222882,2.03197781-12.3449673331,1.93455458-18.6148768843.466240502-16.5063514923-4.1822598071-32.9848670175-12.4771868492-47.2087169966-1.405681825-2.4147150564-3.075802682-4.6763352806-4.2796830371-7.2023918824l.0000053092-.0000031523Z"/><path class="e" d="m13.6263780952,120.9148624098c4.5747753297-2.8953748566,10.3187614758-3.2992821309,15.5312846213-2.3256534096,4.587529767.9353637875,7.9335843853,4.4684864599,11.0372852321,7.7124958484-2.4191910859,2.3554156555-4.7320908691,4.8086191149-7.1427768342,7.1682857089-1.9897700712-2.4914683931-4.4174662778-4.9574262898-7.6232155981-5.7269759047-2.1300753692-.2933634114-4.6342981997-.3783967779-6.3222046044,1.1904622651-1.2074676409,1.0459060286-2.261882034,2.7295614949-1.5731099814,4.3579434078.6122389411,1.1521989531,1.7516785913,1.8877329508,2.7508194311,2.6742879415,5.2337827035,3.5288725448,11.1818463342,6.1819025502,15.5142808673,10.8969831779,2.1045664946,2.2023559202,3.4735989914,5.2082738289,3.2865252608,8.2949741655-.1700634892,4.4854942685-2.8783702917,8.6053429527-6.5815556423,11.0160289178-2.7040509984,1.819706582-6.0586042499,2.3681733366-9.2600977661,2.3809277739-3.7244449086.0765266239-7.5551876074-.6547515697-10.7439266863-2.648777445-2.5254823885-1.4583135581-4.608789325-3.5033636702-6.7346153776-5.4676248668,2.0237840666-2.4276929628,4.3962067198-4.5577715758,6.5305378931-6.8919276733l.2721054752-.0382633119c3.2780266276,2.2321173552,6.649583633,4.7108313111,10.6844038164,5.2720492592,2.2533769133.3656423405,4.6980768737-.799309428,5.6461934767-2.908128483.3954005318-.829070863.0255088746-1.7516818351-.5016918344-2.4191910859-2.0152854334-2.7508194311-5.0764736516-4.4132137174-7.8740615153-6.2456779805-3.2865252608-2.1896014829-6.9769626616-3.9115186393-9.6214907901-6.9344435456-2.9038791663-2.9378931617-4.2601572259-7.4106297491-3.1802339582-11.4369448117.829070863-3.2865268827,3.0994515302-6.0883656849,5.9055445146-7.9208267042v-.0000032438Zm26.9469731187,10.9352497336l9.4726803714.0042509385.080782428.9651252225c5.2082738289-2.0450452465,11.6070050572-.9183567898,15.6078112452,3.0696933389,2.8783638042-2.869865171,7.0152259736-4.3239294125,11.0585512776-4.0178115638,5.0807294557.1062913026,9.7447923341,3.320540878,12.2575073103,7.6402177302,1.3435236222,2.2788857879,1.7856990742,4.9446702306,1.8834787686,7.5551876074l.0255088746,21.4623380105-9.5619614326.021259558-.0084986332-21.9130153394c.0084986332-2.1428330503-1.4838224327-4.1155993676-3.4395849961-4.9021543583-3.2780201401-1.5050852345-7.6529737893,1.2584886339-7.43613538,4.919161356l.0127544373,21.8789981003-9.5747158699.0127544373.0127544373-21.8747487837c.0977926694-2.2916402252-1.6496430928-4.3536908475-3.7542030999-5.0679685309-3.2610228737-1.2074676409-7.274570524,1.5433485464-7.1300159094,5.0509615332l.0084986332,21.8917557814c-3.1887390789.0085051207-6.3817339619.0297646787-9.5704665533-.0127544373l.0552735534-36.6832538446-.0000194625.0000032438Z"/><path class="g" d="m164.6790735695,118.4489037022l9.5577056285-.0085034988-.0127674123,13.5797770511,12.0109171972-.0085034988c-.8418188128,2.6402755681-2.1896112142,5.2677966988-4.5450171385,6.8579136779-2.1641023396,1.5476011068-4.7958760307,2.4234404025-7.4489027923,2.5552438235l.0042558041,11.6112608613c.0042558041,1.738924154.4336768187,3.698936034,2.0280463582,4.6725647554,2.4106794776,1.4115483692,5.3315623979,1.4072958088,8.044118517,1.3860394945.1828179265,3.1292162089-.2125826053,6.2754361718.0042558041,9.4131575014-4.5365055302.1488104187-9.3621462396-.0722773073-13.3714510608-2.4276962066-3.3800686136-2.0152854334-5.2380385076-5.82051277-5.8035155036-9.6044805486-.7610363848-4.9574279117-.3613800489-9.9913824472-.4251652105-14.9828243542-1.5858579312-.0467684327-3.1717418125-.0467684327-4.7533439396.0127544373-.0977796944-3.1674795209-.0042558041-6.3349622855-.0510177493-9.5024418064l4.8001058848.0042509385-.038276287-13.558518304.0000519001.0000056766Z"/><path class="c" d="m49.6060714878,69.3193289694c4.7250475593-14.3073578802,12.3171336889-27.6404834604,22.1151710951-39.0808031021,10.5913438842,6.9309965131,20.3058760439,15.3372674232,28.0301737258,25.399741207-1.245631651.146134845-2.484302983-.076547582-3.722974315-.1600554831l.38969292.8350577739c-4.196175136.842018093-8.1348742136,2.5886865321-12.0596579622,4.2588073891-13.9733368942,6.082018101-26.5618623024,15.4416509723-36.0328337325,27.4178010334-1.2595486391,1.5796526369-2.3451264662,3.298485109-3.7090576588,4.8015954731,1.0577425237-7.9330700892,2.484302983-15.8522195402,4.9894829413-23.4721389823l.0000029864-.0000053092Z"/><path class="b" d="m145.784730576,139.1161840341c1.9940258753-4.7916104953,7.397885043-7.8357949596,12.5423737103-7.130020775.038276287,3.0952038355-.0637851616,6.190406049.0552735534,9.2813557023-5.0212000982-.4931932012-10.2890032846,2.7125528754-11.7728257173,7.610457917-1.1266852129,2.9676545967-.8290773505,6.1734006732-.8588290542,9.2728522034l.0255088746,10.3740285417c-3.3460481308.0552735534-6.6920962616.0340139953-10.0339015633.0127544373v-36.4961768702c3.150475767-.0637754303,6.3009515339.0042509385,9.4514273008-.0382649338-.0212530705,2.7848318045.1658206601,5.5824196682-.1658206601,8.3587479739.3911577027-.3146213475.5527095837-.8035619884.7567935557-1.2457341966Zm-53.0606130828,7.9250792646c1.4455591208-8.4607883381,9.498189246-15.1571404038,18.0865316885-15.0125841673,4.3366903373-.0425158723,8.5840866384,1.6326344733,11.9131245277,4.3749487836.0311789551-1.4524358774.0368490356-2.9053080396.0170102414-4.3579434078l9.8680809032.0212579362.0084986332,36.4536658635c-3.2992861856.0637721866-6.5943165672.0340139953-9.8935897778.0170037539l.0510177493-3.9752973134c-2.6870472445,1.9047383266-5.658947914,3.5543814194-8.9667327329,4.0178099419-6.2371793473,1.1054321424-12.9377742421-1.3732818135-16.9981097876-6.2201691059-3.5543749319-4.1496133629-5.2082738289-9.9446140145-4.0858314451-15.318702016m16.1605338038-5.6206846021c-2.4404441564.5399583901-4.689571753,2.0450436246-5.9650673846,4.2133887933-1.8452154567,2.891124729-1.819706582,6.8366573637.0595293575,9.7022699743,1.7006608421,2.7720757453,4.970182349,4.5067505828,8.2269494186,4.2771609798,4.8723896795-.0765298676,9.1240417847-4.6768173157,8.7541501276-9.5534627994-.0297646787-5.4931337414-5.7524847793-9.8850911446-11.075548544-8.639356948h-.000012975Z"/><path class="i" d="m115.220903248,80.2307785106c12.0109463472-1.3500152001,23.7574589715-4.73896322,34.7106544995-9.8397887021,3.2845697801,10.5356719501,4.9686059661,21.5445447213,4.9477303181,32.5812481503-23.8270462345.368817272-47.5357829727-7.3206947422-67.055310203-20.8904180784-.8768117245-.640211314-1.64228489-1.412642144-2.4147157201-2.164197326,9.7771617582,1.036864553,19.6934980424,1.4752743971,29.4915354485.340981305l.320105657-.027835967v.0000106183Z"/><path class="h" d="m74.7622516334,115.9087156092c1.2038777005-12.3588826621,4.2866407016-24.6064320744,9.6518999066-35.8240666344l.570624051-.5845393799.424489206.417528887c.77243083.7515551821,1.537901341,1.5239860121,2.4147157201,2.164197326,19.5195245758,13.5697233362,43.2282666231,21.2592300412,67.0553075484,20.8904127692-14.4395773962,8.8446807543-31.1407753485,13.7715248061-47.9881081457,14.9893204901-10.7444390482.3409866141-21.5793410074.2853146801-32.1289282864-2.052853458Z"/></svg>