<svg xmlns="http://www.w3.org/2000/svg" viewBox="0 0 144 144"><path d="M24.927 71.368h-8.185v2.337h8.185v9.355H12.065l-4.677-4.677V53.827h9.354v8.185h8.185v9.356zM60.006 83.06H31.943l-4.677-4.677V62.012h9.354v11.693h2.339V62.012h9.354v11.693h2.338V62.012h9.355V83.06zm2.338-21.048h9.354v21.047h-9.354zm0-8.185h9.354v5.846h-9.354zm29.233 17.541h-8.185v2.337h8.185v9.355H78.714l-4.677-4.677V53.827h9.355v8.185h8.185v9.356zm21.047 0h-9.354v2.337h9.354v9.355H98.592l-4.677-4.677V66.69l4.677-4.678h14.032v9.356zM136.01 83.06h-9.355V71.368h-2.338V83.06h-9.355V53.827h9.355v8.185h7.016l4.677 4.678v16.37z" fill="#fff"/><path d="M132.502 59.673h-5.847v-8.185h-12.837l-5.904 8.185h-10.49l-3.509 3.508v-3.508H85.73v-8.185H60.006v8.185h-36.19l-5.905-8.185H5.05v28.063l16.37 16.37h16.37v-4.677l4.677 4.677h31.571v-4.677l4.677 4.677h15.201v-4.677l4.677 4.677h29.233l10.523-10.523V65.52l-5.846-5.847ZM24.927 71.366h-8.185v2.339h8.185v9.354H12.065l-4.677-4.677V53.827h9.354v8.185h8.185v9.354ZM60.006 83.06H31.943l-4.677-4.677v-16.37h9.354v11.693h2.339V62.012h9.354v11.693h2.338V62.012h9.355v21.047Zm11.693 0h-9.355V62.012H71.7v21.047Zm0-23.386h-9.355v-5.846H71.7v5.846Zm19.878 11.693h-8.185v2.339h8.185v9.354H78.714l-4.677-4.677V53.827h9.355v8.185h8.185v9.354Zm21.047 0h-9.354v2.339h9.354v9.354H98.592l-4.677-4.677V66.69l4.677-4.677h14.032v9.354ZM136.01 83.06h-9.355V71.366h-2.338V83.06h-9.355V53.827h9.355v8.185h7.016l4.677 4.677v16.37Z" fill="#9146ff"/></svg>