<svg xmlns="http://www.w3.org/2000/svg" width="192" height="192" viewBox="0 0 144 144" xmlns:v="https://vecta.io/nano"><path d="M120.36 48.516l.07 3.054c0 31.208-23.758 67.201-67.201 67.201v-.019c-12.833.019-25.4-3.657-36.203-10.588 1.866.224 3.741.337 5.622.341 10.635.009 20.966-3.559 29.333-10.13a23.65 23.65 0 0 1-22.065-16.402c3.539.682 7.187.543 10.663-.407-11.019-2.226-18.944-11.908-18.946-23.15v-.299a23.47 23.47 0 0 0 10.719 2.956c-10.378-6.936-13.577-20.742-7.31-31.536 11.991 14.755 29.684 23.725 48.676 24.675-1.903-8.203.697-16.799 6.833-22.566 9.513-8.942 24.474-8.484 33.416 1.024 5.289-1.043 10.359-2.984 14.999-5.734-1.764 5.468-5.453 10.11-10.383 13.062a46.97 46.97 0 0 0 13.563-3.718 47.98 47.98 0 0 1-11.786 12.235h0z" fill="#1d9bf0"/></svg>