<svg xmlns="http://www.w3.org/2000/svg" viewBox="0 0 134.547 88.944"><path d="m54.643 33.714-.074-.074-.072-1.152-.071-.071c.008-.12.008-.241 0-.362-.066-.415-.288-1.027-.288-1.442l-.074-.071-.071-.505-.072-.074a.715.715 0 0 0 0-.214l-.578-1.804a.43.43 0 0 0-.143-.216 2.38 2.38 0 0 0-.29-.721v-.143l-.214-.362v-.143c-.407-.647-.68-1.45-1.083-2.091l-.143-.143a2.159 2.159 0 0 0-.362-.579 1.444 1.444 0 0 0-.071-.216l-.65-.938c-.425-.6-.882-1.177-1.368-1.727l-2.2-2.2c-.567-.576-1.373-1.056-2.017-1.584-.365-.293-1.284-.708-1.585-1.01-.642-.4-1.442-.673-2.089-1.08h-.145c-.127-.076-.2-.145-.36-.216s-1.01-.328-1.082-.433a12.22 12.22 0 0 1-1.801-.576 1.481 1.481 0 0 0-.217 0 3.867 3.867 0 0 0-.863-.216l-.074-.072h-.288l-.071-.074h-.288l-.074-.071-.792-.072-.072-.07a6.685 6.685 0 0 0-1.08-.075l-.074-.071h-.938l-.071-.072h-2.596l-.072.072h-.864l-.074.071c-.19 0-.385-.018-.576 0a5.89 5.89 0 0 1-1.009.145l-.074.072h-.287l-.072.071h-.293l-.074.074h-.288l-.071.072a1.289 1.289 0 0 0-.288 0c-.186.07-.379.12-.576.145-.058.005-.25.143-.29.143a2.77 2.77 0 0 0-.721.216h-.214l-1.228.433-.864.36a2.893 2.893 0 0 0-.504.287h-.146L20 15.801c-.034.021-.117.127-.143.146-.143.087-.444.203-.579.288l-1.08.72a17.25 17.25 0 0 0-2.163 1.73L14.27 20.45l-1.516 1.875c-.288.365-.71 1.204-1.01 1.514-.028.07-.052.142-.07.216-.014.026-.146.13-.146.145l-1.151 2.235v.132c-.077.124-.146.2-.217.359s-.327 1.012-.433 1.08a11.49 11.49 0 0 1-.504 1.585 1.481 1.481 0 0 0 0 .216c-.072.328-.288.806-.288 1.154l-.074.072v.287l-.072.072-.071.72-.071.072a6.495 6.495 0 0 0-.074 1.012l-.072.071v.65l-.071.07-.071 2.523.07.074v1.226l.072.07c-.013.434.01.868.072 1.298l.074.074v.359l.071.071a2.71 2.71 0 0 0 0 .362c.106.351.18.713.216 1.08l.072.072.071.504.074.074a.603.603 0 0 0 0 .217l.647 2.017.217.576c.058.13.13.251.216.362v.143c.084.174.18.343.288.504v.146l.578 1.154a.74.74 0 0 0 .143.142c.05.192.15.368.288.51.042.123.09.244.145.362l1.154 1.73c.357.502.74.985 1.152 1.442l1.696 1.765 1.875 1.584c.024.021.27.132.288.146.232.166.488.422.718.575l1.011.65 2.164 1.151h.142c.153.066.349.217.505.29s1.011.326 1.082.431c.69.161 1.364.378 2.018.65h.217c.183.077.377.126.575.142l.074.074h.288l.072.072h.287l.072.071h.29l.071.074c.286.045.575.069.864.072l.074.07h.505l.071.072h.65l.07.074 2.31.08.073-.072 2.163-.074.072-.071h.504l.072-.071h.361l.072-.072c.12.01.24.01.359 0a6.804 6.804 0 0 1 1.083-.216l.071-.074.504-.072.075-.07h.214l.074-.072c.07.01.143.01.214 0l1.37-.433 1.297-.505a2.02 2.02 0 0 0 .362-.216h.145l2.235-1.154c.747-.44 1.468-.921 2.16-1.442l1.659-1.369 1.696-1.695a23.917 23.917 0 0 0 1.513-1.873l.792-1.154c.032-.045.045-.172.074-.216.167-.225.312-.468.43-.721l.146-.146c.214-.47.454-.926.721-1.368v-.145l.288-.576.071-.072c.032-.16.674-1.843.721-1.875a.99.99 0 0 1 0-.216c.096-.208.169-.426.217-.65l.07-.071a1.481 1.481 0 0 1 0-.216c.072-.328.291-.806.291-1.155l.072-.07.071-.648.071-.074v-.36l.075-.073v-.36l.07-.07V38.9l.072-.071a9.95 9.95 0 0 0 .074-1.585l.072-.071v-2.522l-.072-.074v-.864Zm-12.041-13.51a3.21 3.21 0 0 1 .216-.507c.095-.122.204-.23.325-.322a.743.743 0 0 1 .288-.146h.216l.074-.071h.505l.071.071h.288l.071.074c.123.01.245.035.362.072.296.126.585.27.864.43.486.296.945.634 1.37 1.012l.83.83c.188.205.462.528.647.792a9.214 9.214 0 0 1 1.155 2.017l.216.65a.951.951 0 0 1 0 .214l.072.074v.505l.074.07-.074.58a2.757 2.757 0 0 1-.217.504c-.018.024-.25.264-.264.264a2.284 2.284 0 0 1-.433.216 5.91 5.91 0 0 1-1.225-.071l-.058-.08h-.146l-.071-.07-.938-.431-1.08-.793-1.191-1.188-.576-.721-.867-1.442v-.156a1.461 1.461 0 0 1-.214-.36c-.071-.266-.137-.385-.216-.649a1.289 1.289 0 0 1 0-.287l-.074-.072v-1.009Zm-2.676 5.993c.09-.108.2-.198.325-.264a1.58 1.58 0 0 1 .507.074c.155.135.287.293.394.467 0 .135.013.494-.071.579a.732.732 0 0 1-.397.264h-.066v.005c-.008 0-.3-.126-.367-.15a3.142 3.142 0 0 1-.325-.325V26.7l-.071-.07c.01-.147.034-.292.071-.434ZM23.987 15.752l.074-.072v-.325c.098 0 .188.034.264 0a9.222 9.222 0 0 1 1.083-.359l.071-.074c.37 0 1.075-.277 1.442-.36l.648-.07.074-.072.863-.074.074-.071h.43l.075-.074h.72l.072-.072h3.391l.072.072c.41-.009.82.016 1.225.074l.071.071.793.074.071.072h.288l.071.07h.29l.072.072h.272l.071.074.505.072.074.071c.247.043.488.115.718.216h.22c.338.159.692.283 1.056.373v.494l-2.343.071-.071.071h-.658l-.071.072c-.338 0-.676.024-1.01.074l-.073.071h-.288l-.071.072h-.288l-.071.074h-.288l-.074.071c-.17.002-.34.026-.505.071l-1.08.362-.687.34-.034-.052h.01a.445.445 0 0 0-.242-.146h-.146l-.07-.07h-.146l-.072-.072c-.37-.064-.72-.293-1.08-.362l-1.154-.288-.65-.071-.071-.074-1.009-.072-.074-.07h-.647l-.074-.072h-1.514l-.071-.074h-.529c-.034 0 0-.072 0-.108h.001Zm-.34 4.03.07-.074v-.718l.075-.074v-.721l.071-.072a5.59 5.59 0 0 1 .08-1.188c.845-.027 1.563.098 2.408.071l.072.071h.644l.074.074c.29 0 .578.024.864.072l.071.071c.217.01.436.037.65.074a17.6 17.6 0 0 1 1.082.288l1.08.36c.154.055.423.21.577.287h.29a.422.422 0 0 1 .214-.143h.14a.372.372 0 0 1 .217-.145c.293-.072.72-.288 1.009-.36l.866-.216c.095-.01.193-.01.288 0l.071-.071h.288l.071-.074c.31-.05.624-.074.938-.072l.074-.07h.568l.071-.075h.938l.071-.071h1.69l.373 3.499-.116-.04.01.009a9.3 9.3 0 0 0-1.225-.296l-.072-.072c-.433 0-1.03-.208-1.442-.29a2.72 2.72 0 0 0-.359 0l-.074-.071h-.36l-.07-.072a5.701 5.701 0 0 1-1.012-.145c-.17-.01-.335-.01-.505 0l-.071-.072h-.72l-.072-.07h-1.075l-.074-.072h-1.802l-.071.071h-1.083l-.071.071a8.863 8.863 0 0 0-1.3.072l-.071.074h-.439l-.071.071h-.36l-.073.072h-.36l-.07.071h-.283l-.074.074h-.288l-.072.071a2.97 2.97 0 0 0-.65.072c-.495.153-1 .274-1.513.362l-.108.108v-.721ZM11.278 39.955l-.071-.074h-1.17a1.658 1.658 0 0 1-.093-.61l-.071-.075v-.504l-.074-.071v-.579l-.072-.071v-.864l-.07-.074v-2.089l.07-.074v-.863l.072-.072v-.578l.074-.072a5.563 5.563 0 0 1 .071-.937l.072-.072v-.287l.07-.074v-.288l.075-.071a4.12 4.12 0 0 1 .071-.576c.051-.094.112-.183.18-.264a9.687 9.687 0 0 1 1.516-.072l.071-.074h1.01l.07-.071h1.794l.071-.071h2.641c.037 0 0 .07 0 .108-.116.121-.071.259-.071.433l-.072.071a8.448 8.448 0 0 1-.145 1.152c-.016.193 0 .385 0 .578l-.071.072v.792l-.074.074c.05.982-.072 1.947-.072 2.955l.072.072V38.1l.074.071c-.013.458.01.917.071 1.371l.071.072v.507l.074.071v.433l.072.072v.433l.071.071.071.792.075.072v.287l.108.109c-.058-.024-.037.013-.037.036a.537.537 0 0 1-.037.109c-.42-.465-1.017-.92-1.476-1.408l-1.049-1.173c-1.273.048-2.64-.071-3.961-.071Zm4.723 10.76c-.159.153-.087.129-.325.108a.551.551 0 0 1-.288-.124 6.695 6.695 0 0 1-.975-1.057 4.577 4.577 0 0 1-.433-.866 4.07 4.07 0 0 1-.071-.505.349.349 0 0 1 .105-.18c.114.059.05-.07.149-.07l.07.07h.144l.361.21.684.757.288.43.29.65c.011.192.011.384 0 .576Zm2.45 1.513c0 .053-.074-.071-.108-.108a5.894 5.894 0 0 1-1.114-.38v-.737l-.074-.074a2.732 2.732 0 0 0-.072-.505 5.041 5.041 0 0 0-.216-.576c-.119-.264-.29-.546-.433-.792a6.51 6.51 0 0 0-.576-.792 5.484 5.484 0 0 0-.832-.845c-.219-.172-.483-.317-.72-.505a5.876 5.876 0 0 0-.957-.364 1.8 1.8 0 0 1-.087-.529l-.074-.071v-.362l-.143-.142.108-.109c.217.006.434.03.648.072l.074.074c.121.008.243.032.359.071.247.105.488.225.72.36.412.25.799.54 1.155.865.375.372.723.77 1.043 1.19.174.218.335.54.504.791.106.248.227.489.362.721v.146c.07.055.12.13.146.216v.143l.071.074c.02.197.069.391.143.576.01.095.01.192 0 .287l.074.074v1.231Zm2.38.436a.315.315 0 0 1-.105.182l-1.128-.304a6.32 6.32 0 0 0 .08-1.106l-.074-.071v-.579l-.072-.071v-.288l-.071-.071a3.294 3.294 0 0 0-.072-.505l-.29-.792-.071-.074-.433-.935-.576-.864-1.118-1.262-1.082-.864-1.08-.579-.65-.216h-.214l-.074-.071-.9-.064a5.099 5.099 0 0 0-.082-1.236h.636l.071.072c.242.007.483.031.721.07.304.104.539.202.864.291l.074.072.938.433 1.273.937 1.056 1.044.576.72.65 1.012.575 1.154.288.793.217.866c.063.38.087.766.074 1.151l.071.074a6.697 6.697 0 0 0-.071 1.08v.001Zm1.754-26.287-.072-.072-1.73-.863h-.145c-.547-.275-1.387-.529-1.849-.825a8.97 8.97 0 0 1-1.178 1.255c-.325.264-.655.55-1.009.792a6.188 6.188 0 0 1-.866.507c-.343.111-.724.27-1.08.36-.24.034-.482.034-.721 0l-.048-.058a.786.786 0 0 1-.29-.074 3.896 3.896 0 0 1-.468-.468.55.55 0 0 1-.074-.287l-.071-.072v-.29l-.071-.072a4.42 4.42 0 0 0 .07-.792l.072-.074.074-.502c.114-.076.156-.457.217-.578l.576-1.08c.274-.46.586-.896.937-1.3.4-.44.82-.861 1.263-1.26a9.27 9.27 0 0 1 1.067-.798l.866-.43.43-.146a.972.972 0 0 1 .217 0l.074-.07h.792l.072.07c.1.005.198.03.287.075.159.153.325.3.47.467.04.053.08.301.143.433v.935l-.071.074c.01.096.01.192 0 .288l-.288.863a7.812 7.812 0 0 1-.505.938c.08.066.164.127.251.182.246.082.487.178.721.288h.146c.16.108.33.203.504.288h.148l.072.071 1.98.975c-.148.245-.293.457-.43.72-.04.056-.307.479-.343.529h-.14Zm16.483 23.97-.072.071c0 .97-.119 1.963-.074 2.884l-.071.072v.874l-.071.072v.72l-.072.072v.578l-.074.072c.003.323-.024.647-.08.966-.316.061-.881.302-1.18.368-.42.092-.753.203-1.154.287a1.715 1.715 0 0 1-.288 0l-.074.072-.647.074-.074.071c-.34.021-.677.069-1.009.143-.214.021-.433 0-.647 0l-.074.074h-1.08l-.072.071h-1.442l-.069-.071h-1.08l-.072-.074a7.039 7.039 0 0 1-1.154-.071l-.07-.072h-.363l-.076-.08h-.362l-.072-.073-.65-.072-.07-.071a3.908 3.908 0 0 1-.864-.216 1.48 1.48 0 0 1-.216 0 5.74 5.74 0 0 0-1.192-.38 9.328 9.328 0 0 0-.142-1.387c-.022-.24 0-.48 0-.721l-.072-.071c.027-.666-.098-1.202-.074-1.876l-.071-.071v-1.284l-.072-.074v-1.043h.264l.074.071c.508 0 1.303.267 1.802.36.087.012.647.05.72.074.312-.251.761-1.213.999-1.585a9.358 9.358 0 0 0 1.584.074l.074.074h1.868l.074.071c.607-.134 1.56-.07 2.234-.07l.071-.075c.487.019.974-.006 1.456-.074.317.544.665 1.043.985 1.585.321-.047.638-.12.948-.217.096-.008.192-.008.288 0l.074-.077h.216l.071-.074h.22l.07-.071h.217l.072-.071.504-.074.108-.109v.354h.003Zm2.089-19.89-.072.071a8.43 8.43 0 0 1-.142 1.154c-.016.167 0 .335 0 .502l-.074.074-.072 1.009-.071.071v.505l-.074.074v.504l-.072.072a9.651 9.651 0 0 1-.142 1.297c-.021.24 0 .48 0 .72l-.074.075v.575l-.072.072v.504l-.071.074-.074.793-.071.07a5.95 5.95 0 0 1-.072.65c-.068.312-.222.759-.288 1.08-.1.344-.221.682-.361 1.01a3.362 3.362 0 0 1-.217.362v.142c-.132.201-.32.592-.43.793a6.062 6.062 0 0 1-.579.792c-.321.356-.675.68-1.056.972a3.996 3.996 0 0 1-.43.29 5.24 5.24 0 0 0-.722.36 4.362 4.362 0 0 0-.65.216 9.95 9.95 0 0 1-1.08.216c-.655.024-1.3 0-1.946 0l-.06-.066a5.976 5.976 0 0 1-.722-.074l-.071-.071a.744.744 0 0 1-.217 0 7.236 7.236 0 0 1-.874-.264 7.686 7.686 0 0 1-1.225-.65c-.344-.24-.692-.528-1.012-.792a10.68 10.68 0 0 1-1.189-1.263c-.475-.565-.903-1.222-1.368-1.801-.28-.346-.602-.927-.866-1.297-.042-.06-.177-.148-.216-.219-.14-.248-.272-.398-.434-.647a3.553 3.553 0 0 1-.287-.576c-.08-.264-.048-.507-.156-.792.026-.03.058-.058.084-.085a1.634 1.634 0 0 1 0-.359.74.74 0 0 1 .288-.422c.214.14.419.292.613.457 1.04 1 1.968 2.089 3 3.069.093-.28.114-.579.064-.87a4.678 4.678 0 0 0-.36-.649c-1.011-.866-2.27-2.245-3.246-3.243l-.935-1.226a1.039 1.039 0 0 1-.216-.504v-.792l.071-.075a2.957 2.957 0 0 1 0-.216.598.598 0 0 1 .146-.288c.074-.071.159-.132.25-.18.255.149.496.317.722.505.409.394.818.721 1.225 1.08 1.339 1.176 2.588 2.518 3.93 3.698.05.045.095-.095.143-.142a2.204 2.204 0 0 0 0-.648 1.026 1.026 0 0 0-.19-.427l-2.198-2.055c-.906-.83-1.778-1.78-2.641-2.641a1.642 1.642 0 0 1-.217-.288.614.614 0 0 1-.074-.288l-.071-.074a1.887 1.887 0 0 0-.072-.647l.072-.074a1.86 1.86 0 0 1 .071-.647c.07-.135.166-.254.283-.35.092.051.18.106.264.167.605.42 1.183.877 1.73 1.371 1.151 1.13 2.548 2.187 3.747 3.244.183.203.376.396.579.578.12.069.229.153.325.251.024.024.047-.047.071-.071v-.58l-.071-.07a.744.744 0 0 0 0-.217 3.553 3.553 0 0 0-.288-.576l-.72-.937c-.146-.183-.354-.328-.508-.505l-1.513-1.801c-.233-.29-.492-.697-.721-1.01a1.08 1.08 0 0 1-.214-.432c-.024-.41 0-.821.07-1.226l.072-.071c.006-.1.03-.198.072-.29a1.54 1.54 0 0 1 .264-.265.34.34 0 0 1 .193.088c.378.29.739.604 1.08.937l4.614 4.326c.351.315.65.7 1.009 1.01.536.419 1.042.876 1.513 1.367.129.119.275.216.434.288.17.003.34-.02.504-.071.298-.2.576-.43.83-.684a5.5 5.5 0 0 0 .433-.579c.18-.283.327-.744.504-1.009s.312-.544.505-.792c.17-.19.35-.372.541-.541.024-.024.156-.096.214-.143a1.78 1.78 0 0 1 .507-.071l.072-.074c.214.044.43.068.65.074.105-.013.187.026.105.108Zm.28-5.05-.074-.074c-.016-.042 0-.557 0-.647.108-.174.24-.333.396-.468a.779.779 0 0 1 .362-.074c.034 0 .047-.047.071-.07s.05.047.074.07c.171 0 .341.025.505.074.277.199.53.428.755.685.088.16.16.33.217.504.013.192.013.384 0 .576-.123.206-.281.39-.468.541a.355.355 0 0 1-.216.072 2.571 2.571 0 0 1-.288 0l-.074-.072h-.216l-.288-.145-.684-.684a.773.773 0 0 1-.071-.288h-.001Zm8.876 20.989a7.148 7.148 0 0 1-.361.792 2.074 2.074 0 0 1-.214.288c-.173.213-.38.396-.613.541-.119.034-.24.058-.362.072-.356.465-.72.966-1.117 1.404l-1.442 1.443c.026.266 0 .536-.072.792-.119.248-.248.454-.361.718a.952.952 0 0 1-.215.288c-.324.328-.63.67-.974.974a5.687 5.687 0 0 1-.938.576l-.72.217a1.097 1.097 0 0 1-.505-.072l-.354-.332a1.459 1.459 0 0 1-.071-.721c.003-.027.322-.806.362-.864a4.56 4.56 0 0 1 .359-.504c.23-.275.483-.529.758-.759.156-.113.53-.335.684-.47v-.647l.071-.071c0-.697.122-1.402.069-2.055a1.277 1.277 0 0 1-.607-.145 2.021 2.021 0 0 1-.399-.397.603.603 0 0 1-.071-.287l-.072-.072a3.5 3.5 0 0 1 .072-.937c.086-.256.208-.499.361-.721a6 6 0 0 1 .684-.684c.226-.149.468-.27.721-.362.235-.074.487-.074.721 0a.774.774 0 0 1 .36.216c.136.188.246.394.324.613.011.204.011.408 0 .613h.264l.072.071c.388.021.773.069 1.154.145.19.016.383 0 .576 0l.07.072h.53c.106-.193.248-.364.417-.505.112-.084.234-.157.361-.216h.215l.263.264c.037.238.037.483 0 .72v.002Zm3.112-9.162-.075.074v.504l-.07.072a5.51 5.51 0 0 1-.072.72l-.074.072c0 .071.029.15 0 .216-.127.325-.156.61-.288.938-.167.42-.359.829-.576 1.225a4.224 4.224 0 0 1-1.056 1.26c-.064.064-.302.167-.434.29l-.576.217c-.24.016-.48.016-.72 0l-.71-.29c-.133-.185-.954-.856-1.19-1.189a6.235 6.235 0 0 1-.575-1.08l-.362-1.01-.217-.866a7.984 7.984 0 0 1-.07-.866l-.072-.071v-.721l-.074-.072v-1.37l.074-.072a6.35 6.35 0 0 1 .071-1.225l.071-.072v-.361l.072-.072c.018-.199.067-.394.145-.578v-.214l.362-1.01c.117-.3.26-.59.43-.866.12-.169.156-.266.288-.433a5.92 5.92 0 0 1 .83-.83c.202-.142.42-.263.65-.358a.73.73 0 0 1 .216 0l.071-.072c.238-.045.483-.045.72 0 .201.047.394.12.577.214.148.09.293.188.433.29.32.26.597.563.83.901.25.39.467.8.649 1.226l.359 1.009c.063.195.053.343.145.576a.986.986 0 0 1 0 .287l.072.074v.36l.071.07v.508l.074.071v2.523Z" fill="#302e7c"/><path d="M42.676 21.285a1.252 1.252 0 0 0 0 .287l.216.65c.054.13.126.25.214.359v.156l.866 1.442.576.72 1.191 1.19 1.08.792.939.43.07.071h.146l.058.08c.405.066.816.09 1.226.071.15-.055.295-.129.433-.216.013 0 .245-.24.264-.264.089-.16.161-.33.216-.505a6.21 6.21 0 0 0 .074-.578l-.074-.071v-.505l-.071-.074a.951.951 0 0 0 0-.214l-.217-.65a8.214 8.214 0 0 0-.575-1.154 9.437 9.437 0 0 0-.58-.863 9.005 9.005 0 0 0-.646-.793l-.83-.829a9.528 9.528 0 0 0-1.37-1.012 8.23 8.23 0 0 0-.864-.43 1.688 1.688 0 0 0-.362-.072l-.071-.074h-.288l-.071-.071h-.505l-.074.071a2.907 2.907 0 0 0-.216 0 .74.74 0 0 0-.288.146c-.122.092-.23.2-.325.322a3.16 3.16 0 0 0-.216.507c-.027.336 0 .671 0 1.01l.074.07Zm1.222-.341a.813.813 0 0 1 .072-.362c.08-.094.17-.183.264-.264.298-.111.622-.137.935-.074.303.114.593.259.866.433l.576.433c.393.351.766.724 1.117 1.118.204.231.397.472.579.72l.504.793c.024.032.248.494.288.576l.145.433c.008.096.008.192 0 .288l.072.074v.359l-.072.074a.83.83 0 0 1-.074.288c-.09.124-.2.234-.325.324a.468.468 0 0 1-.214.072 2.545 2.545 0 0 1-.444.013l-.074-.071a2.62 2.62 0 0 1-.43-.075c-.3-.148-.59-.316-.867-.504a12.59 12.59 0 0 1-1.55-1.476 5.256 5.256 0 0 1-.504-.65l-.36-.576c-.129-.203-.214-.483-.361-.72-.066-.122-.058-.265-.143-.434a5.053 5.053 0 0 0-.074-.72l.074-.072Zm2.055 25.986c-.185.245-.39.475-.613.687a5.48 5.48 0 0 0-.074 1.151l-.07.074v.647l-.072.074c.013.28-.016.559-.085.83.301-.019.605.005.9.071a.358.358 0 0 0 .143-.071l.759-.758 1.296-1.514.362-.504c.01-.131.01-.263 0-.394l-2.546-.293ZM18.861 20.257a1.24 1.24 0 0 0-.65-.071l-.071.071h-.216a.353.353 0 0 0-.217.146h-.153a4.055 4.055 0 0 1-.579.359c-.394.299-.767.624-1.117.974a9.805 9.805 0 0 0-.869 1.001 6.901 6.901 0 0 0-.515.73l-.287.504a2.735 2.735 0 0 0-.36 1.513l.072.074c.008.1.032.197.071.288l.264.25c.31.057.624.08.938.067l.792-.362.866-.65.827-.829.938-1.218.433-.792.084-.288.075-.071c.042-.214.066-.431.07-.65l.072-.07c0-.172-.024-.342-.071-.505a1.335 1.335 0 0 0-.396-.47h-.001Zm32.245 13.88L49.63 32.66c-.037 0-.108-.037-.108 0v.9l.07.072c0 1.783.088 3.719-.07 5.48-.006.053.013.2.053.164.58-.584 1.193-1.146 1.748-1.751.42-.457.782-1.102 1.178-1.54a8.828 8.828 0 0 0-.24-.406c-.362-.463-.782-1.028-1.155-1.443ZM35.177 54.324a.99.99 0 0 0 0-.216 3.865 3.865 0 0 0-.287-.576 3.78 3.78 0 0 0-.613-.687c-.3-.21-.614-.403-.938-.576a2.874 2.874 0 0 0-.576-.145l-.074-.072a4.964 4.964 0 0 0-1.009-.071l-.142-.143-.146.143a4.05 4.05 0 0 0-1.009.071 2.156 2.156 0 0 0-.422.14c-.243.148-.497.23-.721.36a4.5 4.5 0 0 0-.972.9 2.67 2.67 0 0 0-.288.507 1.198 1.198 0 0 0-.074.36l-.071.07v.867c.058.209.156.404.288.576.148.205.326.388.528.541l.433.288c.087.063.605.222.647.287.146.016.29.04.433.072l.072.074 1.458.14.074-.074h.72l.072-.071c.347-.009.69-.082 1.01-.217.273-.126.537-.271.791-.433a3.33 3.33 0 0 0 .529-.528c.116-.157.213-.327.287-.508.083-.329.108-.67.072-1.009l-.072-.07Zm-1.373.787a.522.522 0 0 1-.143.288l-.613.612a.96.96 0 0 1-.433.217 2.88 2.88 0 0 1-.433.074l-.071.071h-1.154l-.045-.071a1.523 1.523 0 0 1-.36-.074 2.67 2.67 0 0 1-.506-.288 3.954 3.954 0 0 1-.613-.613c-.071-.116-.05-.15-.071-.288l-.072-.07a3.883 3.883 0 0 1 0-.434.43.43 0 0 0 .143-.216v-.146a3.77 3.77 0 0 1 .528-.613l.433-.287c.2-.05.392-.122.576-.214h.433l.072-.074c.315.024.629.073.937.145.277.118.543.262.793.43.203.18.381.385.528.613.047.087.069.489.148.573l-.077.077c.01.096.01.192 0 .288Z" fill="#302e7c"/><path d="m102.391 10.945-1.344-.672-1.344.672.212-1.486-1.026-1.061 1.45-.248.672-1.309.708 1.31 1.45.247-1.026 1.061.248 1.486ZM83.147 31.214l-1.344-.672-1.344.672.212-1.485-1.026-1.062 1.45-.247.673-1.31.707 1.31 1.45.247L82.9 29.73l.247 1.485Zm38.983 0-1.344-.672-1.344.672.212-1.485-1.026-1.062 1.45-.247.672-1.31.708 1.31 1.45.247-1.026 1.062.248 1.485Z" fill="#eada23"/><path d="M117.496 36.238c-2.158-2.123-4.776-3.255-7.64-3.255-.32 0-.673 0-.991.035l-.46.036c-.071 0-.106 0-.177.035-3.644.53-5.59 2.866-6.792 4.847-2.405-3.113-5.2-4.811-8.1-4.918-.107 0-.213-.035-.32-.035-.494 0-1.06.035-1.626.07-.46 0-.885.036-1.274.072-.495.07-.955.176-1.309.318-.318.106-.601.177-.778.177a.666.666 0 0 1-.283-.07c-.707-.355-1.486-.39-2.016-.39-.248 0-.53 0-.779.035-.212 0-.424.036-.636.036h-.213c-1.627 0-2.723 1.096-2.723 2.794v.85a6.028 6.028 0 0 0-.92-1.203 5.62 5.62 0 0 0-3.997-1.663h-.39v-1.91a5.616 5.616 0 0 0-5.624-5.625H67.3a3.08 3.08 0 0 0-3.078 3.078v4.492h-.424a5.624 5.624 0 0 0-5.625 5.554c-.035 1.521.566 2.936 1.627 4.033a5.68 5.68 0 0 0 3.998 1.662h.495c.035 3.22.813 5.873 2.3 7.924 1.202 1.663 2.83 2.972 4.81 3.927 1.946.955 4.068 1.415 6.297 1.415.212 0 .566 0 1.026-.036h8.171a5.69 5.69 0 0 0 3.82-1.485c2.158-1.45 2.158-4.387 2.158-5.377v-6.686c0-.424.036-.707.106-.92.107-.035.319-.07.566-.07s.46.035.566.07c.107.036.213.071.213.496v6.438c0 1.238.106 2.582 1.026 3.997.955 1.521 2.547 2.547 4.315 2.688.39.071.814.107 1.203.107a6.401 6.401 0 0 0 6.403-6.403v-6.65c0-.567.177-.92.389-1.026.035 0 .07-.071.141-.071.106 0 .39.106.566.177.036.141.071.424.071.92v6.72c0 3.149 1.415 5.448 3.82 6.156.531.141 1.062.247 1.628.247a6.401 6.401 0 0 0 6.403-6.402v-7.43c0-3.36-.956-5.977-2.795-7.781Zm1.273 15.175a4.891 4.891 0 0 1-4.881 4.882c-.425 0-.814-.07-1.203-.177-1.875-.566-2.724-2.44-2.724-4.705v-6.72c0-.885-.106-1.522-.318-1.84-.212-.354-1.238-.779-1.84-.779a1.65 1.65 0 0 0-.99.319c-.601.424-1.026 1.238-1.026 2.3v6.685a4.891 4.891 0 0 1-4.882 4.882c-.353 0-.672-.036-.99-.107a4.254 4.254 0 0 1-3.255-1.98c-.672-1.062-.778-2.088-.778-3.22V44.48c0-.885-.354-1.627-1.238-1.946-.283-.106-.637-.141-1.026-.141-.672 0-1.38.177-1.769.566-.035.035-.07.106-.106.141-.212.46-.318 1.061-.318 1.804v6.686c0 1.91-.39 3.467-1.592 4.174-.743.708-1.733 1.168-2.865 1.168H78.76l-.99.035c-1.982 0-3.892-.424-5.625-1.273-1.769-.85-3.184-2.017-4.245-3.467-1.344-1.84-2.016-4.316-2.016-7.358v-1.203h-2.087c-2.3 0-4.14-1.875-4.104-4.139a4.092 4.092 0 0 1 4.104-4.032h2.016V29.48a1.57 1.57 0 0 1 1.556-1.556h3.149a4.106 4.106 0 0 1 4.103 4.103v3.467h1.91a4.106 4.106 0 0 1 4.104 4.103 4.106 4.106 0 0 1-4.104 4.104h-1.768c0 1.698.141 3.183.707 3.82.601.637 1.663.955 3.22.955l4.209.035-.071-1.202.07-11.32c0-.85.39-1.274 1.203-1.274h.213c.46 0 .955-.035 1.45-.035s.955.035 1.344.248c.354.177.672.212.955.212.814 0 1.486-.425 2.264-.495.39-.036.814-.071 1.238-.071.496-.07.991-.07 1.522-.07.389 0 .778.035 1.167.105 2.264.39 4.103 1.946 5.448 3.538.318.354.601.707.849 1.061.035.07.106.106.141.177.318.354.637.53.955.53.319 0 .602-.176.814-.565.247-.46.53-.92.813-1.345 1.168-1.733 2.654-2.9 4.74-3.325l.531-.106h.106c.425-.07.85-.07 1.274-.07 2.653 0 4.846 1.131 6.58 2.83 1.556 1.52 2.334 3.749 2.334 6.65l-.07 7.428ZM81.38 42.5v4.563h-2.62c-1.557 0-2.016-.354-2.123-.46-.035-.07-.176-.353-.283-1.273h.177c2.052 0 3.856-1.168 4.847-2.83Z" fill="#fff"/><path d="M116.435 37.334c-1.981-1.945-4.599-3.148-7.818-2.724-.035 0-.07 0-.106.036-2.9.424-4.67 2.122-6.085 4.775-.389.778-1.132.743-1.733.036-.035-.071-.106-.106-.141-.177-1.628-2.193-4.14-4.705-7.464-4.705-.496 0-1.026.035-1.522.07-.424 0-.813.036-1.238.071-1.06.107-1.98.885-3.219.283-.813-.389-1.945-.176-2.9-.176-.85-.036-1.239.389-1.239 1.273l-.07 11.32s.035.53.035 1.203l3.997.035c2.229 0 4.033 1.804 4.068 4.033v.212c0 1.167-.46 2.229-1.238 2.971 1.203-.742 1.592-2.264 1.592-4.174v-6.72c0-.708.106-1.345.319-1.805.035-.035.07-.106.106-.142.636-.636 2.016-.672 2.794-.424.92.283 1.238 1.061 1.274 1.946v6.473c0 1.132.106 2.158.778 3.22a4.254 4.254 0 0 0 3.254 1.98c.319.07.637.106.991.106a4.891 4.891 0 0 0 4.882-4.881v-6.722c0-1.06.424-1.874 1.025-2.299.283-.212.637-.318.991-.318.601 0 1.592.424 1.804.778s.354.955.354 1.84v6.72c0 2.265.849 4.14 2.724 4.705a4.1 4.1 0 0 0 1.202.177 4.891 4.891 0 0 0 4.882-4.881v-7.43c0-2.935-.778-5.164-2.3-6.685Z" fill="#0946b9"/><path d="m83.006 51.413-.07-2.83-4.21-.035c-1.557 0-2.654-.318-3.22-.955-.6-.637-.707-2.123-.707-3.82h1.733a4.106 4.106 0 0 0 4.104-4.104 4.106 4.106 0 0 0-4.104-4.104h-1.91V32.1a4.106 4.106 0 0 0-4.103-4.104H67.37a1.57 1.57 0 0 0-1.556 1.557v6.013h-2.016c-2.23 0-4.069 1.805-4.104 4.033-.035 2.3 1.804 4.139 4.104 4.139h2.016v1.203c0 3.042.672 5.518 2.016 7.358 1.061 1.45 2.476 2.582 4.245 3.43a12.835 12.835 0 0 0 5.625 1.274c.212 0 .566 0 1.026-.035h8.206c1.132 0 2.123-.46 2.866-1.167-.495.283-1.097.46-1.875.46-2.724.07-4.917-2.123-4.917-4.847Z" fill="#e12519"/><path d="M91 52.864v-.213c-.035-2.228-1.839-4.032-4.068-4.032l-3.997-.036.07 2.83a4.891 4.891 0 0 0 4.883 4.882c.778 0 1.415-.177 1.874-.46A3.948 3.948 0 0 0 91 52.864Z" fill="#242476"/><path d="m115.586 27.217-6.438.212c-.177-.778-.46-1.556-.85-2.228l4.352-5.66-.779-2.724-2.723.283-3.149 5.377a8.517 8.517 0 0 0-3.077-1.45l.353-6.156-2.157-1.84-2.088 1.77.39 6.155a8.518 8.518 0 0 0-2.936 1.167l-4.104-4.599-2.83.248-.247 2.724 4.669 4.103a7.774 7.774 0 0 0-1.097 2.618l-6.084-.177-1.698 2.158 1.875 2.123 5.837-.531c.106.495.247.99.424 1.45 2.9.106 5.695 1.804 8.1 4.917 1.168-1.98 3.114-4.315 6.793-4.846.035 0 .106-.035.177-.035.141-.036.318-.036.46-.036a5.58 5.58 0 0 0 .389-1.309l6.226.566 1.874-2.122-1.662-2.158Z" fill="#eada23"/><path d="M2 2h130.547v84.944H2z" fill="none" stroke="#42210b" stroke-miterlimit="10" stroke-width="4"/><path d="M6.702 73.331V62.31h4.63v11.01c0 1.44 1.235 2.396 2.546 2.396 1.3 0 2.567-.978 2.567-2.396V62.31h4.63v11.02c0 3.975-3.223 6.779-7.187 6.779s-7.186-2.804-7.186-6.779Zm32.194-11.043v17.51h-1.46l-8.906-8.626v8.465h-4.598v-17.5h1.483l8.873 8.595v-8.444h4.608Zm14.234 13.02v4.318H41.904V62.31h4.598v12.998h6.628Zm1.955-12.998h4.597v17.316h-4.597V62.31Zm13.567 8.658c0-5.124 4.147-9.066 9.54-9.066 2.234.032 4.63 1.01 6.402 2.62l-2.643 3.395c-1.063-.967-2.47-1.6-3.749-1.6-2.664 0-4.888 2.03-4.888 4.683 0 2.686 2.32 4.662 4.791 4.662 1.45 0 2.75-.687 3.867-1.686l2.622 3.491c-1.655 1.504-3.857 2.546-6.489 2.546-4.887 0-9.453-3.61-9.453-9.045Zm28.993 6.639H91.18l-.881 2.02H85.27l8.046-17.532h2.18l8.058 17.531h-5.039l-.87-2.02Zm-1.46-3.363-1.773-4.103-1.783 4.103h3.555Zm20.324 1.064v4.318h-11.226V62.31h4.598v12.998h6.628Zm13.18 0v4.318h-11.225V62.31h4.597v12.998h6.628Z" fill="#42210b"/></svg>