<svg xmlns="http://www.w3.org/2000/svg" viewBox="0 0 144 144"><path d="M117.52 21.865C114.426 19 101.907 9.912 74.042 9.8c0 0-32.88-1.998-49.019 12.707-8.936 8.937-12.066 21.983-12.405 38.16-.34 16.176-.755 46.492 28.468 54.712v12.557s0 5.09 3.168 6.108c4.034 1.282 6.41-2.602 10.294-6.75 2.111-2.3 5.052-5.655 7.24-8.22a112.442 112.442 0 0 0 37.103-2.714c4.035-1.32 26.885-4.223 30.618-34.577 3.96-31.26-1.735-51.018-11.99-59.917Zm3.393 57.692c-3.168 25.301-21.682 26.885-25.075 27.978a103.354 103.354 0 0 1-31.938 2.753s-12.67 15.083-16.629 19.23a2.15 2.15 0 0 1-1.81.755c-.678-.189-.867-.98-.867-2.15v-20.852c-24.736-6.9-23.303-32.691-23.001-46.19s2.828-24.585 10.37-32.051C45.498 16.775 73.44 18.585 73.44 18.585c23.567 0 34.879 7.202 37.48 9.577 8.786 7.466 13.198 25.264 9.993 51.395Z" fill="#7360f2"/><path d="M85.506 59.95a9.012 9.012 0 0 0-9.427-9.73m17.496 12.331a19.758 19.758 0 0 0-5.09-14.442 21.304 21.304 0 0 0-14.63-6.334" fill="none" stroke="#7360f2" stroke-linecap="round" stroke-linejoin="round" stroke-width="1.93"/><path d="M101.87 65.907a31.862 31.862 0 0 0-8.936-23.605 30.467 30.467 0 0 0-22.02-8.71" fill="none" stroke="#7360f2" stroke-linecap="round" stroke-linejoin="round" stroke-width="1.93"/><path d="M76.419 81.065a4.299 4.299 0 0 0 3.393-1.282l2.338-2.941a5.053 5.053 0 0 1 6.448-.867 65.73 65.73 0 0 1 5.807 3.77c1.772 1.32 5.354 4.299 5.354 4.337a4.412 4.412 0 0 1 .943 5.806 24.284 24.284 0 0 1-4.827 5.958 9.615 9.615 0 0 1-4.94 2.376c-.236.04-.479.04-.716 0a6.598 6.598 0 0 1-2.074-.302 73.566 73.566 0 0 1-13.499-6.26 78.96 78.96 0 0 1-11.312-7.54 59.469 59.469 0 0 1-5.09-4.525h-.189a66.937 66.937 0 0 1-4.524-5.129 82.24 82.24 0 0 1-7.542-11.312 71.34 71.34 0 0 1-6.221-13.499 6.862 6.862 0 0 1-.34-2.111 3.773 3.773 0 0 1 0-.717 9.39 9.39 0 0 1 2.376-4.902 24.472 24.472 0 0 1 5.316-5.769 4.45 4.45 0 0 1 5.845.943s3.017 3.77 4.299 5.354 2.865 4.337 3.77 5.807a5.166 5.166 0 0 1-.905 6.486l-2.94 2.3a4.374 4.374 0 0 0-1.283 3.431A30.505 30.505 0 0 0 76.42 81.065Z" fill="#7360f2"/></svg>