<svg xmlns="http://www.w3.org/2000/svg" width="143.19" height="143.19" xmlns:v="https://vecta.io/nano"><defs><linearGradient id="A" x1="2160.052" y1="125.552" x2="2878.355" y2="-4888.969" gradientTransform="translate(.1843931405 4.0818897486) scale(.0283464566 -.0283464566)" gradientUnits="userSpaceOnUse"><stop offset="0" stop-color="#5cf674"/><stop offset="1" stop-color="#2dba29"/></linearGradient></defs><path d="M29.333 0h84.524c16.2 0 29.333 8.998 29.333 20.098v102.993c0 11.1-13.133 20.098-29.333 20.098H29.333C13.133 143.19 0 134.192 0 123.092V20.098C0 8.998 13.133 0 29.333 0z" fill-rule="evenodd" fill="url(#A)"/><g fill="#fefefe"><path d="M71.595 117.95c-8.933 0-17.523-2.558-24.961-7.415l-21.615 6.851 9.386-18.518c-5.692-7.886-8.803-17.48-8.803-27.273 0-25.559 20.635-46.353 45.994-46.356s45.994 20.795 45.994 46.356-20.633 46.356-45.994 46.356zm-23.74-15.46l1.483 1.055c6.535 4.648 14.232 7.106 22.257 7.106 21.336 0 38.694-17.521 38.694-39.056S92.931 32.539 71.595 32.539 32.901 50.059 32.901 71.595c0 8.935 3.068 17.669 8.638 24.595l1.477 1.836-3.623 7.147 8.462-2.682z"/><path d="M86.246 95.833l1.584-.108c.508-.283 1.381-.449 1.951-.708 2.564-1.164 5.01-3.75 6.49-6.043 1.292-2.002.947-2.283 1.45-3.381l-.106-1.561-.73-1.046c-1.087-1.202-3.122-2.728-4.498-3.715l-1.929-1.272c-4.017-2.498-6.242-4.301-8.236-.361-.738 1.459-1.225 3.103-1.947 4.48-.606 1.156-2.316 2.685-4.388 1.727-4.977-2.301-11.401-7.185-14.745-11.42l-.751-.969c-1.376-1.824-2.832-3.693-1.8-5.877.617-1.304 2.38-1.729 3.965-2.73.724-.457 1.379-.918 1.901-1.366 1.802-1.544 1.481-2.369.372-4.44-1.659-3.099-3.576-5.767-5.66-7.699-3.18-2.948-5.295-2.48-8.506.507-1.962 1.825-4.394 4.401-5.087 7.923-1.077 5.478 6.353 14.984 8.741 17.932 5.887 7.266 12.057 11.826 20.086 16.025.622.326 1.354.666 2.122 1.038 5.709 2.768 8.763 2.674 9.721 3.063h0z" fill-rule="evenodd"/></g></svg>