<svg xmlns="http://www.w3.org/2000/svg" viewBox="0 0 144 144"><path d="M143.667 144H-.438V-.105h144.105V144Zm-42.656-45.245c-.193.162-.278.245-.375.311-.18.125-.362.252-.554.358-2.418 1.333-4.909 2.508-7.514 3.433-.61.216-.699.357-.356.909a649.727 649.727 0 0 0 5.317 8.41c.094.147.493.218.698.156 1.05-.32 2.078-.711 3.123-1.05 4.576-1.48 8.987-3.364 13.156-5.745 3.468-1.981 6.801-4.198 10.201-6.299.387-.24.54-.567.563-.99.153-2.83.397-5.658.43-8.49.028-2.466-.057-4.95-.32-7.402a171.374 171.374 0 0 0-1.507-10.795c-.354-2.058-.946-4.085-1.569-6.083-.83-2.665-1.694-5.328-2.727-7.919-1.145-2.87-2.33-5.75-3.8-8.46-1.902-3.51-4.089-6.865-6.192-10.263-.254-.41-.696-.803-1.14-.978-3.118-1.234-6.24-2.466-9.402-3.581-1.783-.63-3.634-1.085-5.475-1.53-2.036-.492-4.099-.873-6.145-1.325-.367-.08-.646-.038-.817.293-.803 1.562-1.658 3.103-2.354 4.712-.255.59-.524.61-1.02.56-2.794-.284-5.586-.671-8.388-.788-2.773-.116-5.56-.02-8.336.108-2.009.092-4.013.352-6.01.604-1.217.153-1.18.196-1.704-.871-.652-1.326-1.361-2.624-2.045-3.934-.417-.797-.414-.788-1.293-.586-1.692.388-3.4.717-5.078 1.156-2.7.706-5.42 1.376-8.065 2.257-2.611.87-5.147 1.967-7.7 3.004a2.21 2.21 0 0 0-.984.805c-1.556 2.467-3.168 4.907-4.57 7.462-1.554 2.834-2.963 5.753-4.327 8.685-1.468 3.153-2.687 6.414-3.56 9.786-.802 3.091-1.636 6.183-2.235 9.316a79.097 79.097 0 0 0-1.292 10.998c-.22 4.47-.036 8.92.319 13.369.023.283.194.648.416.807 4.234 3.03 8.658 5.757 13.343 8.032 4.265 2.071 8.681 3.78 13.198 5.222.194.062.588-.059.69-.22 1.783-2.819 3.534-5.658 5.296-8.491.251-.405.16-.616-.298-.802a100.844 100.844 0 0 1-4.46-1.911c-1.158-.537-2.28-1.155-3.407-1.76-.624-.336-.623-.586-.06-.978.328-.229.676-.44.96-.717.354-.346.677-.373 1.128-.177 1.32.57 2.647 1.133 3.998 1.623 4.519 1.64 9.145 2.889 13.917 3.518 2.249.297 4.515.599 6.777.624 2.95.033 5.916-.071 8.85-.367 2.695-.272 5.377-.78 8.028-1.356 4.168-.907 8.176-2.333 12.063-4.094.212-.097.567-.148.729-.037.634.439 1.218.95 1.879 1.481Z" fill="#5764f2"/><path d="M101.01 98.755c-.66-.53-1.244-1.042-1.878-1.48-.162-.112-.517-.06-.729.036-3.887 1.761-7.895 3.187-12.063 4.094-2.65.577-5.333 1.084-8.029 1.356-2.933.296-5.9.4-8.85.367-2.26-.025-4.527-.327-6.776-.624-4.772-.63-9.398-1.877-13.917-3.518-1.351-.49-2.678-1.053-3.998-1.623-.451-.196-.774-.169-1.128.177-.284.276-.632.488-.96.717-.563.392-.564.642.06.977 1.126.606 2.249 1.224 3.408 1.761a99.116 99.116 0 0 0 4.46 1.91c.457.187.548.398.297.803-1.762 2.833-3.513 5.672-5.296 8.491-.102.161-.496.282-.69.22-4.517-1.441-8.933-3.15-13.198-5.222-4.685-2.275-9.11-5.001-13.343-8.032-.222-.16-.393-.524-.416-.807-.355-4.45-.539-8.9-.319-13.369a79.097 79.097 0 0 1 1.292-10.998c.6-3.133 1.433-6.225 2.235-9.316.873-3.372 2.092-6.633 3.56-9.786 1.364-2.932 2.773-5.851 4.328-8.685 1.401-2.555 3.013-4.995 4.57-7.462a2.21 2.21 0 0 1 .984-.805c2.552-1.037 5.088-2.135 7.699-3.004 2.646-.881 5.364-1.551 8.065-2.257 1.679-.439 3.386-.768 5.078-1.156.88-.202.876-.211 1.293.586.684 1.31 1.393 2.608 2.045 3.934.525 1.067.487 1.024 1.703.87 1.998-.251 4.002-.51 6.011-.603 2.776-.127 5.563-.224 8.336-.108 2.802.117 5.594.504 8.388.788.496.05.765.03 1.02-.56.696-1.61 1.551-3.15 2.354-4.712.17-.331.45-.374.817-.293 2.046.452 4.109.833 6.145 1.325 1.841.445 3.692.9 5.475 1.53 3.162 1.115 6.284 2.347 9.402 3.58.444.176.886.57 1.14.98 2.103 3.397 4.29 6.752 6.192 10.261 1.47 2.712 2.655 5.59 3.8 8.461 1.033 2.59 1.897 5.254 2.727 7.919.623 1.998 1.215 4.025 1.569 6.083.615 3.58 1.122 7.184 1.508 10.795.262 2.452.347 4.936.319 7.403-.033 2.831-.277 5.66-.43 8.49-.023.422-.176.75-.563.989-3.4 2.1-6.733 4.318-10.2 6.299-4.17 2.38-8.58 4.266-13.157 5.746-1.045.338-2.073.729-3.123 1.049-.205.062-.604-.01-.698-.157a649.727 649.727 0 0 1-5.317-8.41c-.343-.551-.254-.692.356-.908 2.605-.925 5.096-2.1 7.514-3.433.192-.106.373-.233.554-.358.097-.066.182-.15.375-.31Zm-11.398-33.43c-1.94-.05-3.694.513-5.236 1.63-3.038 2.203-4.477 5.34-4.543 8.972-.06 3.213 1.263 6.002 3.606 8.28 2.46 2.391 6.424 3.192 9.599 1.785 2.728-1.21 4.593-3.29 5.603-6.084 1.146-3.168.97-6.312-.62-9.28-1.783-3.329-4.549-5.221-8.41-5.303Zm-36.292-.048c-.635.12-1.637.176-2.538.506-4.616 1.69-6.986 6.025-6.861 10.638.061 2.26.873 4.323 2.162 6.2 2.561 3.73 7.318 5.092 11.145 3.297 4.055-1.902 5.898-5.361 6.194-9.685.127-1.853-.376-3.649-1.217-5.32-1.765-3.508-4.561-5.45-8.885-5.636Z" fill="#fefeff"/><path d="M89.612 65.325c3.86.082 6.626 1.974 8.408 5.302 1.59 2.969 1.767 6.113.621 9.281-1.01 2.795-2.875 4.875-5.603 6.084-3.175 1.407-7.14.606-9.599-1.784-2.343-2.279-3.665-5.068-3.606-8.281.066-3.632 1.505-6.77 4.543-8.971 1.542-1.118 3.296-1.681 5.236-1.63Zm-36.292-.048c4.324.187 7.12 2.128 8.885 5.637.84 1.67 1.344 3.466 1.217 5.319-.296 4.324-2.139 7.783-6.194 9.685-3.827 1.795-8.584.433-11.145-3.297-1.29-1.877-2.101-3.94-2.162-6.2-.125-4.613 2.245-8.948 6.861-10.638.901-.33 1.903-.385 2.538-.506Z" fill="#5764f2"/></svg>