<svg xmlns="http://www.w3.org/2000/svg" width="192" height="192" viewBox="0 0 144 144" xmlns:v="https://vecta.io/nano"><defs><linearGradient id="A" x1="32.746" y1="106.25" x2="99.044" y2="48.517" gradientUnits="userSpaceOnUse"><stop offset="0" stop-color="#af893d"/><stop offset=".234" stop-color="#d29d40"/><stop offset=".531" stop-color="#ffcc74"/><stop offset=".823" stop-color="#e8b55d"/></linearGradient></defs><path d="M33.115 68.964l-3.422-27.296.835-.501c1.92-1.002 4.842-2.421 8.598-3.756 7.596-2.755 18.615-5.509 32.472-5.509s24.959 2.755 32.472 5.509c3.756 1.336 6.678 2.755 8.598 3.756.334.167.584.334.835.501l-3.422 27.296c-3.172 1.753-8.014 5.509-8.014 13.189 0 4.508 1.836 8.014 3.673 10.184.584.751 1.169 1.336 1.669 1.836l-2.838 15.693-32.889 10.434-33.056-10.267-2.838-15.777c.501-.501 1.085-1.085 1.669-1.836 1.753-2.254 3.673-5.676 3.673-10.184.083-7.68-4.842-11.436-8.014-13.272zm86.73-32.221h0l-.083-.083c-.083 0-.083-.083-.167-.083-.167-.083-.417-.25-.668-.417-.584-.334-1.419-.835-2.504-1.419-2.17-1.169-5.426-2.671-9.516-4.174-8.264-3.005-20.201-6.01-35.143-6.01s-26.879 3.005-35.143 6.01c-4.09 1.503-7.346 3.005-9.516 4.174-1.085.584-1.92 1.085-2.504 1.419-.334.167-.501.334-.668.417-.083.083-.167.083-.167.083h-.083l-2.087 1.336 4.508 35.811 1.836.918c2.504 1.169 5.676 2.838 5.676 7.429 0 2.421-1.002 4.341-2.003 5.593-.501.668-1.085 1.169-1.419 1.503-.167.167-.334.25-.417.334l-.083.083-2.087 1.336 4.424 24.709 39.65 12.354 39.734-12.354 4.424-24.709-2.087-1.336-.083-.083c-.083-.083-.25-.167-.417-.334-.417-.334-.918-.835-1.419-1.503-1.085-1.336-2.003-3.172-2.003-5.593 0-4.591 3.172-6.261 5.676-7.429l1.836-.918 4.508-35.811-2.003-1.252h0zM57.74 49.347l-3.589-6.428h22.288c10.935 0 14.024 8.514 11.52 18.448-1.336 5.509-5.342 11.436-7.346 13.606l10.434 27.63c.751 1.586 2.421 3.089 3.172 3.673H78.192c1.669-2.254 2.254-4.257 2.254-5.008 0-.584-4.925-13.523-7.346-19.95l-5.843 4.591v15.526l3.172 4.758H54.735l3.005-4.758V49.347zm9.6 26.211V50.015h1.586c2.504-.083 5.008-.083 6.928 1.169 2.337 1.503 3.422 5.259 2.671 9.266-1.419 7.429-6.928 11.853-10.351 14.441-.25.25-.501.501-.835.668z" fill="url(#A)" fill-rule="evenodd"/></svg>