<?xml version="1.0" encoding="utf-8"?>
<!-- Generator: Adobe Illustrator 27.7.0, SVG Export Plug-In . SVG Version: 6.00 Build 0)  -->
<svg version="1.1" id="Layer_2_00000109026138985102103740000017127941763830306194_"
	 xmlns="http://www.w3.org/2000/svg" xmlns:xlink="http://www.w3.org/1999/xlink" x="0px" y="0px" viewBox="0 0 936.3 484.6"
	 style="enable-background:new 0 0 936.3 484.6;" xml:space="preserve">
<style type="text/css">
	.st0{fill:#F9F9F9;}
	.st1{fill:#FFFFFF;stroke:#191818;stroke-miterlimit:10;}
	.st2{fill:#0025DB;}
	.st3{fill:#FFFFFF;stroke:#BABABA;stroke-miterlimit:10;}
	.st4{fill:#BABABA;stroke:#BABABA;stroke-miterlimit:10;}
	.st5{fill:#BABABA;}
	.st6{fill:#E4E5E6;stroke:#BABABA;stroke-miterlimit:10;}
	.st7{fill:#F9F9F9;stroke:#BABABA;stroke-width:0.5;stroke-miterlimit:10;}
	.st8{fill:#FF940A;stroke:#191818;stroke-miterlimit:10;}
	.st9{font-family:'Arial-BoldMT';}
	.st10{font-size:6px;}
</style>
<path class="st0" d="M933.9,214.1V0.8H207.6c-2,0.5-4.2,0.8-6.5,0.9c-10.2,0.4-20.4,0-30.5-0.6c-0.9-0.1-1.8-0.2-2.7-0.3H3.2v483.8
	h4.5c2.7-0.5,5.5-0.5,8.2,0h725.9c6.7-0.9,13.1-0.9,19,0h173.2V243.8c-1.1-1-1.7-2.3-1.7-3.7c-0.2-8.1,1.6-16.2,1.5-24.3
	C933.6,215.2,933.7,214.6,933.9,214.1L933.9,214.1z"/>
<path class="st1" d="M370.5,165.2l-2.3,1.9l-8.2-9.8l-1.6,2.7c0.1-2.7-0.7-6.3-1.7-8.9c2.4,1.4,5.8,2.9,8.5,3.3l-3,1.1L370.5,165.2
	L370.5,165.2z"/>
<g>
	<path class="st2" d="M370,175.9l-2.4-4.2l0.7-0.4l3,2l-1.6-2.8l0.6-0.4l2.4,4.2l-0.7,0.4l-3-2l1.6,2.8L370,175.9L370,175.9z"/>
	<path class="st2" d="M373.5,173.9l-2.4-4.2l0.7-0.4l1,1.7l1.4-0.8l-1-1.7l0.7-0.4l2.4,4.2l-0.7,0.4l-1-1.8l-1.4,0.8l1,1.8
		L373.5,173.9z"/>
	<path class="st2" d="M380.1,170.2l-0.8,0.4l-0.9-0.8l-1.4,0.8l0.3,1.1l-0.8,0.4l-1-5l0.7-0.4L380.1,170.2L380.1,170.2z
		 M377.9,169.2l-1.4-1.3l0.4,1.8L377.9,169.2L377.9,169.2z"/>
</g>
<path class="st3" d="M937.8,215.8l-2.4,6.6c-0.1,0-3-1.1-5.5-2.5c-5.3-0.9-51.6-0.8-60.7-0.2c-5.2,0.3-9.4,2.6-11.9,4
	c-1.1,0.6-1.9,1-2.7,1.3c-4.3,1.3-18.5,5.4-20.7,5.4c-2.6,0-68-16-68.6-16.2c-5.8-1.5-69-9.6-78.3-10.6c-9.2-1-41.1-6.8-45.9-8.2
	c-4.2-1.2-22.6-4.6-32.3-6.1c-7.3-1.1-11.9,1.1-17.1,3.6c-0.7,0.3-1.4,0.7-2.1,1c-3.1,1.4-11.3,4.7-19.3,7.8
	c-7,2.7-15.6,6.2-16.8,6.8c-2.1,1.2-34.1,19.8-39.1,22.7c0,0.4,0,0.8,0,1.2c-5.5,2.6-15.8,7.3-22.1,9.8c-6,2.4-13.7,4.8-21.2,6.6
	c0.6,4.1,1.8,12.1,3.9,27.5l4,23.6v26.7c0,0.2,0.1,0.9,0.2,1.9c0,0.3,0.1,0.7,0.1,1.1c0,0.5,0,1.2,0,2.1c0.1,3.4,0.3,8.7,1.3,11.8
	c1.6,5.1,14,40.2,14.1,40.5l10.2,32.2c0,0.1,1.2,6.3,4.7,9.7c4.1,3.9,19.7,16.9,19.9,17.1c0.6,0.5,13.2,11.5,9.4,34.1l0,0.2
	l-2.4,10.3l-4.9-1.1l2.4-10.2c3.3-19.8-7.5-29.3-7.7-29.3c-0.6-0.5-15.9-13.2-20.1-17.3c-4.4-4.2-5.9-11.1-6.2-12.3l-10.1-31.6
	c-0.5-1.4-12.5-35.4-14.2-40.7c-1.6-5.1-1.5-14.2-1.5-16.2c-0.1-1.1-0.2-1.8-0.2-1.9v-26.6l-3.9-23.3c-1.2-8.4-2.9-20.8-3.8-27.2
	c-1.8,0.4-3.6,0.7-5.4,1c-8.3,1.4-20.1,6.3-22,7L327,328.1l-26.3,23.7c-1.5,1.8-10.8,11.9-29.3,15.6c-17.4,3.5-42.7,6.5-46.7,7
	l-43.7,19.2l-26.2,12.5c-0.1,0-9.1,3.1-18.8,10.7c-9.4,7.4-21,16.5-32.6,16.5c-0.9,0-1.8-0.1-2.8-0.2l-0.5-0.1
	c-9.1-2.5-34.1-20.4-37.6-22.9c-1.6-1-17.9-10.2-27.6-10.8c-10.8-0.6-16.3,0-31.2,8.6c-3,1.7-4.9,2.9-6.1,3.6l0.4,0.8
	c-2.9,1.4-6.2,2.9-7.9-0.3c-1.6-3,1.4-4.9,2.9-5.9c1.5-1,3.9-2.4,7.2-4.3c16.5-9.5,23.3-10.2,35.1-9.6c11.8,0.6,30.1,11.3,30.9,11.8
	l0.3,0.2c7.5,5.4,28.2,19.8,35.2,21.9c9.6,1.1,20.8-7.8,29.9-14.9c9.9-7.8,19.1-11.2,20.6-11.7l10.9-5.2l-9-10.9
	c-11.6-17.3-25-36.3-27.3-38.2c-3.4-2.4-8.3-5.2-8.3-5.2c-1.7-1-2.3-3.1-1.3-4.8c0.9-1.7,3.1-2.3,4.8-1.3c0.2,0.1,5.3,3,9,5.7
	c3.7,2.7,21.3,28.6,28.9,39.8l9.8,11.8l8.5-4l44.7-19.6l0.5-0.1c0.3,0,28.1-3.3,46.6-7c17.4-3.5,25.4-13.2,25.5-13.3l0.4-0.4
	l23.5-21.2c0-0.4,0-0.8,0-1.3l115.9-72.8l0.3-0.1c0.1,0,0.8-0.3,1.8-0.7c-1.9-3.1-4.4-7.3-5.9-9.9c-2.7-4.7-6.9-14.9-14.2-35.3
	c-6.3-17.4-12.5-22.1-16.2-24.9c-0.5-0.4-1-0.8-1.5-1.1c-2.2-1.9-24.4-23.5-40.8-39.6l-0.2,0.2c-3.1-2.7-30.7-26.6-34.8-33.2
	c-4.6-7.4-12.3-16.1-20.6-23.3c-10.2-8.9-29.4-27.3-40.3-38.1l-1.6-1.6c-11.2-11.2-30-30.1-37.9-33.8C194.1-4,177.6-12.4,174.4-15
	l3.2-3.9c1.6,1.3,10,6.3,47.9,24.2c8.7,4.1,27.1,22.6,39.3,34.8l1.6,1.6c10.8,10.8,29.9,29,40.1,37.9c8.8,7.7,16.6,16.6,21.5,24.4
	c3.2,5,25.5,24.9,33.9,32.1L361,137c0,0,0.1,0,0.1,0s0.1,0,0.2,0c18.2,17.8,38.6,37.8,40.6,39.4c0.4,0.3,0.8,0.7,1.3,1
	c4.1,3.1,10.9,8.2,17.5,26.7c7.2,19.9,11.3,30.3,13.9,34.7c1.6,2.7,4.3,7.2,6.2,10.4c5-1.9,12.4-4.5,18.5-5.5
	c9.9-1.7,21.6-4.9,29.9-8.3v0c5.9-2.4,15.5-6.8,21.2-9.4l-0.3-0.6c0.3-0.2,27.8-16.1,36.8-21.4c-0.2-5.1-0.6-15.9-0.7-19.5
	c-0.1-4.7-4.3-33.3-5.1-37c-0.3-1.5-2.2-9.7-4.5-19.2c-3.4-14.4-7.2-30.8-7.7-33.5c-1.1-6.1-4.2-21.7-5-23.4c-1-2.2-4-9.9-4.1-10.2
	l-0.1-0.3c-0.2-0.9-2-8.5-1.8-11.6c0-0.4,0-0.7,0.1-1c0.1-2.2,0.2-3.3-1.5-5.5c-2.1-2.6-12.7-13.6-18-19.1l-0.5-0.5l-2-9.6
	L485.8,0.9l3.9-3.2l11,13.5l2,9.3c2.7,2.8,15.4,15.8,17.9,19c3,3.7,2.8,6.4,2.6,9c0,0.3,0,0.6-0.1,0.9c-0.1,1.8,1,7,1.6,10.1
	c0.5,1.2,3.1,7.9,3.9,9.9c1.3,2.9,5.3,24.3,5.3,24.5c0.5,2.6,4.5,19.6,7.6,33.2c2.2,9.5,4.1,17.7,4.5,19.3c0.9,4.2,5,33,5.2,37.9
	c0.1,3.1,0.4,11.4,0.6,17c2.6-1.1,7.5-3.1,15.6-6.3c7.9-3.1,16-6.3,19-7.7c0.7-0.3,1.4-0.6,2-1c5.5-2.6,11.8-5.6,21.2-4.2
	c9.1,1.4,28.3,4.9,33.2,6.3c4.5,1.3,36,7,44.7,8c8.9,1,72.7,9.1,79.3,10.8c7,1.8,61.5,14.9,66.9,15.9c2.1-0.4,11.4-3,17.2-4.7
	l-3.5-11.6c-0.8-2.6-4.8-16-0.9-21.6c3.9-5.7,8.5-9.1,12.6-9.4c3.1-0.2,17.8-0.7,20.4-0.8c1.1-0.4,5.8-2.3,6.8-6.3
	c0.4-1.8,0.9-3.2,1.4-4.6c1.2-3.5,2.2-6.5,2.1-14.2c-0.2-12.9-1.5-37-2.2-39.4c-0.6-2.1-1.4-6.4-2-9.9c-0.3-1.5-0.5-2.8-0.7-3.6
	c-0.1-0.5-0.3-1.3-0.5-2.4c-0.7-3.5-2.6-13.9-3.4-15.6c-1.3-1.9-5.4-11.9-5.5-14.2c-0.1-1.7,0.1-19,0.2-21c0-10-0.1-21.2-0.3-22.6
	c-0.3-1.4-2.9-7.9-4.3-11.4c-0.5-1.3-1-2.4-1.3-3.2c-1.3-3.3-1.9-7-1.9-7.1l4.9-0.8c0,0,0.5,3.3,1.6,6.1c0.3,0.7,0.7,1.8,1.3,3.1
	c2.3,5.7,4.2,10.5,4.6,12.2c0.5,2.2,0.5,18.7,0.5,23.7c-0.1,7.4-0.2,19.5-0.2,20.6c0.2,1.5,3.7,10.3,4.6,11.7
	c0.8,1.1,1.7,4,4.2,17.5c0.2,1,0.3,1.8,0.4,2.3c0.2,0.9,0.4,2.2,0.7,3.8c0.6,3.2,1.3,7.5,1.9,9.3c1.1,3.5,2.2,31.8,2.4,40.8
	c0.2,8.7-1.1,12.4-2.3,16c-0.5,1.3-0.9,2.6-1.3,4.2c-1.8,7.4-10.1,9.9-10.5,10l-0.3,0.1l-0.3,0c-0.2,0-17.3,0.6-20.5,0.8
	c-2.5,0.2-5.9,3-8.9,7.3c-1.8,2.6-0.2,11.9,1.5,17.3l3.3,11c3-1.5,7.5-3.5,13-3.9c4.2-0.3,19.5-0.5,33.4-0.5
	c28.3,0,29.7,0.8,30.8,1.4C935,214.8,937.7,215.8,937.8,215.8z"/>
<path class="st4" d="M479.2,331.7c-0.1,0-0.1-0.1-0.2-0.1c0-0.8,0-1.5,0-2.1C479.1,330.2,479.1,330.9,479.2,331.7z"/>
<g>
	<path class="st5" d="M479,328.5c0,0,0,0.4,0,1.1c0-0.4-0.1-0.8-0.1-1.1H479z"/>
</g>
<rect x="874.2" y="182.7" class="st6" width="15" height="7.1"/>
<rect x="890.5" y="190.8" class="st6" width="6" height="6"/>
<rect x="890.5" y="197.5" class="st6" width="6" height="12"/>
<rect x="873.3" y="190.8" class="st6" width="15.9" height="11.7"/>
<rect x="874.2" y="203.5" class="st6" width="15.6" height="8.2"/>
<rect x="866.6" y="205.6" class="st6" width="6.7" height="4.9"/>
<rect x="866.6" y="197.5" class="st6" width="6" height="6"/>
<rect x="864" y="183.2" class="st6" width="8.1" height="5.9"/>
<rect x="857.8" y="184" class="st6" width="4.9" height="6.6"/>
<rect x="898.2" y="190.3" class="st6" width="8.6" height="21.1"/>
<rect x="898.2" y="177.5" class="st6" width="8.6" height="12.8"/>
<rect x="908.6" y="177.5" class="st6" width="27.2" height="7.3"/>
<rect x="848.8" y="225.6" transform="matrix(0.9785 -0.2063 0.2063 0.9785 -30.1811 181.435)" class="st6" width="11.9" height="19.6"/>
<rect x="866.6" y="232.3" transform="matrix(0.9465 -0.3227 0.3227 0.9465 -29.7644 293.2952)" class="st6" width="6.3" height="8.2"/>
<rect x="879.4" y="221.7" class="st6" width="6.7" height="7.6"/>
<rect x="887.9" y="223" class="st6" width="12.4" height="7.3"/>
<rect x="926" y="223.6" class="st6" width="6.7" height="9.8"/>
<rect x="835" y="232.2" transform="matrix(0.9926 -0.1213 0.1213 0.9926 -22.541 103.372)" class="st6" width="6.1" height="9.4"/>
<rect x="839.5" y="215.9" transform="matrix(0.9693 -0.2459 0.2459 0.9693 -27.667 214.118)" class="st6" width="8.1" height="4"/>
<rect x="824.6" y="229.2" transform="matrix(0.9803 0.1975 -0.1975 0.9803 62.68 -159.0509)" class="st6" width="8" height="10.9"/>
<rect x="826.6" y="209.6" transform="matrix(0.9803 0.1975 -0.1975 0.9803 58.821 -159.7838)" class="st6" width="7.5" height="10.7"/>
<rect x="814.2" y="228.3" transform="matrix(0.9803 0.1975 -0.1975 0.9803 62.4448 -157.03)" class="st6" width="8.2" height="12.3"/>
<rect x="803.5" y="225.6" transform="matrix(0.9803 0.1975 -0.1975 0.9803 61.7889 -154.9705)" class="st6" width="8.5" height="13.3"/>
<rect x="812.7" y="208.8" transform="matrix(0.9615 0.275 -0.275 0.9615 90.3419 -216.227)" class="st6" width="7.4" height="10.6"/>
<rect x="803.7" y="206.4" transform="matrix(0.9722 0.2343 -0.2343 0.9722 71.9916 -183.2389)" class="st6" width="6.8" height="9.9"/>
<rect x="796.3" y="209.4" transform="matrix(0.9615 0.275 -0.275 0.9615 89.16 -211.664)" class="st6" width="6.4" height="5.5"/>
<rect x="789.5" y="220.9" class="st6" width="8.2" height="14"/>
<rect x="798.8" y="224.7" class="st6" width="4.1" height="5.4"/>
<rect x="781.4" y="220.9" class="st6" width="6.7" height="11.3"/>
<rect x="784.7" y="199" class="st6" width="10.9" height="12"/>
<rect x="796" y="197.8" class="st6" width="4.8" height="6.7"/>
<rect x="771.6" y="196.7" class="st6" width="9.4" height="11"/>
<rect x="760.3" y="217.3" class="st6" width="10.5" height="18.1"/>
<rect x="740.5" y="213.4" class="st6" width="5.6" height="5.6"/>
<rect x="689.1" y="189.7" class="st6" width="5.9" height="4.2"/>
<rect x="687.5" y="170.6" class="st6" width="7.6" height="9.8"/>
<rect x="680.2" y="161.7" class="st6" width="5.5" height="7"/>
<rect x="677.4" y="187.1" class="st6" width="4" height="7.3"/>
<rect x="667.4" y="184.4" class="st6" width="8.2" height="8.2"/>
<rect x="648.7" y="170.6" class="st6" width="5.5" height="8.1"/>
<rect x="643" y="178.1" class="st6" width="7.8" height="10"/>
<rect x="640.7" y="198.9" class="st6" width="8" height="9.4"/>
<rect x="650.3" y="207.2" class="st6" width="8.2" height="15.4"/>
<rect x="665" y="288.9" class="st6" width="12.4" height="12.4"/>
<rect x="640.7" y="250.6" class="st6" width="8" height="8"/>
<rect x="807.7" y="250.6" class="st6" width="5.5" height="5.5"/>
<rect x="877.1" y="141.8" class="st6" width="7.1" height="7.2"/>
<rect x="873.9" y="133.1" class="st6" width="8.1" height="7.1"/>
<rect x="875.7" y="127.3" class="st6" width="4.9" height="4.9"/>
<rect x="906.1" y="119.4" class="st6" width="7" height="10.1"/>
<rect x="897.7" y="140.2" class="st6" width="7.3" height="8.9"/>
<rect x="900.2" y="159.3" class="st6" width="6.1" height="9.1"/>
<rect x="899.2" y="100.9" class="st6" width="13.8" height="11.1"/>
<rect x="854.7" y="68.2" class="st6" width="8.9" height="11.1"/>
<rect x="859.1" y="52.8" class="st6" width="6.5" height="8.3"/>
<rect x="863.6" y="39.8" class="st6" width="6.7" height="7.9"/>
<rect x="884.2" y="50.6" class="st6" width="8.9" height="12.7"/>
<rect x="893.1" y="78.1" class="st6" width="11.5" height="14.8"/>
<rect x="884.2" y="14.2" class="st6" width="14.7" height="19.8"/>
<rect x="515.2" y="424.3" class="st6" width="8.1" height="7.6"/>
<rect x="524.8" y="434.4" class="st6" width="6.9" height="6.9"/>
<rect x="514" y="450.2" class="st6" width="10" height="10.8"/>
<rect x="496.3" y="366.5" class="st6" width="8.5" height="8.5"/>
<rect x="528.2" y="334.9" class="st6" width="7.7" height="7.7"/>
<rect x="491.5" y="329" class="st6" width="9.1" height="9.1"/>
<rect x="454.2" y="324.8" class="st6" width="13.8" height="15"/>
<rect x="428" y="342.6" class="st6" width="13.3" height="8.5"/>
<rect x="504.8" y="250.6" class="st6" width="8.5" height="11.9"/>
<rect x="545.7" y="245.1" class="st6" width="9.5" height="9.5"/>
<rect x="588.3" y="174.1" class="st6" width="8.7" height="6.9"/>
<rect x="572.2" y="182.8" class="st6" width="9.1" height="6.8"/>
<rect x="534.5" y="158.9" class="st6" width="6.7" height="8.8"/>
<rect x="550.4" y="76.4" class="st6" width="9.2" height="9.2"/>
<rect x="526.7" y="57.8" class="st6" width="8.1" height="11.3"/>
<rect x="508.2" y="84.7" class="st6" width="16.1" height="10.6"/>
<rect x="508.2" y="56.3" class="st6" width="9.3" height="8"/>
<rect x="523.4" y="195.5" class="st6" width="6.6" height="5.4"/>
<rect x="522.3" y="204.9" class="st6" width="6.9" height="6.1"/>
<rect x="549.8" y="220.2" class="st6" width="9.8" height="7.7"/>
<rect x="611.2" y="189.6" class="st6" width="12" height="14.8"/>
<rect x="500.4" y="218.4" class="st6" width="6.2" height="6.2"/>
<rect x="495.9" y="226.3" class="st6" width="5.8" height="3.7"/>
<rect x="493.7" y="221.5" class="st6" width="2.5" height="2.5"/>
<rect x="474.3" y="219.2" class="st6" width="7.9" height="5.4"/>
<rect x="463.7" y="230" transform="matrix(0.9212 -0.3891 0.3891 0.9212 -54.4695 201.2141)" class="st6" width="11.5" height="10.1"/>
<rect x="474.3" y="246.7" class="st6" width="9.9" height="11.7"/>
<rect x="489.8" y="243.1" class="st6" width="5.1" height="7.6"/>
<rect x="500.4" y="238.6" class="st6" width="7.3" height="6.5"/>
<rect x="492.4" y="297.1" class="st6" width="6.4" height="6.4"/>
<rect x="450.1" y="253.7" transform="matrix(0.9526 -0.3041 0.3041 0.9526 -57.0155 149.9961)" class="st6" width="5.9" height="8.7"/>
<rect x="443.2" y="256.9" transform="matrix(0.941 -0.3384 0.3384 0.941 -62.4646 166.4035)" class="st6" width="5.5" height="10.9"/>
<rect x="441" y="228.2" transform="matrix(0.9526 -0.3041 0.3041 0.9526 -49.9939 147.2882)" class="st6" width="13.6" height="12"/>
<rect x="440.1" y="243.1" transform="matrix(0.9212 -0.3891 0.3891 0.9212 -60.5132 192.4218)" class="st6" width="9.3" height="5"/>
<rect x="422.6" y="245.5" transform="matrix(0.8388 -0.5444 0.5444 0.8388 -66.5965 271.5646)" class="st6" width="5.6" height="5.6"/>
<rect x="430.5" y="244.9" transform="matrix(0.866 -0.5 0.5 0.866 -65.6677 249.6592)" class="st6" width="5" height="5"/>
<rect x="477.8" y="227.3" transform="matrix(0.9526 -0.3041 0.3041 0.9526 -47.1961 157.3418)" class="st6" width="7.5" height="5.7"/>
<rect x="437.4" y="260.8" transform="matrix(0.866 -0.5 0.5 0.866 -73.3769 255.3177)" class="st6" width="4.7" height="7.6"/>
<rect x="424.7" y="268.1" transform="matrix(0.866 -0.5 0.5 0.866 -78.7163 249.9784)" class="st6" width="4.7" height="7.6"/>
<rect x="418.4" y="272.5" transform="matrix(0.866 -0.5 0.5 0.866 -81.7945 247.3891)" class="st6" width="4.7" height="7.6"/>
<rect x="412.5" y="275.8" transform="matrix(0.866 -0.5 0.5 0.866 -84.1864 244.8881)" class="st6" width="4.7" height="7.6"/>
<rect x="405" y="280.3" transform="matrix(0.866 -0.5 0.5 0.866 -87.4322 241.7513)" class="st6" width="4.7" height="7.6"/>
<rect x="399.8" y="283.3" transform="matrix(0.866 -0.5 0.5 0.866 -89.6543 239.5292)" class="st6" width="4.7" height="7.6"/>
<rect x="395.2" y="286.5" transform="matrix(0.866 -0.5 0.5 0.866 -91.8819 237.6875)" class="st6" width="4.7" height="7.6"/>
<rect x="371.5" y="301.7" transform="matrix(0.866 -0.5 0.5 0.866 -102.6537 227.8487)" class="st6" width="4.7" height="7.6"/>
<rect x="383" y="295" transform="matrix(0.866 -0.5 0.5 0.866 -97.773 232.7294)" class="st6" width="4.7" height="7.6"/>
<rect x="389.9" y="291.1" transform="matrix(0.866 -0.5 0.5 0.866 -94.8654 235.6371)" class="st6" width="4.7" height="7.6"/>
<rect x="361.5" y="307.5" transform="matrix(0.866 -0.5 0.5 0.866 -106.8685 223.634)" class="st6" width="4.7" height="7.6"/>
<rect x="381.3" y="304.5" transform="matrix(0.866 -0.5 0.5 0.866 -102.7468 233.1512)" class="st6" width="4.7" height="7.6"/>
<rect x="357" y="311.9" transform="matrix(0.866 -0.5 0.5 0.866 -109.7028 221.9548)" class="st6" width="4.7" height="7.6"/>
<rect x="336.4" y="321.1" transform="matrix(0.866 -0.5 0.5 0.866 -117.0542 212.9236)" class="st6" width="4.7" height="7.6"/>
<rect x="349.3" y="318.5" transform="matrix(0.866 -0.5 0.5 0.866 -114.019 218.9927)" class="st6" width="4.7" height="7.6"/>
<rect x="331.6" y="326.2" transform="matrix(0.866 -0.5 0.5 0.866 -120.2235 211.2077)" class="st6" width="4.7" height="7.6"/>
<rect x="324" y="331.5" transform="matrix(0.866 -0.5 0.5 0.866 -123.9161 208.0786)" class="st6" width="4.7" height="7.6"/>
<rect x="307.2" y="346.6" transform="matrix(0.7329 -0.6803 0.6803 0.7329 -153.8353 306.1309)" class="st6" width="11.5" height="4.7"/>
<rect x="430.7" y="263.9" transform="matrix(0.866 -0.5 0.5 0.866 -76.2009 252.8736)" class="st6" width="6.2" height="9.4"/>
<rect x="136.7" y="380.8" class="st6" width="11.9" height="12.1"/>
<rect x="124.6" y="397.4" class="st6" width="12.3" height="9.9"/>
<rect x="177.2" y="343.8" class="st6" width="10.9" height="12.7"/>
<rect x="110.2" y="344.8" class="st6" width="6.5" height="6.5"/>
<rect x="123.2" y="324.4" class="st6" width="16.4" height="5.7"/>
<rect x="149.5" y="286" class="st6" width="12.9" height="10.3"/>
<rect x="206.7" y="327.2" class="st6" width="5.1" height="6.3"/>
<rect x="221.7" y="321.6" class="st6" width="9.7" height="7.7"/>
<rect x="228.1" y="311.5" class="st6" width="6.1" height="7.9"/>
<rect x="231.4" y="306" class="st6" width="7.7" height="9.1"/>
<rect x="211.8" y="352.5" class="st6" width="10.3" height="11.3"/>
<rect x="225.3" y="361.6" class="st6" width="8.9" height="5.5"/>
<rect x="248.4" y="336.3" class="st6" width="11.1" height="12.7"/>
<rect x="288.4" y="322.3" class="st6" width="13.6" height="10"/>
<rect x="307.8" y="315.1" class="st6" width="12.5" height="9.8"/>
<rect x="331.1" y="301.7" class="st6" width="7.7" height="7.7"/>
<rect x="340.8" y="279.1" class="st6" width="8.9" height="6.1"/>
<rect x="347.1" y="292.4" class="st6" width="6.4" height="6.4"/>
<rect x="361.6" y="269.4" class="st6" width="15" height="11.7"/>
<rect x="293.9" y="298.8" class="st6" width="9.7" height="6.8"/>
<rect x="268.2" y="296.7" class="st6" width="10.1" height="12.9"/>
<rect x="237" y="281.1" class="st6" width="13.1" height="15"/>
<rect x="228.1" y="266.2" class="st6" width="9.5" height="8.5"/>
<rect x="175.5" y="188.4" transform="matrix(0.8319 -0.5549 0.5549 0.8319 -78.0327 140.1479)" class="st6" width="33.6" height="21"/>
<rect x="157.1" y="232.4" class="st6" width="7.7" height="5.3"/>
<rect x="151.5" y="217.2" class="st6" width="8.3" height="5.7"/>
<rect x="177.6" y="221.5" class="st6" width="5.9" height="5.9"/>
<rect x="182.4" y="237.6" class="st6" width="5.3" height="4.7"/>
<rect x="197.2" y="288.6" class="st6" width="2" height="5.9"/>
<rect x="185.1" y="299.1" class="st6" width="3.8" height="5.3"/>
<rect x="209.9" y="235" class="st6" width="3.2" height="3.2"/>
<rect x="214.6" y="242.3" class="st6" width="2.2" height="2.8"/>
<rect x="218.4" y="246.9" class="st6" width="0.8" height="2.2"/>
<rect x="206.7" y="232.4" class="st6" width="3.2" height="2"/>
<rect x="200" y="221.5" class="st6" width="5.5" height="4.2"/>
<rect x="209.9" y="214.6" class="st6" width="5.8" height="5.8"/>
<rect x="209.9" y="207.9" class="st6" width="4.2" height="4.2"/>
<rect x="180.5" y="183.2" class="st6" width="7.2" height="4.9"/>
<rect x="162.4" y="196.8" class="st6" width="8.1" height="7.7"/>
<rect x="223.3" y="198.9" class="st6" width="4.2" height="6"/>
<rect x="368.4" y="286.3" class="st6" width="4.7" height="3.6"/>
<rect x="374.5" y="283.8" class="st6" width="4.1" height="2.5"/>
<rect x="361.6" y="289.4" class="st6" width="4.4" height="4.4"/>
<rect x="337.1" y="288.9" class="st6" width="6.1" height="8.2"/>
<rect x="321.3" y="306.2" class="st6" width="4.7" height="3.3"/>
<rect x="383.5" y="262.2" class="st6" width="4.9" height="8.7"/>
<rect x="393" y="266" class="st6" width="5.5" height="7.1"/>
<rect x="400" y="263.5" class="st6" width="7" height="4.6"/>
<rect x="388.4" y="245.6" class="st6" width="6.4" height="8.2"/>
<rect x="409.8" y="253.8" class="st6" width="5.1" height="5.1"/>
<rect x="419.9" y="252" class="st6" width="7.2" height="6"/>
<rect x="383.5" y="277.1" class="st6" width="4.2" height="6.1"/>
<rect x="419.1" y="232.8" class="st6" width="6.3" height="4.9"/>
<rect x="415.7" y="225.2" class="st6" width="7.9" height="4.2"/>
<rect x="412.2" y="218.6" class="st6" width="6.4" height="3.2"/>
<rect x="433" y="221.9" class="st6" width="8.1" height="6.5"/>
<rect x="429.6" y="213.7" class="st6" width="8" height="4.6"/>
<rect x="411" y="211.5" class="st6" width="8.3" height="3.6"/>
<rect x="705.2" y="187.1" class="st6" width="15.1" height="9.5"/>
<rect x="644.7" y="79.4" class="st6" width="9.5" height="10.6"/>
<rect x="689.1" y="114.2" class="st6" width="7.4" height="4.3"/>
<rect x="696.5" y="125.3" class="st6" width="3.2" height="5.9"/>
<rect x="680.2" y="140.6" class="st6" width="11.1" height="6.7"/>
<rect x="588.3" y="363.8" class="st6" width="13.6" height="10.3"/>
<rect x="581.3" y="409.7" class="st6" width="9.5" height="9.5"/>
<rect x="566.3" y="311.5" class="st6" width="16.4" height="16.4"/>
<rect x="776.3" y="269.6" class="st6" width="21.4" height="12.5"/>
<rect x="865.4" y="168.4" class="st7" width="5.8" height="5.8"/>
<rect x="838.6" y="154" class="st7" width="5.5" height="4.4"/>
<rect x="881.3" y="157.7" class="st7" width="6.4" height="6"/>
<rect x="881.3" y="150.7" class="st7" width="6" height="6"/>
<rect x="881.7" y="116.4" class="st7" width="6.1" height="6.1"/>
<rect x="872.1" y="99.6" class="st7" width="6.8" height="6.8"/>
<rect x="871.2" y="76.4" class="st7" width="6.9" height="6.9"/>
<rect x="887.9" y="82.1" class="st7" width="4.2" height="7.9"/>
<rect x="862.4" y="65.1" class="st7" width="5.7" height="3"/>
<rect x="847.3" y="52.8" class="st7" width="7.4" height="7.4"/>
<rect x="849.2" y="274.8" class="st7" width="2.6" height="5.3"/>
<rect x="818.4" y="256.1" class="st7" width="9" height="6.2"/>
<rect x="838.3" y="241.6" class="st7" width="5.3" height="5.3"/>
<rect x="813.2" y="247.7" class="st7" width="6.7" height="8.1"/>
<rect x="800.8" y="236.9" class="st7" width="4.7" height="10.9"/>
<rect x="793.6" y="238" class="st7" width="4.1" height="7.3"/>
<rect x="776.3" y="219" class="st7" width="4.7" height="4"/>
<rect x="751.7" y="230.3" class="st7" width="5.1" height="5.1"/>
<rect x="750.7" y="220.9" class="st7" width="7.7" height="5.4"/>
<rect x="682.5" y="185.9" class="st7" width="6.1" height="4.3"/>
<rect x="691" y="185.9" class="st7" width="4" height="2"/>
<rect x="603.5" y="215.9" class="st7" width="7.7" height="7.7"/>
<rect x="598.9" y="222.8" class="st7" width="8.4" height="8.4"/>
<rect x="631.8" y="260.1" class="st7" width="9.7" height="12.7"/>
<rect x="545.7" y="273.2" class="st7" width="9.1" height="10.8"/>
<rect x="488.4" y="343.9" class="st7" width="6.7" height="8.6"/>
<rect x="225.7" y="469.1" class="st7" width="8.9" height="7"/>
<rect x="210.6" y="458" class="st7" width="13.8" height="9.2"/>
<rect x="243.5" y="407.3" class="st7" width="8.1" height="11.1"/>
<rect x="205.5" y="386.9" class="st7" width="8.4" height="12.9"/>
<rect x="154" y="433.7" class="st7" width="12.9" height="10.2"/>
<rect x="118.4" y="435.1" class="st7" width="12.4" height="12.4"/>
<rect x="314.1" y="372" class="st7" width="12.2" height="10.2"/>
<rect x="317.7" y="399" class="st7" width="8.7" height="3.5"/>
<rect x="320.2" y="393" class="st7" width="4.4" height="4.4"/>
<rect x="334" y="390.3" class="st7" width="4.2" height="6.2"/>
<rect x="326" y="400.8" class="st7" width="5.1" height="5.4"/>
<rect x="328.4" y="414.3" class="st7" width="5.6" height="6.7"/>
<rect x="317.9" y="406.2" class="st7" width="4.5" height="6.6"/>
<rect x="302.8" y="351.8" class="st7" width="5" height="7.3"/>
<rect x="293.9" y="335.3" class="st7" width="8.1" height="8.1"/>
<rect x="302.8" y="329.9" class="st7" width="6.7" height="8.1"/>
<rect x="330.1" y="307.8" class="st7" width="6" height="6"/>
<rect x="331.2" y="282.1" class="st7" width="7.6" height="7.6"/>
<rect x="351.6" y="286.3" class="st7" width="8.9" height="11.5"/>
<rect x="248.4" y="321.6" transform="matrix(8.304548e-02 0.9965 -0.9965 8.304548e-02 557.2955 48.7908)" class="st7" width="7.6" height="11.3"/>
<rect x="257" y="313.8" class="st7" width="10.2" height="13.4"/>
<rect x="241.9" y="306.2" class="st7" width="14.3" height="14.3"/>
<rect x="219.2" y="317.3" class="st7" width="7.1" height="7.1"/>
<rect x="226.5" y="296.3" class="st7" width="6.4" height="6.4"/>
<rect x="170.4" y="352.5" class="st7" width="8.4" height="7.3"/>
<rect x="263.7" y="348.1" class="st7" width="7" height="3.2"/>
<rect x="123.2" y="355.4" class="st7" width="7.6" height="7.6"/>
<rect x="41.7" y="416.6" class="st7" width="13.1" height="6.5"/>
<rect x="45.3" y="408.9" class="st7" width="7.1" height="4.2"/>
<rect x="7.1" y="427.1" class="st7" width="14" height="13.3"/>
<rect x="270.7" y="64.3" transform="matrix(0.7852 -0.6193 0.6193 0.7852 10.6509 190.2648)" class="st7" width="17.7" height="30.9"/>
<circle id="target" class="st8" cx="446" cy="262.5" r="4.4"/>
<text transform="matrix(0.8503 -0.5264 0.5264 0.8503 363.8728 302.7343)" class="st9 st10">kalayakan road</text>
</svg>
