<svg xmlns="http://www.w3.org/2000/svg" xmlns:xlink="http://www.w3.org/1999/xlink" width="500" height="500" xmlns:v="https://vecta.io/nano"><style><![CDATA[.Z{isolation:isolate}.e{fill:#fff}.f{fill:#263238}.g{fill:#407bff}.h{opacity:.2}.i{opacity:.4}.j{fill:none}.k{fill:#b55b52}.l{opacity:.5}.m{opacity:.6}.n{fill:#ebb376}.o{fill:#f0f0f0}.p{fill:#fafafa}.q{fill:#eec1bb}.r{fill:#e4897b}.s{fill:#de5753}]]></style><path d="M0 382.398h500v.25H0zm416.779 16.096h33.122v.25h-33.122zm-94.252 2.714h8.693v.25h-8.693zm74.059-12h19.192v.25h-19.192zm-344.127 1.68h43.193v.25H52.459zm52.097 0h6.333v.25h-6.333zm26.915 4.223h93.676v.25h-93.676zM237.014 337.8H43.915c-3.147 0-5.708-2.56-5.708-5.708V60.66c0-3.147 2.561-5.708 5.708-5.708h193.099c3.147 0 5.707 2.561 5.707 5.708v271.432c0 3.147-2.56 5.708-5.707 5.708zM43.915 55.203c-3.01 0-5.458 2.448-5.458 5.458v271.432c0 3.01 2.448 5.458 5.458 5.458h193.099c3.009 0 5.457-2.448 5.457-5.458V60.66c0-3.009-2.448-5.458-5.457-5.458H43.915zM453.311 337.8H260.212c-3.147 0-5.707-2.56-5.707-5.708V60.66c0-3.147 2.56-5.708 5.707-5.708h193.099c3.147 0 5.708 2.561 5.708 5.708v271.432c0 3.147-2.561 5.708-5.708 5.708zM260.212 55.203c-3.009 0-5.457 2.448-5.457 5.458v271.432c0 3.01 2.448 5.458 5.457 5.458h193.099c3.01 0 5.458-2.448 5.458-5.458V60.66c0-3.009-2.448-5.458-5.458-5.458H260.212z" fill="#ebebeb"/><circle cx="48.959" cy="236.67" r="22.049" class="o"/><path d="M61.751 241.489c0-2.596-.983-5.192-2.949-7.159l-3.486-3.486-.253-.253-3.764-3.764c-1.966-1.966-4.562-2.95-7.159-2.949-2.589-.008-5.193.983-7.159 2.949-.3.3-.561.622-.814.937l6.206 6.206 3.387-3.387a1.73 1.73 0 0 1 2.444 0l3.434 3.434.253.253 3.155 3.155a1.73 1.73 0 0 1 0 2.444l-3.387 3.387 6.206 6.206.937-.814c1.966-1.966 2.957-4.57 2.949-7.159z" class="p"/><circle cx="155.712" cy="99.727" r="28.543" transform="matrix(.229753 -.973249 .973249 .229753 22.876774 228.360806)" class="o"/><g class="p"><rect x="137.568" y="89.854" width="28.029" height="19.747" rx="1.796"/><path d="M173.855 105.352l-5.984-2.154v-6.941l5.984-2.154v11.249z"/></g><circle cx="441.845" cy="195.397" r="26.848" class="o"/><g class="p"><rect x="424.78" y="186.11" width="26.364" height="18.574" rx="1.796"/><path d="M458.911 200.687l-5.629-2.026v-6.529l5.629-2.026v10.582z"/></g><circle cx="350.551" cy="77.605" r="32.309" transform="matrix(.987087 -.160182 .160182 .987087 -7.904481 57.154069)" class="o"/><g class="p"><path d="M331.806 70.907h8.128v13.396h-8.128z"/><path d="M352.668 91.017l-14.089-7.367V71.561l14.089-7.367v26.823zm5.791-14.207h10.837v1.591h-10.837zm-1.968-9.171l9.619-5.147.751 1.403-9.619 5.147zm0 19.932l.751-1.403 9.618 5.148-.751 1.403z"/></g><circle cx="416.779" cy="305.631" r="21.838" transform="matrix(.92388 -.382683 .382683 .92388 -85.234449 182.758948)" class="o"/><g class="p"><rect x="411.714" y="293.791" width="10.13" height="16.744" rx="4.708"/><path d="M416.779 313.888a7.85 7.85 0 0 1-7.84-7.839v-3.113c0-.386.313-.697.698-.697s.698.312.698.697v3.113c0 3.553 2.891 6.444 6.444 6.444s6.444-2.892 6.444-6.444v-3.113c0-.386.313-.697.698-.697s.698.312.698.697v3.113a7.85 7.85 0 0 1-7.839 7.839z"/><path d="M416.779 318.168a.7.7 0 0 1-.698-.697v-4.28c0-.386.313-.697.698-.697a.7.7 0 0 1 .698.697v4.28c0 .386-.312.697-.698.697zm12.109.27a.69.69 0 0 1-.493-.204l-24.218-24.219a.7.7 0 0 1 0-.986c.272-.272.714-.273.986 0l24.218 24.219a.7.7 0 0 1 0 .986.69.69 0 0 1-.493.204z"/></g><circle cx="188.276" cy="250" r="23.141" transform="matrix(.973249 -.229753 .229753 .973249 -52.40175 49.944812)" class="o"/><g class="p"><rect x="182.909" y="237.453" width="10.735" height="17.744" rx="4.708"/><path d="M188.276 258.581a8.15 8.15 0 0 1-8.138-8.139v-3.299a.57.57 0 0 1 .57-.57.57.57 0 0 1 .57.57v3.299a7.01 7.01 0 0 0 6.999 6.998 7.01 7.01 0 0 0 6.999-6.998v-3.299a.57.57 0 0 1 .57-.57.57.57 0 0 1 .57.57v3.299a8.15 8.15 0 0 1-8.138 8.139z"/><path d="M188.276 263.117a.57.57 0 0 1-.57-.57v-4.536a.57.57 0 0 1 1.14 0v4.536a.57.57 0 0 1-.57.57zm12.832.285a.57.57 0 0 1-.403-.167l-25.665-25.664a.57.57 0 1 1 .806-.807l25.665 25.664a.57.57 0 0 1-.403.974z"/></g><ellipse cx="247.956" cy="434.877" rx="193.889" ry="32.239" fill="#f5f5f5"/><use xlink:href="#B" class="g"/><use xlink:href="#B" class="e i"/><use xlink:href="#C" class="g"/><g class="i j e"><use xlink:href="#C"/></g><g class="e"><path d="M407.299 147.147c0 1.379 1.118 2.496 2.496 2.496s2.497-1.118 2.497-2.496-1.118-2.497-2.497-2.497-2.496 1.118-2.496 2.497z"/><use xlink:href="#D"/><path d="M385.295 147.147c0 1.379 1.118 2.496 2.497 2.496s2.496-1.118 2.496-2.496-1.118-2.497-2.496-2.497-2.497 1.118-2.497 2.497z"/><use xlink:href="#D" x="-22.004"/></g><use xlink:href="#E" class="f"/><g class="i j e"><use xlink:href="#E"/></g><g class="e"><use xlink:href="#F"/><use xlink:href="#F" x="9.642"/><use xlink:href="#F" x="19.285"/><use xlink:href="#F" x="28.928"/></g><path d="M200.837 284.354h-30.164c-5.728 0-10.372 4.643-10.372 10.372v12.517c0 5.728 4.644 10.372 10.372 10.372h20.75l6.835 6.474.142-6.474h2.438c5.728 0 10.371-4.644 10.371-10.372v-12.517c0-5.728-4.643-10.372-10.372-10.372z" class="g"/><g class="e"><use xlink:href="#G"/><use xlink:href="#G" x="9.233"/><use xlink:href="#G" x="18.465"/><use xlink:href="#G" x="27.697"/></g><path d="M108.034 112.587H77.519c-5.795 0-10.492 4.697-10.492 10.492v12.663c0 5.795 4.698 10.492 10.492 10.492H98.51l6.914 6.549.144-6.549h2.466c5.794 0 10.492-4.698 10.492-10.492V123.08c0-5.795-4.697-10.492-10.492-10.492z" class="f"/><g class="e"><use xlink:href="#H"/><use xlink:href="#H" x="9.34"/><use xlink:href="#H" x="18.679"/><use xlink:href="#H" x="28.019"/></g><path d="M405.513 283.474c-3.765-13.5-63.51 2.698-63.51 2.698s-2.887 14.924-1.826 27.193h0c-.742 16.358 2.93 31.462 3.748 47.189-3.172 21.307.814 51.515.814 51.515l14.528 1.843s8.637-34.185 12.122-52.496l2.868-15.799c1.726 5.526 3.405 10.967 4.395 16.124-.217 21.541 7.879 50.915 7.879 50.915l14.643-.169s3.861-35.047 4.8-53.663c.649-12.84 1.038-34.443 1.207-45.637.441-4.518 1.447-18.545-1.668-29.712z" class="f"/><path d="M405.513 283.474c-3.765-13.5-63.51 2.698-63.51 2.698s-2.887 14.924-1.826 27.193h0c-.742 16.358 2.93 31.462 3.748 47.189-3.172 21.307.814 51.515.814 51.515l14.528 1.843s8.637-34.185 12.122-52.496l2.868-15.799c1.726 5.526 3.405 10.967 4.395 16.125-.217 21.541 7.879 50.915 7.879 50.915l14.643-.169s3.861-35.047 4.8-53.663c.649-12.841 1.038-34.444 1.207-45.638.441-4.519 1.446-18.545-1.668-29.711z" class="e l"/><path d="M399.711 406.627l-12.785.337 1.312 15.077 10.683-.264.789-15.149z" fill="#d9877c"/><path d="M399.708 406.632l-12.789.336.737 8.443 11.612-.295.44-8.483z" class="h"/><g class="f"><use xlink:href="#I"/><use xlink:href="#J"/></g><path d="M358.944 408.637l-12.699-1.52-.886 15.108 10.609 1.286 2.976-14.874z" fill="#d9877c"/><path d="M358.941 408.642l-12.703-1.521-.494 8.461 11.532 1.39 1.664-8.33z" class="h"/><g class="f"><use xlink:href="#K"/><use xlink:href="#J" x="-42.276"/></g><g class="e"><use xlink:href="#I" class="m"/><use xlink:href="#K" class="m"/></g><use xlink:href="#L" class="g"/><use xlink:href="#L" class="e l"/><path d="M385.958 219.467c8.152 1.354 17.737 2.09 25.763-.244 0 0-3.513 2.858-3.513 2.858-1.464 1.861-1.431 5.819.108 7.157.21.167.202.044.086-.122-.118-.173-.341-.412-.615-.662-4.691-3.946-11.278-7.045-16.646-10.334-2.327-1.408-3.073-4.436-1.665-6.763.98-1.62 2.752-2.472 4.52-2.366 2.601.162 5.011.504 7.502.942 3.776.695 7.592 1.643 11.26 3.083 5.18 2.198 10.032 4.625 11.51 11.171.787 4.249-1.316 9.377-5.364 11.043-11.537 5.577-25.231 6.028-37.527 3.125-12.113-3.692-7.838-21.146 4.579-18.886h0z" class="g"/><path d="M404.147 239.556l-4.196.405-4.595.116-4.573-.194-4.606-.526c-1.557-.244-3.126-.554-4.8-1.003-.693-.189-1.347-.443-1.962-.765.615-5.886 3.015-10.365 3.015-10.365s13.219 1.785 21.716 12.332z" class="h"/><path d="M392.383 211.949l-3.67 3.973c-5.085 2.537-7.216-4.565-7.216-4.565l-3.554-4.29c-.815-1.017-.669-2.581.344-3.694l2.545-2.797c1.16-1.275 3.026-1.503 4.137-.506l3.647 3.529c.727.652 1.281 1.474 1.613 2.392l2.154 5.957z" class="n"/><use xlink:href="#M" class="g"/><use xlink:href="#M" class="e l"/><path d="M335.594 236.67c3.968 14.721 4.268 32.187 5.205 44.644 0 0-2.286 8.11.079 12.269 0 0 40.613 12.221 66.813 1.073 0 0 .949-6.973.261-16.201-1.528-20.481-11.571-35.313-17.733-53.589-1.342-3.968-5.833-5.995-10.015-6.147-10.634-.385-24.727.695-35.57 2.969-6.766 1.423-10.839 8.307-9.04 14.983z" class="g"/><path d="M370.568 226.111c-6.871 1.086-13.491-4.161-16.94-5.855 3.235-2.811 1.161-7.366 1.596-9.87.187-1.106.234-1.812.234-1.812l15.557 3.974c-.501 1.881-.419 3.416.148 4.736 1.564.382 3.079 1.927 3.598 2.989.013.029.028.068.051.096 1.117 2.288 2.527 4.666-4.243 5.742z" class="n"/><path d="M374.811 220.37c-6.683 3.63-17.694-4.081-19.587-9.983.187-1.106.234-1.812.234-1.812l15.557 3.974c-.501 1.881-.419 3.416.148 4.736 1.564.382 3.079 1.927 3.598 2.989.013.029.028.068.051.096z" class="h"/><path d="M370.979 226.039l-2.85-2.039-3.806 2.439s2.447 2.01 6.656-.4z" class="g"/><path d="M370.979 226.039l-2.85-2.039-3.806 2.439s2.447 2.01 6.656-.4z" class="e l"/><g class="g"><use xlink:href="#N"/><path d="M370.979 226.039l3.202-3.347 4.103.71s-3.077 3.96-7.305 2.637z"/></g><path d="M370.979 226.039l3.202-3.347 4.103.71s-3.077 3.96-7.305 2.637z" class="e l"/><use xlink:href="#O" class="g"/><g class="e"><use xlink:href="#N" opacity=".8"/><use xlink:href="#O" opacity=".8"/></g><path d="M335.594 236.67c3.968 14.721 4.268 32.187 5.205 44.644 0 0 3.246 1.033 12.012.652 11.001-.478 20.689-10.43 14.589-12.685-8.831-3.264-21.906-7.027-21.906-7.027 2.398-7.532 1.946-19.022 1.946-19.022l-11.847-6.561z" class="h"/><path d="M351.269 240.005c.424-.346.304-.258.243-.166l-.393.498c-4.867 6.678-9.628 14.232-12.263 22.011-.29.972-.452 1.85-.527 2.248-.039.194-.05.247-.139.078-.107-.228-.356-.651-.564-.887-.259-.385-.984-.895-.903-.705 1.831 1.469 4.94 1.976 7.412 2.619 5.361 1.187 11.374 1.932 17.182 2.834 2.755.318 4.721 2.873 4.288 5.619a4.9 4.9 0 0 1-3.582 3.981c-4.791 1.255-9.447 2.003-14.341 2.381-16.171 1.404-30.508-2.969-26.776-22.339 1.084-5.374 3.181-10.411 5.491-15.104 3.02-5.85 6.282-11.441 10.735-16.381 3.964-4.849 11.384-5.466 15.543-.357a9.72 9.72 0 0 1-1.405 13.669h0z" class="g"/><path d="M361.59 269.035l-1.673 4.852c.162 5.39 7.056 3.983 7.056 3.983l3.589.663c1.216.224 2.458-.599 2.934-1.946l1.196-3.383c.545-1.542-.102-3.205-1.435-3.686l-2.995-1.082c-.872-.315-1.807-.409-2.724-.274l-5.948.874z" class="n"/><use xlink:href="#P" class="g"/><use xlink:href="#P" class="e l"/><g class="g"><path d="M372.818 200.118l5.445-5.88-.276-.299s.407-.041.767-.003c.188.006.382.128.519.354l9.911 16.297c.231.38.214.91-.038 1.182l-5.578 6.024a.46.46 0 0 1-.315.152v.005h-.022l-.768.002.138-.505-9.82-16.146c-.231-.38-.214-.91.038-1.182z"/><use xlink:href="#Q"/></g><use xlink:href="#Q" class="e m"/><path d="M382.53 217.164l5.514-5.954c.123-.133.132-.392.019-.578l-9.617-15.814c-.113-.186-.305-.229-.428-.095l-5.514 5.954c-.123.133-.132.392-.019.578l9.617 15.814c.113.186.305.229.428.095z" class="f"/><g class="i j e"><path d="M374.249 202.103a.27.27 0 0 0 .199-.087l4.255-4.595a.27.27 0 1 0-.398-.368l-4.255 4.595a.27.27 0 0 0 .199.455z"/></g><g class="e"><use xlink:href="#R" class="i"/><path d="M379.897 208.053l.062.094c.481.071.964-.089 1.348-.504s.602-1.011.649-1.652c-.017-.036-.036-.068-.056-.101-.406-.667-1.032-.911-1.552-.687a1.39 1.39 0 0 0-.178-.92c-.276-.454-.747-.559-1.048-.234s-.322.961-.046 1.415c.169.278.411.424.639.423-.272.632-.223 1.499.182 2.166z"/><use xlink:href="#S" class="h"/><g class="i j"><use xlink:href="#T"/></g><path d="M382.054 215.054c.191.314.515.387.723.161s.223-.662.031-.977-.515-.387-.724-.161-.222.662-.031.977z" class="i"/><use xlink:href="#U" class="i"/><use xlink:href="#U" x="1.262" y="-1.362" class="i"/></g><path d="M385.839 210.966c.191.314.515.387.724.161s.223-.662.031-.976-.515-.387-.724-.161-.223.662-.031.977z" class="g"/><path d="M366.06 187.664s3.953.121 5.678 2.299 5.116 10.78 2.767 12.218-10.05.232-10.995-2.809 2.551-11.707 2.551-11.707z" class="f"/><path d="M351.14 202.507c2.656 7.701 4.639 12.877 10.453 15.046 11.551 4.309 16.247-1.31 16.132-9.605-.103-7.467-4.429-18.805-13.561-19.933-8.997-1.11-15.68 6.791-13.024 14.492z" class="n"/><path d="M363.834 200.77s-1.818-.376-3.016.605c1.702 0 3.016-.605 3.016-.605zm.096.728s-1.694.009-2.51 1.213c1.5-.352 2.51-1.213 2.51-1.213zm6.244-9.44s-4.275.218-7.606 1.244l7.606-1.244zm1.219.631s-5.808.998-8.434 2.426c5.092-1.155 8.434-2.426 8.434-2.426z" fill="#d58745"/><path d="M366.35 200.525c.173.69.679 1.154 1.129 1.036s.675-.772.502-1.462-.679-1.154-1.129-1.036-.675.772-.502 1.462zm7.175-1.611c.173.69.679 1.154 1.13 1.036s.675-.772.502-1.462-.679-1.154-1.129-1.036-.675.772-.502 1.462zm-11.341.566a.41.41 0 0 1-.21-.029c-.212-.089-.311-.333-.221-.547.902-2.14 2.795-2.516 2.875-2.531.227-.043.444.107.484.334s-.11.445-.336.488h0c-.062.012-1.535.322-2.255 2.029a.42.42 0 0 1-.338.255zm13.62-3.139c-.132.031-.276-.002-.381-.101-1.337-1.26-2.805-.93-2.867-.916-.224.053-.448-.085-.5-.308s.085-.449.308-.505c.081-.018 1.958-.463 3.633 1.116a.42.42 0 0 1-.193.713zm.413 11.484s-3.048-.051-11.209 1.682c1.478 2.25 3.687 3.873 7.858 2.946s3.351-4.628 3.351-4.628z" class="f"/><path d="M370.518 210.937c2.013-.448 3.568-.298 4.805.219-.502.557-1.288 1.034-2.454 1.293-2.013.447-3.557.307-4.795-.22.502-.557 1.279-1.032 2.444-1.291z" fill="#a02724"/><path d="M375.832 207.834c-.121.572-.239 1.145-1.02 1.488-1.676.477-6.13.918-7.352.923-.775.036-1.467-.083-2.099-.812 6.288-1.32 9.445-1.557 10.471-1.599z" class="e"/><path d="M362.989 184.88c-2.754-.621-13.64 3.351-15.866 8.989-3.722 9.426 2.991 16.014 2.991 16.014s3.82.559 7.49.499 2.077-10.178-.49-12.338c0 0-.206-.107-.555-.252-1.42-.688-3.767-2.109-3.872-2.994-.121-1.014 3.225-4.999 5.631-5.236s5.382.37 6.884.101 2.365-.68 2.365-.68-1.823-3.483-4.577-4.103z" class="f"/><path d="M350.095 211.784c1.687 1.638 3.976 2.335 5.913 2.264 2.913-.106 3.51-2.933 1.982-5.227-1.376-2.064-4.55-4.496-7.128-3.272-2.54 1.206-2.695 4.362-.767 6.234z" class="n"/><path d="M359.741 205.642s.833 3.722 1.62 4.51 2.611-2.547 3.471-3.478 7.115-.206 7.115-.206.102.701.049.79-5.96 1.316-6.694 1.224-2.576 3.411.349 5.635 5.345 2.089 6.296 1.584.182-2.098.182-2.098l1.8-.404s.143 1.595 1.072 1.925 2.185-3.742 2.275-5.956-1.125-2.843-3.877-1.911l-.304-1.153s3.484-1.758 3.897-1.529c1.043.579 1.959 4.322 1.753 6.682s-1.31 7.114-6.27 7.948-9.398-.099-12.357-2.308-1.396-7.052-1.396-7.052l1.019-4.202z" class="f"/><path d="M371.291 200.057l1.41 5.81s1.046-.017 2.057-.42c.581-.232.636-1.053.101-1.379-1.868-1.138-3.568-4.011-3.568-4.011z" fill="#d58745"/><path d="M374.257 345.616l3.856-24.155s3.262 28.951.048 37.938c-.925-3.737-3.904-13.783-3.904-13.783z" class="h"/><path d="M95.66 395.188c-.546 5-1.035 19.501-2.127 23.034 2.044 3.841 4.888 4.678 6.733 2.438s5.436-21.694 5.436-21.694l-10.043-3.779z" class="n"/><g class="f"><path d="M79.975 422.512s12.128-3.575 13.016-8.35c.087-.469.48-.78.979-.697l8.808 1.474c.411.069.772.384.897.786l.687 8.57-5.491.078-.687-.583-4.28.644c-13.521.423-11.368.461-14.07-.298-.425-1.183.141-1.623.141-1.623z"/><use xlink:href="#V"/></g><use xlink:href="#V" class="e h"/><use xlink:href="#W" class="f"/><use xlink:href="#W" opacity=".3" class="e"/><path d="M112.126 351.193l.11-7.59c2.95-18.6 6.5-32.53 9.64-43.98-3.77-10.74-11.689-19.575-16.869-20.515 0 0-6.081 47.445 7.119 72.085z" opacity=".1"/><use xlink:href="#X" class="f"/><use xlink:href="#X" class="e h"/><path d="M119.918 262.768l-17.787-.368c-.212-1.176-.137-2.877-.067-3.841l17.92.324-.066 3.886zm-19.861-.45l-5.536-.344c-.269-.033-.472-.251-.494-.527l-.13-2.527c0-.327.27-.587.591-.577l5.687.166c-.098 1.037-.236 2.841-.119 3.809zm36.787-.338c-.062.219-.251.375-.474.399-2.742.298-8.078.407-14.065.399.093-1.059-.049-2.843-.15-3.877l14.304-.039c.293-.005.539.213.571.51.063.586.101 1.591-.186 2.609z"/><path d="M132.583 396.867c.452 5.009 2.836 19.322 2.464 23.001 2.762 3.361 5.716 3.621 7.082 1.061s1.045-22.34 1.045-22.34l-10.591-1.721z" class="n"/><use xlink:href="#Y" class="f"/><use xlink:href="#Y" class="e h"/><use xlink:href="#Z" class="f"/><use xlink:href="#Z" opacity=".3" class="e"/><path d="M120.231 422.512s12.128-3.575 13.016-8.35c.087-.469.48-.78.979-.697l8.808 1.474c.411.069.772.384.897.786l.687 8.57-5.491.078-.687-.583-4.28.644c-13.521.423-11.368.461-14.071-.298-.425-1.183.141-1.623.141-1.623z" class="f"/><path d="M102.441 203.48c-4.768-.984-11.122-2.15-15.801-3.356-5.314-1.457-11.018-2.584-15.763-5.963-3.397-2.476-4.61-7.589-1.296-11.139 1.397-1.529 3.383-2.547 5.125-3.283 4.094-1.72 8.266-2.731 12.452-3.715 3.913-.895 8.212-1.67 12.164-2.383l2.028-.349c.603-.056 1.459-.38 2.098-.129l1.744 7.053c-.408.505-1.272.633-1.829.869l-1.891.677a335.91 335.91 0 0 0-11.211 4.28c-3.957 1.702-8.311 3.147-11.718 5.492.001.016.191-.148.214-.17.542-.577.806-1.019 1.093-1.881.478-1.224.162-3.328-.411-4.167-.571-.966-.853-1.085-.935-1.198-.095-.085-.028-.05.09-.006 5.406 1.999 12.985 3.059 18.786 4.226 2.484.486 5.644 1.027 8.164 1.637 0 0-3.102 13.505-3.102 13.505h0z" fill="#e9bfbb"/><path d="M109.43 188.927l-6.54 10.631-4.656 7.571-4.007-1.552-5.803-2.256 3.963-17.171 17.043 2.777z" class="g"/><path d="M103.289 197.652l-.399 1.907-4.656 7.571-4.007-1.552c3.287-5.681 9.062-7.926 9.062-7.926z" class="h"/><g class="q"><path d="M100.937 175.545l4.966-6.993 6.382 8.067s-5.265 5.786-8.791 3.486l-2.556-4.56z"/><path d="M114.675 166.995l1.76 3.204c.701 1.276.374 2.871-.771 3.769l-3.379 2.65-6.382-8.067 4.681-2.701c1.443-.833 3.289-.317 4.091 1.144z"/></g><path d="M148.728 209.186a116.95 116.95 0 0 0-3.032 10.376l-1.336 5.814-1.38 6.152-1.774 6.269a3.77 3.77 0 0 1-.072.233c-2.212 9.533-.532 9.206-2.006 16.977 0 0 1.042 4.562-2.256 4.717-7.499.36-29.52 3.996-43.465-2.189-1.663-.737-2.467-4.889.105-7.2.959-12.554.643-32.679 3.364-42.972.377-1.424.815-2.661 1.319-3.664 5.304-10.531 10.548-14.899 10.548-14.899s.687.194 3.459.416c9.406.754 20.918 3.004 29.276 5.659a11.24 11.24 0 0 1 7.189 6.906 11.05 11.05 0 0 1 .061 7.405z" class="g"/><path d="M134.534 175.493c-1.484 7.906-.84 12.735.132 17.341.093.442-.088.904-.474 1.14-3.527 2.159-7.214 4.488-13.495 3.404-6.208-1.071-6.833-3.907-4.962-5.811.266-.271.597-.471.954-.602 4.705-1.723 5.483-5.059 4.679-7.309l13.166-8.163z" class="q"/><path d="M134.531 175.496l-13.167 8.161c.456 1.26.408 2.871-.565 4.345 2.205.485 4.609.201 6.909-1.115 3.36-1.924 4.891-4.653 6.379-8.629.113-.878.265-1.792.444-2.762z" class="h"/><g class="g"><path d="M125.005 168.063l-2.96-7.447.366-.18s-.365-.185-.714-.279c-.177-.063-.402-.018-.612.143l-15.119 11.629c-.353.271-.528.771-.391 1.116l3.032 7.629a.46.46 0 0 0 .239.255l-.001.005.021.008.716.278.053-.52 14.979-11.522c.353-.271.528-.771.391-1.116z"/><use xlink:href="#a"/></g><use xlink:href="#a" class="e m"/><path d="M109.802 180.462l-2.997-7.542c-.067-.169.018-.413.191-.546l14.671-11.284c.172-.133.367-.103.434.065l2.997 7.542c.067.169-.019.413-.191.546l-14.671 11.284c-.173.133-.367.103-.434-.065z" class="f"/><g class="i j e"><path d="M122.955 169.398a.27.27 0 0 1-.154-.153l-2.313-5.819a.27.27 0 1 1 .504-.2l2.313 5.819c.055.139-.013.297-.152.352a.27.27 0 0 1-.198.001z"/></g><g class="e"><path d="M117.307 172.459c-.632.486-1.301.65-1.858.519-.474-.107-.867-.43-1.075-.956s-.197-1.159-.01-1.775c.216-.726.672-1.428 1.304-1.913 1.164-.895 2.477-.698 2.929.44s-.125 2.79-1.29 3.685z" class="i"/><path d="M115.541 172.912l-.092.065c-.474-.107-.867-.43-1.075-.956s-.197-1.16-.01-1.775c.028-.027.058-.05.088-.074.619-.476 1.291-.477 1.696-.081a1.39 1.39 0 0 1 .498-.794c.421-.324.898-.252 1.062.16s-.046 1.012-.468 1.336c-.258.198-.535.247-.748.164.026.687-.332 1.479-.951 1.955z"/><path d="M109.965 180.136l-2.875-7.234c-.045-.113.012-.278.129-.367l2.157-1.659c.116-.089.247-.07.292.044l2.875 7.234c.045.113-.012.278-.129.367l-2.157 1.659c-.116.089-.247.07-.292-.044z" class="h"/><g class="i j"><path d="M121.104 167.722c-.034-.013-.063-.04-.077-.077l-.48-1.207c-.028-.07.006-.148.076-.176s.148.006.176.076l.48 1.207c.028.07-.006.148-.076.176-.033.013-.068.013-.099.001z"/></g></g><path d="M111.007 178.666c-.292.224-.62.175-.733-.11s.031-.698.323-.922.62-.175.733.11-.031.698-.323.922z" class="g"/><g class="e"><path d="M110.321 176.94c-.291.224-.62.175-.733-.11s.031-.698.323-.922.62-.175.733.11-.031.698-.323.922zm-.686-1.726c-.292.224-.62.175-.733-.11s.031-.698.323-.922.62-.175.733.11-.031.698-.323.922zm-.686-1.725c-.291.224-.62.175-.733-.11s.031-.698.323-.922.62-.175.733.11-.031.698-.323.922z" class="i"/><path d="M144.36 225.376c-.909 4.201-1.735 8.103-3.154 12.421-.022.078-.044.155-.072.233-2.212 9.533-.532 9.206-2.006 16.977 0 0 1.042 4.562-2.256 4.717-7.499.36-29.52 3.996-43.465-2.189-1.663-.737-2.467-4.889.105-7.2.959-12.554.643-32.679 3.364-42.972 2.178-3.37 7.15-9.694 15.68-13.452 0 0 .352 2.451 4.789 4.129 6.986 2.642 13.114 0 13.114 0s5.448 4.246 8.763 16.417c1.685 6.191 3.631 9.328 5.138 10.919z" opacity=".7"/></g><path d="M145.696 219.562l-1.336 5.814-1.38 6.152c-2.677-5.975-.925-14.81-.925-14.81 1.419.582 2.633 1.585 3.641 2.843z" class="h"/><path d="M154.635 205.822c2.284 9.01 4.181 17.886 5.24 27.187.237 3.379.835 6.473-.495 10.267-.946 2.355-2.484 4.568-3.823 6.47-2.68 3.798-5.615 7.374-8.583 10.887-3.366 3.93-7.068 8.056-10.55 11.892-.46.442-1.029 1.316-1.707 1.546 0 0-5.687-4.521-5.687-4.521.069-.701.729-1.41 1.073-1.982l1.241-1.861 7.284-11.245c3.089-5.038 6.687-10.089 9.062-15.412.018-.046.032-.084.015-.063-.023.022-.006-.005-.037.068-.022.049-.04.101-.052.153-.013.04-.018.144-.023.092-.041-.266-.023-.422-.064-.762-1.283-9.74-4.145-19.668-6.327-29.318 0 0 13.433-3.397 13.433-3.397h0z" fill="#e9bfbb"/><path d="M140.158 194.467s7.78 1.604 12.283 5.654c6.003 5.4 7.081 24.816 7.081 24.816l-14.628 4.519-3.475-9.907-1.261-25.082z" class="g"/><path d="M123.541 157.78s-5.425 2.935-4.299 12.281 13.544-8.225 4.299-12.281z" class="q"/><path d="M123.541 157.78s-5.425 2.935-4.299 12.281 13.544-8.225 4.299-12.281z" class="l"/><path d="M138.444 170.694c-1.801 7.042-1 8.374-5.299 11.312-6.467 4.419-15.533 3.803-15.44-3.662.083-6.719 1.656-18.624 9.175-20.062 7.407-1.417 13.366 5.37 11.565 12.412z" class="q"/><path d="M129.683 169.775c-.139.603-.427.604-.821.509s-.746-.249-.607-.852.572-1.016.966-.921.601.661.461 1.264zm-7.522-.95c-.139.604-.427.604-.821.509s-.746-.249-.606-.852.572-1.016.966-.921.601.661.462 1.264z" class="f"/><path d="M123.362 168.769s-1.518 2.518-2.91 3.618c.7.921 2.17.815 2.17.815l.74-4.433z" fill="#d4827d"/><path d="M131.327 167.261a.36.36 0 0 0 .177-.052c.171-.104.225-.328.119-.5-1.055-1.725-2.734-1.803-2.805-1.806a.36.36 0 0 0-.373.351c-.005.2.152.369.352.376h0c.055.002 1.364.077 2.206 1.454.071.117.197.18.324.176zm-11.566-1.813a.36.36 0 0 0 .34-.048c1.286-.952 2.522-.516 2.574-.497a.36.36 0 0 0 .464-.215c.068-.188-.027-.397-.215-.468-.069-.024-1.646-.602-3.257.592-.161.119-.194.347-.074.51.044.06.103.103.168.127zm15.16-.665s.072-2.507-1.944-3.611-7.811.99-11.001-1.897c0 0-2.83-4.949 3.007-6.603s15.75 2.146 18.337 7.052.749 8.252.749 8.252c.179-1.473-.113-2.225-.113-2.225s.188 3.349-2.343 5.278l-6.691-6.245z" class="f"/><use xlink:href="#b" class="q"/><use xlink:href="#b" class="l"/><path d="M140.791 176.074c-1.026 1.578-2.57 2.546-3.942 2.855-2.063.465-2.764-1.601-1.915-3.655.765-1.849 2.76-4.318 4.698-3.859 1.909.452 2.332 2.854 1.159 4.659z" class="q"/><path d="M122.423 177.157c-.072 0-.142-.037-.18-.103-.057-.099-.024-.226.075-.284.057-.034 1.431-.816 4.624-.816.115 0 .208.093.208.208s-.093.208-.208.208c-3.064 0-4.401.751-4.414.759-.033.019-.069.028-.104.028zM244.52 441.106h7.862v2.916h-7.862zm63.842 0h7.862v2.916h-7.862z" class="f"/><rect x="242.056" y="366.395" width="76.632" height="75.695" rx="1.384" class="g"/><rect x="242.053" y="366.392" width="76.64" height="75.7" rx="1.39" class="e i"/><path class="Z h" d="M318.693 367.782v17.64c-36.5.12-67.58-1.65-76.64-2.22v-15.42c0-.77.62-1.39 1.39-1.39h73.86c.77 0 1.39.62 1.39 1.39z"/><rect x="239.382" y="364.232" width="81.98" height="18.787" rx="4.832" class="g"/><path d="M321.363 369.062v9.12c0 2.67-2.16 4.84-4.83 4.84h-72.32c-2.67 0-4.83-2.17-4.83-4.84v-9.12a4.83 4.83 0 0 1 4.83-4.83h72.32a4.83 4.83 0 0 1 4.83 4.83z" class="e i"/><path class="Z h" d="M321.363 369.062v4.87c-1.65-1.6-5.304-.766-7.934.884-4.08 2.56-17.779 2.306-22.399-.884-4.61-3.19-7.551.884-21.176-.307-11.868-1.038-12.891-9.393-21.401-9.393h68.08a4.83 4.83 0 0 1 4.83 4.83z"/><use xlink:href="#c" class="g"/><use xlink:href="#d" class="f"/><use xlink:href="#c" x="-71.005" class="g"/><use xlink:href="#d" x="-71.005" class="f"/><use xlink:href="#e" class="g"/><use xlink:href="#e" class="h"/><path class="Z h" d="M318.044 372.417l-23.17.64 2.02-23.35s11.68 1.42 19.02 6.95c2.78 2.09 2.9 8.76 2.13 15.76z"/><use xlink:href="#f" class="g"/><use xlink:href="#f" class="h"/><path d="M299.029 296.119c5.681 3.331 11.751 7.606 18.05 9.259.175.044.183-.01-.235.178-1.115.534-1.988 1.695-2.088 2.921-.036.649.062.688.046.668-1.16-3.576-3.504-6.883-5.407-10.202-.002-.007-6.836-11.052-6.84-11.062-1.467-2.392 1.758-4.914 3.723-2.928 4.712 4.783 9.078 9.769 13.015 15.244 2.416 3.48 6.716 9.511 1.701 12.926-6.837 4.072-21.329-5.229-27.244-9.023-5.121-3.657-.091-11.264 5.279-7.98h0z" class="r"/><path d="M307.027 300.063s-1.53 6.74-5.299 9.456c-.865.626-1.846 1.036-2.96 1.108-2.051.127-3.42-1.79-4.329-4.356-1.724-4.872-1.801-12.077-1.801-12.077 6.507.77 8.879 2.66 14.389 5.87z" class="f"/><path d="M301.728 309.519c-.865.626-1.846 1.036-2.96 1.108-2.051.127-3.42-1.79-4.329-4.356l3.514-5.642s2.871 2.156 3.774 8.89z" class="h"/><path d="M300.597 308.228c.078 5.936-4.591 21.764-6.947 31.824l-31.412-.423c.582-2.971 2.487-12.079 2.171-18.902-.017-.477-.05-.987-.078-1.497-.066-1.336-.172-2.766-.288-4.296l-.072-.931-.56-5.726-.699-5.903-.399-3.126c-.643-4.778 2.893-8.774 7.593-8.58 1.253.05 2.588.133 3.935.266 5.282.499 9.611.948 14.2 2.04 1.519.355 3.093.787 4.595 1.219 5.404 1.552 7.893 8.469 7.959 14.034z" class="f"/><path d="M268.76 301.732s-.737 8.757-4.717 13.203l-.072-.931-.56-5.726 5.349-6.546z" class="h"/><g class="f"><path d="M273.59 259.195c-5.274 9.7-5.013 22.14-3.198 24.739s28.271 1.177 28.271 1.177-2.574-2.816-2.839-18.521-22.234-7.396-22.234-7.396z"/><path d="M295.114 274.634c2.61-4.066 5.529-15.213-4.375-19.153-12.364-4.918-18.363 2.835-19.812 10.726s2.75 14.1 11.081 13.883 11.301-2.643 13.106-5.455z"/></g><path d="M279.157 275.672c.123 4.778-.386 13.355-4.027 15.637 0 0 1.57 1.864 12.061 8.163 3.521-3.109 1.872-4.774 1.872-4.774-4.798-2.431-4.043-6.176-2.585-9.511l-7.321-9.516z" class="r"/><path d="M282.141 279.554l4.334 5.629c-.348.788-.652 1.6-.847 2.413-4.21-2.194-5.614-6.282-5.614-6.282s1.886-1.327 2.127-1.76z" class="h"/><g class="r"><path d="M306.48 286.808l.025-8.134-7.023 1.114s-.817 5.683 3.308 8.011l3.69-.992z"/><path d="M303.803 273.555l-5.036 2.084.715 4.151 7.023-1.114-2.702-5.12zm-54.253 19.317l-6.505-4.883 5.123-4.932s5.027 2.774 4.398 7.469l-3.016 2.346z"/><path d="M240.589 282.746l4.698-2.762 2.881 3.073-5.123 4.932-2.456-5.243zm29.113 15.488c-1.594 4.342-3.365 8.427-5.565 12.539-2.213 3.839-4.433 8.337-8.71 10.665-1.692.962-4.26.72-5.682-.504-4.084-3.319-3.144-12.265-3.084-16.998.228-4.515.732-8.929 1.451-13.375a2.38 2.38 0 0 1 2.732-1.971c1.121.181 1.931 1.117 1.998 2.204l.886 13.044c.424 3.636.466 7.697 1.791 10.96-.207-.607-1.662-1.437-2.584-1.357-.501-.027-1.066.141-1.457.286.013-.039.032-.043.122-.153 4.036-5.362 6.445-12.471 9.143-18.695 2.419-5.799 10.941-2.611 8.961 3.355h0z"/></g><g class="g"><path d="M290.499 270.874l5.445-5.88-.276-.299s.407-.041.767-.003c.188.005.382.128.519.354l9.911 16.297c.231.38.214.91-.038 1.182l-5.578 6.024a.46.46 0 0 1-.315.152v.005h-.022l-.768.002.138-.505-9.82-16.146c-.231-.38-.214-.91.038-1.182z"/><use xlink:href="#g"/></g><use xlink:href="#g" class="e m"/><path d="M300.212 287.919l5.514-5.954c.123-.133.132-.392.019-.578l-9.617-15.814c-.113-.186-.305-.229-.428-.096l-5.514 5.954c-.123.133-.132.392-.019.578l9.617 15.813c.113.186.305.229.428.096z" class="f"/><g class="i j e"><path d="M291.93 272.858a.27.27 0 0 0 .199-.087l4.255-4.594a.27.27 0 1 0-.398-.368l-4.255 4.595a.27.27 0 0 0 .199.455z"/></g><g class="e"><use xlink:href="#R" x="-82.318" y="70.756" class="i"/><path d="M297.579 278.808l.062.094c.481.071.964-.089 1.348-.504s.602-1.01.649-1.652c-.017-.036-.036-.068-.056-.101-.406-.667-1.032-.911-1.552-.687a1.39 1.39 0 0 0-.178-.92c-.276-.454-.747-.559-1.048-.234s-.322.961-.046 1.415c.169.278.411.424.639.423-.272.632-.223 1.499.182 2.166z"/><use xlink:href="#S" x="-82.318" y="70.755" class="h"/><g class="i j"><use xlink:href="#T" x="-82.319" y="70.756"/></g><path d="M299.735 285.81c.191.314.515.387.723.161s.223-.662.031-.977-.515-.387-.724-.161-.223.662-.031.977z" class="i"/><use xlink:href="#U" x="-82.318" y="70.756" class="i"/><path d="M302.259 283.084c.191.314.515.387.723.161s.223-.662.031-.977-.515-.387-.724-.161-.223.662-.031.977z" class="i"/></g><path d="M303.521 281.722c.191.314.515.387.724.161s.223-.662.031-.977-.515-.387-.724-.161-.222.662-.031.977z" class="g"/><path d="M275.948 267.824c.56 7.56.635 10.771 4.505 14.606 5.821 5.769 14.984 3.428 16.694-4.146 1.539-6.818.365-18.035-7.078-20.953-7.333-2.874-14.681 2.933-14.121 10.493z" class="r"/><g class="f"><path d="M281.732 260.202c2.323 2.44-1.723 11.122-5.354 12.859-7.513-1.768-1.58-20.141 5.354-12.859z"/><path d="M290.363 255.902c2.884.978 5.947 5.969 6.457 7.889-4.101.671-15.155-3.17-15.155-3.17s-7.376 2.037-3.64-1.703 12.337-3.016 12.337-3.016zm4.568 14.898c.008.616.341 1.111.743 1.106s.723-.509.715-1.125-.341-1.111-.743-1.106-.723.509-.715 1.125z"/><path d="M295.469 269.712l1.474-.445s-.745 1.165-1.474.445z"/></g><path d="M273.985 274.787c.557 1.47 1.74 2.545 2.926 3.057 1.784.769 2.936-.763 2.658-2.583-.25-1.638-1.48-4.012-3.375-4.011-1.867 0-2.845 1.857-2.209 3.537z" class="r"/><g class="f"><path d="M285.226 268.298a.36.36 0 0 0 .375-.199c.736-1.503 2.862-1.86 2.883-1.863.197-.032.332-.217.3-.414a.36.36 0 0 0-.414-.3c-.103.017-2.519.423-3.418 2.26a.36.36 0 0 0 .166.484c.035.017.072.028.108.033zm11.827-1.947a.36.36 0 0 0 .333-.132c.125-.156.1-.384-.056-.509-1.56-1.253-3.154-.752-3.221-.73a.36.36 0 1 0 .224.688h0c.053-.017 1.298-.394 2.544.606a.36.36 0 0 0 .175.076zm-9.085 4.537c.008.616.341 1.111.743 1.106s.723-.509.715-1.125-.34-1.111-.743-1.106-.723.509-.715 1.124z"/><path d="M288.506 269.8l1.474-.445s-.745 1.165-1.474.445zm3.038 8.54c-.749.84-1.755 2.537-1.755 2.537l-.507-.199c-2.286-.918-3.043-2.099-3.189-3.13-.078-.564.035-1.088.18-1.493.162-.471.385-.769.385-.769.921 1.211 2.986 2.231 4.111 2.729l.774.325z"/></g><path d="M290.769 278.015l-.537.735c-2.151-.87-3.548-1.771-3.96-2.695.162-.471.385-.769.385-.769.921 1.211 2.986 2.231 4.111 2.729z" class="e"/><path d="M289.282 280.678c-2.286-.918-3.043-2.099-3.189-3.13.767.343 1.653.842 2.336 1.522a2.97 2.97 0 0 1 .853 1.608z" class="s"/><path d="M289.383 274.386c-1.541 0-2.794-1.418-2.794-3.162s1.253-3.161 2.794-3.161 2.794 1.418 2.794 3.161-1.253 3.162-2.794 3.162zm0-5.845c-1.277 0-2.316 1.203-2.316 2.683s1.039 2.684 2.316 2.684 2.316-1.204 2.316-2.684-1.039-2.683-2.316-2.683zm6.823 5.845c-1.541 0-2.795-1.418-2.795-3.162s1.253-3.161 2.795-3.161 2.794 1.418 2.794 3.161-1.253 3.162-2.794 3.162zm0-5.845c-1.277 0-2.316 1.203-2.316 2.683s1.039 2.684 2.316 2.684 2.316-1.204 2.316-2.684-1.039-2.683-2.316-2.683z" class="f"/><path d="M292.869 270.73s1.079 2.639 2.245 3.904c-.804.769-2.191.44-2.191.44l-.055-4.344z" class="s"/><path d="M292.065 271.427l-.255-.406c.054-.033 1.324-.812 2.026.052l-.372.303c-.44-.544-1.39.046-1.399.052zm-14.415-.443h9.177v.479h-9.177zm-8.778 19.713c-6.429.118-7.75 1.755-12.373 10.89l9.717 7.059s3.762-5.472 4.428-9.906-1.773-8.043-1.773-8.043z" class="f"/><g class="k"><path d="M218.591 430.985l-4.77 5.43-3.79 4.31-5.34 6.08-1.42 1.62-.01.01-1.28 1.45-.59-.65-1.93-2.23-1.13-1.38c-4.44-5.43-9.65-12.6-14.68-19.91l-6.07-9.02c-5.24 10.29-36.39 22.57-40.32 32.97-.54.34-2.22-.38-3.91-1.25-2.06-1.09-4.13-2.44-4.13-2.44s31.2-42.99 45.51-52.43c1.38-.92 2.61-1.51 3.63-1.73.24-.05.49-.08.75-.08 9.55 0 33.78 32.57 39.48 39.25z"/><path d="M136.472 456.525c-2.51.05-3.26-.34-6.38-.23l-8.72.22-2.29.01c-2.6 0-3.55-3.39-.05-3.86 3.66-.49 8.85-4.14 10.19-6.69l7.23.68.13.01.68 3c.22 1 .42 1.91.59 2.49.65 2.31.72 4.32-1.38 4.37z"/></g><path d="M234.862 447.405s-11.97 10.78-21.75 9.23c-6.47-1.03-10.59-4.74-12.64-7.13-1.05-1.22-1.55-2.1-1.55-2.1l.54-.4 3-2.22 6.63-4.88 4.73-3.49 7.18-5.3 8.74 10.27 5.12 6.02z" class="f"/><use xlink:href="#h" class="g"/><use xlink:href="#h" class="e m"/><path class="Z h" d="M229.742 441.385l-6.53 12.23s-8.44 1.3-18.01-6.39l-.51-.42a37.05 37.05 0 0 1-2.23-2.02 33.1 33.1 0 0 1-.84-.84c-4.54-4.7-9.14-11.65-13.04-21.89 0 0-1.84 2.15-4.93 3.66l-6.07-9.02c-5.24 10.29-36.39 22.57-40.32 32.97.22 1 .42 1.91.59 2.49.65 2.31.72 4.32-1.38 4.37-2.51.05-3.26-.34-6.38-.23-3.18.11-4.24.2-8.72.22.63-1.52 1.74-3.36 3.58-4.07 2.07-.79 5.54-2.5 8.4-4.03 1.19-.65 2.28-1.26 3.1-1.76.43-.26.78-.49 1.05-.68 2.05-1.46 21.24-34.66 38.78-47.93 0 0-1.27-2.05-1.55-4.5 1.38-.92 2.61-1.51 3.63-1.73.24-.05.49-.08.75-.08 9.55 0 33.78 32.57 39.48 39.25l-4.77 5.43 7.18-5.3 8.74 10.27z"/><path d="M197.043 381.948c-4.071 6.639-7.156 14.734-13.795 19.546-1.793 1.364-4.75 1.207-6.291-.527-1.975-2.068-1.63-5.183-1.476-7.5.283-3.184.83-6.299 1.449-9.385a138.59 138.59 0 0 1 2.965-12.004 2.43 2.43 0 0 1 4.757.81c-.15 7.695-1.253 15.646-.667 23.261.021.107.057.185.03.047-.372-1.666-2.816-2.948-4.531-2.449-.58.115-1.018.378-1.219.486.014-.015.063-.06.079-.074 1.813-1.816 3.067-4.221 4.444-6.636 1.813-3.318 3.908-7.541 6.013-10.774 3.631-5.159 11.333-.29 8.241 5.198h0z" fill="#b65b52"/><path class="Z h" d="M192.923 381.188s-1.575 3.596-1.575 7.72c0 0-1.954-.578-6.949-.291.246-1.32.524-3.236.499-5.045l-.854 1.602v3.463l-8.353 2.844-.211 1.99-.111 1.718.044 1.995c.039.399.083.82.25 1.447.094.327.205.704.51 1.275.183.31.366.626.782 1.064.094.1.2.2.338.316l.421.327.532.31c.183.094.405.183.615.255a4.77 4.77 0 0 0 2.528.139l.46-.122.222-.078.172-.072.338-.155.266-.144.272-.166.127-.083.26-.172c.344-.227.637-.454.931-.687 1.125-.931 2.001-1.851 2.766-2.777 1.519-1.846 2.744-3.658 3.869-5.482l3.137-5.387 1.308-2.356c-.576-1.236-1.43-2.4-2.594-3.447z"/><g class="k"><path d="M179.899 372.32l-.779-8.199 7.185.473s1.35 5.655-2.593 8.385l-3.813-.659z"/><path d="M181.371 358.707l5.271 1.635-.337 4.252-7.185-.473 2.25-5.413z"/></g><g class="g"><path d="M194.147 355.892l-4.994-5.393.253-.275s-.373-.038-.703-.003c-.172.005-.35.117-.476.324l-9.09 14.947c-.212.349-.197.834.035 1.084l5.116 5.525c.084.09.185.133.289.14v.004h.02l.704.002-.126-.463 9.006-14.809c.212-.349.197-.834-.035-1.084z"/><use xlink:href="#i"/></g><use xlink:href="#i" class="e m"/><path d="M185.239 371.526l-5.057-5.461c-.113-.122-.121-.36-.017-.53l8.821-14.504c.104-.171.28-.21.393-.088l5.057 5.461c.113.122.121.359.017.53l-8.821 14.504c-.104.171-.28.21-.393.088z" class="f"/><g class="i j e"><path d="M192.834 357.712c-.067 0-.133-.027-.182-.08l-3.903-4.214a.25.25 0 0 1 .014-.351c.1-.093.257-.087.351.014l3.903 4.214a.25.25 0 0 1-.014.351c-.048.044-.108.066-.169.066z"/></g><g class="e"><path d="M189.015 362.197c-.38.624-.898.986-1.418 1.058-.441.065-.884-.082-1.236-.462s-.552-.927-.595-1.515a3.51 3.51 0 0 1 .483-2.068c.7-1.151 1.888-1.416 2.652-.591s.815 2.428.115 3.579z" class="i"/><path d="M187.654 363.169l-.057.086c-.441.065-.884-.082-1.236-.462s-.552-.927-.595-1.515a.93.93 0 0 1 .051-.092c.372-.612.947-.835 1.424-.63-.044-.273.008-.589.163-.844.253-.416.685-.513.961-.214s.295.881.042 1.298c-.155.255-.376.389-.586.388.25.579.205 1.375-.167 1.987z"/><path d="M185.271 371.193l-4.851-5.239c-.076-.082-.081-.242-.012-.357l1.297-2.133c.07-.115.188-.141.264-.059l4.851 5.239c.076.082.081.242.011.357l-1.297 2.133c-.07.115-.188.141-.264.059z" class="h"/><g class="i j"><path d="M190.697 356.89c-.033 0-.067-.013-.091-.04l-.809-.874c-.047-.05-.044-.129.007-.175s.129-.044.175.007l.809.874c.047.05.044.129-.007.176-.024.022-.054.033-.084.033z"/></g></g><path d="M185.676 369.59c-.175.288-.472.354-.664.148s-.204-.608-.029-.896.472-.354.664-.148.204.608.029.896z" class="g"/><g class="e"><path d="M184.519 368.341c-.175.288-.472.354-.663.148s-.204-.607-.029-.896.472-.355.664-.148.204.608.029.896zm-1.157-1.25c-.175.288-.472.354-.664.148s-.204-.608-.029-.896.472-.354.664-.148.204.607.029.896zm-1.158-1.25c-.175.288-.472.354-.664.148s-.204-.608-.029-.896.472-.354.664-.148.204.608.029.896z" class="i"/></g><path d="M239.861 413.589l-31.028 8.462a51.31 51.31 0 0 0-1.575-5.995c-2.126-6.525-5.843-14.142-12.141-25.764-.849-1.58-5.982-14.057-5.982-14.057s2.76-3.502 9.588-5.271c3.704-.96 10.569-2.129 15.184-1.929 1.585.065 3.024.178 4.339.33a43.22 43.22 0 0 1 1.991.276c7.536 1.255 10.247 4.188 11.583 8.554.822 2.689 1.71 4.734 2.992 10.328l.508 2.31c1.358 5.849 2.521 11.648 4.204 20.889l.335 1.866z" class="k"/><use xlink:href="#j" class="g"/><use xlink:href="#j" opacity=".7" class="e"/><path d="M207.838 356.162c.573 4.329 2.322 11.942 6.256 13.215 0 0-2.197 5.633-8.8 10.658-3.232-2.45-2.939-6.64-2.939-6.64s2.419-2.891-.376-7.091l5.86-10.143z" class="k"/><path class="Z h" d="M209.537 363.464c-1.493 3.782-3.717 7.672-6.866 9.446.547-.99 1.428-3.425-.692-6.606l5.859-10.144c.271 2.045.801 4.815 1.699 7.304z"/><path d="M129.077 456.523c6.5 0 7.359-.1 11.011-.223 3.127-.112 3.876.279 6.389.223 2.1-.045 2.022-2.055 1.374-4.367-.324-1.161-.823-3.616-1.27-5.492l-7.357-.692c-1.34 2.558-6.529 6.206-10.192 6.698-3.496.469-2.545 3.853.046 3.853z" class="k"/><path d="M239.493 411.566c9.749 10.486 18.72 45.068-7.546 45.068-14.377 0-23.247-8.544-23.247-8.544l3.457-36.524 26.787-2.998.55 2.998z" class="f"/><path d="M235.685 413.483l5.018-.484-1.588-3.499-4.251.454.821 3.529zm-2.372-3.363l-21.156 2.261.572 3.317 21.543-2.078-.959-3.5z"/><path d="M211.623 412.03l5.097-.499.611 4.167-5.173.606-.534-4.275z" class="e"/><path class="Z h" d="M203.311 403.07s11.577.487 14.69-.693c3.672-1.391 12.359-16.982 11.463-20.755-.567-2.386-7.689-4.34-7.689-4.34s-4.275 4.432-3.821 12.972-21.255 5.284-21.255 5.284l6.612 7.532zm16.053 16.053h5.268s-7.482-6.766-12.475-7.557-.534 5.844-.534 5.844l7.741 1.712z"/><path d="M187.583 416.695c8.038 12.195 15.331 23.054 22 30.358l9.011-28.312c-5.863-6.863-21.283-28.814-30.233-26.926-11.611 2.449-49.138 54.157-49.138 54.157s6.836 4.439 8.036 3.695c3.934-10.399 35.084-22.686 40.323-32.971z" class="k"/><use xlink:href="#k" class="g"/><use xlink:href="#k" class="e m"/><path class="Z h" d="M202.698 399.988c-3.089-1.05-8.072-2.819-11.632-4.447 0 0-5.508 4.225-12.449 3.008 3.966-3.711 7.385-6.238 9.744-6.736a5.57 5.57 0 0 1 1.131-.114c3.809 0 8.559 3.609 13.206 8.289z"/><path d="M231.091 380.235c-2.546 5.99-5.208 11.538-9.335 16.777-.757.897-1.736 1.97-2.786 2.644-.967.565-1.546.663-2.083.791-3.719.58-7.205-.414-10.617-1.146-6.005-1.479-11.796-3.412-17.524-5.712-2.66-1.114-1.525-5.093 1.311-4.644 7.19.969 17.222 3.146 24.345 3.082.331-.017.641-.079.596-.096-.05.015-.137-.024-.676.274-.152.086-.337.221-.461.338.032-.039.112-.149.146-.188 3.277-4.769 5.602-10.705 8.153-16.011 2.798-5.666 11.169-2.019 8.93 3.892h0z" fill="#b65b52"/><g class="k"><path d="M189.364 388.908l-8.198.794 1.83 6.964s5.809.25 7.739-4.14l-1.371-3.618z"/><path d="M176.278 392.94l2.607 4.864 4.11-1.138-1.83-6.964-4.887 3.238z"/></g><path d="M209.611 339.775c-.759-2.173-9.603-3.474-13.104-1.467s-1.045 3.231-3.694 3.828-5.619 2.11-5.738 4.614 4.076 4.649 2.077 6.302-4.037 5.478-.698 7.406 12.552 4.13 20.784 1.645 6.941-13.67 4.899-16.959c0 0 2.36-1.579 3.634 1.269s-1.671 6.247.868 8.181 4.322 2.642 2.555 5.483 2.263 5.245 4.093 4.3c0 0-1.065.111-1.165-1.583s3.523-1.408 3.9-5.928-2.856-4.152-2.335-6.229 3.26-2.12 2.354-5.801c-.661-2.684-5.148-3.857-6.68-5.428s.224-2.959-2.501-5.801c-1.814-1.892-5.679-.666-7.375.757-2.946 2.471-1.873 5.409-1.873 5.409z" class="f"/><path d="M210.062 350.899c.149 6.949.358 9.88-2.782 13.888-4.724 6.029-13.144 5.135-15.33-1.522-1.968-5.992-1.881-16.349 4.543-20.005 6.329-3.601 13.42.689 13.569 7.639z" class="k"/><g class="f"><path d="M201.758 353.808c.038.583-.23 1.095-.598 1.144s-.696-.383-.734-.966.23-1.095.597-1.144.696.383.734.966zm-7.191.743c.038.583-.23 1.095-.598 1.145s-.697-.383-.734-.966.23-1.095.597-1.145.697.383.734.966z"/><path d="M193.998 353.596l-1.378-.222s.764 1 1.378.222z"/></g><path d="M196.836 355.537s-.792 2.637-1.765 3.988c.789.618 2.031.12 2.031.12l-.266-4.109z" fill="#a02724"/><path d="M199.947 348.665a.31.31 0 0 1 .24.097c.991 1.063 2.214.805 2.228.802.181-.039.353.075.381.259a.37.37 0 0 1-.284.407c-.064.014-1.599.339-2.829-.981-.123-.131-.109-.347.029-.482.067-.065.151-.099.234-.102zm-6.509.014c.081-.024.168-.017.244.025.157.088.206.296.111.464-.958 1.685-2.493 1.857-2.558 1.863a.31.31 0 0 1-.342-.309.37.37 0 0 1 .322-.375c.06-.006 1.249-.157 2.011-1.497.049-.087.128-.146.213-.171zm7.751 4.174l-1.378-.222s.764 1 1.378.222zm6.431 2.693s-4.399-3.921-3.648-11.511c0 0-8.197-1.747-12.41 5.038 0 0 2.93-10.322 14.774-8.639s6.266 14.029 5.144 15.218-3.859-.106-3.859-.106z" class="f"/><path d="M212.778 356.269c-.653 1.503-1.872 2.538-3.048 2.979-1.769.663-2.745-1.048-2.33-2.942.373-1.705 1.744-4.105 3.556-3.947 1.786.155 2.569 2.193 1.823 3.911z" class="k"/><path d="M202.767 361.25c-.015.731-.87 1.915-3.092 3.034 0 0-.322-.417-.855-.87-.439-.387-1.016-.789-1.681-1.031l.46-.249c.914-.468 2.99-1.491 4.153-1.63.373-.044.658.036.833.227.124.124.19.307.183.519z" class="f"/><path d="M202.767 361.25c-.015.731-.87 1.915-3.092 3.034 0 0-.322-.417-.855-.87.797-.877 2.098-1.908 3.948-2.164z" class="s"/><path d="M202.585 360.731c-1.217.519-4.834 1.565-4.834 1.565l-.152-.161c.914-.468 2.99-1.491 4.153-1.63.373-.044.658.036.833.227z" class="e"/><defs ><path id="B" d="M251.704 92.969c-35.967 0-65.125 29.157-65.125 65.125s29.157 65.125 65.125 65.125 65.125-29.157 65.125-65.125-29.157-65.124-65.125-65.124zm35.379 94.197c-5.808 5.808-13.499 8.734-21.145 8.711-7.668 0-15.337-2.904-21.144-8.711l-11.119-11.119-.747-.747-10.297-10.297c-5.808-5.808-8.712-13.476-8.711-21.144-.023-7.646 2.904-15.337 8.711-21.145.885-.885 1.838-1.656 2.768-2.405l18.331 18.331-10.003 10.003c-1.993 1.993-1.993 5.225 0 7.218l9.319 9.319.747.747 10.141 10.141c1.993 1.993 5.225 1.993 7.218 0l10.003-10.003 18.331 18.331c-.749.93-1.52 1.883-2.405 2.768z"/><path id="C" d="M375.32 128.182h35.945c6.826 0 12.36 5.533 12.36 12.36v14.916c0 6.826-5.534 12.36-12.36 12.36h-24.727l-8.145 7.715-.169-7.715h-2.905c-6.826 0-12.359-5.534-12.359-12.36v-14.916c0-6.826 5.534-12.36 12.36-12.36z"/><path id="D" d="M396.297 147.147c0 1.379 1.118 2.496 2.497 2.496s2.497-1.118 2.497-2.496-1.118-2.497-2.497-2.497-2.497 1.118-2.497 2.497z"/><path id="E" d="M257.425 215.919H225.92c-5.983 0-10.833 4.85-10.833 10.833v13.074c0 5.983 4.85 10.833 10.833 10.833h21.672l7.138 6.761.148-6.761h2.546c5.983 0 10.832-4.85 10.832-10.833v-13.074c0-5.983-4.85-10.833-10.833-10.833z"/><path id="F" d="M229.397 232.541a2.19 2.19 0 0 1-2.188 2.188 2.19 2.19 0 0 1-2.188-2.188 2.19 2.19 0 0 1 2.188-2.188 2.19 2.19 0 0 1 2.188 2.188z"/><path id="G" d="M174.001 300.269c0 1.157-.938 2.095-2.095 2.095s-2.095-.938-2.095-2.095.938-2.095 2.095-2.095 2.095.938 2.095 2.095z"/><path id="H" d="M80.886 128.687a2.12 2.12 0 0 1-2.119 2.119 2.12 2.12 0 0 1-2.119-2.119 2.12 2.12 0 0 1 2.119-2.119 2.12 2.12 0 0 1 2.119 2.119z"/><path id="I" d="M385.809 413.184l15.825-.144c.277-.003.51-.21.543-.485l.716-5.819c.042-.345-.24-.643-.586-.619l-17.623 1.198c-.339.023-.577.343-.502.674l1.083 4.765c.058.253.284.433.544.43z"/><path id="J" d="M387.272 420.12c.04-.353.448-.62.753-.498 3.206 1.274 9.291.298 11.596-.144.563-.108 1.078.02 1.478.304 2.454 1.74 8.988 2.801 8.988 2.801s.825 2.178.327 3.846l-24.488-.011s1.019-3.385 1.347-6.298z"/><path id="K" d="M343.951 412.492l15.695 2.031c.275.036.534-.138.605-.406l1.508-5.666c.089-.336-.149-.669-.496-.694l-17.621-1.233c-.339-.024-.618.26-.589.599l.418 4.868c.022.259.222.467.48.501z"/><path id="L" d="M341.122 291.709l-1.18 3.774s18.145 6.873 35.762 9.788l5.957-5.33 4.341 5.33s16.656-2.265 22.2-6.781l-1.356-8.602-65.725 1.821z"/><path id="M" d="M388.967 218.938l-2.75-1.492c3.272-3.565 5.483-8.782 5.483-8.782l3.877-.37s-.746 7.96-6.609 10.643z"/><path id="N" d="M355.112 218.352s5.668 6.236 13.017 5.647c-4.266 2.613-4.962 7.591-4.962 7.591s-9.177-1.662-10.958-11.363c1.084-1.734 2.904-1.875 2.904-1.875z"/><path id="O" d="M371.158 217.281s2.875 3 3.022 5.411c3.442.547 5.121 5.458 5.121 5.458s.591-7.409-4.82-10.665c-1.313-.709-3.323-.204-3.323-.204z"/><path id="P" d="M360.837 267.35l3.322 1.336c-2.695 4.018-3.296 9.029-3.296 9.029l-4.291 2.851s-1.125-9.676 4.265-13.216z"/><path id="Q" d="M382.859 217.792l5.578-6.024c.252-.273.269-.802.038-1.182l-9.911-16.297c-.231-.38-.623-.468-.876-.195l-5.578 6.024c-.252.273-.269.802-.038 1.182l9.911 16.297c.231.38.623.468.876.195z"/><path id="R" d="M378.413 206.993c.414.681.979 1.075 1.546 1.154.481.071.964-.089 1.348-.504s.602-1.011.649-1.652c.06-.755-.112-1.574-.526-2.255-.763-1.255-2.059-1.544-2.891-.645s-.889 2.647-.125 3.902z"/><path id="S" d="M382.495 216.801l5.289-5.712c.083-.09.089-.264.012-.389l-1.414-2.325c-.076-.125-.205-.154-.288-.064l-5.289 5.712c-.083.09-.089.264-.012.389l1.414 2.325c.076.125.205.154.288.064z"/><path id="T" d="M376.58 201.206c.036 0 .073-.015.099-.044l.882-.953c.051-.055.048-.14-.007-.191s-.14-.048-.191.007l-.882.953c-.051.055-.048.141.007.191.026.024.059.036.092.036z"/><path id="U" d="M383.315 213.691c.191.314.515.387.724.161s.223-.662.031-.977-.515-.387-.724-.161-.223.662-.031.977z"/><path id="V" d="M91.396 336.543c1.68 24.95 1.97 66.87 1.97 66.87l11.86.52s5.99-25.76 6.9-52.74c.08-2.53.12-5.06.11-7.59 2.95-18.6 6.5-32.53 9.64-43.98 2.94-10.74 5.53-19.28 6.93-27.45l-35-11.37c-1.95 6.11-5.32 32.43-2.41 75.74z"/><path id="W" d="M104.198 410.22c-2.251.168-9.796-1.249-11.249-2.142s-.529-6.746-.529-6.746 12.663-.118 13.619.968-1.841 7.92-1.841 7.92z"/><path id="X" d="M93.181 264.178c-.412-4.016.166-8.312.166-8.312.017-.868 40.912-1.745 44.203-1.547 0 0 1.427 13.001.442 23.974-28.741 1.323-44.011-9.049-44.811-14.115z"/><path id="Y" d="M138.646 343.026c-1.513-36.442-.082-59.295-.576-76.418l-33.847-1.115c-.701 6.376 1.194 32.842 12.6 74.724 6.571 24.128 15.14 65.169 15.14 65.169l11.726-1.831s.931-31.625-5.043-60.529z"/><path id="Z" d="M143.922 409.917c-2.174.61-9.849.71-11.45.121s-1.851-6.509-1.851-6.509 12.39-2.617 13.542-1.74-.241 8.127-.241 8.127z"/><path id="a" d="M109.268 180.93l-3.032-7.629c-.137-.345.038-.845.391-1.116l15.119-11.629c.353-.272.75-.212.887.133l3.032 7.629c.137.345-.038.845-.391 1.116l-15.119 11.629c-.353.271-.75.212-.887-.133z"/><path id="b" d="M136.798 175.381c-3.47 1.556-2.366-1.777-2.1-2.102 1.166-1.421.489-3.617-.318-6.7-.359-1.372.219-3.494.219-3.494s4.118-.375 6.469.476c2.427.879 2.314 2.892 2.314 2.892-1.176 6.252-3.789 7.673-6.585 8.928z"/><path id="c" d="M357.324 438.245c-1.11 0-2.891-.841-3.313-1.048l-.008-.004h0c-.019-.01-.036-.023-.05-.039-.02-.02-.036-.046-.047-.074q0 0 0-.001h0c-.005-.014-.009-.03-.011-.045h0c-.004-.034 0-.067.012-.098.031-.084.721-1.929 1.805-2.365.345-.138.691-.125 1.029.04.361.177.534.404.516.676-.029.418-.602.831-1.253 1.169.674-.056 1.363-.031 1.782.217a.85.85 0 0 1 .419.543c.114.474-.048.722-.203.846-.162.13-.398.183-.678.183zm-2.584-1.173c1.167.51 2.622.966 2.999.663.033-.027.133-.107.057-.42-.028-.116-.101-.208-.224-.281-.57-.337-1.938-.15-2.832.038zm1.442-2.175a.84.84 0 0 0-.314.064c-.627.252-1.13 1.151-1.385 1.694 1.184-.434 2.329-1.039 2.354-1.397.008-.111-.173-.216-.281-.269-.126-.062-.25-.092-.375-.092z"/><path id="d" d="M345.156 436.202c.023-.648 7.978-.044 7.978-.044s4.838 5.04 9.582 6.217 2.051 3.999-3.266 3.935l-13.153-.158c-3.778-.045-1.378-3.235-1.14-9.95z"/><path id="e" d="M292.445 338.228l.523 5.549s32.48 4.937 37.679 10.019 23.835 82.858 23.835 82.858-5.416 2.301-9.661 1.105c0 0-25.459-49.247-25.169-65.398 0 0-22.736.849-38.255.849s-17.373-34.983-17.373-34.983h28.421z"/><path id="f" d="M264.024 338.228s-10.041 14.869-4.577 27.085 32.825 6.705 32.825 6.705c-4.119 6.367-8.794 11.984-18.57 64.154 0 0 3.872 2.073 9.199.763 0 0 30.586-62.899 31.368-74.129s-32.289-18.44-32.289-18.44l-17.956-6.138z"/><path id="g" d="M300.541 288.548l5.578-6.024c.252-.272.269-.802.038-1.182l-9.911-16.297c-.231-.38-.623-.468-.876-.195l-5.578 6.024c-.252.272-.269.802-.038 1.182l9.911 16.297c.231.38.623.468.876.195z"/><path id="h" d="M208.036 438.968s-6.054 5.777-10.777 7.003l1.787 3.779s6.511-.192 11.489-8.585l-2.5-2.197z"/><path id="i" d="M184.937 372.102l-5.116-5.525c-.231-.25-.247-.735-.035-1.084l9.09-14.947c.212-.349.572-.429.803-.179l5.116 5.525c.231.25.247.735.035 1.084l-9.09 14.947c-.212.349-.572.429-.803.179z"/><path id="j" d="M239.526 411.722c-7.493.779-23.903 3.116-32.267 4.334-2.126-6.525-5.843-14.142-12.141-25.764.898-.546 1.023-3.447 1.023-5.629 0-1.934.073-10.536 3.114-13.982.097-.032 1.486-.212 1.486-.212-1.844 2.936-2.446 7.597-.931 9.956 1.894 2.949 12.037 1.627 14.282-.39 3.381-3.035 3.852-8.272 4.155-10.669a43.22 43.22 0 0 1 1.991.276c-.687 3.398-2.851 18.855 14.575 18.882l.508 2.31c1.358 5.849 2.521 11.648 4.204 20.889z"/><path id="k" d="M217.488 417.41s-2.084 16.563-10.859 28.561l3.637 3.721s8.247-7.478 10.117-31.384l-2.895-.898z"/></defs></svg>