<svg xmlns="http://www.w3.org/2000/svg" viewBox="0 0 144 144"><path d="M130.985 73.37c0-4.273-.383-8.38-1.095-12.323H73.152v23.33h32.422c-1.424 7.503-5.696 13.856-12.103 18.127v15.17h19.55c11.392-10.514 17.964-25.958 17.964-44.305Z" fill="#4285f4"/><path d="M73.152 132.242c16.266 0 29.903-5.367 39.87-14.567l-19.551-15.17c-5.367 3.614-12.213 5.805-20.318 5.805-15.663 0-28.971-10.57-33.736-24.81H19.373v15.554c9.912 19.661 30.23 33.188 53.78 33.188Z" fill="#34a853"/><path d="M39.417 83.446C38.212 79.831 37.5 75.998 37.5 72s.712-7.831 1.917-11.446V45.001H19.373C15.265 53.106 12.91 62.25 12.91 72s2.355 18.894 6.463 27L34.98 86.84l4.436-3.395Z" fill="#fbbc05"/><path d="M73.152 35.745c8.873 0 16.759 3.067 23.057 8.982l17.251-17.251C103 17.727 89.418 11.758 73.152 11.758c-23.549 0-43.867 13.527-53.78 33.243l20.045 15.553c4.765-14.24 18.073-24.809 33.735-24.809Z" fill="#ea4335"/></svg>