<svg xmlns="http://www.w3.org/2000/svg" width="192" height="51.744" viewBox="0 0 144 38.831" xmlns:v="https://vecta.io/nano"><path d="M28.274 8.322c1.436-.909 3.238-1.035 4.874-.73 1.44.294 2.49 1.402 3.463 2.42l-2.241 2.249c-.624-.782-1.386-1.556-2.392-1.797-.668-.092-1.454-.119-1.984.374-.379.328-.71.857-.494 1.367.192.362.55.592.863.839 1.642 1.107 3.509 1.94 4.868 3.419.66.691 1.09 1.634 1.031 2.603-.053 1.408-.903 2.7-2.065 3.457-.849.571-1.901.743-2.906.747-1.169.024-2.371-.205-3.371-.831-.792-.458-1.446-1.099-2.113-1.716.635-.762 1.38-1.43 2.049-2.163l.085-.012c1.029.7 2.087 1.478 3.353 1.654.707.115 1.474-.251 1.772-.913.124-.26.008-.55-.157-.759-.632-.863-1.593-1.385-2.471-1.96-1.031-.687-2.189-1.227-3.019-2.176-.911-.922-1.337-2.325-.998-3.589.26-1.031.973-1.91 1.853-2.486h0 0zm8.456 3.431l2.972.001.025.303c1.634-.642 3.642-.288 4.898.963.903-.901 2.201-1.357 3.47-1.261 1.594.033 3.058 1.042 3.846 2.397.422.715.56 1.552.591 2.371l.008 6.735-3 .007-.003-6.876c.003-.672-.466-1.291-1.079-1.538-1.029-.472-2.401.395-2.333 1.544l.004 6.865-3.004.004.004-6.864c.031-.719-.518-1.366-1.178-1.59-1.023-.379-2.283.484-2.237 1.585l.003 6.87c-1.001.003-2.003.009-3.003-.004l.017-11.511h0 0z" fill="#0b9445"/><path d="M75.674 7.549l2.999-.003-.004 4.261 3.769-.003c-.264.829-.687 1.653-1.426 2.152a4.42 4.42 0 0 1-2.337.802l.001 3.644c.001.546.136 1.161.636 1.466.756.443 1.673.442 2.524.435.057.982-.067 1.969.001 2.954-1.424.047-2.938-.023-4.196-.762-1.061-.632-1.644-1.826-1.821-3.014-.239-1.556-.113-3.135-.133-4.702a22.24 22.24 0 0 0-1.492.004l-.016-2.982 1.506.001-.012-4.255h0 0z" fill="#0c9446"/><path d="M69.745 14.034c.626-1.504 2.321-2.459 3.936-2.237l.017 2.912c-1.576-.155-3.229.851-3.694 2.388-.354.931-.26 1.937-.269 2.91l.008 3.255-3.149.004V11.814l2.966-.012c-.007.874.052 1.752-.052 2.623.123-.099.173-.252.237-.391h0zm-16.65 2.487c.454-2.655 2.98-4.756 5.675-4.711 1.361-.013 2.694.512 3.738 1.373l.005-1.367 3.097.007.003 11.439-3.105.005.016-1.247c-.843.598-1.776 1.115-2.814 1.261-1.957.347-4.06-.431-5.334-1.952-1.115-1.302-1.634-3.121-1.282-4.807m5.071-1.764c-.766.169-1.472.642-1.872 1.322-.579.907-.571 2.145.019 3.045a2.86 2.86 0 0 0 2.582 1.342c1.529-.024 2.863-1.468 2.747-2.998-.009-1.724-1.805-3.102-3.475-2.711h0z" fill="#0b9444"/><path d="M14.227 3.382c.088-.043.181-.076.275-.102l.049.096c.213.446.507.845.756 1.272 1.465 2.512 2.286 5.421 2.203 8.336.017 1.107-.226 2.192-.342 3.287l-.057.005c-.7-1.554-1.601-3.023-2.675-4.347-1.364-1.777-3.079-3.261-4.949-4.485 1.365-1.579 2.956-2.97 4.739-4.061zm-1.741 9.301c.58-.245 1.135-.582 1.776-.639-.972 1.315-1.902 2.686-2.532 4.201-.947 1.981-1.492 4.143-1.704 6.326-1.875-.371-3.679-1.042-5.381-1.906 1.527-3.498 4.414-6.339 7.842-7.982z" fill="#23aa4a"/><path d="M14.551 3.376c4.134 2.501 7.268 6.565 8.746 11.157-1.934.901-4.008 1.499-6.129 1.737.116-1.095.359-2.18.342-3.287.082-2.915-.738-5.824-2.203-8.336-.248-.426-.543-.826-.756-1.272h0z" fill="#60bb46"/><path d="M5.583 14.344a20.56 20.56 0 0 1 3.905-6.901c1.87 1.224 3.586 2.708 4.949 4.485-.22.026-.439-.014-.657-.028l.069.147c-.741.149-1.436.457-2.129.752-2.467 1.074-4.69 2.727-6.363 4.841l-.655.848c.187-1.401.439-2.799.881-4.145h0z" fill="#8cc63f"/><path d="M17.169 16.271c2.121-.238 4.195-.837 6.129-1.737a19.23 19.23 0 0 1 .874 5.753c-4.207.065-8.394-1.293-11.84-3.689-.155-.113-.29-.249-.426-.382 1.726.183 3.477.26 5.208.06l.057-.005h0 0z" fill="#66bce1"/><path d="M10.025 22.571c.213-2.182.757-4.345 1.704-6.326l.101-.103.075.074.426.382c3.447 2.396 7.633 3.754 11.84 3.689-2.55 1.562-5.499 2.432-8.474 2.647-1.897.06-3.81.05-5.673-.362zm52.502 2.705h3.434c.68 0 1.187.028 1.521.085s.633.175.896.354.483.419.659.718.264.634.264 1.005a2 2 0 0 1-.325 1.107c-.217.336-.511.588-.882.756.523.152.926.412 1.207.779a2.07 2.07 0 0 1 .422 1.295 2.56 2.56 0 0 1-.272 1.14c-.181.369-.43.664-.744.885s-.702.356-1.163.407c-.289.031-.986.051-2.092.059h-2.924v-8.59zm1.734 1.43v1.986h1.137l1.26-.029c.297-.035.53-.138.7-.308s.255-.394.255-.671c0-.266-.073-.481-.22-.647s-.364-.267-.653-.302c-.172-.02-.666-.029-1.482-.029h-.996zm0 3.416v2.297h1.605l1.189-.053c.258-.047.468-.161.63-.343s.243-.425.243-.729a1.12 1.12 0 0 0-.187-.656 1.06 1.06 0 0 0-.542-.393c-.236-.082-.749-.123-1.538-.123h-1.4zm8.491 3.744h-1.646v-6.223h1.529v.885c.262-.418.497-.693.706-.826a1.3 1.3 0 0 1 .712-.199 2.09 2.09 0 0 1 1.084.311l-.51 1.436c-.277-.18-.535-.27-.773-.27-.23 0-.426.063-.586.19s-.286.356-.378.688-.138 1.027-.138 2.086v1.922zm2.713-3.199c0-.547.135-1.076.404-1.588a2.77 2.77 0 0 1 1.146-1.172c.495-.27 1.046-.404 1.655-.404.941 0 1.713.306 2.314.917s.902 1.384.902 2.317c0 .941-.304 1.722-.911 2.341s-1.372.929-2.294.929c-.57 0-1.114-.129-1.632-.387s-.911-.636-1.181-1.134-.404-1.104-.404-1.819zm1.688.088c0 .617.146 1.09.439 1.418s.654.492 1.084.492.79-.164 1.081-.492.437-.805.437-1.43c0-.609-.146-1.078-.437-1.406s-.651-.492-1.081-.492-.791.164-1.084.492-.439.801-.439 1.418z" fill="#1595d0"/><path d="M89.881 7.564h3.097v3.507h3.384V7.564h3.11v10.021h-3.11v-4.054h-3.384v4.054h-3.097V7.564zm13.358 5.017c0-1.636.456-2.91 1.367-3.821s2.181-1.367 3.808-1.367c1.668 0 2.953.448 3.855 1.343s1.354 2.15 1.354 3.763c0 1.171-.197 2.132-.592 2.881s-.963 1.334-1.709 1.75-1.673.626-2.785.626c-1.13 0-2.065-.18-2.807-.54s-1.341-.93-1.801-1.709-.69-1.754-.69-2.926zm3.097.014c0 1.012.188 1.738.564 2.181s.887.663 1.534.663c.665 0 1.181-.217 1.545-.649s.547-1.21.547-2.331c0-.943-.19-1.633-.571-2.068s-.896-.653-1.548-.653c-.624 0-1.126.221-1.504.663s-.567 1.173-.567 2.194zm11.021-5.031h4.072L123 13.662l1.559-6.098h4.07v10.021h-2.536V9.943l-1.954 7.643h-2.296l-1.95-7.643v7.643h-2.536V7.564zm15.341 0h8.299v2.14h-5.195v1.593h4.819v2.044h-4.819v1.976h5.346v2.27h-8.449V7.564zM89.857 24.001h2.941l1.059 5.61 1.55-5.61h2.931l1.554 5.602 1.061-5.602h2.926l-2.209 10.021h-3.037l-1.758-6.31-1.75 6.31h-3.037l-2.229-10.021zm17.255 0h3.104v10.021h-3.104V24.001zm7.44 0h7.656v2.153h-4.546v1.75h3.883v2.023h-3.883v4.095h-3.11V24.001zm11.547 0h3.104v10.021h-3.104V24.001z" fill="#df1900"/></svg>