<svg xmlns="http://www.w3.org/2000/svg" viewBox="0 0 144 144"><path d="m59.37 60.338-.075-.074-.071-1.151-.071-.071c.008-.12.008-.242 0-.362-.066-.415-.288-1.028-.288-1.442l-.074-.072-.072-.504-.07-.074a.715.715 0 0 0 0-.214l-.58-1.804a.43.43 0 0 0-.142-.217 2.38 2.38 0 0 0-.29-.72v-.143l-.215-.362v-.143c-.406-.647-.678-1.45-1.082-2.091l-.143-.143a2.159 2.159 0 0 0-.362-.579 1.444 1.444 0 0 0-.071-.216l-.65-.938c-.425-.6-.882-1.178-1.368-1.727l-2.2-2.2c-.568-.576-1.373-1.056-2.017-1.584-.365-.294-1.284-.708-1.585-1.01-.642-.4-1.442-.673-2.089-1.08h-.145c-.127-.077-.201-.145-.36-.216s-1.011-.328-1.082-.433a12.22 12.22 0 0 1-1.801-.576 1.481 1.481 0 0 0-.217 0 3.867 3.867 0 0 0-.863-.217l-.074-.071h-.288l-.072-.074h-.287l-.074-.071-.793-.072-.071-.071a6.685 6.685 0 0 0-1.08-.074l-.074-.071h-.938l-.071-.072h-2.597l-.071.072h-.864l-.074.07c-.19 0-.386-.018-.576 0a5.89 5.89 0 0 1-1.009.146l-.074.072h-.288l-.071.071h-.293l-.074.074h-.288l-.071.071a1.289 1.289 0 0 0-.288 0 2.55 2.55 0 0 1-.576.146c-.058.005-.25.143-.29.143a2.77 2.77 0 0 0-.721.216h-.214l-1.228.433-.864.36a2.893 2.893 0 0 0-.505.287h-.145l-1.659.866c-.034.021-.116.127-.142.146-.143.087-.444.203-.579.287l-1.08.721a17.25 17.25 0 0 0-2.163 1.73l-1.765 1.765-1.516 1.875c-.287.364-.71 1.204-1.009 1.513-.028.07-.052.143-.07.217-.014.026-.146.13-.146.145l-1.152 2.235v.132c-.076.124-.145.2-.216.359s-.328 1.011-.433 1.08a11.49 11.49 0 0 1-.505 1.585 1.481 1.481 0 0 0 0 .216c-.071.328-.287.806-.287 1.154l-.075.071v.288l-.07.072-.072.72-.072.072a6.495 6.495 0 0 0-.074 1.012l-.071.07v.65l-.071.072-.072 2.522.072.074v1.225l.071.072c-.013.433.01.867.071 1.297l.074.074v.359l.072.071a2.71 2.71 0 0 0 0 .362c.105.351.18.713.216 1.08l.072.072.07.504.075.074a.603.603 0 0 0 0 .216l.647 2.018.217.576c.057.13.129.25.216.362v.143c.084.174.18.343.288.504v.145l.578 1.154c.04.053.09.103.143.143.05.192.15.368.288.51.042.123.09.244.145.362l1.154 1.73c.357.502.74.985 1.151 1.442l1.696 1.764 1.876 1.585c.023.021.269.132.287.145.233.167.49.423.719.576l1.011.65 2.163 1.151h.143c.153.066.349.216.505.29s1.011.325 1.082.431c.69.16 1.364.378 2.018.65h.216c.183.077.378.125.576.142l.074.074h.288l.071.072h.288l.071.071h.29l.072.074c.286.045.575.069.864.071l.074.072h.504l.072.071h.65l.07.074 2.31.08.073-.072 2.163-.074.072-.071h.504l.071-.072h.362l.072-.07c.119.01.24.01.359 0a6.804 6.804 0 0 1 1.082-.217l.072-.074.504-.072.074-.071h.214l.074-.071c.071.01.143.01.214 0l1.371-.434 1.297-.504a2.02 2.02 0 0 0 .362-.216h.145l2.235-1.154a22.8 22.8 0 0 0 2.16-1.443l1.659-1.368 1.695-1.696a23.917 23.917 0 0 0 1.514-1.872l.792-1.154c.032-.045.045-.172.074-.217.167-.224.312-.467.43-.72l.146-.146c.213-.47.454-.926.72-1.368v-.145l.289-.576.071-.072c.032-.16.673-1.843.72-1.875a.99.99 0 0 1 0-.216c.097-.208.17-.426.217-.65l.072-.071a1.481 1.481 0 0 1 0-.217c.071-.327.29-.805.29-1.154l.071-.071.072-.647.071-.074v-.36l.074-.073v-.36l.072-.071v-.433l.071-.071a9.95 9.95 0 0 0 .074-1.585l.071-.071v-2.522l-.071-.075v-.863ZM47.328 46.83a3.21 3.21 0 0 1 .216-.507c.095-.122.203-.23.325-.322a.743.743 0 0 1 .288-.146h.216l.074-.071h.505l.071.071h.288l.071.074c.123.01.244.035.362.072.296.126.584.27.864.43.486.295.945.634 1.37 1.012l.83.83c.187.205.462.528.647.792.209.277.401.565.579.863.221.37.414.756.576 1.154l.216.65a.951.951 0 0 1 0 .214l.071.074v.504l.074.072-.074.578a2.757 2.757 0 0 1-.216.505 3.646 3.646 0 0 1-.264.264 2.284 2.284 0 0 1-.433.216c-.41.019-.82-.005-1.226-.071l-.058-.08h-.145l-.071-.071-.938-.43-1.08-.793-1.192-1.188-.576-.721-.866-1.442v-.156a1.461 1.461 0 0 1-.214-.36c-.071-.266-.137-.385-.216-.649a1.289 1.289 0 0 1 0-.288l-.074-.07v-1.01Zm-2.676 5.993c.09-.108.2-.198.325-.264.172-.003.343.022.507.074.154.135.287.293.394.467 0 .135.013.494-.072.579a.732.732 0 0 1-.396.264h-.066v.005c-.008 0-.301-.127-.367-.15a3.142 3.142 0 0 1-.325-.325v-.146l-.071-.071c.01-.146.034-.291.071-.433ZM28.714 42.376l.074-.071v-.325c.098 0 .188.034.264 0a9.222 9.222 0 0 1 1.083-.36l.071-.073c.37 0 1.075-.278 1.442-.36l.647-.07.074-.072.864-.074.074-.071h.43l.075-.074h.72l.072-.072h3.391l.071.072c.41-.009.82.016 1.226.074l.071.071.792.074.072.071h.288l.07.072h.291l.072.071h.272l.071.074.505.072.074.07c.247.044.488.116.718.217h.219c.34.158.693.283 1.056.373v.494l-2.342.07-.072.072h-.657l-.071.072c-.338 0-.676.023-1.01.074l-.074.071h-.287l-.072.071h-.287l-.072.074h-.287l-.075.072c-.17.002-.34.026-.504.071l-1.08.362-.687.34-.034-.052h.01a.445.445 0 0 0-.242-.146h-.146l-.071-.071h-.146l-.07-.071c-.37-.064-.722-.294-1.081-.362l-1.154-.288-.65-.071-.071-.074-1.01-.072-.073-.071H30.9l-.074-.071h-1.513l-.072-.074h-.528c-.034 0 0-.072 0-.109h.001Zm-.34 4.03.07-.073v-.719l.075-.074v-.72l.071-.072a5.59 5.59 0 0 1 .08-1.188c.845-.027 1.563.097 2.408.07l.071.072h.645l.074.074c.29 0 .578.024.864.072l.071.071c.216.01.436.037.65.074a17.6 17.6 0 0 1 1.082.288l1.08.359c.154.056.423.211.576.288h.29a.422.422 0 0 1 .215-.143h.14a.372.372 0 0 1 .216-.145c.294-.072.721-.288 1.01-.36l.866-.216c.095-.01.193-.01.287 0l.072-.071h.288l.07-.074c.31-.05.625-.074.939-.072l.074-.071h.567l.072-.074h.937l.072-.071h1.69l.373 3.499-.117-.04.01.008a9.3 9.3 0 0 0-1.225-.295l-.07-.072c-.434 0-1.031-.208-1.443-.29a2.72 2.72 0 0 0-.36 0l-.073-.072h-.36l-.07-.07a5.701 5.701 0 0 1-1.012-.146 3.868 3.868 0 0 0-.505 0l-.071-.072h-.721l-.072-.071h-1.075l-.074-.071H35.33l-.072.071h-1.082l-.072.071a8.863 8.863 0 0 0-1.3.072l-.07.074h-.439l-.071.071h-.36l-.073.071h-.36l-.07.072h-.284l-.074.074h-.287l-.072.071c-.219 0-.436.024-.65.072-.495.153-1.001.274-1.513.361l-.108.109v-.721ZM16.003 66.58l-.07-.074h-1.17a1.658 1.658 0 0 1-.093-.61l-.071-.074v-.504l-.074-.072v-.578l-.072-.071v-.864l-.071-.074V61.57l.071-.074v-.863l.072-.072v-.578l.074-.072a5.563 5.563 0 0 1 .07-.937l.072-.072v-.287l.072-.075v-.287l.074-.072c.01-.193.034-.385.071-.576a1.57 1.57 0 0 1 .18-.263 9.687 9.687 0 0 1 1.515-.072l.072-.074h1.009l.071-.071H19.6l.072-.072h2.64c.038 0 0 .072 0 .109-.115.121-.07.259-.07.433l-.072.071a8.448 8.448 0 0 1-.145 1.151c-.016.193 0 .386 0 .579l-.072.071v.793l-.074.074c.05.982-.071 1.946-.071 2.955l.071.071v1.366l.074.071c-.013.458.011.917.072 1.371l.071.071v.508l.074.07v.434l.072.071v.434l.07.07.072.793.074.072v.287l.108.108c-.057-.023-.036.013-.036.037a.537.537 0 0 1-.037.108c-.42-.465-1.017-.919-1.477-1.407l-1.048-1.173c-1.273.048-2.641-.071-3.962-.071Zm4.723 10.76c-.158.154-.087.13-.325.109a.551.551 0 0 1-.287-.125 6.695 6.695 0 0 1-.975-1.056 4.577 4.577 0 0 1-.433-.867 4.07 4.07 0 0 1-.071-.504.349.349 0 0 1 .105-.18c.114.058.05-.07.148-.07l.072.07h.142l.362.21.684.757.288.43.29.65c.01.192.01.384 0 .576Zm2.451 1.514c0 .053-.074-.071-.108-.108a5.894 5.894 0 0 1-1.115-.38v-.737l-.074-.074a2.732 2.732 0 0 0-.071-.505 5.041 5.041 0 0 0-.216-.576c-.12-.264-.29-.547-.433-.792a6.51 6.51 0 0 0-.576-.792 5.484 5.484 0 0 0-.832-.846c-.22-.171-.484-.316-.721-.504a5.876 5.876 0 0 0-.956-.365 1.8 1.8 0 0 1-.087-.528l-.074-.071v-.362l-.143-.143.108-.108c.217.006.433.03.647.071l.075.075c.121.008.242.031.359.07.247.106.488.226.72.36.412.251.798.541 1.155.866.374.372.723.77 1.043 1.189.174.219.335.541.504.792.106.248.227.488.362.721v.145a.43.43 0 0 1 .145.217v.143l.072.074c.02.197.069.391.143.575.01.096.01.193 0 .288l.074.074v1.231Zm2.38.436a.315.315 0 0 1-.106.182l-1.127-.304a6.32 6.32 0 0 0 .08-1.106l-.075-.072v-.578l-.071-.072v-.287l-.071-.072a3.294 3.294 0 0 0-.072-.504l-.29-.792-.072-.074-.433-.935-.576-.864-1.117-1.263-1.082-.863-1.08-.579-.65-.216h-.214l-.075-.072-.9-.063a5.099 5.099 0 0 0-.082-1.236h.637l.071.071c.242.008.483.032.721.072.304.103.539.2.864.29l.074.072.937.433 1.273.937 1.057 1.043.576.721.65 1.012.575 1.154.288.792.216.867c.064.38.087.765.074 1.151l.072.074a6.697 6.697 0 0 0-.072 1.08ZM27.311 53l-.071-.071-1.73-.864h-.145c-.547-.274-1.387-.528-1.85-.824a8.97 8.97 0 0 1-1.177 1.255c-.325.264-.655.55-1.01.792a6.188 6.188 0 0 1-.865.507c-.344.111-.724.27-1.08.36-.24.034-.483.034-.722 0l-.047-.059a.786.786 0 0 1-.29-.074 3.896 3.896 0 0 1-.468-.467.55.55 0 0 1-.074-.288l-.071-.071v-.29l-.072-.072a4.42 4.42 0 0 0 .072-.792l.071-.074.074-.502c.114-.077.156-.457.216-.578l.576-1.08c.275-.46.587-.896.938-1.3.4-.441.82-.862 1.263-1.26a9.27 9.27 0 0 1 1.067-.798l.866-.43.43-.146a.972.972 0 0 1 .217 0l.074-.071h.792l.071.071c.1.005.198.03.288.074.159.153.325.302.47.468.04.053.08.3.143.433v.935l-.072.074a1.26 1.26 0 0 1 0 .288l-.287.863a7.812 7.812 0 0 1-.505.938c.08.066.164.127.251.182.246.082.487.178.721.288h.145c.162.108.33.203.505.288h.148l.071.07 1.981.975c-.148.246-.293.457-.43.721-.04.056-.307.478-.344.529h-.14Zm16.483 23.97-.07.072c0 .97-.12 1.963-.075 2.884l-.071.072v.874l-.072.071v.721l-.071.072v.578l-.074.072c.003.323-.024.647-.08.966-.316.06-.882.301-1.18.367-.42.093-.753.204-1.154.288a1.715 1.715 0 0 1-.288 0l-.074.072-.647.074-.074.071c-.34.021-.677.069-1.01.143-.213.02-.432 0-.646 0l-.074.074h-1.08l-.072.071H35.54l-.069-.071h-1.08l-.072-.074a7.039 7.039 0 0 1-1.154-.072l-.071-.071h-.362l-.077-.08h-.362l-.07-.073-.65-.072-.072-.071a3.908 3.908 0 0 1-.863-.217 1.48 1.48 0 0 1-.217 0 5.74 5.74 0 0 0-1.191-.38 9.328 9.328 0 0 0-.143-1.386c-.02-.24 0-.481 0-.721l-.071-.072c.026-.665-.098-1.201-.074-1.875l-.071-.071v-1.284l-.072-.074v-1.043h.264l.074.071c.507 0 1.302.267 1.801.36.088.012.648.05.721.073.312-.25.761-1.212.999-1.584a9.358 9.358 0 0 0 1.584.074l.074.074h1.867l.074.071c.608-.134 1.561-.071 2.235-.071l.071-.074a8.13 8.13 0 0 0 1.455-.074c.317.544.666 1.043.986 1.584a6.05 6.05 0 0 0 .948-.216c.096-.008.192-.008.287 0l.074-.077h.217l.071-.074h.22l.07-.071h.217l.071-.072.505-.074.108-.108v.354h.002Zm2.09-19.89-.072.072a8.43 8.43 0 0 1-.143 1.154c-.015.166 0 .335 0 .502l-.074.074-.071 1.009-.071.071v.505l-.074.074v.504l-.072.072a9.651 9.651 0 0 1-.143 1.296c-.02.24 0 .481 0 .721l-.074.074v.576l-.07.072v.504l-.072.074-.074.792-.072.072a5.95 5.95 0 0 1-.071.65c-.069.31-.222.757-.288 1.08-.1.343-.222.681-.362 1.009a3.362 3.362 0 0 1-.216.361v.143c-.132.2-.32.592-.43.792-.172.28-.365.545-.579.793-.322.355-.675.68-1.057.972a3.9 3.9 0 0 1-.43.29 5.24 5.24 0 0 0-.721.36 4.362 4.362 0 0 0-.65.215 9.95 9.95 0 0 1-1.08.217c-.655.024-1.3 0-1.947 0l-.06-.066a5.976 5.976 0 0 1-.721-.074l-.071-.072a.744.744 0 0 1-.217 0 7.236 7.236 0 0 1-.874-.264 7.686 7.686 0 0 1-1.226-.65 16.31 16.31 0 0 1-1.011-.791A10.68 10.68 0 0 1 31.602 69c-.475-.565-.903-1.223-1.368-1.801-.28-.346-.602-.927-.866-1.297-.042-.06-.177-.148-.217-.219-.14-.248-.272-.399-.433-.647a3.553 3.553 0 0 1-.288-.576c-.079-.264-.047-.507-.155-.792.026-.03.058-.058.084-.085a1.634 1.634 0 0 1 0-.359.74.74 0 0 1 .288-.422c.214.139.419.292.613.457 1.04 1 1.968 2.089 3 3.069.092-.28.114-.579.063-.87a4.678 4.678 0 0 0-.359-.649c-1.011-.866-2.27-2.245-3.246-3.243l-.935-1.226a1.039 1.039 0 0 1-.216-.504v-.793l.071-.074a2.957 2.957 0 0 1 0-.216.598.598 0 0 1 .146-.288c.074-.072.159-.132.25-.18.254.148.496.317.721.505.41.394.82.721 1.226 1.08 1.339 1.176 2.588 2.517 3.93 3.698.05.045.095-.095.142-.142a2.204 2.204 0 0 0 0-.648 1.026 1.026 0 0 0-.19-.427l-2.198-2.055c-.905-.83-1.777-1.78-2.64-2.641a1.642 1.642 0 0 1-.217-.288.614.614 0 0 1-.074-.288l-.071-.074a1.91 1.91 0 0 0-.072-.647l.072-.074a1.865 1.865 0 0 1 .07-.648c.07-.134.166-.253.284-.348.092.05.18.105.264.166.604.42 1.183.877 1.73 1.371 1.15 1.13 2.548 2.187 3.747 3.244.182.203.375.396.579.578.119.068.228.153.325.251.023.024.047-.048.071-.071v-.58l-.071-.07a.744.744 0 0 0 0-.217 3.553 3.553 0 0 0-.288-.576l-.721-.938c-.145-.182-.354-.327-.507-.504l-1.514-1.801c-.232-.29-.49-.697-.72-1.01a1.08 1.08 0 0 1-.215-.433c-.023-.41 0-.82.072-1.225l.071-.071c.005-.1.03-.198.071-.29a1.54 1.54 0 0 1 .264-.265c.072.008.14.037.193.087.379.291.74.605 1.08.938l4.615 4.326c.351.314.65.7 1.009 1.01.536.419 1.042.876 1.513 1.367.128.119.274.216.433.288.171.003.341-.021.505-.071.297-.201.575-.43.83-.684a5.5 5.5 0 0 0 .432-.579c.18-.283.328-.745.505-1.009s.311-.544.504-.792c.17-.191.35-.372.542-.542.024-.023.156-.095.214-.142.165-.048.335-.072.507-.072l.071-.074c.214.045.43.069.65.074.105-.013.188.027.105.109Zm.28-5.05-.075-.073c-.015-.042 0-.558 0-.647.109-.175.24-.333.397-.468a.779.779 0 0 1 .362-.074c.034 0 .047-.047.07-.071s.051.047.075.071c.17 0 .34.025.504.074.278.198.531.428.756.684.088.161.16.33.216.505.013.192.013.384 0 .576-.122.206-.28.39-.467.541a.355.355 0 0 1-.216.071 2.571 2.571 0 0 1-.288 0l-.074-.07h-.217l-.287-.146-.684-.684a.773.773 0 0 1-.072-.288Zm8.876 20.99a7.148 7.148 0 0 1-.362.792 2.074 2.074 0 0 1-.214.288 2.47 2.47 0 0 1-.612.541c-.12.034-.24.058-.362.071-.357.465-.721.967-1.117 1.405L50.93 77.56c.027.267 0 .536-.07.793-.12.248-.25.454-.363.718a.952.952 0 0 1-.214.288c-.325.327-.63.67-.974.974a5.687 5.687 0 0 1-.938.576l-.72.216a1.097 1.097 0 0 1-.505-.07l-.354-.334a1.459 1.459 0 0 1-.071-.72c.002-.027.322-.806.361-.864.11-.176.23-.344.36-.505.23-.274.483-.528.758-.758.155-.113.53-.335.684-.47v-.647l.071-.071c0-.697.122-1.403.069-2.055a1.277 1.277 0 0 1-.608-.146 2.021 2.021 0 0 1-.398-.396.603.603 0 0 1-.072-.288l-.071-.071a3.5 3.5 0 0 1 .071-.938c.087-.256.21-.498.362-.72a6 6 0 0 1 .684-.685c.226-.148.468-.27.721-.361.235-.074.487-.074.721 0a.774.774 0 0 1 .36.216c.136.188.245.394.324.613.01.204.01.408 0 .612h.264l.071.072c.389.02.774.068 1.154.145.19.016.383 0 .576 0l.072.072h.528c.107-.193.248-.364.417-.505a1.98 1.98 0 0 1 .362-.216h.214l.264.264c.037.237.037.483 0 .72v.002Zm3.111-9.162-.074.074v.504l-.071.071a5.51 5.51 0 0 1-.071.721l-.075.072c0 .071.03.15 0 .216-.126.325-.155.61-.287.938-.167.42-.359.829-.576 1.225a4.224 4.224 0 0 1-1.057 1.26c-.063.063-.3.167-.433.29l-.576.217c-.24.016-.48.016-.72 0l-.711-.29c-.132-.185-.954-.856-1.189-1.19a6.235 6.235 0 0 1-.576-1.08l-.361-1.009-.217-.866a7.984 7.984 0 0 1-.071-.866l-.072-.071v-.721l-.074-.072v-1.37l.074-.072c-.015-.41.009-.821.072-1.225l.071-.072v-.361l.072-.072c.018-.199.067-.394.145-.578v-.214l.362-1.01c.116-.3.26-.59.43-.866.12-.169.156-.266.288-.433a5.92 5.92 0 0 1 .83-.83c.202-.143.42-.263.649-.359a.73.73 0 0 1 .216 0l.072-.07c.238-.046.482-.046.72 0 .2.046.394.118.576.213.149.09.294.187.434.29.32.26.597.563.83.901.25.39.467.8.649 1.225l.359 1.01c.063.195.053.343.145.575.013.096.013.193 0 .288l.071.074v.36l.072.07v.508l.074.071v2.526Z" fill="#302e7c"/><path d="M44.252 47.09Zm3.15.82c-.01.095-.01.192 0 .287l.217.65c.053.13.126.25.214.359v.156l.866 1.442.576.72 1.191 1.19 1.08.791.938.431.072.071h.145l.058.08c.405.066.816.09 1.225.071.15-.056.296-.13.434-.216.013 0 .245-.24.263-.264.09-.16.162-.33.217-.505a6.21 6.21 0 0 0 .074-.578l-.074-.072v-.504l-.071-.074a.951.951 0 0 0 0-.214l-.217-.65a8.214 8.214 0 0 0-.576-1.154 9.437 9.437 0 0 0-.578-.863 9.005 9.005 0 0 0-.648-.793l-.829-.83a9.528 9.528 0 0 0-1.37-1.01 8.23 8.23 0 0 0-.864-.431 1.688 1.688 0 0 0-.362-.072l-.072-.074h-.287l-.072-.071h-.504l-.074.071a2.907 2.907 0 0 0-.217 0 .74.74 0 0 0-.287.146c-.122.092-.23.2-.325.322a3.16 3.16 0 0 0-.217.507c-.026.335 0 .671 0 1.01l.074.07Zm1.223-.341a.813.813 0 0 1 .071-.362c.082-.094.17-.183.264-.264.3-.111.623-.137.935-.074.304.113.594.259.867.433l.576.433c.393.351.766.724 1.117 1.117.203.232.396.472.578.721l.505.793c.024.031.248.493.288.576l.145.433c.008.095.008.192 0 .287l.071.074v.36l-.071.074a.83.83 0 0 1-.074.287c-.09.125-.2.235-.325.325a.468.468 0 0 1-.214.072 2.545 2.545 0 0 1-.444.013l-.074-.072a2.62 2.62 0 0 1-.43-.074c-.3-.148-.59-.316-.867-.504a12.59 12.59 0 0 1-1.55-1.477 5.256 5.256 0 0 1-.505-.65l-.359-.575c-.13-.203-.214-.483-.362-.72-.066-.122-.058-.265-.142-.434a5.053 5.053 0 0 0-.074-.72l.074-.072Zm2.055 25.986c-.185.245-.39.475-.613.686-.065.38-.09.766-.074 1.152l-.071.074v.647l-.072.074c.013.28-.015.559-.084.83.301-.019.605.005.9.071a.358.358 0 0 0 .143-.071l.758-.759 1.297-1.513.362-.505c.01-.13.01-.262 0-.393l-2.546-.293ZM23.588 46.882a1.24 1.24 0 0 0-.65-.071l-.071.071h-.217a.353.353 0 0 0-.216.145h-.153a4.055 4.055 0 0 1-.579.36c-.394.299-.767.624-1.117.974a9.805 9.805 0 0 0-.869 1.001 6.993 6.993 0 0 0-.515.729l-.288.504c-.263.46-.388.985-.359 1.514l.072.074a.87.87 0 0 0 .071.288l.264.25c.31.057.624.08.938.067l.792-.362.866-.65.827-.83.938-1.217.433-.792.084-.288.074-.071c.043-.214.066-.432.072-.65l.071-.071c0-.172-.024-.34-.071-.505a1.335 1.335 0 0 0-.397-.47Zm32.245 13.88-1.476-1.477c-.037 0-.109-.037-.109 0v.9l.072.072c0 1.783.087 3.719-.072 5.48-.005.053.013.2.053.164.581-.584 1.194-1.147 1.749-1.751.42-.457.781-1.102 1.177-1.54a8.828 8.828 0 0 0-.24-.407c-.362-.462-.782-1.027-1.154-1.442ZM39.904 80.95a.99.99 0 0 0 0-.217c-.08-.2-.177-.39-.288-.576a3.78 3.78 0 0 0-.612-.686 9.279 9.279 0 0 0-.938-.576 2.874 2.874 0 0 0-.576-.146l-.074-.07a4.964 4.964 0 0 0-1.009-.072l-.143-.143-.145.143a4.05 4.05 0 0 0-1.01.071 2.156 2.156 0 0 0-.421.14c-.243.148-.497.23-.721.36a4.5 4.5 0 0 0-.972.9 2.67 2.67 0 0 0-.288.507 1.198 1.198 0 0 0-.074.359l-.071.071v.867c.058.208.155.404.287.575.149.206.327.388.529.542l.433.288c.087.063.605.221.647.287.145.016.29.04.433.072l.072.074 1.458.14.074-.074h.72l.072-.072a2.758 2.758 0 0 0 1.009-.216c.273-.127.538-.271.792-.433a3.33 3.33 0 0 0 .528-.528c.117-.157.214-.327.288-.508.083-.33.107-.67.071-1.009l-.07-.071Zm-1.373.787a.522.522 0 0 1-.143.287l-.613.613a.96.96 0 0 1-.433.216 2.685 2.685 0 0 1-.433.074l-.071.072h-1.155l-.044-.072a1.523 1.523 0 0 1-.36-.074 2.67 2.67 0 0 1-.507-.287 3.954 3.954 0 0 1-.612-.613c-.072-.116-.05-.15-.072-.288l-.071-.071a3.883 3.883 0 0 1 0-.433.43.43 0 0 0 .143-.217V80.8a3.77 3.77 0 0 1 .528-.613l.433-.288c.2-.05.392-.122.576-.214h.433l.071-.074c.316.025.63.074.938.146.277.118.542.262.792.43.204.179.382.385.529.613.047.087.068.489.148.573l-.077.077c.01.095.01.192 0 .288Z" fill="#302e7c"/><path d="m107.118 37.57-1.344-.672-1.345.672.213-1.486-1.026-1.061 1.45-.248.672-1.309.708 1.31 1.45.247-1.026 1.06.248 1.487ZM87.874 57.84l-1.344-.673-1.344.672.212-1.486-1.026-1.06 1.45-.248.673-1.31.707 1.31 1.45.247-1.025 1.061.247 1.486Zm38.983 0-1.344-.673-1.345.672.213-1.486-1.026-1.06 1.45-.248.672-1.31.708 1.31 1.45.247-1.026 1.061.248 1.486Z" fill="#eada23"/><path d="M122.223 62.862c-2.158-2.122-4.776-3.254-7.641-3.254-.319 0-.672 0-.99.035l-.46.036a.32.32 0 0 0-.177.035c-3.644.53-5.59 2.865-6.792 4.846-2.406-3.113-5.2-4.81-8.101-4.917-.106 0-.212-.035-.318-.035-.496 0-1.062.035-1.628.07-.46 0-.884.036-1.273.071-.495.071-.955.177-1.309.319-.318.106-.601.177-.778.177a.666.666 0 0 1-.283-.071c-.708-.354-1.486-.39-2.017-.39-.247 0-.53 0-.778.036-.212 0-.424.036-.637.036h-.212c-1.627 0-2.724 1.096-2.724 2.794v.85a6.028 6.028 0 0 0-.92-1.204 5.62 5.62 0 0 0-3.997-1.662H80.8v-1.91a5.616 5.616 0 0 0-5.624-5.625h-3.149a3.08 3.08 0 0 0-3.077 3.078v4.492h-.425a5.624 5.624 0 0 0-5.624 5.554c-.036 1.521.566 2.936 1.627 4.033a5.68 5.68 0 0 0 3.997 1.662h.496c.035 3.22.813 5.872 2.299 7.924 1.203 1.663 2.83 2.972 4.81 3.927 1.946.955 4.069 1.415 6.297 1.415.213 0 .566 0 1.026-.036h8.172a5.69 5.69 0 0 0 3.82-1.485c2.158-1.45 2.158-4.387 2.158-5.377V71.6c0-.425.035-.708.106-.92.106-.035.319-.07.566-.07s.46.035.566.07c.106.036.212.07.212.495v6.439c0 1.238.107 2.582 1.026 3.997.955 1.521 2.547 2.547 4.316 2.688.39.071.814.106 1.203.106A6.401 6.401 0 0 0 112 78.003v-6.65c0-.567.177-.92.39-1.027.035 0 .07-.07.141-.07.106 0 .39.106.566.177.035.141.07.424.07.92v6.72c0 3.149 1.416 5.448 3.821 6.156.53.141 1.062.247 1.628.247a6.401 6.401 0 0 0 6.402-6.403v-7.428c0-3.36-.955-5.979-2.794-7.783Zm1.273 15.176a4.891 4.891 0 0 1-4.881 4.882c-.425 0-.814-.071-1.203-.177-1.875-.566-2.724-2.441-2.724-4.705v-6.721c0-.884-.106-1.521-.318-1.84-.213-.353-1.239-.778-1.84-.778-.354 0-.707.106-.99.319-.602.424-1.026 1.238-1.026 2.299v6.686a4.891 4.891 0 0 1-4.882 4.881c-.354 0-.672-.035-.99-.106a4.254 4.254 0 0 1-3.255-1.98c-.672-1.062-.778-2.088-.778-3.22v-6.473c0-.885-.354-1.628-1.238-1.946-.283-.106-.637-.141-1.026-.141-.672 0-1.38.176-1.769.566-.035.035-.07.106-.106.141-.212.46-.318 1.061-.318 1.804v6.686c0 1.91-.39 3.467-1.592 4.174-.743.708-1.733 1.167-2.865 1.167h-8.207l-.99.036c-1.982 0-3.892-.425-5.625-1.274-1.77-.849-3.184-2.016-4.245-3.466-1.344-1.84-2.017-4.316-2.017-7.358V70.29h-2.087c-2.3 0-4.139-1.875-4.103-4.139a4.092 4.092 0 0 1 4.103-4.032h2.017v-6.014a1.57 1.57 0 0 1 1.556-1.557h3.148a4.106 4.106 0 0 1 4.104 4.104v3.467h1.91a4.106 4.106 0 0 1 4.104 4.103 4.106 4.106 0 0 1-4.104 4.103H79.49c0 1.698.142 3.184.708 3.82.601.638 1.662.956 3.219.956l4.21.035-.071-1.202.07-11.32c0-.85.39-1.274 1.203-1.274h.212c.46 0 .956-.035 1.45-.035s.956.035 1.345.248c.354.176.672.212.955.212.814 0 1.486-.425 2.264-.495.39-.036.814-.071 1.238-.071.495-.071.99-.071 1.521-.071.39 0 .779.035 1.168.106 2.264.39 4.103 1.946 5.447 3.538.319.353.602.707.85 1.06.035.072.105.107.14.178.32.353.638.53.956.53.318 0 .601-.177.814-.566.247-.46.53-.92.813-1.344 1.168-1.733 2.653-2.9 4.74-3.325l.531-.106h.106c.425-.071.85-.071 1.274-.071 2.653 0 4.846 1.132 6.58 2.83 1.556 1.521 2.334 3.75 2.334 6.65l-.07 7.429Zm-37.39-8.914v4.563h-2.618c-1.557 0-2.017-.354-2.123-.46-.035-.07-.177-.354-.283-1.273h.177c2.052 0 3.856-1.168 4.846-2.83Z" fill="#fff"/><path d="M121.161 63.959c-1.98-1.946-4.598-3.148-7.817-2.724-.036 0-.071 0-.106.036-2.901.424-4.67 2.122-6.085 4.775-.389.778-1.132.743-1.733.035-.036-.07-.106-.106-.142-.176-1.627-2.194-4.138-4.705-7.464-4.705-.495 0-1.026.035-1.52.07-.425 0-.814.036-1.239.071-1.061.106-1.98.885-3.219.283-.814-.389-1.946-.177-2.9-.177-.85-.035-1.239.39-1.239 1.274l-.07 11.32s.035.53.035 1.202l3.997.036c2.229 0 4.033 1.804 4.068 4.033v.212c0 1.167-.46 2.228-1.238 2.971 1.203-.743 1.592-2.264 1.592-4.174V71.6c0-.708.106-1.344.318-1.804.036-.036.071-.106.106-.142.637-.636 2.017-.672 2.795-.424.92.283 1.238 1.061 1.274 1.945v6.474c0 1.132.106 2.158.778 3.219a4.254 4.254 0 0 0 3.254 1.981c.319.07.637.106.99.106a4.891 4.891 0 0 0 4.882-4.882v-6.72c0-1.062.425-1.876 1.026-2.3.283-.212.637-.318.99-.318.602 0 1.593.424 1.805.778s.354.955.354 1.84v6.72c0 2.264.849 4.14 2.723 4.705a4.1 4.1 0 0 0 1.203.177 4.891 4.891 0 0 0 4.882-4.882v-7.428c0-2.936-.778-5.165-2.3-6.686Z" fill="#0946b9"/><path d="m87.733 78.038-.071-2.83-4.21-.035c-1.556 0-2.653-.319-3.219-.955-.601-.637-.707-2.123-.707-3.82h1.733a4.106 4.106 0 0 0 4.104-4.104 4.106 4.106 0 0 0-4.104-4.104h-1.91v-3.466a4.106 4.106 0 0 0-4.104-4.104h-3.148a1.57 1.57 0 0 0-1.556 1.557v6.013h-2.017c-2.228 0-4.068 1.804-4.103 4.033-.036 2.3 1.804 4.139 4.103 4.139h2.017v1.203c0 3.042.672 5.518 2.016 7.357 1.061 1.45 2.476 2.583 4.245 3.432a12.835 12.835 0 0 0 5.624 1.273c.213 0 .566 0 1.026-.035h8.207c1.132 0 2.123-.46 2.866-1.168-.496.283-1.097.46-1.875.46-2.724.071-4.917-2.122-4.917-4.846Z" fill="#e12519"/><path d="M95.727 79.488v-.212c-.035-2.228-1.84-4.033-4.068-4.033l-3.997-.035.07 2.83a4.891 4.891 0 0 0 4.882 4.882c.779 0 1.415-.177 1.875-.46a3.948 3.948 0 0 0 1.238-2.972Z" fill="#242476"/><path d="m120.312 53.842-6.438.212c-.177-.778-.46-1.556-.849-2.228l4.351-5.66-.778-2.724-2.724.283-3.148 5.377a8.517 8.517 0 0 0-3.078-1.45l.354-6.156-2.158-1.84-2.087 1.77.39 6.155a8.518 8.518 0 0 0-2.937 1.167l-4.103-4.599-2.83.248-.248 2.724 4.67 4.103a7.774 7.774 0 0 0-1.097 2.618l-6.084-.177-1.698 2.158 1.875 2.122 5.836-.53c.106.495.248.99.425 1.45 2.9.106 5.695 1.804 8.1 4.917 1.168-1.98 3.114-4.316 6.792-4.846.036 0 .107-.036.177-.036.142-.035.319-.035.46-.035a5.58 5.58 0 0 0 .39-1.309l6.225.566L121.975 56l-1.663-2.158Z" fill="#eada23"/><path d="M6.727 28.625h130.547v84.944H6.727z" fill="none" stroke="#662d91" stroke-miterlimit="10" stroke-width="4"/><path d="M14.439 99.956V88.935h4.63v11.01c0 1.44 1.235 2.396 2.546 2.396 1.3 0 2.567-.978 2.567-2.396v-11.01h4.63v11.021c0 3.975-3.223 6.778-7.187 6.778s-7.186-2.803-7.186-6.778Zm32.194-11.043v17.51h-1.46l-8.906-8.626v8.465H31.67v-17.5h1.483l8.873 8.594v-8.443h4.608Zm14.234 13.02v4.318H49.64V88.935h4.598v12.998h6.628Zm1.955-12.998h4.597v17.316h-4.597V88.935Zm13.416 14.383 2.783-2.728c.72 1.063 2.062 1.708 3.512 1.708.978 0 1.934-.355 1.934-1.064 0-.891-1.773-1.675-3.47-2.427-2.191-.946-4.071-2.385-4.071-4.995 0-2.998 2.846-5.135 6.134-5.135 2.642 0 4.705 1.246 5.381 2.954l-2.653 2.556c-.516-.913-1.848-1.31-2.675-1.31-.945 0-1.622.483-1.622 1.074 0 .795 1.225 1.053 3.094 1.837 2.707 1.139 4.5 2.793 4.5 5.35 0 3.298-3.071 5.35-6.541 5.35-2.847 0-5.436-1.258-6.306-3.17Zm33.516-14.545v17.478h-4.598v-6.864l-4.662 6.574h-.032l-4.673-6.574v6.864h-4.598V88.773h1.848l7.434 10.184 7.433-10.184h1.848Zm2.105 14.545 2.783-2.728c.72 1.063 2.062 1.708 3.512 1.708.978 0 1.934-.355 1.934-1.064 0-.891-1.773-1.675-3.47-2.427-2.191-.946-4.071-2.385-4.071-4.995 0-2.998 2.847-5.135 6.134-5.135 2.642 0 4.705 1.246 5.382 2.954l-2.654 2.556c-.515-.913-1.847-1.31-2.675-1.31-.945 0-1.622.483-1.622 1.074 0 .795 1.225 1.053 3.094 1.837 2.707 1.139 4.501 2.793 4.501 5.35 0 3.298-3.072 5.35-6.542 5.35-2.847 0-5.436-1.258-6.306-3.17Z" fill="#662d91"/></svg>