<svg xmlns="http://www.w3.org/2000/svg" width="192" height="192" viewBox="0 0 144 144" xmlns:v="https://vecta.io/nano"><path d="M6.727 28.625h130.547v84.944H6.727z" fill="none" stroke="#000" stroke-miterlimit="10" stroke-width="4"/><path d="M49.145 81.909c-4.382 0-7.687-3.129-7.687-7.278V63.609a.5.5 0 0 1 .5-.5h4.63a.5.5 0 0 1 .5.5V74.62c0 1.187 1.04 1.896 2.046 1.896.994 0 2.067-.725 2.067-1.896V63.609a.5.5 0 0 1 .5-.5h4.63a.5.5 0 0 1 .5.5v11.022c0 4.149-3.305 7.278-7.687 7.278zm-6.187-17.8a.5.5 0 0 0-.5.5v10.022c0 3.579 2.875 6.278 6.687 6.278s6.687-2.699 6.687-6.278V64.609a.5.5 0 0 0-.5-.5h-2.63a.5.5 0 0 0-.5.5V74.62c0 1.788-1.592 2.896-3.067 2.896-1.497 0-3.046-1.083-3.046-2.896V64.609a.5.5 0 0 0-.5-.5h-2.63zM74.29 81.598h-1.654c-.094 0-.184-.037-.252-.102l-7.483-7.249c-.23-.223-.614-.06-.614.26v6.568c0 .2-.162.362-.362.362h-4.873c-.2 0-.362-.162-.362-.362V63.299c0-.2.162-.362.362-.362h1.676c.094 0 .184.037.252.102l7.451 7.217c.23.223.614.06.614-.26V63.45c0-.2.162-.362.362-.362h4.884c.2 0 .362.162.362.362v17.786c0 .2-.162.362-.362.362zm-1.396-1h.758V64.45c0-.2-.162-.362-.362-.362h-2.884c-.2 0-.362.162-.362.362v7.906c0 .32-.384.483-.614.26l-8.962-8.679h-.78v16.137c0 .2.162.362.362.362h2.873c.2 0 .362-.162.362-.362v-7.929c0-.32.384-.483.614-.26l8.994 8.712zm15.539.828h-11.32c-.25 0-.453-.203-.453-.453V63.561c0-.25.203-.453.453-.453h4.693c.25 0 .453.203.453.453v12.093c0 .25.203.453.453.453h5.723c.25 0 .453.203.453.453v4.413c0 .25-.203.453-.453.453zm-10.32-1h9.32c.25 0 .453-.203.453-.453V77.56c0-.25-.203-.453-.453-.453H81.71c-.25 0-.453-.203-.453-.453V64.561c0-.25-.203-.453-.453-.453h-2.693c-.25 0-.453.203-.453.453v15.412c0 .25.203.453.453.453zm16.857 1h-4.66a.47.47 0 0 1-.469-.469V63.578a.47.47 0 0 1 .469-.469h4.66a.47.47 0 0 1 .469.469v17.379a.47.47 0 0 1-.469.469zm-3.66-1h2.66a.47.47 0 0 0 .469-.469V64.578a.47.47 0 0 0-.469-.469h-2.66a.47.47 0 0 0-.469.469v15.379a.47.47 0 0 0 .469.469z" fill="#662d91"/><path d="M23.211 35.639h-5.983c-2.669 0-4.833 2.164-4.833 4.833v13.553c0 .223.181.403.403.403H23.3a7.92 7.92 0 0 0 7.915-7.915v-2.868c.002-4.42-3.58-8.005-8.001-8.007h-.003zm3.5 10.741c0 1.924-1.559 3.483-3.483 3.483h-4.406l-3.563 1.669 1.7-2.602v-8.414c0-.223.181-.403.403-.403h6.046c1.824 0 3.303 1.479 3.303 3.303v2.963zm11.062 8.046H34.19a.46.46 0 0 1-.46-.46V36.098a.46.46 0 0 1 .46-.46h3.584a.46.46 0 0 1 .46.46v17.87a.46.46 0 0 1-.46.457h0zm19.208-18.398v3.633c0 .223-.181.403-.403.403H51.53c-.222 0-.403.18-.403.403v13.558a.4.4 0 0 1-.402.403h-3.718c-.223 0-.403-.181-.403-.403h0V40.474c0-.222-.18-.403-.403-.403h-5.048c-.223 0-.403-.181-.403-.403v-3.633c.001-.222.181-.403.403-.403h15.426c.221 0 .401.178.403.399v-.003h0zm10.523-.392h-.124c-5.189 0-9.395 4.206-9.395 9.395v6.984a2.41 2.41 0 0 0 2.41 2.41h7.109c5.189 0 9.395-4.206 9.395-9.395h0c-.002-5.188-4.207-9.392-9.395-9.392v-.003zm4.767 9.333c.001 2.322-1.628 4.325-3.902 4.796s-4.565-.72-5.486-2.852-.218-4.616 1.684-5.949 4.477-1.146 6.166.446l3.251-1.271-2.199 2.686a4.87 4.87 0 0 1 .486 2.146zm5.989 44.744h-5.983c-2.669 0-4.833 2.164-4.833 4.833v13.553c0 .223.181.403.403.403h10.502a7.92 7.92 0 0 0 7.915-7.915v-2.868c.002-4.42-3.58-8.005-8.001-8.007h-.003zm3.5 10.741c0 1.924-1.559 3.483-3.483 3.483h-4.406l-3.563 1.669 1.7-2.602V94.59c0-.223.181-.403.403-.403h6.046c1.824 0 3.303 1.479 3.303 3.303v2.963zm11.062 8.046h-3.584a.46.46 0 0 1-.46-.46V90.173a.46.46 0 0 1 .46-.46h3.584a.46.46 0 0 1 .46.46v17.87a.46.46 0 0 1-.46.457h0zm19.208-18.398v3.633c0 .223-.181.403-.403.403h-5.048c-.222 0-.403.18-.403.403v13.558a.4.4 0 0 1-.402.403h-3.718c-.223 0-.403-.181-.403-.403h0V94.548c0-.222-.18-.403-.403-.403h-5.048c-.223 0-.403-.181-.403-.403v-3.633c.001-.222.181-.403.403-.403h15.426c.221 0 .401.178.403.399v-.003h0zm10.523-.392h-.124c-5.189 0-9.395 4.206-9.395 9.395v6.984a2.41 2.41 0 0 0 2.41 2.41h7.109c5.189 0 9.395-4.206 9.395-9.395h0c-.002-5.188-4.207-9.392-9.395-9.392v-.003zm4.767 9.333c.001 2.322-1.628 4.325-3.902 4.796s-4.565-.72-5.486-2.852-.218-4.616 1.684-5.949 4.477-1.146 6.166.446l3.251-1.271-2.199 2.686a4.87 4.87 0 0 1 .486 2.146z" fill="#ce1126"/><path d="M54.23 108.38v-4.33h-35.8l-1.56-.01.11-46.41h3l-.1 43.42h34.35v-4.33l10.11 5.83-10.11 5.83zm36.059-71.783v4.33h35.8l1.56.01-.11 46.41h-3l.1-43.42h-34.35v4.33l-10.11-5.83 10.11-5.83z" fill="#662d91"/></svg>