<svg xmlns="http://www.w3.org/2000/svg" viewBox="0 0 144 144"><defs><radialGradient id="a" cx="257.468" cy="-553.229" r="7.187" fx="257.468" fy="-553.229" gradientTransform="matrix(-11.74667 3.31284 2.38674 8.46291 4481.166 3895.82)" gradientUnits="userSpaceOnUse"><stop offset="0" stop-color="#ff005f"/><stop offset="1" stop-color="#fc01d8"/></radialGradient><radialGradient id="b" cx="220.271" cy="-419.077" r="7.187" fx="220.271" fy="-419.077" gradientTransform="matrix(0 -15.24731 -16.17708 0 -6739.479 3508.885)" gradientUnits="userSpaceOnUse"><stop offset="0" stop-color="#fc0"/><stop offset=".124" stop-color="#fc0"/><stop offset=".567" stop-color="#fe4a05"/><stop offset=".694" stop-color="#ff0f3f"/><stop offset="1" stop-color="#fe0657" stop-opacity="0"/></radialGradient><radialGradient id="c" cx="273.679" cy="-332.267" r="8.923" fx="273.679" fy="-332.267" gradientTransform="matrix(2.54898 -4.39191 -5.71779 -3.31849 -2521.806 237.195)" gradientUnits="userSpaceOnUse"><stop offset="0" stop-color="#fc0"/><stop offset="1" stop-color="#fc0" stop-opacity="0"/></radialGradient><radialGradient id="d" cx="155.751" cy="73.902" r="9.209" fx="155.751" fy="73.902" gradientTransform="matrix(-9.06672 2.55304 .86982 3.08902 1370.015 -617.836)" gradientUnits="userSpaceOnUse"><stop offset="0" stop-color="#780cff"/><stop offset="1" stop-color="#820bff" stop-opacity="0"/></radialGradient></defs><path d="m72.161 2.501-38.665.165c-5.88.489-9.54 1.415-13.527 3.4-3.072 1.526-5.495 3.295-7.886 5.775-4.356 4.522-6.995 10.085-7.95 16.698-.465 3.21-.6 3.865-.628 20.264v22.309l.17 38.64c.475 5.724 1.372 9.325 3.272 13.264 3.632 7.54 10.568 13.201 18.74 15.313 2.83.729 5.955 1.13 9.966 1.32 1.7.074 19.025.127 36.36.127l36.33-.106c4.645-.219 7.342-.581 10.325-1.352a28.738 28.738 0 0 0 18.74-15.344c1.863-3.844 2.808-7.583 3.235-13.007.093-1.183.132-20.041.132-38.874l-.135-38.841c-.432-5.513-1.378-9.22-3.301-13.138-1.578-3.207-3.33-5.602-5.875-8.05-4.541-4.34-10.095-6.98-16.712-7.934-3.206-.464-3.845-.6-20.252-.63l-22.339.001Z" fill="url(#a)"/><path d="m72.161 2.501-38.665.165c-5.88.489-9.54 1.415-13.527 3.4-3.072 1.526-5.495 3.295-7.886 5.775-4.356 4.522-6.995 10.085-7.95 16.698-.465 3.21-.6 3.865-.628 20.264v22.309l.17 38.64c.475 5.724 1.372 9.325 3.272 13.264 3.632 7.54 10.568 13.201 18.74 15.313 2.83.729 5.955 1.13 9.966 1.32 1.7.074 19.025.127 36.36.127l36.33-.106c4.645-.219 7.342-.581 10.325-1.352a28.738 28.738 0 0 0 18.74-15.344c1.863-3.844 2.808-7.583 3.235-13.007.093-1.183.132-20.041.132-38.874l-.135-38.841c-.432-5.513-1.378-9.22-3.301-13.138-1.578-3.207-3.33-5.602-5.875-8.05-4.541-4.34-10.095-6.98-16.712-7.934-3.206-.464-3.845-.6-20.252-.63l-22.339.001Z" fill="url(#b)"/><path d="m72.161 2.501-38.665.165c-5.88.489-9.54 1.415-13.527 3.4-3.072 1.526-5.495 3.295-7.886 5.775-4.356 4.522-6.995 10.085-7.95 16.698-.465 3.21-.6 3.865-.628 20.264v22.309l.17 38.64c.475 5.724 1.372 9.325 3.272 13.264 3.632 7.54 10.568 13.201 18.74 15.313 2.83.729 5.955 1.13 9.966 1.32 1.7.074 19.025.127 36.36.127l36.33-.106c4.645-.219 7.342-.581 10.325-1.352a28.738 28.738 0 0 0 18.74-15.344c1.863-3.844 2.808-7.583 3.235-13.007.093-1.183.132-20.041.132-38.874l-.135-38.841c-.432-5.513-1.378-9.22-3.301-13.138-1.578-3.207-3.33-5.602-5.875-8.05-4.541-4.34-10.095-6.98-16.712-7.934-3.206-.464-3.845-.6-20.252-.63l-22.339.001Z" fill="url(#c)"/><path d="m72.161 2.501-38.665.165c-5.88.489-9.54 1.415-13.527 3.4-3.072 1.526-5.495 3.295-7.886 5.775-4.356 4.522-6.995 10.085-7.95 16.698-.465 3.21-.6 3.865-.628 20.264v22.309l.17 38.64c.475 5.724 1.372 9.325 3.272 13.264 3.632 7.54 10.568 13.201 18.74 15.313 2.83.729 5.955 1.13 9.966 1.32 1.7.074 19.025.127 36.36.127l36.33-.106c4.645-.219 7.342-.581 10.325-1.352a28.738 28.738 0 0 0 18.74-15.344c1.863-3.844 2.808-7.583 3.235-13.007.093-1.183.132-20.041.132-38.874l-.135-38.841c-.432-5.513-1.378-9.22-3.301-13.138-1.578-3.207-3.33-5.602-5.875-8.05-4.541-4.34-10.095-6.98-16.712-7.934-3.206-.464-3.845-.6-20.252-.63l-22.339.001Z" fill="url(#d)"/><path d="M72.166 20.128c-13.862 0-15.601.06-21.045.308-5.434.248-9.143 1.108-12.388 2.37-3.357 1.302-6.205 3.045-9.042 5.88-2.837 2.836-4.583 5.68-5.89 9.034-1.266 3.244-2.127 6.952-2.372 12.379-.243 5.44-.307 7.18-.307 21.03l.308 21.025c.25 5.43 1.11 9.136 2.371 12.379 1.305 3.354 3.05 6.2 5.887 9.035 2.838 2.835 5.683 4.584 9.038 5.886 3.248 1.262 6.958 2.121 12.39 2.37 5.444.247 7.183.308 21.043.308 13.861 0 15.597-.06 21.042-.308 5.434-.249 9.147-1.108 12.394-2.37 3.356-1.302 6.199-3.049 9.035-5.886 2.839-2.835 4.583-5.68 5.89-9.033 1.255-3.244 2.116-6.951 2.372-12.378.244-5.44.308-7.175.308-21.026l-.308-21.03c-.256-5.43-1.117-9.136-2.371-12.379-1.308-3.354-3.052-6.2-5.891-9.035-2.84-2.834-5.678-4.58-9.038-5.88-3.254-1.262-6.965-2.121-12.399-2.37-5.444-.247-7.178-.308-21.043-.308l.016-.001Zm-4.579 9.19h4.58l20.623.294c4.977.227 7.678 1.058 9.477 1.756 2.382.925 4.08 2.03 5.865 3.815s2.893 3.485 3.82 5.865c.698 1.796 1.531 4.495 1.758 9.467.244 5.377.298 6.992.298 20.603l-.298 20.602c-.228 4.973-1.06 7.672-1.758 9.467-.925 2.38-2.033 4.075-3.82 5.859s-3.482 2.89-5.865 3.815c-1.797.701-4.5 1.53-9.477 1.757-5.38.244-6.996.297-20.624.297s-15.244-.053-20.624-.297c-4.976-.23-7.677-1.06-9.478-1.759-2.382-.924-4.083-2.03-5.87-3.814s-2.891-3.48-3.819-5.862c-.698-1.795-1.53-4.494-1.758-9.467-.244-5.377-.293-6.991-.293-20.611l.293-20.603c.228-4.972 1.06-7.671 1.758-9.469.925-2.38 2.034-4.08 3.82-5.865s3.488-2.89 5.87-3.817c1.799-.701 4.5-1.53 9.477-1.758 4.708-.213 6.533-.276 16.045-.287v.013Zm31.824 8.47c-3.382 0-6.125 2.738-6.125 6.117s2.743 6.12 6.125 6.12 6.125-2.74 6.125-6.12-2.744-6.12-6.125-6.12v.002Zm-27.245 7.15c-14.475 0-26.21 11.728-26.21 26.192s11.735 26.186 26.21 26.186c14.475 0 26.207-11.722 26.207-26.186S86.64 44.938 72.165 44.938h.001Zm0 9.192c9.396 0 17.013 7.61 17.013 17s-7.617 17-17.013 17-17.013-7.61-17.013-17 7.617-17 17.013-17Z" fill="#fff"/></svg>