<svg xmlns="http://www.w3.org/2000/svg" width="192" height="192" viewBox="0 0 144 144" xmlns:v="https://vecta.io/nano"><path d="M128.739 68.869c-2.168-.555-4.059-1.008-4.059-2.798 0-1.412 1.059-2.269 2.773-2.269s2.899.933 3.303 2.546l4.261-2.042c-1.109-2.849-3.882-4.538-7.437-4.538-4.563 0-7.765 2.798-7.765 6.782 0 4.891 3.555 5.798 6.681 6.605 2.193.555 4.084 1.059 4.084 2.899 0 1.513-1.21 2.496-3.101 2.496s-3.429-1.034-3.857-2.546l-4.261 2.042c1.185 2.798 4.21 4.513 7.916 4.513 4.967 0 8.168-2.773 8.168-7.059.05-4.941-3.706-5.874-6.706-6.63h0zm1.008-18.933h2.471v-3.353h2.521l.63-2.193h-3.151v-2.118h3.58v-2.244h-6.051v9.908zm-6.227.302c2.849 0 5.193-2.319 5.193-5.143 0-2.849-2.319-5.143-5.193-5.143-2.849 0-5.193 2.319-5.193 5.143a5.21 5.21 0 0 0 5.193 5.143zm0-7.916c1.538 0 2.773 1.235 2.773 2.773a2.78 2.78 0 0 1-2.773 2.773c-1.538 0-2.773-1.235-2.773-2.773s1.261-2.773 2.773-2.773zM77.208 59.894l1.059 2.193v19.841h4.614V67.432l10.362 14.496h4.815V59.894h-4.614v14.698L83.158 59.894h-5.95zm34.866.908c-1.361-.555-3.328-.908-4.361-.908H100.2v22.034h7.488c1.538 0 3-.277 4.361-.832a11.49 11.49 0 0 0 3.605-2.319c1.034-.983 1.84-2.143 2.42-3.479s.882-2.773.882-4.336a10.84 10.84 0 0 0-.882-4.336c-.58-1.336-1.387-2.496-2.42-3.479-1.008-.983-2.193-1.765-3.58-2.345zm1.513 12.731c-.328.807-.807 1.487-1.387 2.067s-1.261 1.059-2.067 1.387c-.807.353-1.664.504-2.572.504h-2.622V64.356h2.647c.908 0 1.765.176 2.572.529s1.487.807 2.067 1.387 1.034 1.286 1.387 2.092a6.77 6.77 0 0 1 .504 2.572c0 .933-.176 1.79-.529 2.597zM24.694 59.894v22.034h13.11v-4.261l-8.32-.05v-4.815h6.429l1.16-4.16h-7.588V64.18h8.32v-4.286h-13.11zm50.699 8.748h-7.614V64.18h8.345v-4.286h-13.11v22.034h13.11v-4.261l-8.345-.05v-4.815h6.454l1.16-4.16zm10.765-14.446c.756.807 1.689 1.412 2.773 1.84s2.345.655 3.731.655 2.647-.202 3.731-.63c1.109-.429 2.042-1.034 2.798-1.815s1.361-1.74 1.765-2.874c.429-1.134.63-2.395.63-3.756l.076-13.689h-4.815l-.076 13.412c0 1.487-.353 2.647-1.059 3.504s-1.714 1.286-3.051 1.261c-1.336 0-2.345-.429-3.025-1.311-.681-.857-1.034-2.042-1.034-3.53l.076-13.387h-4.815l-.076 13.614c0 1.387.202 2.647.605 3.782.429 1.16 1.008 2.118 1.765 2.924h0zm-23.144-.983a11.73 11.73 0 0 0 3.63 2.471c1.412.605 2.899.908 4.538.908 1.588 0 3.051-.252 4.387-.807s2.496-1.311 3.479-2.269 1.74-2.118 2.294-3.454a11.18 11.18 0 0 0 .782-3.025 28.93 28.93 0 0 0 .05-3.076H71.233l-1.941 3.983h7.79a5.24 5.24 0 0 1-2.042 3.076c-1.059.782-2.319 1.16-3.807 1.16-.958 0-1.84-.202-2.647-.555a6.87 6.87 0 0 1-2.143-1.513c-.605-.63-1.084-1.361-1.437-2.219s-.504-1.765-.504-2.723a7.08 7.08 0 0 1 .529-2.723c.353-.857.832-1.588 1.462-2.219.605-.63 1.336-1.109 2.143-1.462s1.689-.529 2.647-.529c1.286 0 2.42.303 3.403.857.983.58 1.765 1.387 2.294 2.471l4.311-2.042a9.81 9.81 0 0 0-3.983-4.185c-1.765-1.008-3.756-1.538-6-1.538-1.588 0-3.076.277-4.488.882-1.412.58-2.647 1.412-3.706 2.42a11.56 11.56 0 0 0-2.496 3.605c-.63 1.387-.933 2.849-.933 4.412s.277 3.051.882 4.437c.605 1.412 1.412 2.622 2.445 3.656zM8.433 33.927l1.084 2.269v17.572l-1.084 2.269H21.87l1.21-4.311h-8.799V33.927H8.433zm0 25.891l1.084 2.294v17.547l-1.084 2.294H21.87l1.21-4.336h-8.799V59.818H8.433zm16.261-25.841v22.059h13.11v-4.261l-8.32-.05v-4.84h6.429l1.16-4.135h-7.588v-4.462h8.32v-4.311h-13.11zm79.061 0v22.059h13.11v-4.261l-8.345-.05v-4.84h6.454l1.16-4.135h-7.614v-4.462h8.345v-4.311h-13.11zm-59.548 22.06l1.664-4.311h8.824l1.714 4.311h4.967l-8.849-22.11h-6.782l1.412 2.874-7.815 19.236h4.866zm6.151-15.933l2.748 7.412h-5.622l2.874-7.412zm-2.622 37.538c-.05-.025-.126-.05-.176-.076a6.87 6.87 0 0 1-2.143-1.513c-.605-.63-1.084-1.361-1.437-2.219s-.504-1.765-.504-2.723a7.08 7.08 0 0 1 .529-2.723c.353-.857.832-1.588 1.462-2.219.605-.63 1.336-1.109 2.143-1.462s1.689-.529 2.647-.529c1.286 0 2.42.303 3.403.857.983.58 1.765 1.387 2.294 2.471l4.311-2.042a9.81 9.81 0 0 0-3.983-4.185c-1.765-1.008-3.756-1.538-6-1.538-1.588 0-3.076.277-4.488.882-1.412.58-2.647 1.412-3.706 2.42a11.56 11.56 0 0 0-2.496 3.605c-.63 1.387-.933 2.849-.933 4.412s.277 3.051.882 4.437 1.412 2.597 2.445 3.63a11.39 11.39 0 0 0 3.454 2.37l2.294-3.857zm13.413-7.714H50.182l-1.941 3.983h7.79a5.24 5.24 0 0 1-2.042 3.076c-1.059.782-2.319 1.16-3.807 1.16-.655 0-1.286-.101-1.891-.277l-1.059 4.336a12.17 12.17 0 0 0 2.899.353c1.588 0 3.051-.252 4.387-.807s2.496-1.311 3.479-2.269 1.74-2.118 2.294-3.454a11.18 11.18 0 0 0 .782-3.025 28.26 28.26 0 0 0 .076-3.076h0z" fill="#c89b3c"/><g fill="#32c8ff"><path d="M39.82 94.458c2.37-5.345 8.622-18 8.849-18.429.202-.378.202-.58-.101-.151l-6.252 9.051c-1.109 1.588-1.966 2.269-2.42 2.546-.227.151-.403.353-.504.58l-7.437 17.37c-.479-2.395-1.059-6.076-1.084-7.563 0-.353.076-.756-.176-.252-.126.277-.479.933-.479.933l-.504.101c-1.412 1.563-3.53 4.412-7.135 8.799l3.656-10.387c1.008-2.445-.378-.378.832-3.479.202-.479 1.74-5.067 2.168-6.353.151-.454.101-.353-.328.227-.655.933-2.168 3.051-2.546 3.479-.328.328-2.118 5.067-2.244 5.42-.151.429-.252.429-.176 0l1.008-4.437c.076-.303-.353.151-.63 1.008l-1.588 5.118-5.42 18.908c.731-.63 2.042-2.698 2.723-2.899.504-.151.529-.756 1.235-1.613 1.765-2.219 2.924-3.857 7.891-9.53.756 4.009 1.74 10.715 1.74 10.715s.731-.933 1.109-1.966c.353-1.008.681-.706.807-1.109 1.034-3.403 4.639-10.74 7.009-16.084h0zm23.648 5.168c.63-.832 1.765-2.773 1.765-4.462 0-1.815-1.487-3.252-4.891-3.252-2.118 0-4.286.731-7.286 1.815-.782.277-.681.328.025.227l2.546-.429c.479-.101.378.479 1.311.252-.353.63-1.361 2.647-2.496 5.193l-2.37 5.925c-.126.555 1.387.429.58.882l-3.983 2.118c-.832.403-1.714.807.756.025 7.059-2.244 10.992-4.311 14.042-8.294h0zm-7.135-.151c1.185-2.849 2.042-4.412 2.345-5.193.101-.303-.176-.328-.731-.655.429-.05 1.286-.151 1.74-.151 1.74 0 3.277.454 3.277 1.966 0 2.798-4.311 7.664-8.799 9.53-.025 0 .655-1.866 2.168-5.496h0zm22.161 3.731l-.202-.479-3.681-2.95c3.983-1.815 15.404-6.958 14.748-12.076-.378-2.849-4.815-3.706-7.79-3.706-7.639 0-18.656 2.824-21.505 3.857-.076.025-.076.05.025.05 6.429-1.109 24.807-3.227 25.085.655.202 2.975-9.681 8.572-12.404 9.908l-.227-.202c1.059-2.924 2.294-5.824 2.471-6.277.05-.126 0-.176-.101-.252-.126-.076-.504-.303-.63-.403-.126-.076-.126-.126-.05-.277a15.74 15.74 0 0 1 .807-1.134c.151-.202.076-.176-.101-.151-.983.176-3.479.706-7.009 2.143-.252.101-.227.151.05.076 1.059-.252 4.639-1.235 4.084.227l-1.992 5.193c-.756 0-.782.353-1.16.479-.277.101-1.613-.176-1.059.303l1.437 1.286-3.076 8.32c-.151.429.403.454.832 1.109.504.731.807 2.092 1.134 1.21l3.227-8.95 4.059 3.202c1.992 1.513 3.681 2.874 5.294 3.908 1.109.731 1.412.756-.202-.555-2.698-2.193-2.345-2.193 1.437.328.504.353 1.008.655 1.487.655.353.025.555.05 1.664.756.832.529 1.412.908 2.849 1.891 1.866 1.286 2.219 1.21.429-.202l-9.933-7.941h0zm45.581-17.017c-7.362-.454-23.925.807-29.976 2.294-.227.05-.227.176-.176.328.05.202.756.529.807.807.101.605.958.454.756.958l-1.639 4.109c-.655.252-1.714.706-1.74.782-.076.176.857.58.882 1.261-.706 1.74-1.714 4.765-1.866 5.168-.126.378.454.504.63.882.176.403.454 1.134.555 1.286.202.303.277.076.403-.202a169.67 169.67 0 0 0 .857-2.42l1.74-5.093c1.916-.756 2.899-.832 2.924-1.008 0-.277.555-.58.555-.58s.303-.202.303-.328.504-.227.756-.378.151-.252-.05-.303a14.88 14.88 0 0 0-3.63.378c.378-1.034 1.261-3.403 1.639-4.16 1.941-.504 4.059-.882 6.782-1.286l-2.849 7.815c-.277.731-.555.983-.479 1.261s-.63 1.992-1.059 3.328c-.151.504-.126.555.025.706.076.076.126.101.303-.202.555-1.109.807-.731.252.832-.025.076-.025.101.025.151.252.454.933 1.21 1.109.655 1.134-3.555 2.698-8.647 4.967-14.849l5.37-.605c.529-.05.706-.605 1.513-.681l10.311-.807c.202-.05.303-.101 0-.101h0zM41.988 98.088c-.555.202-.403.378-.882.857-.176.202-.58.101-.681.328l-3.429 8.521a.48.48 0 0 0 .227.555s.303-.908.454-.782c.252.202 0 1.311.202 1.437.353.202.655.353.857-.101l2.168-5.471c.857-2.042 2.017-4.361 2.748-5.42.529-.756-1.109-.101-1.664.076h0z"/><path d="M47.736 100.307l2.521-4.664c.252-.454-1.689.303-1.992.454-.328.151-.756.303-1.109.983a85.57 85.57 0 0 0-2.798 6c-.403 1.008-1.462 2.975-1.588 3.303 0 .126.025.429.176.756.05.101.63-.101.706.025.05.101-1.588.983-1.992 1.261-.202.151-.176.151 0 .076l6.681-2.118c.126-.151.429-.58.756-1.16l-1.185.227c-.101.025-.176-.076 0-.176.328-.176 3.277-1.664 2.067-1.311l-4.84 1.613c-.025.025 1.361-2.849 2.597-5.269h0zm41.674-6.782c-.303.303-.58 1.084-.983 1.387-.227.151-.958.429-1.059.655l-2.572 7.488c-.025.277.101.353.303.429.454.202.681-.303 1.059-.126.202.101-.025.63.076.807.151.277.303.076.479-.479l2.294-6.706 1.462-3.58c.126-.328-.756-.176-1.059.126h0zm38.32-7.311h-.454v-.252h1.21v.252h-.454v1.059h-.277v-1.059h-.025zm1.059-.277h.303l.454.706.454-.706h.303v1.311h-.277v-.882l-.454.706h-.025l-.454-.706v.882h-.277v-1.311h-.025z"/></g></svg>