<svg xmlns="http://www.w3.org/2000/svg" width="192" height="192" viewBox="0 0 144 144" xmlns:v="https://vecta.io/nano"><defs><linearGradient id="A" x1="72.387" y1="0" x2="72.387" y2="142.85" gradientUnits="userSpaceOnUse"><stop offset="0" stop-color="#2aabee"/><stop offset="1" stop-color="#229ed9"/></linearGradient></defs><circle cx="72.387" cy="72" r="72" fill="url(#A)"/><path d="M32.94 71.221l41.965-18.105c19.963-8.333 24.16-9.772 26.858-9.832.6 0 1.918.12 2.818.839.719.6.899 1.379 1.019 1.978s.24 1.858.12 2.818c-1.079 11.391-5.755 39.027-8.153 51.737-1.019 5.396-2.998 7.194-4.916 7.374-4.197.36-7.374-2.758-11.391-5.396-6.355-4.137-9.892-6.714-16.067-10.791-7.134-4.676-2.518-7.254 1.559-11.45 1.079-1.079 19.484-17.865 19.843-19.364.06-.18.06-.899-.36-1.259s-1.019-.24-1.499-.12c-.659.12-10.731 6.834-30.335 20.083-2.878 1.978-5.455 2.938-7.794 2.878-2.578-.06-7.494-1.439-11.211-2.638-4.496-1.439-8.093-2.218-7.794-4.736.18-1.319 1.978-2.638 5.336-4.017z" fill="#fff" fill-rule="evenodd"/></svg>