<svg xmlns="http://www.w3.org/2000/svg" width="144" height="144" xmlns:v="https://vecta.io/nano"><defs><radialGradient id="A" cx="72" cy="72" fx="72" fy="72" r="72" gradientUnits="userSpaceOnUse"><stop offset="0" stop-color="#3f1800"/><stop offset=".224" stop-color="#351a0b"/><stop offset=".64" stop-color="#271d1a"/><stop offset=".975" stop-color="#231f20"/></radialGradient></defs><path d="M0 0h144v144H0z" fill="url(#A)"/><path d="M96.192 56.238c7.321 5.23 16.288 8.308 25.974 8.308V45.917c-1.833 0-3.661-.191-5.455-.57V60.01c-9.685 0-18.652-3.077-25.974-8.307v38.016c0 19.018-15.425 34.433-34.451 34.433-7.099 0-13.697-2.145-19.179-5.824 6.256 6.393 14.98 10.359 24.632 10.359 19.027 0 34.453-15.416 34.453-34.434V56.238h-.001zm6.729-18.794c-3.741-4.085-6.198-9.364-6.729-15.201v-2.396h-5.169c1.301 7.418 5.739 13.756 11.898 17.597h0zm-53.779 66.291a15.68 15.68 0 0 1-3.215-9.536c0-8.698 7.055-15.75 15.759-15.75a15.8 15.8 0 0 1 4.78.738V60.142c-1.807-.247-3.63-.353-5.452-.314v14.824a15.78 15.78 0 0 0-4.783-.738c-8.704 0-15.759 7.052-15.759 15.751 0 6.151 3.526 11.476 8.669 14.07z" fill="#ff004f"/><path d="M90.737 51.703c7.322 5.23 16.289 8.307 25.974 8.307V45.346c-5.406-1.151-10.192-3.975-13.79-7.902-6.159-3.842-10.597-10.179-11.898-17.597H77.444v74.406a15.76 15.76 0 0 1-15.759 15.698c-5.118 0-9.665-2.438-12.545-6.216-5.142-2.594-8.669-7.92-8.669-14.07 0-8.698 7.055-15.751 15.759-15.751a15.8 15.8 0 0 1 4.783.738V59.828c-18.692.386-33.725 15.651-33.725 34.425 0 9.372 3.744 17.868 9.819 24.075a34.3 34.3 0 0 0 19.179 5.824c19.027 0 34.451-15.416 34.451-34.434V51.703h0z"/><path d="M116.711 45.346v-3.965a25.98 25.98 0 0 1-13.79-3.938 26.05 26.05 0 0 0 13.79 7.903zM91.022 19.847a26.57 26.57 0 0 1-.286-2.139v-2.396H71.989v74.407a15.76 15.76 0 0 1-15.759 15.697 15.7 15.7 0 0 1-7.09-1.68c2.88 3.777 7.427 6.215 12.545 6.215a15.76 15.76 0 0 0 15.759-15.697V19.847h13.578zM61.014 59.828v-4.221a34.8 34.8 0 0 0-4.727-.321c-19.028 0-34.453 15.416-34.453 34.432 0 11.922 6.062 22.429 15.274 28.609-6.076-6.207-9.819-14.704-9.819-24.075 0-18.774 15.032-34.039 33.725-34.425z" fill="#00f2ea"/></svg>