<svg xmlns="http://www.w3.org/2000/svg" viewBox="0 0 144 144"><path d="m33.503 63.11-9.427-5.442-9.424 5.443v-5.443l9.425-5.442 9.427 5.442v5.443h-.001Z" fill="#a435f0"/><path d="M14.652 67.68h4.937v11.997c0 3.1 2.315 4.61 4.488 4.61 2.193 0 4.49-1.55 4.49-4.652V67.68h4.937v12.283c0 2.855-.897 5.058-2.693 6.569-1.796 1.51-4.04 2.245-6.775 2.245-2.733 0-4.978-.734-6.732-2.245-1.755-1.51-2.652-3.63-2.652-6.447V67.68Zm61.54 14.91c-1.495 1.33-3.198 1.983-5.139 1.983-3.542 0-5.917-2.018-6.185-5.143H80.82s.107-1.009.107-1.956c0-2.939-.94-5.387-2.858-7.386-1.875-2-4.323-2.98-7.303-2.98-3.14 0-5.713.98-7.754 2.98-1.999 1.999-3.019 4.61-3.019 7.876v.16c0 3.225 1.02 5.796 3.02 7.714 1.998 1.918 4.651 2.897 7.875 2.897 3.75 0 6.732-1.479 8.97-4.028l-3.667-2.117Zm-9.384-10.014c1.1-.857 2.448-1.305 3.958-1.305 1.427 0 2.61.448 3.632 1.347.974.819 1.5 1.824 1.546 2.979h-10.95c.158-1.194.762-2.2 1.815-3.02h-.001Zm59.087 18.931c-2.003 4.73-4.099 6.338-7.312 6.338h-2.228V93.47h1.801c1.106 0 2.133-.416 3.113-2.676l.98-2.262-8.448-20.85h5.02l5.998 15.016 6.163-15.017H136l-10.103 23.827h-.002ZM52.726 59.806v9.737c-1.618-1.45-4.135-2.312-6.569-2.312-2.898 0-5.346 1.02-7.345 3.1-1.959 2.04-2.938 4.57-2.938 7.63 0 3.062.98 5.59 2.938 7.672 2 2.04 4.448 3.062 7.345 3.062 3.34 0 5.453-1.314 6.57-2.343v1.893h4.896V59.807h-4.897v-.001Zm-1.47 22.646c-1.182 1.183-2.692 1.796-4.447 1.796s-3.183-.613-4.366-1.796c-1.14-1.184-1.713-2.693-1.713-4.488 0-1.797.571-3.306 1.713-4.49 1.183-1.183 2.611-1.795 4.366-1.795s3.265.612 4.448 1.795c1.224 1.184 1.838 2.693 1.838 4.49 0 1.795-.614 3.304-1.838 4.488Zm54.932-15.18c-3.72 0-5.653 1.544-6.977 3.03-.53-1.01-2.022-3.03-5.508-3.03-2.947 0-4.683 1.49-5.55 2.55v-2.139H83.3v20.565h4.854V76.414c0-2.775 1.715-4.774 3.999-4.774 2.328 0 3.673 1.755 3.673 4.57v12.037h4.856V76.413c0-2.815 1.672-4.774 4.08-4.774 2.326 0 3.671 1.755 3.671 4.568v12.038h4.898v-12.73c0-5.362-2.882-8.241-7.142-8.241v-.001Z"/></svg>