<svg xmlns="http://www.w3.org/2000/svg" xmlns:xlink="http://www.w3.org/1999/xlink" width="125.367" height="79.522" xmlns:v="https://vecta.io/nano"><path d="M26.661 46.455h4.608v17.19c0 2.872-.703 5.492-2.108 7.857s-3.292 4.256-5.657 5.669-4.985 2.12-7.857 2.12c-2.889 0-5.516-.707-7.881-2.12s-4.251-3.303-5.657-5.669S0 66.517 0 63.645v-17.19h4.608v17.19c0 2.027.496 3.875 1.486 5.542s2.324 2.999 3.998 3.998 3.526 1.497 5.554 1.497 3.875-.499 5.542-1.497a11.36 11.36 0 0 0 3.986-3.998c.991-1.667 1.486-3.515 1.486-5.542v-17.19zm18.757 9.355c2.197 0 4.194.538 5.991 1.613a12.22 12.22 0 0 1 4.298 4.309c1.067 1.798 1.602 3.787 1.602 5.969v11.774H52.7V67.701c0-1.997-.71-3.71-2.131-5.139s-3.138-2.144-5.15-2.144c-1.997 0-3.71.715-5.139 2.144s-2.143 3.142-2.143 5.139v11.774h-4.608V67.701c0-2.182.538-4.171 1.613-5.969s2.512-3.233 4.309-4.309 3.787-1.613 5.968-1.613zM63.3 46.385v21.2h-4.608v-21.2H63.3zm0 21.2c0 2.013.71 3.729 2.132 5.149s3.137 2.132 5.15 2.132v4.608c-2.197 0-4.194-.533-5.991-1.602s-3.23-2.503-4.297-4.309-1.602-3.798-1.602-5.979H63.3zm8.664 11.937V55.81h4.608v23.712h-4.608zm24.905-29.65c15.738 0 28.498-11.164 28.498-24.936S112.607 0 96.869 0 68.371 11.164 68.371 24.936c0 6.27 2.647 12.005 7.018 16.387-.346 3.619-1.485 7.588-2.747 10.566-.281.663.264 1.404.973 1.29 8.037-1.318 12.814-3.341 14.89-4.396a32.26 32.26 0 0 0 8.364 1.09z"/><g fill="#fff"><use xlink:href="#B"/><path d="M101.604 19.256a5.83 5.83 0 0 1 3.041.82 6.2 6.2 0 0 1 2.191 2.191c.543.914.814 1.926.814 3.035v5.988h-2.344v-5.988a3.57 3.57 0 0 0-1.084-2.613c-.723-.727-1.596-1.09-2.619-1.09-.992 0-1.84.338-2.543 1.014s-1.086 1.518-1.148 2.525v.164H97.9v5.988h-2.344v-6.152c-.062-1.008-.445-1.85-1.148-2.525s-1.551-1.014-2.543-1.014c-1.023 0-1.896.363-2.619 1.09a3.57 3.57 0 0 0-1.084 2.613v5.988h-2.344v-5.988c0-1.109.271-2.121.814-3.035s1.271-1.645 2.186-2.191 1.93-.82 3.047-.82c1 0 1.922.223 2.766.668a6.08 6.08 0 0 1 2.098 1.805 6.19 6.19 0 0 1 2.109-1.805c.844-.445 1.766-.668 2.766-.668z"/><use xlink:href="#B" x="35.079"/></g><defs ><path id="B" d="M82.236 24.377c1.023.828 1.535 1.801 1.535 2.918a3.48 3.48 0 0 1-.615 2.004c-.41.602-.963 1.082-1.658 1.441s-1.465.539-2.309.539c-.836 0-1.602-.18-2.297-.539s-1.248-.84-1.658-1.441a3.48 3.48 0 0 1-.615-2.004h2.297c0 .5.223.928.668 1.283s.98.533 1.605.533c.633 0 1.172-.178 1.617-.533s.668-.783.668-1.283c0-.344-.117-.65-.352-.92s-.525-.482-.873-.639a2.76 2.76 0 0 0-1.084-.246c-.812-.062-1.539-.332-2.18-.809-.797-.648-1.195-1.418-1.195-2.309 0-.859.348-1.596 1.043-2.209s1.531-.92 2.508-.92c.984 0 1.824.307 2.52.92s1.043 1.35 1.043 2.209h-2.309c0-.258-.123-.48-.369-.668s-.541-.281-.885-.281c-.336 0-.629.094-.879.281s-.375.41-.375.668c0 .188.07.352.211.492a1.48 1.48 0 0 0 .504.328c.195.078.383.121.563.129 1.07.07 2.027.422 2.871 1.055z"/></defs></svg>