<svg xmlns="http://www.w3.org/2000/svg" viewBox="0 0 144 144"><g fill="#5f01d1"><path d="M12.658 66.62h7.06l4.112 10.518 4.165-10.519h6.875L24.518 91.521h-6.919l2.834-6.599-7.775-18.303Zm29.374-.42c-5.305 0-8.66 4.759-8.66 9.497 0 5.332 3.678 9.559 8.56 9.559 3.64 0 5.014-2.219 5.014-2.219v1.728h6.158V66.62h-6.158v1.65s-1.532-2.068-4.914-2.068Zm1.31 5.832c2.448 0 3.71 1.937 3.71 3.685 0 1.882-1.352 3.729-3.71 3.729-1.954 0-3.72-1.597-3.72-3.65 0-2.08 1.42-3.764 3.72-3.764Zm11.883 12.733V58.607h6.441v9.725s1.53-2.13 4.735-2.13c3.92 0 6.216 2.921 6.216 7.094v11.47h-6.394v-9.898c0-1.413-.673-2.777-2.197-2.777-1.551 0-2.36 1.385-2.36 2.777v9.897h-6.441ZM83.6 66.203c-6.076 0-9.694 4.62-9.694 9.57 0 5.632 4.38 9.483 9.716 9.483 5.172 0 9.698-3.676 9.698-9.39 0-6.25-4.739-9.663-9.72-9.663Zm.057 5.882c2.146 0 3.631 1.788 3.631 3.694 0 1.626-1.383 3.631-3.63 3.631-2.06 0-3.605-1.652-3.605-3.649 0-1.924 1.285-3.676 3.604-3.676Zm20.393-5.882c-6.075 0-9.692 4.62-9.692 9.57 0 5.632 4.38 9.483 9.716 9.483 5.172 0 9.697-3.676 9.697-9.39 0-6.25-4.738-9.663-9.72-9.663Zm.059 5.882c2.146 0 3.63 1.788 3.63 3.694 0 1.626-1.383 3.631-3.63 3.631-2.06 0-3.605-1.652-3.605-3.649 0-1.924 1.285-3.676 3.605-3.676Z"/><circle cx="118.854" cy="80.873" r="4.277"/><path d="M124.537 75.025h-7.7l6.834-16.418h7.671l-6.805 16.418Z"/></g></svg>