<svg xmlns="http://www.w3.org/2000/svg" width="192" height="192" viewBox="0 0 144 144" xmlns:v="https://vecta.io/nano"><path d="M113.67 111.169l-41.67.873c-10.42 0-41.67-.873-41.67-.873-8.071 0-14.675-6.604-14.675-14.675L14.782 72c0-6.132.873-24.494.873-24.494 0-8.071 6.604-14.675 14.675-14.675L72 31.958c10.42 0 41.67.873 41.67.873 8.071 0 14.675 6.604 14.675 14.675L129.218 72c0 6.148-.873 24.494-.873 24.494 0 8.071-6.604 14.675-14.675 14.675z" fill="red"/><path d="M61.04 89.893V54.107l28.912 17.891L61.04 89.893z" fill="#fff" fill-rule="evenodd"/></svg>