<?xml version="1.0" encoding="UTF-8"?><svg id="a" xmlns="http://www.w3.org/2000/svg" width="2.6666666667in" height="2.6666666667in" viewBox="0 0 192 192"><defs><style>.b{fill:#ce1126;}.c{fill:#0038a8;}.d{fill:#fcd116;}</style></defs><path class="b" d="m40.2263961417,55.9430070034h-15.5720688746c-6.9469619033,0-12.5785878577,5.631626403-12.5785880357,12.5785883063v35.272303576c-.0000002076.5799445124.4701372715,1.0500822585,1.0500815466,1.0500822585h27.3319897065c11.3762201997,0,20.5985267611-9.2223065615,20.5985267611-20.5985267611v-7.465037593c.0041234491-11.504059462-9.3184140604-20.8332847766-20.8224744717-20.8374087115-.0024888774-.0000008918-.0049777549-.0000013386-.0074666323-.0000010753Zm9.1098343612,27.9540766806c0,5.0064861165-4.0585560448,9.0650459581-9.0650421612,9.0650459581h-11.4663000969l-9.2740651502,4.3446497528,4.4242795922-6.7707869706v-21.8974436061c0-.5799445124.4701367968-1.0500822585,1.0500813093-1.0500822585h15.7338107862c4.7481212747,0,8.5972357206,3.8491125474,8.5972357206,8.5972338222v7.711383302Zm28.7901570939,20.9394327264h-9.3263192364c-.6610276208,0-1.1968937532-.5358661324-1.1968937532-1.1968937532v-46.4997212739c0-.6610262563.5358661324-1.1968940425,1.1968937532-1.1968943465h9.3263192364c.6610276208.0000003189,1.1968937532.5358680902,1.1968937532,1.1968943465v46.5071822109c-.0041082615.6581077936-.5387745689,1.1894404101-1.1968937532,1.1894290194v.0000037969Zm49.9908744893-47.8807526828v9.4557144031c0,.5799445124-.4701339492,1.0500822585-1.0500822585,1.0500822585h-13.1384631261c-.5789762992-.0000018985-1.0487077755.4686208787-1.0500822585,1.0475933811v35.2847451155c.001374483.5785700294-.4665344742,1.0487039786-1.0451007067,1.0500784616-.0008277274.0000037969-.0016630485.0000037969-.0024907759.0000037969h-9.6746899355c-.5799407155,0-1.0500822585-.4701377461-1.0500822585-1.0500822585h0v-35.2673267704c0-.5785690802-.4690252501-1.0475924318-1.0475914826-1.0475933811h-13.1384631261c-.5799407155,0-1.0500822585-.4701367968-1.0500822585-1.0500813093v-9.4557152337c.001374483-.5789724133.4711059593-1.0475954825,1.0500822585-1.0475936184h40.1469636699c.5751186341-.0000405795,1.0432705939.4625604693,1.0500822585,1.0376402444v-.0074650898Zm27.3867339753-1.0202217621h-.3234819248c-13.5035136705,0-24.4504888929,10.9469804246-24.4504888929,24.4504874505v18.1773691967c0,3.4645477611,2.8085700365,6.2731177977,6.2731177977,6.2731177977h18.50085302c13.5034984828,0,24.4504888929-10.9469790193,24.4504888929-24.4504869944h0c-.0042373565-13.5007703998-10.9497241884-24.4430224126-24.4504888929-24.4430224126v-.0074650379Zm12.4068888345,24.2887445896c.0037361638,6.0422008506-4.2379032995,11.2557858697-10.1546958623,12.4810463709-5.9167925627,1.2252605012-11.8801049215-1.8747189237-14.2763832039-7.421490781-2.3962782824-5.5467718573-.5661047592-12.0137335292,4.3814722293-15.4822395737,4.9475769885-3.4685060445,11.6511813545-2.9835261598,16.0483424344,1.1608135735l8.4603759387-3.3070118815-5.7231954879,6.9897645201c.8423075051,1.7411909342,1.2747153121,3.6521400157,1.2640839516,5.586335706v-.0072179344Z"/><path class="d" d="m8.8539325843,112.3542433747h171.4956565737v2.7524908057H8.8539325843v-2.7524908057Z"/><path class="c" d="m15.1264591253,124.3528664076v11.6656777304h-1.7028335531v-11.6656777304h-4.2977479456v-1.4893400808h10.3186613696v1.4893400808h-4.3180798709Zm16.5911880015,11.5716419053c-1.779079629.1143725072-3.8123134907.1143725072-5.7311767843.1143725072-1.5681311505,0-2.5542498449-.8768352053-2.5745826489-2.2873880944v-8.6183709621c.020332804-1.4105528891,1.0166169309-2.2873880944,2.5745826489-2.2873880944,1.9163231474,0,3.9495570091,0,5.7311787234.1143725072l-.0762470454,1.3139807959h-5.3702801783c-.7955020503,0-1.161484766.3837753734-1.161484766,1.2707711636v2.8592351181h5.7693022461v1.3521023795h-5.7693012766v3.6039051584c0,.8971641312.3659817461,1.2707711636,1.1614857355,1.2707711636h5.3626539225l.0838694231,1.2936363576Zm5.8455473525-2.5745836184c0,.8768352053.4066463845,1.2707711636,1.2987282843,1.2707711636h4.8289323606l.0762470454,1.2961881381c-1.6850438039.1347014331-3.4463307751.1347014331-5.1694961627.1347014331-1.974777535,0-2.7092850515-1.0496582221-2.7092850515-2.478003769v-10.7100553334h1.6825017186l-.0076281948,10.4863983677Zm18.0449485838,2.5745836184c-1.779079629.1143725072-3.8123134907.1143725072-5.7311787234.1143725072-1.5681311505,0-2.5567909606-.8768352053-2.5745836184-2.2873880944v-8.6183709621c.0177926578-1.4105528891,1.0166169309-2.2873880944,2.5745836184-2.2873880944,1.9163212083,0,3.94955507,0,5.7311787234.1143725072l-.0787871916,1.3139807959h-5.367736154c-.7929599651,0-1.161486705.3837753734-1.161486705,1.2707711636v2.8592351181h5.769300307v1.3521023795h-5.769300307v3.6039051584c0,.8971641312.3685228618,1.2707711636,1.161486705,1.2707711636h5.3626558615l.0838674841,1.2936363576Zm12.4662658903-12.9084956514l-.1728230168,1.2707711636c-1.151229168-.1247269963-2.3087369569-.1824329134-3.4666635791-.1728230168-2.6127052021,0-3.4463307751,1.316517064-3.4463307751,5.3194462293s.8336255731,5.3194462293,3.4463307751,5.3194462293c1.2488056855.0234701754,2.4976191271-.0461957584,3.7360664453-.2084083323l.1753670411,1.2580665544c-1.1233612432.3049881817-2.1679352948.4396896148-3.9114334864.4396896148-3.8529790987,0-5.2457432081-1.7943282625-5.2457432081-6.8087940662s1.3927641094-6.7884573841,5.2457432081-6.7884573841c1.2243465982-.0410456604,2.4486195127.08377441,3.639490474.371063008h-.0000038781Zm14.036937187,6.4250186928c0,5.1491672368-1.3749753297,6.826586724-5.2660760121,6.826586724s-5.2864088161-1.6774194872-5.2864088161-6.8265789678,1.3953081337-6.8240426997,5.2864088161-6.8240426997,5.2660760121,1.6774194872,5.2660760121,6.8240426997v-.0000077562Zm-8.7505283709,0c0,4.0232580912.8514182308,5.3194462293,3.4844523588,5.3194462293s3.4844523588-1.2961881381,3.4844523588-5.3194462293-.8514182308-5.3194462293-3.4844523588-5.3194462293-3.4844562369,1.2987244062-3.4844562369,5.3194462293h.0000038781Zm25.4179672959-6.5775127837c.3489036256-.0375321146.6621676425.2148847356.6996997571.5637806051.0051035609.0474677705.0048476073.0953621305-.0007756172.1427678516l.5616786826,12.4535574031h-1.7053727298l-.4828914909-11.7622575799h-.4168166646l-2.981231942,9.7036067436c-.0680604063.3481435208-.3829144383.592424147-.7370457236.5718470236h-1.5249253963c-.3585135223.0172497258-.6786417511-.2228425678-.7624626981-.5718470236l-2.981231942-9.7036067436h-.3888556658l-.4650988332,11.7622575799h-1.7028364617l.5235570989-12.4535574031c-.0297604306-.3609179355.2386961826-.6776256926.5996141181-.7073861232.0389825187-.0032110551.0781744541-.0029318329.1171026796.0008376665h1.934109988c.3498809033-.0203832191.6588945381.2261699654.7167167977.5718470236l2.4983326949,8.0287312808.5083084654,1.779079629h.3481900578l.5083084654-1.809576896,2.4983326949-7.9906096971c.061677077-.3509434988.3791604512-.5981094208.7345094555-.5718470236l1.9010842091-.0076243167Zm18.5278420138,0c.3474687339-.0377105066.6597244484.2133955507.697434955.5608642845.0052586844.048437292.0049019005.0973244419-.0010548393.1456841722l.5616786826,12.4535574031h-1.7028364617l-.4828914909-11.7622575799h-.4066483236l-2.9837682101,9.6985264512c-.0679363075.3471352185-.381316667.591113354-.7345094555.5718470236h-1.5249253963c-.3585135223.0172497258-.6786417511-.2228425678-.7624626982-.5718470236l-2.9837682101-9.7036067436h-.3990240068l-.4650988332,11.7622575799h-1.7028287055l.5083084654-12.4535574031c-.0282014401-.3624536575.2427526604-.6791381461.6052063179-.7073473424.0371287937-.0028852959.0744282232-.002621586.1115104799.0007988857h1.9595269625c.349508607-.0191965248.6578319425.2268059715.7167167977.5718470236l2.4983326949,8.0287312808.5083084654,1.779079629h.3431097654l.5083084654-1.809576896,2.4983326949-7.9906096971c.061677077-.3509434988.3791604512-.5981094208.7345094555-.5718470236l1.8985324286-.0025440243Zm15.1399695044,8.1227671059c0,3.8123134907-1.2707711636,5.2813246456-4.7831845212,5.2813246456-3.6191537919,0-4.9356786121-1.4690111549-4.9356786121-5.2813246456v-8.1329354469h1.7028364617v8.1329354469c0,2.8211135344.8132966472,3.7741919071,3.156598983,3.7741919071s3.1540549587-.9530783727,3.1540549587-3.7741919071v-8.1329354469h1.7053727298v8.1329354469Zm14.7129844987,4.3663678566c.041480006.325829015-.1890334155.6235806885-.5148701866.6650606945-.0475918693.0060575701-.0957421829.0063290361-.1433961015.0008221542h-1.6647071218c-.3482676195.0243466228-.6661310462-.1981546734-.7624626981-.5337254399l-4.5112376307-9.3223753945c-.294470813-.5600653989-.5492610518-1.1401106959-.7624626981-1.7358699967h-.2948198407l.0762431673,1.7358699967v9.8561008345h-1.7028364617v-12.4865986943c-.0409215616-.328722067.1923918378-.6283817588.5211139048-.6693033204.0514699551-.0064065978.1035448916-.0061118633.1549372849.0008764474h1.6088006365c.3477246875-.0223843114.6644712255.1993413676.7624626981.5337254399l4.3739999295,9.0961821606.9098764966,1.9061567454h.3303974001l-.0584505096-2.0027365948v-9.5333277512h1.6850438039l-.0076320729,12.4891427186Zm4.9178781981.6658828487v-13.1550255674h1.705380486v13.1550255674h-1.705380486Zm11.4013551567-11.6656777304v11.6656777304h-1.7028364617v-11.6656777304h-4.3002852741v-1.4893400808h10.3211996676v1.4893400808h-4.3180779319Zm12.6797583932,11.6656777304h-1.7028364617v-4.6510193562l-4.4349944634-8.503998455h1.8197374808l2.7956965599,5.5481834875c.2312735263.4778111985.4269772495,1.0166169309.5998002662,1.4868038126h.1347091893l.6023442905-1.4664671306,2.7956965599-5.5685201695h1.8019603354l-4.4349944634,8.5421277948.0228807064,4.6128900164Z"/></svg>