<svg xmlns="http://www.w3.org/2000/svg" width="192" height="192" viewBox="0 0 144 144" xmlns:v="https://vecta.io/nano"><style><![CDATA[.P,.O{mix-blend-mode:multiply}.A{isolation:isolate}.Q{opacity:.41}.R{fill:#e3547d}.S{fill:#421925}.T{stroke-width:1.236}]]></style><g class="A" fill="none"><path d="M91.104 40.489s12.821-2.618 18.113 0 8.867 7.692 7.58 10.909l-1.716 4.331s26.928 21.646 28.414 30.826 0 53.98 0 53.98-5.093 12.118-21.432 11.751-23.978-6.074-23.978-6.074l-53.05-3.29s-12.307-1.102-12.095-10.098 8.488-31.764 8.488-31.764-9.554-8.446-8.491-8.997 6.156-6.426 6.156-6.426l10.61 4.957s-.212-9.731 3.395-14.321 15.308-15.056 15.308-15.056 7.231-16.488 22.699-20.729z" fill="#40bbcf"/><path d="M84.687 20.279s2.093-2.989 5.443-1.721 1.465 9.601-1.047 9.872-4.815-1.54-4.815-1.54l12.247 24.364s-9.421 12.861-16.12 14.039-4.815-6.34-3.978-10.053.733-9.329-.419-10.959-2.303-2.989-2.303-2.989-6.595 1.268-9.63-.815-1.989-17.571-1.779-19.473 1.465-8.876 1.465-8.876l21.144 2.627-.209 5.525z" fill="#fd86ca"/><g class="S"><ellipse cx="74.47" cy="21.212" rx=".914" ry=".79"/><ellipse cx="65.513" cy="20.422" rx=".837" ry=".725"/></g><path d="M84.687 20.279l-7.511 14.004s-4.86-4.195-7.495-4.628-7.738-.374-7.738-.374-2.314 13.711 5.953 13.217 10.493-2.285 12.92-6.979 3.871-13.279 3.871-13.279v-1.96z" fill="#631719"/><path d="M68.405 17.649l-2.762 12.005 2.762-.853V17.649z" class="R"/><path d="M72.146 18.241s.998-.571 1.411-.592 4.842.946 4.842.946l-6.253-.354zm-8.151-.805s2.142-.676 2.355-.547 0 .761 0 .761l-2.355-.214z" fill="#781215"/><path d="M65.358 32.426s.593 3.007 3.047 2.923 3.372-2.422 3.372-2.422l-6.419-.501z" fill="#fdfae9"/><path d="M83.979 22.771s.182-4.356 3.783-4.649 5.228 3.135 3.741 7.071-3.523 3.684-5.451 2.991-2.291-4.13-2.073-5.414z" class="R"/><path d="M80.846 14.251s1.824 4.522 3.078 5.446l.764.582s1.615-2.404 3.301-2.157 4.149 1.349 3.72 4.486-1.651 5.776-3.481 5.869-3.959-1.586-3.959-1.586.909 2.89 4.138 3.108l-1.148-.344s8.25.344 9.257-3.724-.465-6.893-3.372-8.042l1.615.234s-.969-1.32-3.05-1.724l-5.778-1.211c-.646-.311-1.034-.433-1.034-.433l-4.051-.503z" fill="#631719"/><path d="M84.896 14.754s-6.732.85-11.34.315-10.453-2.819-11.352-2.941-13.937-1.776-14.162-1.678-.281-.292-.281-.292.899-.292 3.99 0 32.514 3.99 33.145 4.597z" fill="#f7262b"/><path d="M48.042 10.449s-.169.731 1.967 1.678 13.366 2.123 13.366 2.123l.3-1.698s-2.214-.523-3.221-.65l-12.413-1.454z" fill="#911619"/><path d="M84.896 14.754s1.695-4.872-1.427-7.68-10.775-3.231-13.468-1.854-5.668 6.475-5.668 6.475l20.564 3.058z" fill="#f74347"/><path d="M33.971 91.197s-7.444-4.748-8.558-4.877-7.356-3.536-7.876-3.986-2.823-5.786-2.823-5.786 10.105 4.115 10.997 4.243 4.607.386 4.607.386-.743-1.222-1.56-1.543-4.414-2.572-4.414-2.572 7.089-.9 8.204-.514 1.783 5.938 3.121 7.276 3.052 2.242 3.052 2.242l-4.747 5.131z" fill="#fd86ca"/><path d="M30.04 80.774s-3.36-.022-4.329.017S5.017 68.118 5.085 67.648 5.766 66 6.446 66 30.04 80.774 30.04 80.774z" class="S"/><g stroke-miterlimit="10"><g stroke="#534bde" stroke-width=".618"><path d="M108.425 58.051L77.957 69.444c0-.333 19.511-9.73 21.049-11.393l7.593-8.316M71.037 60.961s1.48 7.235.74 6.819-2.374-4.408-2.374-4.408l.769 4.425m49.768 1.654s-8.488 9.027-9.125 15.82 1.061 33.233 0 31.948-4.032-30.295-3.82-31.03l2.546-8.813m-1.116 38.741l-4.612-12.852m-49.29-9.908l-7.708 11.327-13.879-12.62"/><path d="M33.971 91.197l14.127 11.601m1.447-2.126L35.05 90.41m16.059 7.965L35.862 89.24m16.991 6.571l-15.504-7.858m16.419 6.513l-15.473-7.8m8.52 18.019l51.269 41.528m-48.539-39.316v36.307m0-19.568s-14.585 6.908-13.684 6.022 10.953-6.022 10.953-6.022l-8.096-1.576m.374-36.422l67.027 32.682s4.696-1.011 15.094-1.056 17.188 2.892 13.793 2.525-21.544-1.247-21.544-1.247 13.692 9.326 10.934 8.224-11.883-7.528-11.883-7.528"/></g><path d="M73.557 69.451v9.945m-4.154-9.945v7.001" stroke="#f74347" class="T"/><g stroke="#421925" class="T"><path d="M87.49 23.652v50.771s-.494 12.334-9.092 13.53-23.713-1.308-28.696 2.643m-7.404 9.981s-1.237 9.814-12.258 9.814-13.184-13.499-14.11-17.642-.927-15.134-6.951-18.326-7.414-5.999-6.951-7.87 3.578 0 3.578 0"/><path d="M69.403 41.673v46.575"/></g></g><ellipse cx="87.49" cy="23.652" rx="1.362" ry="1.179" class="S"/><g class="R"><path class="O Q" d="M63.676 12.553s8.311 4.473 11.596 4.319 7.126-1.119 7.312-1.172 2.312-.945 2.312-.945L78 15.217c-.496 0-7.186-.804-8.982-1.286l-5.342-1.378zm1.967 17.102s1.227-2.227 1.994-2.088.767 1.397.767 1.397l-2.762.691zm7.914-8.443s-1.944-2.989 0-3.108 4.645-.11 4.401.491-3.487 3.01-3.487 3.01l-.914-.393zm-8.882-.502s-1.755-3.032 0-3.213 2.512 2.2 1.675 2.924-1.675.288-1.675.288z"/><path class="O Q" d="M76.549 14.754s1.149 13.47-.673 18.471-4.1 8.873-4.1 8.873 3.391.683 6.622-.995 5.325-5.559 5.525-7.215 1.734-4.234 1.734-4.234l-1.389-2.764s2.889 1.265 4.235-.173.875-6.403-1.013-6.439-2.803 1.96-2.803 1.96l.669-2.687s-2.021-.29-2.643-1.43-1.656-3.368-1.656-3.368h-4.507z"/><path class="O Q" d="M66.75 29.378s2.538-.234 4.208 1.1l5.973 4.873 7.966-14.511.177-1.015-9.162 12.601s-2.835-2.67-4.825-3.059-4.336.011-4.336.011z"/></g><g fill="#a83e5d"><path class="P Q" d="M82.226 14.944l.166.301c.363.621 1.276 1.986 2.295 2.015 1.32.038 6.069-.167 8.504 1.539s2.592 5.73.543 7.777-4.65 1.854-4.65 1.854 3.941-2.692 2.285-5.957-4.381-3.968-5.541-3.309-1.335 1.46-1.335 1.46-1.875-1.669-2.664-2.975-.983-2.531-.983-2.531"/><path class="P Q" d="M75.912 4.461s2.436 2.38 2.061 4.268l-1.385 6.517h6.235c1.336-.184 2.074-.491 2.074-.491s.925-3.301 0-5.607-3.207-4.085-8.985-4.686z"/></g><g class="R"><path class="O Q" d="M79.229 36.717s2.217 8.07 3.099 10.251 3.799 15.337 3.799 15.337 2.919-2.032 5.925-3.668 4.463-7.383 4.463-7.383L84.268 26.891l-5.039 9.826z"/><path class="O Q" d="M92.429 43.125s3.899 6.722 2.726 8.632-12.059 13.628-14.759 13.536-4.484-.333-4.484-.333.981 4.984 4.934 3.528 25.005-15.094 27.579-19.55 1.004-6.038-3.226-6.702-12.77.889-12.77.889z"/><path class="O Q" d="M75.333 55.413s-3.066 4.302-2.64 6.892 5.264 7.139 5.264 7.139-2.586-6.79-2.046-7.016.506-7.189.506-7.189m35.975-12.729s1.592 9.089-2.718 12.903-22.404 12.411-21.17 12.385 10.858.026 12.058 0 .089 27.282 0 31.926 5.558 18.596 5.558 18.596 12.084-.268 15.134 6.73 8.105 26.479 8.105 26.479 13.925-3.792 14.135-10.992.206-52.289.206-52.289-2.848-6.04-5.231-10.331c-3.244-5.841-23.388-22.187-23.388-22.187s3.157-5.698 1.304-8.448-3.993-4.772-3.993-4.772z"/><path class="O Q" d="M122.062 152.287s-13.321 2.559-31.036-11.791L34.862 94.849s-1.539-1.648-1.756-2.063.276-1.963.276-1.963l-7.408-4.313c-.561-.191-3.772-1.548-5.011-2.216s-2.671-.679-3.427-1.961-2.654-5.398-2.654-5.398L36.44 88.668s78.619 59.764 81.59 59.764 14.642 2.02 14.642 2.02-4.499 1.89-10.61 1.836z"/><path class="O Q" d="M37.349 85.212l-4.746 5.007 1.577.845 4.538-4.998-1.369-.854zm41.88 45.729s-28.02 3.87-34.128 3.87-6.009.732-6.009.732 15.119 2.56 24.842 1.646 14.023.197 14.023.197l-31.142 2.546h-8.519s-1.379 2.488 14.558 3.477l43.662 2.805-17.286-15.272z"/></g></g></svg>