<?xml version="1.0" encoding="UTF-8"?><svg id="b" xmlns="http://www.w3.org/2000/svg" width="949.1961488998" height="507.7553868094" viewBox="0 0 949.1961488998 507.7553868094"><defs><style>.e{fill:#ff940a;}.e,.f,.g,.h,.i,.j{stroke-miterlimit:10;}.e,.i{stroke:#191818;}.k,.h{fill:#bababa;}.f,.g,.h,.j{stroke:#bababa;}.f,.i{fill:#fff;}.g{stroke-width:.5px;}.g,.l{fill:#f9f9f9;}.m{fill:none;isolation:isolate;}.n{fill:#0025db;}.j{fill:#e4e5e6;}</style></defs><g id="c"><path class="l" d="m944.7118830547,233.6950264282V20.3935148071H218.3545745308c-2.0166296683.4998750242-4.2194017561.8223750181-6.5462766803.9191250259-10.1761958812.4031250164-20.4144550157.0322499706-30.5285994787-.6450000359-.8997278111-.0644999892-1.7994556222-.161249997-2.6681518067-.27412499H13.9618830547v483.75h4.5296499708c2.6681495876-.5321033695,5.5224497313-.4676387977,8.1906000586,0h725.8608986578c6.6703558465-.9029961,13.1235613171-.8707638142,19.0183395292,0h173.1505117836v-240.7301239788c-1.0548386039-1.0481152008-1.7063370721-2.2736309978-1.7373923689-3.7248712149-.1861424195-8.1269895049,1.5512499495-16.205630581,1.4581787397-24.3487608336,0-.5805010078.0930712097-1.128745125.2792136292-1.6608730993v.0161407477Z"/><path class="i" d="m381.3325206106,184.803442647l-2.2546218043,1.855223287-8.1551139417-9.793837938-1.6150157716,2.7282653189c.0781018843-2.6935273568-.7301339291-6.277943459-1.6612118726-8.9374722242,2.4471364125,1.400152284,5.8482560365,2.8571493346,8.5231434629,3.2937998466l-2.9905731989,1.0700445121,8.163501604,9.7228263852-.0101084778.0611508124Z"/><path class="n" d="m380.7672175376,195.4402664511l-2.3999938965-4.2100067139.6799926758-.3800048828,3.0299987793,2.0099945068-1.6100006104-2.8099975586.6499938965-.3699951172,2.3999938965,4.2100067139-.7100067139.3999938965-2.9700012207-1.9600067139,1.5700073242,2.75-.6499938965.3699951172.0100097656-.009979248Z"/><path class="n" d="m384.2672175376,193.4702652304l-2.3999938965-4.2100067139.6999969482-.3899993896.9499969482,1.6600036621,1.3800048828-.7799987793-.9499969482-1.6600036621.6999969482-.3899993896,2.3999938965,4.2100067139-.6999969482.3899993896-1.0500030518-1.8399963379-1.3800048828.7799987793,1.0500030518,1.8399963379-.6999969482.3899993896Z"/><path class="n" d="m390.9172114341,189.730274996l-.7599945068.4299926758-.8500061035-.7799987793-1.3899993896.7799987793.2599945068,1.1199951172-.75.4199981689-1.0500030518-4.9799957275.7400054932-.4199981689,3.8000030518,3.4299926758v.0000152588Zm-2.2400054932-.9400024414l-1.3699951172-1.2899932861.4199981689,1.8300018311.9499969482-.5399932861v-.0000152588Z"/><path class="f" d="m948.5487834015,235.3845834435l-2.4199829102,6.5700073242c-.1300048828-.0400390625-2.950012207-1.0900268555-5.5300292969-2.4600219727-5.2599487305-.9400024414-51.5999755859-.8099975586-60.7299804688-.2299804688-5.2100219727.3299560547-9.4099731445,2.6099853516-11.9099731445,3.9599609375-1.1100463867.6000366211-1.9100341797,1.0400390625-2.6900024414,1.2700195312-4.3000488281,1.2600097656-18.5200195312,5.4000244141-20.7100219727,5.4000244141-2.5800170898,0-68.0200195312-16.0300292969-68.6400146484-16.200012207-5.8200073242-1.5200195312-69-9.5900268555-78.2699584961-10.6199951172-9.2400512695-1.0300292969-41.1400146484-6.8400268555-45.8900146484-8.2100219727-4.2100219727-1.2100219727-22.5599975586-4.5999755859-32.3099975586-6.0700073242-7.2900390625-1.0899658203-11.8500366211,1.0700073242-17.1400146484,3.5800170898-.700012207.3300170898-1.4099731445.6699829102-2.1199951172,1-3.0999755859,1.4199829102-11.3499755859,4.6699829102-19.3200073242,7.8099975586-6.9600219727,2.7399902344-15.6099853516,6.1500244141-16.7899780273,6.799987793-2.0599975586,1.2200317383-34.1199951172,19.8400268555-39.0500488281,22.7100219727-.0099487305.3999633789-.0199584961.7899780273-.0199584961,1.1900024414-5.549987793,2.5799560547-15.7600097656,7.2699584961-22.1300048828,9.8399658203-5.9799804688,2.4200439453-13.6699829102,4.7900390625-21.25,6.6199951172.6300048828,4.1300048828,1.7700195312,12.0700073242,3.8800048828,27.5400390625l3.9799804688,23.5700073242v26.6999511719c.0200195312.2300415039.0800170898.9100341797.1799926758,1.9100341797.0300292969.3300170898.0700073242.700012207.1099853516,1.0999755859,0,.5400390625.0100097656,1.25.0300292969,2.0700073242.0599975586,3.3900146484.3300170898,8.7200317383,1.2899780273,11.8300170898,1.5800170898,5.1499633789,14,40.200012207,14.1199951172,40.549987793l10.2200317383,32.1599731445c.0100097656.0600585938,1.1500244141,6.3300170898,4.7199707031,9.7400512695,4.1400146484,3.9400024414,19.7400512695,16.9499511719,19.9000244141,17.0799560547.5599975586.4800415039,13.200012207,11.5100097656,9.3599853516,34.0900268555l-.0299682617.1599731445-2.4299926758,10.3099975586-4.8600463867-1.1399536133,2.4000244141-10.2400512695c3.3300170898-19.7599487305-7.549987793-29.2599487305-7.6599731445-29.3499755859-.6300048828-.5299682617-15.8700561523-13.2299804688-20.1300048828-17.2899780273-4.4300537109-4.2300415039-5.9200439453-11.0800170898-6.1600341797-12.3200073242l-10.0700073242-31.6099853516c-.4799804688-1.3699951172-12.549987793-35.4200439453-14.1599731445-40.6700439453-1.5599975586-5.0599975586-1.549987793-14.2099609375-1.5300292969-16.1900024414-.0999755859-1.0899658203-.1599731445-1.7699584961-.1799926758-1.8999633789v-26.5900268555l-3.9299926758-23.2699584961c-1.1500244141-8.4100341797-2.8800048828-20.7900390625-3.8200073242-27.1700439453-1.8300170898.3900146484-3.6300048828.7300415039-5.3599853516,1.0300292969-8.299987793,1.4199829102-20.0800170898,6.2600097656-21.9700317383,7.049987793l-111.6899414062,70.1699829102-26.2700195312,23.6900024414c-1.5,1.7600097656-10.8200073242,11.8500366211-29.3400268555,15.5599975586-17.3800048828,3.4700317383-42.7199707031,6.5300292969-46.6799926758,6.9899902344l-43.700012207,19.1900024414-26.2399902344,12.5400390625c-.0800170898.0299682617-9.0899658203,3.1099853516-18.7600097656,10.6900024414-9.4299926758,7.3999633789-21,16.4699707031-32.6199951172,16.4699707031-.9199829102,0-1.8399658203-.0599975586-2.7600097656-.1799926758l-.4699707031-.0900268555c-9.1099853516-2.4899902344-34.0999755859-20.3699951172-37.5900268555-22.8899536133-1.6499633789-.950012207-17.9400024414-10.2399902344-27.6099853516-10.7700195312-10.7799682617-.5900268555-16.2699584961.0100097656-31.2299804688,8.6400146484-3,1.7299804688-4.8900146484,2.8599853516-6.0899658203,3.5999755859l.3699951172.7800292969c-2.9200439453,1.3699951172-6.2300415039,2.9299926758-7.9000244141-.2800292969-1.5700073242-2.9899902344,1.3599853516-4.8699951172,2.9400024414-5.8800048828,1.4899902344-.950012207,3.9099731445-2.3999633789,7.1799926758-4.2799682617,16.4600219727-9.5,23.3400268555-10.2100219727,35.1099853516-9.5700073242,11.8400268555.6499633789,30.1400146484,11.3499755859,30.9100341797,11.8099975586l.2799682617.1699829102c7.4799804688,5.4100341797,28.2200317383,19.75,35.25,21.8500366211,9.5700073242,1.0699462891,20.8400268555-7.7700195312,29.9099731445-14.8900146484,9.9200439453-7.7700195312,19.0700073242-11.1900024414,20.6400146484-11.7399902344l10.8599853516-5.200012207-8.9899902344-10.9100341797c-11.5999755859-17.2599487305-24.9899902344-36.2599487305-27.299987793-38.1900024414-3.3900146484-2.4399414062-8.2700195312-5.1799926758-8.3099975586-5.1999511719-1.6900024414-.950012207-2.2899780273-3.0800170898-1.3499755859-4.7700195312.9499511719-1.6799926758,3.0799560547-2.2899780273,4.7699584961-1.3400268555.2100219727.1200561523,5.2700195312,2.9600219727,9.0300292969,5.6700439453,3.7299804688,2.700012207,21.3499755859,28.5999755859,28.8699951172,39.7799682617l9.7799682617,11.8400268555,8.4600219727-4.049987793,44.700012207-19.6300048828.5299682617-.0599975586c.2800292969-.0300292969,28.1200561523-3.2600097656,46.6300048828-6.9600219727,17.4299926758-3.4899902344,25.3800048828-13.2199707031,25.4600219727-13.3200073242l.3900146484-.4099731445,23.5399780273-21.2300415039c.0100097656-.4299926758.0100097656-.8499755859.0100097656-1.2799682617l115.8699951172-72.7800292969.2600097656-.1099853516c.1199951172-.049987793.75-.3200073242,1.7600097656-.7299804688-1.8800048828-3.1300048828-4.4000244141-7.3400268555-5.9000244141-9.9100341797-2.7399902344-4.6900024414-6.8599853516-14.9299926758-14.200012207-35.3399658203-6.2600097656-17.4200439453-12.5199584961-22.1199951172-16.25-24.9299926758-.5299682617-.3900146484-1.0199584961-.7700195312-1.4699707031-1.1400146484-2.25-1.8599853516-24.4100341797-23.5200195312-40.8099975586-39.6099853516l-.1699829102.1999511719c-3.1300048828-2.7099609375-30.700012207-26.6099853516-34.8300170898-33.2099609375-4.5900268555-7.3500366211-12.2800292969-16.0599975586-20.5599975586-23.3099975586-10.2100219727-8.9299926758-29.4299926758-27.2700195312-40.299987793-38.1300048828l-1.5800170898-1.5800170898c-11.2399902344-11.25-30.049987793-30.0800170898-37.9000244141-33.799987793-29.3200073242-13.8699951172-45.7899780273-22.2299804688-48.9799804688-24.8699951172l3.1799926758-3.8599853516c1.6199951172,1.3399658203,9.9899902344,6.2599487305,47.9000244141,24.1999511719,8.6699829102,4.1000366211,27.1300048828,22.5700073242,39.3399658203,34.8000488281l1.5700073242,1.5699462891c10.8099975586,10.8100585938,29.9199829102,29.0400390625,40.0599975586,37.9100341797,8.7600097656,7.6599731445,16.6000366211,16.5599975586,21.5100097656,24.4199829102,3.1500244141,5.049987793,25.5100097656,24.8599853516,33.8599853516,32.0700073242l-.7699584961.9000244141c.049987793,0,.0899658203-.0100097656.1399536133-.0100097656s.1100463867-.0200195312.1600341797-.0200195312c18.1900024414,17.8400268555,38.5999755859,37.7700195312,40.6199951172,39.4299926758.3800048828.3200073242.8099975586.6500244141,1.3300170898,1.0300292969,4.0699462891,3.0700073242,10.8899536133,8.200012207,17.5299682617,26.6799926758,7.1599731445,19.9099731445,11.3200073242,30.2899780273,13.9000244141,34.7100219727,1.5799560547,2.6999511719,4.299987793,7.2399902344,6.1999511719,10.3999633789,4.950012207-1.8800048828,12.4300537109-4.4699707031,18.5400390625-5.5100097656,9.8800048828-1.6999511719,21.5999755859-4.9499511719,29.8599853516-8.2899780273v-.0100097656c5.9199829102-2.3900146484,15.549987793-6.8099975586,21.1599731445-9.4099731445l-.3499755859-.5900268555c.3200073242-.1900024414,27.75-16.1300048828,36.8300170898-21.4199829102-.1900024414-5.1300048828-.5900268555-15.8500366211-.700012207-19.4700317383-.1300048828-4.7399902344-4.299987793-33.3200073242-5.0700073242-37.049987793-.3200073242-1.549987793-2.2299804688-9.7099609375-4.450012207-19.1699829102-3.3699951172-14.4199829102-7.1999511719-30.7600097656-7.6999511719-33.4700317383-1.1100463867-6.1099853516-4.2100219727-21.6900024414-4.950012207-23.4499511719-.950012207-2.1800537109-3.9600219727-9.8800048828-4.0800170898-10.2100219727l-.1099853516-.3300170898c-.200012207-.8699951172-1.9600219727-8.5199584961-1.8099975586-11.6099853516.0100097656-.3599853516.0399780273-.7100219727.0599975586-1.049987793.1499633789-2.1900024414.2199707031-3.2900390625-1.5400390625-5.5-2.0699462891-2.5900268555-12.7099609375-13.6199951172-18.0399780273-19.0900268555l-.5100097656-.5199584961-2.0399780273-9.5599975586-10.2700195312-12.6100463867,3.8699951172-3.1599731445,11.0300292969,13.549987793,2,9.3200073242c2.7399902344,2.8200073242,15.3699951172,15.8300170898,17.8599853516,18.950012207,2.9799804688,3.7199707031,2.799987793,6.3800048828,2.6300048828,8.9599609375-.0200195312.3000488281-.0399780273.6199951172-.0599975586.9400024414-.0800170898,1.7800292969.950012207,7.0400390625,1.6499633789,10.0700073242.450012207,1.1500244141,3.1000366211,7.9299926758,3.9400024414,9.8500366211,1.2700195312,2.8999633789,5.2600097656,24.3399658203,5.2900390625,24.549987793.4699707031,2.5899658203,4.450012207,19.5800170898,7.6499633789,33.2299804688,2.2200317383,9.4899902344,4.1400146484,17.6799926758,4.4800415039,19.299987793.8599853516,4.1900024414,5.0399780273,32.9800415039,5.1699829102,37.9200439453.0800170898,3.0999755859.4000244141,11.4499511719.5999755859,16.9899902344,2.6199951172-1.1300048828,7.5400390625-3.0800170898,15.6400146484-6.2700195312,7.8900146484-3.1099853516,16.0400390625-6.3200073242,18.9700317383-7.6699829102.6900024414-.3099975586,1.3599853516-.6300048828,2.0399780273-.950012207,5.5200195312-2.6199951172,11.7899780273-5.5999755859,21.1799926758-4.1799926758,9.0599975586,1.3699951172,28.3400268555,4.8599853516,33.2100219727,6.2700195312,4.4599609375,1.2799682617,35.9699707031,7,44.7199707031,7.9699707031,8.8900146484.9899902344,72.7399902344,9.0999755859,79.2800292969,10.8099975586,6.950012207,1.8300170898,61.5199584961,14.9400024414,66.9099731445,15.9400024414,2.1400146484-.3800048828,11.4299926758-2.9799804688,17.1900024414-4.6500244141l-3.5-11.5799560547c-.8200073242-2.5900268555-4.7600097656-15.9800415039-.8800048828-21.6100463867,3.9200439453-5.6699829102,8.5100097656-9.0999755859,12.5900268555-9.4099731445,3.1199951172-.2399902344,17.7899780273-.7199707031,20.3699951172-.8099975586,1.1499633789-.4099731445,5.7600097656-2.299987793,6.7700195312-6.3499755859.4400024414-1.7800292969.9199829102-3.200012207,1.3999633789-4.5800170898,1.1799926758-3.4600219727,2.200012207-6.450012207,2.0599975586-14.2399902344-.2299804688-12.8900146484-1.4699707031-36.9899902344-2.1599731445-39.4100341797-.6400146484-2.0599975586-1.4100341797-6.4099731445-2.0300292969-9.9099731445-.2600097656-1.4899902344-.4899902344-2.7900390625-.6599731445-3.6199951172-.1000366211-.4800415039-.2600097656-1.3099975586-.4600219727-2.3699951172-.6599731445-3.450012207-2.6499633789-13.8900146484-3.4400024414-15.5900268555-1.2799682617-1.9400024414-5.3599853516-11.8800048828-5.5-14.1900024414-.0999755859-1.7099609375.1199951172-19,.1500244141-20.9699707031.0399780273-9.9800415039-.0800170898-21.1799926758-.3400268555-22.5800170898-.3099975586-1.4299926758-2.9299926758-7.9099731445-4.3299560547-11.3900146484-.5300292969-1.3099975586-.9900512695-2.4400024414-1.2800292969-3.1900024414-1.299987793-3.3200073242-1.8699951172-6.9799804688-1.8900146484-7.1400146484l4.9400024414-.7599487305c0,.0299682617.5100097656,3.2799682617,1.6099853516,6.0799560547.2900390625.7400512695.7300415039,1.8400268555,1.2600097656,3.1400146484,2.2800292969,5.6600341797,4.2100219727,10.4899902344,4.5800170898,12.200012207.4899902344,2.25.4699707031,18.700012207.450012207,23.6900024414-.1000366211,7.3699951172-.2300415039,19.4699707031-.1600341797,20.6199951172.200012207,1.450012207,3.7200317383,10.3400268555,4.6400146484,11.6799926758.8099975586,1.1199951172,1.6500244141,4.0200195312,4.2200317383,17.4600219727.1999511719,1.0299682617.3499755859,1.8499755859.4499511719,2.3099975586.1700439453.8599853516.4100341797,2.2099609375.6800537109,3.75.5699462891,3.1799926758,1.3399658203,7.5399780273,1.8899536133,9.3099975586,1.0700073242,3.4599609375,2.2200317383,31.7699584961,2.3800048828,40.7899780273.1600341797,8.6699829102-1.1099853516,12.3699951172-2.3300170898,15.950012207-.4599609375,1.3400268555-.8899536133,2.5999755859-1.2799682617,4.1599731445-1.8400268555,7.4300537109-10.1199951172,9.9400024414-10.4700317383,10.0400390625l-.299987793.0899658203-.3200073242.0100097656c-.1799926758.0100097656-17.2799682617.5599975586-20.5199584961.799987793-2.4600219727.1900024414-5.9299926758,3.0400390625-8.8500366211,7.2800292969-1.8399658203,2.6499633789-.1699829102,11.8800048828,1.5400390625,17.2899780273l3.3099975586,10.9700317383c3-1.5400390625,7.5100097656-3.5100097656,13.0399780273-3.8500366211,4.1900024414-.2699584961,19.5-.4599609375,33.4400024414-.4699707031,28.3099975586.0200195312,29.7200317383.799987793,30.75,1.3599853516,2.2200317383,1.2100219727,4.9000244141,2.200012207,4.9299926758,2.2100219727Z"/><path class="h" d="m490.0188151398,351.3145761193c-.0700073242-.0300292969-.1400146484-.0599975586-.2100219727-.0800170898-.0200195312-.8200073242-.0300292969-1.5299682617-.0300292969-2.0700073242.0700073242.6400146484.1500244141,1.3599853516.2400512695,2.1500244141Z"/><path class="k" d="m489.7887736358,348.0645761193c0,.0200195312-.0100097656.4299926758-.0100097656,1.0999755859-.0399780273-.3999633789-.0799560547-.7699584961-.1099853516-1.0999755859h.1199951172Z"/><rect class="j" x="885.0447482233" y="202.2685148071" width="14.9662921348" height="7.1460674157"/><rect class="j" x="901.2919392344" y="210.3584024475" width="6.0000000001" height="5.9999999999"/><rect class="j" x="901.2919392344" y="217.0999754812" width="6.0000000001" height="12"/><rect class="j" x="884.1009279986" y="210.3584024475" width="15.9101123596" height="11.7303370787"/><rect class="j" x="885.0447482233" y="223.0999754812" width="15.6404494382" height="8.1573033708"/><rect class="j" x="877.3593549649" y="225.1898631217" width="6.7415730337" height="4.8539325843"/><rect class="j" x="877.3593549649" y="217.0999754812" width="5.9999999992" height="6"/><rect class="j" x="874.797557212" y="202.8078406498" width="8.0898876404" height="5.9325842697"/><rect class="j" x="868.595310021" y="203.6168294138" width="4.8539325843" height="6.606741573"/><rect class="j" x="909.0278942907" y="209.8359305374" width="8.6460674157" height="21.1348314607"/><rect class="j" x="909.0278942907" y="197.0437957059" width="8.6460674157" height="12.7921348315"/><rect class="j" x="919.39306283" y="197.0437957059" width="27.202247191" height="7.2808988764"/><rect class="j" x="859.5803097538" y="245.1786271666" width="11.8988764045" height="19.6179775281" transform="translate(-33.9885437415 184.0843594724) rotate(-11.9081888259)"/><rect class="j" x="877.3593549649" y="251.8864923352" width="6.3370786517" height="8.2247191011" transform="translate(-35.5044275721 297.8267145316) rotate(-18.8253348666)"/><rect class="j" x="890.1683437289" y="241.2348069419" width="6.7415730337" height="7.5505617978"/><rect class="j" x="898.6627257514" y="242.5831215486" width="12.404494382" height="7.2808988764"/><rect class="j" x="936.786321257" y="243.1561552565" width="6.6741573034" height="9.808988764"/><rect class="j" x="845.8087931671" y="251.7516608745" width="6.1348314607" height="9.4382022472" transform="translate(-24.8353351578 104.8257568824) rotate(-6.9647262284)"/><rect class="j" x="850.3256470997" y="235.4370541329" width="8.0898876405" height="3.9775280899" transform="translate(-32.1496053418 217.3742001311) rotate(-14.2346626594)"/><rect class="j" x="835.4267706952" y="248.7853687397" width="7.9550561798" height="10.9213483146" transform="translate(66.7600603073 -160.7979401876) rotate(11.3925467293)"/><rect class="j" x="837.381826875" y="229.2010990767" width="7.5337078652" height="10.6685393258" transform="translate(62.9009841402 -161.5308694657) rotate(11.3925467292)"/><rect class="j" x="825.0447482233" y="247.9089642453" width="8.2247191011" height="12.3370786517" transform="translate(66.5248671138 -158.7771351319) rotate(11.3925467292)"/><rect class="j" x="814.2582313693" y="245.1449193014" width="8.4943820225" height="13.3483146067" transform="translate(65.8688889869 -156.717607684) rotate(11.3925467292)"/><rect class="j" x="823.5278942907" y="228.3921103127" width="7.3820224719" height="10.6179775281" transform="translate(96.1411641822 -218.4411987467) rotate(15.9593907479)"/><rect class="j" x="814.5278942907" y="225.9651440206" width="6.7752808989" height="9.9101123596" transform="translate(76.8797630098 -185.2239405079) rotate(13.5514575286)"/><rect class="j" x="807.1458718188" y="228.9988518857" width="6.4136494106" height="5.5365168539" transform="translate(94.9593250241 -213.8782758415) rotate(15.959390748)"/><rect class="j" x="800.2694673244" y="240.5269417734" width="8.191011236" height="13.9550561798"/><rect class="j" x="809.5728381109" y="244.2685148071" width="4.1460674157" height="5.3595505618"/><rect class="j" x="792.179579684" y="240.5269417734" width="6.6741573034" height="11.2921348315"/><rect class="j" x="795.5166583356" y="218.5831215486" width="10.9213483146" height="12.0337078652"/><rect class="j" x="806.8425010323" y="217.3696384026" width="4.8033707865" height="6.6741573034"/><rect class="j" x="782.3705909199" y="216.257278852" width="9.404494382" height="11.0224719101"/><rect class="j" x="771.1458718188" y="236.8864923352" width="10.5168539326" height="18.1011235955"/><rect class="j" x="751.2919392345" y="233.0100878408" width="5.5955056176" height="5.5955056184"/><rect class="j" x="699.9211527177" y="209.2797507621" width="5.9325842697" height="4.1797752809"/><rect class="j" x="698.3031751896" y="190.1336833464" width="7.5505617978" height="9.8426966292"/><rect class="j" x="691.0222763132" y="181.2348069419" width="5.5280898876" height="7.0112359551"/><rect class="j" x="688.190815639" y="206.7179530093" width="4.0449438202" height="7.2808988764"/><rect class="j" x="678.2132875491" y="204.0213237958" width="8.2247191006" height="8.2247191017"/><rect class="j" x="659.4717145154" y="190.1336833464" width="5.5280898876" height="8.0898876404"/><rect class="j" x="653.8087931671" y="197.6842451441" width="7.8202247191" height="9.9775280899"/><rect class="j" x="651.5166583356" y="218.448290088" width="7.9550561798" height="9.4382022472"/><rect class="j" x="661.0896920435" y="226.8078406498" width="8.2247191011" height="15.3707865169"/><rect class="j" x="675.786321257" y="308.5157058183" width="12.404494382" height="12.4044943837"/><rect class="j" x="651.5166583356" y="270.2235709869" width="7.9550561798" height="7.9550561808"/><rect class="j" x="818.5054223806" y="270.2235709869" width="5.4943820221" height="5.4943820229"/><rect class="j" x="887.9436246278" y="161.4145822228" width="7.0786516854" height="7.2134831461"/><rect class="j" x="884.7076695716" y="152.650537279" width="8.0898876404" height="7.0786516854"/><rect class="j" x="886.4604785604" y="146.9202002003" width="4.8539325839" height="4.8539325846"/><rect class="j" x="916.8649729424" y="138.9988518857" width="6.9775280899" height="10.1123595506"/><rect class="j" x="908.4717145154" y="159.7291889644" width="7.2808988764" height="8.8988764045"/><rect class="j" x="910.9998044031" y="178.8752563801" width="6.0674157303" height="9.1011235955"/><rect class="j" x="909.988568448" y="120.4932339082" width="13.7528089888" height="11.1235955056"/><rect class="j" x="865.4941864255" y="87.7291889644" width="8.8988764045" height="11.1235955056"/><rect class="j" x="869.9436246278" y="72.3584024475" width="6.4719101124" height="8.2921348315"/><rect class="j" x="874.39306283" y="59.4145822228" width="6.6741573034" height="7.8876404494"/><rect class="j" x="895.0222763132" y="70.1336833464" width="8.8988764045" height="12.7415730337"/><rect class="j" x="903.9211527177" y="97.6393013239" width="11.5280898876" height="14.7640449438"/><rect class="j" x="895.0222763132" y="33.7291889644" width="14.6629213483" height="19.8202247191"/><rect class="j" x="525.988568448" y="443.8864923352" width="8.0898876404" height="7.5505617978"/><rect class="j" x="535.5616021559" y="453.9988518857" width="6.9438202242" height="6.9438202252"/><rect class="j" x="524.7750853019" y="469.7741327846" width="9.9775280899" height="10.7865168539"/><rect class="j" x="507.1121639536" y="386.0437957059" width="8.4943820219" height="8.494382023"/><rect class="j" x="539.033512268" y="354.4932339082" width="7.7022471906" height="7.7022471916"/><rect class="j" x="502.2582313693" y="348.6145639122" width="9.1011235952" height="9.1011235964"/><rect class="j" x="465.0447482233" y="344.3808743576" width="13.7528089888" height="14.9662921348"/><rect class="j" x="438.7526133918" y="362.1954810998" width="13.3483146067" height="8.4775280893"/><rect class="j" x="515.6065459755" y="270.2235709869" width="8.494382023" height="11.8651685393"/><rect class="j" x="556.4604785604" y="264.6954810992" width="9.5056179768" height="9.5056179781"/><rect class="j" x="599.1346358637" y="193.7067170543" width="8.6966292135" height="6.8764044944"/><rect class="j" x="582.9548605828" y="202.4033462677" width="9.1297516525" height="6.7909458412"/><rect class="j" x="545.3368830547" y="178.4370541329" width="6.6741573034" height="8.797752809"/><rect class="j" x="561.2132875488" y="96.0213237958" width="9.1516853928" height="9.1516853941"/><rect class="j" x="537.4492426053" y="77.4145822228" width="8.0898876404" height="11.3258426966"/><rect class="j" x="518.9773324929" y="104.246042897" width="16.1123595506" height="10.5842696629"/><rect class="j" x="518.9773324929" y="75.8977282902" width="9.2696629213" height="7.9887640449"/><rect class="j" x="534.2132875491" y="215.0775035711" width="6.606741573" height="5.393258427"/><rect class="j" x="533.1346358637" y="224.5157058183" width="6.8764044944" height="6.0674157303"/><rect class="j" x="560.6402538413" y="239.7516608745" width="9.8426966292" height="7.6853932584"/><rect class="j" x="622.0171298499" y="209.1942921089" width="11.9714385981" height="14.7820878667"/><rect class="j" x="511.1571077738" y="237.9988518857" width="6.1685393254" height="6.1685393263"/><rect class="j" x="506.7076695716" y="245.8864923352" width="5.8037174689" height="3.7069783023"/><rect class="j" x="504.4829504705" y="241.0831215488" width="2.5112359545" height="2.5112359548"/><rect class="j" x="485.0672201334" y="238.8078406498" width="7.8876404494" height="5.3595505622"/><rect class="j" x="474.5243917007" y="249.5934706375" width="11.4811203194" height="10.102448095" transform="translate(-61.2370461248 206.9589452969) rotate(-22.9007017022)"/><rect class="j" x="485.0672201334" y="266.3134586273" width="9.9101123596" height="11.7303370787"/><rect class="j" x="500.6402538413" y="262.6730091891" width="5.0983146065" height="7.5505617978"/><rect class="j" x="511.1571077738" y="258.1883124483" width="7.2808988764" height="6.5071686509"/><rect class="j" x="503.1894111445" y="316.6730091891" width="6.4201171615" height="6.4201171624"/><rect class="j" x="460.8477577043" y="273.2724907898" width="5.9497995078" height="8.6814172757" transform="translate(-62.4581667765 154.2072023654) rotate(-17.7052238671)"/><rect class="j" x="454.0399866106" y="276.4853939159" width="5.4766717251" height="10.8617725766" transform="translate(-68.4530023531 171.2127104931) rotate(-19.78013579)"/><rect class="j" x="451.8312650772" y="247.7399814863" width="13.6179775281" height="11.9559372462" transform="translate(-55.4366165161 151.4993020317) rotate(-17.7052238671)"/><rect class="j" x="450.8874448525" y="262.6730091891" width="9.3033707865" height="4.9887640449" transform="translate(-67.2806715155 198.1666491763) rotate(-22.9007017022)"/><rect class="j" x="433.380972745" y="265.0626392909" width="5.5510729945" height="5.5510719796" transform="translate(-75.5142658194 280.5977458029) rotate(-32.9820504213)"/><rect class="j" x="441.3312650775" y="264.4426721101" width="5.0056179772" height="5.0056179779" transform="translate(-74.0102496898 257.680950075) rotate(-30)"/><rect class="j" x="488.5728381109" y="246.8977282902" width="7.4831460674" height="5.7303370787" transform="translate(-52.6387877382 161.5529479536) rotate(-17.7052238671)"/><rect class="j" x="448.1789145899" y="280.3850427428" width="4.7191011236" height="7.5505617978" transform="translate(-81.7194528726 263.3394971962) rotate(-30)"/><rect class="j" x="435.5458558165" y="287.6787426261" width="4.7191011236" height="7.5505617978" transform="translate(-87.0588117623 258.0001383063) rotate(-30)"/><rect class="j" x="429.1750692996" y="292.1280070718" width="4.7191011236" height="7.5505617978" transform="translate(-90.1369675364 255.4108334554) rotate(-30)"/><rect class="j" x="423.3122851422" y="295.3409960129" width="4.7191011236" height="7.5505617978" transform="translate(-92.5289261471 252.9099002727) rotate(-30)"/><rect class="j" x="415.8359604445" y="299.8293451598" width="4.7191011236" height="7.5505617978" transform="translate(-95.7747383031 249.7730626885) rotate(-30)"/><rect class="j" x="410.5785061803" y="302.8647377944" width="4.7191011236" height="7.5505617978" transform="translate(-97.9967999326 247.551001059) rotate(-30)"/><rect class="j" x="406.0279443826" y="306.1006928506" width="4.7191011236" height="7.5505617978" transform="translate(-100.2244371401 245.7092559321) rotate(-30)"/><rect class="j" x="382.2826669758" y="321.2817291093" width="4.7191011236" height="7.5505617978" transform="translate(-110.996219222 235.8704904316) rotate(-30)"/><rect class="j" x="393.8304621844" y="314.6146064373" width="4.7191011236" height="7.5505617978" transform="translate(-106.1155466858 240.751162968) rotate(-30)"/><rect class="j" x="400.7100857403" y="310.6426539255" width="4.7191011236" height="7.5505617978" transform="translate(-103.2078756419 243.658834012) rotate(-30)"/><rect class="j" x="372.3103902298" y="327.0392257729" width="4.7191011236" height="7.5505617978" transform="translate(-115.2109993042 231.6557103493) rotate(-30)"/><rect class="j" x="392.1306149489" y="324.1066415032" width="4.7191011236" height="7.5505617978" transform="translate(-111.0893005657 241.1729309155) rotate(-30)"/><rect class="j" x="367.759828432" y="331.4884902186" width="4.7191011236" height="7.5505617978" transform="translate(-118.0452912065 229.976517858) rotate(-30)"/><rect class="j" x="347.2317385444" y="340.6907374096" width="4.7191011236" height="7.5505617978" transform="translate(-125.3966573558 220.9453402659) rotate(-30)"/><rect class="j" x="360.0744351736" y="338.0615239265" width="4.7191011236" height="7.5505617978" transform="translate(-122.361455519 227.0144407657) rotate(-30)"/><rect class="j" x="342.4452216904" y="345.7469171849" width="4.7191011236" height="7.5505617978" transform="translate(-128.5660189062 219.2294814827) rotate(-30)"/><rect class="j" x="334.759828432" y="351.0727598815" width="4.7191011236" height="7.5505617978" transform="translate(-132.2585877131 216.1003124783) rotate(-30)"/><rect class="j" x="318.0116947436" y="366.2075929671" width="11.508705682" height="4.7191011237" transform="translate(-164.2708782345 318.7058168851) rotate(-42.8689615531)"/><rect class="j" x="441.4579837921" y="283.5134508285" width="6.2154308827" height="9.3888977777" transform="translate(-84.5434398126 260.8953866075) rotate(-30)"/><rect class="j" x="147.5166583356" y="400.4033462677" width="11.9325842697" height="12.1348314607"/><rect class="j" x="135.381826875" y="416.9876159307" width="12.3370786517" height="9.9101123596"/><rect class="j" x="187.9660965379" y="363.3921103127" width="10.9213483146" height="12.7415730337"/><rect class="j" x="121.0222763132" y="364.4033462677" width="6.4719101119" height="6.4719101128"/><rect class="j" x="133.9660965379" y="343.9763799756" width="16.3820224719" height="5.6629213483"/><rect class="j" x="160.2582313693" y="305.5494136835" width="12.9438202247" height="10.3146067416"/><rect class="j" x="217.4941864255" y="346.8078406498" width="5.0561797753" height="6.2696629214"/><rect class="j" x="232.4604785604" y="341.1449193014" width="9.7078651685" height="7.6853932584"/><rect class="j" x="238.9323886727" y="331.0325597509" width="6.0674157303" height="7.8876404494"/><rect class="j" x="242.1683437289" y="325.5718855936" width="7.6853932584" height="9.1011235955"/><rect class="j" x="222.5503662008" y="372.0887395262" width="10.3146067416" height="11.3258426966"/><rect class="j" x="236.1009279986" y="381.1898631217" width="8.8988764045" height="5.4606741573"/><rect class="j" x="259.1571077738" y="355.9089642453" width="11.1235955056" height="12.7415730337"/><rect class="j" x="299.2020515941" y="341.8368048254" width="13.5505617978" height="10.0272155997"/><rect class="j" x="318.6177819311" y="334.6730091891" width="12.5393258427" height="9.7930091194"/><rect class="j" x="341.8762088974" y="321.3246945823" width="7.7150802087" height="7.7150802098"/><rect class="j" x="351.584074066" y="298.6730091891" width="8.8988764045" height="6.0674157303"/><rect class="j" x="357.8537369873" y="312.0213237958" width="6.3685635395" height="6.3685635404"/><rect class="j" x="372.4155347401" y="288.9651440205" width="14.9662921348" height="11.7303370787"/><rect class="j" x="304.6627257514" y="318.3898873362" width="9.7078651685" height="6.792347351"/><rect class="j" x="278.9773324929" y="316.2685148071" width="10.1123595506" height="12.9438202247"/><rect class="j" x="247.8312650772" y="300.6954810992" width="13.1460674157" height="14.9662921348"/><rect class="j" x="238.9323886727" y="285.7291889643" width="9.5056179775" height="8.4943820225"/><rect class="j" x="186.3320593762" y="207.9412266459" width="33.5730337079" height="21.0337078652" transform="translate(-87.0817911553 149.4302908908) rotate(-33.7039686449)"/><rect class="j" x="167.9436246278" y="251.9539080655" width="7.6853932584" height="5.2584269663"/><rect class="j" x="162.2807032795" y="236.7853687396" width="8.2921348315" height="5.6629213483"/><rect class="j" x="188.3705909199" y="241.0325597509" width="5.865168539" height="5.8651685397"/><rect class="j" x="193.2245235042" y="257.2123350318" width="5.2584269663" height="4.6516853933"/><rect class="j" x="207.988568448" y="308.1786271666" width="2.0224719101" height="5.8651685393"/><rect class="j" x="195.8537369873" y="318.6954810992" width="3.8426966292" height="5.2584269663"/><rect class="j" x="220.7301414817" y="254.5831215486" width="3.235955056" height="3.2359550564"/><rect class="j" x="225.381826875" y="261.864020425" width="2.2247191011" height="2.8314606742"/><rect class="j" x="229.2245235042" y="266.5157058183" width=".808988764" height="2.2247191011"/><rect class="j" x="217.4941864255" y="251.9539080655" width="3.2359550562" height="1.9756582882"/><rect class="j" x="210.8200291222" y="241.0325597509" width="5.4606741573" height="4.2471910112"/><rect class="j" x="220.7301414817" y="234.1561552565" width="5.7640449438" height="5.7640449446"/><rect class="j" x="220.7301414817" y="227.4819979531" width="4.2471910109" height="4.2471910115"/><rect class="j" x="191.3031751894" y="202.8078406497" width="7.1797752811" height="4.8539325843"/><rect class="j" x="173.2020515941" y="216.3584024475" width="8.0898876405" height="7.6853932584"/><rect class="j" x="234.0784560885" y="218.4580805785" width="4.2471910112" height="5.9902095095"/><rect class="j" x="379.1571077738" y="305.8864923352" width="4.6516853933" height="3.6404494382"/><rect class="j" x="385.2919392345" y="303.3921103127" width="4.1123595506" height="2.4943820225"/><rect class="j" x="372.4155347401" y="308.9876159307" width="4.4157303368" height="4.4157303374"/><rect class="j" x="347.8762088974" y="308.5157058183" width="6.0674157303" height="8.2247191011"/><rect class="j" x="332.1009279986" y="325.7741327846" width="4.7191011236" height="3.2656420075"/><rect class="j" x="394.3087931671" y="281.7853687397" width="4.8539325843" height="8.6966292135"/><rect class="j" x="403.7638493469" y="285.6280653689" width="5.5112359551" height="7.1292134831"/><rect class="j" x="410.8425010323" y="283.0494136835" width="6.9775280899" height="4.5505617978"/><rect class="j" x="399.1627257514" y="265.1673912116" width="6.4213483146" height="8.2247191011"/><rect class="j" x="420.5503662008" y="273.3921103127" width="5.1214695032" height="5.1214695039"/><rect class="j" x="430.6627257514" y="271.5718855936" width="7.2426806269" height="6.0413138341"/><rect class="j" x="394.3087931671" y="296.650537279" width="4.1966292135" height="6.0674157303"/><rect class="j" x="429.8537369873" y="252.3584024475" width="6.3027722549" height="4.8539325843"/><rect class="j" x="426.5166583356" y="244.7741327846" width="7.8876404494" height="4.2471910112"/><rect class="j" x="422.9773324929" y="238.2010990767" width="6.3707865169" height="3.2359550562"/><rect class="j" x="443.8340740661" y="241.4370541329" width="8.0646067414" height="6.4719101124"/><rect class="j" x="440.3705909199" y="233.246042897" width="7.9887640449" height="4.5505617978"/><rect class="j" x="421.7638493469" y="231.1224473913" width="8.2921348315" height="3.6404494382"/><rect class="j" x="715.9660965379" y="206.7179530093" width="15.1011235955" height="9.5393258427"/><rect class="j" x="655.4941864255" y="98.9876159307" width="9.5056179775" height="10.5505617978"/><rect class="j" x="699.9211527177" y="133.7741327846" width="7.4157303371" height="4.3146067416"/><rect class="j" x="707.3368830547" y="144.8303125599" width="3.2359550562" height="5.9325842697"/><rect class="j" x="691.0222763132" y="160.2010990767" width="11.0561797753" height="6.7415730337"/><rect class="j" x="599.1346358637" y="383.4145822228" width="13.5505617978" height="10.3146067416"/><rect class="j" x="592.0846122353" y="429.3246945824" width="9.4913039483" height="9.4913039496"/><rect class="j" x="577.0896920435" y="331.0325597509" width="16.3820224707" height="16.3820224729"/><rect class="j" x="787.0728381109" y="289.1926721104" width="21.3876404494" height="12.5140449438"/><rect class="g" x="876.2132875491" y="187.9763799756" width="5.7977528086" height="5.7977528094"/><rect class="g" x="849.4155347401" y="173.5831215486" width="5.4606741573" height="4.4494382022"/><rect class="g" x="892.0559841783" y="177.3246945824" width="6.404494382" height="5.9662921348"/><rect class="g" x="892.0559841783" y="170.246042897" width="5.983146067" height="5.9831460678"/><rect class="g" x="892.5278942907" y="135.9314361554" width="6.1348314607" height="6.1348314615"/><rect class="g" x="882.8874448525" y="119.2123350318" width="6.8426966283" height="6.8426966292"/><rect class="g" x="882.0110403577" y="96.0213237958" width="6.8764044946" height="6.8764044956"/><rect class="g" x="898.6627257514" y="101.6842451441" width="4.1797752809" height="7.8539325843"/><rect class="g" x="873.179579684" y="84.6954810992" width="5.6629213483" height="3.0337078652"/><rect class="g" x="858.0784560885" y="72.3584024475" width="7.4157303371" height="7.4157303381"/><rect class="g" x="860.0335122682" y="294.4258181779" width="2.6292134831" height="5.2584269663"/><rect class="g" x="829.1571077738" y="275.7179530097" width="9.0337078652" height="6.1685393254"/><rect class="g" x="849.0576629993" y="261.202777897" width="5.3129279206" height="5.3129279213"/><rect class="g" x="823.9998044027" y="267.3246945823" width="6.7078651689" height="8.0898876404"/><rect class="g" x="811.6458718188" y="256.4707619981" width="4.702247191" height="10.8539325843"/><rect class="g" x="804.3649729424" y="257.6168294138" width="4.095505618" height="7.2808988764"/><rect class="g" x="787.0728381109" y="238.6055934592" width="4.702247191" height="3.9775280895"/><rect class="g" x="762.4829504712" y="249.864020425" width="5.1235955049" height="5.1235955056"/><rect class="g" x="761.5391302457" y="240.5269417734" width="7.6853932584" height="5.4101123596"/><rect class="g" x="693.2807032795" y="205.4370541329" width="6.0674157303" height="4.3483146067"/><rect class="g" x="701.7750853019" y="205.4370541329" width="4.0449438202" height="2.0224719101"/><rect class="g" x="614.3031751896" y="235.5213237958" width="7.7139546603" height="7.7139546614"/><rect class="g" x="609.7189055267" y="242.3387395263" width="8.4412469931" height="8.4412469942"/><rect class="g" x="642.6177819311" y="279.661773234" width="9.7078651685" height="12.6741573034"/><rect class="g" x="556.4604785604" y="292.757278852" width="9.1011235955" height="10.8473472067"/><rect class="g" x="499.1571077738" y="363.5269417734" width="6.7415730337" height="8.6292134831"/><rect class="g" x="236.5054223806" y="488.650537279" width="8.8988764045" height="7.0112359551"/><rect class="g" x="221.4042987851" y="477.5943575037" width="13.7528089888" height="9.1685393258"/><rect class="g" x="254.3031751896" y="426.8977282902" width="8.0898876404" height="11.0561797753"/><rect class="g" x="216.2807032795" y="406.4707619981" width="8.3595505618" height="12.8764044944"/><rect class="g" x="164.7750853019" y="453.3246945823" width="12.9438202247" height="10.2471910112"/><rect class="g" x="129.179579684" y="454.6730091891" width="12.3707865169" height="12.3707865185"/><rect class="g" x="324.8874448525" y="391.5718855936" width="12.2319341413" height="10.2471910112"/><rect class="g" x="328.4604785604" y="418.5381777284" width="8.6589004335" height="3.5056179775"/><rect class="g" x="331.0034119232" y="412.5381777284" width="4.4494382016" height="4.4494382022"/><rect class="g" x="344.8047722522" y="409.9089642453" width="4.1500883306" height="6.202247191"/><rect class="g" x="336.8200291222" y="420.4258181779" width="5.0561797753" height="5.393258427"/><rect class="g" x="339.2469954143" y="433.9089642453" width="5.5577768379" height="6.7415730337"/><rect class="g" x="328.7301414817" y="425.8190766048" width="4.4979895423" height="6.606741573"/><rect class="g" x="313.6290178862" y="371.3471664925" width="4.9887640449" height="7.2808988764"/><rect class="g" x="304.6627257514" y="354.8480407804" width="8.0898876404" height="8.0898876415"/><rect class="g" x="313.6290178862" y="349.5221980838" width="6.7415730337" height="8.0721594199"/><rect class="g" x="340.8649729424" y="327.4069537884" width="6.0148434752" height="6.014843476"/><rect class="g" x="342.0258838333" y="301.7067170543" width="7.5654052729" height="7.5654052739"/><rect class="g" x="362.4339857354" y="305.8864923352" width="8.9028973194" height="11.5280898876"/><rect class="g" x="259.1571077738" y="341.1449193014" width="7.5505617977" height="11.3258426966" transform="translate(586.706924812 55.9828604691) rotate(85.2363583093)"/><rect class="g" x="267.786321257" y="333.4217972643" width="10.2471910112" height="13.3860433854"/><rect class="g" x="252.6851976615" y="325.7741327846" width="14.3406861705" height="14.3406861724"/><rect class="g" x="230.0335122682" y="336.8303125599" width="7.1460674148" height="7.1460674157"/><rect class="g" x="237.3144111446" y="315.864020425" width="6.3707865169" height="6.3707865177"/><rect class="g" x="181.2245235042" y="372.0887395262" width="8.3595505618" height="7.3483146067"/><rect class="g" x="274.5278942907" y="367.6393013241" width="7.0112359551" height="3.2359550564"/><rect class="g" x="133.9660965379" y="374.9876159307" width="7.5842696629" height="7.5842696639"/><rect class="g" x="52.4604785604" y="436.2010990767" width="13.1460674157" height="6.4719101124"/><rect class="g" x="56.1009279986" y="428.5157058183" width="7.0786516854" height="4.2471910112"/><rect class="g" x="17.8762088974" y="446.7179530093" width="13.9550561798" height="13.3483146067"/><rect class="g" x="281.5391302457" y="83.8864923352" width="17.6629213483" height="30.9438202247" transform="translate(.8464029748 201.1568150227) rotate(-38.2617887235)"/><circle id="d" class="e" cx="456.7783224731" cy="282.0887395262" r="4.4325842697"/><g class="m"><g class="m"><path d="m375.0109416046,322.1011056603l-2.259765625-3.6513671875.69921875-.43359375,1.2001953125,1.9375.2431640625-1.4384765625.861328125-.5341796875-.3056640625,1.52734375,2.0087890625,1.078125-.755859375.4677734375-1.400390625-.7763671875-.115234375.54296875.525390625.84765625-.701171875.4326171875Z"/><path d="m377.2589884796,318.1675119103l-.70703125.2783203125c-.0859375-.2998046875-.0810546875-.5654296875.017578125-.7958984375.0986328125-.2314453125.3193359375-.4521484375.6630859375-.6650390625.3125-.193359375.5673828125-.30078125.7666015625-.3212890625.1982421875-.0205078125.3642578125.0068359375.49609375.0810546875.1328125.076171875.29296875.265625.482421875.568359375l.4970703125.822265625c.1435546875.232421875.26171875.3974609375.3525390625.4931640625.0908203125.09765625.2060546875.189453125.345703125.27734375l-.693359375.4287109375c-.046875-.03515625-.111328125-.08984375-.1953125-.1640625-.037109375-.03515625-.0625-.0576171875-.0751953125-.0673828125-.0478515625.1904296875-.1220703125.3564453125-.2216796875.4990234375s-.2275390625.2607421875-.3828125.3564453125c-.271484375.1689453125-.53125.2275390625-.7802734375.1767578125-.2490234375-.0498046875-.4423828125-.1884765625-.5830078125-.4140625-.091796875-.1494140625-.138671875-.3046875-.140625-.466796875,0-.16015625.044921875-.3125.134765625-.455078125.08984375-.140625.2421875-.310546875.455078125-.5068359375.2890625-.263671875.48046875-.4619140625.57421875-.5927734375l-.04296875-.0703125c-.083984375-.134765625-.17578125-.208984375-.279296875-.2265625-.1005859375-.0146484375-.244140625.0341796875-.427734375.1484375-.125.076171875-.20703125.162109375-.24609375.25390625s-.04296875.2119140625-.009765625.3623046875Zm1.2880859375-.0126953125c-.0712890625.0859375-.19140625.2099609375-.3603515625.37109375-.16796875.162109375-.26953125.28125-.3046875.3583984375-.05078125.12109375-.046875.2314453125.015625.3310546875.060546875.09765625.1494140625.16015625.265625.1865234375.1181640625.0263671875.2333984375.00390625.345703125-.0654296875.126953125-.078125.220703125-.1943359375.28515625-.3486328125.044921875-.115234375.052734375-.2265625.0224609375-.3349609375-.0185546875-.0712890625-.0791015625-.1904296875-.1826171875-.357421875l-.0869140625-.140625Z"/><path d="m380.7111369171,318.5727853478l-2.2607421875-3.6513671875.69921875-.43359375,2.26171875,3.6513671875-.7001953125.43359375Z"/><path d="m381.5128947296,315.5337228478l-.705078125.2783203125c-.087890625-.2998046875-.08203125-.5654296875.0166015625-.7958984375s.3193359375-.453125.6630859375-.666015625c.3125-.193359375.5673828125-.2998046875.765625-.3203125.19921875-.0205078125.365234375.0068359375.4970703125.0810546875.1328125.076171875.29296875.2646484375.4814453125.5693359375l.498046875.8212890625c.14453125.232421875.26171875.3974609375.3515625.4931640625.091796875.09765625.20703125.189453125.345703125.27734375l-.69140625.4287109375c-.046875-.03515625-.11328125-.08984375-.1962890625-.1650390625-.037109375-.0341796875-.0625-.056640625-.0751953125-.06640625-.0478515625.189453125-.1220703125.3564453125-.2216796875.4990234375-.1005859375.142578125-.2275390625.2607421875-.3818359375.3564453125-.2734375.1689453125-.533203125.2275390625-.78125.1767578125-.248046875-.0498046875-.443359375-.1884765625-.58203125-.4140625-.09375-.1494140625-.1396484375-.3046875-.1416015625-.466796875,0-.16015625.0439453125-.3115234375.1337890625-.4541015625.0908203125-.1416015625.2421875-.3115234375.4560546875-.5078125.2890625-.263671875.4794921875-.4619140625.5732421875-.5927734375l-.04296875-.0703125c-.0830078125-.134765625-.17578125-.208984375-.27734375-.2255859375-.1015625-.015625-.2451171875.033203125-.4296875.146484375-.125.078125-.2060546875.162109375-.2451171875.2548828125-.0400390625.091796875-.0439453125.2119140625-.0107421875.3623046875Zm1.2890625-.0126953125c-.072265625.0859375-.19140625.2099609375-.359375.3720703125-.169921875.1611328125-.271484375.2802734375-.306640625.357421875-.05078125.12109375-.0458984375.2314453125.015625.3310546875.060546875.09765625.150390625.16015625.267578125.1865234375.1171875.025390625.232421875.00390625.3447265625-.06640625.1259765625-.078125.220703125-.193359375.2841796875-.34765625.0458984375-.115234375.052734375-.2265625.0234375-.3349609375-.0185546875-.0712890625-.080078125-.1904296875-.18359375-.3583984375l-.0859375-.1396484375Z"/><path d="m382.9972697296,313.4985665978l.744140625-.4609375,1.794921875,1.486328125-.544921875-2.2607421875.7255859375-.4482421875.6416015625,3.1240234375.119140625.564453125c.033203125.1923828125.0478515625.345703125.04296875.4619140625-.005859375.1162109375-.029296875.220703125-.0693359375.3173828125-.0419921875.0947265625-.1064453125.189453125-.1943359375.2822265625-.087890625.09375-.197265625.181640625-.330078125.2646484375-.134765625.0830078125-.275390625.150390625-.4228515625.2021484375l-.4013671875-.5087890625c.123046875-.046875.228515625-.0966796875.31640625-.1513671875.162109375-.1005859375.25390625-.2236328125.271484375-.3671875.01953125-.14453125.00390625-.302734375-.044921875-.4755859375l-2.6484375-2.0302734375Z"/><path d="m387.1876994171,312.0200509728l-.7060546875.279296875c-.087890625-.2998046875-.08203125-.5654296875.017578125-.796875.09765625-.23046875.318359375-.4521484375.662109375-.6650390625.3125-.193359375.568359375-.2998046875.7666015625-.3203125s.3642578125.0068359375.4970703125.0810546875c.1328125.076171875.29296875.2646484375.48046875.568359375l.498046875.822265625c.14453125.232421875.26171875.3974609375.3525390625.4931640625.0908203125.0966796875.2060546875.189453125.3466796875.27734375l-.693359375.4287109375c-.046875-.03515625-.1123046875-.08984375-.1953125-.1650390625-.037109375-.0341796875-.0625-.056640625-.076171875-.0673828125-.046875.1904296875-.12109375.357421875-.220703125.5-.1005859375.142578125-.228515625.2607421875-.3828125.3564453125-.2724609375.1689453125-.5322265625.2275390625-.78125.1767578125-.248046875-.0498046875-.4423828125-.1884765625-.58203125-.4140625-.0927734375-.150390625-.138671875-.3046875-.140625-.466796875,0-.16015625.0439453125-.3125.1328125-.455078125.091796875-.140625.2431640625-.310546875.45703125-.5068359375.2890625-.2646484375.48046875-.4619140625.5732421875-.5927734375l-.04296875-.0703125c-.0830078125-.134765625-.17578125-.208984375-.2783203125-.2265625-.1015625-.015625-.244140625.033203125-.4287109375.1474609375-.1240234375.0771484375-.2060546875.162109375-.2451171875.2548828125-.0400390625.091796875-.04296875.2119140625-.0107421875.361328125Zm1.2880859375-.01171875c-.0703125.0859375-.19140625.208984375-.359375.37109375-.1689453125.162109375-.2705078125.28125-.306640625.3583984375-.05078125.12109375-.044921875.2314453125.0166015625.3310546875.060546875.09765625.1494140625.16015625.2666015625.1865234375s.232421875.00390625.345703125-.06640625c.1259765625-.078125.220703125-.1943359375.283203125-.34765625.046875-.115234375.0546875-.2275390625.0234375-.3349609375-.017578125-.0712890625-.080078125-.1904296875-.18359375-.3583984375l-.0859375-.1396484375Z"/><path d="m390.6144572296,312.4419259728l-2.259765625-3.65234375.69921875-.43359375,1.2001953125,1.9384765625.2431640625-1.4384765625.861328125-.5341796875-.3056640625,1.5263671875,2.0087890625,1.0791015625-.755859375.4677734375-1.400390625-.7763671875-.115234375.5419921875.525390625.84765625-.701171875.43359375Z"/><path d="m392.8625041046,308.5073556603l-.7060546875.2783203125c-.0869140625-.298828125-.0810546875-.564453125.0166015625-.7958984375.0986328125-.23046875.3193359375-.4521484375.6630859375-.6650390625.3125-.193359375.5673828125-.2998046875.7666015625-.3203125.19921875-.021484375.3642578125.005859375.49609375.080078125.1328125.076171875.29296875.265625.482421875.5693359375l.4970703125.822265625c.1435546875.232421875.26171875.3974609375.3525390625.4931640625.0908203125.09765625.2060546875.189453125.345703125.27734375l-.6923828125.4287109375c-.0478515625-.03515625-.1123046875-.08984375-.1962890625-.1650390625-.037109375-.0341796875-.0625-.056640625-.0751953125-.0673828125-.0478515625.1904296875-.1220703125.357421875-.2216796875.4990234375-.099609375.142578125-.2275390625.26171875-.3818359375.357421875-.2724609375.16796875-.5322265625.2275390625-.78125.1767578125-.2490234375-.0498046875-.4423828125-.1884765625-.58203125-.4140625-.0927734375-.150390625-.1396484375-.3056640625-.1416015625-.466796875,0-.1611328125.044921875-.3125.134765625-.455078125.08984375-.1416015625.2421875-.310546875.455078125-.5068359375.2890625-.2646484375.48046875-.462890625.57421875-.59375l-.04296875-.0693359375c-.083984375-.134765625-.17578125-.2099609375-.2783203125-.2265625-.1005859375-.015625-.2451171875.033203125-.4287109375.1474609375-.125.0771484375-.20703125.162109375-.24609375.25390625s-.04296875.212890625-.009765625.3623046875Zm1.2880859375-.01171875c-.0712890625.0849609375-.19140625.2099609375-.3603515625.37109375-.16796875.162109375-.26953125.28125-.3046875.3583984375-.05078125.12109375-.046875.2314453125.015625.3310546875.060546875.09765625.1494140625.16015625.2666015625.1865234375.1171875.025390625.232421875.00390625.3447265625-.06640625.126953125-.078125.220703125-.1943359375.28515625-.34765625.044921875-.115234375.052734375-.2275390625.0234375-.3349609375-.01953125-.0712890625-.080078125-.1904296875-.18359375-.3583984375l-.0869140625-.1396484375Z"/><path d="m398.7209025421,307.4243478478l-.7001953125.4326171875-.8359375-1.349609375c-.1767578125-.2861328125-.3056640625-.4619140625-.3876953125-.52734375-.08203125-.064453125-.1708984375-.099609375-.2666015625-.1044921875-.0966796875-.005859375-.19140625.021484375-.2861328125.080078125-.1220703125.0751953125-.2099609375.17578125-.2646484375.3017578125-.0556640625.1259765625-.06640625.2548828125-.03515625.38671875.033203125.1318359375.140625.345703125.3232421875.640625l.7412109375,1.1982421875-.69921875.43359375-1.6376953125-2.6455078125.6494140625-.40234375.240234375.388671875c.046875-.4423828125.244140625-.771484375.595703125-.98828125.154296875-.095703125.3125-.154296875.474609375-.1787109375.162109375-.0234375.302734375-.0126953125.421875.033203125s.224609375.115234375.318359375.208984375.2041015625.2431640625.330078125.447265625l1.0185546875,1.64453125Z"/><path d="m401.5187541046,305.6919259728l-.701171875.43359375-1.63671875-2.6455078125.650390625-.40234375.232421875.3759765625c.0009765625-.24609375.029296875-.42578125.08203125-.537109375.0546875-.111328125.1376953125-.2021484375.2509765625-.271484375.1591796875-.099609375.3408203125-.150390625.5419921875-.154296875l.162109375.7451171875c-.166015625-.0029296875-.298828125.0263671875-.400390625.0888671875-.09765625.060546875-.1640625.138671875-.19921875.2353515625-.0341796875.095703125-.02734375.2265625.0205078125.3916015625.0478515625.166015625.2119140625.47265625.4912109375.923828125l.505859375.81640625Z"/><path d="m401.8293009796,303.6177072228c-.14453125-.232421875-.2265625-.4921875-.24609375-.78125s.0390625-.5546875.1787109375-.7998046875c.1396484375-.244140625.3388671875-.4462890625.59765625-.607421875.3994140625-.2470703125.80859375-.3203125,1.2255859375-.21875.416015625.1015625.7470703125.3505859375.9921875.7470703125.248046875.400390625.3251953125.8125.228515625,1.234375-.09375.423828125-.337890625.755859375-.73046875.9990234375-.2421875.150390625-.5068359375.23828125-.794921875.265625-.2880859375.0263671875-.5546875-.03125-.80078125-.1708984375-.24609375-.1416015625-.4619140625-.36328125-.650390625-.66796875Zm.740234375-.40625c.162109375.26171875.349609375.4248046875.560546875.4873046875.2109375.0615234375.408203125.0361328125.58984375-.076171875.18359375-.11328125.29296875-.2783203125.330078125-.494140625s-.025390625-.45703125-.1904296875-.72265625c-.16015625-.2587890625-.345703125-.419921875-.5556640625-.4833984375-.2099609375-.0625-.40625-.037109375-.5888671875.076171875s-.2939453125.27734375-.3310546875.494140625c-.0390625.216796875.0234375.4560546875.185546875.71875Z"/><path d="m405.3351603546,300.7866525353l-.70703125.2783203125c-.0869140625-.2998046875-.0810546875-.5654296875.017578125-.7958984375.09765625-.23046875.3193359375-.4521484375.6630859375-.6650390625.3115234375-.193359375.5673828125-.30078125.7666015625-.3203125.1982421875-.021484375.36328125.005859375.49609375.080078125.1328125.076171875.29296875.265625.4814453125.5693359375l.498046875.8212890625c.1435546875.232421875.26171875.3974609375.3525390625.4931640625.0908203125.09765625.2060546875.189453125.345703125.2783203125l-.693359375.427734375c-.046875-.03515625-.111328125-.08984375-.1953125-.1640625-.037109375-.03515625-.0625-.0576171875-.076171875-.0673828125-.046875.1904296875-.12109375.3564453125-.220703125.4990234375s-.228515625.26171875-.3828125.3564453125c-.271484375.1689453125-.53125.2275390625-.78125.1767578125-.248046875-.0498046875-.44140625-.1884765625-.58203125-.4140625-.091796875-.1494140625-.138671875-.3046875-.140625-.466796875,0-.16015625.044921875-.3115234375.1337890625-.455078125.0908203125-.140625.2431640625-.310546875.4560546875-.5068359375.2890625-.263671875.48046875-.4619140625.57421875-.5927734375l-.04296875-.0703125c-.083984375-.134765625-.17578125-.208984375-.279296875-.2255859375-.1005859375-.015625-.244140625.033203125-.427734375.1474609375-.125.076171875-.20703125.162109375-.24609375.25390625s-.04296875.212890625-.009765625.3623046875Zm1.287109375-.0126953125c-.0703125.0859375-.1904296875.2099609375-.359375.37109375-.16796875.162109375-.26953125.28125-.3056640625.3583984375-.05078125.12109375-.0458984375.2314453125.0166015625.3310546875.060546875.09765625.1494140625.16015625.265625.1865234375.1181640625.0263671875.232421875.00390625.345703125-.0654296875.126953125-.078125.220703125-.1943359375.2841796875-.3486328125.0458984375-.115234375.0537109375-.2265625.0234375-.3349609375-.0185546875-.0712890625-.080078125-.1904296875-.18359375-.357421875l-.0869140625-.140625Z"/><path d="m411.2130900421,299.6899728478l-.6494140625.40234375-.2412109375-.388671875c-.0146484375.21875-.0712890625.41015625-.173828125.57421875-.1005859375.1650390625-.2265625.2939453125-.3759765625.38671875-.3037109375.1875-.638671875.2265625-1.0078125.1162109375-.3681640625-.1103515625-.6884765625-.3857421875-.9599609375-.82421875-.27734375-.4482421875-.3828125-.8544921875-.31640625-1.2177734375.06640625-.3642578125.2607421875-.646484375.5830078125-.845703125.294921875-.1826171875.626953125-.21875.9951171875-.10546875l-.8134765625-1.31640625.69921875-.4326171875,2.2607421875,3.6513671875Zm-2.72265625-.22265625c.1748046875.28125.3408203125.4619140625.4970703125.5400390625.224609375.1123046875.439453125.1064453125.642578125-.01953125.16015625-.099609375.255859375-.2529296875.283203125-.4599609375.029296875-.2060546875-.041015625-.4462890625-.2109375-.71875-.1875-.3037109375-.376953125-.48828125-.5703125-.5546875-.19140625-.0654296875-.3740234375-.044921875-.544921875.060546875-.166015625.1025390625-.2646484375.25390625-.294921875.45703125-.0302734375.2001953125.03515625.431640625.1982421875.6953125Z"/></g></g></g></svg>