<?xml version="1.0" encoding="UTF-8"?><svg xmlns="http://www.w3.org/2000/svg" width="500" height="500" viewBox="0 0 500 500"><defs><style>.d,.e{fill:#292b41;}.f{fill:#fff;}.g{fill:#9500d4;}.h{fill:none;}.h,.e{stroke:#292b41;stroke-linecap:round;stroke-linejoin:round;stroke-width:4px;}.i{fill:#e8303f;}.j{fill:#00b796;}.k{fill:#55ff5e;}.l{fill:#0055e9;}.m{fill:#f4c632;}.n{fill:#ec8a16;}</style></defs><g id="b"><path class="k" d="m166.3042920095,188.8091c-.5682920095,41.2445,25.5652993542,120.9735,98.0869975221,99.0605,72.5217104684-21.9131,93.4782976385-107.6873,41.3042989566-155.4783-52.173898682-47.7909-138.4811965017-9.621-139.3912964787,56.4178Z"/><rect class="f" x="163.6086920776" y="164.7739" width="172.7825956351" height="75.2261" rx="7.4999998105" ry="7.4999998105"/><path class="d" d="m328.8913879022,164.7739h-11.5237997089v75.2261h11.5237997089c4.1419998954,0,7.4999998105-3.3578,7.4999998105-7.5v-60.2261c0-4.1421-3.3579999152-7.5-7.4999998105-7.5Z"/><rect class="h" x="163.6086920776" y="164.7739" width="172.7825956351" height="75.2261" rx="7.4999998105" ry="7.4999998105"/><path class="e" d="m205.8141910114,196.2097h-27.5511910114c-1.6307082514,0-2.952608218-1.322-2.952608218-2.9527h0c0-1.6307,1.3218999666-2.9527,2.952608218-2.9527h27.5511910114c1.6306999588,0,2.9526999254,1.322,2.9526999254,2.9527h0c0,1.6307-1.3219999666,2.9527-2.9526999254,2.9527Z"/><path class="l" d="m248.2173899402,218.4783c0,24.8478.2608999934,58.1739-8.0103899402,91.2645l-.0002098575.0018c-9.6945997551-1.0283-18.9385995216-3.566-27.4926993055-7.3735l.0009091629-.0019c12.2301905281-40.4562,12.2301905281-59.0431,12.2301905281-83.8909h23.2721994121Z"/><path class="h" d="m248.2173899402,218.4783c0,24.8478.2608999934,58.1739-8.0103899402,91.2645l-.0002098575.0018c-9.6945997551-1.0283-18.9385995216-3.566-27.4926993055-7.3735l.0009091629-.0019c12.2301905281-40.4562,12.2301905281-59.0431,12.2301905281-83.8909h23.2721994121Z"/><path class="i" d="m221.8255906069,218.4783c0,23.6739-4.870899877,54.5316-19.119299517,78.6757-7.4452910899-4.4851-14.2019996412-9.9972-20.0738994929-16.3401l.001-.0011c11.1926997172-18.2476,14.9100996233-38.6606,14.9100996233-62.3345h24.2820993866Z"/><path class="h" d="m221.8255906069,218.4783c0,23.6739-4.870899877,54.5316-19.119299517,78.6757-7.4452910899-4.4851-14.2019996412-9.9972-20.0738994929-16.3401l.001-.0011c11.1926997172-18.2476,14.9100996233-38.6606,14.9100996233-62.3345h24.2820993866Z"/><path class="n" d="m194.3043913021,218.4783c0,14.0869-3.2318999184,36.5313-17.7028995528,55.1135-5.2335998678-6.9573-9.50009976-14.6832-12.6009996817-22.9778,6.3472998397-13.0597,6.8660998265-23.4425,6.8660998265-32.1357h23.4377994079Z"/><path class="h" d="m194.3043913021,218.4783c0,14.0869-3.2318999184,36.5313-17.7028995528,55.1135-5.2335998678-6.9573-9.50009976-14.6832-12.6009996817-22.9778,6.3472998397-13.0597,6.8660998265-23.4425,6.8660998265-32.1357h23.4377994079Z"/><path class="j" d="m251.7825898501,218.4783c0,24.8478-.2608999934,58.1739,8.0104101499,91.2645l.0001896478.0018c9.6945997551-1.0283,18.9385995216-3.566,27.4926993055-7.3735l-.0008889532-.0019c-12.2302107378-40.4562-12.2302107378-59.0431-12.2302107378-83.8909h-23.2721994121Z"/><path class="h" d="m251.7825898501,218.4783c0,24.8478-.2608999934,58.1739,8.0104101499,91.2645l.0001896478.0018c9.6945997551-1.0283,18.9385995216-3.566,27.4926993055-7.3735l-.0008889532-.0019c-12.2302107378-40.4562-12.2302107378-59.0431-12.2302107378-83.8909h-23.2721994121Z"/><path class="m" d="m278.1743891834,218.4783c0,23.6739,4.870899877,54.5316,19.119299517,78.6757,7.4453112996-4.4851,14.2019996412-9.9972,20.0738994929-16.3401l-.001-.0011c-11.1926997172-18.2476-14.9100996233-38.6606-14.9100996233-62.3345h-24.2820993866Z"/><path class="h" d="m278.1743891834,218.4783c0,23.6739,4.870899877,54.5316,19.119299517,78.6757,7.4453112996-4.4851,14.2019996412-9.9972,20.0738994929-16.3401l-.001-.0011c-11.1926997172-18.2476-14.9100996233-38.6606-14.9100996233-62.3345h-24.2820993866Z"/><path class="g" d="m305.6955884882,218.4783c0,14.0869,3.2318999184,36.5313,17.7028995528,55.1135,5.2335998678-6.9573,9.50009976-14.6832,12.6009996817-22.9778-6.3472998397-13.0597-6.8660998265-23.4425-6.8660998265-32.1357h-23.4377994079Z"/><path class="h" d="m305.6955884882,218.4783c0,14.0869,3.2318999184,36.5313,17.7028995528,55.1135,5.2335998678-6.9573,9.50009976-14.6832,12.6009996817-22.9778-6.3472998397-13.0597-6.8660998265-23.4425-6.8660998265-32.1357h-23.4377994079Z"/><line class="h" x1="170.8665918942" y1="218.4783" x2="329.1333878961" y2="218.4783"/><line class="h" x1="163.6086920776" y1="177.1611" x2="336.3912877127" y2="177.1611"/><path class="e" d="m224.0808905499,193.257c0-1.6307-1.3218905499-2.9527-2.9525999254-2.9527-1.6306999588,0-2.9526999254,1.322-2.9526999254,2.9527s1.3219999666,2.9527,2.9526999254,2.9527c1.6307093755,0,2.9525999254-1.322,2.9525999254-2.9527Z"/><path class="f" d="m204.0651910556,142.3043h91.8695976792c4.1393625791,0,7.4999998105,3.3606372314,7.4999998105,7.4999998105v14.9696001895h-106.8695973002v-14.9696001895c0-4.1393625791,3.3606372314-7.4999998105,7.4999998105-7.4999998105Z"/><path class="h" d="m204.0651910556,142.3043h91.8695976792c4.1393625791,0,7.4999998105,3.3606372314,7.4999998105,7.4999998105v14.9696001895h-106.8695973002v-14.9696001895c0-4.1393625791,3.3606372314-7.4999998105,7.4999998105-7.4999998105Z"/><path class="d" d="m207.3260909732,149.788h85.3477978439c1.5477904556,0,2.8043999292,1.2566094736,2.8043999292,2.8043999292v12.1815000708h-90.9565977022v-12.1815000708c0-1.5477904556,1.2566094736-2.8043999292,2.8043999292-2.8043999292Z"/></g><g id="c"><path d="m159.640625,343.072265625v-6.4677734375c1.4814453125,0,2.2221679688-.56640625,2.2221679688-1.6982421875,0-1.0361328125-.56640625-1.5537109375-1.6982421875-1.5537109375-1.14453125,0-1.7163085938.7109375-1.7163085938,2.1318359375v16.115234375h-7.3349609375v-15.3564453125c0-1.58984375.1596679688-2.8935546875.4790039062-3.9111328125.3188476562-1.017578125.8637695312-1.966796875,1.634765625-2.845703125.8671875-.9755859375,1.951171875-1.74609375,3.251953125-2.3125s2.6435546875-.849609375,4.0288085938-.849609375c2.5048828125,0,4.6098632812.84375,6.3139648438,2.529296875,1.7045898438,1.6865234375,2.556640625,3.7763671875,2.556640625,6.26953125,0,2.4208984375-.7651367188,4.3837890625-2.2944335938,5.8896484375-1.3974609375,1.384765625-3.5048828125,2.0771484375-6.3232421875,2.0771484375l-1.1201171875-.017578125Z"/><path d="m179.7485351562,333.5693359375v18.0302734375h-7.3349609375v-24.66015625h9.4125976562c2.8662109375,0,5.0883789062.7099609375,6.6665039062,2.130859375,1.7583007812,1.58984375,2.6376953125,3.607421875,2.6376953125,6.052734375,0,2.4931640625-1.0903320312,4.5947265625-3.2700195312,6.3046875l4.2275390625,10.171875h-7.6962890625l-3.5590820312-7.94921875v-6.341796875h.578125c1.5415039062,0,2.3125-.662109375,2.3125-1.986328125,0-1.1689453125-.8916015625-1.7529296875-2.673828125-1.7529296875h-1.30078125Z"/><path d="m201.8798828125,326.939453125v24.66015625h-7.3349609375v-24.66015625h7.3349609375Z"/><path d="m206.3061523438,351.599609375v-16.0068359375c0-2.806640625.8403320312-5.052734375,2.5200195312-6.7392578125,1.6806640625-1.685546875,3.9174804688-2.529296875,6.7119140625-2.529296875,2.7822265625,0,4.9111328125.8193359375,6.38671875,2.45703125,1.4750976562,1.638671875,2.212890625,3.9931640625,2.212890625,7.064453125v15.75390625h-7.3349609375v-15.75390625c0-1.505859375-.5361328125-2.2578125-1.6079101562-2.2578125-1.0361328125,0-1.5537109375.751953125-1.5537109375,2.2578125v15.75390625h-7.3349609375Z"/><path d="m239.3315429688,334.021484375v17.578125h-7.3349609375v-17.578125h-5.6186523438v-7.08203125h18.5541992188v7.08203125h-5.6005859375Z"/><path d="m257.0185546875,335.755859375v6.50390625h-2.0419921875v9.33984375h-7.3344726562v-24.66015625h7.3344726562v8.81640625h2.0419921875Zm8.5810546875-8.81640625v24.66015625h-7.3349609375v-24.66015625h7.3349609375Z"/><path d="m282.220703125,326.32421875c3.4931640625,0,6.4892578125,1.271484375,8.98828125,3.8125s3.7490234375,5.58203125,3.7490234375,9.123046875c0,3.6015625-1.2587890625,6.6611328125-3.7763671875,9.177734375-2.517578125,2.517578125-5.576171875,3.7763671875-9.177734375,3.7763671875-3.5771484375,0-6.6298828125-1.2646484375-9.1591796875-3.7939453125s-3.7939453125-5.58203125-3.7939453125-9.16015625c0-3.61328125,1.2734375-6.671875,3.8203125-9.177734375,2.5478515625-2.5048828125,5.6640625-3.7578125,9.349609375-3.7578125Zm-.216796875,7.263671875c-1.505859375,0-2.7880859375.5537109375-3.84765625,1.662109375-1.060546875,1.107421875-1.58984375,2.4443359375-1.58984375,4.009765625,0,1.56640625.5322265625,2.9033203125,1.5986328125,4.01171875,1.0654296875,1.107421875,2.345703125,1.662109375,3.8388671875,1.662109375,1.517578125,0,2.8037109375-.5517578125,3.857421875-1.6533203125,1.0537109375-1.1025390625,1.5810546875-2.4423828125,1.5810546875-4.0205078125,0-1.5771484375-.52734375-2.9169921875-1.5810546875-4.01953125-1.0537109375-1.1015625-2.33984375-1.65234375-3.857421875-1.65234375Z"/><path d="m315.734375,326.939453125v15.98828125c0,2.818359375-.83984375,5.0703125-2.5205078125,6.7568359375-1.6796875,1.6865234375-3.9169921875,2.529296875-6.7119140625,2.529296875-2.78125,0-4.9111328125-.8193359375-6.3857421875-2.45703125-1.4755859375-1.6376953125-2.2138671875-3.9931640625-2.2138671875-7.0634765625v-15.75390625h7.3359375v15.7353515625c0,1.505859375.53515625,2.2587890625,1.607421875,2.2587890625,1.0361328125,0,1.5537109375-.7529296875,1.5537109375-2.2587890625v-15.7353515625h7.3349609375Z"/><path d="m331.77734375,326.830078125v7.0283203125c-.5302734375-.1806640625-.939453125-.2705078125-1.228515625-.2705078125-.5537109375,0-1.0302734375.2041015625-1.4267578125.61328125-.3984375.41015625-.5966796875.904296875-.5966796875,1.482421875,0,.4931640625.216796875,1.119140625.650390625,1.87890625l.5595703125.974609375c1.01171875,1.7587890625,1.517578125,3.45703125,1.517578125,5.095703125,0,2.396484375-.8515625,4.42578125-2.5556640625,6.087890625-1.705078125,1.662109375-3.78515625,2.4931640625-6.2421875,2.4931640625-1.1806640625,0-2.3486328125-.2705078125-3.5048828125-.8134765625v-7.1357421875c.6982421875.4453125,1.318359375.6689453125,1.861328125.6689453125.6376953125,0,1.1708984375-.18359375,1.5986328125-.5517578125.4267578125-.3671875.6416015625-.828125.6416015625-1.3818359375,0-.361328125-.34375-1.150390625-1.0302734375-2.3671875-1.095703125-1.9267578125-1.6435546875-3.853515625-1.6435546875-5.78125,0-2.32421875.8271484375-4.326171875,2.4833984375-6.0068359375,1.65625-1.6796875,3.634765625-2.5205078125,5.9345703125-2.5205078125,1.01171875,0,2.005859375.1689453125,2.9814453125.505859375Z"/><path d="m348.650390625,336.5322265625v5.4921875h-4.787109375c-.650390625,0-1.111328125.0966796875-1.3818359375.2890625-.271484375.1923828125-.4072265625.517578125-.4072265625.9755859375,0,.517578125.138671875.8583984375.416015625,1.0205078125.27734375.1630859375.8427734375.244140625,1.6982421875.244140625h4.9326171875v7.0458984375h-5.763671875c-2.7099609375,0-4.78125-.6474609375-6.21484375-1.9423828125-1.43359375-1.2939453125-2.150390625-3.1640625-2.150390625-5.609375v-9.6650390625c0-2.361328125.677734375-4.19140625,2.033203125-5.4921875,1.3544921875-1.30078125,3.2607421875-1.951171875,5.7177734375-1.951171875h6.3779296875v7.08203125h-4.6796875c-1.2646484375,0-1.896484375.4091796875-1.896484375,1.228515625,0,.4814453125.150390625.8154296875.451171875,1.001953125.30078125.1875.8369140625.2802734375,1.607421875.2802734375h4.046875Z"/><path class="d" d="m223.109375,373.08203125l.287109375-.8095703125,1.8969726562-.861328125c1.1279296875-.533203125,1.9448242188-.80078125,2.4506835938-.80078125.396484375,0,.5947265625.181640625.5947265625.5439453125,0,.1298828125-.0532226562.33984375-.1591796875.630859375-.1059570312.2900390625-.2836914062.7060546875-.533203125,1.2451171875-.2495117188.541015625-.5380859375,1.154296875-.8662109375,1.8408203125-.328125.6875-.669921875,1.3935546875-1.025390625,2.1181640625.5126953125-.349609375.9619140625-.671875,1.3486328125-.9697265625.3857421875-.296875.8388671875-.6708984375,1.3583984375-1.1220703125l.0205078125.7275390625c-1.3125,1.134765625-2.529296875,2.2626953125-3.650390625,3.3837890625-.6767578125,1.3193359375-1.2749023438,2.3134765625-1.7944335938,2.984375-.51953125.6689453125-.9091796875,1.00390625-1.1689453125,1.00390625-.1845703125,0-.2768554688-.1806640625-.2768554688-.54296875,0-.4443359375.0991210938-.890625.2973632812-1.337890625.1982421875-.4482421875.5024414062-.919921875.9125976562-1.4150390625.41015625-.49609375.8955078125-1,1.4560546875-1.5126953125.8681640625-1.708984375,1.4814453125-2.951171875,1.8408203125-3.7275390625.3583984375-.775390625.5380859375-1.283203125.5380859375-1.5224609375,0-.150390625-.0717773438-.2255859375-.2153320312-.2255859375-.0751953125,0-.5844726562.220703125-1.5278320312.6611328125-.943359375.44140625-1.53125.662109375-1.763671875.662109375-.1435546875,0-.2153320312-.0791015625-.2153320312-.236328125,0-.1025390625.0649414062-.341796875.1948242188-.7177734375Zm6.5727539062-5.3115234375c0,.205078125-.0786132812.4921875-.2358398438.861328125-.1708984375.4990234375-.3232421875.830078125-.4560546875.994140625-.1337890625.1640625-.3369140625.24609375-.6103515625.24609375-.587890625,0-.8818359375-.1943359375-.8818359375-.583984375,0-.3076171875.1811523438-.748046875.5434570312-1.322265625.19140625-.30859375.3452148438-.498046875.4614257812-.5693359375.1162109375-.072265625.3041992188-.1083984375.5639648438-.1083984375.41015625,0,.615234375.1611328125.615234375.482421875Z"/><path class="d" d="m234.9833984375,374.8974609375v.6865234375c-.451171875.41015625-.8134765625.68359375-1.0869140625.8203125s-.6665039062.19140625-1.1791992188.1640625c-.888671875,1.052734375-1.6713867188,1.5791015625-2.3481445312,1.5791015625-.3828125,0-.7314453125-.1259765625-1.0458984375-.37890625s-.5659179688-.5986328125-.7534179688-1.0361328125c-.1884765625-.4375-.2822265625-.92578125-.2822265625-1.4658203125,0-.4375.1450195312-.923828125.435546875-1.45703125s.6669921875-1.0302734375,1.1279296875-1.4912109375c.4619140625-.4619140625.9555664062-.833984375,1.4819335938-1.1181640625.5263671875-.283203125,1.0151367188-.42578125,1.4663085938-.42578125.3212890625,0,.57421875.0498046875.7587890625.1494140625.1845703125.0986328125.2768554688.2373046875.2768554688.4150390625,0,.13671875-.0786132812.2939453125-.2358398438.4716796875.259765625.0546875.4375.1455078125.533203125.271484375.095703125.126953125.1435546875.357421875.1435546875.6923828125,0,.328125-.0771484375.7421875-.23046875,1.240234375-.154296875.5-.3642578125.9677734375-.630859375,1.4052734375l.1845703125.1845703125h.1538085938c.1162109375,0,.2309570312-.029296875.3432617188-.0869140625.11328125-.05859375.2138671875-.1201171875.302734375-.1845703125.0888671875-.0654296875.2836914062-.2109375.5844726562-.435546875Zm-2.1123046875-2.697265625c-.5673828125.341796875-1.052734375.6513671875-1.4560546875.927734375-.4033203125.27734375-.7451171875.5576171875-1.025390625.8408203125-.2802734375.2841796875-.4682617188.5693359375-.5639648438.8564453125-.1708984375.765625-.2563476562,1.1796875-.2563476562,1.240234375,0,.451171875.314453125.677734375.943359375.677734375.2939453125,0,.7861328125-.2529296875,1.4765625-.759765625-.1162109375-.3203125-.1743164062-.6279296875-.1743164062-.921875,0-.431640625.0888671875-.8701171875.2666015625-1.318359375.177734375-.447265625.4409179688-.9619140625.7895507812-1.54296875Z"/><path class="d" d="m234.83984375,375.8193359375v-.7578125c.3759765625-.396484375.7622070312-.9501953125,1.1586914062-1.662109375-.3828125-.0537109375-.57421875-.2080078125-.57421875-.4609375,0-.2119140625.1284179688-.4853515625.3842773438-.8203125.2568359375-.3349609375.5571289062-.6357421875.90234375-.90234375s.6171875-.400390625.8154296875-.400390625c.2255859375,0,.3383789062.0927734375.3383789062.27734375,0,.0751953125-.0205078125.123046875-.0615234375.1435546875-.0546875.0341796875-.08203125.0927734375-.08203125.1748046875,0,.068359375.0546875.1015625.1640625.1015625.341796875,0,.7705078125-.0693359375,1.2866210938-.2099609375.5161132812-.1396484375.8701171875-.2099609375,1.0615234375-.2099609375.1572265625,0,.2631835938.1474609375.3178710938.44140625.1435546875.779296875.2153320312,1.2197265625.2153320312,1.322265625,0,.095703125-.04296875.1865234375-.1279296875.271484375-.0859375.0859375-.3251953125.2548828125-.7177734375.5078125-.3935546875.2529296875-.7573242188.4970703125-1.0922851562.7333984375-.3349609375.2353515625-.7690429688.5654296875-1.3022460938.9892578125.369140625.1708984375.6372070312.3623046875.8046875.57421875s.3129882812.537109375.4360351562.974609375l2.5634765625-2.009765625v.6865234375l-2.583984375,2.0810546875c-.068359375.65625-.2958984375,1.3232421875-.6821289062,2s-.8354492188,1.28515625-1.3481445312,1.8251953125-1.0219726562.982421875-1.5278320312,1.328125c-.505859375.3447265625-.875.517578125-1.107421875.517578125-.2255859375,0-.3828125-.0732421875-.4716796875-.220703125-.0888671875-.146484375-.1333007812-.3603515625-.1333007812-.640625,0-.4033203125.0874023438-.7861328125.2612304688-1.1484375.1748046875-.3623046875.427734375-.72265625.7587890625-1.08203125.3315429688-.3583984375.7314453125-.724609375,1.2001953125-1.0966796875.4677734375-.373046875,1.091796875-.826171875,1.87109375-1.359375-.0751953125-.484375-.2016601562-.787109375-.3793945312-.9072265625-.177734375-.119140625-.4497070312-.2392578125-.8149414062-.3583984375-.3662109375-.1201171875-.548828125-.298828125-.548828125-.5390625,0-.265625,1.2817382812-1.2880859375,3.8452148438-3.0654296875-.41015625.08203125-.8920898438.1728515625-1.4458007812.271484375-.5537109375.099609375-1.080078125.1689453125-1.5791015625.2099609375-.3486328125.5546875-.6801757812,1.0400390625-.9946289062,1.45703125s-.5844726562.73828125-.8100585938.962890625Zm2.625,2.93359375c-.4921875.3408203125-.9672851562.7255859375-1.4252929688,1.1533203125-.4580078125.4267578125-.8530273438.83203125-1.1840820312,1.21484375-.3315429688.3828125-.4975585938.615234375-.4975585938.697265625,0,.1572265625.068359375.2353515625.205078125.2353515625.24609375,0,.5639648438-.13671875.9536132812-.41015625s.7690429688-.6640625,1.1381835938-1.173828125c.369140625-.5087890625.6391601562-1.08203125.8100585938-1.716796875Z"/><path class="d" d="m248.9697265625,374.9169921875v.646484375c-.5947265625.6083984375-1.109375,1.10546875-1.54296875,1.4921875-.4345703125.3857421875-.8139648438.6787109375-1.138671875.876953125s-.599609375.296875-.8251953125.296875c-.533203125,0-.7998046875-.314453125-.7998046875-.943359375,0-.505859375.1655273438-1.091796875.4970703125-1.7587890625.3315429688-.666015625.80859375-1.4501953125,1.4306640625-2.3525390625-.3076171875.1708984375-.5981445312.3671875-.8715820312.5888671875-.2734375.22265625-.5161132812.455078125-.7280273438.697265625-.2119140625.2431640625-.3896484375.4501953125-.533203125.6201171875-.4443359375.5-.8715820312,1.0107421875-1.2817382812,1.533203125-.41015625.5234375-.6870117188.86328125-.8305664062,1.0205078125s-.2802734375.2353515625-.41015625.2353515625c-.533203125,0-.7998046875-.65625-.7998046875-1.96875,0-.4296875.0649414062-.9052734375.1948242188-1.4248046875s.478515625-1.2060546875,1.0458984375-2.0615234375c1.1962890625-1.7900390625,2.2202148438-3.2548828125,3.0708007812-4.3935546875.8515625-1.1376953125,1.5571289062-1.9990234375,2.1176757812-2.583984375.560546875-.583984375.9365234375-.869140625,1.1279296875-.8564453125.2392578125.021484375.4321289062.0693359375.5795898438.14453125.146484375.0751953125.2202148438.16015625.2202148438.255859375,0,.1708984375-.1176757812.453125-.3540039062.845703125-.2353515625.3935546875-.640625,1.0068359375-1.21484375,1.8408203125-.6220703125.8818359375-1.0629882812,1.501953125-1.3227539062,1.861328125-.259765625.3583984375-.6479492188.8681640625-1.1635742188,1.52734375-.5166015625.66015625-.98828125,1.248046875-1.4150390625,1.763671875-.427734375.5166015625-.9145507812,1.0751953125-1.4614257812,1.6767578125v1.23046875c.916015625-1.0185546875,1.708984375-1.8525390625,2.37890625-2.501953125s1.2373046875-1.1396484375,1.7021484375-1.4716796875c.46484375-.3310546875.806640625-.4970703125,1.025390625-.4970703125.205078125,0,.396484375.12109375.57421875.3642578125.177734375.2421875.2666015625.4423828125.2666015625.599609375,0,.068359375-.0341796875.1533203125-.1025390625.2568359375-.4921875.587890625-.8837890625,1.07421875-1.1743164062,1.4609375-.2905273438.3857421875-.5141601562.7314453125-.6713867188,1.03515625-.1572265625.3046875-.2358398438.56640625-.2358398438.78515625,0,.3212890625.1538085938.4814453125.4614257812.4814453125.328125,0,1.0561523438-.4404296875,2.1840820312-1.3232421875Z"/><path class="d" d="m253.798828125,374.2197265625c-.9912109375,1.3125-1.7451171875,2.24609375-2.2607421875,2.7998046875-.5166015625.5537109375-.9379882812.8310546875-1.2661132812.8310546875-.259765625,0-.4990234375-.1083984375-.7177734375-.3232421875-.21875-.2158203125-.3881835938-.505859375-.5073242188-.8720703125-.1201171875-.365234375-.1796875-.7568359375-.1796875-1.173828125,0-.2734375.025390625-.51953125.0771484375-.73828125.05078125-.21875.1484375-.4599609375.2919921875-.72265625.1435546875-.263671875.3330078125-.548828125.5693359375-.8564453125.2353515625-.3076171875.5244140625-.65625.8662109375-1.0458984375.205078125-.2392578125.376953125-.44140625.517578125-.60546875.1396484375-.1640625.27734375-.2744140625.41015625-.3330078125.1337890625-.0576171875.3505859375-.0869140625.6513671875-.0869140625.21875,0,.4267578125.029296875.625.0869140625.1982421875.05859375.2978515625.1181640625.2978515625.1796875,0,.123046875-.1015625.345703125-.302734375.6669921875-.2021484375.3212890625-.5263671875.7119140625-.9736328125,1.173828125-.4482421875.4609375-.9658203125.9140625-1.5537109375,1.3583984375-.1298828125.4033203125-.1948242188.7109375-.1948242188.9228515625,0,.2939453125.1127929688.44140625.3383789062.44140625.08203125,0,.21875-.0703125.41015625-.2109375.19140625-.1396484375.513671875-.41015625.96875-.8095703125.4541015625-.400390625.86328125-.75390625,1.2255859375-1.0615234375.2666015625-.232421875.5751953125-.5791015625.927734375-1.041015625.3515625-.4609375.6376953125-.8076171875.8564453125-1.041015625.505859375-.533203125.8505859375-.8798828125,1.03515625-1.0400390625.1845703125-.1611328125.3623046875-.2412109375.533203125-.2412109375.1640625,0,.275390625.05078125.333984375.154296875.0576171875.1015625.0869140625.310546875.0869140625.625,0,.1435546875-.013671875.259765625-.041015625.3486328125s-.083984375.203125-.1689453125.34375c-.0859375.1396484375-.2587890625.3984375-.5185546875.7744140625s-.5673828125.8203125-.9228515625,1.33203125c-.19140625.2744140625-.3583984375.5732421875-.501953125.8974609375-.1435546875.3251953125-.2158203125.5693359375-.2158203125.7333984375,0,.35546875.140625.533203125.4208984375.533203125.232421875,0,.501953125-.095703125.8095703125-.287109375s.779296875-.5361328125,1.4150390625-1.03515625v.6865234375c-.7998046875.73828125-1.390625,1.275390625-1.7734375,1.6103515625s-.71484375.587890625-.9951171875.7578125c-.2802734375.171875-.546875.2568359375-.7998046875.2568359375-.57421875,0-.861328125-.341796875-.861328125-1.025390625,0-.259765625.0859375-.6103515625.2568359375-1.05078125.1708984375-.44140625.447265625-1.078125.830078125-1.9130859375Z"/><path class="d" d="m258.2490234375,373.08203125c1.0390625-.943359375,2.0478515625-1.6435546875,3.025390625-2.1025390625.9775390625-.45703125,1.732421875-.6865234375,2.265625-.6865234375.1435546875,0,.27734375.0595703125.400390625.1796875.123046875.119140625.220703125.2578125.2919921875.4150390625.072265625.1572265625.107421875.2734375.107421875.3486328125,0,.123046875-.0478515625.2138671875-.1435546875.271484375-.095703125.05859375-.2626953125.1279296875-.501953125.2099609375.0478515625.1103515625.109375.25.1845703125.4208984375s.1328125.3095703125.173828125.4150390625c.041015625.1064453125.0615234375.2001953125.0615234375.2822265625,0,.1640625-.166015625.4697265625-.4970703125.91796875-.33203125.447265625-.5634765625.77734375-.697265625.9892578125-.1328125.2119140625-.2001953125.4716796875-.2001953125.779296875,0,.505859375.232421875.7587890625.697265625.7587890625.478515625,0,1.2275390625-.447265625,2.24609375-1.3427734375v.625c-1.7294921875,1.9208984375-2.966796875,2.880859375-3.7119140625,2.880859375-.2666015625,0-.4560546875-.0869140625-.5693359375-.2607421875-.1123046875-.1748046875-.1689453125-.4326171875-.1689453125-.7744140625,0-.5400390625.1943359375-1.322265625.583984375-2.34765625-.998046875,1.107421875-1.7392578125,1.89453125-2.224609375,2.36328125-.4853515625.4677734375-.8857421875.7021484375-1.2001953125.7021484375-.150390625,0-.337890625-.1298828125-.5634765625-.3896484375s-.42578125-.5966796875-.599609375-1.009765625c-.1748046875-.4140625-.26171875-.8427734375-.26171875-1.287109375,0-.3212890625.0302734375-.58984375.091796875-.8046875.0615234375-.2158203125.181640625-.435546875.359375-.662109375.177734375-.224609375.4609375-.5224609375.8505859375-.8916015625Zm4.912109375-1.1279296875c-1.77734375.8134765625-3.0439453125,1.50390625-3.798828125,2.0712890625-.755859375.5673828125-1.1337890625,1.15234375-1.1337890625,1.7529296875,0,.2197265625.0380859375.3984375.11328125.5390625.0751953125.1396484375.177734375.2099609375.3076171875.2099609375.0751953125,0,.2080078125-.0478515625.3994140625-.1435546875.7177734375-.423828125,1.3740234375-.9755859375,1.96875-1.65625.5947265625-.6796875,1.3095703125-1.6044921875,2.1435546875-2.7734375Z"/><path class="d" d="m265.4677734375,375.70703125v-.6669921875c.369140625-.4365234375.6494140625-.8095703125.8408203125-1.1171875-.21875-.0751953125-.3779296875-.1669921875-.4765625-.27734375-.099609375-.1083984375-.1484375-.2724609375-.1484375-.4921875,0-.24609375.1025390625-.556640625.3076171875-.9326171875s.4580078125-.7275390625.7587890625-1.0556640625.57421875-.5400390625.8203125-.63671875c.095703125-.046875.1875-.0712890625.2763671875-.0712890625.13671875,0,.205078125.0654296875.205078125.1943359375,0,.1171875-.10546875.3525390625-.3173828125.7080078125,1.408203125-.21875,2.296875-.328125,2.666015625-.328125.1435546875,0,.2421875.013671875.296875.041015625.1162109375.0615234375.2119140625.205078125.287109375.4306640625s.11328125.451171875.11328125.6767578125c0,.1435546875-.0634765625.298828125-.1904296875.466796875-.1259765625.1669921875-.3427734375.412109375-.650390625.7333984375-.3623046875.388671875-.6669921875.8134765625-.9130859375,1.271484375s-.369140625.802734375-.369140625,1.03515625c0,.3212890625.1982421875.482421875.5947265625.482421875.4169921875,0,1.1416015625-.423828125,2.173828125-1.271484375v.6865234375c-.5673828125.5947265625-1.03515625,1.0634765625-1.404296875,1.4052734375s-.7109375.61328125-1.025390625.814453125c-.314453125.2021484375-.5947265625.302734375-.8408203125.302734375-.287109375,0-.5263671875-.1318359375-.7177734375-.39453125-.19140625-.263671875-.287109375-.64453125-.287109375-1.1435546875,0-.2939453125.0751953125-.62890625.2255859375-1.0048828125s.3701171875-.7841796875.6611328125-1.2255859375c.2900390625-.4404296875.6171875-.8798828125.9794921875-1.3173828125-.19140625.041015625-.4072265625.083984375-.646484375.1279296875-.2392578125.044921875-.4921875.0908203125-.7587890625.138671875s-.4716796875.0859375-.615234375.1123046875c-.423828125.8486328125-1.0390625,1.6171875-1.845703125,2.3076171875Z"/><path class="d" d="m273.3427734375,375.2861328125v.2568359375c0,.4033203125.099609375.7177734375.2978515625.943359375s.4580078125.3388671875.779296875.3388671875c.3349609375,0,.681640625-.0791015625,1.0400390625-.236328125.359375-.1572265625.716796875-.365234375,1.072265625-.625s.7890625-.6083984375,1.3017578125-1.046875v.6259765625c-.7724609375.9296875-1.4970703125,1.642578125-2.173828125,2.1376953125-.6767578125.49609375-1.36328125.744140625-2.060546875.744140625-.6083984375,0-1.0908203125-.236328125-1.4462890625-.7080078125s-.533203125-1.1181640625-.533203125-1.9384765625c0-.716796875.16796875-1.3681640625.5029296875-1.953125.3349609375-.583984375.8818359375-1.201171875,1.640625-1.8505859375.51953125-.4443359375,1.03515625-.779296875,1.5478515625-1.0048828125s.970703125-.337890625,1.3740234375-.337890625c.3212890625,0,.576171875.0732421875.763671875.2197265625.1884765625.1474609375.2822265625.3681640625.2822265625.6611328125,0,.431640625-.16015625.8603515625-.4814453125,1.287109375-.3212890625.427734375-.8125.8515625-1.4716796875,1.271484375-.66015625.4208984375-1.4716796875.826171875-2.435546875,1.21484375Zm.1025390625-.666015625c.615234375-.2392578125,1.1416015625-.5361328125,1.5791015625-.892578125.4375-.3544921875.7607421875-.6953125.96875-1.01953125.208984375-.3251953125.3134765625-.5625.3134765625-.712890625,0-.1572265625-.072265625-.236328125-.2158203125-.236328125-.123046875,0-.3232421875.0791015625-.599609375.236328125-.27734375.1572265625-.5576171875.3623046875-.8408203125.615234375-.2841796875.2529296875-.5380859375.55078125-.763671875.892578125s-.373046875.7138671875-.44140625,1.1171875Z"/></g></svg>