<svg xmlns="http://www.w3.org/2000/svg" width="192" height="75.552" viewBox="0 0 144 56.629" xmlns:v="https://vecta.io/nano"><path d="M44.525 10.3c2.417-1.53 5.451-1.743 8.205-1.229 2.424.494 4.191 2.361 5.831 4.074l-3.774 3.787c-1.051-1.316-2.334-2.619-4.027-3.026-1.125-.155-2.448-.2-3.34.629-.638.553-1.195 1.442-.831 2.302.323.609.925.997 1.453 1.413 2.765 1.864 5.907 3.266 8.196 5.757 1.112 1.164 1.835 2.752 1.736 4.382-.09 2.37-1.521 4.546-3.477 5.82-1.429.961-3.201 1.251-4.892 1.258-1.968.04-3.991-.346-5.676-1.399-1.334-.77-2.435-1.851-3.558-2.889 1.069-1.283 2.323-2.408 3.45-3.641l.144-.02c1.732 1.179 3.513 2.489 5.645 2.785 1.19.193 2.482-.422 2.983-1.536.209-.438.013-.925-.265-1.278-1.065-1.453-2.682-2.331-4.16-3.3-1.736-1.157-3.686-2.066-5.083-3.663-1.534-1.552-2.251-3.915-1.68-6.042.438-1.736 1.637-3.216 3.12-4.185h0 0zm14.236 5.777l5.004.002.043.51c2.752-1.08 6.132-.485 8.246 1.622 1.521-1.516 3.706-2.284 5.842-2.123 2.684.056 5.148 1.754 6.476 4.036.71 1.204.943 2.612.995 3.991l.013 11.339-5.052.011-.004-11.577c.004-1.132-.784-2.174-1.817-2.59-1.732-.795-4.043.665-3.928 2.599l.007 11.559-5.058.007.007-11.556c.052-1.211-.872-2.3-1.983-2.677-1.723-.638-3.843.815-3.767 2.668l.004 11.565c-1.685.004-3.371.016-5.056-.007l.029-19.38h0 0z" fill="#0b9445"/><path d="M124.326 8.998l5.049-.004-.007 7.174 6.345-.004c-.445 1.395-1.157 2.783-2.401 3.623a7.44 7.44 0 0 1-3.935 1.35l.002 6.134c.002.919.229 1.954 1.071 2.469 1.274.746 2.817.743 4.25.732.097 1.653-.112 3.315.002 4.973-2.397.079-4.946-.038-7.064-1.283-1.786-1.065-2.767-3.075-3.066-5.074-.402-2.619-.191-5.278-.225-7.915a37.44 37.44 0 0 0-2.511.007l-.027-5.02 2.536.002-.02-7.163h0 0z" fill="#0c9446"/><path d="M114.344 19.916c1.053-2.531 3.908-4.14 6.626-3.767l.029 4.903c-2.653-.261-5.436 1.433-6.22 4.021-.595 1.568-.438 3.261-.454 4.899l.013 5.481-5.301.007V16.179l4.993-.02c-.011 1.471.088 2.949-.088 4.416.207-.166.292-.425.4-.658h0zm-28.032 4.187c.764-4.47 5.018-8.007 9.555-7.931 2.291-.022 4.535.863 6.294 2.311a65.56 65.56 0 0 0 .009-2.302l5.213.011.004 19.258c-1.743.034-3.484.018-5.227.009l.027-2.1c-1.42 1.006-2.99 1.878-4.737 2.123-3.295.584-6.835-.725-8.98-3.286-1.878-2.192-2.752-5.254-2.159-8.093m8.538-2.969c-1.289.285-2.477 1.08-3.151 2.226-.975 1.527-.961 3.612.031 5.126.898 1.464 2.626 2.381 4.346 2.26 2.574-.04 4.82-2.471 4.625-5.047-.016-2.902-3.039-5.222-5.851-4.564h0z" fill="#0b9444"/><path d="M20.875 1.983c.149-.072.304-.128.463-.172l.083.161c.358.751.854 1.423 1.272 2.141 2.466 4.228 3.848 9.127 3.709 14.034.029 1.864-.381 3.691-.575 5.534l-.095.008a33.48 33.48 0 0 0-4.504-7.319c-2.296-2.991-5.184-5.49-8.333-7.551 2.298-2.658 4.977-5 7.979-6.837zm-2.931 15.658c.976-.412 1.912-.981 2.989-1.076-1.636 2.214-3.202 4.522-4.264 7.073-1.595 3.335-2.511 6.976-2.869 10.65-3.157-.625-6.194-1.754-9.059-3.209 2.571-5.89 7.431-10.673 13.203-13.439z" fill="#23aa4a"/><path d="M21.421 1.973c6.959 4.21 12.237 11.053 14.725 18.784-3.256 1.516-6.748 2.524-10.319 2.925.194-1.843.604-3.67.575-5.534.139-4.907-1.243-9.806-3.709-14.034-.418-.718-.914-1.39-1.272-2.141h0z" fill="#60bb46"/><path d="M6.322 20.439c1.405-4.253 3.662-8.217 6.574-11.618 3.149 2.06 6.037 4.559 8.333 7.551-.37.043-.739-.023-1.107-.048l.116.248c-1.247.25-2.418.77-3.585 1.266-4.154 1.808-7.896 4.591-10.712 8.151-.374.47-.697.981-1.103 1.427.314-2.358.739-4.713 1.483-6.978h0z" fill="#8cc63f"/><path d="M25.828 23.682c3.571-.401 7.063-1.409 10.319-2.925.976 3.132 1.477 6.405 1.471 9.686-7.083.11-14.132-2.176-19.934-6.21-.261-.19-.488-.42-.718-.643 2.907.308 5.855.439 8.767.101l.095-.008h0 0z" fill="#66bce1"/><path d="M13.8 34.289c.358-3.674 1.274-7.315 2.869-10.65l.17-.174.126.124c.23.223.457.453.718.643 5.803 4.034 12.851 6.32 19.934 6.21-4.293 2.629-9.258 4.094-14.266 4.456-3.194.101-6.415.085-9.551-.61zm88.393 4.554h5.781c1.144 0 1.998.048 2.56.143a3.76 3.76 0 0 1 1.509.597c.444.303.814.705 1.11 1.208s.444 1.068.444 1.693a3.37 3.37 0 0 1-.547 1.864 3.39 3.39 0 0 1-1.485 1.273c.881.256 1.559.694 2.032 1.312s.71 1.345.71 2.18c0 .658-.153 1.297-.459 1.919s-.723 1.118-1.253 1.49-1.182.6-1.958.686c-.487.053-1.661.085-3.522.099h-4.923V38.843zm2.92 2.408v3.344h1.914l2.121-.049c.5-.059.893-.232 1.179-.518s.429-.663.429-1.13c0-.447-.123-.811-.37-1.09s-.613-.449-1.1-.508c-.289-.033-1.121-.049-2.496-.049h-1.677zm0 5.751v3.867h2.703l2.003-.089c.434-.079.788-.271 1.06-.577s.409-.715.409-1.228c0-.434-.105-.802-.316-1.105s-.515-.523-.912-.661-1.261-.207-2.589-.207h-2.358zm14.294 6.304h-2.772V42.829h2.575v1.49c.441-.704.837-1.167 1.189-1.391s.751-.335 1.199-.335c.631 0 1.24.174 1.825.523l-.858 2.417c-.467-.303-.901-.454-1.302-.454-.388 0-.717.107-.986.321s-.482.6-.636 1.159-.232 1.73-.232 3.512v3.236zm4.567-5.386c0-.921.227-1.812.681-2.673a4.67 4.67 0 0 1 1.929-1.973c.832-.454 1.761-.681 2.787-.681 1.585 0 2.884.515 3.897 1.544s1.519 2.33 1.519 3.902c0 1.585-.511 2.899-1.534 3.941s-2.31 1.564-3.862 1.564a6.08 6.08 0 0 1-2.747-.651c-.871-.434-1.534-1.07-1.988-1.909s-.681-1.86-.681-3.063zm2.841.148c0 1.039.247 1.835.74 2.387a2.35 2.35 0 0 0 1.825.829c.723 0 1.33-.276 1.82-.829s.735-1.355.735-2.407c0-1.026-.245-1.815-.735-2.368s-1.097-.829-1.82-.829a2.35 2.35 0 0 0-1.825.829c-.493.552-.74 1.348-.74 2.387z" fill="#1595d0"/></svg>